<svg width="108" height="62" xmlns="http://www.w3.org/2000/svg" xmlns:xlink="http://www.w3.org/1999/xlink" xml:space="preserve" overflow="hidden"><defs><clipPath id="clip0"><rect x="166" y="1353" width="108" height="62"/></clipPath></defs><g clip-path="url(#clip0)" transform="translate(-166 -1353)"><path d="M267.051 1375.8 252.227 1371.1C250.071 1369.31 240.87 1361.66 237.691 1358.97 232.787 1354.84 229.528 1353 223.139 1353L203.379 1353C198.571 1353 196.303 1354.45 193.954 1355.95 188.475 1359.44 180.009 1367.54 177.533 1369.94L173.444 1370.68C169.211 1371.39 166 1375.25 166 1379.67L166 1393.72C166 1395.03 166.495 1396.27 167.406 1397.2L173.188 1403.21C174.115 1404.17 175.409 1404.72 176.735 1404.72L179.354 1404.72C181.031 1411.89 188.156 1416.33 195.264 1414.64 200.12 1413.48 203.922 1409.68 205.088 1404.79L237.324 1404.79C239.033 1411.95 246.189 1416.35 253.282 1414.61 258.138 1413.43 261.907 1409.6 263.058 1404.71L265.182 1404.71C266.604 1404.71 267.962 1404.09 268.888 1403.01L272.77 1398.57C273.568 1397.65 274 1396.48 274 1395.27L274 1384.72C274.032 1380.54 271.045 1376.72 267.051 1375.8ZM192.245 1408.86C188.3 1408.88 185.089 1405.66 185.073 1401.66 185.057 1397.68 188.252 1394.45 192.213 1394.43 196.079 1394.42 199.242 1397.49 199.386 1401.39L199.338 1401.65 199.386 1401.9C199.242 1405.78 196.095 1408.84 192.245 1408.86ZM250.183 1408.86C246.333 1408.84 243.186 1405.78 243.058 1401.9L243.106 1401.65 243.058 1401.39C243.202 1397.41 246.525 1394.32 250.47 1394.46 254.416 1394.61 257.483 1397.96 257.339 1401.94 257.195 1405.8 254.032 1408.86 250.183 1408.86ZM267.946 1394.85 264.687 1398.57 263.074 1398.57C261.396 1391.4 254.272 1386.96 247.164 1388.65 242.307 1389.81 238.506 1393.61 237.34 1398.51L205.104 1398.51C203.395 1391.34 196.239 1386.94 189.146 1388.68 184.29 1389.86 180.52 1393.69 179.37 1398.59L177.23 1398.59 172.102 1393.26 172.102 1379.67C172.102 1378.3 173.172 1376.94 174.482 1376.74L179.53 1375.83C180.137 1375.72 180.696 1375.43 181.127 1375 184.658 1371.49 192.565 1364.08 197.389 1361.02 199.29 1359.81 200.344 1359.14 203.379 1359.14L223.139 1359.14C227.452 1359.14 229.353 1359.94 233.777 1363.68 237.403 1366.74 248.809 1376.2 248.809 1376.2 249.112 1376.46 249.464 1376.64 249.831 1376.77L265.358 1381.69 265.645 1381.78C266.891 1382.03 267.93 1383.4 267.93 1384.75L267.946 1394.85ZM237.851 1381.05C239.879 1381.05 241.509 1379.39 241.509 1377.36 241.509 1376.3 241.062 1375.3 240.263 1374.59 240.199 1374.53 233.043 1368.23 230.567 1366.25 226.925 1363.35 225.822 1362.48 222.18 1362.48L205.344 1362.48C201.718 1362.48 200.424 1363.53 196.942 1366.3L196.958 1366.32 196.83 1366.38C194.29 1368.39 187.197 1374.67 187.086 1374.77L186.59 1375.25 186.191 1375.82C185.344 1377.67 186.143 1379.86 187.964 1380.71 188.443 1380.94 188.971 1381.05 189.498 1381.05L237.851 1381.05ZM189.673 1377.36C190.792 1376.38 196.894 1371 199.082 1369.28L199.178 1369.17 199.194 1369.18C202.484 1366.56 202.98 1366.16 205.344 1366.16L222.196 1366.16C224.576 1366.16 224.928 1366.45 228.33 1369.13 230.758 1371.07 237.819 1377.3 237.883 1377.36L189.673 1377.36Z" fill="#28B5E8" fill-rule="evenodd"/></g></svg>