<svg width="75" height="71" xmlns="http://www.w3.org/2000/svg" xmlns:xlink="http://www.w3.org/1999/xlink" xml:space="preserve" overflow="hidden"><defs><clipPath id="clip0"><rect x="1783" y="570" width="75" height="71"/></clipPath></defs><g clip-path="url(#clip0)" transform="translate(-1783 -570)"><path d="M1857.94 577.919C1857.39 572.489 1848.57 570 1840.35 570 1832.12 570 1823.32 572.489 1822.75 577.919L1822.69 578.182 1822.69 632.527C1822.69 638.351 1831.85 641 1840.35 641 1848.84 641 1858 638.351 1858 632.527L1858 578.196 1857.94 577.919ZM1852.44 609.191C1852 610.079 1847.81 612.262 1840.35 612.262 1832.84 612.262 1828.65 610.064 1828.27 609.351L1828.27 608.026C1831.63 609.438 1836.07 610.108 1840.35 610.108 1844.62 610.108 1849.08 609.438 1852.44 608.011L1852.44 609.191ZM1852.44 601.489C1851.98 602.377 1847.81 604.546 1840.35 604.546 1832.84 604.546 1828.65 602.348 1828.27 601.635L1828.27 600.281C1831.63 601.693 1836.07 602.363 1840.35 602.363 1844.62 602.363 1849.08 601.693 1852.44 600.266L1852.44 601.489ZM1852.44 593.759C1851.98 594.647 1847.79 596.816 1840.35 596.816 1832.84 596.816 1828.65 594.618 1828.27 593.904L1828.27 592.58C1831.63 593.992 1836.07 594.661 1840.35 594.661 1844.62 594.661 1849.08 593.992 1852.44 592.58L1852.44 593.759ZM1828.25 615.727C1831.61 617.139 1836.05 617.809 1840.33 617.809 1844.61 617.809 1849.08 617.125 1852.44 615.713L1852.44 616.95C1852.01 617.824 1847.82 620.022 1840.33 620.022 1832.82 620.022 1828.63 617.824 1828.25 617.11L1828.25 615.727ZM1852.42 586.058C1851.95 586.946 1847.78 589.115 1840.33 589.115 1832.82 589.115 1828.63 586.916 1828.25 586.203L1828.25 584.849C1831.61 586.261 1836.05 586.931 1840.33 586.931 1844.61 586.931 1849.06 586.261 1852.42 584.849L1852.42 586.058ZM1828.25 623.487C1831.61 624.899 1836.05 625.568 1840.33 625.568 1844.61 625.568 1849.08 624.884 1852.44 623.472L1852.44 624.651C1852.03 625.525 1847.82 627.723 1840.33 627.723 1832.84 627.723 1828.63 625.525 1828.25 624.811L1828.25 623.487ZM1840.35 575.547C1847.43 575.547 1851.56 577.497 1852.35 578.458 1851.56 579.419 1847.43 581.37 1840.35 581.37 1833.26 581.37 1829.13 579.419 1828.34 578.458 1829.13 577.512 1833.26 575.547 1840.35 575.547ZM1840.35 635.453C1832.84 635.453 1828.65 633.255 1828.27 632.542L1828.27 631.202C1831.63 632.615 1836.07 633.284 1840.35 633.284 1844.62 633.284 1849.09 632.6 1852.45 631.188L1852.45 632.382C1852.04 633.255 1847.85 635.453 1840.35 635.453ZM1800.65 593.089C1792.16 593.089 1783 595.739 1783 601.547L1783.01 601.62 1783 601.649 1783 632.44C1783 638.263 1792.16 640.913 1800.65 640.913 1809.15 640.913 1818.31 638.263 1818.31 632.44L1818.31 601.664 1818.31 601.635 1818.31 601.562C1818.29 595.739 1809.15 593.089 1800.65 593.089ZM1788.56 615.669C1791.92 617.081 1796.36 617.751 1800.64 617.751 1804.92 617.751 1809.37 617.067 1812.73 615.654L1812.73 616.834C1812.29 617.722 1808.1 619.891 1800.64 619.891 1793.13 619.891 1788.94 617.693 1788.56 616.979L1788.56 615.669ZM1812.73 609.147C1812.28 610.035 1808.09 612.204 1800.64 612.204 1793.13 612.204 1788.94 610.006 1788.56 609.292L1788.56 607.953C1791.92 609.365 1796.36 610.035 1800.64 610.035 1804.92 610.035 1809.37 609.365 1812.73 607.953L1812.73 609.147ZM1788.56 623.37C1791.92 624.782 1796.36 625.452 1800.64 625.452 1804.92 625.452 1809.39 624.782 1812.75 623.356L1812.75 624.593C1812.32 625.467 1808.13 627.665 1800.64 627.665 1793.15 627.665 1788.94 625.467 1788.56 624.753L1788.56 623.37ZM1800.64 598.636C1807.72 598.636 1811.86 600.587 1812.64 601.547 1811.86 602.508 1807.72 604.459 1800.64 604.459 1793.56 604.459 1789.43 602.508 1788.64 601.547 1789.44 600.601 1793.57 598.636 1800.64 598.636L1800.64 598.636ZM1800.64 635.366C1793.13 635.366 1788.94 633.168 1788.56 632.454L1788.56 631.144C1791.92 632.556 1796.36 633.226 1800.64 633.226 1804.92 633.226 1809.39 632.542 1812.75 631.13L1812.75 632.294C1812.35 633.168 1808.16 635.366 1800.64 635.366L1800.64 635.366Z" fill="#2CB5E8" fill-rule="evenodd"/></g></svg>