<svg width="100" height="76" xmlns="http://www.w3.org/2000/svg" xmlns:xlink="http://www.w3.org/1999/xlink" xml:space="preserve" overflow="hidden"><defs><clipPath id="clip0"><rect x="2775" y="568" width="100" height="76"/></clipPath></defs><g clip-path="url(#clip0)" transform="translate(-2775 -568)"><path d="M2875 626.37 2875 625.792 2875 625.216 2874.83 624.772C2874.76 624.546 2874.66 624.329 2874.54 624.126L2874.52 624.069 2874.13 623.694 2873.75 623.307 2868.86 619.954 2867.06 614.422C2866.54 612.831 2864.82 611.957 2863.21 612.47 2862.84 612.588 2862.5 612.775 2862.2 613.02L2855.82 618.259 2855.82 617.614C2855.82 611.198 2850.56 605.998 2844.08 605.991L2823.67 605.991 2823.67 587.115C2823.68 586.756 2823.63 586.398 2823.51 586.058L2823.47 585.933C2823.31 585.532 2823.06 585.17 2822.75 584.871L2815.28 577.41 2815.28 571.026C2815.28 569.354 2813.92 568 2812.23 568 2812.22 568 2812.22 568 2812.22 568L2784.33 568C2782.64 568 2781.27 569.354 2781.27 571.026L2781.27 578.01 2775.26 591.174 2775.26 591.209 2775.12 591.8 2775 592.387 2775 592.42 2775 640.974C2775 642.645 2776.37 644 2778.06 644L2805.93 644 2806.07 643.973 2852.76 643.973C2854.45 643.973 2855.82 642.618 2855.82 640.947L2855.82 633.328 2862.2 638.566C2863.5 639.633 2865.43 639.455 2866.51 638.168 2866.75 637.871 2866.94 637.531 2867.06 637.164L2868.86 631.633 2873.75 628.275 2873.82 628.202C2874.09 628.012 2874.33 627.779 2874.52 627.513L2874.54 627.456C2874.66 627.252 2874.76 627.035 2874.83 626.81ZM2800.31 637.922 2800.31 617.614C2800.31 614.539 2802.83 612.047 2805.94 612.042L2810.73 612.042 2810.73 637.917ZM2786.87 580.471 2808.05 580.471 2803.97 589.396 2782.79 589.396ZM2813.18 583.91 2815.1 585.837 2811.74 587.071ZM2814.4 612.042 2836.6 612.042 2836.6 637.917 2814.4 637.917ZM2817.56 605.991 2808.99 605.991 2808.99 594.528 2817.56 591.392ZM2809.17 574.051 2809.17 576.843 2787.39 576.843 2787.39 574.051ZM2781.11 595.449 2802.87 595.449 2802.87 606.442C2797.89 607.785 2794.19 612.26 2794.19 617.614L2794.19 637.949 2781.11 637.949ZM2849.71 637.922 2840.28 637.922 2840.28 612.047 2844.08 612.047C2847.18 612.052 2849.7 614.544 2849.71 617.619ZM2864.52 627.243C2863.97 627.622 2863.56 628.171 2863.35 628.804L2862.62 631.052 2856.22 625.794 2862.62 620.537 2863.35 622.786C2863.56 623.419 2863.97 623.967 2864.52 624.345L2866.63 625.794Z" fill="#2CB5E8" fill-rule="evenodd"/></g></svg>