<svg width="96" height="108" xmlns="http://www.w3.org/2000/svg" xmlns:xlink="http://www.w3.org/1999/xlink" xml:space="preserve" overflow="hidden"><defs><clipPath id="clip0"><rect x="2909" y="770" width="96" height="108"/></clipPath></defs><g clip-path="url(#clip0)" transform="translate(-2909 -770)"><path d="M2957.07 804.09C2948 804.09 2938.83 807.108 2938.83 812.878L2938.83 835.122C2938.83 840.892 2948 843.91 2957.07 843.91 2966.13 843.91 2975.3 840.892 2975.3 835.122L2975.3 812.86C2975.3 807.09 2966.13 804.09 2957.07 804.09ZM2971.23 835.105C2971.23 836.702 2966.24 839.827 2957.07 839.827 2947.9 839.827 2942.9 836.702 2942.9 835.105L2942.9 833.454C2946.42 835.477 2951.75 836.525 2957.07 836.525 2962.38 836.525 2967.71 835.477 2971.23 833.454L2971.23 835.105ZM2971.23 827.737C2971.23 829.335 2966.24 832.459 2957.07 832.459 2947.9 832.459 2942.9 829.335 2942.9 827.737L2942.9 825.749C2946.42 827.773 2951.75 828.82 2957.07 828.82 2962.38 828.82 2967.71 827.773 2971.23 825.749L2971.23 827.737ZM2971.23 820.032C2971.23 821.63 2966.24 824.755 2957.07 824.755 2947.9 824.755 2942.9 821.63 2942.9 820.032L2942.9 818.576C2946.42 820.6 2951.75 821.648 2957.07 821.648 2962.38 821.648 2967.71 820.6 2971.23 818.576L2971.23 820.032ZM2957.07 817.582 2957.07 817.582C2947.9 817.582 2942.9 814.476 2942.9 812.86 2942.9 811.244 2947.91 808.138 2957.07 808.138 2966.24 808.138 2971.23 811.262 2971.23 812.86 2971.23 814.458 2966.24 817.582 2957.07 817.582ZM3000.69 839.365 3000.69 839.365C2997.3 837.377 2992.98 837.998 2990.28 840.857L2987.08 839.01C2991.91 829.566 2991.93 818.399 2987.17 808.919L2990.28 807.108C2991.35 808.244 2992.71 809.043 2994.22 809.451 2996.41 810.037 2998.74 809.735 3000.71 808.581 3004.8 806.238 3006.22 801.019 3003.86 796.935 3001.51 792.852 2996.29 791.432 2992.2 793.793 2988.77 795.764 2987.15 799.811 2988.25 803.593L2985.14 805.404C2979.31 796.58 2969.66 791.006 2959.09 790.367L2959.09 786.816C2963.68 785.698 2966.48 781.082 2965.35 776.502 2964.23 771.921 2959.61 769.116 2955.02 770.253 2950.44 771.371 2947.63 775.987 2948.77 780.567 2949.53 783.656 2951.93 786.071 2955.02 786.816L2955.02 790.349C2944.45 790.988 2934.8 796.563 2928.97 805.404L2925.88 803.611C2927.23 799.048 2924.62 794.255 2920.05 792.923 2915.48 791.592 2910.68 794.184 2909.35 798.746 2908.02 803.309 2910.61 808.102 2915.18 809.434 2918.27 810.339 2921.61 809.451 2923.85 807.126L2926.96 808.937C2922.18 818.399 2922.22 829.583 2927.05 839.028L2923.85 840.874C2920.58 837.484 2915.18 837.359 2911.77 840.626 2908.35 843.892 2908.25 849.289 2911.52 852.698 2914.79 856.106 2920.19 856.213 2923.6 852.946 2925.89 850.745 2926.78 847.443 2925.88 844.39L2929.08 842.543C2934.92 851.278 2944.52 856.781 2955.02 857.42L2955.02 861.184C2950.44 862.302 2947.63 866.918 2948.77 871.498 2949.89 876.079 2954.51 878.884 2959.09 877.747 2963.68 876.629 2966.48 872.013 2965.35 867.433 2964.58 864.344 2962.18 861.93 2959.09 861.184L2959.09 857.42C2969.59 856.781 2979.19 851.278 2985.04 842.543L2988.24 844.39C2986.92 848.916 2989.53 853.639 2994.05 854.953 2998.58 856.266 3003.31 853.656 3004.62 849.147 3005.72 845.348 3004.11 841.336 3000.69 839.365ZM2994.86 798.533C2996.36 797.663 2998.26 798.178 2999.13 799.669 3000 801.161 2999.48 803.06 2997.99 803.93 2997.28 804.356 2996.41 804.463 2995.61 804.25L2995.63 804.25C2994.83 804.037 2994.15 803.522 2993.73 802.794 2992.86 801.303 2993.37 799.385 2994.86 798.533ZM2920.39 802.705C2919.55 804.214 2917.65 804.747 2916.14 803.912 2916.1 803.895 2916.07 803.877 2916.05 803.859 2914.57 802.972 2914.09 801.054 2914.98 799.581 2915.87 798.107 2917.79 797.628 2919.27 798.515 2920.71 799.385 2921.2 801.249 2920.39 802.705ZM2919.27 849.449C2917.77 850.319 2915.87 849.804 2915 848.313 2914.13 846.822 2914.65 844.922 2916.14 844.052 2916.62 843.768 2917.15 843.626 2917.7 843.626 2917.97 843.626 2918.25 843.662 2918.52 843.733L2918.52 843.733C2919.32 843.946 2919.99 844.46 2920.42 845.188 2921.27 846.68 2920.76 848.579 2919.27 849.449ZM2953.94 778.561C2953.94 776.839 2955.34 775.437 2957.07 775.437 2958.79 775.437 2960.19 776.839 2960.19 778.561 2960.19 780.283 2958.79 781.686 2957.07 781.686 2955.34 781.668 2953.94 780.283 2953.94 778.561ZM2960.18 869.421C2960.18 871.143 2958.77 872.546 2957.05 872.546 2955.32 872.546 2953.92 871.143 2953.92 869.421 2953.92 867.699 2955.34 866.297 2957.07 866.297 2958.79 866.297 2960.18 867.699 2960.18 869.421ZM2957.07 850.727C2942.24 850.727 2930.18 838.673 2930.18 823.867 2930.18 809.061 2942.24 797.006 2957.07 797.006 2971.89 797.006 2983.94 809.061 2983.94 823.867 2983.94 838.673 2971.89 850.727 2957.07 850.727ZM2997.23 849.769C2995.56 850.212 2993.85 849.218 2993.41 847.549 2992.96 845.881 2993.96 844.176 2995.63 843.733 2995.9 843.662 2996.16 843.626 2996.45 843.626 2997 843.626 2997.53 843.768 2998.01 844.052 2998.72 844.46 2999.25 845.153 2999.47 845.952 2999.89 847.621 2998.9 849.325 2997.23 849.769Z" fill="#2CB5E8" fill-rule="evenodd"/></g></svg>