<svg width="102" height="67" xmlns="http://www.w3.org/2000/svg" xmlns:xlink="http://www.w3.org/1999/xlink" xml:space="preserve" overflow="hidden"><defs><clipPath id="clip0"><rect x="1406" y="790" width="102" height="67"/></clipPath></defs><g clip-path="url(#clip0)" transform="translate(-1406 -790)"><path d="M1505.97 846.161 1498.33 846.161 1498.33 796.454C1498.33 792.9 1495.43 790 1491.84 790L1422.16 790C1418.59 790 1415.67 792.9 1415.67 796.454L1415.67 846.161 1408.03 846.161C1406.91 846.161 1406 847.062 1406 848.176L1406 848.884C1406 853.517 1409.31 857 1413.68 857L1499.34 857C1503.95 857 1508 853.198 1508 848.884L1508 848.176C1508 847.062 1507.09 846.161 1505.97 846.161L1505.97 846.161ZM1413.68 852.968C1411.83 852.968 1410.68 851.713 1410.25 850.21L1443.02 850.21 1443.02 852.42 1443.09 852.968 1413.68 852.968ZM1466.91 848.194 1466.91 850.404 1447.09 850.404 1447.09 848.176C1447.09 847.062 1446.18 846.161 1445.06 846.161L1422.46 846.161 1422.46 796.737 1491.55 796.737 1491.55 846.161 1468.96 846.161C1467.84 846.161 1466.93 847.062 1466.91 848.194L1466.91 848.194 1466.91 848.194ZM1499.34 852.968 1470.91 852.968 1470.98 852.42 1470.98 850.21 1503.64 850.21C1502.99 851.766 1501.24 852.968 1499.34 852.968L1499.34 852.968ZM1483.86 824.234 1479.82 824.234 1476.6 816.153C1476.16 815.039 1474.89 814.508 1473.79 814.933 1473.24 815.145 1472.8 815.587 1472.57 816.153L1468.41 826.639 1464.32 810.706C1464.07 809.734 1463.21 809.186 1462.18 809.08 1461.19 809.097 1460.32 809.787 1460.1 810.76L1456.33 827.576 1451.92 813.872C1451.64 812.988 1450.8 812.369 1449.88 812.369L1449.86 812.369C1448.92 812.369 1448.1 812.97 1447.8 813.836L1442.98 828.195 1438.16 816.966C1437.7 815.87 1436.44 815.357 1435.34 815.817 1434.71 816.064 1434.25 816.595 1434.07 817.231L1432.1 824.216 1428.46 824.216C1427.26 824.216 1426.29 825.189 1426.29 826.373 1426.29 827.558 1427.26 828.531 1428.46 828.531 1428.46 828.531 1428.46 828.531 1428.46 828.531L1433.75 828.531C1434.73 828.531 1435.58 827.894 1435.83 826.957L1436.6 824.287 1441.24 835.126C1441.7 836.223 1442.98 836.735 1444.08 836.276 1444.65 836.028 1445.1 835.551 1445.29 834.967L1449.81 821.475 1454.63 836.47C1454.91 837.372 1455.76 837.973 1456.71 837.973L1456.8 837.973C1457.77 837.938 1458.61 837.248 1458.82 836.293L1462.36 820.521 1465.86 834.172C1466.09 835.073 1466.88 835.728 1467.82 835.798 1468.76 835.887 1469.65 835.321 1469.97 834.437L1474.57 822.837 1476.3 827.204C1476.62 828.036 1477.42 828.566 1478.31 828.566L1483.82 828.566C1485.01 828.566 1485.99 827.594 1485.99 826.409 1486.01 825.206 1485.03 824.234 1483.86 824.234L1483.86 824.234Z" fill="#2BB4E7" fill-rule="evenodd"/></g></svg>