<svg width="103" height="68" xmlns="http://www.w3.org/2000/svg" xmlns:xlink="http://www.w3.org/1999/xlink" xml:space="preserve" overflow="hidden"><defs><clipPath id="clip0"><rect x="2555" y="572" width="103" height="68"/></clipPath></defs><g clip-path="url(#clip0)" transform="translate(-2555 -572)"><path d="M2608.74 604.851 2606.18 603.577C2601.45 601.243 2600.7 600.686 2600.7 598.191 2600.7 593.991 2605.14 593.667 2606.5 593.667 2607.86 593.667 2612.19 593.991 2612.19 598.191 2612.19 599.394 2613.18 600.381 2614.38 600.381 2615.59 600.381 2616.57 599.394 2616.57 598.191 2616.57 593.542 2613.49 590.221 2608.69 589.467L2608.69 587.546C2608.65 586.343 2607.65 585.392 2606.45 585.428 2605.28 585.464 2604.35 586.397 2604.33 587.546L2604.33 589.467C2599.46 590.221 2596.34 593.542 2596.34 598.209 2596.34 603.613 2599.66 605.246 2604.26 607.526L2606.82 608.801C2611.55 611.134 2612.3 611.691 2612.3 614.186 2612.3 618.333 2607.86 618.656 2606.5 618.656 2605.14 618.656 2600.7 618.333 2600.7 614.186 2600.7 612.983 2599.71 611.996 2598.51 611.996 2597.31 611.996 2596.32 612.983 2596.32 614.186 2596.32 618.817 2599.44 622.121 2604.31 622.874L2604.31 624.849C2604.27 626.052 2605.23 627.075 2606.43 627.093 2607.63 627.129 2608.65 626.178 2608.67 624.975 2608.67 624.939 2608.67 624.885 2608.67 624.849L2608.67 622.874C2613.54 622.121 2616.66 618.817 2616.66 614.186 2616.68 608.765 2613.36 607.113 2608.74 604.851ZM2655.94 628.996 2648.21 628.996 2648.21 578.552C2648.21 574.944 2645.29 572 2641.66 572L2571.32 572C2567.71 572 2564.77 574.926 2564.77 578.552L2564.77 628.996 2557.05 628.996C2555.92 628.996 2555 629.911 2555 631.042 2555 631.042 2555 631.042 2555 631.042L2555 631.76C2555 636.464 2558.34 640 2562.76 640L2649.26 640C2653.91 640 2658 636.141 2658 631.76L2658 631.042C2657.98 629.911 2657.07 628.996 2655.94 628.996ZM2562.76 635.889C2560.89 635.889 2559.72 634.615 2559.29 633.089L2592.37 633.089 2592.37 635.333 2592.44 635.889 2562.76 635.889ZM2616.5 631.042 2616.5 633.286 2596.48 633.286 2596.48 631.042C2596.48 629.911 2595.56 628.996 2594.43 628.996L2594.43 628.996 2571.63 628.996 2571.63 578.84 2641.37 578.84 2641.37 628.996 2618.57 628.996C2617.44 628.978 2616.52 629.911 2616.5 631.042 2616.5 631.042 2616.5 631.042 2616.5 631.042L2616.5 631.042ZM2649.26 635.889 2620.54 635.889 2620.61 635.333 2620.61 633.089 2653.6 633.089C2652.94 634.669 2651.16 635.889 2649.26 635.889Z" fill="#2CB5E8" fill-rule="evenodd"/></g></svg>