<svg width="93" height="82" xmlns="http://www.w3.org/2000/svg" xmlns:xlink="http://www.w3.org/1999/xlink" xml:space="preserve" overflow="hidden"><defs><clipPath id="clip0"><rect x="173" y="565" width="93" height="82"/></clipPath></defs><g clip-path="url(#clip0)" transform="translate(-173 -565)"><path d="M265.951 633.473C265.86 633.055 265.667 632.662 265.384 632.345L265.384 632.345C261.831 628.402 261.831 622 265.384 618.058 265.41 618.032 265.41 618.007 265.436 617.982 265.461 617.956 265.5 617.931 265.526 617.893 265.551 617.855 265.564 617.779 265.603 617.728 265.719 617.551 265.809 617.373 265.873 617.17 265.899 617.081 265.925 616.98 265.951 616.891 265.989 616.688 266.002 616.486 265.976 616.283 265.976 616.207 265.976 616.131 265.963 616.042 265.925 615.763 265.822 615.497 265.68 615.256L265.667 615.243C265.642 615.205 265.616 615.193 265.59 615.155 265.448 614.939 265.281 614.749 265.075 614.584 265.049 614.559 265.036 614.533 265.011 614.508L239.984 596.227C241.889 590.13 241.477 584.12 239.804 580.013 239.211 578.504 238.349 577.097 237.255 575.88 237.834 575.398 238.452 574.942 239.096 574.549 240.28 573.903 240.705 572.432 240.048 571.266 239.92 571.037 239.752 570.835 239.559 570.657 239.379 570.492 234.989 566.6 228.282 567.526 223.827 568.16 220.802 571.164 218.909 573.915 217.879 571.126 216.154 567.805 213.258 565.358 212.588 564.813 211.597 564.902 211.043 565.548 210.503 566.195 210.567 567.146 211.198 567.691 213.039 569.25 214.326 571.304 215.227 573.256 213.85 572.838 212.408 572.635 210.966 572.66 206.679 572.66 202.469 575.677 200.706 579.988 199.225 583.651 198.736 588.811 199.972 594.186L181.691 598.458C176.014 599.561 172.164 605.342 173.156 611.364 173.542 613.785 174.726 616.017 176.516 617.715L201.929 643.247 201.954 643.273C202.56 643.97 203.242 644.579 204.001 645.111 205.739 646.328 207.812 646.987 209.936 647 210.58 647 211.211 646.937 211.842 646.822L228.14 643.425 264.032 636.326C265.358 636.059 266.221 634.792 265.951 633.473ZM229.002 572.318C230.509 572.102 232.028 572.242 233.47 572.724 232.968 573.18 232.44 573.687 231.886 574.245 231.822 574.308 231.77 574.372 231.719 574.435 231.217 574.929 230.702 575.449 230.187 575.944 229.672 576.438 229.131 576.932 228.603 577.376 227.934 577.934 227.187 578.416 226.402 578.796 225.694 579.138 224.947 579.379 224.175 579.506 223.737 579.582 223.286 579.582 222.836 579.531 222.527 579.481 222.231 579.392 221.948 579.24 221.883 579.214 221.832 579.176 221.78 579.151 221.729 579.126 221.69 579.062 221.651 579.024 222.617 576.932 225.037 572.876 229.002 572.318ZM205.302 581.788C206.447 578.973 209.035 577.503 211.005 577.503 214.635 577.503 215.549 578.72 216.425 580.076 216.476 580.178 216.528 580.279 216.566 580.355L216.592 580.419C216.656 580.647 216.759 580.862 216.888 581.053 217.365 581.75 217.97 582.371 218.652 582.865 218.819 582.992 218.961 583.132 219.141 583.246 219.167 583.258 219.193 583.271 219.205 583.284 219.63 583.537 220.081 583.753 220.544 583.93L220.557 583.93C221.059 584.108 221.587 584.235 222.115 584.311L222.128 584.311C222.527 584.361 222.939 584.387 223.338 584.399L223.377 584.399C223.737 584.399 224.11 584.374 224.471 584.336 224.574 584.323 224.664 584.298 224.767 584.285 225.05 584.247 225.333 584.197 225.63 584.146 225.771 584.12 225.926 584.07 226.067 584.032 226.312 583.968 226.556 583.905 226.801 583.829 226.956 583.778 227.123 583.715 227.277 583.664 227.509 583.575 227.741 583.487 227.973 583.385 228.127 583.322 228.294 583.246 228.449 583.17 228.681 583.056 228.912 582.941 229.144 582.815 229.299 582.739 229.453 582.65 229.595 582.561 229.839 582.422 230.084 582.257 230.328 582.105 230.457 582.016 230.586 581.94 230.715 581.851 231.062 581.61 231.397 581.357 231.732 581.078 231.745 581.065 231.77 581.053 231.783 581.04 231.822 581.015 231.848 580.977 231.886 580.938 232.517 580.406 233.122 579.848 233.714 579.278 233.727 579.265 233.753 579.24 233.779 579.227 234.397 580 234.899 580.862 235.246 581.788 237.139 586.415 236.971 594.135 232.337 600.931 230.02 604.341 227.754 606.217 225.938 606.217 224.381 606.217 223.196 604.721 223.08 604.569 222.463 603.644 221.407 603.098 220.274 603.111 219.18 603.111 218.15 603.631 217.519 604.518 217.506 604.544 217.48 604.569 217.467 604.594 217.352 604.734 216.193 606.23 214.609 606.23 213.811 606.23 212.923 605.862 211.945 605.127 210.76 604.239 209.511 602.832 208.224 600.943 203.602 594.148 203.422 586.428 205.302 581.788ZM221.523 607.307C221.497 607.345 221.471 607.383 221.445 607.409 221.471 607.371 221.497 607.333 221.523 607.307L221.523 607.307ZM201.517 598.801C202.238 600.487 203.113 602.11 204.156 603.618 205.739 605.938 207.361 607.738 208.971 608.943 210.812 610.337 212.717 611.034 214.609 611.034 217.133 611.034 219.064 609.817 220.274 608.689 221.536 609.843 223.492 611.034 225.951 611.034 229.53 611.034 233.045 608.537 236.405 603.606 237.01 602.705 237.576 601.78 238.066 600.816L257.621 615.117 209.125 624.447 186.982 602.186 201.517 598.801ZM199.29 633.689 179.953 614.267C178.91 613.291 178.215 611.998 177.996 610.591 177.507 607.599 179 604.734 181.498 603.606L204.04 626.273C201.555 627.933 199.83 630.634 199.29 633.689ZM227.149 638.684 210.876 642.081C209.499 642.335 208.057 642.018 206.821 641.156 205.366 640.142 204.388 638.582 204.104 636.845 203.538 633.372 205.624 630.063 208.765 629.467L258.767 619.845C257.338 623.877 257.582 628.466 259.488 632.294L227.149 638.684Z" fill="#28B5E8" fill-rule="evenodd"/></g></svg>