<svg width="81" height="90" xmlns="http://www.w3.org/2000/svg" xmlns:xlink="http://www.w3.org/1999/xlink" xml:space="preserve" overflow="hidden"><defs><clipPath id="clip0"><rect x="588" y="561" width="81" height="90"/></clipPath></defs><g clip-path="url(#clip0)" transform="translate(-588 -561)"><path d="M665.77 605.771 664.905 605.771 655.637 575.576 656.164 575.576C657.305 575.543 658.203 574.566 658.171 573.394 658.139 572.269 657.259 571.364 656.164 571.332L630.773 571.332 630.773 563.061C630.74 561.89 629.789 560.967 628.649 561.001 627.555 561.033 626.675 561.937 626.644 563.061L626.644 571.332 601.253 571.332C600.112 571.366 599.213 572.343 599.246 573.515 599.277 574.64 600.158 575.544 601.253 575.576L601.363 575.576 592.092 605.771 591.228 605.771C589.446 605.77 588.001 607.253 588 609.083 588 609.084 588 609.084 588 609.085 588 619.025 594.5 625.704 604.174 625.704 613.849 625.704 620.352 619.025 620.352 609.085 620.352 607.254 618.908 605.771 617.126 605.771L616.261 605.771 606.991 575.576 626.642 575.576 626.642 577.908 626.695 578.181C622.732 579.298 620.402 583.503 621.489 587.573 622.179 590.155 624.134 592.178 626.642 592.905L626.642 631.183C618.121 632.072 612.531 638.472 612.531 647.686 612.531 649.516 613.976 651 615.758 651L641.657 651C643.439 651 644.883 649.516 644.883 647.686 644.883 638.47 639.297 632.072 630.773 631.183L630.773 592.905C634.727 591.759 637.028 587.536 635.911 583.475 635.203 580.898 633.234 578.89 630.72 578.181L630.773 577.908 630.773 575.576 650.007 575.576 640.741 605.771 639.878 605.771C638.096 605.771 636.652 607.254 636.652 609.085 636.652 619.025 643.152 625.704 652.828 625.704 662.503 625.704 669 619.025 669 609.085 669 607.254 667.556 605.771 665.774 605.771 665.772 605.771 665.771 605.771 665.77 605.771ZM604.178 619.076C601.661 619.076 596.274 618.353 594.824 612.399L613.532 612.399C612.081 618.353 606.692 619.076 604.178 619.076ZM611.932 605.771 596.427 605.771 604.178 580.511ZM638.067 644.372 619.35 644.372C620.801 638.42 626.19 637.698 628.706 637.698 631.221 637.698 636.613 638.418 638.063 644.37ZM632.062 585.552C632.063 587.456 630.561 589.001 628.708 589.002 626.854 589.003 625.35 587.46 625.349 585.555 625.348 583.651 626.85 582.107 628.704 582.106 628.705 582.106 628.705 582.106 628.706 582.106 630.558 582.108 632.06 583.649 632.062 585.552ZM652.824 580.509 660.575 605.769 645.07 605.769ZM652.824 619.074C650.307 619.074 644.917 618.351 643.467 612.397L662.178 612.397C660.728 618.353 655.339 619.076 652.824 619.076Z" fill="#28B5E8" fill-rule="evenodd"/></g></svg>