<svg width="88" height="87" xmlns="http://www.w3.org/2000/svg" xmlns:xlink="http://www.w3.org/1999/xlink" xml:space="preserve" overflow="hidden"><defs><clipPath id="clip0"><rect x="2201" y="562" width="88" height="87"/></clipPath></defs><g clip-path="url(#clip0)" transform="translate(-2201 -562)"><path d="M2265.62 580.847 2223.83 580.847C2221.63 580.847 2219.84 582.614 2219.84 584.792L2219.84 626.225C2219.84 628.403 2221.63 630.169 2223.83 630.186L2265.62 630.186C2267.82 630.186 2269.61 628.42 2269.62 626.225L2269.62 584.792C2269.61 582.614 2267.82 580.847 2265.62 580.847ZM2265.65 626.242 2265.62 626.276 2223.81 626.242 2223.85 584.775 2265.65 584.809 2265.65 626.242ZM2285.62 602.524C2287.44 602.559 2288.96 601.135 2289 599.335 2289.03 597.534 2287.59 596.025 2285.77 595.99 2285.72 595.99 2285.67 595.99 2285.62 595.99L2278.33 595.99 2278.33 589.645 2285.62 589.645C2287.44 589.645 2288.93 588.187 2288.93 586.37 2288.93 584.569 2287.46 583.094 2285.62 583.094 2285.62 583.094 2285.62 583.094 2285.62 583.094L2278.33 583.094 2278.33 582.717C2278.31 577.092 2273.75 572.513 2268.06 572.41L2268.06 565.276C2268.06 563.475 2266.59 562 2264.75 562 2262.91 562 2261.44 563.458 2261.44 565.276 2261.44 565.276 2261.44 565.276 2261.44 565.276L2261.44 572.376 2255.02 572.376 2255.02 565.276C2254.98 563.475 2253.46 562.034 2251.63 562.086 2249.87 562.12 2248.44 563.526 2248.41 565.276L2248.41 572.376 2241.99 572.376 2241.99 565.276C2241.96 563.475 2240.43 562.034 2238.61 562.086 2236.84 562.12 2235.42 563.526 2235.38 565.276L2235.38 572.376 2228.96 572.376 2228.96 565.276C2228.96 563.475 2227.49 562 2225.65 562 2223.83 562 2222.35 563.458 2222.34 565.276L2222.34 572.376 2221.54 572.376C2215.76 572.376 2211.08 576.989 2211.08 582.7L2211.08 583.077 2204.31 583.077C2202.49 583.077 2201 584.534 2201 586.352 2201 588.153 2202.47 589.611 2204.31 589.628L2211.08 589.628 2211.08 595.973 2204.31 595.973C2202.49 596.008 2201.03 597.517 2201.09 599.317 2201.12 601.067 2202.54 602.473 2204.31 602.507L2211.08 602.507 2211.08 608.852 2204.31 608.852C2202.49 608.887 2201.03 610.396 2201.09 612.197 2201.12 613.946 2202.54 615.352 2204.31 615.386L2211.08 615.386 2211.08 621.732 2204.31 621.732C2202.49 621.732 2201 623.19 2201 625.007 2201 626.808 2202.47 628.266 2204.31 628.283L2211.08 628.283 2211.08 628.352C2211.08 634.045 2215.76 638.675 2221.52 638.675L2222.32 638.675 2222.32 645.655C2222.32 647.456 2223.79 648.931 2225.63 648.931 2227.45 648.931 2228.95 647.473 2228.95 645.655 2228.95 645.655 2228.95 645.655 2228.95 645.655L2228.95 638.693 2235.36 638.693 2235.36 645.655C2235.33 647.456 2236.77 648.965 2238.59 649 2240.41 649.034 2241.94 647.61 2241.97 645.81 2241.97 645.758 2241.97 645.707 2241.97 645.655L2241.97 638.693 2248.39 638.693 2248.39 645.655C2248.36 647.456 2249.8 648.965 2251.62 649 2253.44 649.034 2254.97 647.61 2255 645.81 2255 645.758 2255 645.707 2255 645.655L2255 638.693 2261.42 638.693 2261.42 645.655C2261.42 647.456 2262.89 648.931 2264.73 648.931 2266.55 648.931 2268.04 647.473 2268.04 645.655 2268.04 645.655 2268.04 645.655 2268.04 645.655L2268.04 638.675C2273.73 638.59 2278.31 633.994 2278.33 628.369L2278.33 628.3 2285.62 628.3C2287.44 628.3 2288.93 626.842 2288.93 625.024 2288.93 623.224 2287.46 621.749 2285.62 621.749 2285.62 621.749 2285.62 621.749 2285.62 621.749L2278.33 621.749 2278.33 615.404 2285.62 615.404C2287.44 615.438 2288.96 614.014 2289 612.214 2289.03 610.413 2287.59 608.904 2285.77 608.87 2285.72 608.87 2285.67 608.87 2285.62 608.87L2278.33 608.87 2278.33 602.524 2285.62 602.524ZM2271.7 628.369C2271.7 630.461 2269.99 632.159 2267.87 632.159L2221.54 632.159C2219.42 632.159 2217.7 630.461 2217.7 628.369L2217.7 582.717C2217.7 580.624 2219.42 578.927 2221.54 578.927L2267.89 578.927C2270 578.927 2271.72 580.624 2271.72 582.717L2271.72 628.369ZM2244.97 614.014C2243.85 614.014 2241.23 613.74 2241.23 611.271 2241.19 610.122 2240.22 609.213 2239.06 609.247 2237.93 609.281 2237.03 610.173 2237.01 611.271 2237.01 614.769 2239.3 617.256 2242.87 617.976L2242.87 619.005C2242.87 620.154 2243.83 621.097 2244.99 621.097 2246.15 621.097 2247.11 620.154 2247.11 619.005L2247.11 617.976C2250.68 617.273 2252.97 614.769 2252.97 611.271 2252.97 607.035 2250.28 605.731 2246.86 604.068L2244.97 603.142C2241.54 601.461 2241.23 601.169 2241.23 599.678 2241.23 597.174 2243.85 596.899 2244.97 596.899 2246.34 596.899 2248.65 597.259 2248.65 599.678 2248.69 600.827 2249.66 601.735 2250.82 601.701 2251.95 601.667 2252.85 600.775 2252.87 599.678 2252.87 596.179 2250.61 593.658 2247.07 592.938L2247.07 591.943C2247.07 590.794 2246.12 589.851 2244.96 589.851 2243.79 589.851 2242.84 590.794 2242.84 591.943L2242.84 592.955C2239.3 593.692 2236.98 596.231 2236.98 599.678 2236.98 603.914 2239.67 605.217 2243.08 606.88L2244.97 607.806C2248.41 609.47 2248.72 609.761 2248.72 611.253 2248.72 613.74 2246.1 614.014 2244.97 614.014Z" fill="#2CB5E8" fill-rule="evenodd"/></g></svg>