<svg width="77" height="82" xmlns="http://www.w3.org/2000/svg" xmlns:xlink="http://www.w3.org/1999/xlink" xml:space="preserve" overflow="hidden"><defs><clipPath id="clip0"><rect x="2983" y="565" width="77" height="82"/></clipPath></defs><g clip-path="url(#clip0)" transform="translate(-2983 -565)"><path d="M3058.9 582.378 3058.89 582.37 3058.51 582.06 3058.22 581.931 3058.16 581.895 3022.67 565.301C3021.81 564.9 3020.83 564.9 3019.98 565.301L2984.79 581.903 2984.66 581.991 2984.49 582.065 2984.26 582.25 2983.97 582.479 2983.66 582.844 2983.46 583.115 2983.24 583.584 2983.12 583.868 2983.03 584.481 2983 584.672 2983 625.158C2983 626.305 2983.64 627.36 2984.66 627.899L3019.97 646.633C3020.43 646.874 3020.94 647 3021.46 647L3021.49 647C3022.01 647.001 3022.52 646.875 3022.97 646.633L3058.34 627.901C3059.36 627.362 3060 626.307 3060 625.158L3060 584.708C3059.99 583.81 3059.59 582.96 3058.9 582.378ZM3021.48 598.92 3012.83 594.587 3040.8 580.653 3049.67 584.804ZM3021.33 571.555 3028.45 574.886 3000.88 588.603 2993.27 584.791ZM2989.29 623.294 2989.29 589.763 2997.42 593.843 2997.42 608.701 3009.37 614.703 3009.37 599.82 3018.34 604.311 3018.32 638.692ZM3053.73 623.294 3024.63 638.699 3024.66 604.318 3053.72 589.763Z" fill="#2AB4E7" fill-rule="evenodd"/></g></svg>