<svg width="79" height="86" xmlns="http://www.w3.org/2000/svg" xmlns:xlink="http://www.w3.org/1999/xlink" xml:space="preserve" overflow="hidden"><defs><clipPath id="clip0"><rect x="2206" y="1341" width="79" height="86"/></clipPath></defs><g clip-path="url(#clip0)" transform="translate(-2206 -1341)"><path d="M2237.61 1366.38C2237.34 1366.06 2236.67 1365.24 2235.86 1364.24 2234.37 1362.39 2232.52 1360.09 2231.58 1359.05 2231.14 1358.58 2230.23 1358.58 2229.8 1359.05 2228.86 1360.1 2227 1362.42 2225.51 1364.29 2224.72 1365.29 2224.07 1366.11 2223.8 1366.42L2223.52 1366.72C2221.33 1369.18 2218.42 1372.77 2218.43 1375.63 2218.43 1377.71 2219.02 1379.49 2220.15 1380.78 2221.35 1382.17 2223.07 1382.91 2225.1 1382.91L2225.12 1382.91C2226.02 1382.93 2226.9 1382.74 2227.72 1382.39 2227.41 1384.08 2226.88 1385.32 2226.12 1386.2 2225.94 1386.42 2225.83 1386.89 2225.83 1387.19 2225.83 1387.83 2226.35 1388.36 2226.99 1388.36L2234.51 1388.34C2234.82 1388.34 2235.12 1388.11 2235.33 1387.9 2235.54 1387.63 2235.67 1387.29 2235.67 1386.96 2235.67 1386.68 2235.56 1386.4 2235.38 1386.18 2234.62 1385.3 2234.09 1384.07 2233.77 1382.37 2234.59 1382.73 2235.47 1382.9 2236.37 1382.9L2236.38 1382.9C2240.44 1382.9 2243.05 1380.03 2243.05 1375.6 2243.05 1372.74 2240.12 1369.16 2237.93 1366.71L2237.61 1366.38ZM2236.35 1380.54 2236.35 1380.54C2234.95 1380.54 2233.95 1380.03 2233.28 1378.96 2232.92 1378.41 2232.19 1378.27 2231.64 1378.64 2231.29 1378.87 2231.09 1379.27 2231.12 1379.69 2231.27 1382.39 2231.7 1384.42 2232.47 1386L2228.99 1386C2229.77 1384.42 2230.2 1382.39 2230.33 1379.69 2230.33 1379.35 2230.21 1379.01 2229.97 1378.76 2229.75 1378.54 2229.45 1378.42 2229.15 1378.42L2229.01 1378.42C2228.66 1378.47 2228.34 1378.67 2228.16 1378.96 2227.51 1380.03 2226.5 1380.54 2225.1 1380.55L2225.09 1380.55C2223.71 1380.55 2222.63 1380.1 2221.87 1379.22 2221.11 1378.34 2220.73 1377.11 2220.73 1375.61 2220.73 1374.12 2222.23 1371.63 2225.23 1368.28L2225.53 1367.94C2225.8 1367.62 2226.49 1366.77 2227.31 1365.74 2228.36 1364.43 2229.71 1362.73 2230.68 1361.55 2231.67 1362.71 2233.01 1364.39 2234.06 1365.71 2234.89 1366.74 2235.58 1367.59 2235.86 1367.93L2236.17 1368.27C2239.16 1371.62 2240.68 1374.07 2240.7 1375.58 2240.71 1378.67 2239.09 1380.52 2236.35 1380.54ZM2261.08 1378.44C2259.41 1378.44 2257.75 1378.62 2256.14 1378.96L2256.17 1343.98C2256.17 1342.36 2254.88 1341.05 2253.28 1341.03L2208.95 1341C2207.35 1341 2206.05 1342.31 2206.05 1343.93L2206 1405.66C2206 1407.28 2207.29 1408.59 2208.9 1408.61L2237.9 1408.62C2240.51 1419.16 2249.89 1427 2261.08 1427 2274.27 1427 2285 1416.11 2285 1402.71 2285 1389.32 2274.27 1378.44 2261.08 1378.44ZM2276.5 1389.13C2279.53 1392.66 2281.29 1397.16 2281.49 1401.83L2278.24 1401.83C2278.24 1401.83 2278.24 1401.83 2278.24 1401.83 2278.07 1397.99 2276.64 1394.35 2274.21 1391.46L2276.5 1389.13 2276.5 1389.13ZM2262.35 1382.03C2267.02 1382.33 2271.44 1384.24 2274.88 1387.45L2272.58 1389.78 2272.58 1389.78C2269.76 1387.17 2266.15 1385.61 2262.35 1385.32L2262.35 1382.03ZM2261.08 1385.26 2261.08 1385.26 2261.08 1385.26C2261.08 1385.26 2261.08 1385.26 2261.08 1385.26 2261.08 1385.26 2261.08 1385.26 2261.08 1385.26ZM2260.03 1382.02 2260.03 1385.3C2256.2 1385.54 2252.55 1387.08 2249.68 1389.66L2247.4 1387.33C2250.88 1384.13 2255.33 1382.25 2260.03 1382.02ZM2237.16 1402.73 2237.16 1402.74 2211.79 1402.73 2211.82 1346.89 2250.35 1346.93 2250.33 1381.06C2242.54 1385.06 2237.16 1393.25 2237.16 1402.73ZM2245.77 1389.01 2245.77 1389.01 2248.07 1391.34C2248.07 1391.34 2248.07 1391.34 2248.07 1391.34 2245.58 1394.27 2244.12 1397.96 2243.93 1401.83 2243.93 1401.83 2243.93 1401.83 2243.93 1401.85L2240.7 1401.83C2240.88 1397.09 2242.67 1392.56 2245.77 1389.01ZM2240.71 1404.19 2243.95 1404.19C2244.27 1407.99 2245.8 1411.58 2248.33 1414.41L2248.33 1414.41 2246.05 1416.72C2242.92 1413.28 2241.03 1408.87 2240.71 1404.19ZM2260.03 1420.13 2260.03 1423.42C2255.49 1423.19 2251.14 1421.41 2247.7 1418.37L2247.7 1418.37 2249.98 1416.04C2252.81 1418.48 2256.34 1419.92 2260.03 1420.13L2260.03 1420.13ZM2246.18 1402.73C2246.18 1394.38 2252.84 1387.62 2261.06 1387.62 2269.28 1387.62 2275.94 1394.38 2275.94 1402.73 2275.94 1402.73 2275.94 1402.73 2275.94 1402.73 2275.93 1411.07 2269.27 1417.83 2261.06 1417.83 2252.86 1417.83 2246.18 1411.07 2246.18 1402.73ZM2262.35 1423.4 2262.35 1420.12 2262.35 1420.12C2266.02 1419.84 2269.51 1418.37 2272.29 1415.94L2274.59 1418.27C2271.18 1421.32 2266.87 1423.13 2262.35 1423.4ZM2276.23 1416.61 2273.94 1414.28 2273.92 1414.28C2276.38 1411.48 2277.89 1407.93 2278.19 1404.19L2278.19 1404.19 2281.43 1404.19C2281.12 1408.81 2279.29 1413.17 2276.23 1416.61ZM2266.43 1406.99C2266.43 1409.45 2264.79 1411.21 2262.23 1411.61L2262.23 1412.66C2262.22 1413.28 2261.72 1413.78 2261.12 1413.79 2260.49 1413.82 2259.95 1413.31 2259.92 1412.66L2259.92 1411.61C2257.37 1411.21 2255.73 1409.45 2255.73 1406.99 2255.73 1406.95 2255.73 1406.92 2255.73 1406.89 2255.76 1406.24 2256.29 1405.74 2256.93 1405.77 2257.57 1405.8 2258.07 1406.34 2258.04 1406.99 2258.04 1409.19 2260.36 1409.36 2261.08 1409.36 2261.79 1409.36 2264.12 1409.19 2264.12 1406.99 2264.12 1405.66 2263.72 1405.35 2261.25 1404.11L2259.91 1403.44C2257.49 1402.22 2255.74 1401.35 2255.74 1398.47 2255.74 1395.98 2257.38 1394.21 2259.94 1393.81L2259.94 1392.79C2259.95 1392.17 2260.45 1391.68 2261.05 1391.66 2261.69 1391.63 2262.22 1392.14 2262.25 1392.79L2262.25 1393.81C2264.77 1394.22 2266.38 1395.98 2266.38 1398.47 2266.38 1398.5 2266.38 1398.53 2266.38 1398.56 2266.35 1399.21 2265.82 1399.72 2265.18 1399.69 2264.54 1399.66 2264.04 1399.12 2264.07 1398.47 2264.07 1396.29 2261.99 1396.06 2261.09 1396.06 2260.38 1396.06 2258.05 1396.23 2258.05 1398.47 2258.05 1399.79 2258.45 1400.09 2260.93 1401.34L2262.26 1402.02C2264.68 1403.22 2266.43 1404.08 2266.43 1406.99Z" fill="#28B5E8" fill-rule="evenodd"/></g></svg>