<svg width="80" height="56" xmlns="http://www.w3.org/2000/svg" xmlns:xlink="http://www.w3.org/1999/xlink" xml:space="preserve" overflow="hidden"><defs><clipPath id="clip0"><rect x="1986" y="1356" width="80" height="56"/></clipPath></defs><g clip-path="url(#clip0)" transform="translate(-1986 -1356)"><path d="M2064.75 1381.4C2063.67 1377.1 2061.79 1372.01 2061.41 1371.11 2057.56 1361.93 2049.29 1356 2040.35 1356 2034.36 1356 2029.63 1357.47 2025.97 1360.5 2022.32 1357.47 2017.61 1356 2011.67 1356 2002.74 1356 1994.47 1361.93 1990.61 1371.11 1990.24 1372 1988.32 1376.65 1987.22 1381 1986.54 1383.72 1986.18 1386.78 1986.02 1390.98 1985.76 1398.15 1987.9 1405 1991.61 1408.83 1995.58 1412.93 2001.09 1412.97 2005 1408.89L2015.12 1399.16 2025.62 1399.16 2025.91 1399.18 2036.88 1399.18 2047.03 1408.94C2048.97 1410.94 2051.25 1412 2053.63 1412 2056.06 1412 2058.4 1410.91 2060.39 1408.86 2064.1 1405.03 2066.24 1398.2 2065.98 1391.01 2065.86 1387.09 2065.5 1384.41 2064.75 1381.4ZM2056.17 1404.75C2055.57 1405.38 2054.63 1406.12 2053.63 1406.12 2052.86 1406.12 2052.14 1405.66 2051.57 1405.15L2051.48 1405.04 2051.06 1404.63 2050.86 1404.45 2040.25 1394.24C2039.7 1393.63 2038.9 1393.28 2038.07 1393.28L2026.37 1393.28 2026.08 1393.26 2013.9 1393.26C2013.07 1393.26 2012.27 1393.61 2011.71 1394.23L2001.09 1404.45 2000.92 1404.6 2000.51 1405 2000.4 1405.12C1999.85 1405.63 1999.12 1406.07 1998.35 1406.07 1997.35 1406.07 1996.43 1405.34 1995.83 1404.71 1993.23 1402.03 1991.67 1396.69 1991.87 1391.13 1992.01 1387.36 1992.33 1384.67 1992.9 1382.37 1993.89 1378.43 1995.66 1374.13 1996 1373.31 1998.98 1366.2 2004.97 1361.81 2011.64 1361.81 2017.1 1361.81 2020.94 1363.28 2023.68 1366.42 2024.23 1367.06 2025.05 1367.43 2025.89 1367.43L2025.98 1367.43C2026.83 1367.43 2027.65 1367.06 2028.2 1366.42 2030.94 1363.28 2034.79 1361.82 2040.3 1361.82 2046.97 1361.82 2052.96 1366.23 2055.94 1373.34 2056.25 1374.06 2058 1378.81 2059 1382.8 2059.54 1384.96 2059.93 1387.21 2060.08 1391.16 2060.33 1396.74 2058.77 1402.07 2056.17 1404.75ZM2009.71 1370.54C2005.33 1370.54 2001.77 1374.08 2001.77 1378.45 2001.77 1382.81 2005.33 1386.35 2009.71 1386.35 2014.1 1386.35 2017.66 1382.81 2017.66 1378.45 2017.66 1378.45 2017.66 1378.45 2017.66 1378.45 2017.64 1374.08 2014.08 1370.54 2009.71 1370.54ZM2009.71 1382.86C2007.27 1382.86 2005.28 1380.88 2005.28 1378.45 2005.28 1376.01 2007.27 1374.03 2009.71 1374.03 2012.16 1374.03 2014.13 1376.01 2014.15 1378.43 2014.16 1380.85 2012.21 1382.81 2009.79 1382.83 2009.74 1382.86 2009.73 1382.86 2009.71 1382.86L2009.71 1382.86ZM2042.13 1381.54C2040.42 1381.54 2039.02 1382.92 2039.02 1384.64 2039.02 1386.34 2040.41 1387.73 2042.13 1387.73 2043.84 1387.73 2045.23 1386.35 2045.24 1384.65 2045.24 1382.94 2043.84 1381.54 2042.13 1381.54 2042.13 1381.54 2042.13 1381.54 2042.13 1381.54ZM2042.13 1369.18C2040.42 1369.18 2039.04 1370.56 2039.04 1372.27 2039.04 1373.99 2040.42 1375.35 2042.15 1375.35 2043.86 1375.35 2045.24 1373.97 2045.24 1372.27 2045.23 1370.56 2043.84 1369.18 2042.13 1369.18 2042.13 1369.18 2042.13 1369.18 2042.13 1369.18ZM2035.91 1375.35C2034.21 1375.35 2032.82 1376.73 2032.82 1378.45 2032.82 1380.15 2034.21 1381.53 2035.93 1381.53 2037.64 1381.53 2039.02 1380.15 2039.02 1378.45 2039.02 1376.75 2037.62 1375.35 2035.91 1375.35 2035.91 1375.35 2035.91 1375.35 2035.91 1375.35ZM2048.34 1375.35C2046.63 1375.35 2045.24 1376.73 2045.24 1378.45 2045.24 1380.16 2046.63 1381.53 2048.35 1381.53 2050.06 1381.53 2051.45 1380.15 2051.45 1378.45 2051.45 1376.75 2050.06 1375.35 2048.34 1375.35Z" fill="#28B5E8" fill-rule="evenodd"/></g></svg>