<svg width="89" height="88" xmlns="http://www.w3.org/2000/svg" xmlns:xlink="http://www.w3.org/1999/xlink" xml:space="preserve" overflow="hidden"><defs><clipPath id="clip0"><rect x="1194" y="1340" width="89" height="88"/></clipPath></defs><g clip-path="url(#clip0)" transform="translate(-1194 -1340)"><path d="M1259.35 1359.06 1217.09 1359.06C1214.86 1359.06 1213.05 1360.85 1213.05 1363.05L1213.05 1404.98C1213.05 1407.18 1214.86 1408.97 1217.09 1408.97L1259.35 1408.97C1261.58 1408.97 1263.39 1407.18 1263.4 1404.98L1263.4 1363.05C1263.39 1360.85 1261.58 1359.06 1259.35 1359.06ZM1259.39 1404.98 1259.35 1405.02 1217.07 1404.98 1217.09 1363.04 1259.37 1363.07 1259.37 1404.98ZM1279.58 1380.99C1281.42 1381.02 1282.96 1379.58 1283 1377.76 1283.03 1375.94 1281.58 1374.42 1279.74 1374.38 1279.68 1374.38 1279.63 1374.38 1279.58 1374.38L1272.21 1374.38 1272.21 1367.96 1279.58 1367.96C1281.42 1368 1282.96 1366.56 1283 1364.74 1283.03 1362.91 1281.58 1361.39 1279.74 1361.35 1279.68 1361.35 1279.63 1361.35 1279.58 1361.35L1272.21 1361.35 1272.21 1360.95C1272.19 1355.26 1267.58 1350.63 1261.82 1350.53L1261.82 1343.31C1261.82 1341.49 1260.33 1340 1258.47 1340 1256.61 1340 1255.12 1341.47 1255.12 1343.31 1255.12 1343.31 1255.12 1343.31 1255.12 1343.31L1255.12 1350.49 1248.63 1350.49 1248.63 1343.31C1248.6 1341.49 1247.05 1340.03 1245.21 1340.09 1243.42 1340.12 1241.98 1341.54 1241.95 1343.31L1241.95 1350.49 1235.46 1350.49 1235.46 1343.31C1235.42 1341.49 1233.88 1340.03 1232.03 1340.09 1230.25 1340.12 1228.81 1341.54 1228.77 1343.31L1228.77 1350.49 1222.28 1350.49 1222.28 1343.31C1222.28 1341.49 1220.79 1340 1218.93 1340 1217.09 1340 1215.6 1341.47 1215.58 1343.31L1215.58 1350.49 1214.75 1350.49C1208.93 1350.49 1204.19 1355.18 1204.19 1360.94L1204.19 1361.32 1197.35 1361.32C1195.51 1361.35 1194.03 1362.88 1194.09 1364.7 1194.12 1366.47 1195.56 1367.89 1197.35 1367.93L1204.19 1367.93 1204.19 1374.35 1197.35 1374.35C1195.51 1374.38 1194.03 1375.91 1194.09 1377.73 1194.12 1379.5 1195.56 1380.92 1197.35 1380.96L1204.19 1380.96 1204.19 1387.37 1197.35 1387.37C1195.51 1387.37 1194 1388.85 1194 1390.69 1194 1392.51 1195.49 1393.98 1197.35 1394L1204.19 1394 1204.19 1400.42 1197.35 1400.42C1195.51 1400.42 1194 1401.89 1194 1403.73 1194 1405.57 1195.49 1407.04 1197.35 1407.04 1197.35 1407.04 1197.35 1407.04 1197.35 1407.04L1204.19 1407.04 1204.19 1407.11C1204.19 1412.87 1208.93 1417.56 1214.75 1417.56L1215.56 1417.56 1215.56 1424.62C1215.56 1426.44 1217.05 1427.93 1218.91 1427.93 1220.75 1427.93 1222.26 1426.46 1222.26 1424.62 1222.26 1424.62 1222.26 1424.62 1222.26 1424.62L1222.26 1417.57 1228.75 1417.57 1228.75 1424.62C1228.72 1426.44 1230.18 1427.96 1232.02 1428 1233.86 1428.03 1235.4 1426.59 1235.44 1424.77 1235.44 1424.72 1235.44 1424.67 1235.44 1424.62L1235.44 1417.57 1241.93 1417.57 1241.93 1424.62C1241.89 1426.44 1243.35 1427.96 1245.19 1428 1247.03 1428.03 1248.58 1426.59 1248.61 1424.77 1248.61 1424.72 1248.61 1424.67 1248.61 1424.62L1248.61 1417.57 1255.1 1417.57 1255.1 1424.62C1255.1 1426.44 1256.6 1427.93 1258.46 1427.93 1260.3 1427.93 1261.81 1426.46 1261.81 1424.62 1261.81 1424.62 1261.81 1424.62 1261.81 1424.62L1261.81 1417.56C1267.56 1417.47 1272.19 1412.82 1272.21 1407.13L1272.21 1407.06 1279.58 1407.06C1281.42 1407.06 1282.93 1405.59 1282.93 1403.75 1282.93 1401.93 1281.44 1400.44 1279.58 1400.44 1279.58 1400.44 1279.58 1400.44 1279.58 1400.44L1272.21 1400.44 1272.21 1394.02 1279.58 1394.02C1281.42 1394.02 1282.93 1392.54 1282.93 1390.7 1282.93 1388.88 1281.44 1387.39 1279.58 1387.39 1279.58 1387.39 1279.58 1387.39 1279.58 1387.39L1272.21 1387.39 1272.21 1380.97 1279.58 1380.99ZM1265.51 1407.13C1265.51 1409.25 1263.77 1410.96 1261.63 1410.96L1214.77 1410.96C1212.63 1410.96 1210.89 1409.25 1210.89 1407.13L1210.89 1360.95C1210.89 1358.84 1212.63 1357.12 1214.77 1357.12L1261.63 1357.12C1263.77 1357.12 1265.51 1358.84 1265.51 1360.95L1265.51 1407.13Z" fill="#28B5E8" fill-rule="evenodd"/></g></svg>