<svg width="102" height="81" xmlns="http://www.w3.org/2000/svg" xmlns:xlink="http://www.w3.org/1999/xlink" xml:space="preserve" overflow="hidden"><g transform="translate(-377 -565)"><path d="M478.787 585.807C478.492 585.077 477.902 584.498 477.156 584.209L477.156 584.209 429.107 565.206C428.393 564.932 427.601 564.932 426.886 565.206L378.852 584.194C377.33 584.787 376.6 586.493 377.222 587.97 377.517 588.701 378.107 589.279 378.852 589.569L390.593 594.213 390.593 617.723C390.593 622.778 395.236 626.676 402.085 629.356L402.085 644.096C402.054 645.116 402.877 645.984 403.917 645.999 404.958 646.03 405.843 645.223 405.859 644.202 405.859 644.172 405.859 644.126 405.859 644.096L405.859 630.65C412.412 632.599 420.286 633.604 427.989 633.604 446.128 633.604 465.4 628.047 465.4 617.738L465.4 594.228 477.141 589.584C478.663 588.99 479.393 587.285 478.787 585.807ZM402.1 623.052C398.513 621.316 396.525 619.383 396.525 617.738L396.525 596.573 402.1 598.781 402.1 623.052ZM459.499 617.738C459.499 621.849 447.23 627.803 428.02 627.803 418.873 627.803 411.31 626.448 405.89 624.59L405.89 600.273 426.902 608.587C427.259 608.724 427.632 608.8 428.004 608.8 428.346 608.8 428.688 608.724 428.998 608.617 429.029 608.602 429.076 608.617 429.107 608.602L459.483 596.588 459.483 617.738ZM428.004 602.755 426.172 602.024 410.487 595.812 428.719 588.594C429.682 588.213 430.163 587.132 429.775 586.173 429.386 585.229 428.284 584.757 427.305 585.138L405.408 593.786 405.098 593.665 387.875 586.858 428.004 570.992 468.118 586.889 428.004 602.755Z" fill="#28B5E8" fill-rule="evenodd"/></g></svg>