<svg width="85" height="64" xmlns="http://www.w3.org/2000/svg" xmlns:xlink="http://www.w3.org/1999/xlink" xml:space="preserve" overflow="hidden"><defs><clipPath id="clip0"><rect x="587" y="1352" width="85" height="64"/></clipPath></defs><g clip-path="url(#clip0)" transform="translate(-587 -1352)"><path d="M672 1389.94C672 1388.56 670.87 1387.43 669.474 1387.43 669.474 1387.43 669.474 1387.43 669.474 1387.43L647.669 1387.43 647.669 1374.66C647.669 1373.29 646.539 1372.16 645.143 1372.16 645.143 1372.16 645.143 1372.16 645.143 1372.16L630.544 1372.16 630.544 1362.66C630.544 1361.78 629.812 1361.05 628.922 1361.05L628.922 1361.05 616.756 1361.05C615.865 1361.05 615.134 1361.78 615.134 1362.66L615.134 1372.16 609.576 1372.16 608.592 1354.36C608.513 1353.04 607.409 1352 606.066 1352L592.505 1352C591.162 1352 590.045 1353.05 589.978 1354.38L587 1412.76 587.067 1413.17 587 1413.49C587 1414.87 588.13 1416 589.54 1416L669.461 1416C670.857 1416 672 1414.88 672 1413.49L671.92 1413.09 672 1412.68 672 1389.94ZM666.934 1392.43 666.934 1411 647.669 1411 647.669 1392.43 666.934 1392.43ZM618.378 1364.26 627.3 1364.26 627.3 1372.16 618.378 1372.16 618.378 1364.26ZM642.603 1377.16 642.603 1411 611.717 1411 609.856 1377.16 642.603 1377.16ZM594.539 1364.27 604.059 1364.27 606.625 1411 592.172 1411 594.539 1364.27ZM603.66 1357.01 603.886 1361.08 594.712 1361.08 594.924 1357.01 603.66 1357.01ZM618.777 1408.28C619.668 1408.28 620.399 1407.58 620.399 1406.68 620.399 1406.68 620.399 1406.68 620.399 1406.68L620.399 1396.68C620.399 1395.8 619.668 1395.08 618.777 1395.08 617.886 1395.08 617.155 1395.8 617.155 1396.68 617.155 1396.68 617.155 1396.68 617.155 1396.68L617.155 1406.68C617.168 1407.56 617.886 1408.28 618.777 1408.28 618.777 1408.28 618.777 1408.28 618.777 1408.28ZM626.887 1408.28C627.778 1408.28 628.51 1407.58 628.51 1406.68 628.51 1406.68 628.51 1406.68 628.51 1406.68L628.51 1396.68C628.51 1395.8 627.778 1395.08 626.887 1395.08 625.997 1395.08 625.265 1395.8 625.265 1396.68 625.265 1396.68 625.265 1396.68 625.265 1396.68L625.265 1406.68C625.279 1407.56 625.997 1408.28 626.887 1408.28 626.887 1408.28 626.887 1408.28 626.887 1408.28ZM634.998 1408.28C635.889 1408.28 636.62 1407.58 636.62 1406.68 636.62 1406.68 636.62 1406.68 636.62 1406.68L636.62 1396.68C636.62 1395.8 635.889 1395.08 634.998 1395.08 634.107 1395.08 633.376 1395.8 633.376 1396.68 633.376 1396.68 633.376 1396.68 633.376 1396.68L633.376 1406.68C633.389 1407.56 634.107 1408.28 634.998 1408.28 634.998 1408.28 634.998 1408.28 634.998 1408.28ZM653.24 1408.28C654.13 1408.28 654.862 1407.58 654.862 1406.68 654.862 1406.68 654.862 1406.68 654.862 1406.68L654.862 1396.68C654.888 1395.8 654.184 1395.06 653.293 1395.04 652.402 1395.03 651.644 1395.71 651.631 1396.59 651.631 1396.62 651.631 1396.66 651.631 1396.68L651.631 1406.68C651.618 1407.56 652.349 1408.28 653.24 1408.28 653.24 1408.28 653.24 1408.28 653.24 1408.28ZM661.35 1408.28C662.241 1408.28 662.972 1407.58 662.972 1406.68 662.972 1406.68 662.972 1406.68 662.972 1406.68L662.972 1396.68C662.999 1395.8 662.294 1395.06 661.403 1395.04 660.513 1395.03 659.755 1395.71 659.741 1396.59 659.741 1396.62 659.741 1396.66 659.741 1396.68L659.741 1406.68C659.728 1407.56 660.459 1408.28 661.35 1408.28 661.35 1408.28 661.35 1408.28 661.35 1408.28Z" fill="#28B5E8" fill-rule="evenodd"/></g></svg>