<svg width="87" height="87" xmlns="http://www.w3.org/2000/svg" xmlns:xlink="http://www.w3.org/1999/xlink" xml:space="preserve" overflow="hidden"><defs><clipPath id="clip0"><rect x="2004" y="562" width="87" height="87"/></clipPath></defs><g clip-path="url(#clip0)" transform="translate(-2004 -562)"><path d="M2047.51 592.164C2046.05 592.164 2043.59 591.816 2043.59 589.451 2043.56 587.624 2042.03 586.163 2040.2 586.215 2038.42 586.25 2036.99 587.676 2036.96 589.451 2036.96 593.904 2039.83 597.226 2044.2 598.357L2044.2 599.105C2044.2 600.931 2045.68 602.428 2047.53 602.428 2049.37 602.428 2050.85 600.949 2050.85 599.105 2050.85 599.105 2050.85 599.105 2050.85 599.105L2050.85 598.357C2055.22 597.226 2058.09 593.904 2058.09 589.451 2058.09 583.727 2054.42 581.918 2050.17 579.813L2047.84 578.665C2043.61 576.578 2043.61 576.369 2043.61 574.977 2043.61 572.577 2046.06 572.211 2047.53 572.211 2049.27 572.211 2051.36 572.698 2051.36 574.977 2051.36 576.804 2052.84 578.3 2054.68 578.3 2056.51 578.3 2057.99 576.821 2058.01 574.977 2058.01 570.507 2055.19 567.167 2050.87 566.036L2050.87 565.323C2050.87 563.496 2049.39 562 2047.54 562 2045.72 562 2044.24 563.479 2044.22 565.323L2044.22 566.036C2039.85 567.167 2036.98 570.507 2036.98 574.977 2036.98 580.7 2040.65 582.51 2044.92 584.614L2047.25 585.763C2051.48 587.85 2051.48 588.024 2051.48 589.451 2051.43 591.816 2048.97 592.164 2047.51 592.164ZM2088.14 599.244C2086.49 597.8 2084.31 597.07 2082.12 597.244 2079.91 597.4 2077.89 598.409 2076.57 599.94L2067.67 609.038C2066.21 607.82 2064.36 607.142 2062.45 607.142L2044.55 607.142C2042.34 606.289 2035.53 604.132 2028.64 606.602 2022.42 608.829 2018.04 612.326 2015.56 616.97 2013.63 617.023 2011.77 617.805 2010.39 619.18L2006.23 623.337C2003.26 626.312 2003.26 631.148 2006.23 634.122L2018.89 646.769C2021.87 649.744 2026.71 649.744 2029.68 646.769L2033.84 642.612C2035.45 641.011 2036.23 638.767 2036 636.523L2037.48 635.044C2038.14 634.383 2038.51 634.018 2041.52 634.018L2061.78 634.018C2067.3 634.018 2071.6 632.035 2074.88 627.964L2088.96 610.934C2091.97 607.472 2091.61 602.236 2088.14 599.244L2088.14 599.244ZM2029.14 637.915 2024.98 642.072C2024.6 642.455 2023.97 642.455 2023.57 642.072L2010.92 629.426C2010.53 629.043 2010.53 628.417 2010.92 628.034L2015.08 623.876C2015.46 623.494 2016.09 623.494 2016.47 623.876 2016.47 623.876 2016.47 623.876 2016.47 623.876L2029.13 636.523C2029.54 636.906 2029.54 637.532 2029.14 637.915ZM2083.91 606.655 2069.74 623.772C2067.69 626.312 2065.32 627.39 2061.78 627.39L2041.52 627.39C2037.78 627.39 2035.29 627.86 2032.8 630.348L2032.59 630.574 2021.66 619.649C2023.4 616.692 2026.5 614.413 2030.88 612.847 2036.52 610.83 2042.48 613.456 2042.53 613.474 2042.97 613.665 2043.44 613.77 2043.92 613.787L2062.46 613.787C2063.39 613.822 2064.1 614.587 2064.08 615.509 2064.05 616.379 2063.35 617.092 2062.46 617.127L2048.9 617.127C2047.07 617.127 2045.58 618.606 2045.58 620.449 2045.58 622.293 2047.06 623.772 2048.9 623.772 2048.9 623.772 2048.9 623.772 2048.9 623.772L2062.46 623.772C2067.04 623.772 2070.77 620.049 2070.77 615.474L2070.77 615.44 2081.46 604.463C2081.75 604.132 2082.15 603.924 2082.61 603.906 2083.04 603.871 2083.48 604.011 2083.81 604.306 2084.14 604.602 2084.35 605.002 2084.36 605.437 2084.38 605.855 2084.23 606.307 2083.91 606.655L2083.91 606.655Z" fill="#2CB5E8" fill-rule="evenodd"/></g></svg>