<svg width="88" height="87" xmlns="http://www.w3.org/2000/svg" xmlns:xlink="http://www.w3.org/1999/xlink" xml:space="preserve" overflow="hidden"><defs><clipPath id="clip0"><rect x="2004" y="780" width="88" height="87"/></clipPath></defs><g clip-path="url(#clip0)" transform="translate(-2004 -780)"><path d="M2088.51 855.167 2016.03 855.167 2016.03 783.452C2016 781.555 2014.39 780.038 2012.47 780.092 2010.61 780.128 2009.11 781.609 2009.08 783.452L2009.08 855.167 2007.49 855.167C2005.57 855.167 2004 856.702 2004 858.617 2004 860.532 2005.55 862.067 2007.49 862.067 2007.49 862.067 2007.49 862.067 2007.49 862.067L2009.08 862.067 2009.08 863.639C2009.11 865.536 2010.72 867.053 2012.64 866.999 2014.5 866.963 2016 865.481 2016.03 863.639L2016.03 862.067 2088.51 862.067C2090.43 862.067 2092 860.532 2092 858.617 2091.98 856.702 2090.43 855.167 2088.51 855.167 2088.51 855.167 2088.51 855.167 2088.51 855.167ZM2041.24 818.117 2048 818.117C2048.93 818.117 2049.68 818.857 2049.68 819.779L2049.68 847.869C2049.68 848.79 2048.93 849.531 2048 849.531L2041.24 849.531C2040.31 849.531 2039.57 848.79 2039.57 847.869L2039.57 819.797C2039.57 818.876 2040.31 818.117 2041.24 818.117ZM2024.78 828.143 2031.53 828.143C2032.46 828.143 2033.21 828.883 2033.21 829.804L2033.21 847.887C2033.21 848.808 2032.46 849.549 2031.53 849.549L2024.78 849.549C2023.85 849.549 2023.1 848.808 2023.1 847.887L2023.1 829.804C2023.1 828.883 2023.85 828.143 2024.78 828.143ZM2057.69 828.143 2064.45 828.143C2065.38 828.143 2066.13 828.883 2066.13 829.804L2066.13 847.887C2066.13 848.808 2065.38 849.549 2064.45 849.549L2057.69 849.549C2056.76 849.549 2056.02 848.808 2056.02 847.887L2056.02 829.804C2056.02 828.883 2056.76 828.143 2057.69 828.143ZM2074.16 814.775 2080.92 814.775C2081.85 814.775 2082.6 815.516 2082.6 816.437L2082.6 847.869C2082.6 848.79 2081.85 849.531 2080.92 849.531L2074.16 849.531C2073.23 849.531 2072.48 848.79 2072.48 847.869L2072.48 816.437C2072.46 815.534 2073.23 814.775 2074.16 814.775ZM2026.86 818.803C2027.37 818.803 2027.86 818.623 2028.25 818.316L2045.61 804.442 2058.9 817.611C2059.76 818.46 2061.15 818.478 2062.02 817.647L2078.82 801.679C2079.71 800.848 2079.75 799.439 2078.89 798.571 2078.05 797.686 2076.63 797.65 2075.75 798.499 2075.75 798.499 2075.73 798.517 2075.73 798.517L2060.52 812.987 2047.36 799.944C2046.56 799.149 2045.28 799.077 2044.39 799.782L2025.45 814.883C2024.5 815.642 2024.34 817.033 2025.11 817.972 2025.54 818.496 2026.18 818.803 2026.86 818.803L2026.86 818.803ZM2060.18 797.596C2059.3 797.596 2057.29 797.379 2057.29 795.446 2057.26 794.688 2056.62 794.091 2055.85 794.128 2055.12 794.146 2054.54 794.742 2054.52 795.446 2054.52 797.957 2056.2 799.746 2058.81 800.233L2058.81 801.1C2058.77 801.859 2059.37 802.491 2060.14 802.528 2060.91 802.564 2061.55 801.968 2061.58 801.209 2061.58 801.173 2061.58 801.137 2061.58 801.1L2061.58 800.233C2064.19 799.764 2065.87 797.975 2065.87 795.446 2065.87 792.448 2063.94 791.508 2061.49 790.316L2060.14 789.648C2057.68 788.438 2057.31 788.185 2057.31 786.974 2057.31 784.951 2059.52 784.789 2060.2 784.789 2061.05 784.789 2063.03 785.005 2063.03 786.974 2063.06 787.733 2063.7 788.329 2064.47 788.293 2065.2 788.275 2065.78 787.679 2065.8 786.974 2065.8 784.445 2064.16 782.657 2061.58 782.169L2061.58 781.32C2061.55 780.562 2060.91 779.965 2060.14 780.002 2059.41 780.02 2058.83 780.616 2058.81 781.32L2058.81 782.169C2056.23 782.657 2054.52 784.481 2054.52 786.974 2054.52 789.973 2056.45 790.912 2058.9 792.105L2060.27 792.773C2062.73 793.965 2063.1 794.218 2063.1 795.428 2063.06 797.379 2061.04 797.596 2060.18 797.596Z" fill="#2AB4E7" fill-rule="evenodd"/></g></svg>