<svg width="96" height="95" xmlns="http://www.w3.org/2000/svg" xmlns:xlink="http://www.w3.org/1999/xlink" xml:space="preserve" overflow="hidden"><defs><clipPath id="clip0"><rect x="1190" y="776" width="96" height="95"/></clipPath></defs><g clip-path="url(#clip0)" transform="translate(-1190 -776)"><path d="M1285 801.617C1283.66 800.281 1281.49 800.278 1280.15 801.612 1280.14 801.614 1280.14 801.616 1280.14 801.617 1279.21 802.539 1278.14 803.303 1276.97 803.882 1265.85 792.472 1260.62 787.265 1257.93 784.97 1258.57 783.823 1259.37 782.77 1260.31 781.843 1261.65 780.506 1261.65 778.339 1260.31 777.002 1258.96 775.666 1256.79 775.666 1255.45 777.002 1248.02 784.407 1248.44 794.109 1249.53 803.747 1240.64 802.811 1231.99 803.011 1225.6 809.375 1218.15 816.807 1217.82 826.295 1218.65 835.357 1208.5 834.044 1198.28 833.293 1191.01 840.542 1189.66 841.878 1189.66 844.046 1191.01 845.383 1192.35 846.719 1194.52 846.719 1195.86 845.383 1196.28 844.965 1196.74 844.579 1197.21 844.228L1216.87 863.825C1216.51 864.292 1216.11 864.737 1215.69 865.157 1214.35 866.493 1214.35 868.661 1215.69 869.998 1217.04 871.334 1219.21 871.334 1220.55 869.998 1227.98 862.595 1227.56 852.893 1226.47 843.253 1235.36 844.192 1244.02 843.993 1250.39 837.626 1257.84 830.191 1258.17 820.698 1257.34 811.635 1267.49 812.947 1277.71 813.696 1285 806.451 1286.33 805.116 1286.33 802.952 1285 801.617ZM1272.59 805.27C1271.14 805.509 1269.67 805.629 1268.2 805.628 1262.1 799.237 1258.3 795.328 1255.83 792.968 1255.9 791.653 1256.08 790.346 1256.37 789.062 1259.73 792.262 1266.25 798.799 1272.59 805.27ZM1262.19 805.314C1260.35 805.135 1258.46 804.882 1256.55 804.628 1256.31 802.666 1256.1 800.762 1255.95 798.926 1257.81 800.811 1259.97 803.016 1262.19 805.322ZM1250.36 810.72C1250.68 813.725 1250.9 816.649 1250.78 819.432L1241.52 810.202C1244.29 810.11 1247.27 810.36 1250.36 810.727ZM1247.45 830.518 1230.79 813.906C1232.39 812.425 1234.29 811.477 1236.41 810.91L1250.11 824.56C1249.61 826.694 1248.7 828.716 1247.45 830.518ZM1239.65 836.076 1225.91 822.379C1226.36 820.502 1227.12 818.712 1228.15 817.08L1244.68 833.558C1243.2 834.745 1241.49 835.602 1239.65 836.072ZM1219.45 842.362C1219.79 845.191 1220.09 847.902 1220.19 850.46L1211.15 841.454C1213.81 841.625 1216.6 841.981 1219.45 842.362ZM1201.08 842.286C1202.47 841.86 1203.9 841.586 1205.35 841.47L1219.97 856.047C1219.79 857.435 1219.45 858.798 1218.96 860.11ZM1225.65 836.273C1225.32 833.239 1225.11 830.288 1225.23 827.487L1234.56 836.787C1231.76 836.89 1228.76 836.646 1225.65 836.273Z" fill="#2CB5E8" fill-rule="evenodd"/></g></svg>