<svg width="94" height="70" xmlns="http://www.w3.org/2000/svg" xmlns:xlink="http://www.w3.org/1999/xlink" xml:space="preserve" overflow="hidden"><defs><clipPath id="clip0"><rect x="2911" y="1355" width="94" height="70"/></clipPath></defs><g clip-path="url(#clip0)" transform="translate(-2911 -1355)"><path d="M3001.42 1355 2947.13 1355C2945.17 1355 2943.57 1356.56 2943.57 1358.47L2943.57 1374.45 2914.56 1374.45C2912.6 1374.45 2911 1375.99 2911 1377.92 2911 1377.92 2911 1377.92 2911 1377.92L2911 1421.53C2911 1423.44 2912.6 1425 2914.56 1425 2914.56 1425 2914.56 1425 2914.56 1425L2968.87 1425C2970.83 1425 2972.43 1423.45 2972.43 1421.53 2972.43 1421.53 2972.43 1421.53 2972.43 1421.53L2972.43 1405.55 3001.44 1405.55C3003.4 1405.55 3005 1403.99 3005 1402.08L3005 1358.47C3004.98 1356.56 3003.4 1355 3001.42 1355ZM2950.7 1361.95 2997.87 1361.95 2997.87 1365.68 2950.7 1365.68 2950.7 1361.95ZM2965.3 1418.05 2965.3 1418.05 2918.13 1418.05 2918.13 1418.05 2918.13 1390.27 2965.3 1390.27 2965.3 1418.05ZM2965.3 1385.14 2918.13 1385.14 2918.13 1381.41 2965.3 1381.41 2965.3 1385.14ZM2997.87 1398.61 2997.87 1398.61 2972.43 1398.61 2972.43 1377.94C2972.43 1377.9 2972.43 1377.87 2972.43 1377.84 2972.43 1377.81 2972.43 1377.78 2972.43 1377.75 2972.43 1377.72 2972.43 1377.69 2972.43 1377.66 2972.43 1377.63 2972.43 1377.6 2972.43 1377.57 2972.43 1377.54 2972.43 1377.51 2972.42 1377.49 2972.42 1377.46 2972.42 1377.43 2972.4 1377.4 2972.4 1377.37 2972.38 1377.35 2972.38 1377.32 2972.38 1377.29 2972.37 1377.26 2972.37 1377.23 2972.37 1377.2 2972.35 1377.19 2972.35 1377.16 2972.35 1377.12 2972.34 1377.09 2972.34 1377.06 2972.34 1377.03 2972.32 1377.02 2972.32 1376.99 2972.31 1376.96 2972.31 1376.93 2972.29 1376.9 2972.27 1376.86 2972.27 1376.85 2972.26 1376.82 2972.24 1376.79 2972.24 1376.76 2972.23 1376.74 2972.21 1376.71 2972.21 1376.7 2972.2 1376.67 2972.18 1376.64 2972.18 1376.62 2972.16 1376.59 2972.15 1376.56 2972.13 1376.54 2972.13 1376.51 2972.12 1376.48 2972.12 1376.47 2972.1 1376.44 2972.09 1376.41 2972.07 1376.39 2972.05 1376.36 2972.04 1376.33 2972.02 1376.31 2972.02 1376.28 2972.01 1376.25 2971.99 1376.22 2971.98 1376.21 2971.96 1376.19 2971.94 1376.16 2971.94 1376.15 2971.93 1376.11 2971.91 1376.08 2971.9 1376.07 2971.88 1376.05 2971.87 1376.02 2971.85 1376.01 2971.83 1375.98 2971.82 1375.96 2971.8 1375.93 2971.79 1375.92 2971.77 1375.89 2971.76 1375.87 2971.74 1375.84 2971.72 1375.82 2971.69 1375.79 2971.68 1375.78 2971.66 1375.75 2971.65 1375.73 2971.63 1375.72 2971.61 1375.69 2971.58 1375.67 2971.57 1375.66 2971.55 1375.63 2971.54 1375.61 2971.52 1375.59 2971.49 1375.56 2971.47 1375.55 2971.46 1375.53 2971.44 1375.5 2971.41 1375.49 2971.39 1375.47 2971.36 1375.44 2971.35 1375.43 2971.33 1375.41 2971.32 1375.4 2971.28 1375.37 2971.27 1375.35 2971.24 1375.33 2971.22 1375.32 2971.21 1375.3 2971.18 1375.29 2971.16 1375.26 2971.14 1375.24 2971.11 1375.23 2971.1 1375.21 2971.07 1375.2 2971.05 1375.18 2971.02 1375.15 2971 1375.14 2970.97 1375.12 2970.96 1375.1 2970.92 1375.09 2970.91 1375.07 2970.88 1375.06 2970.85 1375.04 2970.83 1375.03 2970.8 1375.01 2970.78 1375 2970.75 1374.98 2970.74 1374.97 2970.7 1374.95 2970.69 1374.94 2970.66 1374.92 2970.63 1374.91 2970.61 1374.89 2970.58 1374.88 2970.55 1374.86 2970.53 1374.84 2970.5 1374.83 2970.47 1374.81 2970.45 1374.8 2970.42 1374.8 2970.39 1374.78 2970.37 1374.77 2970.34 1374.77 2970.31 1374.75 2970.3 1374.75 2970.26 1374.74 2970.23 1374.72 2970.2 1374.72 2970.19 1374.71 2970.15 1374.69 2970.14 1374.69 2970.11 1374.68 2970.08 1374.66 2970.04 1374.66 2970.01 1374.65 2969.98 1374.63 2969.97 1374.63 2969.93 1374.62 2969.9 1374.6 2969.87 1374.6 2969.84 1374.58 2969.81 1374.58 2969.79 1374.57 2969.76 1374.57 2969.73 1374.55 2969.7 1374.55 2969.67 1374.55 2969.64 1374.55 2969.62 1374.54 2969.59 1374.54 2969.56 1374.54 2969.53 1374.52 2969.49 1374.52 2969.46 1374.52 2969.45 1374.51 2969.42 1374.51 2969.38 1374.51 2969.35 1374.49 2969.32 1374.49 2969.29 1374.49 2969.27 1374.49 2969.24 1374.48 2969.21 1374.48 2969.18 1374.48 2969.13 1374.46 2969.1 1374.46 2969.09 1374.46 2969.05 1374.46 2969.02 1374.46 2968.99 1374.46 2968.95 1374.46 2968.91 1374.46 2968.9 1374.46 2968.87 1374.46 2968.87 1374.46 2968.87 1374.46 2968.87 1374.46L2950.7 1374.46 2950.7 1374.46 2950.7 1370.82 2997.87 1370.82 2997.87 1370.82 2997.87 1398.61Z" fill="#28B5E8" fill-rule="evenodd"/></g></svg>