<svg width="82" height="69" xmlns="http://www.w3.org/2000/svg" xmlns:xlink="http://www.w3.org/1999/xlink" xml:space="preserve" overflow="hidden"><defs><clipPath id="clip0"><rect x="1779" y="1349" width="82" height="69"/></clipPath></defs><g clip-path="url(#clip0)" transform="translate(-1779 -1349)"><path d="M1836.29 1387.86 1810.5 1373.48C1809.57 1372.95 1808.39 1373.29 1807.87 1374.22 1807.7 1374.51 1807.62 1374.83 1807.64 1375.17L1807.64 1404.56C1807.64 1405.63 1808.49 1406.49 1809.55 1406.49 1809.89 1406.49 1810.23 1406.4 1810.53 1406.22L1836.32 1391.21C1837.25 1390.67 1837.55 1389.48 1837.03 1388.57 1836.84 1388.28 1836.59 1388.03 1836.29 1387.86L1836.29 1387.86ZM1811.49 1401.21 1811.49 1378.46 1831.46 1389.6 1811.49 1401.21ZM1790.82 1361.63C1791.86 1361.63 1792.7 1360.78 1792.7 1359.73 1792.7 1358.69 1791.86 1357.84 1790.82 1357.84 1789.77 1357.84 1788.93 1358.69 1788.93 1359.72 1788.93 1360.78 1789.77 1361.63 1790.82 1361.63 1790.82 1361.63 1790.82 1361.63 1790.82 1361.63ZM1798.34 1361.63C1799.39 1361.63 1800.21 1360.78 1800.21 1359.73 1800.21 1358.69 1799.37 1357.86 1798.33 1357.86 1797.3 1357.86 1796.46 1358.7 1796.46 1359.73 1796.46 1360.78 1797.3 1361.63 1798.34 1361.63 1798.33 1361.63 1798.34 1361.63 1798.34 1361.63ZM1805.85 1361.63C1806.89 1361.63 1807.74 1360.78 1807.74 1359.73 1807.74 1358.69 1806.89 1357.84 1805.85 1357.84 1804.81 1357.84 1803.97 1358.69 1803.97 1359.72 1803.97 1360.78 1804.81 1361.63 1805.85 1361.63 1805.85 1361.63 1805.85 1361.63 1805.85 1361.63ZM1857.78 1349 1782.22 1349C1780.45 1349 1779 1350.44 1779 1352.23L1779 1414.77C1779 1416.55 1780.43 1418 1782.22 1418L1857.78 1418C1859.55 1418 1861 1416.56 1861 1414.77L1861 1352.23C1861 1350.45 1859.57 1349 1857.78 1349ZM1854.59 1355.46 1854.59 1364.2 1785.43 1364.2 1785.43 1355.46 1854.59 1355.46ZM1785.43 1411.54 1785.43 1368.3 1854.59 1368.3 1854.59 1411.54 1785.43 1411.54Z" fill="#28B5E8" fill-rule="evenodd"/></g></svg>