<svg width="85" height="63" xmlns="http://www.w3.org/2000/svg" xmlns:xlink="http://www.w3.org/1999/xlink" xml:space="preserve" overflow="hidden"><g transform="translate(-386 -1352)"><path d="M470.861 1392.95 467.165 1382.28C467.081 1382.04 466.97 1381.81 466.816 1381.6 464.78 1378.78 461.768 1374.65 459.091 1371.29 458.059 1370 456.804 1369.14 455.437 1368.76L455.437 1358.17C455.437 1356.71 454.251 1355.53 452.773 1355.53L430.502 1355.53C427.811 1352.71 423.571 1351.93 420.043 1353.63 417.282 1351.7 413.433 1351.49 410.491 1353.13 409.152 1352.39 407.646 1352 406.112 1352 402.681 1352.01 399.557 1353.95 398.037 1356.99 392.71 1356.31 387.941 1360.56 387.941 1365.84 387.955 1366.5 388.024 1367.17 388.192 1367.8 386.881 1368.02 385.947 1369.18 386.002 1370.5L386.616 1385.07C386.672 1386.38 387.69 1387.46 389.015 1387.59L397.201 1388.39 400.115 1393.97C394.788 1397.46 393.31 1404.56 396.824 1409.85 400.338 1415.13 407.478 1416.59 412.806 1413.11 416.055 1410.99 418.007 1407.38 418.007 1403.54 418.007 1403.1 417.979 1402.66 417.924 1402.21L439.26 1402.21C438.521 1408.5 443.053 1414.19 449.398 1414.92 455.744 1415.65 461.475 1411.16 462.214 1404.87 462.27 1404.43 462.298 1403.98 462.298 1403.54 462.298 1403.11 462.27 1402.7 462.228 1402.27L467.346 1402.27C469.368 1402.27 471 1400.65 471 1398.65L471 1393.81C471 1393.52 470.944 1393.23 470.861 1392.95ZM396.936 1360.09C397.493 1360.09 398.051 1360.17 398.581 1360.32 399.418 1360.57 400.31 1360.09 400.562 1359.26 401.314 1356.84 403.56 1355.17 406.126 1355.17 407.367 1355.17 408.566 1355.55 409.556 1356.29 410.114 1356.7 410.881 1356.7 411.453 1356.29 413.642 1354.68 416.822 1354.86 418.83 1356.7 419.374 1357.2 420.183 1357.27 420.796 1356.85 421.745 1356.23 422.86 1355.9 423.99 1355.9L424.004 1355.9C423.641 1356.11 423.334 1356.4 423.111 1356.76L418.969 1363.27 391.344 1367.32C390.493 1364.26 392.306 1361.11 395.388 1360.28 395.876 1360.16 396.406 1360.09 396.936 1360.09ZM391.399 1372.66 420.95 1368.31C421.717 1368.2 422.4 1367.76 422.805 1367.11L426.807 1360.81 450.11 1360.81 450.11 1368.52 438.186 1368.52 437.991 1368.56 437.475 1368.66 437.001 1368.83 436.597 1369.09 436.206 1369.45 435.927 1369.85 435.69 1370.33 435.606 1370.51 431.548 1386.44 391.818 1382.55 391.399 1372.66ZM406.446 1409.73C403.002 1409.73 400.199 1406.96 400.199 1403.54 400.199 1400.13 403.002 1397.35 406.446 1397.35 409.891 1397.35 412.694 1400.13 412.694 1403.54L412.694 1403.54C412.694 1406.96 409.891 1409.73 406.446 1409.73ZM450.737 1409.73C447.293 1409.73 444.49 1406.97 444.49 1403.54 444.49 1400.13 447.279 1397.35 450.737 1397.35 454.182 1397.35 456.985 1400.11 456.985 1403.54 456.985 1403.54 456.985 1403.54 456.985 1403.54 456.985 1406.96 454.182 1409.72 450.737 1409.73ZM465.687 1397 461.392 1397C461.043 1397 460.694 1397.07 460.374 1397.21 456.859 1391.94 449.691 1390.49 444.378 1393.99 443.165 1394.79 442.119 1395.8 441.282 1396.99L441.129 1396.96 416.083 1396.96 415.901 1396.99C413.489 1393.52 409.333 1391.66 405.108 1392.16L403.462 1389 433.292 1391.91 433.556 1391.93C434.77 1391.93 435.83 1391.11 436.136 1389.94L440.264 1373.8 452.718 1373.8 452.773 1373.82 452.829 1373.8 453.819 1373.8C454.251 1373.8 454.726 1374.34 454.907 1374.56 457.64 1377.99 460.917 1382.51 462.256 1384.35L465.687 1394.24 465.687 1397ZM453.415 1377.2 453.317 1377.08C452.634 1376.4 451.699 1376 450.723 1375.97L445.34 1375.97C444.002 1375.99 442.914 1377.08 442.928 1378.41L442.928 1384.9C442.928 1386.25 444.016 1387.34 445.368 1387.34L456.636 1387.34C457.487 1387.34 458.282 1386.78 458.658 1385.91 459.035 1385.04 458.895 1384.13 458.421 1383.63L453.415 1377.2ZM446.107 1384.19 446.107 1379.14 450.709 1379.14 450.974 1379.25 454.809 1384.2 446.107 1384.19Z" fill="#28B5E8" fill-rule="evenodd"/></g></svg>