<svg width="70" height="70" xmlns="http://www.w3.org/2000/svg" xmlns:xlink="http://www.w3.org/1999/xlink" xml:space="preserve" overflow="hidden"><g transform="translate(-993 -789)"><path d="M1018.92 794.521C1021.98 794.521 1024.74 798.852 1024.74 800.172 1024.74 801.691 1025.98 802.941 1027.51 802.941L1050.99 802.941C1054.62 802.941 1057.04 805.094 1057.39 808.479 1055.92 807.733 1054.26 807.299 1052.39 807.299L1021.54 807.299C1015.07 807.299 1009.79 812.029 1009.79 817.845L1009.79 847.247C1009.79 850.502 1007.15 853.47 1004.26 853.47L1003.73 853.47C1000.59 853.47 998.497 850.25 998.497 847.247L998.497 818.384 998.497 800.397C998.497 797.437 1001.68 794.521 1004.9 794.521ZM1044.39 830.502C1043.77 830.502 1043.27 831.005 1043.27 831.621L1043.27 838.991 1035.9 838.991C1035.27 838.991 1034.79 839.495 1034.79 840.102L1034.79 848.583C1034.79 849.191 1035.27 849.694 1035.9 849.694L1043.27 849.694 1043.27 857.082C1043.27 857.689 1043.77 858.184 1044.39 858.184L1052.87 858.184C1053.48 858.184 1053.97 857.689 1053.97 857.082L1053.97 849.694 1061.36 849.694C1061.97 849.694 1062.47 849.191 1062.47 848.583L1062.47 840.102C1062.47 839.495 1061.99 838.991 1061.36 838.991L1053.97 838.991 1053.97 831.621C1053.97 831.005 1053.48 830.502 1052.87 830.502ZM1004.93 789.009C998.575 789.009 993.009 794.338 993.009 800.415L993.009 818.392 993.009 847.255C993.009 853.74 997.846 859 1003.78 859L1004.3 859C1004.64 859 1004.96 858.983 1005.3 858.965 1005.4 858.965 1005.48 859 1005.58 859L1030.8 859C1032.34 859 1033.57 857.759 1033.57 856.24 1033.57 854.703 1032.34 853.47 1030.8 853.47L1013.6 853.47C1014.69 851.639 1015.34 849.512 1015.34 847.247L1015.34 817.845C1015.34 814.746 1018.57 812.828 1021.57 812.828L1052.4 812.828C1055.52 812.828 1057.45 814.746 1057.45 817.845L1057.45 818.384 1057.45 826.804C1057.45 828.332 1058.7 829.573 1060.23 829.573 1061.76 829.573 1063 828.332 1063 826.804L1063 818.384 1063 817.845 1063 809.347C1063 802.446 1057.97 797.42 1051.03 797.42 1051.03 797.42 1051.02 797.42 1051.01 797.42L1029.73 797.42C1028.22 793.444 1023.91 789.009 1018.95 789.009Z" fill="#2AB5E8" fill-rule="evenodd"/></g></svg>