<svg width="68" height="80" xmlns="http://www.w3.org/2000/svg" xmlns:xlink="http://www.w3.org/1999/xlink" xml:space="preserve" overflow="hidden"><g transform="translate(-1423 -566)"><path d="M1490.03 576.475C1489.41 575.899 1488.57 575.612 1487.73 575.644 1472.5 576.522 1465.92 573.215 1459.12 566.839 1457.92 565.721 1456.06 565.721 1454.86 566.839 1448.07 573.215 1441.5 576.522 1426.25 575.644 1424.55 575.548 1423.1 576.826 1423 578.504 1423 578.568 1423 578.616 1423 578.68L1423 612.428C1423 630.916 1442.52 643.156 1456.39 645.936L1457 646 1457.61 645.936C1471.48 643.14 1491 630.9 1491 612.428L1491 578.696C1491 577.849 1490.64 577.05 1490.03 576.475ZM1484.82 612.428C1484.82 627.049 1468.44 637.291 1456.98 639.848 1445.53 637.307 1429.15 627.065 1429.15 612.428L1429.15 581.86C1442.89 582.179 1450.25 578.887 1456.98 573.167 1463.72 578.903 1471.1 582.163 1484.82 581.86L1484.82 612.428ZM1443.6 591.543C1444.56 591.543 1445.35 592.31 1445.35 593.269 1445.35 594.227 1444.57 594.994 1443.6 594.994 1442.63 594.994 1441.85 594.227 1441.85 593.269 1441.85 592.31 1442.63 591.543 1443.6 591.543ZM1448.83 591.543C1449.78 591.543 1450.58 592.31 1450.58 593.269 1450.58 594.227 1449.8 594.994 1448.83 594.994 1447.86 594.994 1447.08 594.227 1447.08 593.269 1447.08 592.31 1447.87 591.543 1448.83 591.543ZM1476.89 586.685 1438.07 586.685C1437.05 586.685 1436.22 587.5 1436.22 588.507L1436.22 620.114C1436.22 621.12 1437.05 621.935 1438.07 621.935L1438.07 621.935 1476.89 621.935C1477.91 621.935 1478.73 621.12 1478.73 620.114L1478.73 588.523C1478.73 587.516 1477.91 586.701 1476.89 586.685ZM1475.04 618.292 1439.93 618.292 1439.93 599.868 1475.04 599.868 1475.04 618.292ZM1475.04 596.209 1439.93 596.209 1439.93 590.344 1475.04 590.344 1475.04 596.209Z" fill="#2CB5E8" fill-rule="evenodd"/></g></svg>