<svg width="62" height="62" xmlns="http://www.w3.org/2000/svg" xmlns:xlink="http://www.w3.org/1999/xlink" xml:space="preserve" overflow="hidden"><defs><clipPath id="clip0"><rect x="997" y="575" width="62" height="62"/></clipPath></defs><g clip-path="url(#clip0)" transform="translate(-997 -575)"><path d="M1055.69 611.5 1034.96 590.76 1034.78 590.594 1022.5 578.326C1018.07 573.882 1007.76 573.483 1001.62 579.641 998.809 582.454 997.179 586.349 997.012 590.61 996.862 594.605 998.094 598.317 1000.31 600.531L1019.49 619.722 1019.49 619.722 1021.02 621.254 1021.2 621.42 1033.48 633.688C1035.58 635.785 1039 637 1042.76 637L1043.4 636.983C1047.65 636.834 1051.55 635.186 1054.36 632.373 1060.51 626.231 1060.12 615.927 1055.69 611.5ZM1003.35 590.843C1003.45 588.23 1004.45 585.783 1006.1 584.119 1009.91 580.29 1016.19 580.989 1018.01 582.82L1030.47 595.271 1030.65 595.437 1031.2 595.987C1027.99 596.802 1025.01 598.417 1022.7 600.747 1020.39 603.094 1018.76 606.024 1017.96 609.219L1004.8 596.053C1004.02 595.254 1003.27 593.34 1003.35 590.843ZM1049.9 627.895C1046.07 631.724 1039.8 631.024 1037.99 629.194L1025.53 616.743 1025.34 616.577 1024.03 615.262C1023.35 614.263 1023.4 608.986 1027.19 605.191 1030.98 601.396 1036.28 601.363 1037.21 601.995L1037.22 601.979 1051.21 615.961C1053.01 617.792 1053.71 624.083 1049.9 627.895ZM1038.37 606.257 1035.68 608.953 1045.08 618.358C1045.94 619.223 1046.26 622.352 1044.39 624.217 1043.63 624.949 1043.61 626.147 1044.34 626.913 1045.08 627.679 1046.27 627.695 1047.04 626.963 1047.06 626.946 1047.07 626.93 1047.09 626.913 1048.6 625.398 1049.48 623.318 1049.57 621.021 1049.65 618.857 1048.97 616.86 1047.77 615.661L1038.37 606.257Z" fill="#2CB5E8" fill-rule="evenodd"/></g></svg>