<svg width="84" height="68" xmlns="http://www.w3.org/2000/svg" xmlns:xlink="http://www.w3.org/1999/xlink" xml:space="preserve" overflow="hidden"><defs><clipPath id="clip0"><rect x="1196" y="572" width="84" height="68"/></clipPath></defs><g clip-path="url(#clip0)" transform="translate(-1196 -572)"><path d="M1229.59 593.342 1229.59 587.931C1229.59 587.931 1229.59 587.931 1229.59 587.931 1229.59 587.752 1229.74 587.603 1229.92 587.618L1234.97 587.618 1234.97 582.521C1234.97 582.342 1235.12 582.193 1235.3 582.193L1240.66 582.193C1240.84 582.193 1240.98 582.342 1240.98 582.521L1240.98 587.618 1246.04 587.618C1246.04 587.618 1246.04 587.618 1246.04 587.618 1246.21 587.618 1246.36 587.767 1246.35 587.946L1246.35 593.342C1246.35 593.342 1246.35 593.342 1246.35 593.342 1246.35 593.521 1246.2 593.67 1246.02 593.67L1240.97 593.67 1240.97 598.767C1240.97 598.946 1240.82 599.095 1240.64 599.095L1235.28 599.095C1235.1 599.095 1234.96 598.946 1234.96 598.767L1234.96 593.67 1229.91 593.67C1229.91 593.67 1229.91 593.67 1229.89 593.67 1229.74 593.67 1229.59 593.521 1229.59 593.342ZM1207.08 629.793 1213.6 629.793C1214.13 629.793 1214.56 629.359 1214.56 628.821L1214.56 624.801C1214.56 624.263 1214.13 623.83 1213.6 623.83L1207.08 623.83C1206.55 623.83 1206.12 624.263 1206.12 624.801L1206.12 628.821C1206.12 629.359 1206.55 629.793 1207.08 629.793ZM1207.08 619.63 1213.6 619.63C1214.13 619.63 1214.56 619.197 1214.56 618.659L1214.56 614.638C1214.56 614.1 1214.13 613.667 1213.6 613.667L1207.08 613.667C1206.55 613.667 1206.12 614.1 1206.12 614.638L1206.12 618.659C1206.12 619.197 1206.55 619.63 1207.08 619.63ZM1262.05 629.793 1268.57 629.793C1269.1 629.793 1269.53 629.359 1269.53 628.821L1269.53 624.801C1269.53 624.263 1269.1 623.83 1268.57 623.83L1262.05 623.83C1261.51 623.83 1261.08 624.263 1261.08 624.801L1261.08 628.821C1261.07 629.359 1261.51 629.793 1262.05 629.793ZM1262.05 619.63 1268.57 619.63C1269.1 619.63 1269.53 619.197 1269.53 618.659L1269.53 614.638C1269.53 614.1 1269.1 613.667 1268.57 613.667L1262.05 613.667C1261.51 613.667 1261.08 614.1 1261.08 614.638L1261.08 618.659C1261.07 619.197 1261.51 619.63 1262.05 619.63ZM1280 606.673 1280 637.146C1280 638.715 1278.74 640 1277.17 640L1254.14 640C1254.12 640 1254.12 640 1254.11 640 1254.09 640 1254.09 640 1254.08 640L1198.83 640C1197.27 640 1196 638.73 1196 637.146L1196 606.673C1196 606.673 1196 606.673 1196 606.673 1196 605.103 1197.26 603.818 1198.83 603.818L1219.05 603.818 1219.05 574.854C1219.05 574.854 1219.05 574.854 1219.05 574.854 1219.05 573.285 1220.31 572 1221.88 572L1254.09 572C1255.65 572 1256.92 573.27 1256.92 574.854L1256.92 603.833 1277.2 603.833C1277.2 603.833 1277.2 603.833 1277.2 603.833 1278.74 603.818 1280.01 605.103 1280 606.673ZM1219.05 609.527 1201.64 609.527 1201.64 634.291 1219.03 634.291 1219.03 609.527ZM1242.84 634.291 1242.84 623.082 1232.87 623.082 1232.87 634.291 1242.84 634.291ZM1251.26 577.694 1224.69 577.694 1224.69 606.673 1224.69 634.291 1230.62 634.291 1230.62 621.946C1230.62 621.319 1231.12 620.811 1231.74 620.811 1231.74 620.811 1231.74 620.811 1231.74 620.811L1243.98 620.811C1244.6 620.811 1245.1 621.319 1245.1 621.946 1245.1 621.946 1245.1 621.946 1245.1 621.946L1245.1 634.291 1251.26 634.291 1251.26 577.694ZM1274.36 609.527 1256.97 609.527 1256.97 634.291 1274.36 634.291 1274.36 609.527ZM1245.1 604.894 1245.1 614.818C1245.1 614.818 1245.1 614.818 1245.1 614.818 1245.1 615.445 1244.6 615.953 1243.98 615.953L1231.76 615.953C1231.76 615.953 1231.76 615.953 1231.76 615.953 1231.74 615.953 1231.71 615.953 1231.7 615.953 1231.68 615.953 1231.67 615.953 1231.64 615.953 1231.62 615.953 1231.59 615.953 1231.58 615.939 1231.56 615.939 1231.55 615.939 1231.52 615.924 1231.5 615.924 1231.49 615.909 1231.46 615.909 1231.45 615.909 1231.43 615.894 1231.4 615.894 1231.39 615.894 1231.37 615.879 1231.34 615.879 1231.33 615.879 1231.31 615.864 1231.3 615.864 1231.28 615.849 1231.27 615.849 1231.25 615.834 1231.24 615.819 1231.22 615.819 1231.21 615.804 1231.19 615.789 1231.18 615.789 1231.16 615.774 1231.15 615.759 1231.13 615.759 1231.12 615.744 1231.1 615.729 1231.09 615.714 1231.08 615.714 1231.06 615.699 1231.05 615.699 1231.03 615.684 1231.02 615.669 1231 615.655 1230.99 615.64 1230.97 615.625 1230.96 615.61 1230.94 615.61 1230.93 615.61 1230.91 615.58 1230.91 615.565 1230.9 615.55 1230.88 615.535 1230.87 615.52 1230.85 615.505 1230.85 615.49 1230.84 615.475 1230.82 615.46 1230.81 615.445 1230.81 615.43 1230.79 615.415 1230.79 615.401 1230.78 615.386 1230.76 615.371 1230.76 615.356 1230.75 615.341 1230.73 615.326 1230.73 615.311 1230.72 615.296 1230.71 615.281 1230.71 615.266 1230.69 615.251 1230.69 615.236 1230.68 615.221 1230.68 615.191 1230.68 615.176 1230.66 615.161 1230.66 615.146 1230.66 615.131 1230.65 615.102 1230.65 615.087 1230.65 615.072 1230.63 615.057 1230.63 615.027 1230.63 615.012 1230.63 614.982 1230.62 614.967 1230.62 614.952 1230.62 614.937 1230.6 614.907 1230.6 614.892 1230.6 614.862 1230.6 614.847 1230.6 614.833 1230.6 614.803 1230.6 614.788 1230.6 614.788 1230.6 614.788 1230.6 614.788L1230.6 614.788 1230.6 604.864C1230.6 604.864 1230.6 604.864 1230.6 604.864 1230.6 604.849 1230.6 604.819 1230.6 604.805 1230.6 604.789 1230.6 604.775 1230.6 604.745 1230.6 604.73 1230.6 604.715 1230.62 604.685 1230.62 604.67 1230.62 604.64 1230.63 604.625 1230.63 604.61 1230.65 604.595 1230.65 604.58 1230.65 604.565 1230.66 604.535 1230.66 604.521 1230.66 604.506 1230.68 604.491 1230.68 604.461 1230.68 604.446 1230.69 604.431 1230.69 604.416 1230.69 604.401 1230.71 604.386 1230.72 604.371 1230.73 604.356 1230.73 604.341 1230.75 604.326 1230.76 604.311 1230.76 604.296 1230.78 604.281 1230.79 604.266 1230.79 604.251 1230.81 604.237 1230.82 604.222 1230.84 604.207 1230.84 604.192 1230.85 604.177 1230.85 604.162 1230.87 604.147 1230.88 604.132 1230.9 604.117 1230.91 604.102 1230.93 604.087 1230.94 604.072 1230.94 604.057 1230.96 604.042 1230.97 604.027 1230.99 604.027 1231 604.012 1231.02 603.997 1231.03 603.997 1231.05 603.983 1231.06 603.983 1231.08 603.968 1231.09 603.953 1231.1 603.953 1231.12 603.938 1231.13 603.923 1231.15 603.923 1231.16 603.908 1231.18 603.893 1231.19 603.893 1231.21 603.878 1231.22 603.863 1231.24 603.863 1231.25 603.848 1231.27 603.833 1231.28 603.833 1231.3 603.818 1231.31 603.803 1231.33 603.803 1231.36 603.803 1231.37 603.803 1231.39 603.788 1231.4 603.788 1231.42 603.788 1231.43 603.773 1231.46 603.773 1231.48 603.773 1231.49 603.758 1231.52 603.758 1231.53 603.758 1231.55 603.758 1231.58 603.743 1231.59 603.743 1231.62 603.743 1231.64 603.728 1231.65 603.728 1231.68 603.728 1231.7 603.728 1231.71 603.728 1231.73 603.728 1231.76 603.728 1231.76 603.728 1231.76 603.728 1231.76 603.728L1243.98 603.728C1244.6 603.758 1245.1 604.266 1245.1 604.894ZM1242.84 606.03 1232.87 606.03 1232.87 613.682 1242.84 613.682 1242.84 606.03Z" fill="#2CB5E8" fill-rule="evenodd"/></g></svg>