<svg width="88" height="74" xmlns="http://www.w3.org/2000/svg" xmlns:xlink="http://www.w3.org/1999/xlink" xml:space="preserve" overflow="hidden"><defs><clipPath id="clip0"><rect x="984" y="1347" width="88" height="74"/></clipPath></defs><g clip-path="url(#clip0)" transform="translate(-984 -1347)"><path d="M996.683 1360.54C997.803 1360.54 998.706 1359.64 998.706 1358.51 998.706 1357.39 997.803 1356.48 996.683 1356.48 995.562 1356.48 994.659 1357.39 994.659 1358.51 994.659 1358.51 994.659 1358.51 994.659 1358.51 994.659 1359.64 995.562 1360.54 996.683 1360.54 996.683 1360.54 996.683 1360.54 996.683 1360.54ZM1004.76 1360.54C1005.88 1360.54 1006.78 1359.64 1006.76 1358.51 1006.76 1357.39 1005.86 1356.48 1004.74 1356.5 1003.62 1356.5 1002.72 1357.41 1002.73 1358.53 1002.73 1359.64 1003.64 1360.54 1004.76 1360.54 1004.76 1360.54 1004.76 1360.54 1004.76 1360.54ZM1012.82 1360.54C1013.94 1360.54 1014.84 1359.64 1014.84 1358.51 1014.84 1357.39 1013.94 1356.48 1012.82 1356.48 1011.7 1356.48 1010.79 1357.39 1010.79 1358.51 1010.79 1358.51 1010.79 1358.51 1010.79 1358.51 1010.81 1359.64 1011.7 1360.54 1012.82 1360.54 1012.82 1360.54 1012.82 1360.54 1012.82 1360.54ZM1068.55 1347 987.451 1347C985.554 1347 984 1348.54 984 1350.46L984 1350.46 984 1417.54C984 1419.44 985.536 1421 987.451 1421L1068.55 1421C1070.45 1421 1072 1419.46 1072 1417.54L1072 1350.46C1072 1348.56 1070.46 1347 1068.55 1347L1068.55 1347ZM1065.12 1353.93 1065.12 1363.3 990.901 1363.3 990.901 1353.93 1065.12 1353.93ZM990.901 1414.08 990.901 1367.7 1065.12 1367.7 1065.12 1414.08 990.901 1414.08ZM1050.72 1389.28 1038.33 1382.37C1037.33 1381.81 1036.07 1382.17 1035.51 1383.17 1034.95 1384.16 1035.31 1385.43 1036.3 1385.99L1036.3 1385.99 1045.52 1391.12 1036.27 1396.51C1035.27 1397.09 1034.95 1398.36 1035.52 1399.34 1035.89 1399.97 1036.57 1400.37 1037.31 1400.37 1037.67 1400.37 1038.04 1400.28 1038.34 1400.1L1050.74 1392.88C1051.73 1392.3 1052.06 1391.05 1051.5 1390.06 1051.33 1389.73 1051.06 1389.46 1050.72 1389.28ZM1019.1 1396.49 1009.89 1391.36 1019.14 1385.98C1020.13 1385.4 1020.46 1384.13 1019.88 1383.15 1019.3 1382.17 1018.04 1381.82 1017.06 1382.4L1017.06 1382.4 1004.67 1389.62C1003.67 1390.2 1003.35 1391.47 1003.91 1392.45 1004.09 1392.77 1004.36 1393.05 1004.69 1393.23L1017.08 1400.13C1018.07 1400.7 1019.34 1400.33 1019.9 1399.34 1020.46 1398.34 1020.11 1397.03 1019.1 1396.49L1019.1 1396.49ZM1030.61 1378.69C1029.51 1378.43 1028.39 1379.11 1028.14 1380.23 1028.14 1380.23 1028.14 1380.23 1028.14 1380.25L1023.26 1401.31C1023 1402.44 1023.69 1403.54 1024.81 1403.8 1024.81 1403.8 1024.81 1403.8 1024.81 1403.8L1025.28 1403.85C1026.24 1403.85 1027.07 1403.18 1027.29 1402.26L1032.16 1381.19C1032.44 1380.07 1031.73 1378.94 1030.61 1378.69 1030.63 1378.69 1030.63 1378.69 1030.61 1378.69Z" fill="#28B5E8" fill-rule="evenodd"/></g></svg>