<svg width="69" height="70" xmlns="http://www.w3.org/2000/svg" xmlns:xlink="http://www.w3.org/1999/xlink" xml:space="preserve" overflow="hidden"><defs><clipPath id="clip0"><rect x="2683" y="1349" width="69" height="70"/></clipPath></defs><g clip-path="url(#clip0)" transform="translate(-2683 -1349)"><path d="M2717.5 1349C2698.48 1349 2683 1364.7 2683 1384 2683 1391.6 2685.46 1398.99 2689.99 1405.04L2689.99 1405.27C2689.93 1405.47 2690.47 1406.01 2691.26 1406.66 2697.59 1414.2 2707 1419 2717.5 1419 2736.52 1419 2752 1403.3 2752 1384 2752 1364.7 2736.52 1349 2717.5 1349ZM2725.96 1355.49C2733.7 1357.88 2740.13 1363.4 2743.75 1370.74 2741.13 1369.81 2737.93 1369.23 2734.08 1368.96L2725.95 1360.18C2726.05 1359.02 2726.02 1357.21 2725.96 1355.49ZM2717.5 1354.22C2719.29 1354.22 2721.08 1354.4 2722.84 1354.74 2722.92 1356.57 2722.96 1358.42 2722.91 1359.53L2712.32 1364.16C2708.21 1361.99 2703.4 1361.29 2698.82 1361.04 2704.07 1356.62 2710.68 1354.21 2717.5 1354.22ZM2690 1394.34C2688.78 1391.03 2688.15 1387.53 2688.14 1384 2688.14 1383.63 2688.18 1383.28 2688.2 1382.92 2688.83 1385.42 2689.66 1387.88 2690.68 1390.25L2690.81 1390.53ZM2689.91 1373.92C2690.32 1372.76 2690.8 1371.62 2691.35 1370.52L2697.19 1364.09C2702.14 1364.29 2707.49 1364.85 2711.63 1367.33L2712.44 1378.05 2700.43 1390.24C2698.29 1389.61 2695.18 1388.72 2693.2 1388.24 2691.29 1383.53 2690.16 1378.57 2689.91 1373.92ZM2717.5 1413.78C2711.37 1413.78 2705.39 1411.82 2700.43 1408.18L2705.23 1405.59C2709.65 1407.58 2718.6 1409.26 2723.05 1409.33L2725.84 1412.54C2723.13 1413.36 2720.32 1413.78 2717.5 1413.78ZM2724.19 1406.16 2724.05 1406.18C2720.66 1406.45 2711.37 1404.73 2707.05 1402.99L2703.11 1391.93 2714.91 1379.96 2725.96 1381.7C2729.24 1386.46 2732.19 1393.39 2732.27 1397.78ZM2735.37 1396.99C2735.02 1392.03 2732.18 1385.66 2729.3 1381.1L2734.08 1372.1C2739.14 1372.46 2742.86 1373.39 2745.47 1374.97 2747.89 1382.65 2747.12 1391 2743.35 1398.1Z" fill="#28B5E8" fill-rule="evenodd"/></g></svg>