<svg width="85" height="100" xmlns="http://www.w3.org/2000/svg" xmlns:xlink="http://www.w3.org/1999/xlink" xml:space="preserve" overflow="hidden"><defs><clipPath id="clip0"><rect x="275" y="774" width="85" height="100"/></clipPath></defs><g clip-path="url(#clip0)" transform="translate(-275 -774)"><path d="M304.165 819.492 298.402 819.492 298.402 811.494C298.402 804.438 303.5 799.514 310.791 799.514 311.563 799.514 312.319 799.843 312.863 800.423L317.447 805.284 321.622 800.502C322.167 799.874 322.938 799.514 323.755 799.514 331.198 799.514 336.613 804.547 336.613 811.494L336.613 819.492 330.85 819.492 330.85 811.494C330.85 807.605 327.9 805.927 324.965 805.567L319.64 811.651C319.111 812.263 318.355 812.623 317.553 812.623 316.766 812.623 315.995 812.31 315.435 811.729L309.626 805.567C307.539 805.818 304.15 806.947 304.15 811.494L304.165 819.492ZM360 825.529 360 833.135C360 834.217 359.44 835.22 358.517 835.738L343.299 844.551 343.299 871.005C343.299 871.005 343.299 871.005 343.299 871.005 343.299 872.652 342.014 874 340.41 874 338.822 874 337.521 872.667 337.521 871.005L337.521 834.938C337.521 834.938 337.521 834.938 337.521 834.938 337.521 833.291 338.807 831.943 340.41 831.943 341.999 831.943 343.299 833.276 343.299 834.938L343.299 837.698 354.236 831.363 354.236 828.493 280.779 828.493 280.779 831.363 291.7 837.682 291.7 834.938C291.731 833.338 292.971 832.052 294.514 832.021 296.103 831.99 297.434 833.291 297.464 834.938L297.464 871.005C297.434 872.604 296.193 873.89 294.65 873.922 293.062 873.953 291.731 872.652 291.7 871.005L291.7 844.551 276.482 835.738C275.575 835.204 275 834.217 275 833.135L275 825.529C275 825.529 275 825.529 275 825.529 275 823.883 276.286 822.534 277.889 822.534L343.617 822.534 343.617 801.348 336.991 796.832C336.507 797.083 335.963 797.209 335.418 797.209 333.376 797.209 331.727 795.499 331.727 793.382 331.727 791.265 333.376 789.556 335.418 789.556 337.46 789.556 339.109 791.265 339.109 793.382L339.079 793.68 346.461 798.714C346.975 799.075 347.293 799.67 347.293 800.313L347.293 822.534 357.08 822.534C358.699 822.534 360 823.867 360 825.529ZM338.171 795.938C337.99 796.142 337.793 796.33 337.581 796.487 337.793 796.33 337.99 796.142 338.171 795.938ZM337.354 796.628C337.264 796.691 337.173 796.738 337.082 796.785 337.173 796.738 337.264 796.691 337.354 796.628ZM338.701 795.123C338.625 795.264 338.55 795.405 338.459 795.546 338.55 795.421 338.64 795.264 338.701 795.123ZM347.323 825.357 343.632 825.357 343.632 825.357 347.323 825.357 347.323 825.357ZM329.655 833.762C329.655 833.762 329.655 833.762 329.655 833.762L305.345 833.762C304.332 833.762 303.5 834.624 303.5 835.675L303.5 864.042C303.5 865.093 304.332 865.956 305.345 865.956 306.359 865.956 307.191 865.093 307.191 864.042 307.191 864.042 307.191 864.042 307.191 864.042L307.191 837.588 327.809 837.588 327.809 864.042C327.779 865.093 328.581 865.987 329.594 866.003 330.608 866.034 331.47 865.203 331.485 864.152 331.485 864.121 331.485 864.074 331.485 864.042L331.485 835.675C331.5 834.624 330.683 833.762 329.655 833.762ZM307.16 787.753 307.16 784.836C307.16 778.861 311.805 774 317.508 774 323.211 774 327.855 778.861 327.855 784.836L327.855 787.753C327.855 793.743 323.211 798.604 317.508 798.604 311.789 798.589 307.16 793.727 307.16 787.753ZM312.924 787.753C312.924 790.434 314.981 792.614 317.508 792.614 320.034 792.614 322.091 790.434 322.091 787.753L322.091 784.836C322.091 782.154 320.034 779.975 317.508 779.975 314.981 779.975 312.924 782.154 312.924 784.836L312.924 787.753Z" fill="#28B5E8" fill-rule="evenodd"/></g></svg>