<svg width="93" height="89" xmlns="http://www.w3.org/2000/svg" xmlns:xlink="http://www.w3.org/1999/xlink" xml:space="preserve" overflow="hidden"><g transform="translate(-2670 -779)"><path d="M2689.49 785.589C2688.88 788.685 2688.23 791.344 2687.56 794.083 2686.67 797.745 2685.73 801.555 2684.87 806.517 2684.43 809.037 2682.2 811.081 2679.92 811.081 2678.9 811.081 2678.02 810.704 2677.49 810.039 2677.03 809.464 2676.89 808.729 2677.12 807.906 2678.32 803.143 2679.58 799.65 2680.92 795.919 2682.05 792.803 2683.19 789.558 2684.29 785.589ZM2700.54 785.579C2700.28 788.854 2700.03 791.622 2699.75 794.49 2699.39 798.132 2699.05 801.922 2698.76 806.874 2698.61 809.186 2696.71 811.081 2694.52 811.081 2693.53 811.081 2692.62 810.704 2692.04 810.019 2691.66 809.583 2691.26 808.799 2691.45 807.638 2692.3 802.875 2693.19 799.193 2694.05 795.611 2694.79 792.565 2695.56 789.399 2696.28 785.579ZM2713.05 785.589 2713.15 807.072 2713.15 807.37C2713.06 808.303 2712.66 809.186 2711.98 809.89 2711.19 810.655 2710.18 811.081 2709.1 811.081 2708.04 811.081 2707.06 810.684 2706.35 809.92 2705.67 809.216 2705.32 808.273 2705.38 807.271 2705.68 802.438 2706.04 798.707 2706.36 795.115 2706.65 792.208 2706.93 789.191 2707.18 785.589ZM2725.71 785.579C2725.95 789.131 2726.25 792.108 2726.53 795.006 2726.89 798.638 2727.23 802.379 2727.55 807.251 2727.6 808.273 2727.27 809.216 2726.59 809.92 2725.88 810.684 2724.9 811.081 2723.84 811.081 2721.73 811.081 2719.94 809.394 2719.77 807.34L2719.77 807.043 2719.7 785.579ZM2736.97 785.579C2737.64 789.28 2738.34 792.366 2739.05 795.373 2739.88 798.985 2740.76 802.726 2741.58 807.559 2741.77 808.769 2741.35 809.553 2740.95 810.019 2740.39 810.704 2739.47 811.081 2738.49 811.081 2736.3 811.081 2734.39 809.186 2734.24 806.824 2733.93 801.833 2733.56 798.042 2733.2 794.361 2732.93 791.632 2732.67 788.854 2732.41 785.579ZM2749.15 785.579C2750.14 789.35 2751.2 792.515 2752.23 795.552 2753.52 799.352 2754.74 802.924 2755.9 807.767 2756.12 808.65 2755.97 809.424 2755.48 810.039 2754.95 810.704 2754.07 811.081 2753.04 811.081 2750.75 811.081 2748.56 809.017 2748.12 806.487 2747.29 801.436 2746.37 797.606 2745.53 793.885 2744.89 791.195 2744.29 788.586 2743.7 785.579ZM2713.74 826.531 2713.74 846.675 2692.74 846.675 2692.74 826.531ZM2690.75 822.562C2689.65 822.562 2688.76 823.445 2688.76 824.537L2688.76 848.63C2688.76 849.702 2689.65 850.595 2690.75 850.595L2715.72 850.595C2716.82 850.595 2717.71 849.702 2717.71 848.63L2717.71 824.537C2717.71 823.445 2716.82 822.562 2715.72 822.562ZM2745.54 814.713C2746.4 815.477 2747.38 816.082 2748.41 816.549L2748.41 861.391 2744 861.391 2744 824.527C2744 823.445 2743.11 822.562 2742.01 822.562L2723.8 822.562C2722.7 822.562 2721.81 823.445 2721.81 824.527L2721.81 861.401 2685.14 861.401 2685.14 816.291C2685.94 815.844 2686.73 815.348 2687.41 814.743 2689.22 816.608 2691.78 817.69 2694.49 817.69 2697.32 817.69 2699.9 816.579 2701.84 814.753 2703.77 816.608 2706.39 817.69 2709.1 817.69 2711.84 817.69 2714.46 816.628 2716.45 814.743 2718.36 816.549 2720.96 817.69 2723.81 817.69 2726.54 817.69 2729.18 816.608 2731.08 814.713 2733.04 816.549 2735.61 817.66 2738.46 817.66 2741.17 817.66 2743.73 816.598 2745.54 814.713ZM2740 826.531 2740 861.401 2725.77 861.401 2725.77 826.531ZM2681.83 779.01C2680.23 779.01 2678.97 780.141 2678.66 781.63L2678.53 781.63C2677.32 786.422 2676.06 789.955 2674.69 793.696 2673.36 797.397 2671.99 801.208 2670.72 806.278 2670 809.047 2670.57 811.915 2672.27 814.088 2673.77 816.023 2676.02 817.204 2678.53 817.521L2678.53 864.706C2678.53 866.521 2680.01 867.99 2681.84 867.99L2751.75 867.99C2753.59 867.99 2755.08 866.521 2755.08 864.706L2755.08 817.462C2757.32 817.025 2759.31 815.874 2760.69 814.108 2762.4 811.945 2762.99 809.047 2762.33 806.239 2761.11 801.128 2759.79 797.219 2758.51 793.458 2757.26 789.776 2756.07 786.254 2754.96 781.63L2754.9 781.63C2754.59 780.141 2753.33 779.01 2751.74 779.01Z" fill="#2AB5E8" fill-rule="evenodd"/></g></svg>