<svg width="56" height="79" xmlns="http://www.w3.org/2000/svg" xmlns:xlink="http://www.w3.org/1999/xlink" xml:space="preserve" overflow="hidden"><defs><clipPath id="clip0"><rect x="2455" y="1344" width="56" height="79"/></clipPath></defs><g clip-path="url(#clip0)" transform="translate(-2455 -1344)"><path d="M2494.56 1349.52C2495.18 1348.83 2496.26 1348.77 2496.98 1349.39 2497.13 1349.52 2497.28 1349.67 2497.45 1349.8 2505.86 1357.68 2506.2 1370.82 2498.24 1379.12 2497.59 1379.8 2496.5 1379.83 2495.81 1379.18 2495.12 1378.55 2495.09 1377.46 2495.75 1376.78 2498.85 1373.57 2500.57 1369.29 2500.56 1364.85 2500.56 1359.9 2498.42 1355.19 2494.71 1351.91 2493.99 1351.3 2493.93 1350.22 2494.56 1349.52ZM2489.74 1356.79C2492.18 1358.78 2493.58 1361.74 2493.58 1364.86 2493.58 1367.47 2492.61 1369.97 2490.83 1371.9 2490.19 1372.58 2490.23 1373.66 2490.92 1374.3 2491.61 1374.93 2492.7 1374.89 2493.34 1374.21 2493.36 1374.19 2493.36 1374.19 2493.36 1374.18 2498.57 1368.52 2498.15 1359.77 2492.43 1354.62 2492.27 1354.47 2492.09 1354.32 2491.91 1354.17 2491.16 1353.6 2490.08 1353.73 2489.5 1354.47 2488.96 1355.18 2489.05 1356.2 2489.74 1356.79ZM2507.58 1364.86C2507.59 1371.19 2505.09 1377.27 2500.63 1381.8 2499.99 1382.5 2500.05 1383.56 2500.74 1384.2 2501.41 1384.81 2502.44 1384.79 2503.09 1384.17 2513.87 1373.2 2513.6 1355.67 2502.5 1345.02 2502.29 1344.83 2502.1 1344.64 2501.89 1344.44 2501.19 1343.81 2500.11 1343.87 2499.47 1344.55 2498.82 1345.24 2498.88 1346.31 2499.57 1346.95 2504.67 1351.54 2507.58 1358.04 2507.58 1364.86ZM2472.46 1373.97C2472.49 1374 2472.52 1374.04 2472.55 1374.07L2472.55 1374.07C2473.18 1374.77 2474.26 1374.83 2474.98 1374.21 2475.68 1373.58 2475.74 1372.52 2475.11 1371.81 2471.24 1367.48 2471.62 1360.88 2476 1357.05 2476.03 1357.02 2476.06 1357 2476.07 1356.97 2476.82 1356.39 2476.94 1355.33 2476.35 1354.59 2475.77 1353.85 2474.69 1353.73 2473.94 1354.31 2473.9 1354.34 2473.85 1354.38 2473.81 1354.41 2467.99 1359.46 2467.39 1368.2 2472.46 1373.97ZM2467.48 1378.8C2467.54 1378.87 2467.6 1378.93 2467.66 1379L2467.66 1379C2468.3 1379.69 2469.38 1379.73 2470.08 1379.09 2470.79 1378.46 2470.82 1377.39 2470.17 1376.69 2463.57 1369.68 2463.98 1358.69 2471.07 1352.16 2471.13 1352.11 2471.18 1352.06 2471.24 1352.01 2471.94 1351.39 2472 1350.31 2471.35 1349.61 2470.73 1348.92 2469.63 1348.86 2468.93 1349.49 2460.35 1357.18 2459.71 1370.3 2467.48 1378.8ZM2462.82 1384.05C2463.15 1384.38 2463.59 1384.57 2464.07 1384.57 2465.01 1384.57 2465.77 1383.82 2465.77 1382.88 2465.77 1382.44 2465.61 1382.03 2465.29 1381.71 2455.89 1372.03 2456.21 1356.65 2465.98 1347.35 2466.1 1347.24 2466.22 1347.12 2466.34 1347.02 2467.03 1346.38 2467.07 1345.32 2466.43 1344.62 2465.79 1343.94 2464.71 1343.9 2464.01 1344.53 2452.64 1354.9 2451.94 1372.43 2462.42 1383.65 2462.57 1383.79 2462.69 1383.92 2462.82 1384.05ZM2507.47 1418.97C2507.74 1419.74 2507.73 1420.58 2507.43 1421.34 2506.77 1422.76 2505.09 1423.38 2503.66 1422.74L2482.93 1413.45 2462.37 1422.74C2461.63 1423.09 2460.76 1423.09 2459.99 1422.74 2458.54 1422.09 2457.88 1420.41 2458.54 1418.97L2478.73 1369.05C2476.41 1366.73 2476.41 1363 2478.73 1360.67 2481.07 1358.33 2484.89 1358.32 2487.24 1360.64 2489.6 1362.95 2489.62 1366.73 2487.27 1369.05L2507.47 1418.97 2507.47 1418.97ZM2490.62 1392.49 2488.25 1393.99 2488.25 1393.99 2492.27 1396.57 2492.27 1396.57 2492.27 1396.57 2490.62 1392.49ZM2477.57 1387.13 2482.99 1390.61 2488.45 1387.16 2483 1373.69 2477.64 1386.93 2477.57 1387.13ZM2473.81 1396.42 2473.81 1396.42 2473.81 1396.42 2477.7 1393.96 2477.7 1393.96 2477.7 1393.96 2475.4 1392.48 2473.81 1396.42ZM2476.04 1410.35 2476.04 1410.35 2469.39 1407.36 2466.43 1414.7 2476.04 1410.35 2476.04 1410.35ZM2492 1403.13 2482.97 1397.32 2473.79 1403.13 2482.93 1407.23 2492 1403.13ZM2499.62 1414.73 2496.59 1407.26 2489.81 1410.32 2499.62 1414.73 2499.62 1414.73 2499.62 1414.73Z" fill="#28B5E8" fill-rule="evenodd"/></g></svg>