<svg width="84" height="83" xmlns="http://www.w3.org/2000/svg" xmlns:xlink="http://www.w3.org/1999/xlink" xml:space="preserve" overflow="hidden"><defs><clipPath id="clip0"><rect x="524" y="782" width="84" height="83"/></clipPath></defs><g clip-path="url(#clip0)" transform="translate(-524 -782)"><path d="M542.961 823.435C542.961 823.435 542.961 823.435 542.961 823.435L589.055 823.435C589.756 823.435 590.323 822.887 590.323 822.209 590.323 822.209 590.323 822.209 590.323 822.209L590.323 793.23C590.323 792.553 589.756 792.004 589.055 792.004 589.055 792.004 589.055 792.004 589.055 792.004L542.961 792.004C542.261 792.004 541.694 792.553 541.694 793.23 541.694 793.23 541.694 793.23 541.694 793.23L541.694 822.193C541.694 822.871 542.261 823.435 542.961 823.435ZM544.229 794.473 587.771 794.473 587.771 820.967 544.229 820.967 544.229 794.473ZM605.966 795.118 601.363 795.118 601.363 788.47C601.363 784.904 598.361 782 594.675 782L537.341 782C533.656 782 530.654 784.904 530.654 788.47L530.654 795.118 526.034 795.118C524.917 795.118 524 795.989 524 797.087L524 814.674C524 815.755 524.917 816.643 526.034 816.643L530.654 816.643 530.654 849.139C530.671 852.592 533.005 855.641 536.407 856.658L536.407 861.289C536.407 863.338 538.125 865 540.243 865L545.83 865C547.948 865 549.665 863.338 549.665 861.289L549.665 857.061 582.368 857.061 582.368 861.289C582.368 863.338 584.086 865 586.204 865L591.79 865C593.908 865 595.626 863.338 595.626 861.289L595.626 856.658C599.045 855.641 601.379 852.592 601.379 849.139L601.379 816.643 605.982 816.643C607.1 816.643 608 815.755 608 814.674L608 797.087C608 796.005 607.1 795.118 605.966 795.118ZM530.654 812.706 528.069 812.706 528.069 799.071 530.654 799.071 530.654 812.706ZM540.476 861.047 540.476 857.045 545.579 857.045 545.579 861.047 540.476 861.047ZM586.437 861.047 586.437 857.045 591.54 857.045 591.54 861.047 586.437 861.047ZM593.191 850.898 538.825 850.898C537.825 850.898 537.008 850.107 537.008 849.139L537.008 788.47 537.341 788.148 594.675 788.148 595.009 788.47 595.009 849.139 595.009 849.139C595.009 850.107 594.192 850.898 593.191 850.898ZM601.363 812.706 601.363 799.071 603.948 799.071 603.948 812.706 601.363 812.706ZM553.451 836.44 544.712 836.44C541.977 836.44 539.759 838.586 539.759 841.233 539.759 843.879 541.977 846.025 544.712 846.025L553.434 846.025C554.135 846.025 554.702 845.476 554.702 844.799L554.702 837.683C554.702 836.989 554.151 836.44 553.451 836.44ZM544.712 843.556C543.378 843.556 542.311 842.507 542.311 841.233 542.311 839.942 543.395 838.909 544.712 838.909L552.167 838.909 552.167 843.556 544.712 843.556ZM587.288 836.44 578.566 836.44C577.865 836.44 577.298 836.989 577.298 837.667L577.298 844.782C577.298 845.46 577.865 846.009 578.566 846.009L587.288 846.009C590.023 846.009 592.241 843.863 592.241 841.216 592.241 838.586 590.023 836.44 587.288 836.44ZM587.288 843.556 579.833 843.556 579.833 838.909 587.288 838.909C588.622 838.909 589.689 839.958 589.689 841.233 589.689 842.507 588.622 843.556 587.288 843.556Z" fill="#28B5E8" fill-rule="evenodd"/></g></svg>