<svg width="219" height="164" xmlns="http://www.w3.org/2000/svg" xmlns:xlink="http://www.w3.org/1999/xlink" xml:space="preserve" overflow="hidden"><defs><clipPath id="clip0"><rect x="679" y="1173" width="219" height="164"/></clipPath></defs><g clip-path="url(#clip0)" transform="translate(-679 -1173)"><path d="M788.935 1205 786.974 1205.13 783.314 1206.7 780.7 1209.44 779.132 1212.97 779.001 1215.07 779.132 1217.03 780.7 1220.69 783.314 1223.3 786.974 1224.87 788.935 1225 791.026 1224.87 794.555 1223.3 797.3 1220.69 798.869 1217.03 798.999 1215.07 798.869 1212.97 797.3 1209.44 794.555 1206.7 791.026 1205.13 788.935 1205Z" fill="#28B5E8" fill-rule="evenodd"/><path d="M788.934 1232 786.574 1232.13 782.508 1232.88 779.098 1234.13 776.213 1236 772.804 1239.25 769.918 1244 769.131 1246.37 769 1247.25 769.394 1248.87 770.574 1250.25 772.41 1251 805.589 1251 807.426 1250.25 808.606 1248.87 808.999 1247.25 808.868 1246.37 808.081 1244 805.196 1239.25 801.786 1236 798.77 1234.13 795.36 1232.88 791.295 1232.13 788.934 1232Z" fill="#28B5E8" fill-rule="evenodd"/><path d="M784.085 1173 784.085 1184.5 765.978 1184.5 764.038 1184.5 760.546 1185.26 757.312 1186.54 754.467 1188.46 752.009 1190.88 750.07 1193.69 748.776 1196.89 748 1200.46 748 1202.25 748 1254.24 748 1256.03 748.776 1259.48 750.07 1262.67 752.009 1265.48 754.467 1267.91 757.312 1269.83 760.546 1271.23 764.038 1272 765.978 1272 812.022 1272 813.832 1272 817.324 1271.23 820.558 1269.83 823.404 1267.91 825.86 1265.48 827.801 1262.67 829.224 1259.48 829.87 1256.03 829.999 1254.24 829.999 1202.25 829.87 1200.46 829.224 1196.89 827.801 1193.69 825.86 1190.88 823.404 1188.46 820.558 1186.54 817.324 1185.26 813.832 1184.5 812.022 1184.5 793.785 1184.5 793.785 1173ZM757.7 1202.25 757.7 1200.59 758.994 1197.65 761.322 1195.35 764.297 1194.21 765.978 1194.08 812.022 1194.08 813.703 1194.21 816.678 1195.35 818.877 1197.65 820.17 1200.59 820.299 1202.25 820.299 1254.24 820.17 1255.9 818.877 1258.84 816.678 1261.01 813.703 1262.29 812.022 1262.42 765.978 1262.42 764.297 1262.29 761.322 1261.01 758.994 1258.84 757.7 1255.9 757.7 1254.24Z" fill="#28B5E8" fill-rule="evenodd"/><path d="M698.843 1285 695.772 1285.13 690.483 1286.79 686.389 1289.86 684.171 1293.96 684 1296.26 684 1321.86 684.171 1324.04 686.389 1328.14 690.483 1331.21 695.772 1332.87 698.843 1333 877.985 1333 881.056 1332.87 886.345 1331.21 890.44 1328.14 892.658 1324.04 892.999 1321.86 892.999 1296.26 892.658 1293.96 890.44 1289.86 886.345 1286.79 881.056 1285.13 877.985 1285Z" fill="#11567F" fill-rule="evenodd"/><text fill="#FFFFFF" font-family="Arial,Arial_MSFontService,sans-serif" font-weight="700" font-size="23" transform="matrix(1 0 0 1 693.708 1317)">ACCOUNTADMIN</text></g></svg>