<svg width="177" height="158" xmlns="http://www.w3.org/2000/svg" xmlns:xlink="http://www.w3.org/1999/xlink" xml:space="preserve" overflow="hidden"><g transform="translate(-616 -636)"><path d="M700.258 636.001 697.161 636.642 692.645 638.566 688 642.799 685.678 647.032 684.775 650.111 684.516 651.778 682.839 668.326 682.71 668.967 681.807 669.736 681.162 669.865 669.678 669.865 668.775 670.763 668.646 671.404 668.646 676.663 668.775 677.305 669.678 678.202 670.323 678.331 680.775 678.331 681.678 679.357 681.678 679.998 678.452 712.452 678.065 714.119 676.646 717.07 674.194 719.25 671.098 720.405 669.42 720.533 668.904 720.533 667.355 720.405 664.517 719.379 662.323 717.583 660.904 715.145 660.517 713.735 660.259 713.093 659.356 712.196 658.71 712.067 653.549 712.067 652.775 712.196 652.001 713.093 652.001 713.735 652.388 716.813 655.226 722.329 659.742 726.434 665.549 728.742 668.904 728.999 671.098 728.999 674.323 728.358 678.71 726.434 683.355 722.201 685.678 718.096 686.581 714.889 686.839 713.222 690.194 679.742 690.323 679.101 691.226 678.331 707.871 678.331 710.452 678.459 715.355 680.64 717.29 682.436 726.58 692.826 726.968 693.339 726.968 694.494 726.58 695.007 709.29 712.196 708.903 712.709 708.903 713.991 709.29 714.505 713.032 718.224 713.548 718.609 714.709 718.609 715.225 718.224 732.129 701.421 732.645 701.035 733.935 701.035 734.451 701.421 749.29 717.967 749.806 718.353 751.096 718.481 751.612 718.096 755.483 714.505 755.87 714.119 755.999 712.836 755.612 712.323 740.386 695.391 739.999 694.878 739.999 693.595 740.386 693.211 755.483 678.202 755.87 677.689 755.87 676.407 755.483 675.893 751.741 672.174 751.225 671.789 749.935 671.789 749.419 672.174 734.838 686.797 734.322 687.182 733.032 687.054 732.516 686.669 723.613 676.792 722.064 675.253 718.452 672.558 714.452 670.763 710.064 669.865 693.032 669.865 692.259 669.736 691.484 668.71 691.355 668.069 692.903 652.676 693.161 650.881 694.71 647.93 697.161 645.75 700.258 644.595 702.064 644.467 702.968 644.467 704.387 644.595 707.097 645.493 709.29 647.417 710.709 649.854 710.968 651.265 711.225 651.907 712.129 652.804 712.774 652.804 718.064 652.933 718.709 652.933 719.484 652.034 719.613 651.394 719.097 648.186 716.387 642.671 712 638.566 707.742 636.642 704.516 636.001Z" fill="#28B5E8" fill-rule="evenodd"/><path d="M635.66 742 632.866 742.128 627.899 743.792 624.173 746.865 622.155 750.961 622 753.265 622 778.864 622.155 781.04 624.173 785.136 627.899 788.208 632.866 789.872 635.66 790 773.34 790 776.134 789.872 780.945 788.208 784.671 785.136 786.689 781.04 786.999 778.864 786.999 753.265 786.689 750.961 784.671 746.865 780.945 743.792 776.134 742.128 773.34 742Z" fill="#11567F" fill-rule="evenodd"/><text fill="#FFFFFF" font-family="Arial,Arial_MSFontService,sans-serif" font-weight="700" font-size="23" transform="matrix(1 0 0 1 630.335 774)">AGGREGATE</text></g></svg>