<svg width="134" height="138" xmlns="http://www.w3.org/2000/svg" xmlns:xlink="http://www.w3.org/1999/xlink" xml:space="preserve" overflow="hidden"><defs><clipPath id="clip0"><rect x="2151" y="1184" width="134" height="138"/></clipPath></defs><g clip-path="url(#clip0)" transform="translate(-2151 -1184)"><path d="M2189.69 1208.13 2189.95 1205.18 2192.14 1199.92 2196.02 1196.07 2201.31 1193.88 2204.28 1193.63 2236.57 1193.63 2236.57 1220.07 2236.7 1222.77 2238.63 1227.39 2242.12 1230.86 2246.77 1232.78 2249.48 1232.91 2275.31 1232.91 2275.31 1297.99 2275.05 1300.82 2272.86 1306.08 2268.86 1309.93 2263.69 1312.12 2260.72 1312.37 2204.28 1312.37 2201.31 1312.12 2196.02 1309.93 2192.14 1306.08 2189.95 1300.82 2189.69 1297.99ZM2272.86 1223.28 2272.08 1222.13 2271.05 1221.1 2248.45 1197.99 2247.42 1196.97 2246.25 1196.07 2246.25 1220.07 2246.38 1221.36 2248.06 1223.15 2249.48 1223.28ZM2204.28 1184 2201.7 1184.13 2197.05 1185.03 2192.66 1186.82 2188.78 1189.52 2185.55 1192.73 2182.84 1196.58 2181.03 1200.94 2180.13 1205.57 2180 1208.13 2180 1297.99 2180.13 1300.43 2181.03 1305.05 2182.84 1309.42 2185.55 1313.27 2188.78 1316.48 2192.66 1319.18 2197.05 1320.97 2201.7 1321.87 2204.28 1322 2260.72 1322 2263.17 1321.87 2267.95 1320.97 2272.34 1319.18 2276.09 1316.48 2279.45 1313.27 2282.03 1309.42 2283.84 1305.05 2284.87 1300.43 2285 1297.99 2285 1231.11 2284.87 1228.8 2283.97 1224.31 2282.16 1219.94 2279.58 1216.09 2278.03 1214.3 2255.29 1191.19 2253.62 1189.52 2249.61 1186.82 2245.22 1185.03 2240.44 1184.13 2237.99 1184Z" fill="#28B5E8" fill-rule="evenodd"/><path d="M2162.34 1250 2160.02 1250.13 2155.9 1251.79 2152.8 1254.86 2151.13 1258.83 2151 1261.14 2151 1286.74 2151.13 1289.04 2152.8 1293.01 2155.9 1296.08 2160.02 1297.74 2162.34 1298 2247.66 1298 2249.98 1297.74 2253.97 1296.08 2257.07 1293.01 2258.74 1289.04 2259 1286.74 2259 1261.14 2258.74 1258.83 2257.07 1254.86 2253.97 1251.79 2249.98 1250.13 2247.66 1250Z" fill="#11567F" fill-rule="evenodd"/><text fill="#FFFFFF" font-family="Arial,Arial_MSFontService,sans-serif" font-weight="700" font-size="23" transform="matrix(1 0 0 1 2168.24 1283)">AUDIO</text></g></svg>