<svg width="133" height="138" xmlns="http://www.w3.org/2000/svg" xmlns:xlink="http://www.w3.org/1999/xlink" xml:space="preserve" overflow="hidden"><defs><clipPath id="clip0"><rect x="1580" y="1184" width="133" height="138"/></clipPath></defs><g clip-path="url(#clip0)" transform="translate(-1580 -1184)"><path d="M1618.59 1208.13 1618.85 1205.18 1621.03 1199.92 1624.86 1196.07 1630.11 1193.88 1633.05 1193.63 1665.03 1193.63 1665.03 1220.07 1665.16 1222.77 1667.08 1227.39 1670.53 1230.86 1675.14 1232.78 1677.82 1232.91 1703.41 1232.91 1703.41 1297.99 1703.15 1300.82 1700.98 1306.08 1697.01 1309.93 1691.89 1312.12 1688.95 1312.37 1633.05 1312.37 1630.11 1312.12 1624.86 1309.93 1621.03 1306.08 1618.85 1300.82 1618.59 1297.99ZM1700.98 1223.28 1700.21 1222.13 1699.18 1221.1 1676.8 1197.99 1675.77 1196.97 1674.62 1196.07 1674.62 1220.07 1674.75 1221.36 1676.41 1223.15 1677.82 1223.28ZM1633.05 1184 1630.49 1184.13 1625.89 1185.03 1621.54 1186.82 1617.7 1189.52 1614.5 1192.73 1611.82 1196.58 1610.02 1200.94 1609.13 1205.57 1609 1208.13 1609 1297.99 1609.13 1300.43 1610.02 1305.05 1611.82 1309.42 1614.5 1313.27 1617.7 1316.48 1621.54 1319.18 1625.89 1320.97 1630.49 1321.87 1633.05 1322 1688.95 1322 1691.38 1321.87 1696.11 1320.97 1700.46 1319.18 1704.17 1316.48 1707.5 1313.27 1710.06 1309.42 1711.85 1305.05 1712.87 1300.43 1713 1297.99 1713 1231.11 1712.87 1228.8 1711.98 1224.31 1710.18 1219.94 1707.63 1216.09 1706.09 1214.3 1683.58 1191.19 1681.91 1189.52 1677.95 1186.82 1673.6 1185.03 1668.87 1184.13 1666.44 1184Z" fill="#28B5E8" fill-rule="evenodd"/><path d="M1591.24 1250 1588.94 1250.13 1584.85 1251.79 1581.79 1254.86 1580.13 1258.83 1580 1261.14 1580 1286.74 1580.13 1289.04 1581.79 1293.01 1584.85 1296.08 1588.94 1297.74 1591.24 1298 1675.76 1298 1678.06 1297.74 1682.02 1296.08 1685.08 1293.01 1686.74 1289.04 1687 1286.74 1687 1261.14 1686.74 1258.83 1685.08 1254.86 1682.02 1251.79 1678.06 1250.13 1675.76 1250Z" fill="#11567F" fill-rule="evenodd"/><text fill="#FFFFFF" font-family="Arial,Arial_MSFontService,sans-serif" font-weight="700" font-size="23" transform="matrix(1 0 0 1 1600.17 1283)">AVRO</text></g></svg>