<svg width="133" height="138" xmlns="http://www.w3.org/2000/svg" xmlns:xlink="http://www.w3.org/1999/xlink" xml:space="preserve" overflow="hidden"><defs><clipPath id="clip0"><rect x="1293" y="1184" width="133" height="138"/></clipPath></defs><g clip-path="url(#clip0)" transform="translate(-1293 -1184)"><path d="M1331.59 1208.13 1331.85 1205.18 1334.03 1199.92 1337.86 1196.07 1343.11 1193.88 1346.05 1193.63 1378.03 1193.63 1378.03 1220.07 1378.16 1222.77 1380.08 1227.39 1383.53 1230.86 1388.14 1232.78 1390.82 1232.91 1416.41 1232.91 1416.41 1297.99 1416.15 1300.82 1413.98 1306.08 1410.01 1309.93 1404.89 1312.12 1401.95 1312.37 1346.05 1312.37 1343.11 1312.12 1337.86 1309.93 1334.03 1306.08 1331.85 1300.82 1331.59 1297.99ZM1413.98 1223.28 1413.21 1222.13 1412.18 1221.1 1389.8 1197.99 1388.77 1196.97 1387.62 1196.07 1387.62 1220.07 1387.75 1221.36 1389.41 1223.15 1390.82 1223.28ZM1346.05 1184 1343.49 1184.13 1338.89 1185.03 1334.54 1186.82 1330.7 1189.52 1327.5 1192.73 1324.82 1196.58 1323.02 1200.94 1322.13 1205.57 1322 1208.13 1322 1297.99 1322.13 1300.43 1323.02 1305.05 1324.82 1309.42 1327.5 1313.27 1330.7 1316.48 1334.54 1319.18 1338.89 1320.97 1343.49 1321.87 1346.05 1322 1401.95 1322 1404.38 1321.87 1409.11 1320.97 1413.46 1319.18 1417.17 1316.48 1420.5 1313.27 1423.06 1309.42 1424.85 1305.05 1425.87 1300.43 1426 1297.99 1426 1231.11 1425.87 1228.8 1424.98 1224.31 1423.18 1219.94 1420.63 1216.09 1419.09 1214.3 1396.58 1191.19 1394.91 1189.52 1390.95 1186.82 1386.6 1185.03 1381.87 1184.13 1379.44 1184Z" fill="#28B5E8" fill-rule="evenodd"/><path d="M1304.29 1250 1301.98 1250.13 1297.87 1251.79 1294.8 1254.86 1293.13 1258.83 1293 1261.14 1293 1286.74 1293.13 1289.04 1294.8 1293.01 1297.87 1296.08 1301.98 1297.74 1304.29 1298 1374.84 1298 1377.02 1297.74 1381.13 1296.08 1384.2 1293.01 1385.87 1289.04 1386 1286.74 1386 1261.14 1385.87 1258.83 1384.2 1254.86 1381.13 1251.79 1377.02 1250.13 1374.84 1250Z" fill="#11567F" fill-rule="evenodd"/><text fill="#FFFFFF" font-family="Arial,Arial_MSFontService,sans-serif" font-weight="700" font-size="23" transform="matrix(1 0 0 1 1315.54 1283)">CSV</text></g></svg>