<svg width="83" height="100" xmlns="http://www.w3.org/2000/svg" xmlns:xlink="http://www.w3.org/1999/xlink" xml:space="preserve" overflow="hidden"><defs><clipPath id="clip0"><rect x="175" y="361" width="83" height="100"/></clipPath></defs><g clip-path="url(#clip0)" transform="translate(-175 -361)"><path d="M190.187 364.895 187.339 365.948 181.96 369 178.691 372.052 176.898 374.368 175.633 377.105 175 380.158 175 381.842 175 436.052 175 437.947 175.633 441.526 176.793 444.789 178.375 447.631 181.539 451.315 186.918 455.105 189.87 456.473 193.035 457.737 199.573 459.421 206.428 460.474 213.178 461 216.448 461 219.717 461 226.466 460.474 233.321 459.421 239.966 457.737 243.024 456.473 246.082 455.105 251.356 451.315 254.52 447.631 256.207 444.789 257.367 441.526 257.895 437.947 258 436.052 258 381.842 257.895 380.158 257.262 377 255.996 374.263 254.308 371.842 251.039 368.789 245.661 365.842 242.707 364.684 239.755 363.737 233.216 362.263 222.986 361.105 216.448 361 209.909 361.105 199.678 362.368 193.14 363.842ZM192.929 372.684 190.503 373.737 186.812 375.842 184.386 378.158 183.331 380.579 183.227 381.842 183.331 383.21 184.492 385.737 186.812 388.053 190.503 390.158 192.929 391.105 195.46 391.947 201.155 393.105 210.331 394.263 216.448 394.369 222.669 394.263 231.845 393.105 237.435 391.947 240.071 391.105 242.497 390.158 246.188 388.053 248.508 385.737 249.563 383.21 249.668 381.842 249.563 380.473 248.508 377.947 246.188 375.632 242.497 373.526 240.071 372.579 237.435 371.737 231.845 370.474 222.669 369.421 216.448 369.316 210.331 369.421 201.155 370.579 195.565 371.842ZM183.227 436.052 183.331 438.263 184.702 442.052 187.234 445.211 190.925 447.737 193.245 448.789 195.671 449.842 201.261 451.315 210.331 452.579 216.448 452.684 222.564 452.579 231.634 451.315 237.224 449.842 239.755 448.789 242.075 447.737 245.766 445.211 248.297 442.052 249.563 438.263 249.668 436.052 249.668 395.632 246.399 397.526 242.707 399 239.755 399.948 233.216 401.421 222.986 402.579 216.448 402.684 209.909 402.579 199.678 401.421 193.245 399.948 190.187 399 186.601 397.526 183.227 395.632Z" fill="#28B5E8" fill-rule="evenodd"/></g></svg>