<svg width="136" height="174" xmlns="http://www.w3.org/2000/svg" xmlns:xlink="http://www.w3.org/1999/xlink" xml:space="preserve" overflow="hidden"><g transform="translate(-435 -623)"><path d="M453.826 631.743 456.002 631.229 458.179 631.1 464.07 631.1 464.71 630.972 465.607 630.072 465.607 629.429 465.607 624.672 465.607 624.029 464.71 623.129 464.07 623.001 458.179 623.001 456.258 623.129 452.545 623.644 450.752 624.286 450.24 624.543 449.727 625.7 449.856 626.343 451.776 630.715 452.033 631.357 453.185 631.743ZM493.908 631.1 494.548 630.972 495.445 630.072 495.573 629.429 495.573 624.672 495.445 624.029 494.548 623.129 493.908 623.001 482.254 623.001 481.486 623.129 480.718 624.029 480.589 624.672 480.589 629.429 480.718 630.072 481.486 630.972 482.254 631.1ZM523.874 631.1 524.514 630.972 525.283 630.072 525.41 629.429 525.41 624.672 525.283 624.029 524.514 623.129 523.874 623.001 512.093 623.001 511.452 623.129 510.556 624.029 510.428 624.672 510.428 629.429 510.556 630.072 511.452 630.972 512.093 631.1ZM541.93 631.1 547.821 631.1 549.998 631.229 552.175 631.743 552.815 631.743 553.968 631.357 554.224 630.715 556.145 626.343 556.273 625.7 555.761 624.543 555.249 624.286 553.456 623.644 549.742 623.129 547.821 623.001 541.93 623.001 541.29 623.129 540.394 624.029 540.394 624.672 540.394 629.429 540.394 630.072 541.29 630.972ZM443.581 642.029 443.708 641.386 443.196 640.229 442.684 639.843 438.202 638.043 437.561 637.914 436.409 638.3 436.153 638.943 435.641 640.743 435.001 644.343 435.001 646.401 435.001 652.058 435.001 652.7 435.897 653.6 436.537 653.729 441.403 653.729 442.043 653.6 442.94 652.7 442.94 652.058 442.94 646.401 443.069 644.086ZM562.42 642.029 562.932 644.086 563.06 646.401 563.06 652.058 563.06 652.7 563.956 653.6 564.597 653.729 569.464 653.729 570.104 653.6 571 652.7 571 652.058 571 646.401 571 644.343 570.36 640.743 569.847 638.943 569.591 638.3 568.439 637.914 567.799 638.043 563.317 639.843 562.804 640.229 562.292 641.386ZM442.94 670.057 442.94 669.414 442.043 668.515 441.403 668.386 436.537 668.386 435.897 668.515 435.001 669.414 435.001 670.057 435.001 681.5 435.001 682.143 435.897 683.043 436.537 683.172 441.403 683.172 442.043 683.043 442.94 682.143 442.94 681.5ZM563.06 681.5 563.06 682.143 563.956 683.043 564.597 683.172 569.464 683.172 570.104 683.043 571 682.143 571 681.5 571 670.057 571 669.414 570.104 668.515 569.464 668.386 564.597 668.386 563.956 668.515 563.06 669.414 563.06 670.057ZM442.94 699.5 442.94 698.857 442.043 697.957 441.403 697.957 436.537 697.957 435.897 697.957 435.001 698.857 435.001 699.5 435.001 711.071 435.001 711.714 435.897 712.486 436.537 712.614 441.403 712.614 442.043 712.486 442.94 711.714 442.94 711.071ZM563.06 711.071 563.06 711.714 563.956 712.486 564.597 712.614 569.464 712.614 570.104 712.486 571 711.714 571 711.071 571 699.5 571 698.857 570.104 697.957 569.464 697.957 564.597 697.957 563.956 697.957 563.06 698.857 563.06 699.5ZM442.94 728.943 442.94 728.3 442.043 727.4 441.403 727.4 436.537 727.4 435.897 727.4 435.001 728.3 435.001 728.943 435.001 734.728 435.001 736.657 435.641 740.386 436.153 742.185 436.409 742.699 437.561 743.214 438.202 743.086 442.684 741.157 443.196 740.9 443.708 739.743 443.581 739.1 443.069 736.914 442.94 734.728ZM563.06 728.943 563.06 734.728 562.932 736.914 562.42 739.1 562.292 739.743 562.804 740.9 563.317 741.157 567.799 743.086 568.439 743.214 569.591 742.699 569.847 742.185 570.36 740.386 571 736.657 571 734.728 571 728.943 571 728.3 570.104 727.4 569.464 727.4 564.597 727.4 563.956 727.4 563.06 728.3ZM453.826 749.386 453.185 749.257 452.033 749.771 451.776 750.285 449.856 754.785 449.727 755.428 450.24 756.585 450.752 756.843 452.545 757.357 456.258 758 458.179 758 464.07 758 464.71 758 465.607 757.1 465.607 756.457 465.607 751.571 465.607 750.928 464.71 750.029 464.07 750.029 458.179 750.029 456.002 749.9ZM552.175 749.386 549.998 749.9 547.821 750.029 541.93 750.029 541.29 750.029 540.394 750.928 540.394 751.571 540.394 756.457 540.394 757.1 541.29 758 541.93 758 547.821 758 549.742 758 553.456 757.357 555.249 756.843 555.761 756.585 556.273 755.428 556.145 754.785 554.224 750.285 553.968 749.771 552.815 749.257ZM482.254 750.029 481.486 750.029 480.718 750.928 480.589 751.571 480.589 756.457 480.718 757.1 481.486 758 482.254 758 493.908 758 494.548 758 495.445 757.1 495.573 756.457 495.573 751.571 495.445 750.928 494.548 750.029 493.908 750.029ZM512.093 750.029 511.452 750.029 510.556 750.928 510.428 751.571 510.428 756.457 510.556 757.1 511.452 758 512.093 758 523.874 758 524.514 758 525.283 757.1 525.41 756.457 525.41 751.571 525.283 750.928 524.514 750.029 523.874 750.029ZM474.187 646.915 474.314 646.014 475.852 644.214 477.516 643.315 479.309 642.543 483.92 641.643 486.609 641.514 489.298 641.643 493.908 642.543 495.829 643.315 497.366 644.214 499.03 646.014 499.03 646.915 499.03 647.686 497.366 649.615 495.829 650.386 493.908 651.157 489.298 652.186 486.609 652.186 483.92 652.186 479.309 651.157 477.516 650.386 475.852 649.615 474.314 647.686ZM474.187 651.157 475.211 651.929 476.492 652.572 478.541 653.472 483.791 654.5 486.609 654.629 489.554 654.5 494.677 653.472 496.854 652.572 498.006 651.929 499.03 651.157 499.03 667.743 498.902 668.9 496.982 671.086 493.652 672.628 489.17 673.529 486.609 673.657 484.047 673.529 479.693 672.628 476.236 671.086 474.314 668.9 474.187 667.743ZM477.516 685.1 475.852 686 474.314 687.8 474.187 688.7 474.314 689.471 475.852 691.4 477.516 692.171 479.309 692.943 483.92 693.971 486.609 693.971 489.298 693.971 493.908 692.943 495.829 692.171 497.366 691.4 499.03 689.471 499.03 688.7 499.03 687.8 497.366 686 495.829 685.1 493.908 684.329 489.298 683.429 486.609 683.3 483.92 683.429 479.309 684.329ZM474.187 692.943 475.211 693.714 476.492 694.357 478.541 695.257 483.791 696.286 486.609 696.414 489.554 696.286 494.677 695.257 496.854 694.357 498.006 693.714 499.03 692.943 499.03 709.529 498.902 710.686 496.982 712.871 493.652 714.414 489.17 715.315 486.609 715.443 484.047 715.315 479.693 714.414 476.236 712.871 474.314 710.686 474.187 709.529ZM511.964 643.315 510.428 644.214 508.763 646.014 508.635 646.915 508.763 647.686 510.428 649.615 511.964 650.386 513.885 651.157 518.496 652.186 521.185 652.186 523.874 652.186 528.484 651.157 530.277 650.386 531.814 649.615 533.478 647.686 533.607 646.915 533.478 646.014 531.814 644.214 530.277 643.315 528.484 642.543 523.874 641.643 521.185 641.514 518.496 641.643 513.885 642.543ZM508.635 651.157 509.787 651.929 510.94 652.572 513.117 653.472 518.239 654.5 521.185 654.629 524.002 654.5 529.125 653.472 531.301 652.572 532.582 651.929 533.607 651.157 533.607 667.743 533.478 668.9 531.558 671.086 528.1 672.628 523.618 673.529 521.185 673.657 518.623 673.529 514.141 672.628 510.812 671.086 508.891 668.9 508.635 667.743ZM511.964 685.1 510.428 686 508.763 687.8 508.635 688.7 508.763 689.471 510.428 691.4 511.964 692.171 513.885 692.943 518.496 693.971 521.185 693.971 523.874 693.971 528.484 692.943 530.277 692.171 531.814 691.4 533.478 689.471 533.607 688.7 533.478 687.8 531.814 686 530.277 685.1 528.484 684.329 523.874 683.429 521.185 683.3 518.496 683.429 513.885 684.329ZM508.635 692.943 509.787 693.714 510.94 694.357 513.117 695.257 518.239 696.286 521.185 696.414 524.002 696.286 529.125 695.257 531.301 694.357 532.582 693.714 533.607 692.943 533.607 709.529 533.478 710.686 531.558 712.871 528.1 714.414 523.618 715.315 521.185 715.443 518.623 715.315 514.141 714.414 510.812 712.871 508.891 710.686 508.635 709.529Z" fill="#29B5E8" fill-rule="evenodd"/><path d="M455.339 729 452.815 729.142 448.328 730.979 444.964 734.371 443.141 738.753 443.001 741.297 443.001 769.563 443.141 772.107 444.964 776.488 448.328 779.88 452.815 781.717 455.339 782 551.662 782 554.186 781.717 558.532 779.88 561.897 776.488 563.719 772.107 564 769.563 564 741.297 563.719 738.753 561.897 734.371 558.532 730.979 554.186 729.142 551.662 729Z" fill="#11567F" fill-rule="evenodd"/><text fill="#FFFFFF" font-family="Arial,Arial_MSFontService,sans-serif" font-weight="700" font-size="23" transform="matrix(1 0 0 1 471.666 750)">DATA </text><text fill="#FFFFFF" font-family="Arial,Arial_MSFontService,sans-serif" font-weight="700" font-size="23" transform="matrix(1 0 0 1 452.186 778)">SCIENCE</text></g></svg>