<svg width="139" height="138" xmlns="http://www.w3.org/2000/svg" xmlns:xlink="http://www.w3.org/1999/xlink" xml:space="preserve" overflow="hidden"><defs><clipPath id="clip0"><rect x="2720" y="1469" width="139" height="138"/></clipPath></defs><g clip-path="url(#clip0)" transform="translate(-2720 -1469)"><path d="M2766.84 1517 2766.11 1517.75 2766 1518.28 2766 1523.61 2766.11 1524.15 2766.84 1524.89 2767.37 1525 2812.74 1525 2813.26 1524.89 2813.89 1524.15 2814 1523.61 2814 1518.28 2813.89 1517.75 2813.26 1517Z" fill="#28B5E8" fill-rule="evenodd"/><path d="M2846 1531.9 2846 1505.83 2845.89 1504.36 2845.36 1501.3 2844.3 1498.45 2842.7 1495.91 2841.75 1494.65 2824.74 1474.91 2823.46 1473.54 2820.49 1471.32 2817.09 1469.84 2813.47 1469 2811.66 1469 2767.34 1469 2765.42 1469 2761.81 1469.84 2758.41 1471.32 2755.54 1473.54 2754.15 1474.91 2737.15 1494.65 2736.19 1495.91 2734.59 1498.45 2733.64 1501.3 2733 1504.36 2733 1505.83 2733 1531.9 2733.11 1533.59 2733.74 1536.97 2735.02 1540.03 2736.93 1542.77 2739.27 1545.09 2742.04 1546.99 2745.12 1548.26 2748.52 1549 2750.33 1549 2828.67 1549 2830.48 1549 2833.77 1548.26 2836.96 1546.99 2839.73 1545.09 2842.07 1542.77 2843.87 1540.03 2845.15 1536.97 2845.89 1533.59ZM2767.34 1476.92 2765.32 1477.02 2761.7 1478.71 2760.21 1480.08 2749.05 1493.06 2749.69 1492.96 2750.33 1492.96 2828.67 1492.96 2829.31 1492.96 2829.84 1493.06 2818.68 1480.08 2817.3 1478.71 2813.68 1477.02 2811.66 1476.92ZM2740.97 1510.16 2741.08 1508.26 2742.57 1504.99 2745.01 1502.46 2748.41 1501.08 2750.33 1500.87 2828.67 1500.87 2830.59 1501.08 2833.88 1502.46 2836.43 1504.99 2837.81 1508.26 2838.03 1510.16 2838.03 1531.9 2837.81 1533.7 2836.43 1537.07 2833.88 1539.61 2830.59 1540.98 2828.67 1541.08 2750.33 1541.08 2748.41 1540.98 2745.01 1539.61 2742.57 1537.07 2741.08 1533.7 2740.97 1531.9Z" fill="#28B5E8" fill-rule="evenodd"/><path d="M2739.67 1560 2737.46 1560.11 2733.66 1561.49 2730.72 1564.05 2729.12 1567.47 2729 1569.39 2729 1590.72 2729.12 1592.53 2730.72 1595.95 2733.66 1598.51 2737.46 1599.89 2739.67 1600 2839.33 1600 2841.42 1599.89 2845.34 1598.51 2848.28 1595.95 2849.88 1592.53 2850 1590.72 2850 1569.39 2849.88 1567.47 2848.28 1564.05 2845.34 1561.49 2841.42 1560.11 2839.33 1560Z" fill="#11567F" fill-rule="evenodd"/><text fill="#FFFFFF" font-family="Arial,Arial_MSFontService,sans-serif" font-weight="700" font-size="23" transform="matrix(1 0 0 1 2734.8 1588)">EXERNAL</text></g></svg>