<svg width="152" height="158" xmlns="http://www.w3.org/2000/svg" xmlns:xlink="http://www.w3.org/1999/xlink" xml:space="preserve" overflow="hidden"><g transform="translate(-1353 -636)"><path d="M1424.79 636.001 1421.73 636.642 1417.25 638.566 1412.65 642.799 1410.35 647.032 1409.46 650.111 1409.2 651.778 1407.54 668.326 1407.41 668.967 1406.52 669.736 1405.88 669.865 1394.51 669.865 1393.61 670.763 1393.49 671.404 1393.49 676.663 1393.61 677.305 1394.51 678.202 1395.15 678.331 1405.5 678.331 1406.39 679.357 1406.39 679.998 1403.2 712.452 1402.81 714.119 1401.41 717.07 1398.98 719.25 1395.91 720.405 1394.25 720.533 1393.74 720.533 1392.21 720.405 1389.4 719.379 1387.22 717.583 1385.82 715.145 1385.43 713.735 1385.18 713.093 1384.28 712.196 1383.65 712.067 1378.53 712.067 1377.77 712.196 1377 713.093 1377 713.735 1377.38 716.813 1380.2 722.329 1384.67 726.434 1390.42 728.742 1393.74 728.999 1395.91 728.999 1399.11 728.358 1403.45 726.434 1408.05 722.201 1410.35 718.096 1411.25 714.889 1411.5 713.222 1414.83 679.742 1414.95 679.101 1415.85 678.331 1432.33 678.331 1434.89 678.459 1439.75 680.64 1441.66 682.436 1450.86 692.826 1451.25 693.339 1451.25 694.494 1450.86 695.007 1433.74 712.196 1433.36 712.709 1433.36 713.991 1433.74 714.505 1437.45 718.224 1437.96 718.609 1439.11 718.609 1439.62 718.224 1456.36 701.421 1456.87 701.035 1458.15 701.035 1458.66 701.421 1473.35 717.967 1473.87 718.353 1475.14 718.481 1475.65 718.096 1479.49 714.505 1479.87 714.119 1480 712.836 1479.62 712.323 1464.54 695.391 1464.15 694.878 1464.15 693.595 1464.54 693.211 1479.49 678.202 1479.87 677.689 1479.87 676.407 1479.49 675.893 1475.78 672.174 1475.27 671.789 1473.99 671.789 1473.48 672.174 1459.04 686.797 1458.53 687.182 1457.25 687.054 1456.74 686.669 1447.92 676.792 1446.39 675.253 1442.81 672.558 1438.85 670.763 1434.51 669.865 1417.64 669.865 1416.87 669.736 1416.1 668.71 1415.98 668.069 1417.51 652.676 1417.77 650.881 1419.3 647.93 1421.73 645.75 1424.79 644.595 1426.58 644.467 1427.48 644.467 1428.88 644.595 1431.57 645.493 1433.74 647.417 1435.14 649.854 1435.4 651.265 1435.66 651.907 1436.55 652.804 1437.19 652.804 1442.43 652.933 1443.07 652.933 1443.83 652.034 1443.96 651.394 1443.45 648.186 1440.77 642.671 1436.42 638.566 1432.21 636.642 1429.01 636.001Z" fill="#28B5E8" fill-rule="evenodd"/><path d="M1372.26 742 1369.96 742.128 1365.86 743.792 1362.79 746.865 1361.13 750.961 1361 753.265 1361 778.864 1361.13 781.04 1362.79 785.136 1365.86 788.208 1369.96 789.872 1372.26 790 1485.74 790 1488.04 789.872 1492.01 788.208 1495.08 785.136 1496.74 781.04 1497 778.864 1497 753.265 1496.74 750.961 1495.08 746.865 1492.01 743.792 1488.04 742.128 1485.74 742Z" fill="#11567F" fill-rule="evenodd"/><text fill="#FFFFFF" font-family="Arial,Arial_MSFontService,sans-serif" font-weight="700" font-size="23" transform="matrix(1 0 0 1 1367.05 774)">EXTERNAL</text></g></svg>