<svg width="136" height="136" xmlns="http://www.w3.org/2000/svg" xmlns:xlink="http://www.w3.org/1999/xlink" xml:space="preserve" overflow="hidden"><g transform="translate(-149 -613)"><path d="M174.173 613.001 171.934 613.111 167.881 613.778 165.961 614.445 165.427 614.778 165.001 615.667 165.214 616.222 166.707 620.111 167.027 620.555 167.987 620.999 168.52 620.889 171.187 620.111 174.173 620 179.72 620 180.253 619.889 180.893 619.111 181 618.555 181 614.445 180.893 613.889 180.253 613.111 179.72 613.001Z" fill="#28B5E8" fill-rule="evenodd"/><path d="M196.411 613.001 195.869 613.111 195.109 613.889 195.001 614.445 195.001 618.555 195.109 619.111 195.869 619.889 196.411 619.999 207.697 619.999 208.24 619.889 209 619.111 209 618.555 209 614.445 209 613.889 208.24 613.111 207.697 613.001Z" fill="#28B5E8" fill-rule="evenodd"/><path d="M225.303 613.001 224.76 613.111 224 613.889 224 614.445 224 618.555 224 619.111 224.76 619.889 225.303 619.999 236.589 619.999 237.131 619.889 237.891 619.111 237.999 618.555 237.999 614.445 237.891 613.889 237.131 613.111 236.589 613.001Z" fill="#28B5E8" fill-rule="evenodd"/><path d="M253.36 613.001 252.794 613.111 252.114 613.889 252.001 614.445 252.001 618.555 252.114 619.111 252.794 619.889 253.36 620 259.367 620 262.427 620.111 265.26 620.889 265.826 620.999 266.846 620.555 267.187 620.111 268.773 616.222 268.999 615.667 268.546 614.778 267.98 614.445 265.94 613.778 261.634 613.111 259.367 613.001Z" fill="#28B5E8" fill-rule="evenodd"/><path d="M151.667 629.001 150.778 629.454 150.445 630.021 149.778 632.061 149.111 636.367 149 638.747 149 644.64 149.111 645.206 149.889 645.886 150.445 646 154.555 646 155.111 645.886 155.889 645.206 155.999 644.64 155.999 638.747 156.111 635.574 156.889 632.74 156.999 632.173 156.555 631.154 156.111 630.814 152.222 629.227 151.667 629.001Z" fill="#28B5E8" fill-rule="evenodd"/><path d="M282.333 629.001 281.778 629.227 277.889 630.814 277.444 631.154 277 632.173 277.111 632.74 277.889 635.574 278 638.747 278 644.64 278.111 645.206 278.889 645.886 279.444 646 283.555 646 284.111 645.886 284.888 645.206 284.999 644.64 284.999 638.747 284.888 636.367 284.222 632.061 283.555 630.021 283.222 629.454 282.333 629.001Z" fill="#28B5E8" fill-rule="evenodd"/><path d="M150.445 660.001 149.889 660.109 149.111 660.869 149 661.411 149 672.697 149.111 673.24 149.889 674 155.111 674 155.889 673.24 155.999 672.697 155.999 661.411 155.889 660.869 155.111 660.109 154.555 660.001Z" fill="#28B5E8" fill-rule="evenodd"/><path d="M279.444 660.001 278.889 660.109 278.111 660.869 278 661.411 278 672.697 278.111 673.24 278.889 674 284.111 674 284.888 673.24 284.999 672.697 284.999 661.411 284.888 660.869 284.111 660.109 283.555 660.001Z" fill="#28B5E8" fill-rule="evenodd"/><path d="M149.889 688 149.111 688.814 149 689.396 149 701.488 149.111 702.069 149.889 702.883 150.445 702.999 154.555 702.999 155.111 702.883 155.889 702.069 155.999 701.488 155.999 689.396 155.889 688.814 155.111 688Z" fill="#28B5E8" fill-rule="evenodd"/><path d="M278.889 688 278.111 688.814 278 689.396 278 701.488 278.111 702.069 278.889 702.883 279.444 702.999 283.555 702.999 284.111 702.883 284.888 702.069 284.999 701.488 284.999 689.396 284.888 688.814 284.111 688Z" fill="#28B5E8" fill-rule="evenodd"/><path d="M150.445 717.001 149.889 717.107 149.111 717.747 149 718.28 149 723.933 149.111 726.067 149.778 730.119 150.445 732.039 150.778 732.573 151.667 732.999 152.222 732.786 156.111 731.293 156.555 730.973 156.999 730.013 156.889 729.48 156.111 726.813 155.999 723.933 155.999 718.28 155.889 717.747 155.111 717.107 154.555 717.001Z" fill="#28B5E8" fill-rule="evenodd"/><path d="M279.444 717.001 278.889 717.107 278.111 717.747 278 718.28 278 723.933 277.889 726.813 277.111 729.48 277 730.013 277.444 730.973 277.889 731.293 281.778 732.786 282.333 732.999 283.222 732.573 283.555 732.039 284.222 730.119 284.888 726.067 284.999 723.933 284.999 718.28 284.888 717.747 284.111 717.107 283.555 717.001Z" fill="#28B5E8" fill-rule="evenodd"/><path d="M167.987 741 167.027 741.444 166.707 741.889 165.214 745.778 165.001 746.333 165.427 747.222 165.961 747.555 167.881 748.222 171.934 748.888 174.173 748.999 179.72 748.999 180.253 748.888 180.893 748.111 181 747.555 181 743.444 180.893 742.889 180.253 742.111 179.72 742 174.173 742 171.187 741.889 168.52 741.111 167.987 741Z" fill="#28B5E8" fill-rule="evenodd"/><path d="M265.826 741 265.26 741.111 262.427 741.889 259.367 742 253.36 742 252.794 742.111 252.114 742.889 252.001 743.444 252.001 747.555 252.114 748.111 252.794 748.888 253.36 748.999 259.367 748.999 261.634 748.888 265.94 748.222 267.98 747.555 268.546 747.222 268.999 746.333 268.773 745.778 267.187 741.889 266.846 741.444 265.826 741Z" fill="#28B5E8" fill-rule="evenodd"/><path d="M196.411 742 195.869 742.111 195.109 742.889 195.001 743.444 195.001 747.555 195.109 748.111 195.869 748.888 196.411 748.999 207.697 748.999 208.24 748.888 209 748.111 209 747.555 209 743.444 209 742.889 208.24 742.111 207.697 742Z" fill="#28B5E8" fill-rule="evenodd"/><path d="M225.303 742 224.76 742.111 224 742.889 224 743.444 224 747.555 224 748.111 224.76 748.888 225.303 748.999 236.589 748.999 237.131 748.888 237.891 748.111 237.999 747.555 237.999 743.444 237.891 742.889 237.131 742.111 236.589 742Z" fill="#28B5E8" fill-rule="evenodd"/><path d="M179.75 639 178.54 639.107 177.11 640.497 177.001 641.674 177.001 656.326 177.11 657.395 178.54 658.892 179.75 658.999 196.25 658.999 197.35 658.892 198.78 657.395 198.999 656.326 198.999 641.674 198.78 640.497 197.35 639.107 196.25 639Z" fill="#28B5E8" fill-rule="evenodd"/><path d="M208.75 639 207.65 639.107 206.11 640.497 206 641.674 206 656.326 206.11 657.395 207.65 658.892 208.75 658.999 225.25 658.999 226.35 658.892 227.89 657.395 227.999 656.326 227.999 641.674 227.89 640.497 226.35 639.107 225.25 639Z" fill="#28B5E8" fill-rule="evenodd"/><path d="M237.75 639 236.54 639.107 235.11 640.497 235 641.674 235 656.326 235.11 657.395 236.54 658.892 237.75 658.999 254.25 658.999 255.35 658.892 256.78 657.395 257 656.326 257 641.674 256.78 640.497 255.35 639.107 254.25 639Z" fill="#28B5E8" fill-rule="evenodd"/><path d="M185.401 674.001 179.977 675.162 177.764 676.09 175.992 677.251 174.111 679.456 174 680.5 174.111 681.545 175.992 683.75 177.764 684.795 179.977 685.723 185.401 686.884 188.5 687 191.599 686.884 197.022 685.723 199.126 684.795 201.007 683.75 202.889 681.545 203 680.5 202.889 679.456 201.007 677.251 199.126 676.09 197.022 675.162 191.599 674.001Z" fill="#28B5E8" fill-rule="evenodd"/><path d="M216 695.001 213.008 695.106 207.772 696.168 205.634 697.018 203.924 697.974 202.108 699.991 202.001 700.947 202.108 701.903 203.924 703.92 205.634 704.982 207.772 705.832 213.008 706.893 216 706.999 218.993 706.893 224.229 705.832 226.26 704.982 228.076 703.92 229.893 701.903 230 700.947 229.893 699.991 228.076 697.974 226.26 697.018 224.229 696.168 218.993 695.106 216 695.001Z" fill="#28B5E8" fill-rule="evenodd"/><path d="M202.001 706.001 202.001 725.089 202.001 725.746 202.535 727.172 204.245 728.928 208.092 730.793 213.115 731.89 216 731.999 218.886 731.89 223.909 730.793 227.649 728.928 229.359 727.172 230 725.746 230 725.089 230 706.001 228.824 706.878 227.435 707.646 225.084 708.743 219.206 709.95 216 710.06 212.687 709.95 206.916 708.743 204.565 707.646 203.176 706.878 202.001 706.001Z" fill="#28B5E8" fill-rule="evenodd"/><path d="M174 686 174 704.326 174 705.067 174.553 706.339 176.325 708.14 180.309 709.94 185.511 710.894 188.5 711 191.489 710.894 196.801 709.834 198.904 708.987 198.904 700.301 198.904 700.195 199.347 698.712 201.45 696.381 203 695.428 203 686 201.782 686.847 200.343 687.589 197.908 688.543 191.82 689.708 188.5 689.814 185.069 689.708 179.092 688.543 176.657 687.589 175.218 686.847 174 686Z" fill="#28B5E8" fill-rule="evenodd"/><path d="M240.401 674.001 234.977 675.162 232.764 676.09 230.992 677.251 229.111 679.456 229 680.5 229.111 681.545 230.992 683.75 232.764 684.795 234.977 685.723 240.401 686.884 243.5 687 246.599 686.884 252.022 685.723 254.126 684.795 256.007 683.75 257.889 681.545 258 680.5 257.889 679.456 256.007 677.251 254.126 676.09 252.022 675.162 246.599 674.001Z" fill="#28B5E8" fill-rule="evenodd"/><path d="M229 686 229 695.428 230.439 696.381 232.542 698.712 232.985 700.195 232.985 700.301 233.096 708.987 235.199 709.834 240.401 710.894 243.5 711 246.489 710.894 251.691 709.94 255.564 708.14 257.336 706.339 258 705.067 258 704.326 258 686 256.782 686.847 255.343 687.589 252.908 688.543 246.82 689.708 243.5 689.814 240.069 689.708 234.092 688.543 231.657 687.589 230.218 686.847 229 686Z" fill="#28B5E8" fill-rule="evenodd"/></g></svg>