<svg width="136" height="155" xmlns="http://www.w3.org/2000/svg" xmlns:xlink="http://www.w3.org/1999/xlink" xml:space="preserve" overflow="hidden"><g transform="translate(-1010 -622)"><path d="M1032.52 622.001 1030.58 622.132 1026.84 622.662 1025.03 623.323 1024.52 623.589 1024 624.78 1024.13 625.441 1026.06 629.941 1026.32 630.603 1027.48 630.999 1028.13 630.999 1030.32 630.47 1032.52 630.338 1038.45 630.338 1039.1 630.206 1040 629.279 1040 628.617 1040 623.721 1040 623.059 1039.1 622.132 1038.45 622.001Z" fill="#28B5E8" fill-rule="evenodd"/><path d="M1056.67 622.001 1055.9 622.127 1055.13 623.016 1055 623.651 1055 628.349 1055.13 628.984 1055.9 629.873 1056.67 629.999 1068.33 629.999 1068.97 629.873 1069.87 628.984 1070 628.349 1070 623.651 1069.87 623.016 1068.97 622.127 1068.33 622.001Z" fill="#28B5E8" fill-rule="evenodd"/><path d="M1086.67 622.001 1086.03 622.127 1085.13 623.016 1085 623.651 1085 628.349 1085.13 628.984 1086.03 629.873 1086.67 629.999 1098.46 629.999 1099.1 629.873 1099.87 628.984 1100 628.349 1100 623.651 1099.87 623.016 1099.1 622.127 1098.46 622.001Z" fill="#28B5E8" fill-rule="evenodd"/><path d="M1116.55 622.001 1115.9 622.132 1115 623.059 1115 623.721 1115 628.617 1115 629.279 1115.9 630.206 1116.55 630.338 1122.48 630.338 1124.68 630.47 1126.87 630.999 1127.52 630.999 1128.68 630.603 1128.94 629.941 1130.87 625.441 1131 624.78 1130.48 623.589 1129.97 623.323 1128.16 622.662 1124.42 622.132 1122.48 622.001Z" fill="#28B5E8" fill-rule="evenodd"/><path d="M1012.35 637 1011.29 637.391 1011.06 638.041 1010.59 639.862 1010 643.504 1010 645.586 1010 651.309 1010 651.959 1010.82 652.87 1011.41 653 1015.88 653 1016.47 652.87 1017.29 651.959 1017.29 651.309 1017.29 645.586 1017.41 643.244 1017.88 641.163 1018 640.512 1017.53 639.341 1017.06 638.951 1012.94 637.13 1012.35 637Z" fill="#28B5E8" fill-rule="evenodd"/><path d="M1143.35 637 1142.69 637.13 1138.06 638.951 1137.53 639.341 1137 640.512 1137.13 641.163 1137.66 643.244 1137.79 645.586 1137.79 651.309 1137.79 651.959 1138.72 652.87 1139.38 653 1144.41 653 1145.07 652.87 1146 651.959 1146 651.309 1146 645.586 1146 643.504 1145.34 639.862 1144.81 638.041 1144.54 637.391 1143.35 637Z" fill="#28B5E8" fill-rule="evenodd"/><path d="M1011.55 667.001 1010.9 667.131 1010 668.044 1010 668.696 1010 680.305 1010 680.957 1010.9 681.869 1011.55 682 1016.45 682 1017.1 681.869 1018 680.957 1018 680.305 1018 668.696 1018 668.044 1017.1 667.131 1016.45 667.001Z" fill="#28B5E8" fill-rule="evenodd"/><path d="M1139.55 667.001 1138.9 667.131 1138 668.044 1138 668.696 1138 680.305 1138 680.957 1138.9 681.869 1139.55 682 1144.45 682 1145.1 681.869 1146 680.957 1146 680.305 1146 668.696 1146 668.044 1145.1 667.131 1144.45 667.001Z" fill="#28B5E8" fill-rule="evenodd"/><path d="M1010.9 697 1010 697.921 1010 698.579 1010 710.42 1010 711.078 1010.9 711.868 1011.55 711.999 1016.45 711.999 1017.1 711.868 1018 711.078 1018 710.42 1018 698.579 1018 697.921 1017.1 697Z" fill="#28B5E8" fill-rule="evenodd"/><path d="M1138.9 697 1138 697.921 1138 698.579 1138 710.42 1138 711.078 1138.9 711.868 1139.55 711.999 1144.45 711.999 1145.1 711.868 1146 711.078 1146 710.42 1146 698.579 1146 697.921 1145.1 697Z" fill="#28B5E8" fill-rule="evenodd"/><path d="M1010.82 726 1010 726.911 1010 727.561 1010 733.414 1010 735.366 1010.59 739.138 1011.06 740.959 1011.29 741.479 1012.35 742 1012.94 741.87 1017.06 739.918 1017.53 739.659 1018 738.488 1017.88 737.838 1017.41 735.626 1017.29 733.414 1017.29 727.561 1017.29 726.911 1016.47 726Z" fill="#28B5E8" fill-rule="evenodd"/><path d="M1138.72 726 1137.79 726.911 1137.79 727.561 1137.79 733.414 1137.66 735.626 1137.13 737.838 1137 738.488 1137.53 739.659 1138.06 739.918 1142.69 741.87 1143.35 742 1144.54 741.479 1144.81 740.959 1145.34 739.138 1146 735.366 1146 733.414 1146 727.561 1146 726.911 1145.07 726Z" fill="#28B5E8" fill-rule="evenodd"/><path d="M1030.42 724 1027.88 724.128 1023.36 725.913 1020.12 728.845 1018.14 732.925 1018 735.22 1018 763.907 1018.14 766.075 1020.12 770.155 1023.36 773.087 1027.88 774.872 1030.42 774.999 1125.72 774.999 1128.12 774.872 1132.64 773.087 1135.88 770.155 1137.86 766.075 1138 763.907 1138 735.22 1137.86 732.925 1135.88 728.845 1132.64 725.913 1128.12 724.128 1125.72 724Z" fill="#11567F" fill-rule="evenodd"/><text fill="#FFFFFF" font-family="Arial,Arial_MSFontService,sans-serif" font-weight="700" font-size="23" transform="matrix(1 0 0 1 1026.84 758)">FINANCE</text><path d="M1078.94 657.001 1075.32 657.125 1068.98 658.363 1066.52 659.355 1064.33 660.47 1062.13 662.823 1062 663.938 1062.13 665.053 1064.33 667.407 1066.52 668.646 1068.98 669.637 1075.32 670.876 1078.94 670.999 1082.55 670.876 1088.89 669.637 1091.48 668.646 1093.54 667.407 1095.74 665.053 1096 663.938 1095.74 662.823 1093.54 660.47 1091.48 659.355 1088.89 658.363 1082.55 657.125 1078.94 657.001Z" fill="#28B5E8" fill-rule="evenodd"/><path d="M1062 670 1062 692.025 1062 692.784 1062.78 694.43 1064.84 696.455 1069.37 698.607 1075.45 699.873 1078.94 700 1082.43 699.873 1088.5 698.607 1093.16 696.455 1095.22 694.43 1095.87 692.784 1096 692.025 1096 670 1094.45 671.012 1092.77 671.899 1089.92 673.164 1082.94 674.557 1078.94 674.684 1075.06 674.557 1067.95 673.164 1065.1 671.899 1063.42 671.012 1062 670Z" fill="#28B5E8" fill-rule="evenodd"/></g></svg>