<svg width="113" height="101" xmlns="http://www.w3.org/2000/svg" xmlns:xlink="http://www.w3.org/1999/xlink" xml:space="preserve" overflow="hidden"><defs><clipPath id="clip0"><rect x="160" y="636" width="113" height="101"/></clipPath></defs><g clip-path="url(#clip0)" transform="translate(-160 -636)"><path d="M212.423 636 209.018 636.717 205.716 637.944 202.826 639.786 200.246 642.038 198.183 644.801 196.531 647.87 195.602 651.247 195.293 653.089 193.436 671.509 193.332 672.02 192.713 672.635 192.197 672.736 178.988 672.736 178.266 673.453 178.266 673.965 178.266 680.616 178.266 681.128 178.988 681.844 191.062 681.844 191.578 681.946 192.3 682.765 192.3 683.276 188.688 718.99 188.379 720.831 186.831 724.004 184.148 726.357 180.845 727.688 178.988 727.79 178.369 727.79 176.615 727.688 173.622 726.562 171.145 724.413 169.597 721.548 169.288 719.911 169.184 719.399 168.462 718.683 167.946 718.58 161.341 718.58 160.722 718.683 160.103 719.399 160 719.911 160.206 721.651 161.135 725.027 162.58 728.097 164.644 730.86 167.12 733.111 169.906 734.953 173.106 736.283 176.615 736.898 178.369 737 178.988 737 180.845 736.898 184.251 736.283 187.553 735.056 190.443 733.214 192.919 730.86 195.086 728.199 196.635 725.13 197.667 721.752 197.873 719.911 201.588 683.072 201.691 682.56 202.413 681.946 202.826 681.844 220.576 681.844 222.021 681.946 224.807 682.56 227.49 683.686 229.76 685.425 230.792 686.449 241.215 698.012 241.525 698.422 241.422 699.343 241.215 699.752 221.815 719.092 221.505 719.501 221.505 720.422 221.815 720.831 226.561 725.539 226.975 725.846 227.903 725.846 228.316 725.539 247.201 706.71 247.613 706.403 248.645 706.403 249.058 706.71 265.776 725.334 266.189 725.641 267.221 725.743 267.634 725.436 272.587 721.036 272.897 720.627 273 719.604 272.691 719.194 255.456 700.161 255.25 699.752 255.25 698.728 255.56 698.319 272.484 681.435 272.793 681.025 272.793 680.002 272.484 679.593 267.737 674.988 267.324 674.681 266.395 674.681 265.982 674.988 249.471 691.463 249.058 691.77 248.026 691.668 247.613 691.36 237.603 680.309 235.952 678.57 232.031 675.704 227.697 673.76 223.053 672.736 204.065 672.736 203.446 672.635 202.723 671.815 202.723 671.304 204.478 654.01 204.787 652.168 206.438 648.996 209.018 646.54 212.423 645.21 214.281 645.107 215.313 645.107 216.964 645.21 219.957 646.438 222.331 648.484 223.775 651.35 224.085 652.987 224.188 653.499 224.91 654.215 225.426 654.215 232.031 654.42 232.547 654.317 233.269 653.601 233.373 653.089 233.166 651.35 232.341 647.973 230.896 644.903 228.935 642.14 226.561 639.786 223.672 637.944 220.473 636.717 217.067 636Z" fill="#28B5E8" fill-rule="evenodd"/></g></svg>