<svg width="159" height="171" xmlns="http://www.w3.org/2000/svg" xmlns:xlink="http://www.w3.org/1999/xlink" xml:space="preserve" overflow="hidden"><g transform="translate(-1280 -622)"><path d="M1314.52 622.001 1312.58 622.132 1308.84 622.662 1307.03 623.323 1306.52 623.589 1306 624.78 1306.13 625.441 1308.06 629.941 1308.32 630.603 1309.48 630.999 1310.13 630.999 1312.32 630.47 1314.52 630.338 1320.45 630.338 1321.1 630.206 1322 629.279 1322 628.617 1322 623.721 1322 623.059 1321.1 622.132 1320.45 622.001Z" fill="#28B5E8" fill-rule="evenodd"/><path d="M1338.67 622.001 1337.9 622.127 1337.13 623.016 1337 623.651 1337 628.349 1337.13 628.984 1337.9 629.873 1338.67 629.999 1350.33 629.999 1350.97 629.873 1351.87 628.984 1352 628.349 1352 623.651 1351.87 623.016 1350.97 622.127 1350.33 622.001Z" fill="#28B5E8" fill-rule="evenodd"/><path d="M1368.67 622.001 1368.03 622.127 1367.13 623.016 1367 623.651 1367 628.349 1367.13 628.984 1368.03 629.873 1368.67 629.999 1380.46 629.999 1381.1 629.873 1381.87 628.984 1382 628.349 1382 623.651 1381.87 623.016 1381.1 622.127 1380.46 622.001Z" fill="#28B5E8" fill-rule="evenodd"/><path d="M1398.55 622.001 1397.9 622.132 1397 623.059 1397 623.721 1397 628.617 1397 629.279 1397.9 630.206 1398.55 630.338 1404.48 630.338 1406.68 630.47 1408.87 630.999 1409.52 630.999 1410.68 630.603 1410.94 629.941 1412.87 625.441 1413 624.78 1412.48 623.589 1411.97 623.323 1410.16 622.662 1406.42 622.132 1404.48 622.001Z" fill="#28B5E8" fill-rule="evenodd"/><path d="M1293.65 637 1292.46 637.391 1292.19 638.041 1291.66 639.862 1291 643.504 1291 645.586 1291 651.309 1291 651.959 1291.93 652.87 1292.59 653 1297.62 653 1298.28 652.87 1299.21 651.959 1299.21 651.309 1299.21 645.586 1299.34 643.244 1299.87 641.163 1300 640.512 1299.47 639.341 1298.94 638.951 1294.31 637.13 1293.65 637Z" fill="#28B5E8" fill-rule="evenodd"/><path d="M1424.65 637 1424.06 637.13 1419.94 638.951 1419.47 639.341 1419 640.512 1419.12 641.163 1419.59 643.244 1419.71 645.586 1419.71 651.309 1419.71 651.959 1420.53 652.87 1421.12 653 1425.59 653 1426.18 652.87 1427 651.959 1427 651.309 1427 645.586 1427 643.504 1426.41 639.862 1425.94 638.041 1425.71 637.391 1424.65 637Z" fill="#28B5E8" fill-rule="evenodd"/><path d="M1292.55 667.001 1291.9 667.131 1291 668.044 1291 668.696 1291 680.305 1291 680.957 1291.9 681.869 1292.55 682 1297.45 682 1298.1 681.869 1299 680.957 1299 680.305 1299 668.696 1299 668.044 1298.1 667.131 1297.45 667.001Z" fill="#28B5E8" fill-rule="evenodd"/><path d="M1421.35 667.001 1420.79 667.131 1420 668.044 1420 668.696 1420 680.305 1420 680.957 1420.79 681.869 1421.35 682 1425.65 682 1426.21 681.869 1427 680.957 1427 680.305 1427 668.696 1427 668.044 1426.21 667.131 1425.65 667.001Z" fill="#28B5E8" fill-rule="evenodd"/><path d="M1291.9 697 1291 697.921 1291 698.579 1291 710.42 1291 711.078 1291.9 711.868 1292.55 711.999 1297.45 711.999 1298.1 711.868 1299 711.078 1299 710.42 1299 698.579 1299 697.921 1298.1 697Z" fill="#28B5E8" fill-rule="evenodd"/><path d="M1420.79 697 1420 697.921 1420 698.579 1420 710.42 1420 711.078 1420.79 711.868 1421.35 711.999 1425.65 711.999 1426.21 711.868 1427 711.078 1427 710.42 1427 698.579 1427 697.921 1426.21 697Z" fill="#28B5E8" fill-rule="evenodd"/><path d="M1291.93 726 1291 726.911 1291 727.561 1291 733.414 1291 735.366 1291.66 739.138 1292.19 740.959 1292.46 741.479 1293.65 742 1294.31 741.87 1298.94 739.918 1299.47 739.659 1300 738.488 1299.87 737.838 1299.34 735.626 1299.21 733.414 1299.21 727.561 1299.21 726.911 1298.28 726Z" fill="#28B5E8" fill-rule="evenodd"/><path d="M1420.53 726 1419.71 726.911 1419.71 727.561 1419.71 733.414 1419.59 735.626 1419.12 737.838 1419 738.488 1419.47 739.659 1419.94 739.918 1424.06 741.87 1424.65 742 1425.71 741.479 1425.94 740.959 1426.41 739.138 1427 735.366 1427 733.414 1427 727.561 1427 726.911 1426.18 726Z" fill="#28B5E8" fill-rule="evenodd"/><path d="M1296.46 721 1293.1 721.143 1287.11 723.138 1282.81 726.415 1280.19 730.975 1280 733.54 1280 765.602 1280.19 768.024 1282.81 772.584 1287.11 775.861 1293.1 777.856 1296.46 777.999 1422.73 777.999 1425.91 777.856 1431.89 775.861 1436.19 772.584 1438.81 768.024 1439 765.602 1439 733.54 1438.81 730.975 1436.19 726.415 1431.89 723.138 1425.91 721.143 1422.73 721Z" fill="#11567F" fill-rule="evenodd"/><text fill="#FFFFFF" font-family="Arial,Arial_MSFontService,sans-serif" font-weight="700" font-size="23" transform="matrix(1 0 0 1 1317.12 751)">GROUP </text><text fill="#FFFFFF" font-family="Arial,Arial_MSFontService,sans-serif" font-weight="700" font-size="23" transform="matrix(1 0 0 1 1320.86 773)">SALES</text><path d="M1359.94 657.001 1356.32 657.125 1349.98 658.363 1347.52 659.355 1345.33 660.47 1343.13 662.823 1343 663.938 1343.13 665.053 1345.33 667.407 1347.52 668.646 1349.98 669.637 1356.32 670.876 1359.94 670.999 1363.55 670.876 1369.89 669.637 1372.48 668.646 1374.54 667.407 1376.74 665.053 1377 663.938 1376.74 662.823 1374.54 660.47 1372.48 659.355 1369.89 658.363 1363.55 657.125 1359.94 657.001Z" fill="#28B5E8" fill-rule="evenodd"/><path d="M1343 670 1343 692.025 1343 692.784 1343.78 694.43 1345.84 696.455 1350.37 698.607 1356.45 699.873 1359.94 700 1363.43 699.873 1369.5 698.607 1374.16 696.455 1376.22 694.43 1376.87 692.784 1377 692.025 1377 670 1375.45 671.012 1373.77 671.899 1370.92 673.164 1363.94 674.557 1359.94 674.684 1356.06 674.557 1348.95 673.164 1346.1 671.899 1344.42 671.012 1343 670Z" fill="#28B5E8" fill-rule="evenodd"/></g></svg>