<svg width="133" height="138" xmlns="http://www.w3.org/2000/svg" xmlns:xlink="http://www.w3.org/1999/xlink" xml:space="preserve" overflow="hidden"><defs><clipPath id="clip0"><rect x="2723" y="1184" width="133" height="138"/></clipPath></defs><g clip-path="url(#clip0)" transform="translate(-2723 -1184)"><path d="M2761.59 1208.13 2761.85 1205.18 2764.03 1199.92 2767.86 1196.07 2773.11 1193.88 2776.05 1193.63 2808.03 1193.63 2808.03 1220.07 2808.16 1222.77 2810.08 1227.39 2813.53 1230.86 2818.14 1232.78 2820.82 1232.91 2846.41 1232.91 2846.41 1297.99 2846.15 1300.82 2843.98 1306.08 2840.01 1309.93 2834.89 1312.12 2831.95 1312.37 2776.05 1312.37 2773.11 1312.12 2767.86 1309.93 2764.03 1306.08 2761.85 1300.82 2761.59 1297.99ZM2843.98 1223.28 2843.21 1222.13 2842.18 1221.1 2819.8 1197.99 2818.77 1196.97 2817.62 1196.07 2817.62 1220.07 2817.75 1221.36 2819.41 1223.15 2820.82 1223.28ZM2776.05 1184 2773.49 1184.13 2768.89 1185.03 2764.54 1186.82 2760.7 1189.52 2757.5 1192.73 2754.81 1196.58 2753.02 1200.94 2752.13 1205.57 2752 1208.13 2752 1297.99 2752.13 1300.43 2753.02 1305.05 2754.81 1309.42 2757.5 1313.27 2760.7 1316.48 2764.54 1319.18 2768.89 1320.97 2773.49 1321.87 2776.05 1322 2831.95 1322 2834.38 1321.87 2839.11 1320.97 2843.46 1319.18 2847.17 1316.48 2850.5 1313.27 2853.06 1309.42 2854.85 1305.05 2855.87 1300.43 2856 1297.99 2856 1231.11 2855.87 1228.8 2854.98 1224.31 2853.18 1219.94 2850.63 1216.09 2849.09 1214.3 2826.58 1191.19 2824.91 1189.52 2820.95 1186.82 2816.6 1185.03 2811.87 1184.13 2809.44 1184Z" fill="#28B5E8" fill-rule="evenodd"/><path d="M2734.34 1250 2732.02 1250.13 2727.9 1251.79 2724.8 1254.86 2723.13 1258.83 2723 1261.14 2723 1286.74 2723.13 1289.04 2724.8 1293.01 2727.9 1296.08 2732.02 1297.74 2734.34 1298 2819.66 1298 2821.98 1297.74 2825.97 1296.08 2829.07 1293.01 2830.74 1289.04 2831 1286.74 2831 1261.14 2830.74 1258.83 2829.07 1254.86 2825.97 1251.79 2821.98 1250.13 2819.66 1250Z" fill="#11567F" fill-rule="evenodd"/><text fill="#FFFFFF" font-family="Arial,Arial_MSFontService,sans-serif" font-weight="700" font-size="23" transform="matrix(1 0 0 1 2739.47 1283)">IMAGE</text></g></svg>