<svg width="137" height="155" xmlns="http://www.w3.org/2000/svg" xmlns:xlink="http://www.w3.org/1999/xlink" xml:space="preserve" overflow="hidden"><g transform="translate(-720 -622)"><path d="M743.516 622.001 741.581 622.132 737.839 622.662 736.033 623.323 735.517 623.589 735.001 624.78 735.13 625.441 737.065 629.941 737.323 630.603 738.484 630.999 739.13 630.999 741.323 630.47 743.516 630.338 749.452 630.338 750.096 630.206 751 629.279 751 628.617 751 623.721 751 623.059 750.096 622.132 749.452 622.001Z" fill="#28B5E8" fill-rule="evenodd"/><path d="M767.667 622.001 766.898 622.127 766.128 623.016 766 623.651 766 628.349 766.128 628.984 766.898 629.873 767.667 629.999 779.333 629.999 779.975 629.873 780.872 628.984 781 628.349 781 623.651 780.872 623.016 779.975 622.127 779.333 622.001Z" fill="#28B5E8" fill-rule="evenodd"/><path d="M797.667 622.001 797.026 622.127 796.129 623.016 796.001 623.651 796.001 628.349 796.129 628.984 797.026 629.873 797.667 629.999 809.461 629.999 810.102 629.873 810.872 628.984 810.999 628.349 810.999 623.651 810.872 623.016 810.102 622.127 809.461 622.001Z" fill="#28B5E8" fill-rule="evenodd"/><path d="M827.549 622.001 826.904 622.132 826.001 623.059 826.001 623.721 826.001 628.617 826.001 629.279 826.904 630.206 827.549 630.338 833.484 630.338 835.678 630.47 837.871 630.999 838.516 630.999 839.677 630.603 839.936 629.941 841.871 625.441 842 624.78 841.484 623.589 840.968 623.323 839.161 622.662 835.419 622.132 833.484 622.001Z" fill="#28B5E8" fill-rule="evenodd"/><path d="M722.647 637 721.456 637.391 721.192 638.041 720.663 639.862 720.001 643.504 720.001 645.586 720.001 651.309 720.001 651.959 720.927 652.87 721.589 653 726.617 653 727.279 652.87 728.206 651.959 728.206 651.309 728.206 645.586 728.338 643.244 728.868 641.163 728.999 640.512 728.47 639.341 727.941 638.951 723.309 637.13 722.647 637Z" fill="#28B5E8" fill-rule="evenodd"/><path d="M854.353 637 853.692 637.13 849.06 638.951 848.529 639.341 848 640.512 848.133 641.163 848.662 643.244 848.794 645.586 848.794 651.309 848.794 651.959 849.721 652.87 850.382 653 855.412 653 856.074 652.87 857 651.959 857 651.309 857 645.586 857 643.504 856.338 639.862 855.809 638.041 855.544 637.391 854.353 637Z" fill="#28B5E8" fill-rule="evenodd"/><path d="M721.549 667.001 720.904 667.131 720.001 668.044 720.001 668.696 720.001 680.305 720.001 680.957 720.904 681.869 721.549 682 726.451 682 727.096 681.869 728 680.957 728 680.305 728 668.696 728 668.044 727.096 667.131 726.451 667.001Z" fill="#28B5E8" fill-rule="evenodd"/><path d="M850.548 667.001 849.903 667.131 849 668.044 849 668.696 849 680.305 849 680.957 849.903 681.869 850.548 682 855.452 682 856.097 681.869 857 680.957 857 680.305 857 668.696 857 668.044 856.097 667.131 855.452 667.001Z" fill="#28B5E8" fill-rule="evenodd"/><path d="M720.904 697 720.001 697.921 720.001 698.579 720.001 710.42 720.001 711.078 720.904 711.868 721.549 711.999 726.451 711.999 727.096 711.868 728 711.078 728 710.42 728 698.579 728 697.921 727.096 697Z" fill="#28B5E8" fill-rule="evenodd"/><path d="M849.903 697 849 697.921 849 698.579 849 710.42 849 711.078 849.903 711.868 850.548 711.999 855.452 711.999 856.097 711.868 857 711.078 857 710.42 857 698.579 857 697.921 856.097 697Z" fill="#28B5E8" fill-rule="evenodd"/><path d="M720.927 726 720.001 726.911 720.001 727.561 720.001 733.414 720.001 735.366 720.663 739.138 721.192 740.959 721.456 741.479 722.647 742 723.309 741.87 727.941 739.918 728.47 739.659 728.999 738.488 728.868 737.838 728.338 735.626 728.206 733.414 728.206 727.561 728.206 726.911 727.279 726Z" fill="#28B5E8" fill-rule="evenodd"/><path d="M849.721 726 848.794 726.911 848.794 727.561 848.794 733.414 848.662 735.626 848.133 737.838 848 738.488 848.529 739.659 849.06 739.918 853.692 741.87 854.353 742 855.544 741.479 855.809 740.959 856.338 739.138 857 735.366 857 733.414 857 727.561 857 726.911 856.074 726Z" fill="#28B5E8" fill-rule="evenodd"/><path d="M745.285 724 742.977 724.128 738.873 725.913 735.924 728.845 734.129 732.925 734.001 735.22 734.001 763.907 734.129 766.075 735.924 770.155 738.873 773.087 742.977 774.872 745.285 774.999 831.844 774.999 834.024 774.872 838.127 773.087 841.076 770.155 842.871 766.075 843 763.907 843 735.22 842.871 732.925 841.076 728.845 838.127 725.913 834.024 724.128 831.844 724Z" fill="#11567F" fill-rule="evenodd"/><text fill="#FFFFFF" font-family="Arial,Arial_MSFontService,sans-serif" font-weight="700" font-size="23" transform="matrix(1 0 0 1 778.501 758)">IT</text><path d="M745.251 674.001 743.82 674.129 742.13 675.798 742.001 677.209 742.001 694.791 742.13 696.075 743.82 697.872 745.251 698 764.75 698 766.05 697.872 767.74 696.075 767.999 694.791 767.999 677.209 767.74 675.798 766.05 674.129 764.75 674.001Z" fill="#28B5E8" fill-rule="evenodd"/><path d="M779.125 674.001 777.875 674.129 776.125 675.798 776 677.209 776 694.791 776.125 696.075 777.875 697.872 779.125 698 797.875 698 799.125 697.872 800.875 696.075 800.999 694.791 800.999 677.209 800.875 675.798 799.125 674.129 797.875 674.001Z" fill="#28B5E8" fill-rule="evenodd"/><path d="M812.25 674.001 810.82 674.129 809.13 675.798 809 677.209 809 694.791 809.13 696.075 810.82 697.872 812.25 698 831.75 698 833.05 697.872 834.74 696.075 835 694.791 835 677.209 834.74 675.798 833.05 674.129 831.75 674.001Z" fill="#28B5E8" fill-rule="evenodd"/></g></svg>