<svg width="133" height="138" xmlns="http://www.w3.org/2000/svg" xmlns:xlink="http://www.w3.org/1999/xlink" xml:space="preserve" overflow="hidden"><defs><clipPath id="clip0"><rect x="436" y="1184" width="133" height="138"/></clipPath></defs><g clip-path="url(#clip0)" transform="translate(-436 -1184)"><path d="M474.595 1208.13 474.851 1205.18 477.025 1199.92 480.863 1196.07 486.108 1193.88 489.05 1193.63 521.03 1193.63 521.03 1220.07 521.158 1222.77 523.076 1227.39 526.53 1230.86 531.135 1232.78 533.822 1232.91 559.405 1232.91 559.405 1297.99 559.15 1300.82 556.975 1306.08 553.01 1309.93 547.893 1312.12 544.951 1312.37 489.05 1312.37 486.108 1312.12 480.863 1309.93 477.025 1306.08 474.851 1300.82 474.595 1297.99ZM556.975 1223.28 556.208 1222.13 555.184 1221.1 532.798 1197.99 531.775 1196.97 530.623 1196.07 530.623 1220.07 530.752 1221.36 532.414 1223.15 533.822 1223.28ZM489.05 1184 486.491 1184.13 481.886 1185.03 477.537 1186.82 473.7 1189.52 470.501 1192.73 467.815 1196.58 466.024 1200.94 465.129 1205.57 465.001 1208.13 465.001 1297.99 465.129 1300.43 466.024 1305.05 467.815 1309.42 470.501 1313.27 473.7 1316.48 477.537 1319.18 481.886 1320.97 486.491 1321.87 489.05 1322 544.951 1322 547.381 1321.87 552.114 1320.97 556.464 1319.18 560.173 1316.48 563.499 1313.27 566.058 1309.42 567.848 1305.05 568.872 1300.43 568.999 1297.99 568.999 1231.11 568.872 1228.8 567.976 1224.31 566.185 1219.94 563.627 1216.09 562.092 1214.3 539.578 1191.19 537.915 1189.52 533.949 1186.82 529.6 1185.03 524.867 1184.13 522.437 1184Z" fill="#28B5E8" fill-rule="evenodd"/><path d="M447.342 1250 445.022 1250.13 440.898 1251.79 437.805 1254.86 436.13 1258.83 436.001 1261.14 436.001 1286.74 436.13 1289.04 437.805 1293.01 440.898 1296.08 445.022 1297.74 447.342 1298 532.658 1298 534.978 1297.74 538.973 1296.08 542.067 1293.01 543.742 1289.04 544 1286.74 544 1261.14 543.742 1258.83 542.067 1254.86 538.973 1251.79 534.978 1250.13 532.658 1250Z" fill="#11567F" fill-rule="evenodd"/><text fill="#FFFFFF" font-family="Arial,Arial_MSFontService,sans-serif" font-weight="700" font-size="23" transform="matrix(1 0 0 1 458.585 1283)">JSON</text></g></svg>