<svg width="141" height="164" xmlns="http://www.w3.org/2000/svg" xmlns:xlink="http://www.w3.org/1999/xlink" xml:space="preserve" overflow="hidden"><g transform="translate(-1289 -1463)"><path d="M1301.56 1575 1298.99 1575.26 1294.42 1576.92 1291 1579.99 1289.14 1583.96 1289 1586.26 1289 1611.86 1289.14 1614.17 1291 1618.14 1294.42 1621.21 1298.99 1622.87 1301.56 1623 1417.44 1623 1420.01 1622.87 1424.43 1621.21 1427.86 1618.14 1429.71 1614.17 1430 1611.86 1430 1586.26 1429.71 1583.96 1427.86 1579.99 1424.43 1576.92 1420.01 1575.26 1417.44 1575Z" fill="#11567F" fill-rule="evenodd"/><text fill="#FFFFFF" font-family="Arial,Arial_MSFontService,sans-serif" font-weight="700" font-size="23" transform="matrix(1 0 0 1 1305.26 1607)">MASKING</text><path d="M1336.64 1484 1335.88 1484.13 1335.13 1484.9 1335 1485.55 1335 1490.45 1335.13 1491.1 1335.88 1492 1382.99 1492 1383.87 1491.1 1384 1490.45 1384 1485.55 1383.87 1484.9 1382.99 1484.13 1382.36 1484Z" fill="#29B5E8" fill-rule="evenodd"/><path d="M1336.64 1501 1335.88 1501.14 1335.13 1502.14 1335 1502.86 1335 1508.14 1335.13 1508.86 1335.88 1509.86 1336.64 1510 1382.36 1510 1382.99 1509.86 1383.87 1508.86 1384 1508.14 1384 1502.86 1383.87 1502.14 1382.99 1501.14 1382.36 1501Z" fill="#29B5E8" fill-rule="evenodd"/><path d="M1336.63 1519 1335.88 1519.13 1335.13 1519.9 1335 1520.55 1335 1525.45 1335.13 1526.1 1335.88 1527 1359.12 1527 1359.87 1526.1 1360 1525.45 1360 1520.55 1359.87 1519.9 1359.12 1519.13 1358.5 1519Z" fill="#29B5E8" fill-rule="evenodd"/><path d="M1405.37 1484.88 1405.37 1526.85 1406.91 1527.62 1409.74 1528.52 1411.02 1528.52 1411.79 1528.64 1413.2 1529.28 1414.36 1530.31 1415 1531.84 1415 1532.61 1414.87 1537.35 1413.2 1545.92 1410.38 1553.09 1406.66 1558.97 1404.73 1561.4 1402.68 1563.58 1398.7 1567.16 1396.78 1568.31 1395.11 1569.46 1393.44 1570.23 1392.03 1570.74 1390.1 1571 1388.31 1570.74 1386.77 1570.23 1385.23 1569.46 1383.43 1568.31 1383.04 1568.06 1382.53 1567.8 1334.15 1567.8 1332.1 1567.67 1328.12 1566.9 1324.52 1565.24 1321.32 1562.81 1318.49 1559.87 1316.31 1556.41 1314.9 1552.45 1314 1548.09 1314 1545.92 1314 1485.01 1314 1482.71 1314.77 1478.48 1316.31 1474.52 1318.49 1471.06 1321.19 1467.99 1324.39 1465.69 1327.99 1464.02 1331.97 1463.13 1334.02 1463 1385.23 1463 1387.28 1463.13 1391.26 1463.9 1394.85 1465.56 1398.06 1467.99 1400.75 1470.93 1402.94 1474.39 1404.48 1478.36 1405.25 1482.71ZM1395.75 1520.33 1394.08 1518.79 1392.93 1517.77 1392.41 1517.26 1390.87 1516.62 1389.33 1516.62 1387.92 1517.26 1387.28 1517.77 1384.33 1520.58 1379.19 1524.42 1376.24 1526.21 1371.24 1528.39 1369.31 1528.52 1368.54 1528.64 1367 1529.28 1366.49 1529.8 1365.98 1530.31 1365.33 1531.84 1365.33 1532.61 1365.33 1536.71 1366.62 1544 1368.67 1550.27 1371.49 1555.77 1373.03 1558.2 1334.15 1558.2 1332.22 1558.08 1328.5 1556.41 1325.55 1553.21 1323.75 1548.61 1323.62 1545.92 1323.62 1485.01 1323.75 1482.19 1325.55 1477.72 1328.5 1474.52 1332.22 1472.73 1334.02 1472.6 1385.23 1472.6 1387.15 1472.73 1390.74 1474.39 1393.82 1477.59 1395.49 1482.19 1395.75 1484.88ZM1373.42 1536.07 1373.8 1539.39 1375.34 1545.28 1377.53 1550.27 1380.22 1554.36 1381.63 1556.16 1384.97 1559.48 1387.79 1561.53 1389.08 1562.3 1389.97 1562.81 1390.1 1562.81 1390.1 1562.81 1390.23 1562.81 1390.36 1562.81 1391.26 1562.3 1392.41 1561.53 1395.36 1559.48 1398.57 1556.16 1400.11 1554.36 1402.68 1550.27 1404.99 1545.28 1406.4 1539.39 1406.79 1536.07 1404.09 1535.17 1398.96 1532.61 1396.65 1531.08 1393.05 1528.52 1390.1 1526.09 1387.28 1528.52 1383.56 1531.08 1381.38 1532.61 1376.24 1535.17Z" fill="#29B5E8" fill-rule="evenodd"/></g></svg>