<svg width="200" height="154" xmlns="http://www.w3.org/2000/svg" xmlns:xlink="http://www.w3.org/1999/xlink" xml:space="preserve" overflow="hidden"><g transform="translate(-2118 -1463)"><path d="M2135.65 1571 2132.86 1571.12 2127.89 1572.62 2124.17 1575.38 2122.16 1578.96 2122 1581.04 2122 1596.96 2122.16 1598.92 2124.17 1602.61 2127.89 1605.38 2132.86 1606.88 2135.65 1607 2300.35 1607 2303.14 1606.88 2307.95 1605.38 2311.67 1602.61 2313.69 1598.92 2314 1596.96 2314 1581.04 2313.69 1578.96 2311.67 1575.38 2307.95 1572.62 2303.14 1571.12 2300.35 1571Z" fill="#11567F" fill-rule="evenodd"/><text fill="#FFFFFF" font-family="Arial,Arial_MSFontService,sans-serif" font-weight="700" font-size="23" transform="matrix(1 0 0 1 2132.93 1597)">MATERIALIZED</text><path d="M2159 1481.88 2159 1479.9 2159.82 1476.29 2161.22 1472.79 2163.2 1469.76 2165.77 1467.2 2168.8 1465.22 2172.3 1463.82 2175.92 1463 2177.9 1463 2233.55 1463 2235.53 1463 2239.27 1463.82 2242.65 1465.22 2245.68 1467.2 2248.25 1469.76 2250.23 1472.79 2251.75 1476.29 2252.45 1479.9 2252.57 1481.88 2252.57 1488.41 2258.98 1488.41 2260.97 1488.41 2264.7 1489.23 2268.08 1490.63 2271.12 1492.73 2273.68 1495.29 2275.78 1498.32 2277.18 1501.7 2277.88 1505.32 2278 1507.3 2278 1546 2277.88 1547.98 2277.18 1551.59 2275.78 1555.09 2273.68 1558.12 2271.12 1560.69 2268.08 1562.67 2264.7 1564.07 2260.97 1564.88 2258.98 1565 2203.33 1565 2201.35 1564.88 2197.73 1564.07 2194.35 1562.67 2191.32 1560.69 2188.75 1558.12 2186.65 1555.09 2185.25 1551.59 2184.43 1547.98 2184.43 1546 2184.43 1539.47 2177.9 1539.47 2175.92 1539.47 2172.3 1538.66 2168.8 1537.26 2165.77 1535.16 2163.2 1532.59 2161.22 1529.56 2159.82 1526.18 2159 1522.57 2159 1520.59ZM2243.82 1481.88 2243.82 1488.41 2203.33 1488.41 2201.35 1488.41 2197.73 1489.23 2194.35 1490.63 2191.32 1492.73 2188.75 1495.29 2186.65 1498.32 2185.25 1501.7 2184.43 1505.32 2184.43 1507.3 2184.43 1530.73 2177.9 1530.73 2175.8 1530.61 2172.18 1529.1 2169.38 1526.3 2167.87 1522.68 2167.75 1520.59 2167.75 1481.88 2167.87 1479.79 2169.38 1476.17 2172.18 1473.37 2175.8 1471.86 2177.9 1471.74 2233.55 1471.74 2235.65 1471.86 2239.38 1473.37 2242.07 1476.17 2243.7 1479.79ZM2203.33 1497.16 2201.23 1497.27 2197.62 1498.79 2194.82 1501.58 2193.3 1505.2 2193.18 1507.3 2193.18 1510.91 2269.25 1510.91 2269.25 1507.3 2269.13 1505.2 2267.5 1501.58 2264.82 1498.79 2261.08 1497.27 2258.98 1497.16ZM2269.25 1519.65 2193.18 1519.65 2193.18 1546 2193.3 1548.1 2194.82 1551.71 2197.62 1554.51 2201.23 1556.02 2203.33 1556.26 2258.98 1556.26 2261.08 1556.02 2264.82 1554.51 2267.5 1551.71 2269.13 1548.1 2269.25 1546Z" fill="#28B5E8" fill-rule="evenodd"/></g></svg>