<svg width="148" height="164" xmlns="http://www.w3.org/2000/svg" xmlns:xlink="http://www.w3.org/1999/xlink" xml:space="preserve" overflow="hidden"><g transform="translate(-1004 -1463)"><path d="M1020.47 1575 1017.92 1575.26 1013.38 1576.92 1009.98 1579.99 1008.14 1583.96 1008 1586.26 1008 1611.86 1008.14 1614.17 1009.98 1618.14 1013.38 1621.21 1017.92 1622.87 1020.47 1623 1135.53 1623 1138.08 1622.87 1142.47 1621.21 1145.87 1618.14 1147.72 1614.17 1148 1611.86 1148 1586.26 1147.72 1583.96 1145.87 1579.99 1142.47 1576.92 1138.08 1575.26 1135.53 1575Z" fill="#11567F" fill-rule="evenodd"/><text fill="#FFFFFF" font-family="Arial,Arial_MSFontService,sans-serif" font-weight="700" font-size="23" transform="matrix(1 0 0 1 1018.54 1607)">NETWORK</text><path d="M1054.68 1484 1053.9 1484.13 1053.13 1484.9 1053 1485.55 1053 1490.45 1053.13 1491.1 1053.9 1492 1101.97 1492 1102.87 1491.1 1103 1490.45 1103 1485.55 1102.87 1484.9 1101.97 1484.13 1101.32 1484Z" fill="#29B5E8" fill-rule="evenodd"/><path d="M1054.68 1501 1053.9 1501.14 1053.13 1502.14 1053 1502.86 1053 1508.14 1053.13 1508.86 1053.9 1509.86 1054.68 1510 1101.32 1510 1101.97 1509.86 1102.87 1508.86 1103 1508.14 1103 1502.86 1102.87 1502.14 1101.97 1501.14 1101.32 1501Z" fill="#29B5E8" fill-rule="evenodd"/><path d="M1054.69 1519 1053.91 1519.13 1053.13 1519.9 1053 1520.55 1053 1525.45 1053.13 1526.1 1053.91 1527 1078.09 1527 1078.87 1526.1 1079 1525.45 1079 1520.55 1078.87 1519.9 1078.09 1519.13 1077.44 1519Z" fill="#29B5E8" fill-rule="evenodd"/><path d="M1123.37 1484.88 1123.37 1526.85 1124.91 1527.62 1127.74 1528.52 1129.02 1528.52 1129.79 1528.64 1131.2 1529.28 1132.36 1530.31 1133 1531.84 1133 1532.61 1132.87 1537.35 1131.2 1545.92 1128.38 1553.09 1124.66 1558.97 1122.73 1561.4 1120.68 1563.58 1116.7 1567.16 1114.78 1568.31 1113.11 1569.46 1111.44 1570.23 1110.03 1570.74 1108.1 1571 1106.31 1570.74 1104.77 1570.23 1103.23 1569.46 1101.43 1568.31 1101.04 1568.06 1100.53 1567.8 1052.15 1567.8 1050.1 1567.67 1046.12 1566.9 1042.52 1565.24 1039.31 1562.81 1036.49 1559.87 1034.31 1556.41 1032.9 1552.45 1032 1548.09 1032 1545.92 1032 1485.01 1032 1482.71 1032.77 1478.48 1034.31 1474.52 1036.49 1471.06 1039.19 1467.99 1042.39 1465.69 1045.99 1464.02 1049.97 1463.13 1052.02 1463 1103.23 1463 1105.28 1463.13 1109.26 1463.9 1112.85 1465.56 1116.06 1467.99 1118.75 1470.93 1120.94 1474.39 1122.48 1478.36 1123.25 1482.71ZM1113.75 1520.33 1112.08 1518.79 1110.93 1517.77 1110.41 1517.26 1108.87 1516.62 1107.33 1516.62 1105.92 1517.26 1105.28 1517.77 1102.33 1520.58 1097.19 1524.42 1094.24 1526.21 1089.24 1528.39 1087.31 1528.52 1086.54 1528.64 1085 1529.28 1084.49 1529.8 1083.98 1530.31 1083.33 1531.84 1083.33 1532.61 1083.33 1536.71 1084.62 1544 1086.67 1550.27 1089.49 1555.77 1091.03 1558.2 1052.15 1558.2 1050.22 1558.08 1046.5 1556.41 1043.55 1553.21 1041.75 1548.61 1041.62 1545.92 1041.62 1485.01 1041.75 1482.19 1043.55 1477.72 1046.5 1474.52 1050.22 1472.73 1052.02 1472.6 1103.23 1472.6 1105.15 1472.73 1108.74 1474.39 1111.82 1477.59 1113.49 1482.19 1113.75 1484.88ZM1091.42 1536.07 1091.8 1539.39 1093.34 1545.28 1095.53 1550.27 1098.22 1554.36 1099.63 1556.16 1102.97 1559.48 1105.79 1561.53 1107.08 1562.3 1107.97 1562.81 1108.1 1562.81 1108.1 1562.81 1108.23 1562.81 1108.36 1562.81 1109.26 1562.3 1110.41 1561.53 1113.36 1559.48 1116.57 1556.16 1118.11 1554.36 1120.68 1550.27 1122.99 1545.28 1124.4 1539.39 1124.79 1536.07 1122.09 1535.17 1116.96 1532.61 1114.65 1531.08 1111.05 1528.52 1108.1 1526.09 1105.28 1528.52 1101.56 1531.08 1099.38 1532.61 1094.24 1535.17Z" fill="#29B5E8" fill-rule="evenodd"/></g></svg>