<svg width="157" height="164" xmlns="http://www.w3.org/2000/svg" xmlns:xlink="http://www.w3.org/1999/xlink" xml:space="preserve" overflow="hidden"><defs><clipPath id="clip0"><rect x="424" y="1173" width="157" height="164"/></clipPath></defs><g clip-path="url(#clip0)" transform="translate(-424 -1173)"><path d="M502.935 1205 500.974 1205.13 497.314 1206.7 494.7 1209.44 493.132 1212.97 493.001 1215.07 493.132 1217.03 494.7 1220.69 497.314 1223.3 500.974 1224.87 502.935 1225 505.026 1224.87 508.555 1223.3 511.3 1220.69 512.869 1217.03 512.999 1215.07 512.869 1212.97 511.3 1209.44 508.555 1206.7 505.026 1205.13 502.935 1205Z" fill="#28B5E8" fill-rule="evenodd"/><path d="M503.436 1232 501.134 1232.13 497.17 1232.88 493.846 1234.13 491.033 1236 487.709 1239.25 484.896 1244 484.128 1246.37 484 1247.25 484.384 1248.87 485.535 1250.25 487.324 1251 519.675 1251 521.465 1250.25 522.616 1248.87 522.999 1247.25 522.872 1246.37 522.104 1244 519.291 1239.25 515.967 1236 513.026 1234.13 509.701 1232.88 505.738 1232.13 503.436 1232Z" fill="#28B5E8" fill-rule="evenodd"/><path d="M498.645 1173 498.645 1184.5 480.759 1184.5 478.842 1184.5 475.393 1185.26 472.199 1186.54 469.388 1188.46 466.961 1190.88 465.045 1193.69 463.767 1196.89 463 1200.46 463 1202.25 463 1254.24 463 1256.03 463.767 1259.48 465.045 1262.67 466.961 1265.48 469.388 1267.91 472.199 1269.83 475.393 1271.23 478.842 1272 480.759 1272 526.241 1272 528.029 1272 531.479 1271.23 534.673 1269.83 537.484 1267.91 539.911 1265.48 541.828 1262.67 543.233 1259.48 543.871 1256.03 543.999 1254.24 543.999 1202.25 543.871 1200.46 543.233 1196.89 541.828 1193.69 539.911 1190.88 537.484 1188.46 534.673 1186.54 531.479 1185.26 528.029 1184.5 526.241 1184.5 508.227 1184.5 508.227 1173ZM472.582 1202.25 472.582 1200.59 473.86 1197.65 476.159 1195.35 479.098 1194.21 480.759 1194.08 526.241 1194.08 527.902 1194.21 530.84 1195.35 533.013 1197.65 534.29 1200.59 534.418 1202.25 534.418 1254.24 534.29 1255.9 533.013 1258.84 530.84 1261.01 527.902 1262.29 526.241 1262.42 480.759 1262.42 479.098 1262.29 476.159 1261.01 473.86 1258.84 472.582 1255.9 472.582 1254.24Z" fill="#28B5E8" fill-rule="evenodd"/><path d="M435.15 1285 432.843 1285.13 428.87 1286.79 425.794 1289.86 424.128 1293.96 424 1296.26 424 1321.86 424.128 1324.04 425.794 1328.14 428.87 1331.21 432.843 1332.87 435.15 1333 569.721 1333 572.028 1332.87 576.001 1331.21 579.077 1328.14 580.743 1324.04 580.999 1321.86 580.999 1296.26 580.743 1293.96 579.077 1289.86 576.001 1286.79 572.028 1285.13 569.721 1285Z" fill="#11567F" fill-rule="evenodd"/><text fill="#FFFFFF" font-family="Arial,Arial_MSFontService,sans-serif" font-weight="700" font-size="23" transform="matrix(1 0 0 1 439.035 1317)">ORGADMIN</text></g></svg>