<svg width="136" height="138" xmlns="http://www.w3.org/2000/svg" xmlns:xlink="http://www.w3.org/1999/xlink" xml:space="preserve" overflow="hidden"><defs><clipPath id="clip0"><rect x="1863" y="1184" width="136" height="138"/></clipPath></defs><g clip-path="url(#clip0)" transform="translate(-1863 -1184)"><path d="M1903.69 1208.13 1903.95 1205.18 1906.14 1199.92 1910.02 1196.07 1915.31 1193.88 1918.28 1193.63 1950.57 1193.63 1950.57 1220.07 1950.7 1222.77 1952.63 1227.39 1956.12 1230.86 1960.77 1232.78 1963.48 1232.91 1989.31 1232.91 1989.31 1297.99 1989.06 1300.82 1986.86 1306.08 1982.86 1309.93 1977.69 1312.12 1974.72 1312.37 1918.28 1312.37 1915.31 1312.12 1910.02 1309.93 1906.14 1306.08 1903.95 1300.82 1903.69 1297.99ZM1986.86 1223.28 1986.08 1222.13 1985.05 1221.1 1962.45 1197.99 1961.42 1196.97 1960.25 1196.07 1960.25 1220.07 1960.38 1221.36 1962.06 1223.15 1963.48 1223.28ZM1918.28 1184 1915.7 1184.13 1911.05 1185.03 1906.66 1186.82 1902.78 1189.52 1899.55 1192.73 1896.84 1196.58 1895.03 1200.94 1894.13 1205.57 1894 1208.13 1894 1297.99 1894.13 1300.43 1895.03 1305.05 1896.84 1309.42 1899.55 1313.27 1902.78 1316.48 1906.66 1319.18 1911.05 1320.97 1915.7 1321.87 1918.28 1322 1974.72 1322 1977.17 1321.87 1981.95 1320.97 1986.34 1319.18 1990.09 1316.48 1993.45 1313.27 1996.03 1309.42 1997.84 1305.05 1998.87 1300.43 1999 1297.99 1999 1231.11 1998.87 1228.8 1997.97 1224.31 1996.16 1219.94 1993.58 1216.09 1992.03 1214.3 1969.29 1191.19 1967.62 1189.52 1963.61 1186.82 1959.22 1185.03 1954.44 1184.13 1951.99 1184Z" fill="#28B5E8" fill-rule="evenodd"/><path d="M1877.24 1250 1874.94 1250.13 1870.85 1251.79 1867.79 1254.86 1866.13 1258.83 1866 1261.14 1866 1286.74 1866.13 1289.04 1867.79 1293.01 1870.85 1296.08 1874.94 1297.74 1877.24 1298 1961.76 1298 1964.06 1297.74 1968.02 1296.08 1971.08 1293.01 1972.74 1289.04 1973 1286.74 1973 1261.14 1972.74 1258.83 1971.08 1254.86 1968.02 1251.79 1964.06 1250.13 1961.76 1250Z" fill="#11567F" fill-rule="evenodd"/><text fill="#FFFFFF" font-family="Arial,Arial_MSFontService,sans-serif" font-weight="700" font-size="18" transform="matrix(1 0 0 1 1874.61 1281)">PARQUET</text></g></svg>