<svg width="113" height="74" xmlns="http://www.w3.org/2000/svg" xmlns:xlink="http://www.w3.org/1999/xlink" xml:space="preserve" overflow="hidden"><g transform="translate(-2447 -374)"><path d="M2560 410.953 2560 410.666 2560 410.38 2560 407.228 2559.52 400.927 2558.56 394.911 2557.11 389.278 2556.25 386.795 2555.19 384.313 2552.59 379.825 2549.04 376.292 2545.86 374.574 2543.36 374.096 2542.02 374.001 2465.08 374.001 2463.73 374.096 2461.23 374.574 2458.06 376.292 2454.5 379.825 2451.91 384.313 2450.85 386.795 2449.98 389.374 2448.54 395.102 2447.58 401.308 2447.1 407.802 2447 410.953 2447.1 414.199 2447.58 420.692 2448.54 426.898 2449.98 432.627 2450.85 435.205 2451.91 437.688 2454.5 442.176 2458.06 445.708 2461.23 447.427 2463.73 447.904 2465.08 448 2541.92 448 2542.02 448 2542.02 448 2542.11 448 2542.11 448 2543.46 447.904 2545.86 447.332 2549.13 445.708 2552.59 442.176 2555.19 437.688 2556.25 435.205 2557.11 432.723 2558.56 427.089 2559.52 421.074 2560 414.772 2560 411.621 2560 411.335ZM2542.02 440.839 2541.34 440.743 2539.8 440.075 2538.94 439.216 2537.98 438.165 2536.05 435.205 2535.09 433.2 2534.23 431.099 2532.78 426.134 2531.82 420.501 2531.25 414.295 2531.15 410.953 2531.25 407.706 2531.82 401.5 2532.78 395.866 2534.23 390.901 2535.09 388.8 2536.05 386.795 2537.98 383.835 2538.94 382.785 2539.9 381.926 2541.44 381.162 2542.02 381.162 2542.59 381.162 2544.13 381.926 2545.09 382.785 2546.05 383.835 2547.98 386.795 2548.94 388.8 2549.71 390.901 2551.15 395.675 2552.21 401.213 2552.79 407.228 2552.79 410.475 2552.79 410.761 2552.79 410.953 2552.79 411.239 2552.79 411.525 2552.79 414.772 2552.21 420.787 2551.15 426.325 2549.71 431.099 2548.94 433.2 2547.98 435.205 2546.05 438.165 2545.09 439.216 2544.23 440.075 2542.69 440.743 2542.02 440.839 2542.02 440.839 2542.02 440.839ZM2531.05 381.162 2529.71 383.454 2528.46 385.936 2527.49 388.514 2525.76 394.243 2524.61 400.545 2524.03 407.42 2523.94 410.953 2524.03 414.581 2524.61 421.456 2525.76 427.758 2527.49 433.486 2528.46 436.064 2529.71 438.547 2531.05 440.839 2465.08 440.839 2464.21 440.743 2462.29 439.884 2460.37 437.974 2458.54 434.823 2457.68 432.723 2456.81 430.526 2455.56 425.466 2454.41 417.063 2454.21 410.953 2454.41 404.937 2455.56 396.535 2456.81 391.474 2457.68 389.278 2458.54 387.177 2460.37 384.026 2462.29 382.117 2464.21 381.257 2465.08 381.162Z" fill="#29B5E8" fill-rule="evenodd"/></g></svg>