<svg width="128" height="128" xmlns="http://www.w3.org/2000/svg" xmlns:xlink="http://www.w3.org/1999/xlink" xml:space="preserve" overflow="hidden"><defs><clipPath id="clip0"><rect x="161" y="1463" width="128" height="128"/></clipPath></defs><g clip-path="url(#clip0)" transform="translate(-161 -1463)"><path d="M183.978 1488 183.122 1488.84 183 1489.44 183 1495.44 183.122 1496.04 183.978 1496.88 184.589 1497 236.533 1497 237.144 1496.88 238 1496.04 238 1495.44 238 1489.44 238 1488.84 237.144 1488Z" fill="#29B5E8" fill-rule="evenodd"/><path d="M184.589 1510 183.978 1510.12 183.122 1510.96 183 1511.56 183 1517.56 183.122 1518.16 183.978 1519 237.144 1519 238 1518.16 238 1517.56 238 1511.56 238 1510.96 237.144 1510.12 236.533 1510Z" fill="#29B5E8" fill-rule="evenodd"/><path d="M184.594 1531 183.981 1531.12 183.122 1531.84 183 1532.44 183 1538.44 183.122 1539.04 183.981 1539.88 184.594 1540 213.406 1540 214.019 1539.88 214.877 1539.04 215 1538.44 215 1532.44 214.877 1531.84 214.019 1531.12 213.406 1531Z" fill="#29B5E8" fill-rule="evenodd"/><path d="M161 1487.37 161 1557.58 161.12 1560.12 161.966 1564.82 163.656 1569.16 166.071 1573.02 168.97 1576.4 172.472 1578.94 176.457 1580.87 180.683 1581.83 182.977 1581.83 238.766 1581.83 239.973 1581.83 241.301 1581.71 245.045 1585.21 248.668 1587.62 250.962 1589.07 252.894 1589.91 254.826 1590.76 257 1591 259.294 1590.76 261.105 1589.91 263.158 1589.07 265.453 1587.62 267.868 1586.05 273.06 1581.47 275.717 1578.57 278.252 1575.44 283.083 1567.84 286.705 1558.55 288.396 1550.46 288.999 1544.55 288.999 1541.42 288.999 1540.45 288.275 1538.76 287.067 1537.56 285.377 1536.83 284.532 1536.83 283.203 1536.71 280.064 1535.99 274.871 1533.57 271.128 1531.16 264.607 1526.46 260.622 1522.84 260.622 1487.37 260.622 1484.84 259.656 1480.01 257.966 1475.67 255.671 1471.81 252.652 1468.55 249.151 1465.9 245.287 1464.09 240.939 1463.12 238.645 1463 182.977 1463 180.683 1463.12 176.336 1464.09 172.472 1466.02 168.97 1468.55 165.951 1471.93 163.656 1475.79 161.966 1480.13 161.12 1484.96ZM242.992 1531.16 247.822 1527.78 251.566 1524.65 251.445 1487.37 251.445 1485.56 250.841 1482.42 249.151 1478.32 245.528 1474.46 241.06 1472.29 238.645 1472.17 182.977 1472.17 180.562 1472.41 176.094 1474.46 172.472 1478.44 170.781 1482.54 170.177 1485.68 170.177 1487.37 170.177 1557.58 170.177 1559.27 170.781 1562.41 172.592 1566.51 176.215 1570.49 180.683 1572.54 182.977 1572.78 233.936 1572.66 232.124 1569.77 228.864 1562.89 226.449 1555.05 225.121 1546.24 225 1541.42 225.121 1540.45 225.725 1538.76 226.328 1538.16 227.053 1537.56 228.743 1536.83 229.589 1536.83 230.917 1536.71 233.936 1535.99 239.249 1533.57ZM245.287 1572.66 243.355 1570.25 239.732 1564.7 236.713 1557.82 234.781 1549.86 234.298 1545.4 238.041 1544.31 244.924 1540.81 248.064 1538.76 253.135 1535.26 257 1531.89 260.985 1535.26 266.056 1538.76 269.075 1540.81 276.079 1544.31 279.822 1545.4 279.339 1549.86 277.287 1557.82 274.388 1564.7 270.766 1570.25 268.834 1572.66 266.54 1575.08 262.434 1578.69 260.502 1579.9 258.811 1580.99 257.483 1581.59 257.362 1581.59 257.121 1581.71 257.121 1581.71 257 1581.71 256.879 1581.71 256.517 1581.59 255.309 1580.99 253.619 1579.9 251.687 1578.69 247.46 1575.08Z" fill="#29B5E8" fill-rule="evenodd"/></g></svg>