<svg width="124" height="164" xmlns="http://www.w3.org/2000/svg" xmlns:xlink="http://www.w3.org/1999/xlink" xml:space="preserve" overflow="hidden"><defs><clipPath id="clip0"><rect x="1870" y="1173" width="124" height="164"/></clipPath></defs><g clip-path="url(#clip0)" transform="translate(-1870 -1173)"><path d="M1931.93 1205 1929.97 1205.13 1926.31 1206.7 1923.7 1209.44 1922.13 1212.97 1922 1215.07 1922.13 1217.03 1923.7 1220.69 1926.31 1223.3 1929.97 1224.87 1931.93 1225 1934.03 1224.87 1937.56 1223.3 1940.3 1220.69 1941.87 1217.03 1942 1215.07 1941.87 1212.97 1940.3 1209.44 1937.56 1206.7 1934.03 1205.13 1931.93 1205Z" fill="#28B5E8" fill-rule="evenodd"/><path d="M1931.44 1232 1929.13 1232.13 1925.17 1232.88 1921.85 1234.13 1919.03 1236 1915.71 1239.25 1912.9 1244 1912.13 1246.37 1912 1247.25 1912.38 1248.87 1913.53 1250.25 1915.32 1251 1947.67 1251 1949.47 1250.25 1950.62 1248.87 1951 1247.25 1950.87 1246.37 1950.1 1244 1947.29 1239.25 1943.97 1236 1941.03 1234.13 1937.7 1232.88 1933.74 1232.13 1931.44 1232Z" fill="#28B5E8" fill-rule="evenodd"/><path d="M1927.08 1173 1927.08 1184.5 1908.98 1184.5 1907.04 1184.5 1903.55 1185.26 1900.31 1186.54 1897.47 1188.46 1895.01 1190.88 1893.07 1193.69 1891.78 1196.89 1891 1200.46 1891 1202.25 1891 1254.24 1891 1256.03 1891.78 1259.48 1893.07 1262.67 1895.01 1265.48 1897.47 1267.91 1900.31 1269.83 1903.55 1271.23 1907.04 1272 1908.98 1272 1955.02 1272 1956.83 1272 1960.32 1271.23 1963.56 1269.83 1966.4 1267.91 1968.86 1265.48 1970.8 1262.67 1972.22 1259.48 1972.87 1256.03 1973 1254.24 1973 1202.25 1972.87 1200.46 1972.22 1196.89 1970.8 1193.69 1968.86 1190.88 1966.4 1188.46 1963.56 1186.54 1960.32 1185.26 1956.83 1184.5 1955.02 1184.5 1936.79 1184.5 1936.79 1173ZM1900.7 1202.25 1900.7 1200.59 1901.99 1197.65 1904.32 1195.35 1907.3 1194.21 1908.98 1194.08 1955.02 1194.08 1956.7 1194.21 1959.68 1195.35 1961.88 1197.65 1963.17 1200.59 1963.3 1202.25 1963.3 1254.24 1963.17 1255.9 1961.88 1258.84 1959.68 1261.01 1956.7 1262.29 1955.02 1262.42 1908.98 1262.42 1907.3 1262.29 1904.32 1261.01 1901.99 1258.84 1900.7 1255.9 1900.7 1254.24Z" fill="#28B5E8" fill-rule="evenodd"/><path d="M1881.33 1285 1879.01 1285.13 1874.89 1286.79 1871.8 1289.86 1870.13 1293.96 1870 1296.26 1870 1321.86 1870.13 1324.04 1871.8 1328.14 1874.89 1331.21 1879.01 1332.87 1881.33 1333 1982.67 1333 1984.99 1332.87 1988.98 1331.21 1992.07 1328.14 1993.74 1324.04 1994 1321.86 1994 1296.26 1993.74 1293.96 1992.07 1289.86 1988.98 1286.79 1984.99 1285.13 1982.67 1285Z" fill="#11567F" fill-rule="evenodd"/><text fill="#FFFFFF" font-family="Arial,Arial_MSFontService,sans-serif" font-weight="700" font-size="23" transform="matrix(1 0 0 1 1889.44 1317)">PUBLIC</text></g></svg>