<svg width="112" height="140" xmlns="http://www.w3.org/2000/svg" xmlns:xlink="http://www.w3.org/1999/xlink" xml:space="preserve" overflow="hidden"><defs><clipPath id="clip0"><rect x="161" y="1173" width="112" height="140"/></clipPath></defs><g clip-path="url(#clip0)" transform="translate(-161 -1173)"><path d="M217 1219 214.175 1219.13 209.037 1221.31 205.312 1225.04 203.129 1230.05 203 1233 203.129 1235.83 205.312 1240.84 209.037 1244.69 214.175 1246.74 217 1247 219.826 1246.74 224.834 1244.69 228.687 1240.84 230.743 1235.83 230.999 1233 230.743 1230.05 228.687 1225.04 224.834 1221.31 219.826 1219.13 217 1219Z" fill="#28B5E8" fill-rule="evenodd"/><path d="M216.936 1257 213.733 1257.13 207.966 1258.16 203.097 1260.1 199.124 1262.81 195.792 1265.9 193.229 1269.39 190.41 1274.68 189.257 1278.03 189 1279.45 189.641 1281.9 191.307 1283.84 193.742 1284.87 195.279 1285 238.849 1285 240.258 1284.87 242.693 1283.84 244.488 1281.9 245 1279.45 244.743 1278.03 243.718 1274.68 240.771 1269.39 238.208 1265.9 234.877 1262.81 230.776 1260.1 225.906 1258.16 220.139 1257.13 216.936 1257Z" fill="#28B5E8" fill-rule="evenodd"/><path d="M212.072 1173 212.072 1191.46 184.296 1191.46 181.993 1191.59 177.384 1192.49 173.16 1194.28 169.449 1196.85 166.248 1200.05 163.688 1203.77 161.896 1208 161.001 1212.49 161.001 1214.92 161.001 1289.54 161.001 1291.97 161.896 1296.59 163.688 1300.69 166.248 1304.54 169.449 1307.62 173.16 1310.18 177.384 1311.97 181.993 1312.87 184.296 1313 249.576 1313 251.88 1312.87 256.488 1311.97 260.712 1310.18 264.424 1307.62 267.624 1304.54 270.184 1300.69 271.976 1296.59 272.872 1291.97 273 1289.54 273 1214.92 272.872 1212.49 271.976 1208 270.184 1203.77 267.624 1200.05 264.424 1196.85 260.712 1194.28 256.488 1192.49 251.88 1191.59 249.576 1191.46 221.672 1191.46 221.672 1173ZM170.601 1214.92 170.728 1212.1 172.776 1207.23 176.616 1203.38 181.48 1201.33 184.296 1201.08 249.576 1201.08 252.392 1201.33 257.256 1203.38 261.096 1207.23 263.144 1212.1 263.4 1214.92 263.4 1289.54 263.144 1292.36 261.096 1297.36 257.256 1301.08 252.392 1303.26 249.576 1303.38 184.296 1303.38 181.48 1303.26 176.616 1301.08 172.776 1297.36 170.728 1292.36 170.601 1289.54Z" fill="#28B5E8" fill-rule="evenodd"/></g></svg>