<svg width="187" height="164" xmlns="http://www.w3.org/2000/svg" xmlns:xlink="http://www.w3.org/1999/xlink" xml:space="preserve" overflow="hidden"><g transform="translate(-409 -1463)"><path d="M425.656 1575 422.249 1575.26 416.193 1576.92 411.649 1579.99 409.189 1583.96 409 1586.26 409 1611.86 409.189 1614.17 411.649 1618.14 416.193 1621.21 422.249 1622.87 425.656 1623 579.344 1623 582.75 1622.87 588.617 1621.21 593.161 1618.14 595.621 1614.17 595.999 1611.86 595.999 1586.26 595.621 1583.96 593.161 1579.99 588.617 1576.92 582.75 1575.26 579.344 1575Z" fill="#11567F" fill-rule="evenodd"/><text fill="#FFFFFF" font-family="Arial,Arial_MSFontService,sans-serif" font-weight="700" font-size="23" transform="matrix(1 0 0 1 423.288 1607)">ROW ACCESS</text><path d="M479.676 1484 478.903 1484.13 478.13 1484.9 478.001 1485.55 478.001 1490.45 478.13 1491.1 478.903 1492 526.969 1492 527.87 1491.1 528 1490.45 528 1485.55 527.87 1484.9 526.969 1484.13 526.324 1484Z" fill="#29B5E8" fill-rule="evenodd"/><path d="M479.676 1501 478.903 1501.14 478.13 1502.14 478.001 1502.86 478.001 1508.14 478.13 1508.86 478.903 1509.86 479.676 1510 526.324 1510 526.969 1509.86 527.87 1508.86 528 1508.14 528 1502.86 527.87 1502.14 526.969 1501.14 526.324 1501Z" fill="#29B5E8" fill-rule="evenodd"/><path d="M479.626 1519 478.876 1519.13 478.126 1519.9 478.001 1520.55 478.001 1525.45 478.126 1526.1 478.876 1527 502.124 1527 502.874 1526.1 502.999 1525.45 502.999 1520.55 502.874 1519.9 502.124 1519.13 501.499 1519Z" fill="#29B5E8" fill-rule="evenodd"/><path d="M548.374 1484.88 548.374 1526.85 549.914 1527.62 552.738 1528.52 554.021 1528.52 554.791 1528.64 556.203 1529.28 557.358 1530.31 558 1531.84 558 1532.61 557.871 1537.35 556.203 1545.92 553.379 1553.09 549.658 1558.97 547.732 1561.4 545.68 1563.58 541.701 1567.16 539.776 1568.31 538.108 1569.46 536.439 1570.23 535.028 1570.74 533.102 1571 531.306 1570.74 529.766 1570.23 528.226 1569.46 526.429 1568.31 526.044 1568.06 525.531 1567.8 477.149 1567.8 475.095 1567.67 471.117 1566.9 467.524 1565.24 464.315 1562.81 461.491 1559.87 459.31 1556.41 457.898 1552.45 457 1548.09 457 1545.92 457 1485.01 457 1482.71 457.77 1478.48 459.31 1474.52 461.491 1471.06 464.187 1467.99 467.395 1465.69 470.988 1464.02 474.967 1463.13 477.02 1463 528.226 1463 530.279 1463.13 534.258 1463.9 537.851 1465.56 541.059 1467.99 543.754 1470.93 545.936 1474.39 547.476 1478.36 548.246 1482.71ZM538.749 1520.33 537.081 1518.79 535.926 1517.77 535.412 1517.26 533.872 1516.62 532.332 1516.62 530.921 1517.26 530.279 1517.77 527.327 1520.58 522.194 1524.42 519.242 1526.21 514.237 1528.39 512.312 1528.52 511.542 1528.64 510.002 1529.28 509.489 1529.8 508.976 1530.31 508.334 1531.84 508.334 1532.61 508.334 1536.71 509.617 1544 511.671 1550.27 514.494 1555.77 516.034 1558.2 477.149 1558.2 475.223 1558.08 471.502 1556.41 468.55 1553.21 466.754 1548.61 466.625 1545.92 466.625 1485.01 466.754 1482.19 468.55 1477.72 471.502 1474.52 475.223 1472.73 477.02 1472.6 528.226 1472.6 530.151 1472.73 533.744 1474.39 536.824 1477.59 538.493 1482.19 538.749 1484.88ZM516.419 1536.07 516.804 1539.39 518.344 1545.28 520.526 1550.27 523.221 1554.36 524.632 1556.16 527.969 1559.48 530.793 1561.53 532.076 1562.3 532.974 1562.81 533.102 1562.81 533.102 1562.81 533.231 1562.81 533.36 1562.81 534.258 1562.3 535.412 1561.53 538.364 1559.48 541.573 1556.16 543.113 1554.36 545.68 1550.27 547.99 1545.28 549.401 1539.39 549.786 1536.07 547.091 1535.17 541.957 1532.61 539.648 1531.08 536.054 1528.52 533.102 1526.09 530.279 1528.52 526.557 1531.08 524.376 1532.61 519.242 1535.17Z" fill="#29B5E8" fill-rule="evenodd"/></g></svg>