<svg width="136" height="158" xmlns="http://www.w3.org/2000/svg" xmlns:xlink="http://www.w3.org/1999/xlink" xml:space="preserve" overflow="hidden"><g transform="translate(-385 -636)"><path d="M448.794 636.001 445.727 636.642 441.255 638.566 436.654 642.799 434.354 647.032 433.46 650.111 433.204 651.778 431.543 668.326 431.415 668.967 430.52 669.736 429.881 669.865 418.508 669.865 417.614 670.763 417.486 671.404 417.486 676.663 417.614 677.305 418.508 678.202 419.147 678.331 429.498 678.331 430.392 679.357 430.392 679.998 427.198 712.452 426.814 714.119 425.409 717.07 422.981 719.25 419.914 720.405 418.252 720.533 417.741 720.533 416.208 720.405 413.396 719.379 411.224 717.583 409.818 715.145 409.435 713.735 409.18 713.093 408.285 712.196 407.646 712.067 402.534 712.067 401.768 712.196 401.001 713.093 401.001 713.735 401.384 716.813 404.195 722.329 408.668 726.434 414.419 728.742 417.741 728.999 419.914 728.999 423.109 728.358 427.453 726.434 432.054 722.201 434.354 718.096 435.248 714.889 435.504 713.222 438.826 679.742 438.954 679.101 439.849 678.331 456.334 678.331 458.89 678.459 463.745 680.64 465.663 682.436 474.863 692.826 475.247 693.339 475.247 694.494 474.863 695.007 457.74 712.196 457.356 712.709 457.356 713.991 457.74 714.505 461.445 718.224 461.956 718.609 463.106 718.609 463.617 718.224 480.358 701.421 480.869 701.035 482.147 701.035 482.659 701.421 497.354 717.967 497.865 718.353 499.143 718.481 499.655 718.096 503.488 714.505 503.871 714.119 503.999 712.836 503.616 712.323 488.536 695.391 488.153 694.878 488.153 693.595 488.536 693.211 503.488 678.202 503.871 677.689 503.871 676.407 503.488 675.893 499.782 672.174 499.271 671.789 497.993 671.789 497.482 672.174 483.042 686.797 482.531 687.182 481.253 687.054 480.741 686.669 471.924 676.792 470.39 675.253 466.813 672.558 462.851 670.763 458.506 669.865 441.638 669.865 440.872 669.736 440.105 668.71 439.977 668.069 441.51 652.676 441.766 650.881 443.299 647.93 445.727 645.75 448.794 644.595 450.583 644.467 451.478 644.467 452.883 644.595 455.567 645.493 457.74 647.417 459.145 649.854 459.401 651.265 459.656 651.907 460.551 652.804 461.19 652.804 466.429 652.933 467.068 652.933 467.835 652.034 467.963 651.394 467.452 648.186 464.768 642.671 460.423 638.566 456.206 636.642 453.011 636.001Z" fill="#28B5E8" fill-rule="evenodd"/><path d="M396.259 742 393.956 742.128 389.862 743.792 386.791 746.865 385.128 750.961 385 753.265 385 778.864 385.128 781.04 386.791 785.136 389.862 788.208 393.956 789.872 396.259 790 509.741 790 512.044 789.872 516.01 788.208 519.081 785.136 520.744 781.04 520.999 778.864 520.999 753.265 520.744 750.961 519.081 746.865 516.01 743.792 512.044 742.128 509.741 742Z" fill="#11567F" fill-rule="evenodd"/><text fill="#FFFFFF" font-family="Arial,Arial_MSFontService,sans-serif" font-weight="700" font-size="23" transform="matrix(1 0 0 1 405.305 774)">SCALAR</text></g></svg>