<svg width="117" height="94" xmlns="http://www.w3.org/2000/svg" xmlns:xlink="http://www.w3.org/1999/xlink" xml:space="preserve" overflow="hidden"><g transform="translate(-730 -364)"><path d="M730 382.716 730.106 380.823 730.846 377.143 732.221 373.778 734.232 370.835 736.876 368.206 739.838 366.209 743.224 364.842 746.926 364.105 748.83 364 828.17 364 830.073 364.105 833.777 364.842 837.161 366.209 840.229 368.206 842.768 370.835 844.778 373.778 846.259 377.143 846.999 380.823 846.999 382.716 846.999 384.609 846.259 388.289 844.778 391.653 842.768 394.703 840.229 397.226 837.161 399.224 833.777 400.696 830.073 401.432 828.17 401.432 758.456 401.432 758.456 423.828 758.562 426.246 760.361 430.452 763.64 433.711 767.871 435.499 770.305 435.604 779.932 435.604 780.355 434.027 781.518 430.978 783.105 428.244 785.22 425.931 787.654 423.828 790.404 422.25 793.472 421.199 796.751 420.568 798.444 420.568 828.17 420.568 830.073 420.568 833.777 421.304 837.161 422.776 840.229 424.774 842.768 427.298 844.778 430.347 846.259 433.711 846.999 437.286 846.999 439.284 846.999 441.177 846.259 444.857 844.778 448.221 842.768 451.165 840.229 453.689 837.161 455.687 833.777 457.158 830.073 457.895 828.17 458 798.444 458 796.751 457.895 793.577 457.369 790.616 456.317 787.865 454.74 785.432 452.848 783.422 450.535 781.73 447.906 780.46 445.067 780.037 443.49 770.305 443.49 768.294 443.49 764.381 442.649 760.89 441.177 757.716 439.073 754.966 436.34 752.85 433.186 751.369 429.716 750.523 425.826 750.523 423.828 750.523 401.432 748.83 401.432 746.926 401.432 743.224 400.696 739.838 399.224 736.876 397.226 734.232 394.703 732.221 391.653 730.846 388.289 730.106 384.609ZM748.83 371.886 746.609 371.991 742.695 373.674 739.732 376.617 738.04 380.508 737.934 382.716 738.04 384.924 739.732 388.814 742.695 391.759 746.609 393.441 748.83 393.546 828.17 393.546 830.391 393.441 834.305 391.759 837.267 388.814 838.96 384.924 839.065 382.716 838.96 380.508 837.267 376.617 834.305 373.674 830.391 371.991 828.17 371.886ZM798.444 428.454 796.222 428.559 792.308 430.241 789.346 433.186 787.654 437.076 787.548 439.284 787.654 441.492 789.346 445.382 792.308 448.326 796.222 449.904 798.444 450.114 828.17 450.114 830.391 449.904 834.305 448.326 837.267 445.382 838.96 441.492 839.065 439.284 838.96 437.076 837.267 433.186 834.305 430.241 830.391 428.559 828.17 428.454Z" fill="#28B5E8" fill-rule="evenodd"/></g></svg>