<svg width="125" height="154" xmlns="http://www.w3.org/2000/svg" xmlns:xlink="http://www.w3.org/1999/xlink" xml:space="preserve" overflow="hidden"><g transform="translate(-1870 -1463)"><path d="M1886.25 1571 1883.95 1571.12 1879.86 1572.62 1876.79 1575.38 1875.13 1578.96 1875 1581.04 1875 1596.96 1875.13 1598.92 1876.79 1602.61 1879.86 1605.38 1883.95 1606.88 1886.25 1607 1978.88 1607 1981.05 1606.88 1985.14 1605.38 1988.21 1602.61 1989.87 1598.92 1990 1596.96 1990 1581.04 1989.87 1578.96 1988.21 1575.38 1985.14 1572.62 1981.05 1571.12 1978.88 1571Z" fill="#11567F" fill-rule="evenodd"/><text fill="#FFFFFF" font-family="Arial,Arial_MSFontService,sans-serif" font-weight="700" font-size="23" transform="matrix(1 0 0 1 1884.22 1597)">SECURE</text><path d="M1873 1481.88 1873 1479.9 1873.82 1476.29 1875.22 1472.79 1877.2 1469.76 1879.77 1467.2 1882.8 1465.22 1886.3 1463.82 1889.92 1463 1891.9 1463 1947.55 1463 1949.53 1463 1953.27 1463.82 1956.65 1465.22 1959.68 1467.2 1962.25 1469.76 1964.23 1472.79 1965.75 1476.29 1966.45 1479.9 1966.57 1481.88 1966.57 1488.41 1972.98 1488.41 1974.97 1488.41 1978.7 1489.23 1982.08 1490.63 1985.12 1492.73 1987.68 1495.29 1989.78 1498.32 1991.18 1501.7 1991.88 1505.32 1992 1507.3 1992 1546 1991.88 1547.98 1991.18 1551.59 1989.78 1555.09 1987.68 1558.12 1985.12 1560.69 1982.08 1562.67 1978.7 1564.07 1974.97 1564.88 1972.98 1565 1917.33 1565 1915.35 1564.88 1911.73 1564.07 1908.35 1562.67 1905.32 1560.69 1902.75 1558.12 1900.65 1555.09 1899.25 1551.59 1898.43 1547.98 1898.43 1546 1898.43 1539.47 1891.9 1539.47 1889.92 1539.47 1886.3 1538.66 1882.8 1537.26 1879.77 1535.16 1877.2 1532.59 1875.22 1529.56 1873.82 1526.18 1873 1522.57 1873 1520.59ZM1957.82 1481.88 1957.82 1488.41 1917.33 1488.41 1915.35 1488.41 1911.73 1489.23 1908.35 1490.63 1905.32 1492.73 1902.75 1495.29 1900.65 1498.32 1899.25 1501.7 1898.43 1505.32 1898.43 1507.3 1898.43 1530.73 1891.9 1530.73 1889.8 1530.61 1886.18 1529.1 1883.38 1526.3 1881.87 1522.68 1881.75 1520.59 1881.75 1481.88 1881.87 1479.79 1883.38 1476.17 1886.18 1473.37 1889.8 1471.86 1891.9 1471.74 1947.55 1471.74 1949.65 1471.86 1953.38 1473.37 1956.07 1476.17 1957.7 1479.79ZM1917.33 1497.16 1915.23 1497.27 1911.62 1498.79 1908.82 1501.58 1907.3 1505.2 1907.18 1507.3 1907.18 1510.91 1983.25 1510.91 1983.25 1507.3 1983.13 1505.2 1981.5 1501.58 1978.82 1498.79 1975.08 1497.27 1972.98 1497.16ZM1983.25 1519.65 1907.18 1519.65 1907.18 1546 1907.3 1548.1 1908.82 1551.71 1911.62 1554.51 1915.23 1556.02 1917.33 1556.26 1972.98 1556.26 1975.08 1556.02 1978.82 1554.51 1981.5 1551.71 1983.13 1548.1 1983.25 1546Z" fill="#28B5E8" fill-rule="evenodd"/></g></svg>