<svg width="220" height="164" xmlns="http://www.w3.org/2000/svg" xmlns:xlink="http://www.w3.org/1999/xlink" xml:space="preserve" overflow="hidden"><defs><clipPath id="clip0"><rect x="968" y="1173" width="220" height="164"/></clipPath></defs><g clip-path="url(#clip0)" transform="translate(-968 -1173)"><path d="M1079.94 1205 1077.97 1205.13 1074.31 1206.7 1071.7 1209.44 1070.13 1212.97 1070 1215.07 1070.13 1217.03 1071.7 1220.69 1074.31 1223.3 1077.97 1224.87 1079.94 1225 1082.03 1224.87 1085.56 1223.3 1088.3 1220.69 1089.87 1217.03 1090 1215.07 1089.87 1212.97 1088.3 1209.44 1085.56 1206.7 1082.03 1205.13 1079.94 1205Z" fill="#28B5E8" fill-rule="evenodd"/><path d="M1080.44 1232 1078.13 1232.13 1074.17 1232.88 1070.85 1234.13 1068.03 1236 1064.71 1239.25 1061.9 1244 1061.13 1246.37 1061 1247.25 1061.38 1248.87 1062.54 1250.25 1064.32 1251 1096.67 1251 1098.46 1250.25 1099.62 1248.87 1100 1247.25 1099.87 1246.37 1099.1 1244 1096.29 1239.25 1092.97 1236 1090.03 1234.13 1086.7 1232.88 1082.74 1232.13 1080.44 1232Z" fill="#28B5E8" fill-rule="evenodd"/><path d="M1075.64 1173 1075.64 1184.5 1057.76 1184.5 1055.84 1184.5 1052.39 1185.26 1049.2 1186.54 1046.39 1188.46 1043.96 1190.88 1042.04 1193.69 1040.77 1196.89 1040 1200.46 1040 1202.25 1040 1254.24 1040 1256.03 1040.77 1259.48 1042.04 1262.67 1043.96 1265.48 1046.39 1267.91 1049.2 1269.83 1052.39 1271.23 1055.84 1272 1057.76 1272 1103.24 1272 1105.03 1272 1108.48 1271.23 1111.67 1269.83 1114.48 1267.91 1116.91 1265.48 1118.83 1262.67 1120.23 1259.48 1120.87 1256.03 1121 1254.24 1121 1202.25 1120.87 1200.46 1120.23 1196.89 1118.83 1193.69 1116.91 1190.88 1114.48 1188.46 1111.67 1186.54 1108.48 1185.26 1105.03 1184.5 1103.24 1184.5 1085.23 1184.5 1085.23 1173ZM1049.58 1202.25 1049.58 1200.59 1050.86 1197.65 1053.16 1195.35 1056.1 1194.21 1057.76 1194.08 1103.24 1194.08 1104.9 1194.21 1107.84 1195.35 1110.01 1197.65 1111.29 1200.59 1111.42 1202.25 1111.42 1254.24 1111.29 1255.9 1110.01 1258.84 1107.84 1261.01 1104.9 1262.29 1103.24 1262.42 1057.76 1262.42 1056.1 1262.29 1053.16 1261.01 1050.86 1258.84 1049.58 1255.9 1049.58 1254.24Z" fill="#28B5E8" fill-rule="evenodd"/><path d="M990.488 1285 987.49 1285.13 982.328 1286.79 978.331 1289.86 976.167 1293.96 976 1296.26 976 1321.86 976.167 1324.04 978.331 1328.14 982.328 1331.21 987.49 1332.87 990.488 1333 1165.34 1333 1168.34 1332.87 1173.5 1331.21 1177.5 1328.14 1179.67 1324.04 1180 1321.86 1180 1296.26 1179.67 1293.96 1177.5 1289.86 1173.5 1286.79 1168.34 1285.13 1165.34 1285Z" fill="#11567F" fill-rule="evenodd"/><text fill="#FFFFFF" font-family="Arial,Arial_MSFontService,sans-serif" font-weight="700" font-size="23" transform="matrix(1 0 0 1 982.153 1317)">SECURITYADMIN</text></g></svg>