<svg width="141" height="164" xmlns="http://www.w3.org/2000/svg" xmlns:xlink="http://www.w3.org/1999/xlink" xml:space="preserve" overflow="hidden"><g transform="translate(-718 -1463)"><path d="M730.559 1575 727.99 1575.26 723.423 1576.92 719.998 1579.99 718.143 1583.96 718 1586.26 718 1611.86 718.143 1614.17 719.998 1618.14 723.423 1621.21 727.99 1622.87 730.559 1623 846.441 1623 849.01 1622.87 853.433 1621.21 856.859 1618.14 858.714 1614.17 858.999 1611.86 858.999 1586.26 858.714 1583.96 856.859 1579.99 853.433 1576.92 849.01 1575.26 846.441 1575Z" fill="#11567F" fill-rule="evenodd"/><text fill="#FFFFFF" font-family="Arial,Arial_MSFontService,sans-serif" font-weight="700" font-size="23" transform="matrix(1 0 0 1 737.262 1607)">SESSION</text><path d="M765.642 1484 764.885 1484.13 764.127 1484.9 764.001 1485.55 764.001 1490.45 764.127 1491.1 764.885 1492 811.989 1492 812.873 1491.1 813 1490.45 813 1485.55 812.873 1484.9 811.989 1484.13 811.358 1484Z" fill="#29B5E8" fill-rule="evenodd"/><path d="M765.642 1501 764.885 1501.14 764.127 1502.14 764.001 1502.86 764.001 1508.14 764.127 1508.86 764.885 1509.86 765.642 1510 811.358 1510 811.989 1509.86 812.873 1508.86 813 1508.14 813 1502.86 812.873 1502.14 811.989 1501.14 811.358 1501Z" fill="#29B5E8" fill-rule="evenodd"/><path d="M765.626 1519 764.876 1519.13 764.126 1519.9 764.001 1520.55 764.001 1525.45 764.126 1526.1 764.876 1527 788.124 1527 788.874 1526.1 788.999 1525.45 788.999 1520.55 788.874 1519.9 788.124 1519.13 787.499 1519Z" fill="#29B5E8" fill-rule="evenodd"/><path d="M834.374 1484.88 834.374 1526.85 835.914 1527.62 838.738 1528.52 840.021 1528.52 840.791 1528.64 842.203 1529.28 843.358 1530.31 844 1531.84 844 1532.61 843.871 1537.35 842.203 1545.92 839.379 1553.09 835.658 1558.97 833.732 1561.4 831.68 1563.58 827.701 1567.16 825.776 1568.31 824.108 1569.46 822.439 1570.23 821.028 1570.74 819.102 1571 817.306 1570.74 815.766 1570.23 814.225 1569.46 812.429 1568.31 812.044 1568.06 811.531 1567.8 763.149 1567.8 761.095 1567.67 757.117 1566.9 753.524 1565.24 750.315 1562.81 747.491 1559.87 745.31 1556.41 743.898 1552.45 743 1548.09 743 1545.92 743 1485.01 743 1482.71 743.77 1478.48 745.31 1474.52 747.491 1471.06 750.187 1467.99 753.395 1465.69 756.988 1464.02 760.967 1463.13 763.02 1463 814.225 1463 816.279 1463.13 820.258 1463.9 823.851 1465.56 827.059 1467.99 829.754 1470.93 831.936 1474.39 833.476 1478.36 834.246 1482.71ZM824.749 1520.33 823.081 1518.79 821.926 1517.77 821.412 1517.26 819.872 1516.62 818.332 1516.62 816.921 1517.26 816.279 1517.77 813.327 1520.58 808.194 1524.42 805.242 1526.21 800.237 1528.39 798.312 1528.52 797.542 1528.64 796.002 1529.28 795.489 1529.8 794.976 1530.31 794.334 1531.84 794.334 1532.61 794.334 1536.71 795.617 1544 797.671 1550.27 800.494 1555.77 802.034 1558.2 763.149 1558.2 761.223 1558.08 757.502 1556.41 754.55 1553.21 752.754 1548.61 752.625 1545.92 752.625 1485.01 752.754 1482.19 754.55 1477.72 757.502 1474.52 761.223 1472.73 763.02 1472.6 814.225 1472.6 816.151 1472.73 819.744 1474.39 822.824 1477.59 824.493 1482.19 824.749 1484.88ZM802.419 1536.07 802.804 1539.39 804.344 1545.28 806.526 1550.27 809.221 1554.36 810.632 1556.16 813.969 1559.48 816.793 1561.53 818.076 1562.3 818.974 1562.81 819.102 1562.81 819.102 1562.81 819.231 1562.81 819.36 1562.81 820.258 1562.3 821.412 1561.53 824.364 1559.48 827.573 1556.16 829.113 1554.36 831.68 1550.27 833.99 1545.28 835.401 1539.39 835.786 1536.07 833.091 1535.17 827.957 1532.61 825.647 1531.08 822.054 1528.52 819.102 1526.09 816.279 1528.52 812.557 1531.08 810.376 1532.61 805.242 1535.17Z" fill="#29B5E8" fill-rule="evenodd"/></g></svg>