<svg width="85" height="100" xmlns="http://www.w3.org/2000/svg" xmlns:xlink="http://www.w3.org/1999/xlink" xml:space="preserve" overflow="hidden"><defs><clipPath id="clip0"><rect x="460" y="361" width="85" height="100"/></clipPath></defs><g clip-path="url(#clip0)" transform="translate(-460 -361)"><path d="M505.575 414 503.801 414.099 500.746 415.386 498.38 417.76 497.099 420.827 497.001 422.609 497.001 452.292 497.099 454.073 498.38 457.141 500.746 459.516 503.801 460.802 505.575 460.999 536.425 460.999 538.1 460.802 541.254 459.516 543.62 457.141 544.901 454.073 545 452.292 545 422.609 544.901 420.827 543.62 417.76 541.254 415.386 538.1 414.099 536.425 414Z" fill="#28B5E8" fill-rule="evenodd"/><path d="M460 380.591 460 379.008 460.595 376.139 461.784 373.566 463.469 371.389 466.541 368.52 471.596 365.651 474.272 364.661 477.047 363.672 483.192 362.286 492.806 361.099 498.951 361 505.095 361.099 514.709 362.187 520.854 363.572 523.629 364.463 526.404 365.552 531.458 368.322 534.531 371.192 536.117 373.468 537.306 376.04 537.901 379.008 538 380.591 538 408 530.17 408 530.17 393.554 527.097 395.335 523.629 396.72 520.854 397.611 514.709 398.996 505.095 400.084 498.951 400.183 492.806 400.084 483.192 398.996 477.146 397.611 474.272 396.72 470.902 395.335 467.731 393.554 467.731 431.549 467.83 433.627 469.118 437.189 471.497 440.158 474.966 442.533 477.146 443.522 480.218 444.808 487.156 446.391 490.923 446.787 490.923 454.604 486.562 454.208 477.939 452.328 473.974 450.745 471.2 449.459 466.145 445.897 463.172 442.433 461.685 439.762 460.595 436.694 460 433.33 460 431.549ZM538 414.234 530.17 414.234 530.17 431.549 530.071 433.627 528.881 437.189 526.503 440.158 523.034 442.533 520.854 443.522 518.475 444.512 513.222 445.897 504.698 447.084 498.951 447.183 498.059 447.183 497.167 447.183 497.167 455 498.059 455 498.951 455 502.023 455 508.366 454.505 514.808 453.516 521.052 451.933 523.926 450.745 526.8 449.459 531.756 445.897 534.729 442.433 536.315 439.762 537.405 436.694 537.901 433.33 538 431.549ZM467.731 380.591 467.83 379.404 468.821 377.128 471.1 374.951 474.569 372.973 476.849 371.983 479.326 371.192 484.579 370.004 493.202 368.916 498.951 368.817 504.798 368.916 513.421 369.905 518.673 371.093 521.151 371.884 523.431 372.775 526.899 374.754 529.08 376.931 530.071 379.305 530.17 380.591 530.071 381.878 529.08 384.253 526.899 386.429 523.431 388.409 521.151 389.299 518.673 390.091 513.421 391.179 504.798 392.267 498.951 392.367 493.202 392.267 484.579 391.179 479.227 390.091 476.849 389.299 474.569 388.409 471.1 386.429 468.92 384.253 467.83 381.878Z" fill="#28B5E8" fill-rule="evenodd"/><path d="M522.635 437.69 521.689 438.635 521.5 438.824 521.311 438.635 520.365 437.69 520.176 437.5 520.365 437.311 521.311 436.365 521.5 436.176 521.689 436.365 522.635 437.311 522.824 437.5ZM524.621 436.554 522.446 434.379 521.973 434.001 520.933 434.001 520.554 434.379 518.379 436.554 518.001 437.027 518.001 437.973 518.379 438.446 520.554 440.622 520.933 441 521.973 441 522.446 440.622 524.621 438.446 524.999 437.973 524.999 437.027Z" fill="#FFFFFF" fill-rule="evenodd"/><path d="M517.982 422.001 517.073 422.093 515.963 423.11 515.862 423.849 515.862 427.824 512.128 425.79 511.321 425.513 509.807 425.883 509.303 426.53 509 427.177 509.404 428.655 510.009 429.118 516.67 432.538 517.174 432.908 517.982 433 518.789 432.908 519.899 431.891 520 431.059 520 423.849 519.899 423.11 518.789 422.093 517.982 422.001Z" fill="#FFFFFF" fill-rule="evenodd"/><path d="M515.816 438.8 515.908 438.7 515.908 438.7 515.908 438.6 515.908 438.6 515.908 438.5 515.908 438.5 515.999 438.4 515.999 438.4 515.999 438.3 515.999 438.3 515.999 438.2 515.999 438.2 515.999 438.1 515.999 438.1 515.999 438.1 515.999 438 515.999 437.9 515.999 437.9 515.999 437.9 515.999 437.8 515.999 437.8 515.999 437.7 515.999 437.7 515.999 437.6 515.999 437.6 515.908 437.5 515.908 437.5 515.908 437.401 515.908 437.401 515.908 437.3 515.908 437.3 515.816 437.2 515.816 437.2 515.816 437.1 515.816 437.1 515.816 437 515.724 437 515.724 437 515.724 437 515.724 437 515.724 436.9 515.633 436.8 515.633 436.8 515.633 436.8 515.633 436.7 515.541 436.7 515.541 436.7 515.541 436.6 515.449 436.6 515.449 436.501 515.449 436.501 515.357 436.501 515.357 436.4 515.357 436.4 515.266 436.4 515.266 436.3 515.174 436.3 515.174 436.3 515.174 436.3 515.082 436.2 515.082 436.2 515.082 436.2 508.844 432.3 508.111 432.001 506.734 432.401 506.276 433 506.001 433.801 506.367 435.3 506.918 435.9 510.312 438 506.918 440.1 506.367 440.7 506.001 442.2 506.276 442.9 506.734 443.6 508.111 444 508.844 443.7 515.082 439.8 515.082 439.8 515.082 439.8 515.174 439.7 515.174 439.7 515.174 439.7 515.266 439.7 515.266 439.6 515.357 439.6 515.357 439.6 515.357 439.5 515.449 439.5 515.449 439.5 515.449 439.4 515.541 439.4 515.541 439.3 515.541 439.3 515.633 439.3 515.633 439.2 515.633 439.2 515.633 439.2 515.724 439.1 515.724 439 515.724 439 515.724 439 515.724 439 515.816 439 515.816 438.9 515.816 438.9 515.816 438.8Z" fill="#FFFFFF" fill-rule="evenodd"/><path d="M517.982 442 517.174 442.101 516.67 442.504 510.009 446.235 509.404 446.74 509 448.353 509.303 449.059 509.807 449.765 511.321 450.168 512.128 449.866 515.862 447.647 515.862 451.983 515.963 452.79 517.073 453.899 517.982 454 518.789 453.899 519.899 452.79 520 451.983 520 444.118 519.899 443.211 518.789 442.101 517.982 442Z" fill="#FFFFFF" fill-rule="evenodd"/><path d="M532.889 446.235 526.33 442.504 525.725 442.101 525.018 442 524.211 442.101 523.101 443.211 523 444.118 523 451.983 523.101 452.79 524.211 453.899 525.018 454 525.826 453.899 527.036 452.79 527.137 451.983 527.137 447.647 530.871 449.866 531.679 450.168 533.193 449.765 533.697 449.059 534 448.353 533.596 446.74 532.889 446.235Z" fill="#FFFFFF" fill-rule="evenodd"/><path d="M536.991 440.1 533.156 438 536.991 435.9 537.596 435.3 538 433.801 537.697 433 537.193 432.401 535.679 432.001 534.872 432.3 528.009 436.2 528.009 436.2 528.009 436.2 527.908 436.3 527.908 436.3 527.808 436.3 527.808 436.3 527.808 436.4 527.707 436.4 527.707 436.4 527.707 436.501 527.606 436.501 527.606 436.501 527.505 436.6 527.505 436.6 527.505 436.7 527.505 436.7 527.404 436.7 527.404 436.8 527.404 436.8 527.303 436.8 527.303 436.9 527.303 437 527.303 437 527.303 437 527.202 437 527.202 437 527.202 437.1 527.202 437.1 527.202 437.2 527.101 437.2 527.101 437.3 527.101 437.3 527.101 437.401 527.101 437.401 527.101 437.5 527 437.5 527 437.6 527 437.6 527 437.7 527 437.7 527 437.8 527 437.8 527 437.9 527 437.9 527 437.9 527 438 527 438.1 527 438.1 527 438.1 527 438.2 527 438.2 527 438.3 527 438.3 527 438.4 527 438.4 527 438.5 527.101 438.5 527.101 438.6 527.101 438.6 527.101 438.7 527.101 438.7 527.101 438.8 527.202 438.8 527.202 438.9 527.202 438.9 527.202 439 527.202 439 527.303 439 527.303 439 527.303 439 527.303 439.1 527.303 439.2 527.404 439.2 527.404 439.2 527.404 439.3 527.505 439.3 527.505 439.3 527.505 439.4 527.505 439.4 527.606 439.5 527.606 439.5 527.707 439.5 527.707 439.6 527.707 439.6 527.808 439.6 527.808 439.7 527.808 439.7 527.908 439.7 527.908 439.7 528.009 439.8 528.009 439.8 528.009 439.8 534.872 443.7 535.679 444 537.193 443.6 537.697 442.9 538 442.2 537.596 440.7 536.991 440.1Z" fill="#FFFFFF" fill-rule="evenodd"/><path d="M533.697 426.53 533.193 425.883 531.679 425.513 530.871 425.79 527.137 427.824 527.137 423.849 527.036 423.11 525.826 422.093 525.018 422.001 524.211 422.093 523.101 423.11 523 423.849 523 431.059 523.101 431.891 524.211 432.908 525.018 433 525.725 432.908 526.33 432.538 532.889 429.118 533.596 428.655 534 427.177 533.697 426.53Z" fill="#FFFFFF" fill-rule="evenodd"/></g></svg>