<svg width="112" height="80" xmlns="http://www.w3.org/2000/svg" xmlns:xlink="http://www.w3.org/1999/xlink" xml:space="preserve" overflow="hidden"><defs><clipPath id="clip0"><rect x="2448" y="1463" width="112" height="80"/></clipPath></defs><g clip-path="url(#clip0)" transform="translate(-2448 -1463)"><path d="M2480.74 1511 2480.11 1511.75 2480 1512.28 2480 1517.61 2480.11 1518.15 2480.74 1518.89 2481.26 1519 2526.63 1519 2527.16 1518.89 2527.89 1518.15 2528 1517.61 2528 1512.28 2527.89 1511.75 2527.16 1511Z" fill="#28B5E8" fill-rule="evenodd"/><path d="M2560 1525.9 2560 1499.83 2560 1498.36 2559.37 1495.3 2558.42 1492.45 2556.84 1489.91 2555.89 1488.65 2539.01 1468.91 2537.64 1467.54 2534.79 1465.32 2531.42 1463.84 2527.83 1463 2525.94 1463 2481.96 1463 2480.17 1463 2476.58 1463.84 2473.2 1465.32 2470.25 1467.54 2468.99 1468.91 2452.11 1488.65 2451.16 1489.91 2449.58 1492.45 2448.53 1495.3 2448 1498.36 2448 1499.83 2448 1525.9 2448 1527.59 2448.74 1530.97 2450 1534.03 2451.8 1536.77 2454.12 1539.09 2456.86 1540.99 2460.02 1542.26 2463.29 1543 2465.08 1543 2542.91 1543 2544.6 1543 2547.98 1542.26 2551.04 1540.99 2553.78 1539.09 2556.1 1536.77 2558 1534.03 2559.26 1530.97 2559.89 1527.59ZM2481.96 1470.92 2479.95 1471.02 2476.37 1472.71 2475 1474.08 2463.92 1487.06 2464.45 1486.96 2465.08 1486.96 2542.91 1486.96 2543.44 1486.96 2544.07 1487.06 2533 1474.08 2531.52 1472.71 2527.94 1471.02 2525.94 1470.92ZM2455.91 1504.16 2456.01 1502.26 2457.39 1498.99 2459.92 1496.46 2463.19 1495.08 2465.08 1494.87 2542.91 1494.87 2544.71 1495.08 2548.08 1496.46 2550.51 1498.99 2551.98 1502.26 2552.09 1504.16 2552.09 1525.9 2551.98 1527.7 2550.51 1531.07 2548.08 1533.61 2544.71 1534.98 2542.91 1535.08 2465.08 1535.08 2463.19 1534.98 2459.92 1533.61 2457.39 1531.07 2456.01 1527.7 2455.91 1525.9Z" fill="#28B5E8" fill-rule="evenodd"/></g></svg>