<svg width="176" height="174" xmlns="http://www.w3.org/2000/svg" xmlns:xlink="http://www.w3.org/1999/xlink" xml:space="preserve" overflow="hidden"><defs><clipPath id="clip0"><rect x="1844" y="636" width="176" height="174"/></clipPath></defs><g clip-path="url(#clip0)" transform="translate(-1844 -636)"><path d="M1927.79 636.001 1924.73 636.642 1920.25 638.566 1915.65 642.799 1913.35 647.032 1912.46 650.111 1912.2 651.778 1910.54 668.326 1910.41 668.967 1909.52 669.736 1908.88 669.865 1897.51 669.865 1896.61 670.763 1896.49 671.404 1896.49 676.663 1896.61 677.305 1897.51 678.202 1898.15 678.331 1908.5 678.331 1909.39 679.357 1909.39 679.998 1906.2 712.452 1905.81 714.119 1904.41 717.07 1901.98 719.25 1898.91 720.405 1897.25 720.533 1896.74 720.533 1895.21 720.405 1892.4 719.379 1890.22 717.583 1888.82 715.145 1888.43 713.735 1888.18 713.093 1887.28 712.196 1886.65 712.067 1881.53 712.067 1880.77 712.196 1880 713.093 1880 713.735 1880.38 716.813 1883.2 722.329 1887.67 726.434 1893.42 728.742 1896.74 728.999 1898.91 728.999 1902.11 728.358 1906.45 726.434 1911.05 722.201 1913.35 718.096 1914.25 714.889 1914.5 713.222 1917.83 679.742 1917.95 679.101 1918.85 678.331 1935.33 678.331 1937.89 678.459 1942.75 680.64 1944.66 682.436 1953.86 692.826 1954.25 693.339 1954.25 694.494 1953.86 695.007 1936.74 712.196 1936.36 712.709 1936.36 713.991 1936.74 714.505 1940.45 718.224 1940.96 718.609 1942.11 718.609 1942.62 718.224 1959.36 701.421 1959.87 701.035 1961.15 701.035 1961.66 701.421 1976.35 717.967 1976.87 718.353 1978.14 718.481 1978.65 718.096 1982.49 714.505 1982.87 714.119 1983 712.836 1982.62 712.323 1967.54 695.391 1967.15 694.878 1967.15 693.595 1967.54 693.211 1982.49 678.202 1982.87 677.689 1982.87 676.407 1982.49 675.893 1978.78 672.174 1978.27 671.789 1976.99 671.789 1976.48 672.174 1962.04 686.797 1961.53 687.182 1960.25 687.054 1959.74 686.669 1950.92 676.792 1949.39 675.253 1945.81 672.558 1941.85 670.763 1937.51 669.865 1920.64 669.865 1919.87 669.736 1919.1 668.71 1918.98 668.069 1920.51 652.676 1920.77 650.881 1922.3 647.93 1924.73 645.75 1927.79 644.595 1929.58 644.467 1930.48 644.467 1931.88 644.595 1934.57 645.493 1936.74 647.417 1938.14 649.854 1938.4 651.265 1938.66 651.907 1939.55 652.804 1940.19 652.804 1945.43 652.933 1946.07 652.933 1946.83 652.034 1946.96 651.394 1946.45 648.186 1943.77 642.671 1939.42 638.566 1935.21 636.642 1932.01 636.001Z" fill="#28B5E8" fill-rule="evenodd"/><path d="M1858.57 738 1855.59 738.16 1850.29 740.24 1846.32 744.081 1844.17 749.201 1844 752.081 1844 784.079 1844.17 786.8 1846.32 791.919 1850.29 795.76 1855.59 797.84 1858.57 798 2005.43 798 2008.41 797.84 2013.54 795.76 2017.52 791.919 2019.67 786.8 2020 784.079 2020 752.081 2019.67 749.201 2017.52 744.081 2013.54 740.24 2008.41 738.16 2005.43 738Z" fill="#11567F" fill-rule="evenodd"/><text fill="#FFFFFF" font-family="Arial,Arial_MSFontService,sans-serif" font-weight="700" font-size="23" transform="matrix(1 0 0 1 1884.28 763)">STORED </text><text fill="#FFFFFF" font-family="Arial,Arial_MSFontService,sans-serif" font-weight="700" font-size="23" transform="matrix(1 0 0 1 1858.49 791)">PROCEDURE</text></g></svg>