<svg width="73" height="104" xmlns="http://www.w3.org/2000/svg" xmlns:xlink="http://www.w3.org/1999/xlink" xml:space="preserve" overflow="hidden"><defs><clipPath id="clip0"><rect x="1041" y="359" width="73" height="104"/></clipPath></defs><g clip-path="url(#clip0)" transform="translate(-1041 -359)"><path d="M1061.27 390.474 1063.81 389.632 1068.27 386.79 1071.45 382.79 1073.26 377.737 1073.47 375 1073.36 373.316 1072.73 370.264 1071.45 367.316 1069.75 364.79 1067.53 362.685 1064.98 360.895 1062.01 359.737 1058.83 359.106 1057.23 359.001 1055.54 359.106 1052.35 359.737 1049.49 360.895 1046.84 362.685 1044.71 364.79 1042.91 367.316 1041.74 370.264 1041.11 373.316 1041 375 1041.21 377.737 1042.91 382.684 1046.2 386.79 1050.55 389.632 1053.2 390.474 1053.2 431.421 1050.55 432.263 1046.2 435.106 1042.91 439.211 1041.21 444.158 1041 447 1041.11 448.579 1041.74 451.737 1042.91 454.579 1044.71 457.105 1046.84 459.316 1049.49 461 1052.35 462.263 1055.54 462.895 1057.23 463 1058.83 462.895 1062.01 462.263 1064.98 461 1067.53 459.316 1069.75 457.105 1071.45 454.579 1072.73 451.737 1073.36 448.579 1073.47 447 1073.26 444.263 1071.56 439.211 1068.27 435.21 1063.92 432.368 1061.37 431.526 1061.69 429.421 1062.54 426.264 1063.71 423.947 1065.09 422.369 1065.83 421.842 1066.89 421.21 1069.44 420.263 1074 419.316 1077.92 419 1078.35 418.895 1082.06 418.579 1088 417.316 1091.93 415.737 1093.73 414.579 1095.43 413.316 1098.08 410.158 1100.1 406.158 1101.37 401.316 1101.69 398.474 1104.24 397.737 1108.69 394.895 1111.98 390.79 1113.79 385.737 1114 383 1113.89 381.316 1113.26 378.263 1111.98 375.316 1110.29 372.79 1108.06 370.579 1105.51 368.895 1102.54 367.737 1099.36 367.001 1097.77 367.001 1096.07 367.001 1092.89 367.737 1090.02 368.895 1087.37 370.579 1085.25 372.79 1083.44 375.316 1082.27 378.263 1081.53 381.316 1081.53 383 1081.64 385.737 1083.44 390.685 1086.62 394.79 1090.98 397.632 1093.52 398.474 1093.31 400.474 1092.46 403.737 1091.19 405.947 1089.81 407.527 1089.07 408.053 1088 408.79 1085.46 409.737 1080.9 410.579 1077.08 411 1076.65 411 1072.94 411.421 1066.89 412.579 1063.07 414.158 1061.27 415.316ZM1057.23 367.001 1055.54 367.105 1052.67 368.369 1050.44 370.474 1049.17 373.316 1049.06 375 1049.17 376.579 1050.44 379.527 1052.67 381.632 1055.54 382.895 1057.23 383 1058.83 382.895 1061.8 381.632 1064.02 379.527 1065.19 376.579 1065.3 375 1065.19 373.316 1064.02 370.474 1061.8 368.369 1058.83 367.105ZM1097.77 375 1096.07 375.105 1093.2 376.369 1090.98 378.474 1089.7 381.316 1089.6 383 1089.7 384.579 1090.98 387.527 1093.2 389.632 1096.07 390.895 1097.77 391 1099.36 390.895 1102.33 389.632 1104.45 387.527 1105.72 384.579 1105.83 383 1105.72 381.316 1104.45 378.474 1102.33 376.369 1099.36 375.105ZM1049.06 447 1049.17 445.316 1050.44 442.474 1052.67 440.263 1055.54 439.105 1057.23 439 1058.83 439.105 1061.8 440.263 1064.02 442.474 1065.19 445.316 1065.3 447 1065.19 448.579 1064.02 451.421 1061.8 453.632 1058.83 454.789 1057.23 455 1055.54 454.789 1052.67 453.632 1050.44 451.421 1049.17 448.579Z" fill="#28B5E8" fill-rule="evenodd"/></g></svg>