<svg width="157" height="164" xmlns="http://www.w3.org/2000/svg" xmlns:xlink="http://www.w3.org/1999/xlink" xml:space="preserve" overflow="hidden"><defs><clipPath id="clip0"><rect x="1568" y="1173" width="157" height="164"/></clipPath></defs><g clip-path="url(#clip0)" transform="translate(-1568 -1173)"><path d="M1646.93 1205 1644.97 1205.13 1641.31 1206.7 1638.7 1209.44 1637.13 1212.97 1637 1215.07 1637.13 1217.03 1638.7 1220.69 1641.31 1223.3 1644.97 1224.87 1646.93 1225 1649.03 1224.87 1652.56 1223.3 1655.3 1220.69 1656.87 1217.03 1657 1215.07 1656.87 1212.97 1655.3 1209.44 1652.56 1206.7 1649.03 1205.13 1646.93 1205Z" fill="#28B5E8" fill-rule="evenodd"/><path d="M1646.44 1232 1644.13 1232.13 1640.17 1232.88 1636.85 1234.13 1634.03 1236 1630.71 1239.25 1627.9 1244 1627.13 1246.37 1627 1247.25 1627.38 1248.87 1628.53 1250.25 1630.32 1251 1662.67 1251 1664.47 1250.25 1665.62 1248.87 1666 1247.25 1665.87 1246.37 1665.1 1244 1662.29 1239.25 1658.97 1236 1656.03 1234.13 1652.7 1232.88 1648.74 1232.13 1646.44 1232Z" fill="#28B5E8" fill-rule="evenodd"/><path d="M1641.64 1173 1641.64 1184.5 1623.76 1184.5 1621.84 1184.5 1618.39 1185.26 1615.2 1186.54 1612.39 1188.46 1609.96 1190.88 1608.04 1193.69 1606.77 1196.89 1606 1200.46 1606 1202.25 1606 1254.24 1606 1256.03 1606.77 1259.48 1608.04 1262.67 1609.96 1265.48 1612.39 1267.91 1615.2 1269.83 1618.39 1271.23 1621.84 1272 1623.76 1272 1669.24 1272 1671.03 1272 1674.48 1271.23 1677.67 1269.83 1680.48 1267.91 1682.91 1265.48 1684.83 1262.67 1686.23 1259.48 1686.87 1256.03 1687 1254.24 1687 1202.25 1686.87 1200.46 1686.23 1196.89 1684.83 1193.69 1682.91 1190.88 1680.48 1188.46 1677.67 1186.54 1674.48 1185.26 1671.03 1184.5 1669.24 1184.5 1651.23 1184.5 1651.23 1173ZM1615.58 1202.25 1615.58 1200.59 1616.86 1197.65 1619.16 1195.35 1622.1 1194.21 1623.76 1194.08 1669.24 1194.08 1670.9 1194.21 1673.84 1195.35 1676.01 1197.65 1677.29 1200.59 1677.42 1202.25 1677.42 1254.24 1677.29 1255.9 1676.01 1258.84 1673.84 1261.01 1670.9 1262.29 1669.24 1262.42 1623.76 1262.42 1622.1 1262.29 1619.16 1261.01 1616.86 1258.84 1615.58 1255.9 1615.58 1254.24Z" fill="#28B5E8" fill-rule="evenodd"/><path d="M1579.15 1285 1576.84 1285.13 1572.87 1286.79 1569.79 1289.86 1568.13 1293.96 1568 1296.26 1568 1321.86 1568.13 1324.04 1569.79 1328.14 1572.87 1331.21 1576.84 1332.87 1579.15 1333 1713.72 1333 1716.03 1332.87 1720 1331.21 1723.08 1328.14 1724.74 1324.04 1725 1321.86 1725 1296.26 1724.74 1293.96 1723.08 1289.86 1720 1286.79 1716.03 1285.13 1713.72 1285Z" fill="#11567F" fill-rule="evenodd"/><text fill="#FFFFFF" font-family="Arial,Arial_MSFontService,sans-serif" font-weight="700" font-size="23" transform="matrix(1 0 0 1 1585.49 1317)">SYSADMIN</text></g></svg>