<svg width="123" height="158" xmlns="http://www.w3.org/2000/svg" xmlns:xlink="http://www.w3.org/1999/xlink" xml:space="preserve" overflow="hidden"><g transform="translate(-1598 -636)"><path d="M1655.79 636.001 1652.73 636.642 1648.25 638.566 1643.65 642.799 1641.35 647.032 1640.46 650.111 1640.2 651.778 1638.54 668.326 1638.41 668.967 1637.52 669.736 1636.88 669.865 1625.51 669.865 1624.61 670.763 1624.49 671.404 1624.49 676.663 1624.61 677.305 1625.51 678.202 1626.15 678.331 1636.5 678.331 1637.39 679.357 1637.39 679.998 1634.2 712.452 1633.81 714.119 1632.41 717.07 1629.98 719.25 1626.91 720.405 1625.25 720.533 1624.74 720.533 1623.21 720.405 1620.4 719.379 1618.22 717.583 1616.82 715.145 1616.43 713.735 1616.18 713.093 1615.28 712.196 1614.65 712.067 1609.53 712.067 1608.77 712.196 1608 713.093 1608 713.735 1608.38 716.813 1611.2 722.329 1615.67 726.434 1621.42 728.742 1624.74 728.999 1626.91 728.999 1630.11 728.358 1634.45 726.434 1639.05 722.201 1641.35 718.096 1642.25 714.889 1642.5 713.222 1645.83 679.742 1645.95 679.101 1646.85 678.331 1663.33 678.331 1665.89 678.459 1670.75 680.64 1672.66 682.436 1681.86 692.826 1682.25 693.339 1682.25 694.494 1681.86 695.007 1664.74 712.196 1664.36 712.709 1664.36 713.991 1664.74 714.505 1668.45 718.224 1668.96 718.609 1670.11 718.609 1670.62 718.224 1687.36 701.421 1687.87 701.035 1689.15 701.035 1689.66 701.421 1704.35 717.967 1704.87 718.353 1706.14 718.481 1706.65 718.096 1710.49 714.505 1710.87 714.119 1711 712.836 1710.62 712.323 1695.54 695.391 1695.15 694.878 1695.15 693.595 1695.54 693.211 1710.49 678.202 1710.87 677.689 1710.87 676.407 1710.49 675.893 1706.78 672.174 1706.27 671.789 1704.99 671.789 1704.48 672.174 1690.04 686.797 1689.53 687.182 1688.25 687.054 1687.74 686.669 1678.92 676.792 1677.39 675.253 1673.81 672.558 1669.85 670.763 1665.51 669.865 1648.64 669.865 1647.87 669.736 1647.1 668.71 1646.98 668.069 1648.51 652.676 1648.77 650.881 1650.3 647.93 1652.73 645.75 1655.79 644.595 1657.58 644.467 1658.48 644.467 1659.88 644.595 1662.57 645.493 1664.74 647.417 1666.14 649.854 1666.4 651.265 1666.66 651.907 1667.55 652.804 1668.19 652.804 1673.43 652.933 1674.07 652.933 1674.83 652.034 1674.96 651.394 1674.45 648.186 1671.77 642.671 1667.42 638.566 1663.21 636.642 1660.01 636.001Z" fill="#28B5E8" fill-rule="evenodd"/><path d="M1608.18 742 1606.1 742.128 1602.4 743.792 1599.62 746.865 1598.12 750.961 1598 753.265 1598 778.864 1598.12 781.04 1599.62 785.136 1602.4 788.208 1606.1 789.872 1608.18 790 1710.82 790 1712.9 789.872 1716.49 788.208 1719.26 785.136 1720.77 781.04 1721 778.864 1721 753.265 1720.77 750.961 1719.26 746.865 1716.49 743.792 1712.9 742.128 1710.82 742Z" fill="#11567F" fill-rule="evenodd"/><text fill="#FFFFFF" font-family="Arial,Arial_MSFontService,sans-serif" font-weight="700" font-size="23" transform="matrix(1 0 0 1 1612.26 774)">SYSTEM</text></g></svg>