<svg width="136" height="158" xmlns="http://www.w3.org/2000/svg" xmlns:xlink="http://www.w3.org/1999/xlink" xml:space="preserve" overflow="hidden"><g transform="translate(-1124 -636)"><path d="M1187.79 636.001 1184.73 636.642 1180.25 638.566 1175.65 642.799 1173.35 647.032 1172.46 650.111 1172.2 651.778 1170.54 668.326 1170.41 668.967 1169.52 669.736 1168.88 669.865 1157.51 669.865 1156.61 670.763 1156.49 671.404 1156.49 676.663 1156.61 677.305 1157.51 678.202 1158.15 678.331 1168.5 678.331 1169.39 679.357 1169.39 679.998 1166.2 712.452 1165.81 714.119 1164.41 717.07 1161.98 719.25 1158.91 720.405 1157.25 720.533 1156.74 720.533 1155.21 720.405 1152.4 719.379 1150.22 717.583 1148.82 715.145 1148.43 713.735 1148.18 713.093 1147.28 712.196 1146.65 712.067 1141.53 712.067 1140.77 712.196 1140 713.093 1140 713.735 1140.38 716.813 1143.2 722.329 1147.67 726.434 1153.42 728.742 1156.74 728.999 1158.91 728.999 1162.11 728.358 1166.45 726.434 1171.05 722.201 1173.35 718.096 1174.25 714.889 1174.5 713.222 1177.83 679.742 1177.95 679.101 1178.85 678.331 1195.33 678.331 1197.89 678.459 1202.75 680.64 1204.66 682.436 1213.86 692.826 1214.25 693.339 1214.25 694.494 1213.86 695.007 1196.74 712.196 1196.36 712.709 1196.36 713.991 1196.74 714.505 1200.45 718.224 1200.96 718.609 1202.11 718.609 1202.62 718.224 1219.36 701.421 1219.87 701.035 1221.15 701.035 1221.66 701.421 1236.35 717.967 1236.87 718.353 1238.14 718.481 1238.65 718.096 1242.49 714.505 1242.87 714.119 1243 712.836 1242.62 712.323 1227.54 695.391 1227.15 694.878 1227.15 693.595 1227.54 693.211 1242.49 678.202 1242.87 677.689 1242.87 676.407 1242.49 675.893 1238.78 672.174 1238.27 671.789 1236.99 671.789 1236.48 672.174 1222.04 686.797 1221.53 687.182 1220.25 687.054 1219.74 686.669 1210.92 676.792 1209.39 675.253 1205.81 672.558 1201.85 670.763 1197.51 669.865 1180.64 669.865 1179.87 669.736 1179.1 668.71 1178.98 668.069 1180.51 652.676 1180.77 650.881 1182.3 647.93 1184.73 645.75 1187.79 644.595 1189.58 644.467 1190.48 644.467 1191.88 644.595 1194.57 645.493 1196.74 647.417 1198.14 649.854 1198.4 651.265 1198.66 651.907 1199.55 652.804 1200.19 652.804 1205.43 652.933 1206.07 652.933 1206.83 652.034 1206.96 651.394 1206.45 648.186 1203.77 642.671 1199.42 638.566 1195.21 636.642 1192.01 636.001Z" fill="#28B5E8" fill-rule="evenodd"/><path d="M1135.26 742 1132.96 742.128 1128.86 743.792 1125.79 746.865 1124.13 750.961 1124 753.265 1124 778.864 1124.13 781.04 1125.79 785.136 1128.86 788.208 1132.96 789.872 1135.26 790 1248.74 790 1251.04 789.872 1255.01 788.208 1258.08 785.136 1259.74 781.04 1260 778.864 1260 753.265 1259.74 750.961 1258.08 746.865 1255.01 743.792 1251.04 742.128 1248.74 742Z" fill="#11567F" fill-rule="evenodd"/><text fill="#FFFFFF" font-family="Arial,Arial_MSFontService,sans-serif" font-weight="700" font-size="23" transform="matrix(1 0 0 1 1154.03 774)">TABLE</text></g></svg>