<svg width="137" height="114" xmlns="http://www.w3.org/2000/svg" xmlns:xlink="http://www.w3.org/1999/xlink" xml:space="preserve" overflow="hidden"><defs><clipPath id="clip0"><rect x="148" y="920" width="137" height="114"/></clipPath></defs><g clip-path="url(#clip0)" transform="translate(-148 -920)"><path d="M172.116 920 169.551 920.128 164.933 921.021 160.572 922.806 156.723 925.484 153.517 928.671 150.951 932.497 149.027 936.833 148.129 941.423 148.001 943.973 148.001 1010.03 148.129 1012.58 149.027 1017.17 150.951 1021.5 153.517 1025.33 156.723 1028.52 160.572 1031.07 164.933 1032.98 169.551 1033.87 172.116 1034 261.012 1034 263.45 1033.87 268.195 1032.98 272.557 1031.07 276.277 1028.52 279.612 1025.33 282.178 1021.5 283.973 1017.17 285 1012.58 285 1010.03 285 943.973 285 941.423 283.973 936.833 282.178 932.497 279.612 928.671 276.277 925.484 272.557 922.806 268.195 921.021 263.45 920.128 261.012 920ZM157.622 943.973 157.878 941.04 160.059 935.812 163.907 931.987 169.167 929.819 172.116 929.564 261.012 929.564 263.963 929.819 269.094 931.987 273.07 935.812 275.251 941.04 275.379 943.973 275.379 950.859 157.622 950.859ZM157.622 960.423 157.622 1010.03 157.878 1012.96 160.059 1018.19 163.907 1022.01 169.167 1024.18 172.116 1024.44 261.012 1024.44 263.963 1024.18 269.094 1022.01 273.07 1018.19 275.251 1012.96 275.379 1010.03 275.379 960.423Z" fill="#28B5E8" fill-rule="evenodd"/></g></svg>