<svg width="105" height="104" xmlns="http://www.w3.org/2000/svg" xmlns:xlink="http://www.w3.org/1999/xlink" xml:space="preserve" overflow="hidden"><defs><clipPath id="clip0"><rect x="1307" y="359" width="105" height="104"/></clipPath></defs><g clip-path="url(#clip0)" transform="translate(-1307 -359)"><path d="M1388.5 374.001 1386.9 374.101 1384.2 375.3 1382.2 377.301 1381.1 380 1381 381.5 1381.1 383 1382.2 385.7 1384.2 387.8 1386.9 388.899 1388.5 389 1390 388.899 1392.7 387.8 1394.7 385.7 1395.9 383 1396 381.5 1395.9 380 1394.7 377.301 1392.7 375.3 1390 374.101 1388.5 374.001Z" fill="#28B5E8" fill-rule="evenodd"/><path d="M1412 374.639 1411.9 373.008 1411.32 369.937 1410.06 367.155 1408.42 364.661 1406.28 362.55 1403.77 360.823 1400.96 359.672 1397.86 359.097 1396.21 359 1368.61 359 1367.44 359.097 1365.12 359.48 1362.89 360.439 1360.95 361.687 1360.08 362.55 1312.23 409.945 1310.97 411.288 1308.94 414.262 1307.58 417.524 1307 420.882 1307 424.336 1307.58 427.789 1308.94 430.956 1310.97 434.025 1312.23 435.369 1334.9 457.819 1336.25 459.066 1339.26 460.985 1342.55 462.328 1346.04 462.999 1349.52 462.999 1352.91 462.328 1356.21 460.985 1359.21 459.066 1360.57 457.819 1408.42 410.424 1409.19 409.561 1410.55 407.546 1411.42 405.436 1411.9 403.133 1412 401.982ZM1396.21 366.196 1397.96 366.292 1400.96 367.635 1403.28 369.841 1404.54 372.912 1404.74 374.639 1404.74 401.982 1404.64 402.845 1403.86 404.572 1403.28 405.34 1355.43 452.734 1353.79 454.173 1349.81 455.708 1345.65 455.708 1341.68 454.173 1340.03 452.734 1317.36 430.284 1315.91 428.557 1314.27 424.719 1314.27 420.498 1315.91 416.66 1317.36 415.029 1365.22 367.635 1365.89 366.963 1367.64 366.292 1368.61 366.196Z" fill="#28B5E8" fill-rule="evenodd"/></g></svg>