<svg width="104" height="74" xmlns="http://www.w3.org/2000/svg" xmlns:xlink="http://www.w3.org/1999/xlink" xml:space="preserve" overflow="hidden"><defs><clipPath id="clip0"><rect x="1594" y="374" width="104" height="74"/></clipPath></defs><g clip-path="url(#clip0)" transform="translate(-1594 -374)"><path d="M1648.25 387.001 1647.77 387.094 1647.1 387.654 1647 388.214 1647 392.88 1647.1 393.346 1647.77 393.906 1648.25 393.999 1696.75 393.999 1697.23 393.906 1697.9 393.346 1698 392.88 1698 388.214 1697.9 387.654 1697.23 387.094 1696.75 387.001Z" fill="#28B5E8" fill-rule="evenodd"/><path d="M1647.77 429 1647.1 429.645 1647 430.106 1647 434.802 1647.1 435.263 1647.77 435.907 1648.25 435.999 1696.75 435.999 1697.23 435.907 1697.9 435.263 1698 434.802 1698 430.106 1697.9 429.645 1697.23 429Z" fill="#28B5E8" fill-rule="evenodd"/><path d="M1630.54 420.001 1630.15 420.286 1609.79 438.476 1609.49 438.666 1608.62 438.762 1608.23 438.476 1599.07 431.524 1598.58 431.238 1597.7 431.333 1597.31 431.714 1594.2 435.524 1594 435.905 1594.1 436.762 1594.39 437.143 1606.57 447.047 1607.25 447.523 1608.71 447.999 1610.18 447.999 1611.64 447.428 1612.22 446.952 1635.71 425.81 1636 425.429 1636 424.476 1635.71 424.096 1631.81 420.286 1631.42 420.001Z" fill="#28B5E8" fill-rule="evenodd"/><path d="M1630.54 374.001 1630.15 374.286 1609.79 392.476 1609.49 392.667 1608.62 392.762 1608.23 392.476 1599.07 385.524 1598.58 385.238 1597.7 385.333 1597.31 385.714 1594.2 389.524 1594 389.905 1594.1 390.762 1594.39 391.143 1606.57 401.047 1607.25 401.524 1608.71 401.999 1610.18 401.999 1611.64 401.428 1612.22 400.952 1635.71 379.81 1636 379.429 1636 378.476 1635.71 378.095 1631.81 374.286 1631.42 374.001Z" fill="#28B5E8" fill-rule="evenodd"/></g></svg>