<svg width="133" height="138" xmlns="http://www.w3.org/2000/svg" xmlns:xlink="http://www.w3.org/1999/xlink" xml:space="preserve" overflow="hidden"><defs><clipPath id="clip0"><rect x="3009" y="1184" width="133" height="138"/></clipPath></defs><g clip-path="url(#clip0)" transform="translate(-3009 -1184)"><path d="M3047.59 1208.13 3047.85 1205.18 3050.03 1199.92 3053.86 1196.07 3059.11 1193.88 3062.05 1193.63 3094.03 1193.63 3094.03 1220.07 3094.16 1222.77 3096.08 1227.39 3099.53 1230.86 3104.14 1232.78 3106.82 1232.91 3132.41 1232.91 3132.41 1297.99 3132.15 1300.82 3129.98 1306.08 3126.01 1309.93 3120.89 1312.12 3117.95 1312.37 3062.05 1312.37 3059.11 1312.12 3053.86 1309.93 3050.03 1306.08 3047.85 1300.82 3047.59 1297.99ZM3129.98 1223.28 3129.21 1222.13 3128.18 1221.1 3105.8 1197.99 3104.77 1196.97 3103.62 1196.07 3103.62 1220.07 3103.75 1221.36 3105.41 1223.15 3106.82 1223.28ZM3062.05 1184 3059.49 1184.13 3054.89 1185.03 3050.54 1186.82 3046.7 1189.52 3043.5 1192.73 3040.81 1196.58 3039.02 1200.94 3038.13 1205.57 3038 1208.13 3038 1297.99 3038.13 1300.43 3039.02 1305.05 3040.81 1309.42 3043.5 1313.27 3046.7 1316.48 3050.54 1319.18 3054.89 1320.97 3059.49 1321.87 3062.05 1322 3117.95 1322 3120.38 1321.87 3125.11 1320.97 3129.46 1319.18 3133.17 1316.48 3136.5 1313.27 3139.06 1309.42 3140.85 1305.05 3141.87 1300.43 3142 1297.99 3142 1231.11 3141.87 1228.8 3140.98 1224.31 3139.18 1219.94 3136.63 1216.09 3135.09 1214.3 3112.58 1191.19 3110.91 1189.52 3106.95 1186.82 3102.6 1185.03 3097.87 1184.13 3095.44 1184Z" fill="#28B5E8" fill-rule="evenodd"/><path d="M3020.34 1250 3018.02 1250.13 3013.9 1251.79 3010.8 1254.86 3009.13 1258.83 3009 1261.14 3009 1286.74 3009.13 1289.04 3010.8 1293.01 3013.9 1296.08 3018.02 1297.74 3020.34 1298 3105.66 1298 3107.98 1297.74 3111.97 1296.08 3115.07 1293.01 3116.74 1289.04 3117 1286.74 3117 1261.14 3116.74 1258.83 3115.07 1254.86 3111.97 1251.79 3107.98 1250.13 3105.66 1250Z" fill="#11567F" fill-rule="evenodd"/><text fill="#FFFFFF" font-family="Arial,Arial_MSFontService,sans-serif" font-weight="700" font-size="23" transform="matrix(1 0 0 1 3033.67 1283)">TEXT</text></g></svg>