<svg width="168" height="164" xmlns="http://www.w3.org/2000/svg" xmlns:xlink="http://www.w3.org/1999/xlink" xml:space="preserve" overflow="hidden"><defs><clipPath id="clip0"><rect x="1275" y="1173" width="168" height="164"/></clipPath></defs><g clip-path="url(#clip0)" transform="translate(-1275 -1173)"><path d="M1359.93 1205 1357.97 1205.13 1354.31 1206.7 1351.7 1209.44 1350.13 1212.97 1350 1215.07 1350.13 1217.03 1351.7 1220.69 1354.31 1223.3 1357.97 1224.87 1359.93 1225 1362.03 1224.87 1365.56 1223.3 1368.3 1220.69 1369.87 1217.03 1370 1215.07 1369.87 1212.97 1368.3 1209.44 1365.56 1206.7 1362.03 1205.13 1359.93 1205Z" fill="#28B5E8" fill-rule="evenodd"/><path d="M1359.44 1232 1357.13 1232.13 1353.17 1232.88 1349.85 1234.13 1347.03 1236 1343.71 1239.25 1340.9 1244 1340.13 1246.37 1340 1247.25 1340.38 1248.87 1341.53 1250.25 1343.32 1251 1375.67 1251 1377.47 1250.25 1378.62 1248.87 1379 1247.25 1378.87 1246.37 1378.1 1244 1375.29 1239.25 1371.97 1236 1369.03 1234.13 1365.7 1232.88 1361.74 1232.13 1359.44 1232Z" fill="#28B5E8" fill-rule="evenodd"/><path d="M1355.08 1173 1355.08 1184.5 1336.98 1184.5 1335.04 1184.5 1331.55 1185.26 1328.31 1186.54 1325.47 1188.46 1323.01 1190.88 1321.07 1193.69 1319.78 1196.89 1319 1200.46 1319 1202.25 1319 1254.24 1319 1256.03 1319.78 1259.48 1321.07 1262.67 1323.01 1265.48 1325.47 1267.91 1328.31 1269.83 1331.55 1271.23 1335.04 1272 1336.98 1272 1383.02 1272 1384.83 1272 1388.32 1271.23 1391.56 1269.83 1394.4 1267.91 1396.86 1265.48 1398.8 1262.67 1400.22 1259.48 1400.87 1256.03 1401 1254.24 1401 1202.25 1400.87 1200.46 1400.22 1196.89 1398.8 1193.69 1396.86 1190.88 1394.4 1188.46 1391.56 1186.54 1388.32 1185.26 1384.83 1184.5 1383.02 1184.5 1364.79 1184.5 1364.79 1173ZM1328.7 1202.25 1328.7 1200.59 1329.99 1197.65 1332.32 1195.35 1335.3 1194.21 1336.98 1194.08 1383.02 1194.08 1384.7 1194.21 1387.68 1195.35 1389.88 1197.65 1391.17 1200.59 1391.3 1202.25 1391.3 1254.24 1391.17 1255.9 1389.88 1258.84 1387.68 1261.01 1384.7 1262.29 1383.02 1262.42 1336.98 1262.42 1335.3 1262.29 1332.32 1261.01 1329.99 1258.84 1328.7 1255.9 1328.7 1254.24Z" fill="#28B5E8" fill-rule="evenodd"/><path d="M1292.15 1285 1289.84 1285.13 1285.87 1286.79 1282.79 1289.86 1281.13 1293.96 1281 1296.26 1281 1321.86 1281.13 1324.04 1282.79 1328.14 1285.87 1331.21 1289.84 1332.87 1292.15 1333 1426.72 1333 1429.03 1332.87 1433 1331.21 1436.08 1328.14 1437.74 1324.04 1438 1321.86 1438 1296.26 1437.74 1293.96 1436.08 1289.86 1433 1286.79 1429.03 1285.13 1426.72 1285Z" fill="#11567F" fill-rule="evenodd"/><text fill="#FFFFFF" font-family="Arial,Arial_MSFontService,sans-serif" font-weight="700" font-size="23" transform="matrix(1 0 0 1 1289.78 1317)">USERADMIN</text></g></svg>