<svg width="133" height="138" xmlns="http://www.w3.org/2000/svg" xmlns:xlink="http://www.w3.org/1999/xlink" xml:space="preserve" overflow="hidden"><defs><clipPath id="clip0"><rect x="2437" y="1184" width="133" height="138"/></clipPath></defs><g clip-path="url(#clip0)" transform="translate(-2437 -1184)"><path d="M2475.59 1208.13 2475.85 1205.18 2478.03 1199.92 2481.86 1196.07 2487.11 1193.88 2490.05 1193.63 2522.03 1193.63 2522.03 1220.07 2522.16 1222.77 2524.08 1227.39 2527.53 1230.86 2532.14 1232.78 2534.82 1232.91 2560.41 1232.91 2560.41 1297.99 2560.15 1300.82 2557.98 1306.08 2554.01 1309.93 2548.89 1312.12 2545.95 1312.37 2490.05 1312.37 2487.11 1312.12 2481.86 1309.93 2478.03 1306.08 2475.85 1300.82 2475.59 1297.99ZM2557.98 1223.28 2557.21 1222.13 2556.18 1221.1 2533.8 1197.99 2532.77 1196.97 2531.62 1196.07 2531.62 1220.07 2531.75 1221.36 2533.41 1223.15 2534.82 1223.28ZM2490.05 1184 2487.49 1184.13 2482.89 1185.03 2478.54 1186.82 2474.7 1189.52 2471.5 1192.73 2468.81 1196.58 2467.02 1200.94 2466.13 1205.57 2466 1208.13 2466 1297.99 2466.13 1300.43 2467.02 1305.05 2468.81 1309.42 2471.5 1313.27 2474.7 1316.48 2478.54 1319.18 2482.89 1320.97 2487.49 1321.87 2490.05 1322 2545.95 1322 2548.38 1321.87 2553.11 1320.97 2557.46 1319.18 2561.17 1316.48 2564.5 1313.27 2567.06 1309.42 2568.85 1305.05 2569.87 1300.43 2570 1297.99 2570 1231.11 2569.87 1228.8 2568.98 1224.31 2567.18 1219.94 2564.63 1216.09 2563.09 1214.3 2540.58 1191.19 2538.91 1189.52 2534.95 1186.82 2530.6 1185.03 2525.87 1184.13 2523.44 1184Z" fill="#28B5E8" fill-rule="evenodd"/><path d="M2448.34 1250 2446.02 1250.13 2441.9 1251.79 2438.8 1254.86 2437.13 1258.83 2437 1261.14 2437 1286.74 2437.13 1289.04 2438.8 1293.01 2441.9 1296.08 2446.02 1297.74 2448.34 1298 2533.66 1298 2535.98 1297.74 2539.97 1296.08 2543.07 1293.01 2544.74 1289.04 2545 1286.74 2545 1261.14 2544.74 1258.83 2543.07 1254.86 2539.97 1251.79 2535.98 1250.13 2533.66 1250Z" fill="#11567F" fill-rule="evenodd"/><text fill="#FFFFFF" font-family="Arial,Arial_MSFontService,sans-serif" font-weight="700" font-size="23" transform="matrix(1 0 0 1 2455.29 1283)">VIDEO</text></g></svg>