<svg width="140" height="119" xmlns="http://www.w3.org/2000/svg" xmlns:xlink="http://www.w3.org/1999/xlink" xml:space="preserve" overflow="hidden"><g transform="translate(-1576 -1463)"><path d="M1576 1484.71 1576.12 1482.5 1576.94 1478.21 1578.57 1474.26 1581.03 1470.89 1583.95 1467.88 1587.45 1465.55 1591.43 1463.93 1595.63 1463 1597.97 1463 1663.76 1463 1665.98 1463 1670.31 1463.93 1674.28 1465.55 1677.79 1467.88 1680.71 1470.89 1683.05 1474.26 1684.68 1478.21 1685.62 1482.5 1685.73 1484.71 1685.73 1493.07 1694.03 1493.07 1696.25 1493.07 1700.57 1494 1704.55 1495.62 1708.05 1497.95 1710.98 1500.96 1713.31 1504.45 1715.07 1508.28 1715.88 1512.57 1716 1514.78 1716 1560.17 1715.88 1562.38 1715.07 1566.67 1713.31 1570.62 1710.98 1573.99 1708.05 1577.01 1704.55 1579.33 1700.57 1580.95 1696.25 1581.88 1694.03 1582 1628.24 1582 1625.9 1581.88 1621.69 1580.95 1617.72 1579.33 1614.21 1577.01 1611.29 1573.99 1608.84 1570.62 1607.2 1566.67 1606.38 1562.38 1606.27 1560.17 1606.27 1551.81 1597.97 1551.81 1595.63 1551.81 1591.43 1550.89 1587.45 1549.26 1583.95 1546.94 1581.03 1543.92 1578.57 1540.44 1576.94 1536.61 1576.12 1532.31 1576 1530.1ZM1676.97 1484.71 1676.97 1493.07 1628.24 1493.07 1625.9 1493.07 1621.69 1494 1617.72 1495.62 1614.21 1497.95 1611.29 1500.96 1608.84 1504.45 1607.2 1508.28 1606.38 1512.57 1606.27 1514.78 1606.27 1543.11 1597.97 1543.11 1595.28 1542.99 1590.49 1541.02 1586.99 1537.42 1585 1532.77 1584.76 1530.1 1584.76 1484.71 1585 1482.04 1586.99 1477.4 1590.49 1473.8 1595.28 1471.82 1597.97 1471.71 1663.76 1471.71 1666.45 1471.82 1671.13 1473.8 1674.75 1477.4 1676.73 1482.04ZM1628.24 1501.78 1625.55 1501.89 1620.76 1503.87 1617.25 1507.47 1615.27 1512.11 1615.03 1514.78 1615.03 1520.24 1707.24 1520.24 1707.24 1514.78 1707 1512.11 1705.01 1507.47 1701.51 1503.87 1696.72 1501.89 1694.03 1501.78ZM1707.24 1528.94 1615.03 1528.94 1615.03 1560.17 1615.27 1562.84 1617.25 1567.49 1620.76 1571.09 1625.55 1573.06 1628.24 1573.29 1694.03 1573.29 1696.72 1573.06 1701.51 1571.09 1705.01 1567.49 1707 1562.84 1707.24 1560.17Z" fill="#28B5E8" fill-rule="evenodd"/></g></svg>