<svg width="82" height="90" xmlns="http://www.w3.org/2000/svg" xmlns:xlink="http://www.w3.org/1999/xlink" xml:space="preserve" overflow="hidden"><defs><clipPath id="clip0"><rect x="2177" y="366" width="82" height="90"/></clipPath></defs><g clip-path="url(#clip0)" transform="translate(-2177 -366)"><path d="M2217.12 388.001 2215.08 388.574 2213.91 389.528 2213.42 390.197 2199.68 411.301 2199.1 412.447 2199 414.835 2200.17 416.936 2202.22 418.177 2203.48 418.272 2214.2 418.272 2214.2 436.321 2214.2 437.18 2214.69 438.612 2216.15 440.141 2218.88 441 2220.92 440.427 2222.09 439.472 2222.58 438.804 2236.32 417.699 2236.9 416.553 2237 414.166 2235.83 412.161 2233.78 410.824 2232.52 410.728 2221.8 410.728 2221.8 392.68 2221.8 391.82 2221.31 390.388 2219.85 388.86 2217.12 388.001Z" fill="#28B5E8" fill-rule="evenodd"/><path d="M2224.02 367.637 2222.59 366.867 2219.53 366.001 2216.47 366.001 2213.41 366.867 2211.98 367.637 2182.93 384.771 2181.59 385.637 2179.39 387.947 2177.86 390.546 2177.1 393.626 2177 395.166 2177 443.968 2177 445.219 2177.48 447.626 2179.01 450.802 2182.26 454.075 2185.41 455.519 2187.7 456 2188.95 456 2247.05 456 2248.3 456 2250.59 455.519 2253.74 454.075 2256.99 450.802 2258.52 447.626 2259 445.219 2259 443.968 2259 395.166 2258.9 393.626 2258.14 390.546 2256.61 387.947 2254.41 385.637 2253.07 384.771ZM2215.61 373.797 2216.76 373.316 2219.24 373.316 2220.39 373.797 2249.44 391.027 2250.49 391.797 2251.74 393.915 2251.83 395.166 2251.83 443.968 2251.74 445.027 2251.07 446.759 2249.73 448.01 2248.01 448.781 2247.05 448.781 2188.95 448.781 2187.99 448.781 2186.27 448.01 2184.93 446.759 2184.26 445.027 2184.17 443.968 2184.17 395.166 2184.26 393.915 2185.51 391.797 2186.56 391.027Z" fill="#28B5E8" fill-rule="evenodd"/></g></svg>