<svg width="98" height="96" xmlns="http://www.w3.org/2000/svg" xmlns:xlink="http://www.w3.org/1999/xlink" xml:space="preserve" overflow="hidden"><g transform="translate(-1883 -363)"><path d="M1913.68 407 1913.1 407.683 1913 408.171 1913 421.634 1913 423 1913.58 425.536 1914.55 427.975 1916 430.122 1917.84 431.975 1919.97 433.439 1922.39 434.414 1924.91 434.999 1940.99 434.999 1943.61 434.414 1946.03 433.439 1948.16 431.975 1949.9 430.122 1951.35 427.975 1952.42 425.536 1952.9 423 1953 421.634 1953 408.171 1952.9 407.683 1952.23 407 1946.41 407 1945.74 407.683 1945.74 408.171 1945.74 421.634 1945.64 422.805 1944.67 425.048 1943.02 426.707 1940.89 427.585 1939.63 427.682 1926.37 427.682 1925.11 427.585 1922.88 426.707 1921.23 425.048 1920.36 422.805 1920.26 421.634 1920.26 408.171 1920.17 407.683 1919.59 407Z" fill="#28B5E8" fill-rule="evenodd"/><path d="M1898.68 367.608 1902.03 366.552 1909.68 364.824 1918.09 363.672 1927.17 363.097 1931.95 363.001 1936.73 363.097 1945.82 363.672 1954.23 364.824 1961.88 366.552 1965.22 367.608 1968.38 368.664 1973.83 371.352 1976.03 372.889 1977.94 374.616 1980.14 377.784 1980.9 380.28 1981 381.624 1980.81 383.544 1980.14 385.272 1967.81 441.432 1967.42 443.064 1966.28 446.328 1964.36 449.496 1961.78 452.184 1960.06 453.336 1957.58 454.488 1951.55 456.6 1944.48 458.136 1936.35 458.904 1931.95 459 1927.27 458.904 1918.57 457.752 1911.11 455.736 1904.99 452.952 1902.6 451.32 1901.17 450.264 1899.06 447.768 1896.96 443.448 1896.19 440.664 1883 382.968 1883.1 382.968 1883 382.296 1883 381.624 1883 380.28 1883.77 377.784 1885.96 374.616 1887.88 372.889 1890.08 371.352 1895.53 368.664ZM1892.27 378.648 1891.13 379.704 1890.17 381.144 1890.17 381.624 1890.17 382.008 1891.13 383.544 1892.27 384.6 1893.8 385.656 1898.2 387.769 1900.97 388.824 1903.94 389.688 1910.92 391.224 1918.76 392.376 1927.36 392.952 1931.95 393.048 1936.54 392.952 1945.15 392.376 1952.99 391.224 1959.97 389.688 1962.93 388.824 1965.7 387.769 1970.1 385.656 1971.63 384.6 1972.78 383.544 1973.73 382.008 1973.83 381.624 1973.73 381.144 1972.78 379.704 1971.63 378.648 1970.1 377.497 1965.7 375.385 1962.93 374.424 1959.97 373.464 1952.99 371.929 1945.15 370.872 1936.54 370.297 1931.95 370.201 1927.36 370.297 1918.76 370.872 1910.92 371.929 1903.94 373.464 1900.97 374.424 1898.2 375.385 1893.8 377.497ZM1892.75 393.24 1903.27 439.032 1903.75 441.24 1905.47 444.408 1906.71 445.464 1908.53 446.616 1913.6 448.92 1920 450.648 1927.65 451.704 1931.95 451.8 1936.06 451.704 1943.43 451.032 1949.64 449.688 1954.71 447.96 1956.62 446.904 1957.38 446.52 1958.63 445.176 1960.16 442.392 1960.83 439.896 1971.06 393.24 1968.28 394.584 1965.22 395.64 1961.88 396.697 1954.23 398.328 1945.82 399.576 1936.73 400.152 1931.95 400.248 1927.17 400.152 1918.09 399.576 1909.68 398.328 1902.03 396.697 1898.68 395.64 1895.53 394.488Z" fill="#28B5E8" fill-rule="evenodd"/></g></svg>