<svg width="136" height="158" xmlns="http://www.w3.org/2000/svg" xmlns:xlink="http://www.w3.org/1999/xlink" xml:space="preserve" overflow="hidden"><defs><clipPath id="clip0"><rect x="887" y="636" width="136" height="158"/></clipPath></defs><g clip-path="url(#clip0)" transform="translate(-887 -636)"><path d="M951.258 636.001 948.161 636.642 943.645 638.566 939 642.799 936.678 647.032 935.775 650.111 935.516 651.778 933.839 668.326 933.71 668.967 932.807 669.736 932.162 669.865 920.678 669.865 919.775 670.763 919.646 671.404 919.646 676.663 919.775 677.305 920.678 678.202 921.323 678.331 931.775 678.331 932.678 679.357 932.678 679.998 929.452 712.452 929.065 714.119 927.646 717.07 925.194 719.25 922.098 720.405 920.419 720.533 919.903 720.533 918.355 720.405 915.517 719.379 913.323 717.583 911.904 715.145 911.517 713.735 911.259 713.093 910.355 712.196 909.71 712.067 904.549 712.067 903.775 712.196 903.001 713.093 903.001 713.735 903.388 716.813 906.226 722.329 910.742 726.434 916.549 728.742 919.903 728.999 922.098 728.999 925.323 728.358 929.71 726.434 934.355 722.201 936.678 718.096 937.581 714.889 937.839 713.222 941.194 679.742 941.323 679.101 942.226 678.331 958.871 678.331 961.452 678.459 966.354 680.64 968.29 682.436 977.58 692.826 977.967 693.339 977.967 694.494 977.58 695.007 960.29 712.196 959.903 712.709 959.903 713.991 960.29 714.505 964.032 718.224 964.548 718.609 965.709 718.609 966.225 718.224 983.129 701.421 983.645 701.035 984.935 701.035 985.451 701.421 1000.29 717.967 1000.81 718.353 1002.1 718.481 1002.61 718.096 1006.48 714.505 1006.87 714.119 1007 712.836 1006.61 712.323 991.386 695.391 990.999 694.878 990.999 693.595 991.386 693.211 1006.48 678.202 1006.87 677.689 1006.87 676.407 1006.48 675.893 1002.74 672.174 1002.22 671.789 1000.93 671.789 1000.42 672.174 985.838 686.797 985.322 687.182 984.032 687.054 983.516 686.669 974.613 676.792 973.064 675.253 969.452 672.558 965.452 670.763 961.064 669.865 944.032 669.865 943.259 669.736 942.484 668.71 942.355 668.069 943.903 652.676 944.161 650.881 945.71 647.93 948.161 645.75 951.258 644.595 953.064 644.467 953.968 644.467 955.387 644.595 958.097 645.493 960.29 647.417 961.709 649.854 961.968 651.265 962.225 651.907 963.129 652.804 963.774 652.804 969.064 652.933 969.709 652.933 970.484 652.034 970.613 651.394 970.097 648.186 967.387 642.671 963 638.566 958.741 636.642 955.516 636.001Z" fill="#28B5E8" fill-rule="evenodd"/><path d="M898.259 742 895.956 742.128 891.862 743.792 888.791 746.865 887.128 750.961 887 753.265 887 778.864 887.128 781.04 888.791 785.136 891.862 788.208 895.956 789.872 898.259 790 1011.74 790 1014.04 789.872 1018.01 788.208 1021.08 785.136 1022.74 781.04 1023 778.864 1023 753.265 1022.74 750.961 1021.08 746.865 1018.01 743.792 1014.04 742.128 1011.74 742Z" fill="#11567F" fill-rule="evenodd"/><text fill="#FFFFFF" font-family="Arial,Arial_MSFontService,sans-serif" font-weight="700" font-size="23" transform="matrix(1 0 0 1 904.923 774)">WINDOW</text></g></svg>