<svg width="133" height="138" xmlns="http://www.w3.org/2000/svg" xmlns:xlink="http://www.w3.org/1999/xlink" xml:space="preserve" overflow="hidden"><defs><clipPath id="clip0"><rect x="722" y="1184" width="133" height="138"/></clipPath></defs><g clip-path="url(#clip0)" transform="translate(-722 -1184)"><path d="M760.595 1208.13 760.851 1205.18 763.026 1199.92 766.863 1196.07 772.108 1193.88 775.05 1193.63 807.03 1193.63 807.03 1220.07 807.158 1222.77 809.076 1227.39 812.53 1230.86 817.135 1232.78 819.822 1232.91 845.405 1232.91 845.405 1297.99 845.15 1300.82 842.975 1306.08 839.01 1309.93 833.893 1312.12 830.951 1312.37 775.05 1312.37 772.108 1312.12 766.863 1309.93 763.026 1306.08 760.851 1300.82 760.595 1297.99ZM842.975 1223.28 842.208 1222.13 841.184 1221.1 818.798 1197.99 817.775 1196.97 816.623 1196.07 816.623 1220.07 816.752 1221.36 818.414 1223.15 819.822 1223.28ZM775.05 1184 772.491 1184.13 767.886 1185.03 763.537 1186.82 759.7 1189.52 756.501 1192.73 753.815 1196.58 752.024 1200.94 751.129 1205.57 751.001 1208.13 751.001 1297.99 751.129 1300.43 752.024 1305.05 753.815 1309.42 756.501 1313.27 759.7 1316.48 763.537 1319.18 767.886 1320.97 772.491 1321.87 775.05 1322 830.951 1322 833.381 1321.87 838.114 1320.97 842.464 1319.18 846.173 1316.48 849.499 1313.27 852.058 1309.42 853.848 1305.05 854.872 1300.43 854.999 1297.99 854.999 1231.11 854.872 1228.8 853.976 1224.31 852.185 1219.94 849.627 1216.09 848.092 1214.3 825.578 1191.19 823.915 1189.52 819.949 1186.82 815.6 1185.03 810.867 1184.13 808.437 1184Z" fill="#28B5E8" fill-rule="evenodd"/><path d="M733.289 1250 730.98 1250.13 726.875 1251.79 723.797 1254.86 722.129 1258.83 722.001 1261.14 722.001 1286.74 722.129 1289.04 723.797 1293.01 726.875 1296.08 730.98 1297.74 733.289 1298 803.84 1298 806.02 1297.74 810.125 1296.08 813.203 1293.01 814.871 1289.04 814.999 1286.74 814.999 1261.14 814.871 1258.83 813.203 1254.86 810.125 1251.79 806.02 1250.13 803.84 1250Z" fill="#11567F" fill-rule="evenodd"/><text fill="#FFFFFF" font-family="Arial,Arial_MSFontService,sans-serif" font-weight="700" font-size="23" transform="matrix(1 0 0 1 742.968 1283)">XLW</text></g></svg>