<svg width="133" height="138" xmlns="http://www.w3.org/2000/svg" xmlns:xlink="http://www.w3.org/1999/xlink" xml:space="preserve" overflow="hidden"><defs><clipPath id="clip0"><rect x="1011" y="1184" width="133" height="138"/></clipPath></defs><g clip-path="url(#clip0)" transform="translate(-1011 -1184)"><path d="M1049.59 1208.13 1049.85 1205.18 1052.03 1199.92 1055.86 1196.07 1061.11 1193.88 1064.05 1193.63 1096.03 1193.63 1096.03 1220.07 1096.16 1222.77 1098.08 1227.39 1101.53 1230.86 1106.14 1232.78 1108.82 1232.91 1134.41 1232.91 1134.41 1297.99 1134.15 1300.82 1131.98 1306.08 1128.01 1309.93 1122.89 1312.12 1119.95 1312.37 1064.05 1312.37 1061.11 1312.12 1055.86 1309.93 1052.03 1306.08 1049.85 1300.82 1049.59 1297.99ZM1131.98 1223.28 1131.21 1222.13 1130.18 1221.1 1107.8 1197.99 1106.77 1196.97 1105.62 1196.07 1105.62 1220.07 1105.75 1221.36 1107.41 1223.15 1108.82 1223.28ZM1064.05 1184 1061.49 1184.13 1056.89 1185.03 1052.54 1186.82 1048.7 1189.52 1045.5 1192.73 1042.81 1196.58 1041.02 1200.94 1040.13 1205.57 1040 1208.13 1040 1297.99 1040.13 1300.43 1041.02 1305.05 1042.81 1309.42 1045.5 1313.27 1048.7 1316.48 1052.54 1319.18 1056.89 1320.97 1061.49 1321.87 1064.05 1322 1119.95 1322 1122.38 1321.87 1127.11 1320.97 1131.46 1319.18 1135.17 1316.48 1138.5 1313.27 1141.06 1309.42 1142.85 1305.05 1143.87 1300.43 1144 1297.99 1144 1231.11 1143.87 1228.8 1142.98 1224.31 1141.19 1219.94 1138.63 1216.09 1137.09 1214.3 1114.58 1191.19 1112.91 1189.52 1108.95 1186.82 1104.6 1185.03 1099.87 1184.13 1097.44 1184Z" fill="#28B5E8" fill-rule="evenodd"/><path d="M1022.29 1250 1019.98 1250.13 1015.87 1251.79 1012.8 1254.86 1011.13 1258.83 1011 1261.14 1011 1286.74 1011.13 1289.04 1012.8 1293.01 1015.87 1296.08 1019.98 1297.74 1022.29 1298 1092.84 1298 1095.02 1297.74 1099.13 1296.08 1102.2 1293.01 1103.87 1289.04 1104 1286.74 1104 1261.14 1103.87 1258.83 1102.2 1254.86 1099.13 1251.79 1095.02 1250.13 1092.84 1250Z" fill="#11567F" fill-rule="evenodd"/><text fill="#FFFFFF" font-family="Arial,Arial_MSFontService,sans-serif" font-weight="700" font-size="23" transform="matrix(1 0 0 1 1033.7 1283)">XML</text></g></svg>