<svg width="95" height="95" xmlns="http://www.w3.org/2000/svg" xmlns:xlink="http://www.w3.org/1999/xlink" xml:space="preserve" overflow="hidden"><defs><clipPath id="clip0"><rect x="741" y="923" width="95" height="95"/></clipPath></defs><g clip-path="url(#clip0)" transform="translate(-741 -923)"><path d="M765.439 986C760.745 986.032 756.966 989.639 757 994.057 757.034 998.475 760.867 1002.03 765.561 1002 770.255 1001.97 774.034 998.361 774 993.942 773.984 991.841 773.089 989.829 771.51 988.343 769.901 986.829 767.714 985.985 765.439 986ZM768.08 996.457C766.622 997.83 764.258 997.831 762.799 996.459 762.799 996.458 762.798 996.458 762.798 996.457 761.34 995.084 761.341 992.859 762.799 991.487 764.258 990.115 766.622 990.116 768.08 991.489 769.537 992.861 769.537 995.085 768.08 996.457Z" fill="#2AB5E8" fill-rule="evenodd"/><path d="M832.287 923 821.182 923.297C820.543 923.32 819.92 923.504 819.371 923.831 818.864 924.141 818.395 924.51 817.975 924.93L784.185 958.714C772.542 953.714 759.028 956.287 750.038 965.216 737.969 977.31 737.99 996.896 750.086 1008.96 755.875 1014.74 763.715 1017.99 771.892 1018 774.856 1018 777.805 1017.58 780.652 1016.75 797.039 1011.86 806.355 994.606 801.458 978.22 801.126 977.11 800.732 976.019 800.278 974.953L809.186 966.047 815.303 966.759C816.39 966.854 817.468 966.488 818.272 965.75 819.052 964.969 819.444 963.881 819.341 962.781L819.014 959.189 822.488 959.545C824.477 959.766 826.268 958.334 826.489 956.346 826.515 956.107 826.518 955.866 826.497 955.627L826.17 952.005 829.674 952.391C830.776 952.511 831.871 952.117 832.643 951.322 833.425 950.544 833.798 949.446 833.653 948.353L832.792 942.297 834.751 940.219C835.374 939.572 835.725 938.712 835.731 937.814L835.998 926.8C836.029 925.808 835.641 924.849 834.929 924.158 834.253 923.414 833.292 922.993 832.287 923ZM828.576 936.181 826.408 938.467C825.674 939.271 825.327 940.355 825.458 941.436L825.844 944.82 822.399 944.375C820.41 944.157 818.621 945.592 818.403 947.58 818.379 947.797 818.375 948.016 818.391 948.234L818.717 951.826 815.243 951.47C814.151 951.33 813.055 951.702 812.274 952.48 811.49 953.259 811.098 954.349 811.205 955.449L811.532 959.041 808.088 958.655C806.99 958.522 805.893 958.906 805.118 959.694L793.241 971.569C792.126 972.719 791.874 974.454 792.617 975.874 797.574 985.083 795.923 996.451 788.55 1003.87 779.147 1013.02 764.108 1012.81 754.96 1003.41 749.049 997.335 746.823 988.573 749.118 980.416 752.133 970.374 761.376 963.497 771.862 963.494 775.795 963.516 779.657 964.538 783.086 966.463 784.502 967.225 786.25 966.972 787.392 965.839L822.637 930.422 828.576 930.422Z" fill="#2AB5E8" fill-rule="evenodd"/></g></svg>