<svg width="69" height="67" xmlns="http://www.w3.org/2000/svg" xmlns:xlink="http://www.w3.org/1999/xlink" xml:space="preserve" overflow="hidden"><g transform="translate(-3041 -1501)"><path d="M3043.94 1568 3107.06 1568C3108.68 1568 3110 1566.67 3110 1565.04 3110 1563.4 3108.68 1562.08 3107.06 1562.08L3104.23 1562.08 3104.23 1519.89C3104.22 1517.74 3102.49 1516 3100.35 1516L3091.29 1516C3089.16 1516 3087.42 1517.74 3087.41 1519.89L3087.41 1562.08 3083.9 1562.08 3083.9 1531.85C3083.89 1529.7 3082.15 1527.96 3080.02 1527.96L3070.93 1527.96C3068.8 1527.96 3067.06 1529.7 3067.05 1531.85L3067.05 1562.08 3063.31 1562.08 3063.31 1542.63C3063.31 1540.47 3061.57 1538.72 3059.43 1538.72L3050.37 1538.72C3048.22 1538.72 3046.48 1540.47 3046.48 1542.63L3046.48 1562.08 3043.94 1562.08C3042.32 1562.08 3041 1563.4 3041 1565.04 3041 1566.67 3042.32 1568 3043.94 1568ZM3091.29 1519.79 3100.47 1519.79 3100.47 1562.08 3091.17 1562.08ZM3070.93 1531.75 3080.14 1531.75 3080.14 1562.08 3070.72 1562.08ZM3050.37 1542.51 3059.54 1542.63 3059.54 1562.08 3050.25 1562.08Z" fill="#2AB5E8" fill-rule="evenodd"/><path d="M3046.92 1537C3047.2 1536.99 3047.49 1536.92 3047.74 1536.79L3047.74 1536.79 3097.82 1508.05 3097.71 1508.41C3097.32 1509.37 3097.8 1510.47 3098.77 1510.85 3099.28 1511.05 3099.86 1511.02 3100.35 1510.76 3100.68 1510.57 3100.94 1510.29 3101.11 1509.96L3103.99 1504.08C3103.99 1504.08 3103.99 1503.96 3103.99 1503.89 3104 1503.78 3104 1503.66 3103.99 1503.54 3103.99 1503.54 3103.99 1503.54 3103.99 1503.54 3103.99 1503.54 3103.99 1503.54 3103.99 1503.54L3103.99 1503.54C3103.99 1503.54 3103.99 1503.42 3103.99 1503.37 3104 1503.26 3104 1503.14 3103.99 1503.02 3104 1502.96 3104 1502.9 3103.99 1502.83 3103.99 1502.83 3103.99 1502.83 3103.99 1502.65 3103.99 1502.46 3103.99 1502.65 3103.99 1502.5L3103.87 1502.36C3103.87 1502.36 3103.87 1502.25 3103.87 1502.2L3103.71 1502.2C3103.62 1502.11 3103.53 1502.04 3103.42 1501.99L3103.28 1501.87 3103.28 1501.87 3103.09 1501.87 3102.74 1501.87 3102.57 1501.87 3095.82 1501.02C3094.79 1500.86 3093.82 1501.56 3093.65 1502.59 3093.49 1503.61 3094.19 1504.58 3095.22 1504.74 3095.33 1504.76 3095.45 1504.76 3095.56 1504.76L3095.93 1504.76 3045.85 1533.54 3045.85 1533.54C3045.33 1533.88 3045.01 1534.45 3045 1535.07 3044.96 1536.1 3045.76 1536.96 3046.79 1537 3046.83 1537 3046.87 1537 3046.92 1537Z" fill="#2AB5E8" fill-rule="evenodd"/></g></svg>