<svg width="102" height="91" xmlns="http://www.w3.org/2000/svg" xmlns:xlink="http://www.w3.org/1999/xlink" xml:space="preserve" overflow="hidden"><defs><clipPath id="clip0"><rect x="1309" y="661" width="102" height="91"/></clipPath></defs><g clip-path="url(#clip0)" transform="translate(-1309 -661)"><path d="M1368.59 665.926C1365.83 661.192 1359.76 659.592 1355.03 662.351 1353.55 663.214 1352.32 664.446 1351.46 665.926L1310.35 737.121C1308.55 740.181 1308.55 743.98 1310.35 747.04 1312.11 750.127 1315.4 752.024 1318.95 752L1401.09 752C1406.57 751.996 1411 747.551 1411 742.073 1411 740.347 1410.55 738.65 1409.69 737.152ZM1402.88 743.116C1402.5 743.739 1401.82 744.119 1401.09 744.121L1318.95 744.121C1318.22 744.119 1317.54 743.739 1317.16 743.116 1316.79 742.477 1316.79 741.684 1317.16 741.045L1358.23 669.849C1358.84 668.861 1360.14 668.555 1361.13 669.166 1361.4 669.337 1361.64 669.571 1361.81 669.849L1402.88 741.045C1403.26 741.684 1403.26 742.477 1402.88 743.116Z" fill="#2AB5E8" fill-rule="evenodd"/><path d="M1359.95 728C1357.75 728.017 1355.98 729.787 1356 731.953 1356 731.953 1356 731.953 1356 731.953 1355.97 734.142 1357.73 735.949 1359.95 736 1362.2 735.966 1364 734.164 1364 731.953 1363.98 729.765 1362.18 728 1359.95 728Z" fill="#2AB5E8" fill-rule="evenodd"/><path d="M1362.59 724 1364 690 1356 690 1357.41 724 1362.59 724Z" fill="#2AB5E8" fill-rule="evenodd"/></g></svg>