<svg width="69" height="72" xmlns="http://www.w3.org/2000/svg" xmlns:xlink="http://www.w3.org/1999/xlink" xml:space="preserve" overflow="hidden"><g transform="translate(-2469 -655)"><path d="M2512.27 655.156C2508.31 655.156 2505.12 658.372 2505.12 662.354 2505.12 666.328 2508.31 669.56 2512.27 669.56 2516.23 669.56 2519.44 666.328 2519.44 662.354 2519.45 658.372 2516.25 655.156 2512.27 655.156ZM2530.83 655.156C2526.87 655.156 2523.67 658.372 2523.67 662.354 2523.64 666.328 2526.86 669.56 2530.83 669.56 2534.78 669.56 2537.99 666.328 2537.99 662.354 2537.99 658.372 2534.78 655.156 2530.83 655.156ZM2512.27 677.557C2514.43 677.557 2516.16 679.305 2516.16 681.473 2516.16 683.633 2514.43 685.365 2512.27 685.389 2510.13 685.389 2508.38 683.633 2508.38 681.473 2508.38 679.305 2510.13 677.557 2512.27 677.557ZM2530.83 677.557C2532.98 677.557 2534.72 679.305 2534.72 681.473 2534.72 683.633 2532.98 685.389 2530.83 685.389 2528.68 685.389 2526.93 683.633 2526.93 681.473 2526.93 679.305 2528.68 677.557 2530.83 677.557ZM2512.32 674.267C2512.31 674.267 2512.3 674.267 2512.3 674.267 2508.34 674.267 2505.13 677.499 2505.13 681.473 2505.13 685.455 2508.34 688.671 2512.3 688.671 2516.25 688.671 2519.45 685.455 2519.45 681.473 2519.45 677.475 2516.26 674.267 2512.32 674.267ZM2530.81 674.267C2526.86 674.267 2523.64 677.499 2523.64 681.473 2523.64 685.455 2526.86 688.671 2530.81 688.671 2534.77 688.671 2537.98 685.455 2537.98 681.473 2537.98 677.499 2534.77 674.267 2530.81 674.267ZM2512.27 693.362C2508.31 693.362 2505.12 696.594 2505.12 700.576 2505.12 704.55 2508.31 707.774 2512.27 707.774 2516.23 707.774 2519.44 704.55 2519.44 700.576 2519.45 696.594 2516.25 693.362 2512.27 693.362ZM2530.83 693.362C2526.87 693.362 2523.67 696.594 2523.67 700.576 2523.67 704.55 2526.87 707.774 2530.83 707.774 2534.78 707.774 2537.99 704.55 2537.99 700.576 2537.99 696.594 2534.78 693.362 2530.83 693.362ZM2530.81 715.763C2532.95 715.763 2534.71 717.527 2534.71 719.687 2534.71 721.839 2532.95 723.603 2530.81 723.603 2528.68 723.603 2526.92 721.839 2526.92 719.687 2526.92 717.527 2528.68 715.763 2530.81 715.763ZM2512.27 712.473C2508.31 712.473 2505.12 715.705 2505.12 719.687 2505.12 723.661 2508.31 726.893 2512.27 726.893 2516.23 726.893 2519.44 723.661 2519.44 719.687 2519.45 715.705 2516.25 712.473 2512.27 712.473ZM2530.83 712.473C2526.87 712.473 2523.67 715.705 2523.67 719.687 2523.67 723.661 2526.87 726.893 2530.83 726.893 2534.78 726.893 2537.99 723.661 2537.99 719.687 2537.99 715.705 2534.78 712.473 2530.83 712.473ZM2500.07 655.008C2485 655.008 2469.01 659.765 2469.01 668.595L2469.01 713.405C2469.01 722.235 2485 726.992 2500.07 726.992 2500.56 726.992 2501.08 726.984 2501.6 726.967L2501.6 721.855C2501.1 721.872 2500.59 721.888 2500.07 721.888 2484.22 721.888 2474.13 716.892 2474.13 713.454L2474.13 706.207C2480.05 710.066 2490.24 712.094 2500.07 712.094 2500.56 712.094 2501.08 712.061 2501.6 712.044L2501.6 706.891C2501.1 706.9 2500.59 706.916 2500.07 706.916 2484.22 706.916 2474.13 701.936 2474.13 698.49L2474.13 691.284C2480.05 695.135 2490.24 697.171 2500.07 697.171 2500.56 697.171 2501.08 697.146 2501.6 697.122L2501.6 691.969C2501.1 691.977 2500.59 692.002 2500.07 692.002 2484.22 692.002 2474.13 687.005 2474.13 683.567L2474.13 676.312C2480.05 680.162 2490.24 682.207 2500.07 682.207 2500.56 682.207 2501.08 682.174 2501.6 682.158L2501.6 677.005C2501.1 677.021 2500.59 677.029 2500.07 677.029 2484.22 677.029 2474.13 672.033 2474.13 668.595 2474.13 665.157 2484.22 660.161 2500.07 660.161 2500.58 660.161 2501.08 660.186 2501.6 660.194L2501.6 655.041C2501.1 655.016 2500.58 655.008 2500.07 655.008Z" fill="#2AB5E8" fill-rule="evenodd"/></g></svg>