<svg width="118" height="118" xmlns="http://www.w3.org/2000/svg" xmlns:xlink="http://www.w3.org/1999/xlink" xml:space="preserve" overflow="hidden"><g transform="translate(-2731 -913)"><path d="M2829.26 934.482C2828.5 934.482 2827.73 934.772 2827.14 935.339L2806.8 954.883 2789.24 937.251C2788.66 936.645 2787.85 936.341 2787.06 936.341 2786.37 936.341 2785.69 936.566 2785.12 937.014L2759.76 957.52C2758.42 958.602 2758.21 960.514 2759.28 961.846 2759.89 962.637 2760.8 963.019 2761.71 963.019 2762.39 963.019 2763.08 962.808 2763.63 962.334L2786.88 943.581 2804.61 961.384C2805.21 961.991 2806.01 962.281 2806.78 962.281 2807.56 962.281 2808.33 962.004 2808.92 961.437L2831.43 939.797C2832.64 938.623 2832.7 936.671 2831.5 935.432 2830.9 934.812 2830.08 934.482 2829.26 934.482ZM2780.96 962.004C2779.73 962.004 2778.7 963.006 2778.7 964.259L2778.7 1004.99C2778.7 1006.22 2779.73 1007.24 2780.96 1007.24L2790.03 1007.24C2791.28 1007.24 2792.27 1006.22 2792.27 1004.99L2792.27 964.272C2792.27 963.019 2791.28 962.03 2790.03 962.03L2780.96 962.03 2780.96 962.004ZM2803.04 975.574C2801.79 975.574 2800.78 976.589 2800.78 977.829L2800.78 1004.99C2800.78 1006.22 2801.79 1007.24 2803.04 1007.24L2812.08 1007.24C2813.34 1007.24 2814.34 1006.22 2814.34 1004.99L2814.34 977.829C2814.34 976.589 2813.34 975.574 2812.08 975.574ZM2758.91 975.574C2757.66 975.574 2756.66 976.589 2756.66 977.829L2756.66 1004.99C2756.66 1006.25 2757.66 1007.26 2758.91 1007.26L2767.98 1007.26C2769.21 1007.26 2770.21 1006.25 2770.21 1005.01L2770.21 977.829C2770.21 976.589 2769.21 975.574 2767.98 975.574ZM2825.02 957.507C2823.79 957.507 2822.83 958.523 2822.83 959.749L2822.83 1005.01C2822.83 1006.26 2823.83 1007.26 2825.08 1007.26L2834.15 1007.26C2835.38 1007.26 2836.4 1006.26 2836.4 1005.01L2836.4 959.749C2836.4 958.496 2835.38 957.507 2834.15 957.507L2825.08 957.507C2825.06 957.507 2825.04 957.507 2825.02 957.507ZM2742.48 913.013C2739.9 913.013 2737.83 915.123 2737.83 917.695L2737.83 1014.85 2735.69 1014.85C2733.08 1014.85 2731.01 1016.93 2731.01 1019.51 2731.01 1022.12 2733.12 1024.2 2735.69 1024.2L2737.83 1024.2 2737.83 1026.33C2737.83 1028.92 2739.9 1031 2742.48 1031 2745.09 1031 2747.16 1028.9 2747.16 1026.33L2747.16 1024.2 2844.33 1024.2C2846.92 1024.2 2848.99 1022.09 2848.99 1019.51 2848.99 1016.98 2846.93 1014.89 2844.4 1014.89 2844.37 1014.89 2844.36 1014.89 2844.33 1014.89L2747.16 1014.89 2747.16 917.695C2747.16 915.11 2745.09 913.013 2742.48 913.013Z" fill="#2AB5E8" fill-rule="evenodd"/></g></svg>