<svg width="94" height="67" xmlns="http://www.w3.org/2000/svg" xmlns:xlink="http://www.w3.org/1999/xlink" xml:space="preserve" overflow="hidden"><defs><clipPath id="clip0"><rect x="1885" y="1220" width="94" height="67"/></clipPath></defs><g clip-path="url(#clip0)" transform="translate(-1885 -1220)"><path d="M1966.62 1220 1897.38 1220C1890.54 1220 1885 1225.49 1885 1232.25L1885 1274.75C1885 1281.51 1890.54 1287 1897.38 1287L1966.62 1287C1973.46 1287 1979 1281.51 1979 1274.75L1979 1232.25C1979 1225.49 1973.46 1220 1966.62 1220ZM1971.77 1274.75C1971.77 1277.56 1969.46 1279.84 1966.62 1279.84L1897.38 1279.84C1894.54 1279.84 1892.23 1277.56 1892.23 1274.75L1892.23 1243.48 1971.77 1243.48ZM1971.77 1238.87 1892.23 1238.87 1892.23 1232.25C1892.23 1229.44 1894.54 1227.16 1897.38 1227.16L1966.62 1227.16C1969.46 1227.16 1971.77 1229.44 1971.77 1232.25Z" fill="#2AB5E8" fill-rule="evenodd"/><path d="M1899.59 1230C1898.21 1229.95 1897.05 1231.03 1897 1232.41 1896.95 1233.79 1898.03 1234.95 1899.41 1235 1900.79 1235.05 1901.95 1233.97 1902 1232.59 1902 1232.56 1902 1232.53 1902 1232.5 1902 1231.15 1900.93 1230.05 1899.59 1230Z" fill="#2AB5E8" fill-rule="evenodd"/><path d="M1907.5 1230C1906.12 1230 1905 1231.12 1905 1232.5 1905 1233.88 1906.12 1235 1907.5 1235 1908.88 1235 1910 1233.88 1910 1232.5 1910 1231.12 1908.88 1230 1907.5 1230Z" fill="#2AB5E8" fill-rule="evenodd"/></g></svg>