<svg width="109" height="109" xmlns="http://www.w3.org/2000/svg" xmlns:xlink="http://www.w3.org/1999/xlink" xml:space="preserve" overflow="hidden"><defs><clipPath id="clip0"><rect x="734" y="1197" width="109" height="109"/></clipPath></defs><g clip-path="url(#clip0)" transform="translate(-734 -1197)"><path d="M761.79 1222.19C761.488 1222.19 761.174 1222.26 760.873 1222.4 760.764 1222.43 760.679 1222.52 760.571 1222.59 760.39 1222.7 760.172 1222.78 760.028 1222.95L760.028 1222.96C759.533 1223.47 759.243 1224.11 759.243 1224.85L759.243 1239.18C759.243 1240.62 760.426 1241.82 761.875 1241.82 763.347 1241.82 764.531 1240.62 764.531 1239.18L764.531 1231.21 784.788 1251.46 764.531 1271.72 764.531 1263.84C764.531 1262.39 763.347 1261.2 761.875 1261.2 760.426 1261.2 759.243 1262.39 759.243 1263.84L759.243 1278.15C759.243 1279.61 760.426 1280.81 761.875 1280.81L776.204 1280.81C777.653 1280.81 778.836 1279.61 778.836 1278.15 778.836 1276.7 777.653 1275.52 776.204 1275.52L768.237 1275.52 788.53 1255.23 808.811 1275.52 800.856 1275.52C799.395 1275.52 798.212 1276.7 798.212 1278.15 798.212 1279.61 799.395 1280.81 800.856 1280.81L815.173 1280.81C816.622 1280.81 817.805 1279.61 817.805 1278.15L817.805 1263.84C817.805 1262.39 816.622 1261.2 815.173 1261.2 813.725 1261.2 812.518 1262.39 812.518 1263.84L812.518 1271.72 792.26 1251.46 812.518 1231.21 812.518 1239.18C812.518 1240.62 813.725 1241.82 815.173 1241.82 816.622 1241.82 817.805 1240.62 817.805 1239.18L817.805 1224.85C817.805 1224.11 817.527 1223.45 817.105 1222.96L817.105 1222.95C816.972 1222.78 816.755 1222.7 816.574 1222.59 816.465 1222.52 816.381 1222.43 816.272 1222.4 815.922 1222.23 815.548 1222.19 815.173 1222.19L800.928 1222.19C799.455 1222.19 798.272 1223.37 798.272 1224.84 798.272 1226.28 799.455 1227.48 800.928 1227.48L808.811 1227.48 788.566 1247.7 768.333 1227.48 776.216 1227.48C777.677 1227.48 778.872 1226.28 778.872 1224.84 778.872 1223.37 777.677 1222.19 776.216 1222.19L761.971 1222.19C761.911 1222.19 761.85 1222.19 761.79 1222.19ZM825.845 1205.29C830.71 1205.29 834.718 1209.29 834.718 1214.16L834.694 1214.16 834.694 1288.82C834.694 1293.7 830.698 1297.7 825.821 1297.7L751.179 1297.7C746.277 1297.7 742.306 1293.71 742.306 1288.82L742.306 1214.16C742.306 1209.29 746.277 1205.29 751.179 1205.29ZM751.179 1197.01C741.714 1197.01 734 1204.71 734 1214.16L734 1288.82C734 1298.29 741.714 1305.99 751.179 1305.99L825.845 1305.99C835.286 1305.99 843 1298.29 843 1288.82L843 1214.16C843 1204.71 835.286 1197.01 825.821 1197.01Z" fill="#2AB5E8" fill-rule="evenodd"/></g></svg>