<svg width="85" height="82" xmlns="http://www.w3.org/2000/svg" xmlns:xlink="http://www.w3.org/1999/xlink" xml:space="preserve" overflow="hidden"><defs><clipPath id="clip0"><rect x="746" y="666" width="85" height="82"/></clipPath></defs><g clip-path="url(#clip0)" transform="translate(-746 -666)"><path d="M789.472 666C787.667 666 786.204 667.453 786.204 669.246 786.204 671.039 787.667 672.492 789.472 672.492 808.462 672.776 823.705 688.143 823.703 707 823.922 725.764 808.839 741.182 789.943 741.509 772.488 741.287 757.992 728.068 756.288 710.817 757.275 711.414 758.562 711.102 759.162 710.122 759.65 709.326 759.544 708.304 758.902 707.623L753.673 703.157C753.266 702.775 752.713 702.585 752.156 702.638 751.585 702.66 751.052 702.925 750.691 703.365L746.481 708.532C745.749 709.418 745.865 710.723 746.743 711.466 747.112 711.787 747.586 711.962 748.076 711.96 748.71 711.948 749.301 711.64 749.672 711.129L749.672 711.129C751.553 731.872 768.969 747.817 789.943 748 812.748 747.871 831.129 729.41 830.999 706.767 830.869 684.123 812.277 665.871 789.472 666Z" fill="#2AB5E8" fill-rule="evenodd"/><path d="M788.863 727.998C790.543 728.056 791.951 726.722 792.008 725.019 792.009 724.983 792.01 724.948 792.01 724.913L792.01 705.693 802.12 695.233C803.294 694.031 803.294 692.095 802.12 690.892 800.934 689.702 799.024 689.702 797.839 690.892L786.851 702.241C786.31 702.799 786.004 703.55 786 704.333L786 724.913C785.997 726.548 787.253 727.901 788.863 727.998Z" fill="#2AB5E8" fill-rule="evenodd"/></g></svg>