<svg width="72" height="96" xmlns="http://www.w3.org/2000/svg" xmlns:xlink="http://www.w3.org/1999/xlink" xml:space="preserve" overflow="hidden"><g transform="translate(-752 -1485)"><path d="M783.636 1500.42C782.306 1500.42 781.239 1501.49 781.239 1502.83L781.239 1508.13 776.659 1505.47C776.276 1505.26 775.868 1505.15 775.449 1505.15 774.621 1505.15 773.806 1505.58 773.363 1506.35 772.691 1507.53 773.099 1509 774.262 1509.67L782.414 1514.41C782.785 1514.61 783.181 1514.72 783.576 1514.72 783.66 1514.72 783.732 1514.72 783.816 1514.71 785.063 1514.61 786.046 1513.58 786.046 1512.29L786.046 1502.83C786.046 1501.49 784.967 1500.42 783.636 1500.42ZM792.364 1500.46C791.021 1500.46 789.954 1501.52 789.954 1502.85L789.954 1512.32C789.954 1513.58 790.937 1514.61 792.184 1514.71 792.268 1514.72 792.34 1514.72 792.424 1514.72 792.819 1514.72 793.215 1514.61 793.586 1514.41L801.762 1509.67C802.913 1509 803.285 1507.53 802.649 1506.36 802.194 1505.59 801.403 1505.17 800.575 1505.17 800.156 1505.17 799.736 1505.27 799.353 1505.5L794.761 1508.16 794.761 1502.85C794.761 1501.52 793.694 1500.46 792.364 1500.46ZM788.012 1518.24C788.156 1518.24 788.36 1518.33 788.444 1518.42L789.427 1519.4C789.51 1519.49 789.606 1519.69 789.606 1519.83L789.606 1519.87C789.606 1520.01 789.51 1520.2 789.427 1520.3L788.444 1521.27C788.36 1521.37 788.156 1521.45 788.012 1521.45L787.976 1521.45C787.856 1521.45 787.64 1521.37 787.556 1521.27L786.573 1520.3C786.466 1520.2 786.394 1520.01 786.394 1519.87L786.394 1519.83C786.394 1519.69 786.49 1519.5 786.573 1519.4L787.556 1518.42C787.64 1518.33 787.856 1518.24 787.976 1518.24ZM787.497 1515.37C787.353 1515.37 787.161 1515.42 787.077 1515.55L783.66 1518.94C783.565 1519.02 783.481 1519.23 783.481 1519.35L783.481 1519.6 783.481 1520.12 783.481 1520.37C783.481 1520.49 783.565 1520.68 783.66 1520.78L787.077 1524.17C787.161 1524.25 787.353 1524.35 787.497 1524.35L788.492 1524.35C788.623 1524.35 788.839 1524.25 788.923 1524.17L792.328 1520.78C792.412 1520.67 792.508 1520.49 792.508 1520.37L792.508 1520.12 792.508 1519.6 792.508 1519.35C792.508 1519.23 792.412 1519.02 792.328 1518.94L788.923 1515.55C788.839 1515.45 788.623 1515.37 788.492 1515.37ZM771.133 1512.7C770.306 1512.7 769.491 1513.12 769.035 1513.9 768.376 1515.07 768.759 1516.55 769.91 1517.21L774.466 1519.87 769.91 1522.51C768.771 1523.17 768.376 1524.65 769.035 1525.82 769.491 1526.56 770.294 1526.99 771.133 1526.99 771.541 1526.99 771.948 1526.89 772.332 1526.67L780.508 1521.93C781.035 1521.62 781.407 1521.12 781.586 1520.56 781.682 1520.31 781.718 1520.05 781.718 1519.78 781.718 1519.58 781.658 1519.4 781.622 1519.2 781.467 1518.6 781.095 1518.09 780.508 1517.74L772.332 1513.01C771.948 1512.8 771.541 1512.7 771.133 1512.7ZM804.843 1512.7C804.436 1512.7 804.028 1512.8 803.644 1513.01L795.481 1517.74C794.905 1518.09 794.534 1518.6 794.378 1519.2 794.318 1519.4 794.282 1519.58 794.282 1519.78 794.282 1520.05 794.306 1520.31 794.39 1520.56 794.569 1521.12 794.941 1521.62 795.481 1521.93L803.644 1526.67C804.028 1526.89 804.448 1526.99 804.855 1526.99 805.694 1526.99 806.497 1526.56 806.941 1525.82 807.612 1524.65 807.205 1523.17 806.054 1522.51L801.487 1519.87 806.054 1517.21C807.229 1516.55 807.612 1515.07 806.941 1513.9 806.497 1513.12 805.682 1512.7 804.843 1512.7ZM783.576 1525C783.181 1525 782.785 1525.11 782.414 1525.31L774.262 1530.04C773.099 1530.72 772.727 1532.19 773.387 1533.34 773.83 1534.12 774.633 1534.54 775.461 1534.54 775.88 1534.54 776.288 1534.44 776.671 1534.22L781.275 1531.56 781.275 1536.84C781.275 1538.19 782.342 1539.26 783.672 1539.26 785.003 1539.26 786.082 1538.19 786.082 1536.84L786.082 1527.38C786.046 1526.12 785.063 1525.08 783.816 1525.01 783.732 1525 783.66 1525 783.576 1525ZM792.424 1525C792.34 1525 792.268 1525 792.184 1525.01 790.937 1525.08 789.954 1526.13 789.954 1527.4L789.954 1536.87C789.954 1538.2 791.021 1539.27 792.364 1539.27 793.694 1539.27 794.761 1538.2 794.761 1536.87L794.761 1531.58 799.353 1534.23C799.736 1534.46 800.156 1534.56 800.563 1534.56 801.391 1534.56 802.194 1534.12 802.649 1533.37 803.285 1532.19 802.877 1530.69 801.762 1530.04L793.586 1525.31C793.215 1525.11 792.819 1525 792.424 1525ZM796.344 1492.26C796.547 1492.26 796.715 1492.27 796.859 1492.32 797.662 1492.57 798.657 1493.84 799.628 1495.05 800.599 1496.3 801.738 1497.71 803.189 1498.78 804.663 1499.85 806.366 1500.5 807.852 1501.05 809.267 1501.58 810.765 1502.16 811.269 1502.82 811.748 1503.45 811.82 1505.11 811.892 1506.57 811.976 1508.17 812.036 1510.01 812.623 1511.74 813.175 1513.43 814.146 1514.92 815.021 1516.22 815.896 1517.53 816.783 1518.88 816.783 1519.78 816.783 1520.67 815.896 1522.01 815.045 1523.33 814.17 1524.64 813.187 1526.12 812.635 1527.81 812.048 1529.56 811.976 1531.38 811.904 1532.98 811.832 1534.44 811.748 1536.1 811.281 1536.73 810.789 1537.42 809.291 1537.97 807.864 1538.5 806.354 1539.05 804.663 1539.7 803.201 1540.77 801.738 1541.84 800.623 1543.25 799.64 1544.5 798.681 1545.71 797.698 1546.96 796.883 1547.23 796.751 1547.28 796.583 1547.29 796.392 1547.29 795.576 1547.29 794.33 1546.95 793.215 1546.64 791.632 1546.22 789.846 1545.74 787.976 1545.74 786.094 1545.74 784.32 1546.22 782.749 1546.64 781.634 1546.95 780.388 1547.29 779.56 1547.29 779.381 1547.29 779.213 1547.28 779.081 1547.23 778.278 1546.99 777.283 1545.71 776.324 1544.5 775.341 1543.25 774.226 1541.84 772.763 1540.77 771.265 1539.7 769.575 1539.05 768.076 1538.5 766.637 1537.97 765.175 1537.42 764.683 1536.73 764.204 1536.1 764.132 1534.44 764.06 1532.98 763.964 1531.38 763.88 1529.58 763.329 1527.81 762.777 1526.12 761.794 1524.64 760.919 1523.33 760.056 1522.03 759.157 1520.68 759.157 1519.78 759.157 1518.87 760.056 1517.53 760.919 1516.22 761.794 1514.92 762.777 1513.43 763.329 1511.74 763.892 1509.99 763.988 1508.17 764.06 1506.57 764.132 1505.11 764.216 1503.45 764.683 1502.82 765.175 1502.16 766.649 1501.58 768.076 1501.05 769.61 1500.5 771.289 1499.85 772.763 1498.78 774.226 1497.71 775.341 1496.3 776.324 1495.05 777.283 1493.84 778.266 1492.59 779.081 1492.32 779.237 1492.29 779.417 1492.26 779.608 1492.26 780.436 1492.26 781.658 1492.59 782.761 1492.91 784.332 1493.33 786.106 1493.81 787.976 1493.81 789.846 1493.81 791.632 1493.33 793.191 1492.91 794.306 1492.57 795.516 1492.26 796.344 1492.26ZM805.335 1548.95 812.036 1569.34 812.036 1569.34 805.658 1566.54C805.359 1566.4 805.047 1566.34 804.735 1566.34 803.932 1566.34 803.153 1566.77 802.733 1567.5L799.209 1573.53 792.807 1554.02 792.807 1554.02C793.946 1554.3 795.145 1554.53 796.38 1554.53 797.267 1554.53 798.178 1554.41 799.101 1554.11 801.99 1553.16 803.824 1550.84 805.299 1548.98L805.335 1548.95ZM770.965 1549.32C772.392 1551.12 774.154 1553.23 776.875 1554.13 777.822 1554.43 778.745 1554.54 779.632 1554.54 781.035 1554.54 782.378 1554.25 783.636 1553.93L783.636 1553.93 777.211 1573.57 773.698 1567.51C773.255 1566.8 772.5 1566.37 771.696 1566.37 771.385 1566.37 771.073 1566.44 770.785 1566.57L764.396 1569.34 770.965 1549.32ZM779.608 1485C778.709 1485 777.786 1485.12 776.851 1485.43 773.95 1486.37 772.14 1488.69 770.665 1490.55 769.898 1491.49 769.179 1492.43 768.508 1492.91 767.812 1493.43 766.721 1493.81 765.547 1494.27 763.341 1495.1 760.607 1496.12 758.857 1498.55 757.119 1500.95 756.987 1503.77 756.867 1506.23 756.831 1507.47 756.759 1508.68 756.496 1509.51 756.244 1510.28 755.62 1511.22 754.961 1512.24 753.642 1514.23 752 1516.7 752 1519.78 752 1522.87 753.642 1525.32 754.961 1527.33 755.62 1528.34 756.244 1529.29 756.496 1530.04 756.759 1530.87 756.807 1532.06 756.867 1533.33 757.011 1535.77 757.119 1538.6 758.881 1541 760.643 1543.43 763.365 1544.46 765.57 1545.29 766.158 1545.5 766.709 1545.71 767.189 1545.93L758.629 1572.07C758.162 1573.5 758.941 1575.04 760.368 1575.49 760.596 1575.57 760.835 1575.61 761.063 1575.61 761.375 1575.61 761.698 1575.54 761.986 1575.41L770.713 1571.62 775.521 1579.83C775.784 1580.31 776.228 1580.68 776.767 1580.86 777.055 1580.94 777.331 1580.99 777.642 1580.99 778.026 1580.99 778.458 1580.9 778.829 1580.71 779.513 1580.39 779.992 1579.81 780.22 1579.12L788.192 1554.77 796.188 1579.12C796.44 1579.81 796.919 1580.37 797.578 1580.71 797.95 1580.9 798.346 1580.99 798.765 1580.99 799.053 1580.99 799.353 1580.94 799.64 1580.86 800.156 1580.68 800.599 1580.31 800.887 1579.83L805.694 1571.62 814.422 1575.41C814.709 1575.54 815.009 1575.61 815.321 1575.61 815.56 1575.61 815.8 1575.58 816.04 1575.49 817.455 1575.04 818.246 1573.5 817.778 1572.06L809.159 1545.77C809.554 1545.63 809.962 1545.45 810.406 1545.29 812.623 1544.46 815.357 1543.43 817.107 1541 818.869 1538.6 819.013 1535.81 819.121 1533.33 819.157 1532.08 819.217 1530.87 819.492 1530.04 819.744 1529.28 820.368 1528.33 821.015 1527.31 822.334 1525.32 823.988 1522.85 823.988 1519.78 823.988 1516.67 822.334 1514.2 821.015 1512.24 820.368 1511.21 819.744 1510.28 819.492 1509.51 819.217 1508.68 819.169 1507.51 819.121 1506.23 818.977 1503.77 818.869 1500.95 817.107 1498.55 815.345 1496.12 812.623 1495.1 810.406 1494.27 809.231 1493.81 808.128 1493.4 807.457 1492.91 806.785 1492.43 806.054 1491.49 805.287 1490.55 803.824 1488.69 801.99 1486.37 799.101 1485.43 798.178 1485.12 797.255 1485 796.356 1485 794.569 1485 792.867 1485.47 791.297 1485.91 790.05 1486.26 788.887 1486.57 787.976 1486.57 787.077 1486.57 785.914 1486.23 784.667 1485.91 783.097 1485.47 781.395 1485 779.608 1485Z" fill="#2AB4E7" fill-rule="evenodd"/></g></svg>