<svg width="70" height="90" xmlns="http://www.w3.org/2000/svg" xmlns:xlink="http://www.w3.org/1999/xlink" xml:space="preserve" overflow="hidden"><g transform="translate(-1611 -1208)"><path d="M1631.71 1218.34 1631.71 1228.73 1621.87 1228.73 1631.71 1218.34ZM1637.33 1250.16C1636.55 1250.16 1635.93 1250.79 1635.93 1251.55 1635.93 1252.33 1636.52 1252.94 1637.27 1252.94 1637.29 1252.94 1637.31 1252.94 1637.33 1252.94L1654.62 1252.94C1655.38 1252.94 1656.01 1252.33 1656.01 1251.55 1656.01 1250.79 1655.38 1250.16 1654.62 1250.16ZM1637.33 1255.9C1636.55 1255.9 1635.93 1256.52 1635.93 1257.29 1635.93 1258.06 1636.55 1258.68 1637.33 1258.68L1654.62 1258.68C1655.38 1258.68 1656.01 1258.06 1656.01 1257.29 1656.01 1256.52 1655.38 1255.9 1654.62 1255.9ZM1637.33 1261.63C1636.55 1261.63 1635.93 1262.24 1635.93 1263.02 1635.93 1263.78 1636.55 1264.42 1637.33 1264.42L1654.62 1264.42C1655.38 1264.42 1656.01 1263.78 1656.01 1263.02 1656.01 1262.24 1655.38 1261.63 1654.62 1261.63ZM1660.92 1245.21 1660.92 1269.35 1631.02 1269.35 1631.02 1245.21ZM1660.92 1273.85 1660.92 1280.82 1631.02 1280.82 1631.02 1273.85ZM1628.78 1240.74C1627.57 1240.74 1626.55 1241.73 1626.55 1242.97L1626.55 1283.03C1626.55 1284.27 1627.57 1285.28 1628.78 1285.28L1663.15 1285.28C1664.38 1285.28 1665.39 1284.27 1665.39 1283.03L1665.39 1242.97C1665.39 1241.73 1664.38 1240.74 1663.15 1240.74ZM1673.96 1215 1673.96 1291 1617.98 1291 1617.98 1234.32 1634.53 1234.32C1636.07 1234.32 1637.31 1233.08 1637.31 1231.54L1637.31 1215ZM1633.4 1208.01C1632.45 1208.01 1631.54 1208.4 1630.88 1209.1L1611.96 1229.06C1611.33 1229.71 1611.01 1230.57 1611.01 1231.46L1611.01 1294.51C1611.01 1296.43 1612.56 1298 1614.49 1298L1677.5 1298C1679.41 1298 1681 1296.44 1681 1294.51L1681 1211.48C1680.95 1209.56 1679.4 1208.01 1677.47 1208.01Z" fill="#2AB5E8" fill-rule="evenodd"/></g></svg>