<svg width="90" height="75" xmlns="http://www.w3.org/2000/svg" xmlns:xlink="http://www.w3.org/1999/xlink" xml:space="preserve" overflow="hidden"><g transform="translate(-1315 -1215)"><path d="M1327.97 1224.62C1326.84 1224.62 1325.9 1225.53 1325.9 1226.68 1325.9 1227.81 1326.83 1228.74 1327.97 1228.74 1329.12 1228.74 1330.04 1227.81 1330.04 1226.68 1330.04 1225.53 1329.12 1224.62 1327.97 1224.62ZM1336.22 1224.62C1335.09 1224.62 1334.15 1225.53 1334.15 1226.68 1334.16 1227.81 1335.09 1228.74 1336.22 1228.74 1337.35 1228.74 1338.28 1227.81 1338.28 1226.68 1338.28 1225.53 1337.35 1224.62 1336.22 1224.62ZM1344.48 1224.62C1343.33 1224.62 1342.41 1225.53 1342.41 1226.68 1342.41 1227.81 1343.33 1228.74 1344.48 1228.74 1345.61 1228.74 1346.53 1227.81 1346.53 1226.68 1346.53 1225.53 1345.61 1224.62 1344.48 1224.62ZM1397.94 1222.02 1397.94 1231.53 1322.06 1231.53 1322.06 1222.02ZM1354.94 1243.81 1354.94 1252.69 1331.63 1252.69 1331.63 1243.81ZM1362.84 1251.99C1362.07 1251.99 1361.44 1252.62 1361.44 1253.39 1361.44 1254.16 1362.07 1254.78 1362.84 1254.78L1389.4 1254.78C1390.17 1254.78 1390.81 1254.16 1390.81 1253.39 1390.82 1252.62 1390.17 1251.99 1389.4 1251.99ZM1330.23 1241.02C1329.44 1241.02 1328.82 1241.64 1328.82 1242.42L1328.82 1254.09C1328.82 1254.85 1329.44 1255.48 1330.23 1255.48L1356.34 1255.48C1357.13 1255.48 1357.75 1254.85 1357.75 1254.09L1357.75 1242.42C1357.75 1241.64 1357.13 1241.02 1356.34 1241.02ZM1330.59 1258.72C1329.8 1258.72 1329.18 1259.33 1329.18 1260.12 1329.18 1260.88 1329.8 1261.51 1330.59 1261.51L1389.41 1261.51C1390.19 1261.51 1390.82 1260.88 1390.82 1260.12 1390.82 1259.33 1390.17 1258.72 1389.4 1258.72ZM1330.59 1265.43C1329.8 1265.43 1329.18 1266.07 1329.18 1266.84 1329.18 1267.61 1329.8 1268.23 1330.59 1268.23L1389.4 1268.23C1390.17 1268.23 1390.81 1267.61 1390.81 1266.84 1390.82 1266.07 1390.17 1265.43 1389.4 1265.43ZM1330.59 1272.17C1329.8 1272.17 1329.18 1272.79 1329.18 1273.57 1329.18 1274.33 1329.8 1274.96 1330.59 1274.96L1389.4 1274.96C1390.17 1274.96 1390.81 1274.33 1390.81 1273.57 1390.82 1272.79 1390.17 1272.17 1389.4 1272.17ZM1397.94 1235.98 1397.94 1282.98 1322.06 1282.98 1322.06 1235.98ZM1318.54 1215.01C1316.57 1215.01 1315.01 1216.57 1315.01 1218.51L1315.01 1286.5C1315.01 1288.44 1316.59 1290 1318.54 1290L1401.47 1290C1403.42 1290 1404.99 1288.43 1404.99 1286.5L1404.99 1218.51C1404.99 1216.57 1403.4 1215.02 1401.47 1215.01Z" fill="#2AB5E8" fill-rule="evenodd"/></g></svg>