<svg width="99" height="93" xmlns="http://www.w3.org/2000/svg" xmlns:xlink="http://www.w3.org/1999/xlink" xml:space="preserve" overflow="hidden"><defs><clipPath id="clip0"><rect x="1597" y="925" width="99" height="93"/></clipPath></defs><g clip-path="url(#clip0)" transform="translate(-1597 -925)"><path d="M1685.89 942.121C1687.22 942.121 1688.36 943.249 1688.36 944.572L1688.36 1007.93 1688.33 1007.93C1688.33 1009.26 1687.2 1010.39 1685.88 1010.39L1607.14 1010.39C1605.81 1010.39 1604.68 1009.25 1604.68 1007.93L1604.68 944.572C1604.68 943.227 1605.81 942.121 1607.14 942.121L1622.03 942.121 1622.03 943.021C1622.03 944.376 1623.13 945.45 1624.47 945.45 1625.83 945.45 1626.94 944.376 1626.94 943.021L1626.94 942.121 1666.12 942.121 1666.12 943.021C1666.12 944.376 1667.21 945.45 1668.56 945.45 1669.93 945.45 1671.02 944.376 1671.02 943.021L1671.02 942.121ZM1624.45 925C1623.1 925 1622.01 926.084 1622.01 927.44L1622.01 934.509 1607.12 934.509C1601.54 934.509 1597 939.009 1597 944.572L1597 1007.93C1597 1013.48 1601.54 1017.99 1607.12 1017.99L1685.88 1017.99C1691.46 1017.99 1696 1013.48 1696 1007.93L1696 944.572C1696 939.009 1691.43 934.509 1685.88 934.509L1670.99 934.509 1670.99 927.44C1670.99 926.095 1669.89 925 1668.53 925 1667.19 925 1666.09 926.084 1666.09 927.44L1666.09 934.509 1626.9 934.509 1626.9 927.44C1626.9 926.095 1625.81 925 1624.45 925Z" fill="#2AB5E8" fill-rule="evenodd"/><path d="M1614.47 958C1613.1 958 1612 959.12 1612 960.494 1612 961.869 1613.1 962.989 1614.47 962.989L1677.53 962.989C1678.89 962.989 1679.99 961.869 1679.99 960.494 1679.99 959.12 1678.89 958 1677.53 958Z" fill="#2AB5E8" fill-rule="evenodd"/><path d="M1614.53 971.011C1613.13 971.011 1612 972.111 1612 973.5 1612 974.889 1613.13 975.989 1614.53 975.989L1627.48 975.989C1628.88 975.989 1629.99 974.889 1629.99 973.5 1629.99 972.111 1628.88 971.011 1627.48 971.011Z" fill="#2AB5E8" fill-rule="evenodd"/><path d="M1640.4 971.011C1639.08 971.011 1638.01 972.111 1638.01 973.5 1638.01 974.889 1639.08 975.989 1640.4 975.989L1652.6 975.989C1653.92 975.989 1654.99 974.889 1654.99 973.5 1654.96 972.111 1653.91 971.011 1652.6 971.011Z" fill="#2AB5E8" fill-rule="evenodd"/><path d="M1665.38 971.011C1664.06 971.011 1663.01 972.111 1663.01 973.5 1663.01 974.889 1664.06 975.989 1665.38 975.989L1677.61 975.989C1678.92 975.989 1679.99 974.889 1679.99 973.5 1679.99 972.111 1678.92 971.011 1677.61 971.011Z" fill="#2AB5E8" fill-rule="evenodd"/><path d="M1614.53 983C1613.13 983 1612 984.122 1612 985.511 1612 986.878 1613.13 988 1614.53 988L1627.48 988C1628.88 988 1629.99 986.878 1629.99 985.511 1629.99 984.122 1628.88 983 1627.48 983Z" fill="#2AB5E8" fill-rule="evenodd"/><path d="M1640.4 983C1639.08 983 1638.01 984.122 1638.01 985.511 1638.01 986.878 1639.08 988 1640.4 988L1652.6 988C1653.92 988 1654.99 986.878 1654.99 985.511 1654.99 984.122 1653.91 983 1652.6 983Z" fill="#2AB5E8" fill-rule="evenodd"/><path d="M1665.38 983C1664.06 983 1663.01 984.122 1663.01 985.511 1663.01 986.878 1664.06 988 1665.38 988L1677.61 988C1678.92 988 1679.99 986.878 1679.99 985.511 1679.99 984.122 1678.92 983 1677.61 983Z" fill="#2AB5E8" fill-rule="evenodd"/><path d="M1614.53 996C1613.13 996 1612 997.113 1612 998.505 1612 999.886 1613.13 1001 1614.53 1001L1627.48 1001C1628.88 1001 1629.99 999.886 1629.99 998.505 1629.99 997.113 1628.88 996 1627.48 996Z" fill="#2AB5E8" fill-rule="evenodd"/><path d="M1640.4 996C1639.08 996 1638.01 997.113 1638.01 998.505 1638.01 999.886 1639.08 1001 1640.4 1001L1652.6 1001C1653.92 1001 1654.99 999.886 1654.99 998.505 1654.99 997.113 1653.91 996 1652.6 996Z" fill="#2AB5E8" fill-rule="evenodd"/><path d="M1665.38 996C1664.06 996 1663.01 997.113 1663.01 998.505 1663.01 999.886 1664.06 1001 1665.38 1001L1677.61 1001C1678.92 1001 1679.99 999.886 1679.99 998.505 1679.99 997.113 1678.92 996 1677.61 996Z" fill="#2AB5E8" fill-rule="evenodd"/></g></svg>