<svg width="59" height="72" xmlns="http://www.w3.org/2000/svg" xmlns:xlink="http://www.w3.org/1999/xlink" xml:space="preserve" overflow="hidden"><g transform="translate(-187 -1216)"><path d="M238.011 1221.74 238.011 1221.78C237.741 1222.75 237.569 1223.86 237.569 1225.1L237.569 1225.72 231.861 1225.72C231.215 1225.72 230.708 1226.24 230.708 1226.87 230.708 1227.52 231.215 1228.02 231.861 1228.02L237.569 1228.02 237.569 1232.8 227.004 1232.8C225.982 1232.8 225.148 1233.64 225.148 1234.66 225.148 1235.67 225.982 1236.5 227.004 1236.5L237.569 1236.5 237.569 1241.29 231.861 1241.29C231.215 1241.29 230.708 1241.82 230.708 1242.44 230.708 1243.09 231.215 1243.6 231.861 1243.6L237.569 1243.6 237.569 1248.39 227.004 1248.39C225.982 1248.39 225.148 1249.22 225.148 1250.24 225.148 1251.25 225.982 1252.08 227.004 1252.08L237.569 1252.08 237.569 1256.87 231.861 1256.87C231.215 1256.87 230.708 1257.37 230.708 1258.02 230.708 1258.65 231.215 1259.17 231.861 1259.17L237.569 1259.17 237.569 1263.18C236.49 1264.93 234.593 1266.1 232.409 1266.1 230.226 1266.1 228.337 1264.92 227.274 1263.17L226.906 1263.17C225.851 1264.92 223.97 1266.1 221.787 1266.1 219.595 1266.1 217.714 1264.92 216.651 1263.17L216.283 1263.17C215.228 1264.92 213.348 1266.1 211.156 1266.1 208.973 1266.1 207.092 1264.92 206.021 1263.17L205.661 1263.17C204.598 1264.92 202.717 1266.1 200.534 1266.1 198.358 1266.1 196.478 1264.94 195.398 1263.23L195.398 1225.05C195.398 1223.84 195.202 1222.72 194.908 1221.74ZM190.116 1216.01C188.963 1216.01 187.932 1216.69 187.466 1217.74 187.008 1218.78 187.204 1220.01 187.989 1220.86 188.014 1220.87 189.617 1222.72 189.617 1225.1L189.617 1278.18C189.617 1283.59 194.041 1287.99 199.454 1287.99L233.513 1287.99C238.927 1287.99 243.351 1283.59 243.351 1278.18L243.351 1225.1C243.351 1222.48 244.774 1221.05 244.798 1221.02 245.689 1220.24 246 1218.96 245.575 1217.86 245.15 1216.73 244.062 1216.01 242.86 1216.01Z" fill="#2AB5E8" fill-rule="evenodd"/></g></svg>