<svg width="67" height="88" xmlns="http://www.w3.org/2000/svg" xmlns:xlink="http://www.w3.org/1999/xlink" xml:space="preserve" overflow="hidden"><g transform="translate(-3042 -1209)"><path d="M3058.76 1222.62 3058.76 1228.55 3053.33 1228.55 3058.76 1222.62ZM3085.12 1266.54C3086.97 1266.54 3088.72 1267.27 3090.03 1268.57 3091.35 1269.89 3092.07 1271.62 3092.07 1273.49 3092.07 1275.33 3091.33 1277.09 3090.03 1278.39 3088.67 1279.75 3086.89 1280.42 3085.11 1280.42 3083.32 1280.42 3081.54 1279.75 3080.17 1278.39 3078.87 1277.06 3078.15 1275.33 3078.15 1273.49 3078.15 1271.62 3078.87 1269.86 3080.17 1268.57 3081.5 1267.26 3083.24 1266.54 3085.12 1266.54ZM3063.27 1209C3062.28 1209 3061.36 1209.43 3060.7 1210.14L3042.92 1229.63C3042.33 1230.27 3042.01 1231.12 3042.01 1231.97L3042.01 1293.51C3042.01 1295.43 3043.56 1297 3045.49 1297L3077.64 1297C3079.56 1297 3081.14 1295.44 3081.14 1293.51 3081.14 1291.56 3079.55 1290.02 3077.62 1290.02L3048.98 1290.02 3048.98 1235.55 3062.25 1235.55C3064.17 1235.55 3065.74 1233.99 3065.74 1232.05L3065.74 1215.98 3100.67 1215.98 3100.67 1264.19C3100.67 1266.11 3102.23 1267.68 3104.17 1267.68 3106.11 1267.68 3107.67 1266.12 3107.67 1264.19L3107.67 1212.5C3107.67 1210.57 3106.11 1209 3104.17 1209ZM3085.09 1259.52C3081.38 1259.52 3077.87 1260.97 3075.24 1263.61 3072.6 1266.24 3071.15 1269.75 3071.15 1273.46 3071.15 1277.18 3072.6 1280.68 3075.24 1283.32 3077.95 1286.03 3081.53 1287.38 3085.09 1287.38 3087.54 1287.38 3089.97 1286.7 3092.13 1285.43L3102.68 1295.98C3103.37 1296.65 3104.26 1297 3105.16 1297 3106.05 1297 3106.96 1296.65 3107.64 1295.98 3109 1294.64 3109 1292.42 3107.64 1291.05L3097.08 1280.5C3098.33 1278.36 3099.04 1275.99 3099.04 1273.46 3099.04 1269.75 3097.59 1266.24 3094.95 1263.61 3092.32 1260.97 3088.81 1259.52 3085.09 1259.52Z" fill="#2AB5E8" fill-rule="evenodd"/></g></svg>