<svg width="99" height="99" xmlns="http://www.w3.org/2000/svg" xmlns:xlink="http://www.w3.org/1999/xlink" xml:space="preserve" overflow="hidden"><defs><clipPath id="clip0"><rect x="1311" y="921" width="99" height="99"/></clipPath></defs><g clip-path="url(#clip0)" transform="translate(-1311 -921)"><path d="M1382.31 946.995C1380.99 946.995 1379.71 947.618 1378.9 948.743L1355.65 982.58 1341.39 968.872C1340.61 968.119 1339.58 967.737 1338.56 967.737 1337.48 967.737 1336.4 968.162 1335.6 969.004 1334.04 970.62 1334.09 973.23 1335.71 974.792L1353.46 991.875C1354.24 992.618 1355.25 993.022 1356.31 993.022 1356.44 993.022 1356.56 993.022 1356.71 993 1357.91 992.88 1358.98 992.224 1359.68 991.241L1385.66 953.417C1386.95 951.55 1386.48 948.983 1384.61 947.705 1383.9 947.224 1383.1 946.995 1382.31 946.995ZM1360.5 929.214C1383.28 929.214 1401.78 947.738 1401.78 970.489 1401.78 993.262 1383.25 1011.78 1360.5 1011.78 1337.72 1011.78 1319.22 993.262 1319.22 970.489 1319.22 947.738 1337.72 929.214 1360.5 929.214ZM1360.5 921.011C1333.2 921.011 1311.01 943.216 1311.01 970.489 1311.01 997.795 1333.2 1019.99 1360.5 1019.99 1387.79 1019.99 1410 997.795 1410 970.489 1410 943.216 1387.79 921.011 1360.5 921.011Z" fill="#2AB5E8" fill-rule="evenodd"/></g></svg>