<svg width="101" height="73" xmlns="http://www.w3.org/2000/svg" xmlns:xlink="http://www.w3.org/1999/xlink" xml:space="preserve" overflow="hidden"><defs><clipPath id="clip0"><rect x="1024" y="657" width="101" height="73"/></clipPath></defs><g clip-path="url(#clip0)" transform="translate(-1024 -657)"><path d="M1046.1 681.825C1032.97 682.796 1023.1 694.351 1024.06 707.635 1024.98 720.312 1035.46 730.094 1048.03 729.995L1104.8 729.995C1115.7 730.251 1124.74 721.521 1124.99 710.496 1125.14 703.965 1122.13 697.773 1116.92 693.916 1116.97 673.579 1100.71 657.051 1080.61 657 1065.04 656.961 1051.17 666.938 1046.1 681.825ZM1108.87 693.916C1108.87 694.403 1108.87 694.824 1108.87 695.278L1108.87 695.732C1108.76 697.285 1109.55 698.762 1110.89 699.524 1116.61 702.631 1118.76 709.843 1115.69 715.632 1113.55 719.663 1109.32 722.096 1104.8 721.891L1048.03 721.891C1039.28 721.891 1032.2 714.722 1032.2 705.878 1032.2 697.034 1039.28 689.864 1048.03 689.864L1048.03 689.864 1048.79 689.864C1050.68 689.939 1052.37 688.669 1052.83 686.817 1056.74 671.439 1072.24 662.18 1087.44 666.138 1099.95 669.396 1108.72 680.781 1108.78 693.851Z" fill="#2AB5E8" fill-rule="evenodd"/></g></svg>