<svg width="96" height="51" xmlns="http://www.w3.org/2000/svg" xmlns:xlink="http://www.w3.org/1999/xlink" xml:space="preserve" overflow="hidden"><defs><clipPath id="clip0"><rect x="2742" y="945" width="96" height="51"/></clipPath></defs><g clip-path="url(#clip0)" transform="translate(-2742 -945)"><path d="M2774.44 986.832C2773.69 988.215 2772.29 988.989 2770.83 988.989 2770.16 988.989 2769.47 988.821 2768.84 988.458L2744.12 974.475C2742.82 973.742 2742.01 972.355 2742 970.848 2741.99 969.341 2742.77 967.935 2744.05 967.184L2768.77 952.587C2770.74 951.413 2773.26 952.101 2774.4 954.112 2775.55 956.116 2774.88 958.685 2772.91 959.844L2754.46 970.736 2772.84 981.13C2774.82 982.255 2775.54 984.805 2774.44 986.832ZM2835.88 966.533 2811.16 952.549C2809.17 951.413 2806.66 952.149 2805.56 954.176 2804.45 956.202 2805.17 958.752 2807.16 959.878L2825.53 970.272 2807.09 981.164C2805.12 982.323 2804.45 984.888 2805.59 986.896 2806.36 988.238 2807.74 988.989 2809.16 988.989 2809.86 988.989 2810.58 988.81 2811.22 988.421L2835.94 973.824C2837.23 973.069 2838.01 971.667 2838 970.16 2837.99 968.653 2837.17 967.266 2835.88 966.533ZM2795.78 945.113C2793.57 944.578 2791.35 945.999 2790.84 948.25L2781.13 990.855C2780.62 993.117 2781.99 995.368 2784.21 995.891 2784.53 995.966 2784.84 996 2785.15 996 2787.02 996 2788.72 994.687 2789.16 992.754L2798.87 950.149C2799.38 947.887 2798 945.636 2795.78 945.113Z" fill="#28B5E8" fill-rule="evenodd"/></g></svg>