<svg width="77" height="75" xmlns="http://www.w3.org/2000/svg" xmlns:xlink="http://www.w3.org/1999/xlink" xml:space="preserve" overflow="hidden"><defs><clipPath id="clip0"><rect x="3037" y="1216" width="77" height="75"/></clipPath></defs><g clip-path="url(#clip0)" transform="translate(-3037 -1216)"><path d="M3104.86 1216 3046.14 1216C3041.1 1216.01 3037.01 1220.12 3037 1225.2L3037 1262.8C3037 1267.88 3041.09 1272.01 3046.14 1272.02L3055.58 1272.02C3056.12 1272.01 3056.58 1272.44 3056.59 1272.98 3056.59 1272.99 3056.59 1273 3056.59 1273.01L3056.59 1285.71C3056.49 1288.02 3057.94 1290.1 3060.13 1290.79 3060.65 1290.93 3061.2 1291 3061.74 1291 3063.02 1291.04 3064.26 1290.55 3065.17 1289.65L3065.17 1289.65 3082.17 1272.35C3082.35 1272.16 3082.6 1272.05 3082.87 1272.04L3104.86 1272.04C3109.9 1272.03 3113.99 1267.92 3114 1262.85L3114 1225.2C3113.99 1220.12 3109.9 1216.01 3104.86 1216ZM3107.69 1262.8C3107.69 1264.37 3106.42 1265.64 3104.86 1265.64L3082.87 1265.64C3080.92 1265.64 3079.05 1266.43 3077.67 1267.83L3062.9 1282.89 3062.9 1273.01C3062.89 1268.95 3059.61 1265.67 3055.58 1265.67L3046.14 1265.67C3044.57 1265.65 3043.31 1264.37 3043.31 1262.8L3043.31 1225.2C3043.31 1223.63 3044.58 1222.35 3046.14 1222.35L3104.86 1222.35C3106.42 1222.35 3107.69 1223.63 3107.69 1225.2Z" fill="#2AB5E8" fill-rule="evenodd"/><path d="M3099.99 1236 3051.01 1236C3049.9 1236 3049 1236.9 3049 1238 3049 1239.1 3049.9 1240 3051.01 1240L3099.99 1240C3101.1 1240 3102 1239.1 3102 1238 3102 1236.9 3101.1 1236 3099.99 1236Z" fill="#2AB5E8" fill-rule="evenodd"/><path d="M3085.95 1247 3051.05 1247C3049.92 1247 3049 1247.9 3049 1249 3049 1250.1 3049.92 1251 3051.05 1251L3085.95 1251C3087.08 1251 3088 1250.1 3088 1249 3088 1247.9 3087.08 1247 3085.95 1247Z" fill="#2AB5E8" fill-rule="evenodd"/></g></svg>