<svg width="121" height="98" xmlns="http://www.w3.org/2000/svg" xmlns:xlink="http://www.w3.org/1999/xlink" xml:space="preserve" overflow="hidden"><defs><clipPath id="clip0"><rect x="442" y="365" width="121" height="98"/></clipPath></defs><g clip-path="url(#clip0)" transform="translate(-442 -365)"><path d="M486.291 419.106C486.278 419.106 486.265 419.106 486.239 419.106 485.74 419.146 485.268 419.502 485.097 419.989 485.058 420.121 484.008 423.059 479.928 424.865 479.272 425.155 478.97 425.919 479.272 426.578 479.482 427.092 479.954 427.382 480.453 427.382 480.624 427.382 480.807 427.342 480.978 427.263 483.772 426.011 485.465 424.298 486.422 422.928 488.193 425.273 491.972 429.082 498.531 430.452 498.636 430.492 498.715 430.492 498.807 430.492 499.41 430.492 499.961 430.07 500.08 429.464 500.211 428.752 499.778 428.067 499.082 427.909 490.804 426.196 487.629 420.081 487.485 419.831 487.249 419.383 486.763 419.106 486.291 419.106ZM478.039 428.502C478.026 428.502 478.013 428.502 478 428.502 477.304 428.554 476.74 429.187 476.819 429.912 477.606 441.099 484.074 445.013 486.829 446.186 487.564 446.502 488.39 446.673 489.204 446.673 489.846 446.673 490.489 446.581 491.119 446.37 493.743 445.487 500.08 442.377 502.218 432.31 502.349 431.612 501.929 430.926 501.208 430.795 501.103 430.768 500.998 430.755 500.906 430.755 500.316 430.755 499.804 431.177 499.686 431.783 497.797 440.519 492.497 443.155 490.292 443.893 489.938 444.011 489.571 444.064 489.217 444.064 488.744 444.064 488.272 443.972 487.839 443.801 485.556 442.826 480.125 439.452 479.39 429.714 479.351 429.002 478.708 428.502 478.039 428.502ZM521.32 405.705C521.149 405.705 520.979 405.705 520.821 405.705 518.42 405.758 511.297 405.679 507.977 413.783 507.374 415.298 508.082 417.051 509.617 417.683 509.985 417.828 510.365 417.894 510.732 417.894 511.9 417.894 513.028 417.209 513.501 416.036 515.114 412.096 517.883 411.674 520.598 411.674 520.664 411.674 520.743 411.674 520.808 411.674L521.149 411.674C522.619 411.674 525.046 411.674 526.843 413.466 528.247 414.876 529.126 417.288 529.493 420.477 529.244 420.24 528.929 420.081 528.562 420.081 522.461 420.081 517.699 414.745 517.646 414.679 517.384 414.402 517.03 414.231 516.662 414.231 516.466 414.231 516.269 414.283 516.085 414.376 515.56 414.639 515.272 415.193 515.39 415.786 515.403 415.944 516.046 419.436 512.779 420.846 512.136 421.149 511.848 421.9 512.097 422.572 512.333 423.059 512.779 423.349 513.304 423.349 513.461 423.349 513.632 423.31 513.802 423.257 516.269 422.177 517.397 420.24 517.817 418.421 520.06 420.266 523.917 422.704 528.535 422.704 528.942 422.704 529.323 422.493 529.572 422.177 529.585 422.704 529.624 423.191 529.624 423.758 529.624 424.549 529.965 425.313 530.503 425.853 530.897 426.248 531.133 426.802 531.133 427.368L531.133 428.462C531.146 428.963 530.936 429.477 530.53 429.872L530.018 430.399C529.467 430.94 529.139 431.704 529.139 432.494 529.139 434.445 528.26 436.303 526.804 437.462 526.121 437.989 525.387 438.727 524.56 439.531 523.642 440.48 521.713 442.377 520.952 442.391 520.218 442.377 518.289 440.48 517.358 439.531 516.557 438.754 515.836 438.029 515.114 437.475 514.576 437.054 513.934 436.843 513.291 436.843 512.412 436.843 511.546 437.238 510.969 437.989 509.932 439.307 510.181 441.178 511.467 442.18 511.992 442.588 512.556 443.181 513.16 443.801 515.206 445.856 517.778 448.4 520.952 448.4 524.154 448.4 526.712 445.856 528.745 443.801 529.375 443.181 529.965 442.588 530.464 442.18 533.022 440.137 534.675 437.093 535.03 433.825 536.355 432.31 537.089 430.439 537.089 428.436L537.089 427.329C537.089 425.629 536.538 423.995 535.607 422.625 535.436 416.603 533.888 412.096 531.054 409.223 527.761 405.929 523.681 405.705 521.32 405.705ZM509.814 365C491.158 365 474.772 376.807 468.75 394.122 453.807 395.268 442 407.932 442 423.376 442 433.839 447.615 443.603 456.668 448.848 457.415 449.296 458.202 449.493 458.99 449.493 460.603 449.493 462.165 448.65 463.004 447.161 464.264 444.934 463.529 442.101 461.312 440.809 455.093 437.212 451.249 430.531 451.249 423.389 451.249 412.531 460.236 403.399 470.836 403.399L470.85 403.399C471.217 403.438 471.571 403.491 471.938 403.517 472.004 403.517 472.057 403.517 472.109 403.517 474.261 403.517 476.124 402.081 476.635 400.012 480.492 384.898 494.136 374.356 509.801 374.356 528.654 374.356 544.003 389.655 544.003 408.499 544.003 409.223 543.924 410.053 543.885 410.884 543.754 412.689 544.646 414.389 546.22 415.272 550.838 417.907 553.725 422.888 553.725 428.212 553.725 433.18 551.258 437.871 547.139 440.77 545.013 442.233 544.515 445.132 545.971 447.24 546.876 448.558 548.306 449.256 549.776 449.256 550.694 449.256 551.612 448.979 552.426 448.426 559.051 443.801 563 436.224 563 428.212 563 420.516 559.34 413.321 553.331 408.775L553.331 408.485C553.331 384.516 533.796 365 509.814 365ZM486.068 410.053C487.38 410.053 488.141 410.633 488.325 410.791 488.902 411.358 489.663 411.661 490.437 411.661 490.804 411.661 491.171 411.595 491.526 411.45 491.919 411.305 492.929 410.976 494.189 410.976 496.196 410.976 498.807 411.832 500.486 415.68 501.523 418.013 502.454 427.25 502.821 433.219 503.11 436.052 502.992 439.373 502.782 439.953 501.929 440.743 499.817 441.587 498.636 441.929 497.049 442.377 496.117 444.011 496.564 445.606 496.747 446.173 497.049 446.634 497.469 446.99L489.571 453.974 480.728 446.173C481.096 445.738 481.398 445.25 481.489 444.684 481.739 443.036 480.61 441.508 478.97 441.284 478.472 441.178 476.819 440.73 476.294 440.203 475.914 439.36 476.058 436.039 476.596 433.232 476.675 432.863 476.675 432.468 476.596 432.099 476.543 431.967 473.893 417.196 481.765 411.687 483.562 410.422 484.992 410.053 486.068 410.053ZM486.055 404.137C483.825 404.137 481.201 404.835 478.367 406.825 468.239 413.888 470.154 429.385 470.679 432.666 469.971 436.685 469.629 441.692 471.755 443.998 472.726 445.039 473.946 445.764 475.035 446.252 464.985 449.375 464.224 451.154 463.818 452.142 463.096 453.921 462.86 456.266 462.65 458.335L462.493 459.653C462.283 461.274 463.45 462.776 465.09 462.974 465.208 463 465.313 463 465.431 463 466.94 463 468.226 461.906 468.396 460.378L468.541 458.981C468.685 457.69 468.842 455.99 469.144 454.922 470.469 454.118 474.3 452.722 477.908 451.628L487.524 460.101C488.036 460.549 488.679 460.747 489.295 460.786 489.4 460.786 489.479 460.826 489.571 460.826 489.676 460.786 489.768 460.786 489.873 460.773 490.516 460.734 491.132 460.536 491.644 460.088L501.26 451.588C504.868 452.709 508.738 454.118 510.024 454.896 510.404 456.174 510.588 458.283 510.706 459.706L510.772 460.272C510.903 461.827 512.189 463 513.711 463 513.789 463 513.881 462.974 513.986 462.974 515.6 462.816 516.807 461.353 516.649 459.706L516.61 459.179C516.387 456.925 516.151 454.132 515.39 452.142 514.983 451.14 514.222 449.335 504.015 446.186 504.986 445.698 506.023 445.079 506.81 444.328 509.237 442.14 509.211 436.724 508.765 432.705 508.594 430.162 507.754 417.38 505.944 413.282 503.123 406.825 498.269 405.007 494.202 405.007 493.034 405.007 491.932 405.151 490.962 405.389 489.715 404.69 488.036 404.137 486.055 404.137ZM532.13 445.276C531.422 445.276 530.74 445.54 530.188 446.054L519.326 455.634C518.092 456.714 517.974 458.612 519.063 459.851 519.654 460.51 520.48 460.865 521.307 460.865 522.002 460.865 522.697 460.615 523.261 460.101L532.878 451.628C536.486 452.722 540.317 454.118 541.642 454.896 541.904 455.937 542.075 457.558 542.193 458.717 542.271 459.376 542.324 459.969 542.39 460.457 542.626 461.946 543.872 463 545.328 463 545.486 463 545.617 463 545.774 462.974 547.414 462.723 548.529 461.221 548.293 459.587 548.215 459.179 548.149 458.678 548.11 458.111 547.9 456.174 547.65 453.802 546.968 452.142 546.535 451.061 545.696 449.085 532.957 445.408 532.681 445.329 532.406 445.276 532.13 445.276Z" fill="#2AB5E8" fill-rule="evenodd"/></g></svg>