<svg width="103" height="103" xmlns="http://www.w3.org/2000/svg" xmlns:xlink="http://www.w3.org/1999/xlink" xml:space="preserve" overflow="hidden"><defs><clipPath id="clip0"><rect x="451" y="1200" width="103" height="103"/></clipPath></defs><g clip-path="url(#clip0)" transform="translate(-451 -1200)"><path d="M534.275 1216.2C533.582 1216.2 532.877 1216.46 532.351 1217L517.536 1231.82 517.536 1226.25C517.536 1224.76 516.329 1223.52 514.836 1223.52 513.354 1223.52 512.124 1224.76 512.124 1226.25L512.124 1238.61C512.16 1240.12 513.366 1241.34 514.86 1241.34L527.238 1241.34C528.719 1241.34 529.938 1240.12 529.938 1238.64 529.938 1237.16 528.719 1235.93 527.238 1235.93L521.085 1235.93 536.198 1220.84C537.262 1219.76 537.262 1218.06 536.198 1217 535.673 1216.46 534.968 1216.2 534.275 1216.2ZM469.901 1216.75C469.208 1216.75 468.515 1217.01 467.989 1217.55 466.914 1218.61 466.914 1220.32 467.989 1221.39L482.816 1236.18 477.249 1236.18C475.755 1236.18 474.549 1237.41 474.549 1238.88 474.549 1240.37 475.755 1241.59 477.249 1241.59L489.627 1241.59C491.096 1241.59 492.327 1240.37 492.327 1238.88L492.327 1226.51C492.327 1225.02 491.096 1223.8 489.627 1223.8 488.133 1223.8 486.914 1225.02 486.914 1226.51L486.914 1232.65 471.813 1217.55C471.287 1217.01 470.594 1216.75 469.901 1216.75ZM515.123 1261.14C513.629 1261.14 512.423 1262.37 512.423 1263.86L512.423 1276.23C512.423 1277.71 513.629 1278.94 515.123 1278.94 516.616 1278.94 517.835 1277.71 517.835 1276.23L517.835 1270.08 532.937 1285.19C533.462 1285.71 534.155 1285.97 534.836 1285.97 535.529 1285.97 536.222 1285.71 536.748 1285.19 537.811 1284.11 537.811 1282.41 536.748 1281.35L521.933 1266.55 527.512 1266.55C528.982 1266.55 530.201 1265.34 530.201 1263.86 530.201 1262.37 528.982 1261.14 527.512 1261.14ZM477.512 1261.39C476.018 1261.39 474.8 1262.62 474.8 1264.1 474.8 1265.58 476.018 1266.8 477.512 1266.8L483.653 1266.8 468.551 1281.9C467.488 1282.96 467.488 1284.68 468.551 1285.75 469.089 1286.29 469.782 1286.55 470.451 1286.55 471.144 1286.55 471.837 1286.29 472.362 1285.75L487.177 1270.93 487.177 1276.49C487.177 1277.98 488.408 1279.2 489.877 1279.2 491.371 1279.2 492.59 1277.98 492.59 1276.49L492.59 1264.12C492.59 1262.62 491.407 1261.41 489.877 1261.39ZM537.548 1208.45C541.969 1208.45 545.553 1212.06 545.553 1216.46L545.553 1286.55C545.553 1290.95 541.969 1294.55 537.548 1294.55L467.476 1294.55C463.055 1294.55 459.471 1290.95 459.471 1286.55L459.471 1216.46C459.471 1212.06 463.055 1208.45 467.476 1208.45ZM467.476 1200C458.408 1200 451.012 1207.38 451.012 1216.46L451.012 1286.55C451.012 1295.62 458.408 1302.99 467.476 1302.99L537.548 1302.99C546.617 1302.99 554 1295.62 554 1286.55L554 1216.46C554 1207.38 546.617 1200 537.548 1200Z" fill="#2AB5E8" fill-rule="evenodd"/></g></svg>