<svg width="97" height="66" xmlns="http://www.w3.org/2000/svg" xmlns:xlink="http://www.w3.org/1999/xlink" xml:space="preserve" overflow="hidden"><defs><clipPath id="clip0"><rect x="740" y="659" width="97" height="66"/></clipPath></defs><g clip-path="url(#clip0)" transform="translate(-740 -659)"><path d="M809.218 664.455 779.189 688.175 748.631 664.455ZM821.932 678.07C822.342 678.07 823.066 678.265 823.8 678.896L830.217 684.611C831.178 685.469 831.351 686.437 831.275 686.61L827.473 690.946 817.859 682.427 821.651 678.124C821.705 678.091 821.802 678.07 821.932 678.07ZM815.537 685.057 825.14 693.565 809.909 710.972 806.571 708.016 818.637 694.293 816.012 691.967 803.968 705.713 800.296 702.442 815.537 685.057ZM798.546 705.55 807.263 713.265 797.638 716.883 795.867 715.264 798.546 705.55ZM746.708 659C743.025 659 740 662.021 740 665.726L740 710.896C740 714.601 743.025 717.622 746.708 717.622L784.817 717.622C786.329 717.622 787.55 716.394 787.55 714.884 787.55 713.362 786.307 712.167 784.806 712.167L747.896 712.167 762.77 694.26C763.386 693.499 763.278 692.402 762.543 691.793 762.219 691.511 761.82 691.381 761.431 691.381 760.934 691.381 760.437 691.598 760.102 692.011L745.423 709.701 745.423 666.421 778.152 691.804C778.465 692.043 778.822 692.174 779.211 692.174 779.589 692.174 779.977 692.043 780.302 691.793L812.782 666.139 812.782 669.301C812.782 670.811 813.992 672.039 815.505 672.039 816.995 672.039 818.227 670.811 818.227 669.301L818.227 665.726C818.227 662.021 815.213 659 811.529 659ZM821.932 672.593C820.257 672.593 818.702 673.213 817.611 674.462L794.463 700.823C794.182 701.127 794.009 701.519 793.879 701.921L788.479 721.523C788.187 722.512 788.489 723.576 789.245 724.272 789.764 724.717 790.423 725 791.093 725 791.417 725 791.73 724.935 792.043 724.837L810.709 717.828C811.13 717.665 811.508 717.415 811.778 717.089L835.326 690.24C836.546 688.871 837 686.947 836.546 684.991 836.168 683.318 835.196 681.721 833.824 680.493L827.386 674.777C825.723 673.321 823.757 672.593 821.932 672.593Z" fill="#2AB5E8" fill-rule="evenodd"/></g></svg>