<svg width="84" height="98" xmlns="http://www.w3.org/2000/svg" xmlns:xlink="http://www.w3.org/1999/xlink" xml:space="preserve" overflow="hidden"><defs><clipPath id="clip0"><rect x="2462" y="923" width="84" height="98"/></clipPath></defs><g clip-path="url(#clip0)" transform="translate(-2462 -923)"><path d="M2481.07 946.902 2481.07 956.456 2472.93 956.456 2481.07 946.902ZM2538.2 930.742 2538.2 1005.68 2534.55 1005.68 2534.55 937.621C2534.55 935.481 2532.82 933.744 2530.66 933.744L2497.39 933.744 2500.09 930.742ZM2526.76 941.453 2526.76 1013.26 2469.78 1013.26 2469.78 964.176 2484.94 964.176C2487.07 964.176 2488.84 962.451 2488.84 960.311L2488.84 941.453ZM2498.36 923.011C2497.25 923.011 2496.19 923.48 2495.46 924.288L2486.94 933.744 2483.87 933.744C2482.73 933.744 2481.65 934.247 2480.91 935.12L2462.91 956.26C2462.33 956.948 2462 957.832 2462 958.739L2462 1017.11C2462 1019.25 2463.72 1020.99 2465.9 1020.99L2530.66 1020.99C2532.81 1020.99 2534.55 1019.27 2534.55 1017.11L2534.55 1013.42 2542.1 1013.42C2544.24 1013.42 2546 1011.69 2546 1009.55L2546 926.887C2545.97 924.747 2544.24 923.011 2542.1 923.011Z" fill="#2AB5E8" fill-rule="evenodd"/></g></svg>