<svg width="63" height="90" xmlns="http://www.w3.org/2000/svg" xmlns:xlink="http://www.w3.org/1999/xlink" xml:space="preserve" overflow="hidden"><defs><clipPath id="clip0"><rect x="2758" y="647" width="63" height="90"/></clipPath></defs><g clip-path="url(#clip0)" transform="translate(-2758 -647)"><path d="M2777.96 656.388C2777.06 656.388 2776.35 657.255 2776.35 658.339 2776.35 659.422 2777.06 660.269 2777.96 660.269L2786.23 660.269C2787.13 660.269 2787.84 659.403 2787.84 658.339 2787.84 657.255 2787.13 656.388 2786.23 656.388ZM2793.18 656.388C2792.28 656.388 2791.57 657.255 2791.57 658.339 2791.57 659.422 2792.28 660.269 2793.18 660.269L2801.45 660.269C2802.34 660.269 2803.06 659.403 2803.06 658.339 2803.06 657.255 2802.34 656.388 2801.45 656.388ZM2806.32 653.068 2806.32 663.589 2772.71 663.589 2772.71 653.068ZM2770.21 680.395C2769.31 680.395 2768.59 681.262 2768.59 682.346 2768.59 683.429 2769.31 684.286 2770.21 684.286L2775.72 684.286C2776.61 684.286 2777.32 683.429 2777.32 682.346 2777.32 681.272 2776.61 680.415 2775.72 680.395ZM2786.76 680.395C2785.86 680.395 2785.15 681.262 2785.15 682.346 2785.15 683.429 2785.86 684.286 2786.76 684.286L2792.27 684.286C2793.17 684.286 2793.87 683.429 2793.87 682.346 2793.87 681.272 2793.17 680.415 2792.27 680.395ZM2803.32 680.415C2802.42 680.415 2801.72 681.262 2801.72 682.346 2801.72 683.429 2802.42 684.286 2803.32 684.286L2808.82 684.286C2809.72 684.286 2810.42 683.429 2810.42 682.346 2810.42 681.262 2809.72 680.415 2808.82 680.415ZM2770.21 687.035C2769.31 687.035 2768.59 687.902 2768.59 688.986 2768.59 690.069 2769.31 690.916 2770.21 690.916L2775.72 690.916C2776.61 690.916 2777.32 690.049 2777.32 688.986 2777.32 687.902 2776.61 687.035 2775.72 687.035ZM2786.76 687.035C2785.86 687.035 2785.15 687.902 2785.15 688.986 2785.15 690.069 2785.86 690.916 2786.76 690.916L2792.27 690.916C2793.17 690.916 2793.87 690.049 2793.87 688.986 2793.87 687.902 2793.17 687.035 2792.27 687.035ZM2803.32 687.035C2802.42 687.035 2801.72 687.902 2801.72 688.986 2801.72 690.069 2802.42 690.916 2803.32 690.916L2808.82 690.916C2809.72 690.916 2810.44 690.049 2810.44 688.986 2810.44 687.902 2809.72 687.035 2808.82 687.035ZM2770.21 693.665C2769.31 693.665 2768.59 694.532 2768.59 695.596 2768.59 696.679 2769.31 697.546 2770.21 697.546L2775.72 697.546C2776.61 697.546 2777.32 696.679 2777.32 695.596 2777.32 694.542 2776.61 693.665 2775.72 693.665ZM2786.76 693.665C2785.86 693.665 2785.15 694.532 2785.15 695.596 2785.15 696.679 2785.86 697.546 2786.76 697.546L2792.27 697.546C2793.17 697.546 2793.87 696.679 2793.87 695.596 2793.87 694.542 2793.17 693.665 2792.27 693.665ZM2803.32 693.665C2802.42 693.665 2801.72 694.532 2801.72 695.596 2801.72 696.679 2802.42 697.546 2803.32 697.546L2808.82 697.546C2809.72 697.546 2810.44 696.679 2810.44 695.596 2810.44 694.542 2809.72 693.665 2808.82 693.665ZM2770.21 700.295C2769.31 700.295 2768.59 701.152 2768.59 702.235 2768.59 703.319 2769.31 704.186 2770.21 704.186L2775.72 704.186C2776.61 704.186 2777.32 703.319 2777.32 702.235 2777.32 701.152 2776.61 700.295 2775.72 700.295ZM2786.76 700.295C2785.86 700.295 2785.15 701.152 2785.15 702.235 2785.15 703.319 2785.86 704.186 2786.76 704.186L2792.27 704.186C2793.17 704.186 2793.87 703.319 2793.87 702.235 2793.87 701.152 2793.17 700.295 2792.27 700.295ZM2803.32 700.295C2802.42 700.295 2801.72 701.152 2801.72 702.235 2801.72 703.319 2802.42 704.186 2803.32 704.186L2808.82 704.186C2809.72 704.186 2810.44 703.319 2810.44 702.235 2810.44 701.152 2809.72 700.295 2808.82 700.295ZM2795.05 718.283 2795.05 730.922 2783.98 730.922 2783.98 718.283ZM2815.99 669.628 2815.99 730.922 2797.79 730.922 2797.79 716.648C2797.79 715.722 2797.18 714.993 2796.42 714.993L2782.63 714.993C2781.86 714.993 2781.26 715.722 2781.26 716.648L2781.26 730.922 2763.07 730.922 2763.07 669.628ZM2770.18 647C2768.81 647 2767.68 648.35 2767.68 650.024L2767.68 663.589 2760.52 663.589C2759.14 663.589 2758.01 664.939 2758.01 666.614L2758.01 733.966C2758.01 735.631 2759.13 736.99 2760.52 736.99L2818.46 736.99C2819.84 736.99 2820.98 735.65 2820.98 733.966L2820.98 666.614C2820.99 664.939 2819.87 663.589 2818.47 663.589L2811.32 663.589 2811.32 650.024C2811.32 648.359 2810.21 647 2808.82 647Z" fill="#2AB5E8" fill-rule="evenodd"/></g></svg>