<svg width="82" height="82" xmlns="http://www.w3.org/2000/svg" xmlns:xlink="http://www.w3.org/1999/xlink" xml:space="preserve" overflow="hidden"><defs><clipPath id="clip0"><rect x="1319" y="651" width="82" height="82"/></clipPath></defs><g clip-path="url(#clip0)" transform="translate(-1319 -651)"><path d="M1360 672.001C1358.84 672.001 1357.87 672.967 1357.87 674.132L1357.87 675.947C1353.22 676.678 1350.22 679.874 1350.22 684.334 1350.22 689.544 1353.41 691.106 1357.83 693.291L1360.28 694.51C1364.82 696.74 1365.54 697.273 1365.54 699.665 1365.54 703.62 1361.29 703.909 1360 703.909 1358.71 703.909 1354.48 703.62 1354.48 699.665 1354.48 698.483 1353.51 697.535 1352.35 697.535 1351.17 697.535 1350.22 698.483 1350.22 699.665 1350.22 704.099 1353.22 707.268 1357.87 707.999L1357.87 709.868C1357.87 711.042 1358.84 711.999 1360 711.999 1361.19 711.999 1362.14 711.042 1362.14 709.868L1362.14 707.999C1366.78 707.268 1369.79 704.099 1369.79 699.665 1369.79 694.456 1366.59 692.894 1362.19 690.736L1359.72 689.499C1355.19 687.26 1354.48 686.736 1354.48 684.362 1354.48 680.371 1358.71 680.046 1360 680.046 1361.63 680.046 1365.43 680.479 1365.43 684.362 1365.43 685.535 1366.39 686.483 1367.56 686.483 1368.73 686.483 1369.69 685.535 1369.69 684.362 1369.69 679.883 1366.72 676.696 1362.14 675.956L1362.14 674.132C1362.14 672.967 1361.19 672.001 1360 672.001ZM1360 666.132C1374.27 666.132 1385.88 677.743 1385.88 692.009 1385.88 706.256 1374.27 717.868 1360 717.868 1345.74 717.868 1334.13 706.256 1334.13 692.009 1334.13 677.743 1345.74 666.132 1360 666.132ZM1360 663.46C1344.27 663.46 1331.46 676.263 1331.46 692.009 1331.46 707.737 1344.27 720.54 1360 720.54 1375.74 720.54 1388.54 707.737 1388.54 692.009 1388.54 676.263 1375.74 663.46 1360 663.46ZM1359.99 657.645C1378.95 657.645 1394.34 673.067 1394.34 692.009 1394.34 710.933 1378.95 726.346 1359.99 726.355 1341.04 726.355 1325.63 710.951 1325.63 692.009 1325.63 673.048 1341.05 657.645 1359.99 657.645ZM1360 651.009C1337.4 651.009 1319.01 669.392 1319.01 692.009 1319.01 714.608 1337.4 732.991 1360 732.991 1382.6 732.991 1401 714.608 1401 692.009 1401 669.392 1382.6 651.009 1360 651.009Z" fill="#2AB5E8" fill-rule="evenodd"/></g></svg>