<svg width="81" height="93" xmlns="http://www.w3.org/2000/svg" xmlns:xlink="http://www.w3.org/1999/xlink" xml:space="preserve" overflow="hidden"><defs><clipPath id="clip0"><rect x="176" y="367" width="81" height="93"/></clipPath></defs><g clip-path="url(#clip0)" transform="translate(-176 -367)"><path d="M248.566 406.284 246.228 406.284 246.228 370.721C246.228 368.667 244.572 367.001 242.529 367.001L197.131 367.001C195.994 366.974 194.906 367.467 194.172 368.34L176.711 389.172C176.231 389.848 175.982 390.662 176.001 391.493L176.001 456.28C175.985 458.318 177.614 459.983 179.641 460 179.661 460 179.681 460 179.7 460L242.529 460C244.555 460.016 246.212 458.378 246.228 456.34 246.228 456.32 246.228 456.3 246.228 456.28L246.228 445.566 248.566 445.566C253.217 445.55 256.984 441.762 257 437.085L257 414.765C256.984 410.088 253.217 406.3 248.566 406.284ZM194.438 379.679 194.438 389.321 186.329 389.321ZM238.829 452.56 183.34 452.56 183.34 396.761 198.137 396.761C200.164 396.777 201.821 395.138 201.837 393.101 201.837 393.081 201.837 393.061 201.837 393.041L201.837 374.441 238.829 374.441 238.829 406.284 204.175 406.284C199.516 406.284 195.74 410.081 195.74 414.765L195.74 437.085C195.74 441.769 199.516 445.566 204.175 445.566L238.829 445.566ZM252.265 437.085C252.265 439.139 250.609 440.805 248.566 440.805L204.175 440.805C202.132 440.805 200.475 439.139 200.475 437.085L200.475 414.765C200.475 412.711 202.132 411.045 204.175 411.045L248.566 411.045C250.609 411.045 252.265 412.711 252.265 414.765Z" fill="#2AB5E8" fill-rule="evenodd"/><path d="M213.48 420.735C214.945 420.761 216.333 421.369 217.316 422.414L219 420.195C217.576 418.715 215.545 417.914 213.449 418.007 208.662 418.125 204.881 421.95 205.003 426.551 205.007 426.701 205.015 426.851 205.028 427 204.647 431.588 208.208 435.603 212.982 435.969 213.137 435.981 213.293 435.989 213.449 435.993 215.551 436.087 217.587 435.273 219 433.775L217.316 431.556C216.326 432.587 214.939 433.183 213.48 433.205 210.297 432.935 207.917 430.275 208.116 427.21 207.656 424.096 209.91 421.213 213.15 420.771 213.26 420.756 213.37 420.744 213.48 420.735Z" fill="#2AB5E8" fill-rule="evenodd"/><path d="M226.695 425.387C224.088 424.534 223.377 423.975 223.377 422.798 223.377 421.621 224.355 420.65 226.073 420.65 227.537 420.641 228.956 421.152 230.073 422.092L231.614 419.767C230.075 418.475 228.079 417.85 226.073 418.031 222.252 418.031 220.148 419.973 220.148 422.915 220.148 425.858 221.807 426.858 225.392 428.006 228.355 428.947 228.799 429.595 228.799 430.948 228.799 432.302 227.969 433.302 225.984 433.302 224.37 433.252 222.818 432.673 221.57 431.655L220 433.803C221.655 435.294 223.842 436.067 226.073 435.951 228.926 436.341 231.557 434.361 231.95 431.527 231.986 431.267 232.002 431.005 231.998 430.743 232.058 428.065 230.577 426.564 226.695 425.387Z" fill="#2AB5E8" fill-rule="evenodd"/><path d="M240.472 432.499 235.876 418 233 418 239.118 436 241.853 436 248 418 245.124 418 240.472 432.499Z" fill="#2AB5E8" fill-rule="evenodd"/></g></svg>