<svg width="109" height="106" xmlns="http://www.w3.org/2000/svg" xmlns:xlink="http://www.w3.org/1999/xlink" xml:space="preserve" overflow="hidden"><defs><clipPath id="clip0"><rect x="3021" y="918" width="109" height="106"/></clipPath></defs><g clip-path="url(#clip0)" transform="translate(-3021 -918)"><path d="M3128.49 945.185 3128.37 945.085 3097.95 919.041C3097.17 918.371 3096.18 918.002 3095.15 918L3025.31 918C3022.92 918.008 3021 919.945 3021 922.33L3021.28 991.286C3021.29 992.433 3021.75 993.53 3022.57 994.336L3051.49 1022.76C3052.29 1023.56 3053.38 1024.01 3054.51 1024L3125.69 1024C3128.07 1024 3130 1022.07 3130 1019.69L3130 948.46C3130 947.2 3129.45 946.002 3128.49 945.185ZM3029.9 989.436 3029.66 931.997 3050.17 950.383 3050.17 1009.29ZM3035.76 926.62 3093.56 926.62 3115.18 944.15 3056.08 944.15ZM3121.38 1015.37 3058.78 1015.37 3058.78 952.77 3121.37 952.77Z" fill="#2AB5E8" fill-rule="evenodd"/></g></svg>