<svg width="65" height="90" xmlns="http://www.w3.org/2000/svg" xmlns:xlink="http://www.w3.org/1999/xlink" xml:space="preserve" overflow="hidden"><g transform="translate(-1042 -1208)"><path d="M1059.29 1218.49 1059.29 1228.56 1050.7 1228.56 1059.29 1218.49ZM1064.46 1243.66C1063.35 1243.66 1062.46 1244.55 1062.46 1245.65 1062.46 1246.76 1063.35 1247.64 1064.46 1247.64L1093.05 1247.64C1094.17 1247.64 1095.06 1246.76 1095.06 1245.65 1095.06 1244.55 1094.17 1243.66 1093.05 1243.66ZM1056.71 1243.52C1056.71 1243.52 1056.7 1243.52 1056.69 1243.52 1055.51 1243.52 1054.55 1244.48 1054.55 1245.64 1054.55 1246.79 1055.5 1247.74 1056.69 1247.74 1057.85 1247.74 1058.81 1246.8 1058.81 1245.64 1058.81 1244.47 1057.89 1243.52 1056.71 1243.52ZM1064.46 1253.02C1063.35 1253.02 1062.46 1253.91 1062.46 1255.01 1062.46 1256.12 1063.35 1257.01 1064.46 1257.01L1093.05 1257.01C1094.17 1257.01 1095.06 1256.12 1095.06 1255.01 1095.06 1253.93 1094.17 1253.02 1093.05 1253.02ZM1056.69 1252.87C1055.51 1252.87 1054.55 1253.79 1054.55 1254.97 1054.55 1256.13 1055.5 1257.09 1056.69 1257.09 1057.85 1257.09 1058.81 1256.15 1058.81 1254.97 1058.81 1253.82 1057.88 1252.87 1056.69 1252.87ZM1064.46 1262.39C1063.35 1262.39 1062.46 1263.27 1062.46 1264.37 1062.46 1265.48 1063.35 1266.37 1064.46 1266.37L1093.05 1266.37C1094.17 1266.37 1095.06 1265.48 1095.06 1264.37 1095.06 1263.27 1094.17 1262.39 1093.05 1262.39ZM1056.69 1262.23C1055.51 1262.23 1054.55 1263.15 1054.55 1264.33 1054.55 1265.49 1055.5 1266.45 1056.69 1266.45 1057.85 1266.45 1058.81 1265.51 1058.81 1264.33 1058.81 1263.15 1057.88 1262.23 1056.69 1262.23ZM1093.08 1271.75C1093.07 1271.75 1093.06 1271.75 1093.05 1271.75L1064.46 1271.75C1063.35 1271.75 1062.46 1272.63 1062.46 1273.73 1062.46 1274.84 1063.35 1275.73 1064.46 1275.73L1093.05 1275.73C1094.17 1275.73 1095.06 1274.84 1095.06 1273.73 1095.06 1272.64 1094.18 1271.75 1093.08 1271.75ZM1056.74 1271.58C1056.72 1271.58 1056.7 1271.58 1056.69 1271.59 1055.51 1271.59 1054.55 1272.51 1054.55 1273.69 1054.55 1274.85 1055.5 1275.82 1056.69 1275.82 1057.85 1275.82 1058.81 1274.87 1058.81 1273.69 1058.81 1272.53 1057.9 1271.58 1056.74 1271.58ZM1064.46 1281.09C1063.35 1281.09 1062.46 1281.97 1062.46 1283.08 1062.46 1284.18 1063.35 1285.07 1064.46 1285.07L1093.05 1285.07C1094.17 1285.07 1095.06 1284.18 1095.06 1283.08 1095.06 1281.99 1094.17 1281.09 1093.05 1281.09ZM1056.69 1280.91C1055.51 1280.91 1054.55 1281.86 1054.55 1283.03 1054.55 1284.2 1055.5 1285.16 1056.69 1285.16 1057.85 1285.16 1058.81 1284.21 1058.81 1283.03 1058.81 1281.86 1057.88 1280.91 1056.69 1280.91ZM1100.69 1214.24 1100.69 1291.75 1048.29 1291.75 1048.29 1234.78 1062.41 1234.78C1064.14 1234.78 1065.55 1233.38 1065.55 1231.66L1065.55 1214.24ZM1061.45 1208.01C1060.52 1208.01 1059.66 1208.42 1059.06 1209.11L1042.75 1228.25C1042.27 1228.81 1042.01 1229.51 1042.01 1230.25L1042.01 1294.88C1042.01 1296.59 1043.42 1298 1045.14 1298L1103.84 1298C1105.58 1298 1106.99 1296.59 1106.99 1294.88L1106.99 1211.15C1106.99 1209.4 1105.58 1208.01 1103.84 1208.01Z" fill="#2AB5E8" fill-rule="evenodd"/></g></svg>