<svg width="97" height="96" xmlns="http://www.w3.org/2000/svg" xmlns:xlink="http://www.w3.org/1999/xlink" xml:space="preserve" overflow="hidden"><g transform="translate(-3027 -924)"><path d="M3103.78 937.898C3103.01 937.898 3102.29 938.246 3101.82 938.855L3091.66 951.817 3081.92 944.547C3081.48 944.21 3080.96 944.047 3080.43 944.047 3079.79 944.047 3079.14 944.297 3078.66 944.809L3064.09 959.805 3049.89 956.649C3049.71 956.606 3049.52 956.584 3049.35 956.584 3048.2 956.584 3047.19 957.378 3046.92 958.521 3046.65 959.838 3047.48 961.144 3048.82 961.449L3064.35 964.888C3064.53 964.92 3064.7 964.953 3064.9 964.953 3065.57 964.953 3066.2 964.681 3066.68 964.191L3080.71 949.782 3090.62 957.193C3091.06 957.531 3091.59 957.694 3092.1 957.694 3092.85 957.694 3093.58 957.368 3094.06 956.747L3104.97 942.828 3119.45 942.828C3120.81 942.828 3121.93 941.718 3121.93 940.357 3121.93 939.019 3120.81 937.898 3119.45 937.898ZM3118.63 951.24C3118.14 951.24 3117.66 951.382 3117.22 951.676L3091.33 969.339 3072.65 969.339C3072.43 969.339 3072.21 969.35 3072 969.415L3060.65 972.484 3047.86 972.484C3046.5 972.484 3045.38 973.605 3045.38 974.944 3045.38 976.348 3046.48 977.436 3047.86 977.436L3060.97 977.436C3061.2 977.436 3061.42 977.414 3061.62 977.349L3072.97 974.28 3092.1 974.28C3092.61 974.28 3093.1 974.138 3093.5 973.856L3120.02 955.757C3121.15 954.984 3121.44 953.45 3120.66 952.318 3120.19 951.621 3119.42 951.24 3118.63 951.24ZM3119.35 963.462C3118.71 963.462 3118.06 963.723 3117.58 964.246L3091.43 990.67 3069.56 983.302C3069.29 983.204 3069.01 983.161 3068.74 983.161 3068.29 983.161 3067.86 983.28 3067.47 983.509L3048.02 995.306C3046.84 996.014 3046.48 997.537 3047.18 998.702 3047.65 999.464 3048.46 999.877 3049.31 999.877 3049.73 999.877 3050.17 999.746 3050.57 999.507L3069.05 988.319 3091.29 995.818C3091.55 995.905 3091.8 995.948 3092.06 995.948 3092.72 995.948 3093.37 995.687 3093.84 995.208L3121.09 967.674C3122.07 966.705 3122.04 965.138 3121.07 964.18 3120.59 963.702 3119.97 963.462 3119.35 963.462ZM3038.77 924C3036.64 924 3034.89 925.72 3034.89 927.864L3034.89 1004.95 3030.89 1004.95C3028.76 1004.95 3027.01 1006.67 3027.01 1008.8 3027.01 1010.95 3028.73 1012.66 3030.89 1012.66L3034.89 1012.66 3034.89 1016.14C3034.89 1018.26 3036.6 1020 3038.77 1020 3040.89 1020 3042.65 1018.27 3042.65 1016.14L3042.65 1012.66 3120.13 1012.66C3122.25 1012.66 3123.99 1010.95 3123.99 1008.8 3123.99 1006.67 3122.25 1004.95 3120.13 1004.95L3042.65 1004.95 3042.65 927.864C3042.65 925.73 3040.91 924 3038.77 924Z" fill="#2AB5E8" fill-rule="evenodd"/></g></svg>