<svg width="120" height="121" xmlns="http://www.w3.org/2000/svg" xmlns:xlink="http://www.w3.org/1999/xlink" xml:space="preserve" overflow="hidden"><g transform="translate(-1586 -353)"><path d="M1662.98 353.026C1662.05 353.026 1661.26 353.803 1661.26 354.763 1661.26 355.71 1662.05 356.5 1662.98 356.5L1669.98 356.5C1670.94 356.5 1671.71 355.71 1671.71 354.763 1671.71 353.803 1670.94 353.026 1669.98 353.026ZM1677.01 353.026C1676.05 353.026 1675.27 353.803 1675.27 354.763 1675.25 355.71 1676.04 356.5 1677.01 356.5L1684.01 356.5C1684.97 356.5 1685.74 355.71 1685.74 354.763 1685.74 353.803 1684.97 353.026 1684.01 353.026ZM1691.01 353C1690.05 353 1689.28 353.776 1689.28 354.737 1689.28 355.71 1690.05 356.5 1691.01 356.5L1696.67 356.5C1697.01 356.5 1697.37 356.513 1697.74 356.579 1697.84 356.592 1697.93 356.592 1698 356.592 1698.83 356.592 1699.59 355.987 1699.71 355.131 1699.85 354.171 1699.22 353.289 1698.26 353.118 1697.76 353.053 1697.2 353 1696.67 353ZM1653.32 353.026C1651.52 353.026 1649.79 353.487 1648.29 354.381 1647.45 354.881 1647.18 355.947 1647.66 356.789 1648.02 357.315 1648.61 357.605 1649.19 357.605 1649.49 357.605 1649.79 357.552 1650.07 357.381 1651.04 356.815 1652.15 356.5 1653.32 356.5L1655.99 356.5C1656.94 356.5 1657.71 355.71 1657.71 354.763 1657.71 353.803 1656.94 353.026 1655.99 353.026ZM1703.54 356.986C1703.28 356.986 1703.01 357.052 1702.76 357.184 1701.9 357.605 1701.56 358.67 1701.99 359.526 1702.35 360.183 1702.52 360.868 1702.48 361.591L1702.48 365.657C1702.48 366.604 1703.25 367.38 1704.21 367.38 1705.17 367.38 1705.95 366.604 1705.95 365.657L1705.95 361.618C1705.97 360.328 1705.68 359.078 1705.09 357.947 1704.79 357.342 1704.19 356.986 1703.54 356.986ZM1645.77 359.92C1644.82 359.92 1644.04 360.697 1644.04 361.657L1644.04 368.643C1644.04 369.603 1644.8 370.393 1645.77 370.393 1646.73 370.393 1647.52 369.603 1647.52 368.643L1647.52 361.657C1647.52 360.697 1646.73 359.92 1645.77 359.92ZM1704.21 370.893C1703.25 370.893 1702.48 371.682 1702.48 372.629L1702.48 379.642C1702.48 380.602 1703.25 381.392 1704.21 381.392 1705.17 381.392 1705.95 380.602 1705.95 379.642L1705.95 372.629C1705.97 371.682 1705.19 370.893 1704.21 370.893ZM1645.77 373.958C1644.82 373.958 1644.04 374.748 1644.04 375.682L1644.04 382.694C1644.04 383.655 1644.8 384.431 1645.77 384.431 1646.73 384.431 1647.52 383.655 1647.52 382.694L1647.52 375.682C1647.52 374.748 1646.73 373.958 1645.77 373.958ZM1699.02 364.565C1698.18 364.565 1697.36 364.946 1696.8 365.683L1687.2 378.287C1687.89 380.51 1688.32 383.063 1688.44 385.825L1701.26 369.038C1702.16 367.827 1701.95 366.064 1700.71 365.13 1700.21 364.749 1699.62 364.565 1699.02 364.565ZM1661.56 370.932C1660.8 370.932 1660.05 371.248 1659.51 371.853L1648.21 384.47C1647.18 385.628 1647.28 387.391 1648.45 388.404 1648.98 388.878 1649.65 389.115 1650.32 389.115 1651.08 389.115 1651.84 388.799 1652.39 388.18L1662.01 377.418 1672.4 384.773C1672.58 382.576 1672.92 380.523 1673.45 378.695L1663.18 371.445C1662.68 371.09 1662.11 370.932 1661.56 370.932ZM1704.21 384.944C1703.25 384.944 1702.48 385.72 1702.48 386.681L1702.48 393.693C1702.48 394.627 1703.25 395.416 1704.21 395.416 1705.17 395.416 1705.95 394.627 1705.95 393.693L1705.95 386.681C1705.97 385.72 1705.19 384.944 1704.21 384.944ZM1680.91 375.327C1679.95 375.327 1679.18 376.116 1679.18 377.05L1679.18 377.524C1676.6 378.129 1674.88 380.076 1674.88 382.681 1674.88 385.918 1677.01 386.97 1679.44 388.18 1679.66 388.286 1679.87 388.417 1680.12 388.536 1680.36 388.654 1680.61 388.772 1680.83 388.865 1683.37 390.114 1683.46 390.299 1683.46 391.272 1683.46 392.851 1681.87 393.114 1680.91 393.114 1679.95 393.114 1678.35 392.851 1678.35 391.272 1678.35 390.312 1677.57 389.536 1676.61 389.536 1675.66 389.536 1674.88 390.312 1674.88 391.272 1674.88 393.851 1676.6 395.811 1679.18 396.39L1679.18 396.982C1679.18 397.929 1679.95 398.719 1680.91 398.719 1681.87 398.719 1682.64 397.929 1682.64 396.982L1682.64 396.39C1685.22 395.772 1686.94 393.838 1686.94 391.259 1686.94 387.996 1684.81 386.957 1682.37 385.72 1682.16 385.628 1681.93 385.51 1681.68 385.391 1681.45 385.26 1681.23 385.141 1680.99 385.036 1678.45 383.786 1678.35 383.628 1678.35 382.655 1678.35 382.089 1678.58 380.8 1680.91 380.8 1683.08 380.8 1683.38 381.971 1683.38 382.655 1683.38 383.589 1684.17 384.378 1685.11 384.378 1686.07 384.378 1686.86 383.589 1686.86 382.655 1686.86 380.023 1685.22 378.089 1682.64 377.497L1682.64 377.05C1682.64 376.116 1681.87 375.327 1680.91 375.327ZM1704.21 399.008C1703.25 399.008 1702.48 399.85 1702.48 400.784 1702.48 402.508 1701.51 404.073 1699.9 405.047 1699.06 405.534 1698.81 406.613 1699.3 407.428 1699.62 407.994 1700.19 408.284 1700.8 408.284 1701.1 408.284 1701.4 408.205 1701.68 408.034 1704.4 406.455 1705.99 403.731 1705.99 400.811L1705.99 400.745C1705.97 399.758 1705.19 399.008 1704.21 399.008ZM1672.96 405.902C1672.02 405.902 1671.23 406.692 1671.23 407.626 1671.23 408.586 1672.02 409.362 1672.96 409.362L1679.95 409.362C1680.91 409.362 1681.68 408.586 1681.68 407.626 1681.68 406.692 1680.92 405.902 1679.95 405.902ZM1686.98 405.902C1686.03 405.902 1685.26 406.692 1685.26 407.626 1685.26 408.586 1686.03 409.362 1686.98 409.362L1693.98 409.362C1694.93 409.362 1695.71 408.586 1695.71 407.626 1695.71 406.692 1694.93 405.902 1693.98 405.902ZM1623.24 393.535C1632.12 393.535 1640.42 394.824 1646.64 397.232 1651.75 399.179 1654.94 401.797 1654.94 403.994 1654.94 406.205 1651.75 408.783 1646.64 410.757 1640.42 413.138 1632.12 414.441 1623.24 414.441 1614.37 414.441 1606.06 413.151 1599.86 410.757 1594.75 408.797 1591.54 406.205 1591.54 403.994 1591.54 401.797 1594.75 399.206 1599.86 397.232 1606.06 394.864 1614.37 393.535 1623.24 393.535ZM1654.94 412.757 1654.94 422.019C1654.94 424.216 1651.75 426.808 1646.64 428.781 1640.42 431.149 1632.12 432.478 1623.24 432.478 1614.37 432.478 1606.06 431.163 1599.86 428.781 1594.75 426.834 1591.54 424.216 1591.54 422.019L1591.54 412.757C1593.28 413.954 1595.37 415.046 1597.86 416.006 1604.69 418.638 1613.7 420.085 1623.24 420.085 1632.8 420.085 1641.79 418.624 1648.62 416.006 1651.08 415.046 1653.21 413.954 1654.94 412.757ZM1654.94 430.742 1654.94 439.938C1654.94 442.148 1651.75 444.727 1646.64 446.7 1640.42 449.082 1632.12 450.384 1623.24 450.384 1614.37 450.384 1606.06 449.095 1599.86 446.7 1594.75 444.74 1591.54 442.148 1591.54 439.938L1591.54 430.742C1593.28 431.926 1595.37 433.018 1597.86 433.978 1604.69 436.623 1613.7 438.057 1623.24 438.057 1632.8 438.057 1641.79 436.596 1648.62 433.978 1651.08 433.018 1653.21 431.926 1654.94 430.742ZM1654.94 448.713 1654.94 457.975C1654.94 460.159 1651.75 462.778 1646.64 464.725 1640.42 467.093 1632.12 468.422 1623.24 468.422 1614.37 468.422 1606.06 467.119 1599.86 464.725 1594.75 462.778 1591.54 460.159 1591.54 457.975L1591.54 448.713C1593.28 449.897 1595.37 451.003 1597.86 451.95 1604.69 454.594 1613.7 456.041 1623.24 456.041 1632.8 456.041 1641.79 454.568 1648.62 451.95 1651.08 451.003 1653.21 449.897 1654.94 448.713ZM1623.27 387.93C1613.7 387.93 1604.72 389.391 1597.89 391.996 1590.22 394.93 1586.01 399.179 1586.01 403.968L1586.01 457.936C1586.01 462.699 1590.22 466.961 1597.89 469.908 1604.72 472.54 1613.73 473.987 1623.27 473.987 1632.82 473.987 1641.82 472.526 1648.65 469.908 1656.31 466.974 1660.52 462.712 1660.52 457.936L1660.52 409.362 1665.96 409.362C1666.92 409.362 1667.69 408.586 1667.69 407.626 1667.69 406.692 1666.92 405.902 1665.92 405.863L1660.51 405.863 1660.51 403.968C1660.51 399.206 1656.27 394.969 1648.62 391.996 1648.25 391.864 1647.86 391.706 1647.49 391.588L1647.49 389.654C1647.49 388.72 1646.73 387.93 1645.77 387.93 1644.82 387.93 1644.04 388.72 1644.04 389.654L1644.04 390.496C1637.99 388.825 1630.79 387.93 1623.27 387.93Z" fill="#29B5E8" fill-rule="evenodd"/></g></svg>