<svg width="74" height="85" xmlns="http://www.w3.org/2000/svg" xmlns:xlink="http://www.w3.org/1999/xlink" xml:space="preserve" overflow="hidden"><defs><clipPath id="clip0"><rect x="466" y="648" width="74" height="85"/></clipPath></defs><g clip-path="url(#clip0)" transform="translate(-466 -648)"><path d="M502.99 655.124C522.321 655.124 532.862 661.251 532.862 664.39 532.862 667.529 522.321 673.657 502.99 673.657 483.68 673.657 473.138 667.529 473.138 664.39 473.138 661.251 483.68 655.124 502.99 655.124ZM532.862 674.442 532.862 681.807C532.862 684.946 522.321 691.073 502.99 691.073 483.68 691.073 473.138 684.946 473.138 681.807L473.138 674.442C480.206 678.627 491.643 680.78 502.99 680.78 514.347 680.78 525.774 678.627 532.862 674.442ZM532.862 691.878 532.862 699.173C532.862 702.312 522.321 708.44 502.99 708.44 483.68 708.44 473.138 702.312 473.138 699.173L473.138 691.878C480.206 696.064 491.643 698.197 502.99 698.197 514.347 698.197 525.774 696.064 532.862 691.878ZM532.862 709.245 532.862 716.61C532.862 719.749 522.321 725.876 502.99 725.876 483.68 725.876 473.138 719.749 473.138 716.61L473.138 709.245C480.206 713.43 491.643 715.573 502.99 715.573 514.347 715.573 525.774 713.43 532.862 709.245ZM502.99 648C484.606 648 466.01 653.634 466.01 664.4L466.01 716.61C466.01 727.365 484.616 733 502.99 733 521.364 733 539.98 727.385 539.98 716.61L539.98 664.39C540 653.634 521.384 648 502.99 648Z" fill="#2AB5E8" fill-rule="evenodd"/></g></svg>