<svg width="74" height="88" xmlns="http://www.w3.org/2000/svg" xmlns:xlink="http://www.w3.org/1999/xlink" xml:space="preserve" overflow="hidden"><defs><clipPath id="clip0"><rect x="180" y="647" width="74" height="88"/></clipPath></defs><g clip-path="url(#clip0)" transform="translate(-180 -647)"><path d="M217 653.927C235.96 653.927 248.07 660.942 248.07 665.762 248.07 670.592 235.96 677.597 217 677.597 198.023 677.597 185.913 670.592 185.913 665.762 185.913 660.942 198.048 653.927 217 653.927ZM248.07 676.265 248.07 716.228C248.07 721.068 235.96 728.083 217 728.083 198.023 728.083 185.913 721.068 185.913 716.258L185.913 676.265C192.955 681.673 205.199 684.553 217 684.553 228.801 684.553 241.045 681.673 248.07 676.265ZM217 647C199.069 647 180 653.584 180 665.772L180 716.228C180 728.436 199.069 734.99 217 734.99 234.931 734.99 253.992 728.416 253.992 716.228L253.992 665.781C253.992 653.584 234.948 647 217 647Z" fill="#28B5E8" fill-rule="evenodd"/></g></svg>