<svg width="67" height="89" xmlns="http://www.w3.org/2000/svg" xmlns:xlink="http://www.w3.org/1999/xlink" xml:space="preserve" overflow="hidden"><defs><clipPath id="clip0"><rect x="469" y="1208" width="67" height="89"/></clipPath></defs><g clip-path="url(#clip0)" transform="translate(-469 -1208)"><path d="M486.688 1219.9 486.688 1229.39 478.762 1229.39 486.688 1219.9ZM506.949 1224.16C505.888 1224.16 505.053 1225.03 505.053 1226.08L505.053 1247.45C505.053 1248.51 505.888 1249.34 506.949 1249.36L521.799 1249.36C522.859 1249.36 523.694 1248.51 523.694 1247.45L523.694 1226.08C523.694 1225 522.83 1224.16 521.799 1224.16ZM482.73 1245.23C481.512 1245.23 480.51 1246.24 480.51 1247.48 480.51 1248.69 481.512 1249.71 482.73 1249.71L497.363 1249.71C498.591 1249.71 499.603 1248.69 499.603 1247.48 499.603 1246.24 498.591 1245.23 497.363 1245.23ZM482.73 1255.91C481.512 1255.91 480.51 1256.92 480.51 1258.16 480.51 1259.4 481.512 1260.4 482.73 1260.4L522.015 1260.4C523.242 1260.4 524.244 1259.4 524.244 1258.16 524.244 1256.92 523.242 1255.91 522.015 1255.91ZM482.73 1266.6C481.512 1266.6 480.51 1267.6 480.51 1268.84 480.51 1270.08 481.512 1271.09 482.73 1271.09L522.015 1271.09C523.242 1271.09 524.244 1270.08 524.244 1268.84 524.244 1267.6 523.242 1266.6 522.015 1266.6ZM482.73 1277.29C481.512 1277.29 480.51 1278.31 480.51 1279.53 480.51 1280.77 481.512 1281.78 482.73 1281.78L522.015 1281.78C523.242 1281.78 524.244 1280.77 524.244 1279.53 524.244 1278.31 523.242 1277.29 522.015 1277.29ZM529.027 1215.04 529.027 1289.96 475.973 1289.96 475.973 1236.4 490.145 1236.4C492.089 1236.4 493.631 1234.83 493.631 1232.91L493.631 1215.04ZM489.143 1208C488.122 1208 487.14 1208.48 486.491 1209.25L469.815 1229.15C469.295 1229.76 469 1230.58 469 1231.4L469 1293.48C469 1295.42 470.581 1297 472.486 1297L532.513 1297C534.458 1297 536 1295.4 536 1293.48L536 1211.52C536 1209.6 534.458 1208 532.504 1208Z" fill="#2AB5E8" fill-rule="evenodd"/></g></svg>