<svg width="91" height="99" xmlns="http://www.w3.org/2000/svg" xmlns:xlink="http://www.w3.org/1999/xlink" xml:space="preserve" overflow="hidden"><defs><clipPath id="clip0"><rect x="457" y="358" width="91" height="99"/></clipPath></defs><g clip-path="url(#clip0)" transform="translate(-457 -358)"><path d="M488.318 442.739 464.264 442.739 464.264 387.36 479.082 387.36C481.091 387.36 482.718 385.735 482.718 383.729L482.718 365.251 519.736 365.251 519.736 394.048C522.245 394.23 524.682 394.693 527 395.401L527 361.63C527 359.624 525.373 358 523.364 358L478.054 358C476.982 358 475.973 358.472 475.282 359.289L457.854 379.854C457.3 380.508 457 381.333 457 382.196L457 446.37C457 448.375 458.627 450 460.636 450L493.727 450C491.609 447.849 489.791 445.408 488.327 442.749ZM475.454 370.316 475.454 380.108 467.164 380.108 475.454 370.316Z" fill="#28B5E8" fill-rule="evenodd"/><path d="M469 398.996C469 400.1 470.047 401 471.35 401L497.058 401C499.464 399.372 502.126 398.018 505 397L471.35 397C470.056 397 469 397.892 469 399.004Z" fill="#28B5E8" fill-rule="evenodd"/><path d="M471.311 434.99 485 434.99C484.657 433.369 484.413 431.699 484.287 430L471.311 430C470.038 430 469 431.113 469 432.5 469 433.887 470.029 435 471.311 435Z" fill="#28B5E8" fill-rule="evenodd"/><path d="M471.411 423.99 485.102 423.99C485.291 422.291 485.584 420.621 486 419L471.42 419C470.087 419 469 420.113 469 421.5 469 422.887 470.078 424 471.42 424Z" fill="#28B5E8" fill-rule="evenodd"/><path d="M471.368 412.99 488.113 412.99C488.946 411.242 489.917 409.572 491 408L471.368 408C470.064 408 469 409.113 469 410.5 469 411.887 470.055 413 471.368 413Z" fill="#28B5E8" fill-rule="evenodd"/><path d="M518 457C501.457 457 488 443.541 488 426.995 488 410.449 501.457 397 518 397 534.544 397 548 410.458 548 426.995 548 443.532 534.544 457 518 457ZM518 400.996C503.663 400.996 492.004 412.656 492.004 426.995 492.004 441.335 503.672 452.995 518 452.995 532.328 452.995 543.996 441.326 543.996 426.995 543.996 412.665 532.328 400.996 518 400.996Z" fill="#28B5E8" fill-rule="evenodd"/><path d="M536.427 434.746 536.427 424.445C537.354 423.994 538 423.055 538 421.962 538 420.87 537.354 419.931 536.427 419.48L536.427 415.562 517.736 415.562C517.282 414.641 516.336 414 515.236 414 514.136 414 513.191 414.641 512.736 415.562L502.291 415.562C501.836 414.641 500.891 414 499.791 414 498.255 414 497 415.246 497 416.771 497 417.828 497.609 418.739 498.491 419.209L498.491 434.71C497.609 435.179 497 436.091 497 437.147 497 438.673 498.255 439.919 499.791 439.919 500.855 439.919 501.773 439.314 502.245 438.438L532.709 438.438C533.164 439.359 534.109 440 535.209 440 536.745 440 538 438.754 538 437.229 538 436.136 537.354 435.197 536.427 434.746ZM499.8 438.709C498.936 438.709 498.227 438.005 498.227 437.147 498.227 436.29 498.936 435.585 499.8 435.585 500.664 435.585 501.373 436.29 501.373 437.147 501.373 438.005 500.664 438.709 499.8 438.709ZM499.8 415.21C500.664 415.21 501.373 415.914 501.373 416.771 501.373 417.629 500.664 418.333 499.8 418.333 498.936 418.333 498.227 417.629 498.227 416.771 498.227 415.914 498.936 415.21 499.8 415.21ZM515.245 415.21C516.109 415.21 516.818 415.914 516.818 416.771 516.818 417.629 516.109 418.333 515.245 418.333 514.382 418.333 513.673 417.629 513.673 416.771 513.673 415.914 514.382 415.21 515.245 415.21ZM513.245 418.703 509.191 424.86C508.991 424.797 508.782 424.752 508.555 424.752 508.246 424.752 507.964 424.815 507.7 424.924L502.164 418.216C502.209 418.135 502.255 418.053 502.3 417.972L512.745 417.972C512.873 418.234 513.045 418.487 513.245 418.694ZM501.309 419.101 506.764 425.709C506.518 426.061 506.382 426.476 506.382 426.937 506.382 427.397 506.518 427.785 506.746 428.128L501.1 434.71C501.046 434.683 501 434.656 500.945 434.628L500.945 419.308C501.073 419.254 501.2 419.182 501.318 419.11ZM507.664 428.905C507.936 429.031 508.236 429.103 508.564 429.103 509.336 429.103 510.018 428.697 510.4 428.092L518.3 430.358C514.827 431.306 507.718 433.283 502.591 434.827L507.664 428.905ZM510.745 426.928C510.745 426.386 510.536 425.908 510.218 425.528L514.273 419.362C514.582 419.48 514.9 419.543 515.245 419.543 516.018 419.543 516.727 419.227 517.227 418.712L521.509 421.376C521.455 421.565 521.418 421.755 521.418 421.962 521.418 422.685 521.773 423.317 522.318 423.705L520.682 428.183C520.636 428.183 520.582 428.165 520.536 428.165 519.755 428.165 519.073 428.58 518.682 429.194L510.736 426.91ZM523.473 424.12C523.518 424.12 523.564 424.138 523.609 424.138 524.6 424.138 525.427 423.479 525.691 422.576L532.5 422.576C532.518 422.649 532.545 422.721 532.564 422.793L522.064 428.806C521.991 428.733 521.909 428.67 521.827 428.616L523.464 424.129ZM536.791 421.962C536.791 422.82 536.082 423.524 535.218 423.524 534.354 423.524 533.645 422.82 533.645 421.962 533.645 421.105 534.354 420.401 535.218 420.401 536.082 420.401 536.791 421.105 536.791 421.962ZM534 417.981 534 419.48C533.245 419.841 532.682 420.527 532.5 421.358L525.691 421.358C525.427 420.455 524.6 419.796 523.609 419.796 523.055 419.796 522.545 420.012 522.164 420.355L518.345 417.981 534 417.981ZM532.718 436.019 502.8 436.019C507.955 434.466 515.227 432.453 518.7 431.496 519.091 432.101 519.764 432.507 520.536 432.507 521.227 432.507 521.827 432.182 522.236 431.685L532.791 435.874C532.764 435.919 532.736 435.965 532.709 436.019ZM533.673 434.926 522.7 430.584C522.7 430.503 522.727 430.431 522.727 430.349 522.727 430.178 522.7 430.006 522.664 429.844L533.173 423.84C533.409 424.093 533.691 424.301 534.009 424.454L534.009 434.755C533.9 434.809 533.782 434.863 533.682 434.935Z" fill="#28B5E8" fill-rule="evenodd"/></g></svg>