<svg width="62" height="90" xmlns="http://www.w3.org/2000/svg" xmlns:xlink="http://www.w3.org/1999/xlink" xml:space="preserve" overflow="hidden"><defs><clipPath id="clip0"><rect x="186" y="1208" width="62" height="90"/></clipPath></defs><g clip-path="url(#clip0)" transform="translate(-186 -1208)"><path d="M219.105 1212.57C219.105 1212.72 219.115 1212.93 219.115 1213.14 219.115 1214.41 220.143 1215.45 221.438 1215.45L229.633 1215.45C229.851 1215.45 230.552 1216.3 230.552 1217.26L230.552 1218.65 203.457 1218.65 203.457 1217.27C203.457 1216.52 204.426 1215.48 204.851 1215.48L212.69 1215.48C213.955 1215.48 214.993 1214.45 214.993 1213.15 214.993 1212.93 215.013 1212.73 215.013 1212.58 215.27 1212.57 215.586 1212.57 215.833 1212.57ZM211.237 1243.91C210.426 1243.91 209.784 1244.57 209.784 1245.36 209.784 1246.16 210.426 1246.79 211.237 1246.82L222.763 1246.82C223.564 1246.82 224.216 1246.18 224.216 1245.36 224.216 1244.55 223.554 1243.91 222.763 1243.91ZM211.237 1252.56C210.426 1252.56 209.784 1253.22 209.784 1254.02 209.784 1254.82 210.426 1255.45 211.237 1255.45L222.763 1255.45C223.564 1255.45 224.216 1254.82 224.216 1254.02 224.216 1253.21 223.554 1252.56 222.763 1252.56ZM230.552 1239.01 230.552 1261.23 203.457 1261.23 203.457 1239.01ZM230.552 1264.11 230.552 1271.89 203.457 1271.89 203.457 1264.11ZM201.134 1234.38C199.879 1234.38 198.831 1235.41 198.831 1236.7L198.831 1274.19C198.831 1275.49 199.879 1276.51 201.134 1276.51L232.846 1276.51C234.121 1276.51 235.159 1275.49 235.159 1274.19L235.159 1236.7C235.159 1235.44 234.131 1234.38 232.846 1234.38ZM240.774 1225.9 240.774 1290.8 193.206 1290.8 193.206 1225.9ZM215.843 1208C214.272 1208 211.593 1208 210.683 1210.88L204.851 1210.88C201.5 1210.88 198.831 1214.39 198.831 1217.29L198.831 1218.69 189.598 1218.69C187.621 1218.69 186 1220.31 186 1222.29L186 1294.4C186 1296.39 187.621 1298 189.598 1298L244.392 1298C246.379 1298 247.99 1296.39 247.99 1294.4L247.99 1222.29C247.99 1220.28 246.379 1218.69 244.392 1218.69L235.159 1218.69 235.159 1217.29C235.159 1214.26 232.885 1210.88 229.613 1210.88L223.475 1210.88C222.773 1208.27 220.776 1208 218.72 1208Z" fill="#2AB5E8" fill-rule="evenodd"/></g></svg>