<svg width="81" height="81" xmlns="http://www.w3.org/2000/svg" xmlns:xlink="http://www.w3.org/1999/xlink" xml:space="preserve" overflow="hidden"><defs><clipPath id="clip0"><rect x="2749" y="373" width="81" height="81"/></clipPath></defs><g clip-path="url(#clip0)" transform="translate(-2749 -373)"><path d="M2790.47 382.204 2801.09 390.117C2801.62 390.521 2802.26 390.718 2802.9 390.718 2803.24 390.718 2803.57 390.664 2803.89 390.556L2816.45 386.313 2812.19 398.837C2811.88 399.797 2812.04 400.828 2812.63 401.627L2820.57 412.249 2807.34 412.06C2807.25 412.051 2807.17 412.042 2807.08 412.042 2806.18 412.042 2805.32 412.598 2804.8 413.343L2797.13 424.135 2793.19 411.513C2792.89 410.544 2792.14 409.799 2791.2 409.521L2778.53 405.583 2789.35 397.958C2790.18 397.366 2790.66 396.424 2790.65 395.419L2790.47 382.204ZM2787.38 373.009C2786.91 373.009 2786.42 373.126 2785.98 373.35 2784.95 373.879 2784.3 374.947 2784.32 376.095L2784.54 393.894 2769.97 404.175C2769.03 404.838 2768.53 405.987 2768.71 407.135 2768.9 408.274 2769.72 409.207 2770.83 409.566L2787.87 414.85 2793.16 431.841C2793.52 432.963 2794.45 433.779 2795.6 433.95 2795.75 433.977 2795.92 433.977 2796.08 433.977 2797.07 433.977 2798 433.51 2798.56 432.694L2808.88 418.178 2826.72 418.403C2826.79 418.412 2826.87 418.412 2826.95 418.412 2827.98 418.412 2828.98 417.703 2829.46 416.734 2830 415.711 2829.87 414.455 2829.2 413.522L2818.53 399.258 2824.25 382.411C2824.63 381.298 2824.33 380.087 2823.53 379.28 2822.94 378.697 2822.16 378.383 2821.36 378.383 2821.03 378.383 2820.7 378.436 2820.39 378.544L2803.49 384.259 2789.2 373.619C2788.67 373.215 2788.03 373.009 2787.38 373.009ZM2783.38 416.833C2782.56 416.833 2781.75 417.147 2781.12 417.766L2750.23 448.564C2749.01 449.811 2749.01 451.829 2750.23 453.067 2750.86 453.677 2751.68 454 2752.49 454 2753.31 454 2754.14 453.677 2754.75 453.067L2785.64 422.251C2786.86 421.004 2786.86 418.986 2785.64 417.766 2785.01 417.147 2784.19 416.833 2783.38 416.833Z" fill="#2AB5E8" fill-rule="evenodd"/></g></svg>