<svg width="125" height="113" xmlns="http://www.w3.org/2000/svg" xmlns:xlink="http://www.w3.org/1999/xlink" xml:space="preserve" overflow="hidden"><g transform="translate(-2727 -1195)"><path d="M2826.48 1195.01C2825.07 1195.01 2823.76 1195.9 2823.31 1197.31L2818.62 1211.62C2818.03 1213.4 2819 1215.28 2820.72 1215.89 2821.07 1215.99 2821.42 1216.03 2821.78 1216.03 2823.22 1216.03 2824.49 1215.13 2824.94 1213.75L2829.64 1199.41C2829.92 1198.55 2829.86 1197.66 2829.44 1196.86 2829.03 1196.03 2828.35 1195.45 2827.51 1195.17 2827.16 1195.07 2826.83 1195.01 2826.48 1195.01ZM2804.53 1196.72C2804.02 1196.72 2803.53 1196.83 2803.06 1197.05 2801.41 1197.9 2800.77 1199.91 2801.59 1201.55L2808.34 1214.97C2808.91 1216.12 2810.07 1216.82 2811.34 1216.82 2811.84 1216.82 2812.37 1216.69 2812.85 1216.47 2814.48 1215.63 2815.13 1213.63 2814.32 1211.97L2807.53 1198.55C2807.12 1197.75 2806.43 1197.14 2805.59 1196.88 2805.24 1196.76 2804.88 1196.72 2804.53 1196.72ZM2843.13 1209.37C2842.62 1209.37 2842.1 1209.5 2841.63 1209.75L2828.24 1216.56C2826.58 1217.4 2825.93 1219.41 2826.76 1221.03 2827.31 1222.18 2828.45 1222.86 2829.7 1222.86 2830.24 1222.86 2830.76 1222.76 2831.21 1222.53L2844.62 1215.71C2846.26 1214.87 2846.93 1212.88 2846.11 1211.23 2845.71 1210.41 2845 1209.8 2844.17 1209.56 2843.84 1209.43 2843.49 1209.37 2843.13 1209.37ZM2830.53 1226.73C2830.02 1226.73 2829.51 1226.85 2829.03 1227.08 2828.24 1227.49 2827.64 1228.2 2827.38 1229.03 2826.8 1230.79 2827.74 1232.67 2829.48 1233.24L2843.74 1237.96C2844.07 1238.06 2844.4 1238.1 2844.78 1238.1 2846.24 1238.1 2847.51 1237.2 2847.97 1235.82 2848.22 1234.94 2848.17 1234.07 2847.77 1233.24 2847.36 1232.44 2846.66 1231.84 2845.84 1231.58L2831.57 1226.91C2831.24 1226.79 2830.87 1226.73 2830.53 1226.73ZM2815.43 1263.6C2817.61 1263.6 2819.35 1265.41 2819.35 1267.56 2819.35 1269.73 2817.58 1271.49 2815.43 1271.49L2805.41 1271.49C2803.22 1271.49 2801.48 1269.73 2801.48 1267.56 2801.48 1265.36 2803.27 1263.6 2805.41 1263.6ZM2813.05 1278.2C2815.23 1278.2 2816.98 1279.99 2816.98 1282.16 2816.98 1284.32 2815.21 1286.09 2813.05 1286.09L2803.01 1286.09C2800.83 1286.09 2799.09 1284.32 2799.09 1282.16 2799.09 1279.95 2800.85 1278.2 2803.01 1278.2ZM2785.46 1210.25C2785.84 1210.25 2786.23 1210.31 2786.62 1210.41 2788.26 1210.85 2789.43 1212.57 2789.43 1214.51L2789.43 1216.22C2789.52 1224.81 2788.88 1233.46 2787.55 1241.97 2787.14 1244.48 2786.88 1246.56 2786.72 1248.54L2785.64 1262.88C2785.64 1270.5 2779.47 1276.69 2771.88 1276.69 2770.05 1276.69 2768.54 1278.2 2768.54 1280.04 2768.54 1281.87 2770.05 1283.39 2771.88 1283.39 2777.31 1283.39 2782.45 1281.25 2786.3 1277.4 2790.17 1273.53 2792.28 1268.44 2792.28 1263.15L2793.15 1252.15 2841.42 1252.15C2843.59 1252.15 2845.36 1253.95 2845.36 1256.11 2845.36 1258.29 2843.58 1260.04 2841.42 1260.04L2822.9 1260.04C2820.91 1258.03 2818.23 1256.89 2815.43 1256.89L2805.41 1256.89C2799.56 1256.89 2794.8 1261.67 2794.8 1267.52 2794.8 1269.75 2795.47 1271.84 2796.71 1273.62 2794.03 1275.58 2792.44 1278.71 2792.44 1282.12 2792.44 1283.71 2792.8 1285.29 2793.51 1286.72 2789.33 1288.16 2786.43 1292.15 2786.43 1296.7 2786.43 1298.09 2786.71 1299.41 2787.2 1300.66L2777.39 1300.66C2769.31 1300.66 2761.55 1297.24 2755.98 1291.27L2755.98 1251.03C2758.35 1248.48 2761.04 1246.43 2764.02 1244.88 2766.55 1243.59 2768.95 1241.78 2771.54 1239.18 2777.92 1232.89 2781.58 1224.03 2781.56 1214.84L2781.56 1214.2C2781.56 1212.95 2782.13 1211.81 2783.11 1211.07 2783.81 1210.53 2784.62 1210.25 2785.46 1210.25ZM2807.04 1292.77C2809.21 1292.77 2810.95 1294.56 2810.95 1296.72 2810.95 1298.9 2809.18 1300.66 2807.04 1300.66L2796.97 1300.66C2794.83 1300.66 2793.06 1298.89 2793.06 1296.72 2793.06 1294.54 2794.83 1292.77 2797.02 1292.77ZM2748.97 1246.91 2748.97 1301.42 2733.61 1301.42 2733.61 1246.91ZM2785.52 1203.57C2783.21 1203.57 2780.97 1204.33 2779.07 1205.77 2776.41 1207.79 2774.89 1210.91 2774.89 1214.21L2774.89 1214.91C2774.91 1222.28 2771.98 1229.4 2766.87 1234.43 2764.74 1236.54 2762.86 1237.97 2760.96 1238.95 2758.96 1239.96 2757.09 1241.2 2755.32 1242.58 2754.88 1241.24 2753.69 1240.27 2752.23 1240.27L2730.29 1240.27C2728.49 1240.27 2727 1241.75 2727 1243.57L2727 1304.68C2727 1306.5 2728.49 1307.99 2730.29 1307.99L2752.23 1307.99C2754.03 1307.99 2755.51 1306.5 2755.51 1304.68L2755.51 1299.88C2761.76 1304.68 2769.4 1307.36 2777.34 1307.36L2806.99 1307.36C2812.85 1307.36 2817.61 1302.59 2817.61 1296.72 2817.61 1295.1 2817.22 1293.55 2816.53 1292.12 2820.71 1290.68 2823.61 1286.69 2823.61 1282.13 2823.61 1279.91 2822.93 1277.81 2821.7 1276.03 2824.39 1274.07 2825.97 1270.94 2825.97 1267.55 2825.97 1267.26 2825.97 1267.02 2825.93 1266.75L2841.37 1266.75C2847.22 1266.75 2851.97 1261.97 2851.97 1256.11 2851.99 1250.23 2847.26 1245.45 2841.42 1245.45L2793.78 1245.45C2793.9 1244.69 2794 1243.89 2794.13 1243.04 2795.54 1234.19 2796.21 1225.13 2796.12 1216.16L2796.09 1214.51C2796.09 1209.53 2792.93 1205.2 2788.35 1203.95 2787.4 1203.7 2786.46 1203.57 2785.52 1203.57Z" fill="#2AB5E8" fill-rule="evenodd"/></g></svg>