<svg width="80" height="80" xmlns="http://www.w3.org/2000/svg" xmlns:xlink="http://www.w3.org/1999/xlink" xml:space="preserve" overflow="hidden"><defs><clipPath id="clip0"><rect x="463" y="1214" width="80" height="80"/></clipPath></defs><g clip-path="url(#clip0)" transform="translate(-463 -1214)"><path d="M542.868 1263.53C542.628 1262.72 542.081 1262.03 541.344 1261.63L535.847 1258.62C535.994 1257.03 536.053 1255.43 536.022 1253.82 536.022 1252.2 536.022 1250.65 535.872 1249.15L541.394 1246.03C542.124 1245.61 542.656 1244.91 542.868 1244.1 543.072 1243.31 542.965 1242.47 542.568 1241.75L533.299 1226.05C532.733 1225.1 531.707 1224.52 530.601 1224.53 530.097 1224.53 529.601 1224.65 529.152 1224.88L523.53 1227.95C520.97 1225.89 518.126 1224.2 515.086 1222.95L515.086 1217.1C515.072 1215.39 513.693 1214.01 511.988 1214L493.35 1214C491.639 1214 490.252 1215.39 490.252 1217.1L490.252 1223.03C487.421 1224.23 484.798 1225.87 482.482 1227.9L477.485 1224.95C477.007 1224.67 476.464 1224.53 475.911 1224.53 474.812 1224.52 473.792 1225.1 473.238 1226.05L463.944 1241.75C463.477 1242.5 463.359 1243.41 463.619 1244.25 463.842 1245.05 464.372 1245.73 465.093 1246.15L470.84 1249.4C470.827 1249.55 470.827 1249.7 470.84 1249.85L470.84 1250.45C470.672 1251.6 470.58 1252.76 470.565 1253.93L470.565 1258.6 464.644 1261.65C463.91 1262.04 463.361 1262.71 463.119 1263.5 462.888 1264.34 462.996 1265.24 463.419 1266L472.688 1282.02C473.23 1282.99 474.252 1283.6 475.362 1283.6 475.862 1283.55 476.343 1283.38 476.761 1283.1L482.407 1280.05C484.732 1282.05 487.353 1283.68 490.177 1284.88L490.177 1290.9C490.177 1292.61 491.564 1294 493.275 1294L511.988 1294C513.693 1293.99 515.072 1292.61 515.086 1290.9L515.086 1284.9C518.106 1283.68 520.94 1282.03 523.505 1280.02L529.227 1283.1C529.686 1283.35 530.201 1283.49 530.726 1283.5 531.836 1283.5 532.858 1282.89 533.399 1281.93L542.643 1265.93C543.023 1265.18 543.103 1264.32 542.868 1263.53ZM494.249 1279.65C491.164 1278.66 488.332 1277 485.955 1274.8L484.781 1273.9C484.237 1273.46 483.557 1273.22 482.857 1273.22 482.342 1273.22 481.835 1273.35 481.383 1273.6L476.611 1276.1 470.39 1265.58 475.012 1263.08C476.097 1262.56 476.78 1261.45 476.761 1260.25L476.761 1253.82C476.712 1252.91 476.712 1251.99 476.761 1251.07 476.941 1249.9 477.033 1248.71 477.035 1247.53 477.036 1246.41 476.434 1245.38 475.461 1244.82L470.89 1242.18 476.961 1231.85 481.233 1234.35C482.359 1235.02 483.782 1234.9 484.781 1234.05L485.03 1233.85C487.644 1231.3 490.793 1229.36 494.249 1228.18 495.536 1227.78 496.422 1226.6 496.448 1225.25L496.448 1220.25 508.94 1220.25 508.94 1225.25C508.941 1226.61 509.819 1227.81 511.113 1228.23 514.872 1229.44 518.329 1231.45 521.257 1234.1 521.818 1234.57 522.525 1234.82 523.256 1234.83 523.77 1234.83 524.277 1234.7 524.73 1234.45L529.527 1231.95 535.648 1242.35 530.951 1245C529.703 1245.69 529.101 1247.16 529.502 1248.53 529.835 1250.33 529.961 1252.17 529.876 1254 529.948 1255.95 529.815 1257.9 529.477 1259.83 529.158 1261.18 529.795 1262.58 531.026 1263.23L535.648 1265.72 529.502 1276.35 524.73 1273.85C524.277 1273.6 523.77 1273.47 523.256 1273.47 522.56 1273.47 521.884 1273.7 521.332 1274.13 518.391 1276.74 514.935 1278.71 511.188 1279.9 509.865 1280.29 508.951 1281.5 508.94 1282.88L508.94 1287.75 496.448 1287.75 496.448 1282.75C496.5 1281.34 495.598 1280.07 494.249 1279.65Z" fill="#2AB5E8" fill-rule="evenodd"/><path d="M502.5 1276C490.073 1276 480 1265.93 480 1253.5 480 1241.07 490.073 1231 502.5 1231 514.926 1231 525 1241.07 525 1253.5 524.973 1265.92 514.915 1275.97 502.5 1276ZM502.5 1233.48C491.445 1233.48 482.483 1242.45 482.483 1253.5 482.483 1264.55 491.445 1273.52 502.5 1273.52 513.555 1273.52 522.517 1264.55 522.517 1253.5 522.503 1242.45 513.549 1233.5 502.5 1233.48Z" fill="#2AB5E8" fill-rule="evenodd"/><path d="M500.196 1265C499.558 1265 498.945 1264.74 498.486 1264.29L492.636 1258.6C491.72 1257.56 491.803 1255.97 492.821 1255.04 493.734 1254.2 495.11 1254.17 496.056 1254.97L499.725 1258.55 509.368 1243.27C510.046 1242.06 511.56 1241.64 512.749 1242.33 513.938 1243.02 514.353 1244.56 513.674 1245.77 513.631 1245.85 513.583 1245.92 513.532 1245.99L502.278 1263.84C501.879 1264.47 501.225 1264.89 500.494 1264.98Z" fill="#2AB5E8" fill-rule="evenodd"/></g></svg>