<svg width="95" height="96" xmlns="http://www.w3.org/2000/svg" xmlns:xlink="http://www.w3.org/1999/xlink" xml:space="preserve" overflow="hidden"><defs><clipPath id="clip0"><rect x="1027" y="1480" width="95" height="96"/></clipPath></defs><g clip-path="url(#clip0)" transform="translate(-1027 -1480)"><path d="M1079.4 1497.62C1085.38 1497.62 1090.87 1499.79 1095.17 1503.4L1085.5 1513.25C1084.45 1514.31 1084.45 1516.04 1085.53 1517.1 1086.04 1517.61 1086.73 1517.87 1087.41 1517.87 1088.09 1517.87 1088.81 1517.61 1089.32 1517.1L1098.88 1507.35C1102.1 1511.54 1104.03 1516.8 1104.03 1522.5 1104.03 1522.91 1104 1523.29 1103.99 1523.67L1103.95 1524.07C1103.85 1525.7 1104.66 1527.25 1106.04 1528.02 1109.33 1529.95 1111.25 1533.13 1111.25 1536.76 1111.25 1542.35 1106.77 1546.7 1101.03 1546.7L1097.72 1546.7 1089.34 1537.93C1088.82 1537.38 1088.1 1537.11 1087.4 1537.11 1086.73 1537.11 1086.06 1537.35 1085.54 1537.85 1084.48 1538.89 1084.44 1540.61 1085.46 1541.7L1090.25 1546.7 1059.96 1546.7 1064.92 1541.74C1065.96 1540.68 1065.99 1538.97 1064.95 1537.9 1064.42 1537.37 1063.74 1537.11 1063.05 1537.11 1062.37 1537.11 1061.67 1537.36 1061.14 1537.89L1052.35 1546.7 1050.59 1546.7C1042.83 1546.7 1036.77 1540.74 1036.77 1533.11 1036.77 1525.5 1042.83 1519.54 1050.61 1519.54L1050.62 1519.54 1051.29 1519.58C1051.35 1519.58 1051.41 1519.58 1051.47 1519.58 1053.38 1519.58 1055.1 1518.3 1055.56 1516.4 1055.88 1515.16 1056.31 1513.98 1056.78 1512.84L1061.19 1517.13C1061.71 1517.63 1062.38 1517.87 1063.05 1517.87 1063.76 1517.87 1064.45 1517.6 1064.98 1517.04 1066.01 1515.97 1065.98 1514.27 1064.9 1513.21L1059.52 1507.96C1064.03 1501.63 1071.32 1497.62 1079.4 1497.62ZM1029.7 1480C1029.41 1480 1029.14 1480.09 1028.88 1480.16 1028.82 1480.19 1028.74 1480.19 1028.68 1480.2 1028.61 1480.23 1028.58 1480.28 1028.51 1480.33 1028.26 1480.47 1028.02 1480.6 1027.8 1480.82 1027.8 1480.82 1027.79 1480.82 1027.79 1480.83 1027.71 1480.91 1027.68 1481.04 1027.62 1481.13 1027.47 1481.3 1027.32 1481.48 1027.24 1481.7 1027.16 1481.89 1027.15 1482.11 1027.12 1482.34 1027.09 1482.46 1027.03 1482.55 1027.03 1482.7L1027.03 1499.88C1027.03 1501.38 1028.24 1502.57 1029.7 1502.57 1031.18 1502.57 1032.37 1501.36 1032.37 1499.88L1032.37 1489.08 1050.42 1506.67C1049.65 1508.12 1048.98 1509.63 1048.42 1511.18 1037.03 1512.24 1028.38 1521.49 1028.38 1533.14 1028.38 1543.48 1035.2 1551.9 1044.68 1554.41L1032.36 1566.79 1032.36 1556.11C1032.36 1554.61 1031.14 1553.41 1029.68 1553.41 1028.19 1553.41 1027 1554.63 1027 1556.11L1027 1573.29C1027 1573.33 1027.03 1573.39 1027.05 1573.45 1027.07 1573.74 1027.12 1574.03 1027.23 1574.3 1027.32 1574.56 1027.49 1574.76 1027.65 1574.96 1027.71 1575.04 1027.72 1575.13 1027.8 1575.2 1028.05 1575.44 1028.35 1575.66 1028.68 1575.8 1028.99 1575.93 1029.36 1576 1029.7 1576L1046.68 1576C1048.17 1576 1049.36 1574.78 1049.36 1573.3 1049.36 1571.79 1048.16 1570.61 1046.68 1570.61L1036.21 1570.61 1051.55 1555.21 1098.33 1555.21 1113 1570.61 1102.32 1570.61C1100.82 1570.61 1099.65 1571.82 1099.65 1573.3 1099.65 1574.8 1100.85 1576 1102.32 1576L1119.32 1576C1119.66 1576 1120 1575.91 1120.32 1575.8 1120.51 1575.73 1120.65 1575.6 1120.81 1575.5 1120.92 1575.41 1121.06 1575.37 1121.16 1575.26 1121.16 1575.26 1121.16 1575.23 1121.19 1575.23 1121.4 1575.03 1121.57 1574.76 1121.69 1574.47 1121.71 1574.44 1121.75 1574.39 1121.77 1574.36 1121.81 1574.26 1121.81 1574.15 1121.84 1574.05 1121.88 1573.8 1121.97 1573.58 1121.97 1573.32L1121.97 1573.3 1121.97 1556.11C1121.97 1554.61 1120.76 1553.41 1119.3 1553.41 1117.82 1553.41 1116.63 1554.63 1116.63 1556.11L1116.63 1566.58 1105.32 1554.73C1113.6 1552.86 1119.62 1545.64 1119.62 1536.79 1119.62 1531.02 1116.97 1525.74 1112.4 1522.21 1112.33 1514.29 1109.49 1506.99 1104.84 1501.32L1116.63 1489.3 1116.63 1499.89C1116.63 1501.39 1117.83 1502.59 1119.3 1502.59 1120.79 1502.59 1121.97 1501.38 1121.97 1499.89L1121.97 1482.71C1122 1482.34 1121.91 1481.98 1121.77 1481.66 1121.62 1481.33 1121.44 1481.04 1121.19 1480.8 1121.11 1480.73 1121.04 1480.69 1120.95 1480.63 1120.74 1480.47 1120.55 1480.32 1120.32 1480.2 1120.09 1480.1 1119.83 1480.07 1119.57 1480.03 1119.49 1480.03 1119.41 1480 1119.33 1480L1102.33 1480C1100.85 1480 1099.67 1481.22 1099.67 1482.7 1099.67 1484.19 1100.87 1485.39 1102.33 1485.39L1112.9 1485.39 1101.1 1497.44C1095.28 1492.33 1087.73 1489.2 1079.44 1489.2 1069.01 1489.2 1059.53 1494.13 1053.43 1502.04L1036.35 1485.39 1046.71 1485.39C1048.19 1485.39 1049.38 1484.18 1049.38 1482.7 1049.38 1481.2 1048.17 1480 1046.71 1480Z" fill="#2AB5E8" fill-rule="evenodd"/></g></svg>