<svg width="87" height="87" xmlns="http://www.w3.org/2000/svg" xmlns:xlink="http://www.w3.org/1999/xlink" xml:space="preserve" overflow="hidden"><defs><clipPath id="clip0"><rect x="1317" y="928" width="87" height="87"/></clipPath></defs><g clip-path="url(#clip0)" transform="translate(-1317 -928)"><path d="M1400.57 938.473 1392.6 931.013C1388.71 927.364 1383.3 926.985 1380.34 930.121L1325.73 984.671C1325.35 985.049 1325.07 985.513 1324.91 986.022L1317.16 1010.65C1316.59 1012.39 1317.55 1014.27 1319.31 1014.84 1319.65 1014.95 1320.01 1015 1320.37 1015 1320.73 1015 1321.09 1014.94 1321.43 1014.84L1345.57 1006.73C1346.07 1006.56 1346.53 1006.29 1346.9 1005.92L1402.12 950.665C1403.41 949.294 1404.09 947.46 1403.99 945.583 1403.82 942.86 1402.59 940.31 1400.57 938.473ZM1328.88 1005.24 1326.52 1002.97 1330.43 990.618 1341.47 1000.97ZM1344.97 998.376 1340.68 994.267 1375.45 959.504 1375.45 959.504 1377.51 957.477C1378.35 956.648 1378.35 955.305 1377.51 954.476 1376.68 953.648 1375.33 953.648 1374.5 954.476L1374.5 954.476 1374.5 954.476 1337.55 991.347 1332.9 986.968 1376.89 943.069 1389.04 954.368ZM1391.98 951.314 1379.93 940.014 1385.15 934.77C1386.23 934.663 1387.29 935.076 1388.01 935.878L1395.94 943.339C1396.77 944.005 1397.26 944.989 1397.3 946.042Z" fill="#2AB5E8" fill-rule="evenodd"/></g></svg>