<svg width="98" height="86" xmlns="http://www.w3.org/2000/svg" xmlns:xlink="http://www.w3.org/1999/xlink" xml:space="preserve" overflow="hidden"><g transform="translate(-2169 -929)"><path d="M2217.99 946.241C2219.89 948.905 2221.17 951.992 2221.73 955.351 2220.52 955.199 2219.28 955.101 2217.99 955.101 2216.72 955.101 2215.48 955.199 2214.25 955.351 2214.8 952.025 2216.11 948.905 2217.99 946.241ZM2217.99 962.787C2219.24 962.787 2220.46 962.907 2221.65 963.113 2221.04 966.244 2219.79 969.136 2217.99 971.647 2216.21 969.136 2214.93 966.244 2214.33 963.113 2215.53 962.907 2216.75 962.787 2217.99 962.787ZM2199.44 936.697C2204.27 936.697 2208.77 938.219 2212.44 940.773 2208.8 945.437 2206.52 951.177 2206.21 957.449 2197.31 961.146 2190.57 968.907 2188.36 978.354 2181.46 974.539 2176.78 967.277 2176.78 958.96 2176.78 946.698 2186.94 936.697 2199.44 936.697ZM2236.56 936.697C2249.05 936.697 2259.19 946.698 2259.19 958.96 2259.19 967.277 2254.51 974.539 2247.62 978.354 2245.42 968.907 2238.67 961.124 2229.76 957.449 2229.45 951.177 2227.2 945.448 2223.55 940.773 2227.23 938.219 2231.71 936.697 2236.56 936.697ZM2206.93 965.657C2207.95 969.897 2209.84 973.778 2212.45 977.137 2208.78 979.702 2204.29 981.202 2199.45 981.202 2198.21 981.202 2196.98 981.094 2195.8 980.887 2197.04 974.343 2201.22 968.82 2206.93 965.657ZM2229.05 965.657C2234.77 968.82 2238.96 974.343 2240.23 980.887 2239.03 981.083 2237.81 981.202 2236.56 981.202 2231.73 981.202 2227.23 979.702 2223.55 977.137 2226.16 973.778 2228.05 969.897 2229.05 965.657ZM2217.97 982.626C2223.12 986.529 2229.54 988.888 2236.55 988.888 2237.82 988.888 2239.06 988.79 2240.29 988.649L2240.29 988.649C2238.55 999.205 2229.25 1007.29 2217.99 1007.29 2206.75 1007.29 2197.42 999.205 2195.68 988.649L2195.68 988.649C2196.91 988.79 2198.15 988.888 2199.4 988.888 2206.39 988.888 2212.84 986.529 2217.97 982.626ZM2199.44 929C2182.64 929 2169 942.448 2169 958.96 2169 971.364 2176.7 982.018 2187.65 986.562 2188.44 1002.36 2201.74 1014.99 2217.99 1014.99 2234.24 1014.99 2247.51 1002.36 2248.32 986.562 2259.27 982.018 2267 971.342 2267 958.96 2267 942.448 2253.36 929 2236.56 929 2229.58 929 2223.13 931.37 2217.99 935.284 2212.85 931.37 2206.41 929 2199.44 929Z" fill="#2AB5E8" fill-rule="evenodd"/></g></svg>