<svg width="39" height="105" xmlns="http://www.w3.org/2000/svg" xmlns:xlink="http://www.w3.org/1999/xlink" xml:space="preserve" overflow="hidden"><g transform="translate(-483 -1475)"><path d="M502.441 1475C501.472 1475 500.49 1475.29 499.666 1475.84L487.477 1484.09C485.435 1485.5 484.99 1488.14 486.522 1490.01 487.425 1491.11 488.839 1491.71 490.24 1491.71 491.208 1491.71 492.19 1491.43 493.015 1490.87L497.82 1487.62 497.82 1515.28C488.564 1516.45 483.013 1521.42 483.013 1528.84L483.013 1575.75C483.013 1578.1 485.095 1579.99 487.634 1579.99 490.227 1579.99 492.282 1578.08 492.282 1575.75L492.282 1528.84C492.282 1524.38 497.728 1523.43 502.297 1523.43 502.376 1523.43 502.415 1523.39 502.494 1523.39 502.572 1523.4 502.611 1523.43 502.677 1523.43 507.246 1523.43 512.692 1524.38 512.692 1528.84L512.692 1575.75C512.692 1578.1 514.8 1579.99 517.34 1579.99 519.906 1579.99 521.987 1578.08 521.987 1575.75L521.987 1528.84C521.987 1521.41 516.384 1516.45 507.076 1515.28L507.076 1487.62 511.88 1490.87C512.718 1491.43 513.687 1491.7 514.656 1491.7 516.057 1491.7 517.457 1491.12 518.348 1490.01 519.892 1488.14 519.46 1485.5 517.418 1484.09L505.217 1475.84C504.379 1475.29 503.41 1475 502.441 1475Z" fill="#2AB5E8" fill-rule="evenodd"/></g></svg>