<svg width="96" height="73" xmlns="http://www.w3.org/2000/svg" xmlns:xlink="http://www.w3.org/1999/xlink" xml:space="preserve" overflow="hidden"><g transform="translate(-1884 -1215)"><path d="M1899.37 1230.61C1898.79 1230.61 1898.19 1230.82 1897.71 1231.25 1896.72 1232.16 1896.65 1233.71 1897.55 1234.72L1915.02 1253.83 1899.14 1268.05C1898.1 1268.95 1898.02 1270.51 1898.92 1271.52 1899.41 1272.07 1900.08 1272.34 1900.76 1272.34 1901.34 1272.34 1901.94 1272.15 1902.39 1271.71L1918.32 1257.48 1921.38 1260.81C1924.2 1263.87 1927.99 1265.57 1932.03 1265.57 1936.09 1265.57 1939.88 1263.91 1942.7 1260.81L1945.59 1257.65 1961.33 1271.75C1961.79 1272.17 1962.37 1272.38 1962.95 1272.38 1963.64 1272.38 1964.3 1272.08 1964.79 1271.54 1965.69 1270.54 1965.59 1268.99 1964.58 1268.06L1948.9 1254.02 1966.48 1234.77C1967.38 1233.78 1967.32 1232.22 1966.32 1231.31 1965.84 1230.87 1965.24 1230.67 1964.65 1230.67 1963.99 1230.67 1963.33 1230.93 1962.86 1231.45L1939.07 1257.49C1937.19 1259.53 1934.61 1260.55 1932.05 1260.55 1929.47 1260.55 1926.89 1259.53 1925.01 1257.49L1901.18 1231.42C1900.7 1230.89 1900.05 1230.61 1899.37 1230.61ZM1968.48 1222.68C1970.58 1222.68 1972.31 1224.4 1972.31 1226.53L1972.31 1276.49C1972.31 1278.6 1970.58 1280.32 1968.48 1280.32L1895.52 1280.32C1893.42 1280.32 1891.67 1278.62 1891.67 1276.49L1891.67 1226.53C1891.67 1224.43 1893.42 1222.68 1895.52 1222.68ZM1895.52 1215C1889.18 1215 1884 1220.18 1884 1226.53L1884 1276.49C1884 1282.82 1889.18 1288 1895.52 1288L1968.48 1288C1974.8 1288 1979.98 1282.82 1979.98 1276.49L1979.98 1226.53C1980 1220.18 1974.84 1215 1968.48 1215Z" fill="#2AB5E8" fill-rule="evenodd"/></g></svg>