<svg width="99" height="99" xmlns="http://www.w3.org/2000/svg" xmlns:xlink="http://www.w3.org/1999/xlink" xml:space="preserve" overflow="hidden"><g transform="translate(-1311 -1478)"><path d="M1338.85 1527.45C1338.43 1527.45 1338.1 1527.81 1338.1 1528.23L1338.1 1549.11C1338.1 1549.53 1338.43 1549.88 1338.85 1549.88L1348.31 1549.88C1348.73 1549.88 1349.07 1549.53 1349.07 1549.11L1349.07 1528.23C1349.07 1527.81 1348.73 1527.45 1348.31 1527.45ZM1355.33 1517.44C1354.92 1517.44 1354.56 1517.77 1354.56 1518.19L1354.56 1549.11C1354.56 1549.53 1354.92 1549.88 1355.33 1549.88L1364.78 1549.88C1365.19 1549.88 1365.55 1549.53 1365.55 1549.11L1365.55 1518.19C1365.55 1517.77 1365.19 1517.44 1364.78 1517.44ZM1371.8 1504.8C1371.38 1504.8 1371.04 1505.15 1371.04 1505.58L1371.04 1549.11C1371.04 1549.53 1371.38 1549.88 1371.8 1549.88L1381.26 1549.88C1381.68 1549.88 1382.01 1549.53 1382.01 1549.11L1382.01 1505.58C1382.01 1505.15 1381.67 1504.8 1381.26 1504.8ZM1364.6 1484.15 1364.6 1491.47C1364.6 1492.95 1365.63 1494.19 1367.08 1494.49 1371.31 1495.35 1375.32 1496.98 1378.95 1499.37 1379.47 1499.72 1380.06 1499.88 1380.65 1499.88 1381.44 1499.88 1382.23 1499.57 1382.83 1498.97L1387.18 1494.62 1393.2 1500.63 1388.88 1504.95C1387.87 1505.98 1387.71 1507.61 1388.51 1508.83 1390.93 1512.46 1392.59 1516.45 1393.47 1520.69 1393.78 1522.12 1395.04 1523.16 1396.49 1523.16L1403.86 1523.16 1403.86 1531.67 1396.52 1531.67C1395.06 1531.67 1393.8 1532.69 1393.51 1534.15 1392.66 1538.4 1391.03 1542.39 1388.62 1546.03 1387.82 1547.24 1387.98 1548.87 1389.02 1549.9L1393.38 1554.25 1387.35 1560.27 1383.06 1555.95C1382.46 1555.37 1381.67 1555.05 1380.87 1555.05 1380.28 1555.05 1379.68 1555.23 1379.15 1555.57 1375.52 1557.98 1371.54 1559.66 1367.29 1560.54 1365.86 1560.86 1364.85 1562.09 1364.85 1563.55L1364.85 1570.92 1356.32 1570.92 1356.32 1563.59C1356.32 1562.13 1355.29 1560.87 1353.83 1560.56 1349.58 1559.73 1345.58 1558.07 1341.96 1555.69 1341.45 1555.36 1340.86 1555.18 1340.28 1555.18 1339.49 1555.18 1338.69 1555.5 1338.1 1556.1L1333.75 1560.44 1327.71 1554.42 1332.02 1550.13C1333.05 1549.1 1333.21 1547.47 1332.4 1546.22 1329.99 1542.6 1328.33 1538.62 1327.43 1534.36 1327.14 1532.93 1325.88 1531.92 1324.42 1531.92L1317.07 1531.92 1317.07 1523.39 1324.39 1523.39C1325.86 1523.39 1327.11 1522.36 1327.41 1520.91 1328.27 1516.66 1329.89 1512.66 1332.29 1509.04 1333.09 1507.84 1332.93 1506.19 1331.89 1505.18L1327.54 1500.83 1333.56 1494.79 1337.87 1499.1C1338.45 1499.69 1339.25 1499.99 1340.04 1499.99 1340.64 1499.99 1341.23 1499.83 1341.75 1499.48 1345.38 1497.07 1349.37 1495.39 1353.63 1494.51 1355.05 1494.22 1356.08 1492.96 1356.08 1491.51L1356.08 1484.15ZM1353.03 1478.01C1351.34 1478.01 1349.97 1479.38 1349.97 1481.07L1349.97 1489.1C1346.67 1490 1343.52 1491.3 1340.54 1493.04L1335.79 1488.29C1335.19 1487.69 1334.4 1487.38 1333.61 1487.38 1332.82 1487.38 1332.04 1487.69 1331.43 1488.29L1321.09 1498.64C1319.89 1499.84 1319.89 1501.77 1321.09 1502.99L1325.91 1507.8C1324.18 1510.78 1322.89 1513.93 1322.01 1517.24L1314.06 1517.24C1312.38 1517.24 1311 1518.61 1311 1520.3L1311 1534.96C1311 1536.65 1312.38 1538.02 1314.06 1538.02L1322.08 1538.02C1322.98 1541.33 1324.29 1544.5 1326.02 1547.45L1321.27 1552.2C1320.69 1552.8 1320.37 1553.55 1320.37 1554.38 1320.37 1555.21 1320.69 1555.97 1321.27 1556.55L1331.63 1566.91C1332.24 1567.52 1333.02 1567.81 1333.81 1567.81 1334.59 1567.81 1335.37 1567.52 1335.98 1566.91L1340.79 1562.09C1343.76 1563.8 1346.94 1565.09 1350.24 1565.98L1350.24 1573.93C1350.24 1575.62 1351.61 1576.99 1353.3 1576.99L1367.97 1576.99C1369.66 1576.99 1371.03 1575.62 1371.03 1573.93L1371.03 1565.92C1374.33 1565.01 1377.48 1563.7 1380.45 1561.98L1385.2 1566.74C1385.79 1567.31 1386.55 1567.64 1387.39 1567.64 1388.21 1567.64 1388.96 1567.31 1389.56 1566.74L1399.91 1556.35C1401.11 1555.15 1401.11 1553.22 1399.91 1552L1395.09 1547.19C1396.82 1544.21 1398.1 1541.06 1398.99 1537.75L1406.93 1537.75C1408.62 1537.75 1409.99 1536.38 1409.99 1534.69L1409.99 1520.03C1409.99 1518.38 1408.62 1517.01 1406.93 1517.01L1398.92 1517.01C1398.02 1513.72 1396.7 1510.54 1394.97 1507.59L1399.72 1502.83C1400.31 1502.24 1400.64 1501.49 1400.64 1500.66 1400.64 1499.86 1400.31 1499.07 1399.72 1498.48L1389.37 1488.11C1388.8 1487.54 1388 1487.25 1387.2 1487.25 1386.41 1487.25 1385.61 1487.54 1385.02 1488.11L1380.21 1492.92C1377.23 1491.2 1374.06 1489.91 1370.76 1489.03L1370.76 1481.07C1370.76 1479.38 1369.38 1478.01 1367.69 1478.01Z" fill="#2AB5E8" fill-rule="evenodd"/></g></svg>