<svg width="86" height="82" xmlns="http://www.w3.org/2000/svg" xmlns:xlink="http://www.w3.org/1999/xlink" xml:space="preserve" overflow="hidden"><defs><clipPath id="clip0"><rect x="2175" y="651" width="86" height="82"/></clipPath></defs><g clip-path="url(#clip0)" transform="translate(-2175 -651)"><path d="M2258.26 684.119 2257.25 684.119 2257.25 675.884C2257.18 674.474 2256.06 673.345 2254.65 673.276L2239.29 673.276C2237.83 673.275 2236.63 674.422 2236.56 675.884L2236.56 684.119 2235.79 684.119C2234.28 684.119 2233.05 685.348 2233.05 686.864L2233.05 695.895 2212.85 695.895 2212.85 682.939C2212.85 681.423 2211.63 680.194 2210.12 680.194L2209.19 680.194 2209.19 663.724C2209.19 662.208 2207.96 660.98 2206.45 660.98L2196.08 660.98 2196.08 652.58C2195.78 651.451 2194.63 650.774 2193.5 651.069 2192.77 651.262 2192.19 651.84 2192 652.58L2192 661.199 2181.3 661.199C2179.78 661.199 2178.56 662.428 2178.56 663.944L2178.56 680.413 2177.74 680.413C2176.23 680.413 2175 681.642 2175 683.158L2175 730.234C2175 731.75 2176.23 732.978 2177.74 732.978L2210.23 732.978C2210.4 733.007 2210.57 733.007 2210.75 732.978L2258.26 732.978C2259.72 732.981 2260.93 731.833 2261 730.371L2261 686.727C2260.93 685.264 2259.72 684.117 2258.26 684.119ZM2183.79 666.442 2203.96 666.442 2203.96 680.304 2183.79 680.304ZM2207.52 727.599 2180.15 727.599 2180.15 685.546 2207.52 685.546ZM2232.92 727.599 2212.88 727.599 2212.88 701 2233.05 701ZM2241.79 678.629 2251.91 678.629 2251.91 684.119 2241.79 684.119ZM2255.47 727.599 2238.25 727.599 2238.25 689.362 2255.66 689.362Z" fill="#2AB5E8" fill-rule="evenodd"/><path d="M2200.88 691 2187.12 691C2185.96 691 2185.01 691.885 2185 692.987 2185.01 694.093 2185.95 694.986 2187.12 695L2200.88 695C2202.05 694.986 2202.99 694.093 2203 692.987 2202.99 691.885 2202.04 691 2200.88 691Z" fill="#2AB5E8" fill-rule="evenodd"/><path d="M2198.07 671.013 2189.42 671.013C2188.23 670.888 2187.15 671.675 2187.01 672.773 2186.88 673.87 2187.73 674.862 2188.93 674.987 2189.09 675.005 2189.26 675.005 2189.42 674.987L2198.07 674.987C2199.27 674.862 2200.12 673.87 2199.99 672.773 2199.87 671.848 2199.08 671.119 2198.07 671.013Z" fill="#2AB5E8" fill-rule="evenodd"/><path d="M2200.9 699 2187.1 699C2185.94 699 2185 699.895 2185 701 2185 702.104 2185.94 703 2187.1 703L2200.9 703C2202.06 703 2203 702.104 2203 701 2203 699.895 2202.06 699 2200.9 699Z" fill="#2AB5E8" fill-rule="evenodd"/><path d="M2200.9 707 2187.1 707C2185.94 707 2185 707.896 2185 709 2185 710.104 2185.94 711 2187.1 711L2200.9 711C2202.06 711 2203 710.104 2203 709 2203 707.896 2202.06 707 2200.9 707Z" fill="#2AB5E8" fill-rule="evenodd"/><path d="M2200.9 715 2187.1 715C2185.94 715 2185 715.896 2185 717 2185 718.105 2185.94 719 2187.1 719L2200.9 719C2202.06 719 2203 718.105 2203 717 2203 715.896 2202.06 715 2200.9 715Z" fill="#2AB5E8" fill-rule="evenodd"/><path d="M2243.18 703 2250.82 703C2252.02 703 2253 702.104 2253 701 2253 699.895 2252.02 699 2250.82 699L2243.18 699C2241.98 699 2241 699.895 2241 701 2241 702.104 2241.98 703 2243.18 703Z" fill="#2AB5E8" fill-rule="evenodd"/><path d="M2243.18 711 2250.82 711C2252.02 711 2253 710.104 2253 709 2253 707.896 2252.02 707 2250.82 707L2243.18 707C2241.98 707 2241 707.896 2241 709 2241 710.104 2241.98 711 2243.18 711Z" fill="#2AB5E8" fill-rule="evenodd"/><path d="M2243.18 719 2250.82 719C2252.02 719 2253 718.105 2253 717 2253 715.896 2252.02 715 2250.82 715L2243.18 715C2241.98 715 2241 715.896 2241 717 2241 718.105 2241.98 719 2243.18 719Z" fill="#2AB5E8" fill-rule="evenodd"/><path d="M2219.21 711 2226.79 711C2228.01 711 2229 710.104 2229 709 2229 707.896 2228.01 707 2226.79 707L2219.21 707C2217.99 707 2217 707.896 2217 709 2217 710.104 2217.99 711 2219.21 711Z" fill="#2AB5E8" fill-rule="evenodd"/><path d="M2219.21 719 2226.79 719C2228.01 719 2229 718.105 2229 717 2229 715.896 2228.01 715 2226.79 715L2219.21 715C2217.99 715 2217 715.896 2217 717 2217 718.105 2217.99 719 2219.21 719Z" fill="#2AB5E8" fill-rule="evenodd"/></g></svg>