<svg width="113" height="128" xmlns="http://www.w3.org/2000/svg" xmlns:xlink="http://www.w3.org/1999/xlink" xml:space="preserve" overflow="hidden"><g transform="translate(-732 -908)"><path d="M788.529 915.665C791.882 915.665 794.608 918.473 794.608 921.876L794.608 925.614C794.608 929.076 791.882 931.854 788.529 931.854 785.176 931.854 782.45 929.047 782.45 925.614L782.45 921.876C782.45 918.429 785.176 915.665 788.529 915.665ZM788.529 908.014C780.949 908.014 774.783 914.254 774.783 921.876L774.783 925.614C774.783 933.28 780.949 939.476 788.529 939.476 796.109 939.476 802.275 933.265 802.275 925.614L802.275 921.876C802.275 914.254 796.109 908.014 788.529 908.014ZM779.623 940.654C769.914 940.654 763.151 946.982 763.151 955.985L763.151 966.225 770.847 966.225 770.847 955.985C770.847 950.153 775.337 948.727 778.121 948.407L785.818 956.291C786.532 957.033 787.552 957.454 788.558 957.454 788.587 957.454 788.616 957.454 788.631 957.454 789.695 957.411 790.686 956.96 791.386 956.174L798.456 948.407C802.362 948.858 806.269 951.011 806.269 955.985L806.269 966.225 813.937 966.225 813.937 955.985C813.937 947.113 806.736 940.654 796.838 940.654 795.759 940.654 794.71 941.105 793.995 941.92L788.442 948.058 782.363 941.818C781.649 941.062 780.643 940.654 779.623 940.654ZM772.378 984.495C771.008 984.495 769.914 985.6 769.914 986.953L769.914 1023.24C769.914 1024.58 771.008 1025.7 772.378 1025.7 773.719 1025.7 774.841 1024.58 774.841 1023.24L774.841 989.382 802.246 989.382 802.246 1023.24C802.246 1024.58 803.354 1025.7 804.724 1025.7 806.065 1025.7 807.158 1024.58 807.158 1023.24L807.158 986.953C807.144 985.6 806.036 984.495 804.68 984.495ZM812.333 927.927C809.636 927.927 807.406 930.138 807.406 932.829 807.406 935.534 809.607 937.716 812.333 937.716 813.091 937.716 813.791 937.513 814.418 937.222L823.207 943.011 823.207 970.109 735.834 970.109C733.734 970.109 732.014 971.811 732.014 973.934L732.014 983.695C732.014 985.062 732.772 986.356 733.982 987.025L754.2 998.298 754.2 1032.15C754.2 1034.25 755.906 1035.99 758.034 1035.99 760.177 1035.99 761.882 1034.28 761.882 1032.15L761.882 986.007C761.882 983.913 760.177 982.182 758.034 982.182 755.906 982.182 754.2 983.869 754.2 986.007L754.2 989.527 739.667 981.425 739.667 977.76 837.289 977.76 837.289 981.425 822.741 989.527 822.741 986.007C822.741 983.913 821.065 982.182 818.922 982.182 816.779 982.182 815.059 983.869 815.059 986.007L815.059 1032.15C815.059 1034.25 816.779 1035.99 818.922 1035.99 821.065 1035.99 822.741 1034.28 822.741 1032.15L822.741 998.298 842.988 986.996C844.227 986.327 844.985 985.062 844.985 983.651L844.985 973.905C845 971.84 843.294 970.138 841.195 970.138L828.164 970.138 828.164 941.702C828.164 940.873 827.741 940.116 827.056 939.651L817.231 933.193C817.231 933.062 817.245 932.945 817.245 932.829 817.245 930.138 815.059 927.927 812.333 927.927Z" fill="#2AB5E8" fill-rule="evenodd"/></g></svg>