<svg width="75" height="75" xmlns="http://www.w3.org/2000/svg" xmlns:xlink="http://www.w3.org/1999/xlink" xml:space="preserve" overflow="hidden"><g transform="translate(-1037 -1214)"><path d="M1040.18 1214.04C1039.87 1214.04 1039.56 1214.11 1039.26 1214.21 1039.16 1214.24 1039.07 1214.24 1038.96 1214.27 1038.87 1214.32 1038.81 1214.4 1038.73 1214.43 1038.43 1214.58 1038.15 1214.74 1037.93 1214.99 1037.92 1214.99 1037.92 1215 1037.9 1215 1037.81 1215.1 1037.75 1215.24 1037.67 1215.35 1037.52 1215.58 1037.34 1215.78 1037.25 1216.02 1037.15 1216.27 1037.13 1216.53 1037.09 1216.79 1037.07 1216.93 1037.01 1217.04 1037.01 1217.2L1037.01 1230.2C1037.02 1232 1038.46 1233.42 1040.22 1233.42 1041.98 1233.42 1043.44 1232 1043.44 1230.23L1043.44 1224.74 1060.99 1241.59C1061.61 1242.19 1062.4 1242.48 1063.21 1242.48 1064.04 1242.48 1064.89 1242.14 1065.52 1241.48 1066.74 1240.2 1066.71 1238.17 1065.43 1236.96L1048.19 1220.44 1053.23 1220.44C1055.01 1220.44 1056.45 1219.01 1056.45 1217.23 1056.45 1215.46 1055.01 1214.04 1053.23 1214.04ZM1095.78 1214.01C1094.02 1214.01 1092.56 1215.44 1092.56 1217.21 1092.56 1218.99 1094 1220.43 1095.78 1220.43L1101.1 1220.43 1084.68 1237.02C1083.44 1238.27 1083.46 1240.31 1084.7 1241.54 1085.33 1242.16 1086.15 1242.48 1086.96 1242.48 1087.78 1242.48 1088.6 1242.15 1089.23 1241.53L1105.59 1225.02 1105.59 1230.24C1105.59 1232 1107.01 1233.45 1108.8 1233.45 1110.58 1233.45 1112 1232.01 1112 1230.24L1112 1217.21C1112 1216.8 1111.92 1216.38 1111.76 1215.99 1111.58 1215.6 1111.36 1215.26 1111.06 1214.94 1111.02 1214.91 1110.95 1214.88 1110.89 1214.84 1110.63 1214.61 1110.34 1214.4 1110.03 1214.26 1109.72 1214.13 1109.37 1214.1 1109.04 1214.05 1108.96 1214.05 1108.88 1214.01 1108.8 1214.01ZM1086.96 1259.84C1086.16 1259.84 1085.36 1260.13 1084.76 1260.71 1083.47 1261.95 1083.44 1263.96 1084.66 1265.24L1101.29 1282.56 1095.8 1282.56C1094.03 1282.56 1092.59 1283.99 1092.59 1285.77 1092.59 1287.55 1094.02 1288.98 1095.8 1288.98L1108.83 1288.98C1109.23 1288.98 1109.64 1288.9 1110.03 1288.74 1110.23 1288.66 1110.42 1288.49 1110.61 1288.36 1110.75 1288.25 1110.9 1288.19 1111.03 1288.09L1111.05 1288.07C1111.3 1287.83 1111.49 1287.52 1111.64 1287.23 1111.66 1287.16 1111.73 1287.11 1111.76 1287.04 1111.8 1286.92 1111.8 1286.77 1111.84 1286.64 1111.92 1286.37 1112 1286.1 1112 1285.82L1112 1285.78 1112 1272.78C1112 1271.02 1110.58 1269.57 1108.81 1269.57 1107.06 1269.57 1105.6 1271 1105.6 1272.78L1105.6 1277.82 1089.27 1260.82C1088.64 1260.16 1087.8 1259.84 1086.96 1259.84ZM1063.2 1259.83C1062.39 1259.83 1061.58 1260.14 1060.96 1260.77L1043.45 1278.1 1043.45 1272.8C1043.45 1271.02 1042.01 1269.58 1040.23 1269.58 1038.45 1269.58 1037.02 1271.03 1037.02 1272.8L1037.02 1285.8C1037.02 1285.89 1037.07 1285.95 1037.07 1286.03 1037.1 1286.37 1037.15 1286.69 1037.28 1287.02 1037.42 1287.33 1037.62 1287.6 1037.83 1287.85 1037.88 1287.91 1037.9 1288 1037.96 1288.05 1038.28 1288.33 1038.62 1288.57 1039.01 1288.74 1039.4 1288.91 1039.82 1288.99 1040.23 1288.99L1053.26 1288.99C1055.03 1288.99 1056.45 1287.57 1056.45 1285.78 1056.45 1284 1055.01 1282.58 1053.26 1282.58L1048.02 1282.58 1065.46 1265.31C1066.71 1264.05 1066.72 1262.03 1065.47 1260.77 1064.84 1260.14 1064.03 1259.83 1063.2 1259.83Z" fill="#2AB5E8" fill-rule="evenodd"/></g></svg>