<svg width="94" height="64" xmlns="http://www.w3.org/2000/svg" xmlns:xlink="http://www.w3.org/1999/xlink" xml:space="preserve" overflow="hidden"><g transform="translate(-1885 -1496)"><path d="M1965.77 1496.01C1964.44 1496.01 1963.33 1497.13 1963.33 1498.48 1963.33 1499.85 1964.44 1500.97 1965.77 1500.97L1974.07 1500.97 1974.07 1509.37C1974.07 1510.74 1975.19 1511.85 1976.54 1511.85 1977.89 1511.85 1978.99 1510.74 1978.99 1509.37L1978.99 1498.48C1978.99 1497.13 1977.89 1496.01 1976.54 1496.01ZM1887.45 1496.01C1886.1 1496.01 1885 1497.13 1885 1498.5L1885 1509.37C1885 1510.74 1886.1 1511.86 1887.45 1511.86 1888.81 1511.86 1889.92 1510.74 1889.92 1509.37L1889.92 1500.97 1898.21 1500.97C1899.55 1500.97 1900.67 1499.85 1900.67 1498.5 1900.67 1497.13 1899.55 1496.01 1898.21 1496.01ZM1933.13 1523.15C1935.77 1523.15 1937.93 1525.33 1937.93 1528.01 1937.93 1530.68 1935.79 1532.85 1933.13 1532.85 1930.49 1532.85 1928.35 1530.68 1928.35 1528.01 1928.35 1525.33 1930.49 1523.15 1933.13 1523.15ZM1933.13 1515.38C1926.25 1515.38 1920.64 1521.03 1920.64 1528.01 1920.64 1534.97 1926.25 1540.64 1933.13 1540.64 1940.02 1540.64 1945.62 1534.97 1945.62 1528.01 1945.62 1521.03 1940.02 1515.38 1933.13 1515.38ZM1932.74 1512.7C1947.48 1512.7 1960.81 1518.44 1968.39 1527.85 1960.85 1537.48 1947.38 1543.3 1932.5 1543.3 1932.03 1543.3 1931.54 1543.29 1931.05 1543.28 1916.59 1542.94 1904.29 1537.28 1897.65 1528.01 1904.29 1518.74 1916.62 1513.09 1931.17 1512.72 1931.69 1512.71 1932.22 1512.7 1932.74 1512.7ZM1932.58 1504.93C1932.05 1504.93 1931.51 1504.94 1930.97 1504.95 1912.91 1505.37 1897.58 1513.13 1889.92 1525.72 1889.54 1526.32 1889.35 1527.03 1889.35 1527.75L1889.35 1528.22C1889.35 1528.94 1889.55 1529.66 1889.92 1530.26 1897.58 1542.84 1912.88 1550.6 1930.87 1551.02 1931.38 1551.03 1931.9 1551.03 1932.41 1551.03 1932.45 1551.03 1932.48 1551.03 1932.53 1551.03 1950.84 1551.03 1967.41 1543.22 1976.04 1530.44 1976.14 1530.29 1976.23 1530.13 1976.3 1529.96L1976.54 1529.48C1977.17 1528.21 1977.04 1526.73 1976.29 1525.56 1967.64 1512.77 1950.94 1504.93 1932.58 1504.93ZM1887.45 1544.16C1886.1 1544.16 1885 1545.28 1885 1546.66L1885 1557.52C1885 1558.89 1886.1 1560 1887.45 1560L1898.22 1560C1899.55 1560 1900.67 1558.89 1900.67 1557.52 1900.67 1556.14 1899.55 1555.04 1898.21 1555.04L1889.92 1555.04 1889.92 1546.66C1889.92 1545.28 1888.81 1544.16 1887.45 1544.16ZM1976.54 1544.16C1975.19 1544.16 1974.07 1545.28 1974.07 1546.66L1974.07 1555.04 1965.77 1555.04C1964.44 1555.04 1963.33 1556.15 1963.33 1557.52 1963.33 1558.89 1964.44 1560 1965.77 1560L1976.54 1560C1977.89 1560 1978.99 1558.89 1978.99 1557.52L1978.99 1546.66C1978.99 1545.27 1977.89 1544.16 1976.54 1544.16Z" fill="#2AB5E8" fill-rule="evenodd"/></g></svg>