<svg width="77" height="55" xmlns="http://www.w3.org/2000/svg" xmlns:xlink="http://www.w3.org/1999/xlink" xml:space="preserve" overflow="hidden"><defs><clipPath id="clip0"><rect x="1036" y="664" width="77" height="55"/></clipPath></defs><g clip-path="url(#clip0)" transform="translate(-1036 -664)"><path d="M1050.76 669.875C1049.67 674.304 1046.21 677.793 1041.83 678.896L1041.83 669.875ZM1107.18 669.875 1107.18 678.896C1102.81 677.793 1099.36 674.304 1098.27 669.875ZM1055.2 682.556C1053.63 682.556 1052.35 683.831 1052.35 685.431 1052.35 687.021 1053.63 688.314 1055.2 688.314 1056.76 688.314 1058.04 687.012 1058.04 685.431 1058.04 683.858 1056.77 682.556 1055.2 682.556ZM1093.62 682.556C1092.07 682.556 1090.79 683.831 1090.79 685.431 1090.79 687.021 1092.07 688.314 1093.62 688.314 1095.19 688.314 1096.46 687.012 1096.46 685.431 1096.46 683.858 1095.19 682.556 1093.62 682.556ZM1074.53 675.606C1080 675.606 1084.44 680.098 1084.44 685.63 1084.44 691.17 1080 695.653 1074.51 695.653 1069.04 695.653 1064.58 691.17 1064.58 685.63 1064.58 680.098 1069.04 675.606 1074.53 675.606ZM1074.51 671.855C1066.99 671.855 1060.86 678.046 1060.86 685.639 1060.86 693.249 1066.99 699.441 1074.53 699.441 1082.06 699.441 1088.17 693.249 1088.17 685.639 1088.17 678.046 1082.06 671.855 1074.51 671.855ZM1041.83 692.39C1046.21 693.484 1049.67 696.973 1050.74 701.402L1041.83 701.402 1041.83 692.39ZM1094.47 669.875C1095.67 676.383 1100.74 681.526 1107.18 682.728L1107.18 688.558C1100.74 689.76 1095.67 694.894 1094.47 701.402L1054.56 701.402C1053.36 694.894 1048.27 689.76 1041.83 688.558L1041.83 682.728C1048.27 681.526 1053.36 676.383 1054.56 669.875ZM1107.18 692.39 1107.18 701.402 1098.27 701.402C1099.36 696.973 1102.81 693.484 1107.18 692.39ZM1038.91 664.009C1037.31 664.009 1036 665.311 1036 666.947L1036 704.349C1036 705.975 1037.31 707.295 1038.91 707.295L1110.09 707.295C1111.69 707.295 1113 705.975 1113 704.349L1113 666.947C1113 665.311 1111.71 664.009 1110.09 664.009ZM1042.16 709.989C1041.14 709.989 1040.3 710.838 1040.3 711.869 1040.3 712.917 1041.14 713.749 1042.16 713.749L1106.84 713.749C1107.88 713.749 1108.7 712.917 1108.7 711.869 1108.7 710.838 1107.88 709.989 1106.84 709.989ZM1047.53 716.65C1046.87 716.65 1046.37 717.174 1046.37 717.825 1046.37 718.485 1046.87 719 1047.53 719L1101.5 719C1102.15 719 1102.65 718.485 1102.65 717.825 1102.65 717.174 1102.15 716.65 1101.5 716.65Z" fill="#2AB5E8" fill-rule="evenodd"/></g></svg>