<svg width="89" height="106" xmlns="http://www.w3.org/2000/svg" xmlns:xlink="http://www.w3.org/1999/xlink" xml:space="preserve" overflow="hidden"><g transform="translate(-172 -919)"><path d="M189.257 929.638 246.082 935.352 231.659 947.604C230.694 948.416 230.163 949.576 230.163 950.819 230.163 952.062 230.73 953.234 231.659 954.046L246.082 966.31 189.257 972.06 189.257 929.638ZM184.952 920.757C183.903 920.757 182.902 921.151 182.13 921.845 181.238 922.646 180.719 923.781 180.719 924.976L180.719 976.698C180.719 979.016 182.673 980.917 184.964 980.917 185.072 980.917 185.193 980.905 185.302 980.905 185.422 980.941 185.531 980.941 185.639 980.941 185.796 980.941 185.929 980.941 186.086 980.905L256.839 973.709C258.528 973.53 259.963 972.382 260.481 970.769 261 969.167 260.481 967.398 259.167 966.334L240.969 950.867 259.167 935.388C260.481 934.288 261 932.531 260.481 930.917 259.963 929.303 258.528 928.144 256.827 927.977L185.422 920.781C185.265 920.769 185.109 920.757 184.952 920.757ZM174.737 919.012C173.242 919.012 172.012 920.231 172.012 921.701L172.012 1022.3C172.012 1023.77 173.242 1024.99 174.737 1024.99 176.233 1024.99 177.475 1023.77 177.475 1022.3L177.475 921.701C177.475 920.195 176.233 919.012 174.737 919.012Z" fill="#2AB5E8" fill-rule="evenodd"/></g></svg>