<svg width="100" height="89" xmlns="http://www.w3.org/2000/svg" xmlns:xlink="http://www.w3.org/1999/xlink" xml:space="preserve" overflow="hidden"><defs><clipPath id="clip0"><rect x="2168" y="926" width="100" height="89"/></clipPath></defs><g clip-path="url(#clip0)" transform="translate(-2168 -926)"><path d="M2202.75 926.011C2192.26 926.011 2183.72 934.471 2183.72 944.897L2183.72 965.998 2174.73 959.374C2174.03 958.852 2173.2 958.603 2172.39 958.603 2171.22 958.603 2170.05 959.146 2169.3 960.167 2168.01 961.872 2168.37 964.272 2170.08 965.531L2185.33 976.794C2186.03 977.293 2186.84 977.554 2187.66 977.554 2188.47 977.554 2189.29 977.293 2189.97 976.794L2205.22 965.531C2206.96 964.272 2207.31 961.861 2206.01 960.167 2205.26 959.146 2204.08 958.603 2202.9 958.603 2202.08 958.603 2201.27 958.852 2200.57 959.374L2191.48 966.085 2191.48 944.875C2191.48 938.685 2196.53 933.667 2202.74 933.667 2208.96 933.667 2214.01 938.652 2214.01 944.767L2214.01 967.313 2214.01 973.307 2214.01 996.092C2214.01 1006.53 2222.55 1015 2233.05 1015 2243.54 1015 2252.08 1006.58 2252.08 996.223L2252.08 973.742 2261.28 980.497C2261.99 981.018 2262.77 981.257 2263.6 981.257 2264.78 981.257 2265.96 980.725 2266.73 979.715 2268 978.021 2267.65 975.599 2265.94 974.361L2250.66 963.099C2249.97 962.599 2249.16 962.349 2248.33 962.349 2247.52 962.349 2246.71 962.599 2246.02 963.099L2230.72 974.361C2229.01 975.61 2228.65 978.021 2229.92 979.726 2230.69 980.736 2231.86 981.279 2233.06 981.279 2233.86 981.279 2234.67 981.029 2235.37 980.519L2244.34 973.905 2244.34 996.244C2244.34 1002.35 2239.29 1007.33 2233.07 1007.33 2226.86 1007.33 2221.8 1002.3 2221.8 996.125L2221.8 973.329 2221.8 967.345 2221.8 944.777C2221.8 934.438 2213.26 926.011 2202.75 926.011Z" fill="#2AB5E8" fill-rule="evenodd"/></g></svg>