<svg width="99" height="99" xmlns="http://www.w3.org/2000/svg" xmlns:xlink="http://www.w3.org/1999/xlink" xml:space="preserve" overflow="hidden"><defs><clipPath id="clip0"><rect x="2740" y="1478" width="99" height="99"/></clipPath></defs><g clip-path="url(#clip0)" transform="translate(-2740 -1478)"><path d="M2805.58 1505.69C2808.55 1505.69 2810.99 1508.14 2810.99 1511.14 2810.99 1511.92 2810.83 1512.67 2810.53 1513.34 2809.24 1512.92 2808.11 1512.31 2807.12 1511.42 2806.9 1511.21 2806.61 1511.11 2806.31 1511.11 2805.98 1511.11 2805.64 1511.24 2805.41 1511.51 2804.96 1512.01 2805.01 1512.8 2805.51 1513.24 2806.54 1514.18 2807.74 1514.86 2809.02 1515.35 2808.08 1516.13 2806.89 1516.62 2805.58 1516.62 2802.59 1516.62 2800.16 1514.18 2800.16 1511.14 2800.16 1508.14 2802.59 1505.69 2805.58 1505.69ZM2826.41 1478C2820.64 1478 2813.97 1481.13 2808.78 1486.84 2808.33 1487.33 2808.34 1488.09 2808.86 1488.57 2809.09 1488.79 2809.39 1488.89 2809.67 1488.89 2810 1488.89 2810.34 1488.76 2810.59 1488.48 2815.31 1483.28 2821.31 1480.39 2826.38 1480.39 2829.01 1480.39 2831.38 1481.17 2833.19 1482.8 2835.06 1484.5 2836.15 1487 2836.29 1489.99 2836.53 1495.07 2834.09 1500.97 2829.77 1505.75 2825.22 1510.77 2819.45 1513.61 2814.52 1513.81 2814.76 1512.95 2814.93 1512.08 2814.93 1511.14 2814.93 1505.98 2810.74 1501.76 2805.61 1501.76 2800.48 1501.76 2796.28 1505.98 2796.28 1511.14 2796.28 1516.32 2800.48 1520.54 2805.61 1520.54 2808.9 1520.54 2811.79 1518.8 2813.46 1516.2 2813.62 1516.2 2813.78 1516.24 2813.93 1516.24 2819.69 1516.24 2826.38 1513.12 2831.54 1507.39 2836.3 1502.14 2838.99 1495.6 2838.71 1489.85 2838.52 1486.18 2837.16 1483.12 2834.8 1481.01 2832.55 1478.97 2829.62 1478 2826.41 1478ZM2757.92 1538.11C2757.41 1538.11 2756.91 1538.29 2756.54 1538.69 2755.78 1539.45 2755.78 1540.69 2756.54 1541.46L2775.71 1560.78C2776.1 1561.17 2776.6 1561.35 2777.11 1561.35 2777.61 1561.35 2778.11 1561.17 2778.5 1560.78 2779.26 1560 2779.26 1558.77 2778.5 1558L2759.33 1538.69C2758.94 1538.29 2758.42 1538.11 2757.92 1538.11ZM2793.79 1490.66C2790.06 1490.66 2786.43 1492.16 2783.81 1494.81L2743.39 1535.53C2740 1538.93 2740 1544.48 2743.39 1547.89L2769.73 1574.43C2771.38 1576.07 2773.58 1577 2775.88 1577 2778.2 1577 2780.37 1576.07 2782.03 1574.43L2822.44 1533.74C2825.15 1531.01 2826.64 1527.27 2826.59 1523.4L2826.51 1519.74C2826.46 1518.09 2825.16 1516.74 2823.53 1516.74 2823.47 1516.74 2823.43 1516.74 2823.38 1516.74 2821.69 1516.79 2820.35 1518.19 2820.4 1519.9L2820.48 1523.53C2820.51 1525.72 2819.64 1527.84 2818.11 1529.39L2777.71 1570.09C2777.21 1570.59 2776.55 1570.84 2775.88 1570.84 2775.21 1570.84 2774.54 1570.59 2774.05 1570.09L2747.7 1543.56C2746.7 1542.52 2746.7 1540.88 2747.7 1539.86L2788.11 1499.16C2789.6 1497.65 2791.66 1496.78 2793.92 1496.78L2816.08 1497.18C2817.81 1497.35 2819.93 1499.49 2820.07 1501.14L2820.17 1504.38C2820.24 1506 2821.52 1507.37 2823.1 1507.37 2823.17 1507.37 2823.24 1507.37 2823.32 1507.36 2825.01 1507.29 2826.31 1505.88 2826.28 1504.2L2826.16 1501C2826.16 1500.95 2826.15 1500.76 2826.15 1500.67 2825.75 1495.97 2821.3 1491.49 2816.75 1491.1 2816.65 1491.08 2816.44 1491.06 2816.31 1491.06L2794.05 1490.66Z" fill="#2AB5E8" fill-rule="evenodd"/></g></svg>