<svg width="67" height="89" xmlns="http://www.w3.org/2000/svg" xmlns:xlink="http://www.w3.org/1999/xlink" xml:space="preserve" overflow="hidden"><defs><clipPath id="clip0"><rect x="755" y="1208" width="67" height="89"/></clipPath></defs><g clip-path="url(#clip0)" transform="translate(-755 -1208)"><path d="M772.651 1219.92 772.651 1229.41 764.734 1229.41 772.651 1219.92ZM768.702 1245.23C767.475 1245.23 766.482 1246.25 766.482 1247.47 766.482 1248.71 767.475 1249.72 768.702 1249.72L807.993 1249.72C809.221 1249.72 810.213 1248.71 810.213 1247.47 810.213 1246.25 809.221 1245.23 807.993 1245.23ZM768.702 1255.91C767.475 1255.91 766.482 1256.94 766.482 1258.16 766.482 1259.39 767.475 1260.4 768.702 1260.4L807.993 1260.4C809.221 1260.4 810.213 1259.39 810.213 1258.16 810.213 1256.94 809.221 1255.91 807.993 1255.91ZM768.702 1266.6C767.475 1266.6 766.482 1267.62 766.482 1268.85 766.482 1270.09 767.475 1271.09 768.702 1271.09L807.993 1271.09C809.221 1271.09 810.213 1270.09 810.213 1268.85 810.213 1267.62 809.221 1266.6 807.993 1266.6ZM768.702 1277.3C767.475 1277.3 766.482 1278.31 766.482 1279.54 766.482 1280.77 767.475 1281.79 768.702 1281.79L807.993 1281.79C809.221 1281.79 810.213 1280.77 810.213 1279.54 810.213 1278.31 809.221 1277.3 807.993 1277.3ZM815.006 1215.04 815.006 1289.97 761.935 1289.97 761.935 1236.42 776.118 1236.42C778.044 1236.42 779.606 1234.84 779.606 1232.9L779.606 1215.04ZM775.156 1208.01C774.134 1208.01 773.142 1208.47 772.494 1209.26L755.835 1229.14C755.295 1229.78 755 1230.59 755 1231.41L755 1293.49C755 1295.43 756.581 1297 758.487 1297L818.513 1297C820.448 1297 822 1295.42 822 1293.49L822 1211.53C822 1209.6 820.418 1208.02 818.513 1208.01Z" fill="#2AB5E8" fill-rule="evenodd"/></g></svg>