<svg width="119" height="82" xmlns="http://www.w3.org/2000/svg" xmlns:xlink="http://www.w3.org/1999/xlink" xml:space="preserve" overflow="hidden"><defs><clipPath id="clip0"><rect x="2445" y="373" width="119" height="82"/></clipPath></defs><g clip-path="url(#clip0)" transform="translate(-2445 -373)"><path d="M2518.05 403.139C2515.39 403.139 2513.2 405.319 2513.2 407.972 2513.2 410.625 2515.35 412.805 2518.05 412.805 2520.69 412.805 2522.86 410.625 2522.86 407.972 2522.86 405.319 2520.69 403.139 2518.05 403.139ZM2497.4 373C2488.1 373 2478.91 375.587 2470.72 380.63 2458.65 387.997 2450.26 399.659 2447.05 413.448 2444.01 426.66 2446.13 440.213 2453.04 451.77 2453.68 453.687 2455.43 454.974 2457.47 454.974L2474.03 454.974C2476.61 454.974 2478.7 452.899 2478.7 450.312 2478.7 445.623 2482.5 441.867 2487.17 441.867 2491.84 441.867 2495.66 445.663 2495.66 450.312 2495.66 452.886 2497.73 454.974 2500.3 454.974L2516.41 454.974C2516.58 454.987 2516.72 454.987 2516.89 454.987 2517.34 454.987 2517.77 454.908 2518.22 454.79 2520.19 454.212 2521.56 452.413 2521.56 450.325L2521.56 419.398C2521.56 417.086 2519.84 415.261 2517.63 414.893 2517.5 414.88 2517.38 414.841 2517.22 414.814 2517.1 414.814 2517.01 414.735 2516.89 414.735 2516.73 414.735 2516.6 414.814 2516.46 414.841 2515 414.893 2513.56 415.576 2512.71 416.889 2510.24 420.763 2505.99 423.101 2501.38 423.101 2493.96 423.101 2487.96 417.086 2487.96 409.706 2487.96 402.312 2494 396.297 2501.38 396.297 2504.97 396.297 2508.35 397.676 2510.88 400.211 2511.79 401.117 2512.97 401.577 2514.17 401.577 2515.37 401.577 2516.56 401.117 2517.47 400.211 2519.31 398.412 2519.27 395.47 2517.47 393.644 2513.18 389.35 2507.46 386.986 2501.38 386.986 2488.85 386.986 2478.62 397.164 2478.62 409.706 2478.62 422.234 2488.85 432.425 2501.38 432.425 2505.26 432.425 2508.99 431.453 2512.26 429.654L2512.26 445.689 2504.37 445.689C2502.32 438.125 2495.4 432.57 2487.2 432.57 2478.99 432.57 2472.07 438.125 2470.03 445.689L2460.33 445.689C2455.26 436.47 2453.77 425.859 2456.16 415.563 2458.8 404.203 2465.71 394.629 2475.61 388.549 2482.33 384.425 2489.86 382.311 2497.49 382.311 2500.8 382.311 2504.14 382.705 2507.43 383.519 2526.85 388.313 2526.84 402.456 2526.8 414.919L2526.8 416.246C2526.8 426.476 2535.14 434.802 2545.39 434.802 2555.65 434.802 2563.99 426.476 2563.99 416.246 2563.95 413.645 2561.84 411.584 2559.28 411.584 2556.73 411.584 2554.61 413.645 2554.61 416.246 2554.61 421.354 2550.44 425.504 2545.32 425.504 2540.22 425.504 2536.06 421.328 2536.06 416.219L2536.06 414.959C2536.1 402.273 2536.14 381.037 2509.64 374.51 2505.59 373.499 2501.49 373 2497.4 373Z" fill="#2AB5E8" fill-rule="evenodd"/></g></svg>