<svg width="95" height="95" xmlns="http://www.w3.org/2000/svg" xmlns:xlink="http://www.w3.org/1999/xlink" xml:space="preserve" overflow="hidden"><g transform="translate(-2742 -366)"><path d="M2789.51 373.723C2799.49 373.723 2808.55 377.41 2815.52 383.469L2807.83 391.169C2802.85 387.08 2796.46 384.632 2789.51 384.632 2782.77 384.632 2776.54 386.971 2771.61 390.876L2763.88 383.142C2770.82 377.28 2779.77 373.723 2789.51 373.723ZM2789.54 392.322C2794.36 392.322 2798.79 393.954 2802.36 396.662L2789.89 409.127 2777.12 396.358C2780.61 393.802 2784.9 392.322 2789.54 392.322ZM2805.95 400.056C2808.96 403.722 2810.81 408.42 2810.81 413.554 2810.81 418.199 2809.29 422.474 2806.77 425.976L2793.37 412.608 2805.95 400.056ZM2773.49 399.664 2786.41 412.586 2772.64 426.346C2769.94 422.778 2768.31 418.351 2768.31 413.544 2768.31 408.246 2770.25 403.395 2773.49 399.664ZM2789.89 416.078 2803.4 429.609C2799.67 432.839 2794.84 434.797 2789.54 434.797 2784.41 434.797 2779.71 432.97 2776.03 429.935L2789.89 416.078ZM2819.06 386.938C2825.41 393.965 2829.31 403.286 2829.31 413.489 2829.31 423.246 2825.75 432.198 2819.89 439.115L2812.25 431.469C2816.14 426.542 2818.49 420.331 2818.49 413.554 2818.49 406.31 2815.8 399.686 2811.39 394.607L2819.06 386.938ZM2760.34 386.569 2768.02 394.259C2763.42 399.382 2760.58 406.147 2760.58 413.554 2760.58 420.505 2763.04 426.868 2767.12 431.871L2759.46 439.518C2753.45 432.524 2749.75 423.431 2749.75 413.489 2749.75 403.091 2753.78 393.639 2760.34 386.569ZM2808.85 435.004 2816.46 442.629C2809.37 449.209 2799.92 453.245 2789.51 453.245 2779.31 453.245 2770.01 449.351 2762.95 442.988L2770.6 435.363C2775.68 439.768 2782.3 442.466 2789.54 442.466 2796.97 442.466 2803.72 439.648 2808.85 435.004ZM2789.48 366.011C2777.6 366.011 2766.74 370.438 2758.4 377.671L2751.76 371.025C2751.28 370.547 2750.64 370.307 2750.01 370.307 2749.38 370.307 2748.73 370.547 2748.26 371.025 2747.29 372.004 2747.29 373.549 2748.26 374.517L2754.86 381.108C2746.92 389.603 2742 400.981 2742 413.489 2742 425.574 2746.56 436.538 2754.02 444.956L2748.26 450.71C2747.29 451.678 2747.29 453.223 2748.26 454.191 2748.73 454.68 2749.37 454.92 2750 454.92 2750.63 454.92 2751.25 454.68 2751.73 454.191L2757.45 448.481C2765.89 456.214 2777.12 461 2789.45 461 2801.97 461 2813.35 456.105 2821.86 448.143L2827.94 454.213C2828.42 454.691 2829.04 454.941 2829.67 454.941 2830.29 454.941 2830.92 454.691 2831.41 454.213 2832.38 453.245 2832.38 451.689 2831.41 450.721L2825.34 444.554C2832.57 436.2 2837 425.367 2837 413.478 2837 401.133 2832.23 389.93 2824.48 381.467L2831.44 374.506C2832.41 373.538 2832.41 371.982 2831.44 371.014 2830.95 370.525 2830.32 370.286 2829.69 370.286 2829.07 370.286 2828.44 370.525 2827.95 371.014L2820.94 378.019C2812.56 370.558 2801.55 366.011 2789.48 366.011Z" fill="#2AB5E8" fill-rule="evenodd"/></g></svg>