<svg width="80" height="98" xmlns="http://www.w3.org/2000/svg" xmlns:xlink="http://www.w3.org/1999/xlink" xml:space="preserve" overflow="hidden"><defs><clipPath id="clip0"><rect x="177" y="643" width="80" height="98"/></clipPath></defs><g clip-path="url(#clip0)" transform="translate(-177 -643)"><path d="M205.111 652.505C204.742 652.505 204.383 652.647 204.101 652.931L199.812 657.247C199.248 657.804 199.248 658.711 199.812 659.279 200.095 659.574 200.464 659.716 200.822 659.716 201.191 659.716 201.539 659.574 201.832 659.279L206.121 654.963C206.685 654.406 206.685 653.499 206.121 652.931 205.838 652.647 205.469 652.505 205.111 652.505ZM190.073 654.679C189.714 654.679 189.356 654.821 189.074 655.094 188.488 655.63 188.488 656.558 189.03 657.116L193.319 661.584C193.612 661.879 193.96 662.021 194.351 662.021 194.687 662.021 195.057 661.879 195.339 661.617 195.936 661.06 195.936 660.153 195.382 659.585L191.093 655.127C190.811 654.832 190.442 654.679 190.073 654.679ZM192.19 665.506C191.832 665.506 191.463 665.648 191.191 665.932L186.902 670.259C186.327 670.794 186.327 671.723 186.902 672.291 187.174 672.564 187.532 672.717 187.901 672.717 188.27 672.717 188.629 672.564 188.922 672.291L193.211 667.954C193.775 667.418 193.775 666.5 193.211 665.932 192.928 665.648 192.559 665.506 192.19 665.506ZM198.64 643.011C186.707 643.011 177 652.778 177 664.774 177 673.034 181.593 680.485 189.02 684.21 189.356 684.374 189.693 684.462 190.051 684.462 190.887 684.462 191.691 683.992 192.092 683.173 192.657 682.036 192.19 680.66 191.05 680.081 185.176 677.12 181.549 671.264 181.549 664.774 181.549 655.302 189.204 647.6 198.629 647.6 205.078 647.6 210.931 651.282 213.84 657.148 214.242 657.957 215.067 658.438 215.914 658.438 216.251 658.438 216.598 658.35 216.924 658.186 218.053 657.629 218.52 656.231 217.956 655.094 214.242 647.633 206.848 643.011 198.64 643.011ZM230.692 669.581 223.113 694.131C221.354 693.901 219.649 693.639 218.021 693.377 214.438 692.809 211.126 692.295 208.086 692.295 206.978 692.295 205.914 692.361 204.883 692.525L204.025 669.581ZM241.332 669.581 240.442 694.065C237.532 694.579 234.731 694.775 232.049 694.775 230.583 694.775 229.139 694.71 227.738 694.611L235.469 669.581ZM208.108 695.169C210.865 695.169 213.992 695.649 217.554 696.217 219.02 696.436 220.616 696.676 222.244 696.906L213.558 725.027C213.178 726.251 213.862 727.551 215.067 727.901 215.295 727.966 215.534 727.999 215.762 727.999 216.729 727.999 217.63 727.387 217.956 726.382L226.902 697.408C228.618 697.55 230.355 697.649 232.158 697.649 234.785 697.649 237.5 697.474 240.355 696.993L240.355 696.993 238.998 733.789 206.349 733.789 204.959 695.42C205.958 695.245 207 695.169 208.108 695.169ZM254.427 649.391C254.264 649.391 254.079 649.413 253.906 649.446L236.696 653.762C235.903 653.969 235.306 654.559 235.067 655.335L232.885 662.36 200.301 662.36C199.334 662.36 198.401 662.764 197.717 663.463 197.033 664.173 196.685 665.102 196.707 666.096L199.28 737.526C199.345 739.46 200.941 741 202.885 741L242.451 741C244.383 741 245.947 739.46 246.023 737.526L248.607 666.096C248.65 665.124 248.281 664.173 247.608 663.463 246.924 662.753 245.99 662.36 245.024 662.36L237.695 662.36 239.063 657.946 255.024 653.925C256.251 653.63 256.989 652.363 256.685 651.14 256.436 650.08 255.469 649.391 254.427 649.391Z" fill="#2AB5E8" fill-rule="evenodd"/></g></svg>