<svg width="95" height="90" xmlns="http://www.w3.org/2000/svg" xmlns:xlink="http://www.w3.org/1999/xlink" xml:space="preserve" overflow="hidden"><defs><clipPath id="clip0"><rect x="3028" y="363" width="95" height="90"/></clipPath></defs><g clip-path="url(#clip0)" transform="translate(-3028 -363)"><path d="M3069.71 437 3037.21 437C3032.13 437 3028 432.871 3028 427.792L3028 372.207C3028 367.129 3032.13 363 3037.21 363L3092.79 363C3097.87 363 3102 367.129 3102 372.207L3102 392.642C3102 393.992 3100.91 395.091 3099.55 395.091 3098.2 395.091 3097.1 393.992 3097.1 392.642L3097.1 372.198C3097.1 369.818 3095.16 367.879 3092.78 367.879L3037.2 367.879C3034.82 367.879 3032.88 369.818 3032.88 372.198L3032.88 427.782C3032.88 430.162 3034.82 432.101 3037.2 432.101L3069.7 432.101C3071.05 432.101 3072.15 433.201 3072.15 434.551 3072.16 435.9 3071.06 437 3069.71 437Z" fill="#29B4E7" fill-rule="evenodd"/><path d="M3121.37 423 3064.63 423C3063.73 423 3063 422.104 3063 421 3063 419.896 3063.73 419 3064.63 419L3121.37 419C3122.27 419 3123 419.896 3123 421 3123 422.104 3122.27 423 3121.37 423Z" fill="#29B4E7" fill-rule="evenodd"/><path d="M3113.34 420.997C3112.78 420.997 3112.22 420.712 3111.92 420.189L3106.29 410.707 3101.51 410.096C3101.03 410.037 3100.6 409.771 3100.34 409.377L3094.24 400.161 3089.19 405.079 3086.67 412.176C3086.5 412.649 3086.12 413.024 3085.62 413.181L3078.37 415.448 3075.01 420.288C3074.51 421.027 3073.47 421.224 3072.73 420.722 3071.97 420.229 3071.78 419.223 3072.28 418.494L3075.95 413.191C3076.16 412.895 3076.47 412.669 3076.81 412.56L3083.82 410.372 3086.2 403.68C3086.28 403.453 3086.41 403.246 3086.59 403.069L3093.36 396.474C3093.71 396.129 3094.21 395.952 3094.7 396.011 3095.2 396.06 3095.64 396.327 3095.92 396.741L3102.7 407.001 3107.54 407.622C3108.04 407.691 3108.5 407.977 3108.75 408.411L3114.78 418.583C3115.23 419.351 3114.96 420.337 3114.17 420.781 3113.91 420.928 3113.63 420.997 3113.34 420.997Z" fill="#29B4E7" fill-rule="evenodd"/><path d="M3096.83 453C3096.49 453 3096.17 452.901 3095.89 452.713L3086.87 446.669C3086.57 446.471 3086.35 446.193 3086.24 445.856L3082.6 435.483 3076.04 431.757C3075.74 431.589 3075.51 431.331 3075.37 431.034L3073.15 426.288C3072.77 425.476 3073.14 424.515 3073.97 424.148 3074.81 423.772 3075.79 424.138 3076.17 424.951L3078.17 429.231 3084.81 433.006C3085.16 433.204 3085.42 433.511 3085.55 433.878L3089.21 444.321 3096.09 448.938 3100.77 437.9C3101.03 437.296 3101.64 436.9 3102.31 436.9L3104.07 436.9 3109.84 424.941C3110.22 424.128 3111.21 423.782 3112.04 424.168 3112.88 424.544 3113.23 425.506 3112.84 426.318L3106.62 439.208C3106.35 439.773 3105.77 440.14 3105.12 440.14L3103.42 440.14 3098.37 452.029C3098.18 452.485 3097.79 452.822 3097.32 452.96 3097.14 452.98 3096.99 453 3096.83 453Z" fill="#29B4E7" fill-rule="evenodd"/><path d="M3102.34 421C3101.77 421 3101.21 420.717 3100.91 420.21L3098.69 416.543 3093.74 407.532C3093.67 407.395 3093.62 407.259 3093.59 407.112L3092.03 399.915C3091.85 399.057 3092.42 398.218 3093.31 398.033 3094.2 397.857 3095.08 398.403 3095.27 399.271L3096.78 406.254 3101.59 415.002 3103.78 418.611C3104.23 419.371 3103.97 420.337 3103.18 420.786 3102.9 420.922 3102.62 421 3102.34 421Z" fill="#29B4E7" fill-rule="evenodd"/><path d="M3069.4 389 3060.6 389C3058.61 389 3057 387.388 3057 385.398L3057 376.602C3057 374.612 3058.61 373 3060.6 373L3069.4 373C3071.39 373 3073 374.612 3073 376.602L3073 385.398C3073 387.388 3071.39 389 3069.4 389ZM3060.6 376.316C3060.45 376.316 3060.33 376.439 3060.33 376.592L3060.33 385.388C3060.33 385.541 3060.45 385.663 3060.6 385.663L3069.4 385.663C3069.55 385.663 3069.67 385.541 3069.67 385.388L3069.67 376.592C3069.67 376.439 3069.55 376.316 3069.4 376.316L3060.6 376.316Z" fill="#29B4E7" fill-rule="evenodd"/><path d="M3069.4 407 3060.6 407C3058.61 407 3057 405.489 3057 403.623L3057 395.377C3057 393.511 3058.61 392 3060.6 392L3069.4 392C3071.39 392 3073 393.511 3073 395.377L3073 403.623C3073 405.489 3071.39 407 3069.4 407ZM3060.6 395.119C3060.45 395.119 3060.33 395.233 3060.33 395.377L3060.33 403.623C3060.33 403.767 3060.45 403.881 3060.6 403.881L3069.4 403.881C3069.55 403.881 3069.67 403.767 3069.67 403.623L3069.67 395.377C3069.67 395.233 3069.55 395.119 3069.4 395.119L3060.6 395.119Z" fill="#29B4E7" fill-rule="evenodd"/><path d="M3088.4 389 3079.6 389C3077.61 389 3076 387.388 3076 385.398L3076 376.602C3076 374.612 3077.61 373 3079.6 373L3088.4 373C3090.39 373 3092 374.612 3092 376.602L3092 385.398C3092 387.388 3090.38 389 3088.4 389ZM3079.59 376.316C3079.44 376.316 3079.32 376.439 3079.32 376.592L3079.32 385.388C3079.32 385.541 3079.44 385.663 3079.59 385.663L3088.39 385.663C3088.54 385.663 3088.66 385.541 3088.66 385.388L3088.66 376.592C3088.66 376.439 3088.54 376.316 3088.39 376.316L3079.59 376.316Z" fill="#29B4E7" fill-rule="evenodd"/><path d="M3050.4 389 3041.6 389C3039.61 389 3038 387.388 3038 385.398L3038 376.602C3038 374.612 3039.61 373 3041.6 373L3050.4 373C3052.39 373 3054 374.612 3054 376.602L3054 385.398C3054 387.388 3052.39 389 3050.4 389ZM3041.59 376.316C3041.44 376.316 3041.32 376.439 3041.32 376.592L3041.32 385.388C3041.32 385.541 3041.44 385.663 3041.59 385.663L3050.39 385.663C3050.54 385.663 3050.66 385.541 3050.66 385.388L3050.66 376.592C3050.66 376.439 3050.54 376.316 3050.39 376.316L3041.59 376.316Z" fill="#29B4E7" fill-rule="evenodd"/><path d="M3050.4 407 3041.6 407C3039.61 407 3038 405.489 3038 403.623L3038 395.377C3038 393.511 3039.61 392 3041.6 392L3050.4 392C3052.39 392 3054 393.511 3054 395.377L3054 403.623C3054 405.489 3052.39 407 3050.4 407ZM3041.59 395.119C3041.44 395.119 3041.32 395.233 3041.32 395.377L3041.32 403.623C3041.32 403.767 3041.44 403.881 3041.59 403.881L3050.39 403.881C3050.54 403.881 3050.66 403.767 3050.66 403.623L3050.66 395.377C3050.66 395.233 3050.54 395.119 3050.39 395.119L3041.59 395.119Z" fill="#29B4E7" fill-rule="evenodd"/><path d="M3050.4 426 3041.6 426C3039.61 426 3038 424.388 3038 422.398L3038 413.602C3038 411.612 3039.61 410 3041.6 410L3050.4 410C3052.39 410 3054 411.612 3054 413.602L3054 422.398C3054 424.388 3052.39 426 3050.4 426ZM3041.59 413.327C3041.44 413.327 3041.32 413.449 3041.32 413.602L3041.32 422.398C3041.32 422.551 3041.44 422.673 3041.59 422.673L3050.39 422.673C3050.54 422.673 3050.66 422.551 3050.66 422.398L3050.66 413.602C3050.66 413.449 3050.54 413.327 3050.39 413.327L3041.59 413.327Z" fill="#29B4E7" fill-rule="evenodd"/></g></svg>