<svg width="90" height="98" xmlns="http://www.w3.org/2000/svg" xmlns:xlink="http://www.w3.org/1999/xlink" xml:space="preserve" overflow="hidden"><defs><clipPath id="clip0"><rect x="1601" y="1203" width="90" height="98"/></clipPath></defs><g clip-path="url(#clip0)" transform="translate(-1601 -1203)"><path d="M1646.71 1203C1644.68 1203 1643.01 1204.66 1643.01 1206.69L1643.01 1215.81C1643.01 1217.86 1644.68 1219.51 1646.71 1219.51 1648.75 1219.51 1650.41 1217.86 1650.41 1215.81L1650.41 1206.69C1650.41 1204.66 1648.75 1203 1646.71 1203ZM1617.3 1214.58C1616.35 1214.58 1615.41 1214.94 1614.69 1215.67 1613.23 1217.13 1613.23 1219.47 1614.69 1220.91L1621.15 1227.37C1621.85 1228.1 1622.81 1228.45 1623.76 1228.45 1624.68 1228.45 1625.64 1228.1 1626.36 1227.37 1627.82 1225.91 1627.82 1223.57 1626.36 1222.13L1619.92 1215.67C1619.19 1214.94 1618.24 1214.58 1617.3 1214.58ZM1675.73 1215.61C1674.78 1215.61 1673.84 1215.97 1673.12 1216.7L1666.66 1223.16C1665.22 1224.61 1665.22 1226.96 1666.66 1228.4 1667.39 1229.13 1668.35 1229.47 1669.26 1229.48 1670.22 1229.48 1671.18 1229.13 1671.9 1228.4L1678.33 1221.94C1679.78 1220.49 1679.78 1218.14 1678.33 1216.7 1677.61 1215.97 1676.66 1215.61 1675.73 1215.61ZM1604.7 1243.64C1602.64 1243.64 1601 1245.31 1601 1247.34 1601 1249.38 1602.64 1251.05 1604.7 1251.05L1613.79 1251.05C1615.85 1251.05 1617.49 1249.38 1617.49 1247.34 1617.49 1245.31 1615.85 1243.64 1613.79 1243.64ZM1687.32 1245.09C1687.31 1245.09 1687.3 1245.09 1687.3 1245.09L1678.21 1245.09C1676.15 1245.09 1674.5 1246.74 1674.5 1248.79 1674.5 1250.83 1676.15 1252.5 1678.21 1252.5L1687.3 1252.5C1689.35 1252.5 1691 1250.83 1691 1248.79 1691 1246.73 1689.38 1245.09 1687.32 1245.09ZM1646.06 1228.51C1656.6 1228.51 1665.22 1237.08 1665.22 1247.59 1665.23 1254.16 1662.5 1259.65 1657.56 1263.03 1656.66 1263.66 1656.07 1264.65 1655.96 1265.76L1635.98 1265.76C1635.88 1264.66 1635.31 1263.66 1634.39 1263.03 1629.46 1259.66 1626.76 1254.19 1626.76 1247.59 1626.76 1237.07 1635.42 1228.51 1646.06 1228.51ZM1655.71 1270.49 1655.36 1277.24 1636.37 1274.06 1636.21 1270.49ZM1636.55 1278.91 1655.12 1282.01 1654.94 1285.41 1636.81 1285.41 1636.55 1278.91ZM1651.47 1292.81C1650.47 1294.82 1648.41 1296.25 1646.01 1296.25 1643.6 1296.25 1641.55 1294.82 1640.53 1292.81ZM1646.07 1221.13C1631.35 1221.13 1619.4 1233.01 1619.4 1247.59 1619.4 1255.89 1622.76 1263.22 1628.72 1268L1629.58 1289.25C1629.65 1291.24 1631.29 1292.81 1633.26 1292.81L1635.55 1292.81C1636.74 1297.49 1640.97 1300.99 1646.01 1300.99 1651.06 1300.99 1655.27 1297.49 1656.47 1292.81L1658.44 1292.81C1660.4 1292.81 1662.05 1291.27 1662.14 1289.3L1663.26 1268.03C1669.23 1263.22 1672.63 1255.89 1672.63 1247.59 1672.63 1232.98 1660.7 1221.13 1646.07 1221.13Z" fill="#2AB5E8" fill-rule="evenodd"/></g></svg>