<svg width="87" height="86" xmlns="http://www.w3.org/2000/svg" xmlns:xlink="http://www.w3.org/1999/xlink" xml:space="preserve" overflow="hidden"><defs><clipPath id="clip0"><rect x="2460" y="649" width="87" height="86"/></clipPath></defs><g clip-path="url(#clip0)" transform="translate(-2460 -649)"><path d="M2499.95 667C2494.9 667 2490.25 665.146 2486.05 663.475 2479.65 660.928 2475.52 659.497 2471.3 662.064 2469.99 662.867 2468.26 662.49 2467.43 661.224 2466.81 660.264 2466.86 659.027 2467.57 658.124 2477.48 645.321 2488.18 648.867 2496.77 651.717 2503.93 654.091 2510.12 656.14 2516.34 650.775 2517.49 649.779 2519.26 649.879 2520.29 650.999 2521.17 651.956 2521.24 653.378 2520.46 654.41 2513.12 664.117 2506.23 667 2499.95 667ZM2478.84 655.526C2482.08 656.024 2485.22 657.276 2488.17 658.452 2494.64 661.028 2500.49 663.356 2507.11 659.601 2502.9 659.483 2498.8 658.126 2494.97 656.853 2488.99 654.875 2483.89 653.183 2478.84 655.526Z" fill="#2AB5E8" fill-rule="evenodd"/><path d="M2493.19 714 2487.81 714C2486.26 714 2485 712.657 2485 711 2485 709.343 2486.26 708 2487.81 708L2493.19 708C2494.74 708 2496 709.343 2496 711 2496 712.657 2494.74 714 2493.19 714Z" fill="#2AB5E8" fill-rule="evenodd"/><path d="M2493.19 724 2487.81 724C2486.26 724 2485 722.881 2485 721.5 2485 720.119 2486.26 719 2487.81 719L2493.19 719C2494.74 719 2496 720.119 2496 721.5 2496 722.881 2494.74 724 2493.19 724Z" fill="#2AB5E8" fill-rule="evenodd"/><path d="M2514.19 714 2508.81 714C2507.26 714 2506 712.657 2506 711 2506 709.343 2507.26 708 2508.81 708L2514.19 708C2515.74 708 2517 709.343 2517 711 2517 712.657 2515.74 714 2514.19 714Z" fill="#2AB5E8" fill-rule="evenodd"/><path d="M2514.19 724 2508.81 724C2507.26 724 2506 722.881 2506 721.5 2506 720.119 2507.26 719 2508.81 719L2514.19 719C2515.74 719 2517 720.119 2517 721.5 2517 722.881 2515.74 724 2514.19 724Z" fill="#2AB5E8" fill-rule="evenodd"/><path d="M2536.19 714 2530.81 714C2529.26 714 2528 712.657 2528 711 2528 709.343 2529.26 708 2530.81 708L2536.19 708C2537.74 708 2539 709.343 2539 711 2539 712.657 2537.74 714 2536.19 714Z" fill="#2AB5E8" fill-rule="evenodd"/><path d="M2536.19 724 2530.81 724C2529.26 724 2528 722.881 2528 721.5 2528 720.119 2529.26 719 2530.81 719L2536.19 719C2537.74 719 2539 720.119 2539 721.5 2539 722.881 2537.74 724 2536.19 724Z" fill="#2AB5E8" fill-rule="evenodd"/><path d="M2544.23 735 2462.77 735C2461.24 735 2460 733.766 2460 732.245L2460 704.741C2460 704.615 2460.01 704.489 2460.03 704.365L2465.12 668.37C2465.31 667.008 2466.48 665.996 2467.87 666L2476.34 666C2477.65 665.997 2478.78 666.907 2479.05 668.181L2485.02 696.808 2500.22 686.969C2501.5 686.14 2503.22 686.503 2504.05 687.779 2504.34 688.227 2504.5 688.75 2504.5 689.285L2504.5 696.604 2521.69 686.967C2523.02 686.22 2524.71 686.688 2525.46 688.014 2525.69 688.427 2525.81 688.893 2525.81 689.367L2525.81 696.642 2542.86 686.893C2544.18 686.135 2545.87 686.59 2546.63 687.908 2546.87 688.326 2547 688.8 2547 689.283L2547 732.245C2547 733.766 2545.76 735 2544.23 735ZM2465.53 729.489 2541.47 729.489 2541.47 694.031 2524.42 703.777C2523.1 704.535 2521.41 704.081 2520.65 702.763 2520.41 702.345 2520.28 701.871 2520.28 701.388L2520.28 694.067 2503.09 703.706C2501.75 704.452 2500.07 703.982 2499.32 702.656 2499.08 702.243 2498.96 701.778 2498.96 701.304L2498.96 694.347 2484.64 703.609C2483.36 704.442 2481.64 704.085 2480.81 702.81 2480.62 702.52 2480.48 702.197 2480.41 701.858L2474.07 671.492 2470.26 671.492 2465.53 704.935Z" fill="#2AB5E8" fill-rule="evenodd"/></g></svg>