<svg width="97" height="97" xmlns="http://www.w3.org/2000/svg" xmlns:xlink="http://www.w3.org/1999/xlink" xml:space="preserve" overflow="hidden"><defs><clipPath id="clip0"><rect x="1598" y="922" width="97" height="97"/></clipPath></defs><g clip-path="url(#clip0)" transform="translate(-1598 -922)"><path d="M1646.5 922C1619.76 922 1598 943.757 1598 970.5 1598 997.242 1619.76 1019 1646.5 1019 1673.24 1019 1695 997.245 1695 970.5 1695 943.755 1673.25 922 1646.5 922ZM1646.5 1010.82C1624.27 1010.82 1606.18 992.725 1606.18 970.5 1606.18 948.275 1624.28 930.175 1646.5 930.175 1668.73 930.175 1686.82 948.275 1686.82 970.5 1686.82 992.725 1668.74 1010.82 1646.5 1010.82Z" fill="#2AB5E8" fill-rule="evenodd"/><path d="M1660.06 993.935 1651.11 993.935 1651.11 961.027C1651.11 959.357 1649.76 958.003 1648.09 958L1640.1 958C1638.43 958.048 1637.12 959.442 1637.16 961.113 1637.21 962.716 1638.5 964.005 1640.1 964.051L1645.06 964.051 1645.06 993.947 1636.11 993.947C1634.44 993.899 1633.05 995.215 1633 996.886 1632.95 998.557 1634.27 999.951 1635.94 999.999 1636 1000 1636.06 1000 1636.11 999.999L1660.06 999.999C1661.73 999.951 1663.05 998.557 1663 996.886 1662.95 995.283 1661.66 993.993 1660.06 993.947Z" fill="#2AB5E8" fill-rule="evenodd"/><path d="M1646 951C1648.76 951.002 1651 948.764 1651 946.002 1651 943.241 1648.76 941.001 1646 941 1643.24 940.998 1641 943.236 1641 945.997 1641 945.998 1641 945.999 1641 946 1641 948.76 1643.24 950.996 1646 951Z" fill="#2AB5E8" fill-rule="evenodd"/></g></svg>