<svg width="122" height="131" xmlns="http://www.w3.org/2000/svg" xmlns:xlink="http://www.w3.org/1999/xlink" xml:space="preserve" overflow="hidden"><defs><clipPath id="clip0"><rect x="3015" y="348" width="122" height="131"/></clipPath></defs><g clip-path="url(#clip0)" transform="translate(-3015 -348)"><path d="M3076 348C3075.59 348 3075.19 348.101 3074.81 348.29L3073.61 348.869C3072.32 349.521 3071.81 351.114 3072.45 352.403 3072.93 353.301 3073.83 353.837 3074.81 353.837 3075.21 353.837 3075.61 353.779 3076 353.576 3076.36 353.764 3076.76 353.851 3077.15 353.851 3078.11 353.851 3079.04 353.315 3079.49 352.403 3080.19 351.114 3079.65 349.521 3078.36 348.869L3077.18 348.29C3076.81 348.101 3076.41 348 3076 348ZM3084.54 352.301C3083.56 352.301 3082.62 352.808 3082.15 353.735 3081.5 355.024 3082.02 356.617 3083.32 357.24L3085.64 358.413C3086.04 358.616 3086.44 358.674 3086.82 358.674 3087.77 358.674 3088.67 358.138 3089.15 357.24 3089.82 355.951 3089.22 354.329 3087.91 353.692L3085.69 352.548C3085.32 352.374 3084.93 352.301 3084.54 352.301ZM3067.45 352.316C3067.06 352.316 3066.63 352.403 3066.26 352.591L3063.9 353.779C3062.6 354.416 3062.08 355.995 3062.74 357.284 3063.2 358.182 3064.09 358.717 3065.03 358.717 3065.05 358.717 3065.08 358.717 3065.09 358.717 3065.5 358.717 3065.91 358.63 3066.28 358.442L3068.63 357.255C3069.92 356.617 3070.44 355.024 3069.8 353.735 3069.34 352.823 3068.41 352.316 3067.45 352.316ZM3057.72 357.197C3057.32 357.197 3056.92 357.284 3056.54 357.472L3054.18 358.659C3052.89 359.297 3052.36 360.89 3053.02 362.179 3053.49 363.077 3054.36 363.598 3055.32 363.598 3055.33 363.598 3055.35 363.598 3055.38 363.598 3055.78 363.598 3056.19 363.511 3056.55 363.352L3058.91 362.164C3060.2 361.513 3060.73 359.919 3060.07 358.63 3059.62 357.718 3058.68 357.197 3057.72 357.197ZM3094.22 357.197C3093.26 357.197 3092.33 357.718 3091.87 358.63 3091.23 359.919 3091.74 361.469 3093.03 362.179L3095.37 363.366C3095.75 363.54 3096.17 363.627 3096.55 363.627 3097.51 363.627 3098.46 363.091 3098.91 362.179 3099.56 360.89 3099.07 359.297 3097.77 358.659L3095.42 357.472C3095.04 357.284 3094.63 357.197 3094.22 357.197ZM3048.02 362.092C3047.61 362.092 3047.2 362.193 3046.82 362.382L3044.47 363.555C3043.17 364.207 3042.65 365.771 3043.3 367.06 3043.77 367.972 3044.64 368.508 3045.6 368.508 3045.62 368.508 3045.63 368.508 3045.65 368.508 3046.07 368.508 3046.47 368.421 3046.84 368.233L3049.19 367.045C3050.49 366.393 3051.01 364.815 3050.36 363.511 3049.91 362.613 3048.98 362.092 3048.02 362.092ZM3103.95 362.092C3102.99 362.092 3102.06 362.613 3101.61 363.511 3100.94 364.815 3101.48 366.379 3102.76 367.06L3105.13 368.247C3105.5 368.436 3105.9 368.522 3106.33 368.522 3107.24 368.522 3108.2 367.987 3108.67 367.06 3109.34 365.771 3108.8 364.178 3107.5 363.54L3105.15 362.382C3104.77 362.193 3104.36 362.092 3103.95 362.092ZM3038.29 366.987C3037.88 366.987 3037.47 367.074 3037.09 367.262L3034.74 368.436C3033.44 369.087 3032.93 370.68 3033.57 371.969 3034.04 372.853 3034.93 373.389 3035.87 373.389 3035.9 373.389 3035.92 373.389 3035.93 373.389 3036.34 373.389 3036.76 373.302 3037.12 373.128L3039.48 371.955C3040.77 371.303 3041.28 369.71 3040.64 368.421 3040.18 367.509 3039.25 366.987 3038.29 366.987ZM3113.69 366.987C3112.73 366.987 3111.79 367.509 3111.33 368.421 3110.69 369.71 3111.2 371.303 3112.49 371.969L3114.85 373.157C3115.21 373.345 3115.63 373.403 3116.04 373.403 3116.99 373.403 3117.92 372.867 3118.4 371.969 3119.04 370.68 3118.53 369.087 3117.22 368.436L3114.88 367.262C3114.5 367.074 3114.09 366.987 3113.69 366.987ZM3028.56 371.883C3028.15 371.883 3027.74 371.969 3027.36 372.158L3025.01 373.345C3023.71 373.997 3023.19 375.561 3023.84 376.85 3024.34 377.777 3025.24 378.299 3026.18 378.299 3026.61 378.299 3026.98 378.212 3027.38 378.009L3029.73 376.836C3031.03 376.184 3031.52 374.591 3030.88 373.302 3030.42 372.389 3029.5 371.883 3028.56 371.883ZM3123.42 371.883C3122.47 371.883 3121.55 372.389 3121.09 373.302 3120.4 374.591 3120.91 376.184 3122.24 376.85L3124.59 378.038C3124.99 378.226 3125.36 378.313 3125.79 378.313 3126.73 378.313 3127.68 377.777 3128.13 376.85 3128.78 375.561 3128.26 373.968 3126.96 373.345L3124.61 372.158C3124.23 371.969 3123.82 371.883 3123.42 371.883ZM3133.13 376.763C3132.16 376.763 3131.23 377.299 3130.77 378.212 3130.51 378.762 3130.43 379.385 3130.56 379.95 3130.43 380.543 3130.48 381.152 3130.75 381.775 3131.14 382.528 3131.81 382.977 3132.56 383.15 3133.01 383.585 3133.64 383.846 3134.31 383.846 3135.78 383.846 3136.97 382.658 3136.97 381.224L3136.97 379.906C3136.97 378.675 3136.13 377.69 3134.98 377.386L3134.31 377.039C3133.93 376.85 3133.52 376.763 3133.13 376.763ZM3018.88 376.72C3018.48 376.72 3018.07 376.807 3017.68 376.995L3016.5 377.589C3016.43 377.603 3016.41 377.647 3016.38 377.661 3016.38 377.676 3016.37 377.676 3016.35 377.676 3016.34 377.676 3016.32 377.676 3016.29 377.69 3016.25 377.748 3016.19 377.821 3016.15 377.879 3015.89 378.081 3015.67 378.299 3015.52 378.53 3015.44 378.632 3015.39 378.748 3015.33 378.849 3015.2 379.11 3015.12 379.414 3015.09 379.732 3015.09 379.819 3015.04 379.863 3015.04 379.95L3015.04 381.253C3015.04 382.716 3016.18 383.889 3017.65 383.889 3017.66 383.889 3017.66 383.889 3017.68 383.889 3018.43 383.889 3019.1 383.556 3019.61 383.049 3020.28 382.832 3020.86 382.383 3021.23 381.688 3021.5 381.137 3021.55 380.515 3021.4 379.921 3021.55 379.37 3021.53 378.719 3021.23 378.139 3020.77 377.227 3019.84 376.72 3018.88 376.72ZM3026.2 381.63C3025.22 381.63 3024.29 382.151 3023.84 383.064 3023.19 384.382 3023.71 385.946 3025.01 386.612L3027.36 387.8C3027.73 387.988 3028.13 388.075 3028.54 388.075 3029.47 388.075 3030.43 387.539 3030.88 386.612 3031.52 385.323 3031.03 383.73 3029.73 383.093L3027.38 381.905C3027 381.717 3026.59 381.63 3026.2 381.63ZM3125.77 381.673C3125.36 381.673 3124.96 381.76 3124.56 381.948L3122.21 383.107C3120.91 383.773 3120.4 385.352 3121.04 386.641 3121.52 387.568 3122.46 388.075 3123.4 388.075 3123.81 388.075 3124.23 387.988 3124.59 387.8L3126.95 386.612C3128.24 385.975 3128.75 384.382 3128.11 383.093 3127.66 382.18 3126.73 381.673 3125.77 381.673ZM3076.01 385.902C3075.75 385.902 3075.51 385.96 3075.26 386.076L3074.24 386.597C3073.43 387.003 3073.11 387.988 3073.51 388.784 3073.79 389.364 3074.37 389.697 3074.98 389.697 3075.24 389.697 3075.48 389.61 3075.74 389.494L3076 389.364 3076.28 389.494C3076.51 389.61 3076.76 389.668 3077 389.668 3077.61 389.668 3078.2 389.349 3078.47 388.77 3078.89 387.973 3078.56 386.96 3077.76 386.597L3076.76 386.076C3076.52 385.96 3076.28 385.902 3076.01 385.902ZM3069.43 389.204C3069.16 389.204 3068.9 389.262 3068.66 389.393L3066.49 390.493C3065.69 390.899 3065.37 391.884 3065.76 392.695 3066.07 393.26 3066.66 393.578 3067.24 393.578 3067.49 393.578 3067.74 393.491 3067.99 393.39L3070.14 392.289C3070.94 391.884 3071.27 390.899 3070.88 390.073 3070.59 389.523 3070.02 389.204 3069.43 389.204ZM3082.6 389.204C3081.99 389.204 3081.41 389.538 3081.13 390.117 3080.73 390.913 3081.05 391.884 3081.85 392.318L3084.01 393.39C3084.26 393.52 3084.52 393.578 3084.77 393.578 3085.37 393.578 3085.93 393.26 3086.24 392.695 3086.65 391.884 3086.33 390.899 3085.5 390.493L3083.34 389.393C3083.1 389.262 3082.85 389.204 3082.6 389.204ZM3134.34 387.017C3132.88 387.017 3131.69 388.205 3131.69 389.653L3131.69 392.376C3131.69 393.825 3132.88 394.998 3134.34 394.998 3135.81 394.998 3136.99 393.825 3136.99 392.376L3136.99 389.653C3136.99 388.205 3135.81 387.017 3134.34 387.017ZM3017.68 387.133C3016.21 387.133 3015.04 388.321 3015.04 389.755L3015.04 392.492C3015.04 393.926 3016.21 395.114 3017.68 395.114 3019.15 395.114 3020.34 393.926 3020.34 392.492L3020.34 389.755C3020.34 388.321 3019.15 387.133 3017.68 387.133ZM3072.19 375.025 3072.19 378.892C3072.19 381.152 3074.04 383.02 3076.32 383.02 3078.6 383.02 3080.45 381.195 3080.45 378.892L3080.45 375.387 3107.4 388.944 3094.09 395.606C3094.01 395.085 3093.73 394.592 3093.21 394.331L3091.05 393.245C3090.82 393.115 3090.56 393.057 3090.31 393.057 3089.72 393.057 3089.13 393.39 3088.84 393.955 3088.44 394.766 3088.76 395.751 3089.58 396.171L3091.24 396.996 3076 404.687 3060.74 396.996 3062.46 396.142C3063.26 395.736 3063.58 394.751 3063.17 393.926 3062.9 393.361 3062.3 393.028 3061.69 393.028 3061.44 393.028 3061.19 393.086 3060.96 393.202L3058.81 394.273C3058.28 394.549 3057.98 395.027 3057.94 395.534L3044.69 388.871 3072.19 375.025ZM3134.34 398.227C3132.88 398.227 3131.69 399.415 3131.69 400.849L3131.69 403.586C3131.69 405.02 3132.88 406.208 3134.34 406.208 3135.81 406.208 3136.99 405.02 3136.99 403.586L3136.99 400.849C3136.99 399.415 3135.81 398.227 3134.34 398.227ZM3017.68 398.314C3016.21 398.314 3015.04 399.502 3015.04 400.936L3015.04 403.673C3015.04 405.107 3016.21 406.294 3017.68 406.294 3019.15 406.294 3020.34 405.107 3020.34 403.673L3020.34 400.936C3020.34 399.502 3019.15 398.314 3017.68 398.314ZM3052.98 405.02C3052.05 405.02 3051.33 405.759 3051.33 406.686L3051.33 409.177C3051.33 410.075 3052.05 410.813 3052.98 410.813 3053.88 410.813 3054.62 410.075 3054.62 409.177L3054.62 406.686C3054.62 405.759 3053.88 405.02 3052.98 405.02ZM3099.11 405.02C3098.2 405.02 3097.47 405.759 3097.47 406.686L3097.47 409.177C3097.47 410.075 3098.2 410.813 3099.11 410.813 3100.03 410.813 3100.74 410.075 3100.74 409.177L3100.74 406.686C3100.74 405.773 3100.03 405.02 3099.11 405.02ZM3134.34 409.408C3132.88 409.408 3131.69 410.596 3131.69 412.059L3131.69 414.767C3131.69 416.215 3132.88 417.389 3134.34 417.389 3135.81 417.389 3136.99 416.215 3136.99 414.767L3136.99 412.059C3136.99 410.596 3135.81 409.408 3134.34 409.408ZM3017.68 409.495C3016.21 409.495 3015.04 410.683 3015.04 412.117L3015.04 414.854C3015.04 416.288 3016.21 417.475 3017.68 417.475 3019.15 417.475 3020.34 416.288 3020.34 414.854L3020.34 412.117C3020.34 410.683 3019.15 409.495 3017.68 409.495ZM3052.98 413.956C3052.05 413.956 3051.33 414.68 3051.33 415.607L3051.33 418.098C3051.33 418.982 3052.05 419.735 3052.98 419.735 3053.88 419.735 3054.62 419.011 3054.62 418.098L3054.62 415.607C3054.62 414.68 3053.88 413.956 3052.98 413.956ZM3099.11 413.956C3098.2 413.956 3097.47 414.68 3097.47 415.607L3097.47 418.098C3097.47 419.011 3098.2 419.735 3099.11 419.735 3100.03 419.735 3100.74 419.011 3100.74 418.098L3100.74 415.607C3100.74 414.68 3100.03 413.956 3099.11 413.956ZM3052.99 422.849C3052.09 422.849 3051.35 423.587 3051.35 424.485L3051.35 425.644C3051.35 426.267 3051.68 426.832 3052.23 427.107L3053.28 427.614C3053.49 427.759 3053.75 427.802 3053.99 427.802 3054.62 427.802 3055.17 427.483 3055.48 426.918 3055.88 426.107 3055.56 425.108 3054.79 424.703L3054.63 424.485C3054.63 423.587 3053.92 422.849 3052.99 422.849ZM3099.13 422.849C3098.22 422.849 3097.48 423.587 3097.48 424.485L3097.35 424.703C3096.54 425.108 3096.22 426.107 3096.62 426.918 3096.93 427.483 3097.51 427.802 3098.11 427.802 3098.35 427.802 3098.59 427.715 3098.85 427.614L3099.87 427.107C3100.41 426.832 3100.74 426.267 3100.74 425.644L3100.74 424.485C3100.74 423.587 3100.03 422.849 3099.13 422.849ZM3134.34 420.589C3132.88 420.589 3131.69 421.777 3131.69 423.24L3131.69 425.948C3131.69 427.396 3132.88 428.57 3134.34 428.57 3135.81 428.57 3136.99 427.396 3136.99 425.948L3136.99 423.24C3136.99 421.777 3135.81 420.589 3134.34 420.589ZM3017.68 420.705C3016.21 420.705 3015.04 421.893 3015.04 423.356L3015.04 426.064C3015.04 427.483 3016.21 428.685 3017.68 428.685 3019.15 428.685 3020.34 427.498 3020.34 426.064L3020.34 423.356C3020.34 421.893 3019.15 420.705 3017.68 420.705ZM3059.56 427.281C3058.97 427.281 3058.39 427.614 3058.1 428.193 3057.7 428.99 3058.02 429.974 3058.82 430.38L3060.99 431.481C3061.21 431.625 3061.48 431.669 3061.72 431.669 3062.34 431.669 3062.91 431.35 3063.22 430.785 3063.59 429.974 3063.27 428.99 3062.47 428.555L3060.32 427.454C3060.07 427.339 3059.83 427.281 3059.56 427.281ZM3092.54 427.339C3092.28 427.339 3092.01 427.396 3091.77 427.541L3089.6 428.642C3088.8 429.048 3088.46 430.032 3088.87 430.829 3089.18 431.408 3089.76 431.741 3090.36 431.741 3090.6 431.741 3090.85 431.654 3091.1 431.539L3093.25 430.452C3094.05 430.032 3094.37 429.048 3093.99 428.236 3093.7 427.672 3093.13 427.339 3092.54 427.339ZM3084.76 431.206C3084.51 431.206 3084.26 431.263 3084.03 431.365L3081.88 432.451C3081.08 432.857 3080.74 433.841 3081.16 434.667 3081.44 435.246 3082.05 435.565 3082.63 435.565 3082.88 435.565 3083.13 435.507 3083.36 435.391L3085.53 434.319C3086.34 433.914 3086.66 432.914 3086.25 432.103 3085.96 431.539 3085.37 431.206 3084.76 431.206ZM3067.29 431.234C3066.69 431.234 3066.11 431.568 3065.82 432.118 3065.41 432.943 3065.73 433.928 3066.56 434.334L3068.71 435.42C3068.93 435.536 3069.19 435.608 3069.43 435.608 3070.05 435.608 3070.62 435.246 3070.92 434.681 3071.33 433.841 3071.01 432.871 3070.18 432.495L3068.03 431.408C3067.8 431.292 3067.54 431.234 3067.29 431.234ZM3134.34 431.785C3132.88 431.785 3131.69 432.958 3131.69 434.421L3131.69 437.129C3131.69 438.577 3132.88 439.765 3134.34 439.765 3135.81 439.765 3136.99 438.577 3136.99 437.129L3136.99 434.421C3136.99 432.958 3135.81 431.785 3134.34 431.785ZM3017.68 431.886C3016.21 431.886 3015.04 433.074 3015.04 434.537L3015.04 437.245C3015.04 438.679 3016.21 439.866 3017.68 439.866 3019.15 439.866 3020.34 438.679 3020.34 437.245L3020.34 434.537C3020.34 433.074 3019.15 431.886 3017.68 431.886ZM3039.67 395.577 3040.21 395.867 3071.9 411.798 3071.9 449.15 3044.09 435.203 3047.36 433.306C3049.33 432.19 3049.99 429.699 3048.87 427.715 3048.1 426.397 3046.72 425.673 3045.3 425.673 3044.6 425.673 3043.9 425.847 3043.26 426.209L3039.67 428.28 3039.67 395.577ZM3112.39 395.62 3112.39 428.961 3108.48 426.701C3107.84 426.325 3107.13 426.151 3106.43 426.151 3105 426.151 3103.62 426.89 3102.86 428.207 3101.71 430.163 3102.38 432.668 3104.38 433.798L3107.33 435.521 3080.19 449.179 3080.19 411.842 3080.16 411.842 3112.39 395.62ZM3134.34 442.966C3132.99 442.966 3131.85 443.994 3131.72 445.312 3130.61 446.036 3130.18 447.485 3130.8 448.687 3131.27 449.614 3132.17 450.149 3133.15 450.149 3133.55 450.149 3133.96 450.063 3134.34 449.86L3135.52 449.28C3136.43 448.86 3136.99 447.934 3136.99 446.949L3136.99 445.631C3136.99 444.168 3135.81 442.98 3134.34 442.966ZM3017.66 443.067C3016.19 443.067 3015 444.255 3015 445.718L3015 447.021C3015 448.02 3015.58 448.904 3016.47 449.367L3017.66 449.976C3018.03 450.164 3018.43 450.251 3018.85 450.251 3019.8 450.251 3020.73 449.715 3021.2 448.788 3021.79 447.586 3021.37 446.152 3020.28 445.413 3020.15 444.11 3019 443.067 3017.66 443.067ZM3125.77 448.585C3125.38 448.585 3124.99 448.672 3124.61 448.86L3122.28 450.034C3120.99 450.685 3120.46 452.278 3121.12 453.567 3121.57 454.465 3122.5 455.001 3123.47 455.001 3123.85 455.001 3124.27 454.914 3124.65 454.755L3126.99 453.567C3128.29 452.916 3128.8 451.323 3128.16 450.034 3127.69 449.121 3126.75 448.585 3125.77 448.585ZM3026.21 448.701C3025.25 448.701 3024.32 449.237 3023.86 450.149 3023.22 451.438 3023.73 453.032 3025.02 453.669L3027.38 454.856C3027.74 455.03 3028.16 455.117 3028.57 455.132 3029.52 455.132 3030.45 454.596 3030.93 453.698 3031.57 452.409 3031.06 450.816 3029.75 450.164L3027.41 448.991C3027.03 448.802 3026.62 448.701 3026.21 448.701ZM3116.1 453.495C3115.69 453.495 3115.27 453.596 3114.89 453.785L3112.57 454.958C3111.27 455.61 3110.75 457.174 3111.4 458.463 3111.85 459.39 3112.78 459.926 3113.74 459.926 3114.14 459.926 3114.54 459.839 3114.94 459.65L3117.26 458.448C3118.57 457.797 3119.08 456.218 3118.44 454.914 3117.98 454.016 3117.06 453.495 3116.1 453.495ZM3076.23 364.482C3076.22 364.482 3076.19 364.511 3076.13 364.511 3076.07 364.511 3076.03 364.511 3075.99 364.511 3075.33 364.511 3074.68 364.641 3074.12 364.931L3033.65 385.308C3033.57 385.323 3033.56 385.352 3033.52 385.366L3033.34 385.453C3033.21 385.54 3033.11 385.642 3032.99 385.757 3032.86 385.859 3032.76 385.946 3032.64 386.062 3032.48 386.206 3032.35 386.38 3032.24 386.568 3032.15 386.655 3032.05 386.786 3032 386.916 3031.86 387.133 3031.78 387.351 3031.7 387.582 3031.64 387.684 3031.6 387.8 3031.57 387.901 3031.46 388.249 3031.39 388.64 3031.39 388.987L3031.39 435.521C3031.39 437.028 3032.26 438.447 3033.66 439.157L3074.14 459.506C3074.37 459.607 3074.62 459.694 3074.88 459.766 3074.89 459.766 3074.89 459.81 3074.91 459.81 3075.26 459.868 3075.62 459.955 3075.97 459.955L3076.01 459.955C3076.38 459.955 3076.73 459.911 3077.08 459.81 3077.09 459.81 3077.09 459.766 3077.13 459.766 3077.38 459.694 3077.64 459.607 3077.85 459.506L3118.32 439.157C3119.71 438.447 3120.59 437.028 3120.59 435.507L3120.59 388.958C3120.59 387.524 3119.87 386.206 3118.63 385.453 3118.54 385.41 3118.44 385.366 3118.32 385.323 3118.31 385.323 3118.31 385.308 3118.28 385.308L3078.6 365.351C3078.15 365.003 3077.61 364.786 3077.05 364.655 3076.93 364.612 3076.76 364.598 3076.63 364.569 3076.49 364.569 3076.38 364.482 3076.23 364.482ZM3035.93 453.625C3034.97 453.625 3034.04 454.161 3033.57 455.074 3032.93 456.363 3033.44 457.927 3034.74 458.579L3037.09 459.766C3037.47 459.955 3037.88 460.041 3038.29 460.041 3039.23 460.041 3040.16 459.506 3040.64 458.579 3041.28 457.29 3040.77 455.696 3039.48 455.074L3037.12 453.915C3036.74 453.712 3036.34 453.625 3035.93 453.625ZM3106.35 458.361C3105.96 458.361 3105.55 458.448 3105.18 458.637L3102.82 459.824C3101.53 460.476 3101.03 462.055 3101.67 463.358 3102.14 464.256 3103.04 464.792 3104.01 464.792 3104.42 464.792 3104.83 464.705 3105.19 464.531L3107.55 463.358C3108.84 462.692 3109.37 461.113 3108.71 459.81 3108.26 458.883 3107.33 458.361 3106.35 458.361ZM3045.66 458.492C3044.69 458.492 3043.75 459.013 3043.3 459.926 3042.65 461.229 3043.17 462.808 3044.47 463.459L3046.82 464.647C3047.19 464.821 3047.59 464.893 3048 464.893 3048.98 464.893 3049.88 464.386 3050.36 463.474 3051.01 462.185 3050.49 460.592 3049.19 459.955L3046.84 458.767C3046.46 458.579 3046.05 458.492 3045.66 458.492ZM3076.01 461.142C3074.91 461.142 3073.96 461.852 3073.6 462.764 3073.43 463.141 3073.37 463.474 3073.37 463.85L3073.37 466.573C3073.37 468.022 3074.55 469.195 3076 469.195 3077.09 469.195 3078.05 468.529 3078.44 467.573 3078.59 467.225 3078.68 466.863 3078.68 466.486L3078.68 463.764C3078.68 462.315 3077.48 461.142 3076.01 461.142ZM3096.61 463.257C3096.23 463.257 3095.82 463.344 3095.46 463.517L3093.12 464.705C3091.82 465.357 3091.32 466.95 3091.96 468.239 3092.41 469.137 3093.34 469.673 3094.31 469.673 3094.7 469.673 3095.11 469.615 3095.5 469.412L3097.83 468.239C3099.13 467.587 3099.65 465.994 3099 464.705 3098.52 463.793 3097.58 463.257 3096.61 463.257ZM3055.36 463.387C3054.4 463.387 3053.47 463.908 3053.02 464.821 3052.36 466.11 3052.89 467.689 3054.18 468.34L3056.54 469.528C3056.9 469.716 3057.31 469.803 3057.72 469.803 3058.69 469.803 3059.61 469.282 3060.07 468.369 3060.73 467.066 3060.2 465.502 3058.91 464.85L3056.55 463.677C3056.18 463.488 3055.77 463.387 3055.36 463.387ZM3086.89 468.152C3086.5 468.152 3086.09 468.239 3085.72 468.427L3083.36 469.615C3082.07 470.252 3081.57 471.845 3082.21 473.134 3082.68 474.047 3083.58 474.582 3084.55 474.582 3084.96 474.582 3085.37 474.496 3085.73 474.322L3088.09 473.091C3089.38 472.453 3089.9 470.86 3089.25 469.586 3088.8 468.673 3087.87 468.152 3086.89 468.152ZM3065.09 468.268C3064.13 468.268 3063.19 468.804 3062.74 469.716 3062.08 471.005 3062.6 472.598 3063.9 473.25L3066.26 474.423C3066.62 474.597 3067.03 474.684 3067.45 474.684 3068.39 474.684 3069.32 474.148 3069.8 473.25 3070.47 471.961 3069.92 470.382 3068.63 469.745L3066.28 468.557C3065.89 468.355 3065.5 468.268 3065.09 468.268ZM3076.01 472.338C3075.21 472.338 3074.55 472.685 3074.05 473.265 3073.38 473.438 3072.81 473.916 3072.45 474.582 3071.81 475.871 3072.32 477.465 3073.61 478.102L3074.81 478.681C3075.16 478.884 3075.56 478.985 3076.01 478.985 3076.51 478.985 3076.97 478.884 3077.4 478.623 3077.47 478.58 3077.47 478.536 3077.51 478.507L3078.4 478.044C3079.69 477.392 3080.2 475.799 3079.56 474.51 3079.21 473.844 3078.6 473.38 3077.93 473.178 3077.47 472.671 3076.77 472.338 3076.01 472.338Z" fill="#2AB5E8" fill-rule="evenodd"/></g></svg>