<svg width="80" height="97" xmlns="http://www.w3.org/2000/svg" xmlns:xlink="http://www.w3.org/1999/xlink" xml:space="preserve" overflow="hidden"><defs><clipPath id="clip0"><rect x="1892" y="923" width="80" height="97"/></clipPath></defs><g clip-path="url(#clip0)" transform="translate(-1892 -923)"><path d="M1910.27 937.524 1910.27 944.54 1904.19 944.54 1910.27 937.524ZM1953.71 976.33C1960.47 977.401 1965.83 982.822 1966.89 989.652L1953.71 989.652 1953.71 976.33ZM1951.27 971.183C1949.93 971.183 1948.82 972.287 1948.82 973.653L1948.82 992.122C1948.82 993.466 1949.93 994.581 1951.27 994.581L1969.53 994.581C1970.88 994.581 1971.98 993.466 1971.98 992.122 1971.99 980.56 1962.71 971.183 1951.27 971.183ZM1942.42 982.8 1942.42 998.613C1942.42 999.957 1943.52 1001.07 1944.87 1001.07L1960.5 1001.07C1959.31 1008.72 1952.75 1014.59 1944.87 1014.59 1936.14 1014.59 1929.06 1007.41 1929.06 998.613 1929.06 990.625 1934.85 984.002 1942.42 982.8ZM1944.87 977.674C1933.46 977.674 1924.16 987.051 1924.16 998.613 1924.16 1010.14 1933.46 1019.53 1944.87 1019.53 1956.29 1019.53 1965.57 1010.14 1965.57 998.613 1965.57 997.225 1964.49 996.132 1963.12 996.132L1947.31 996.132 1947.31 980.144C1947.31 978.778 1946.22 977.674 1944.87 977.674ZM1914.46 923C1913.36 923 1912.31 923.492 1911.58 924.322L1892.95 945.807C1892.32 946.518 1892.01 947.414 1892.01 948.354L1892.01 1016.13C1892.01 1018.26 1893.71 1020 1895.84 1020L1923.93 1020C1926.03 1020 1927.74 1018.27 1927.74 1016.13 1927.74 1013.98 1926 1012.27 1923.88 1012.27L1899.63 1012.27 1899.63 952.277 1914.09 952.277C1916.19 952.277 1917.93 950.539 1917.93 948.397L1917.93 930.726 1956.03 930.726 1956.03 966.418C1956.03 968.538 1957.72 970.287 1959.84 970.287 1961.98 970.287 1963.68 968.56 1963.68 966.418L1963.68 926.88C1963.68 924.738 1961.98 923 1959.84 923Z" fill="#2AB5E8" fill-rule="evenodd"/></g></svg>