<svg width="109" height="93" xmlns="http://www.w3.org/2000/svg" xmlns:xlink="http://www.w3.org/1999/xlink" xml:space="preserve" overflow="hidden"><g transform="translate(-448 -1486)"><path d="M502.524 1486C501.719 1486 501.07 1486.65 501.07 1487.45L501.07 1498.02C501.07 1498.82 501.719 1499.46 502.524 1499.46 503.329 1499.46 503.965 1498.82 503.965 1498.02L503.965 1487.45C503.965 1486.65 503.329 1486 502.524 1486ZM490.572 1489.18C490.319 1489.18 490.079 1489.24 489.851 1489.38 489.166 1489.76 488.914 1490.63 489.322 1491.33L494.668 1500.5C494.944 1500.98 495.425 1501.21 495.917 1501.21 496.169 1501.21 496.398 1501.16 496.638 1501.01 497.311 1500.62 497.563 1499.75 497.166 1499.06L491.833 1489.91C491.557 1489.44 491.064 1489.18 490.572 1489.18ZM514.392 1489.22C513.888 1489.22 513.395 1489.48 513.131 1489.94L507.821 1499.09C507.461 1499.75 507.689 1500.64 508.386 1501.03 508.602 1501.17 508.854 1501.23 509.107 1501.23 509.587 1501.23 510.08 1500.95 510.332 1500.51L515.653 1491.36C516.062 1490.67 515.81 1489.79 515.113 1489.42 514.885 1489.28 514.632 1489.22 514.392 1489.22ZM481.839 1497.9C481.334 1497.9 480.842 1498.15 480.577 1498.61 480.229 1499.29 480.433 1500.14 481.13 1500.55L490.343 1505.82C490.572 1505.96 490.824 1506.01 491.052 1506.01 491.557 1506.01 492.037 1505.74 492.301 1505.3 492.71 1504.63 492.458 1503.74 491.761 1503.36L482.559 1498.09C482.331 1497.96 482.079 1497.9 481.839 1497.9ZM523.137 1497.87C522.885 1497.87 522.633 1497.93 522.404 1498.06L513.203 1503.33C512.53 1503.74 512.278 1504.63 512.686 1505.33 512.951 1505.78 513.443 1506.03 513.936 1506.03 514.188 1506.03 514.416 1505.96 514.656 1505.82L523.858 1500.55C524.555 1500.14 524.795 1499.29 524.386 1498.6 524.122 1498.14 523.642 1497.87 523.137 1497.87ZM502.5 1506.26C505.191 1506.26 507.413 1508.46 507.413 1511.14 507.413 1513.85 505.215 1516.02 502.5 1516.02 499.773 1516.02 497.599 1513.85 497.599 1511.14 497.599 1508.44 499.797 1506.26 502.5 1506.26ZM469.454 1515.31 478.872 1540.83 460.048 1540.83 469.454 1515.31ZM535.594 1515.31 544.988 1540.83 526.176 1540.83 535.594 1515.31ZM481.743 1546.87C481.178 1546.87 480.625 1547.18 480.397 1547.73 478.535 1552.11 474.235 1554.98 469.418 1554.98 468.613 1554.98 467.952 1555.62 467.952 1556.42 467.952 1557.21 468.613 1557.86 469.418 1557.86 475.388 1557.86 480.746 1554.32 483.064 1548.86 483.364 1548.12 483.028 1547.29 482.295 1546.96 482.115 1546.89 481.923 1546.87 481.743 1546.87ZM547.883 1546.86C547.306 1546.86 546.765 1547.19 546.525 1547.75 544.651 1552.12 540.351 1554.98 535.534 1554.98 534.741 1554.98 534.092 1555.62 534.092 1556.42 534.092 1557.21 534.753 1557.86 535.534 1557.86 541.516 1557.86 546.861 1554.32 549.18 1548.86 549.504 1548.12 549.168 1547.29 548.435 1546.96 548.255 1546.89 548.063 1546.86 547.883 1546.86ZM486.055 1545.44C484.95 1553.57 477.923 1559.83 469.454 1559.83 460.973 1559.83 453.946 1553.57 452.829 1545.44ZM552.219 1545.44C551.078 1553.57 544.087 1559.83 535.606 1559.83 527.137 1559.83 520.11 1553.57 518.969 1545.44ZM518.681 1569.97C519.377 1569.97 519.93 1570.52 519.93 1571.21L519.93 1574.43 484.842 1574.43 484.842 1571.21C484.842 1570.52 485.394 1569.97 486.091 1569.97ZM502.5 1501.67C498.524 1501.67 495.124 1504.12 493.695 1507.56L460.445 1507.56C458.463 1507.56 456.841 1509.17 456.841 1511.14 456.841 1513.13 458.463 1514.74 460.445 1514.74L466.559 1514.74 456.949 1540.83 450.33 1540.83C449.021 1540.83 448.012 1541.88 448.012 1543.13 448.012 1554.86 457.61 1564.42 469.418 1564.42 481.202 1564.42 490.824 1554.86 490.824 1543.13 490.824 1541.86 489.767 1540.83 488.506 1540.83L481.863 1540.83 472.265 1514.74 493.671 1514.74C494.656 1517.1 496.566 1518.98 498.956 1519.92 498.932 1520.08 498.86 1520.22 498.86 1520.4L498.86 1565.36 486.043 1565.36C482.812 1565.36 480.169 1567.96 480.169 1571.18L480.169 1574.39 478.391 1574.39C477.106 1574.39 476.073 1575.42 476.073 1576.69 476.073 1577.98 477.118 1579 478.391 1579L527.113 1579C528.398 1579 529.444 1577.98 529.444 1576.69 529.444 1575.42 528.386 1574.39 527.113 1574.39L524.555 1574.39 524.555 1571.18C524.555 1567.96 521.912 1565.36 518.681 1565.36L506.128 1565.36 506.128 1520.4C506.128 1520.23 506.056 1520.08 506.032 1519.92 508.446 1518.98 510.392 1517.04 511.353 1514.65 511.473 1514.67 511.617 1514.74 511.773 1514.74L532.735 1514.74 523.125 1540.83 516.506 1540.83C515.209 1540.83 514.188 1541.88 514.188 1543.13 514.188 1554.86 523.786 1564.42 535.594 1564.42 547.378 1564.42 557 1554.86 557 1543.13 557 1541.88 555.967 1540.83 554.657 1540.83L548.039 1540.83 538.429 1514.74 544.531 1514.74C546.513 1514.74 548.135 1513.14 548.135 1511.14 548.135 1509.17 546.513 1507.56 544.531 1507.56L511.737 1507.56C511.617 1507.56 511.473 1507.61 511.329 1507.64 509.924 1504.17 506.476 1501.67 502.5 1501.67Z" fill="#2AB4E7" fill-rule="evenodd"/></g></svg>