<svg width="95" height="103" xmlns="http://www.w3.org/2000/svg" xmlns:xlink="http://www.w3.org/1999/xlink" xml:space="preserve" overflow="hidden"><defs><clipPath id="clip0"><rect x="455" y="919" width="95" height="103"/></clipPath></defs><g clip-path="url(#clip0)" transform="translate(-455 -919)"><path d="M541.07 950.679C540.606 943.779 538.083 937.177 533.825 931.729 529.235 925.817 522.787 921.626 515.522 919.833 507.105 917.934 498.28 919.31 490.84 923.681 484.07 927.523 478.761 933.498 475.741 940.675 471.573 940.915 467.554 942.315 464.138 944.715 459.923 947.633 456.897 951.969 455.611 956.932 454.332 962.13 455.077 967.621 457.695 972.291 460.359 977.037 464.669 980.642 469.811 982.423L470.068 982.423C470.602 982.706 471.195 982.861 471.799 982.872L478.691 982.872C480.903 982.872 482.697 981.078 482.697 978.864 482.697 976.65 480.903 974.856 478.691 974.856L472.055 974.856C465.517 972.477 461.758 965.616 463.272 958.823 465.147 952.255 471.404 947.93 478.21 948.499 480.04 948.637 481.731 947.514 482.313 945.773 484.377 939.226 488.844 933.704 494.814 930.318 505.719 923.75 519.815 926.412 527.574 936.506 531.234 941.271 533.228 947.107 533.248 953.116 533.268 954.589 534.127 955.921 535.46 956.547 539.436 958.087 542.067 961.901 542.096 966.166 541.522 970.241 538.71 973.649 534.819 974.984L526.164 974.984C523.951 974.984 522.157 976.778 522.157 978.992 522.157 981.206 523.951 983 526.164 983L535.204 983C535.868 982.967 536.515 982.781 537.095 982.455L537.416 982.455C544.324 980.102 549.231 973.941 549.981 966.679 550.289 960.086 546.837 953.887 541.07 950.679Z" fill="#2AB5E8" fill-rule="evenodd"/><path d="M532.345 987.646C528.24 987.631 524.574 990.197 523.205 994.044L517.541 994.044 517.927 964.935 517.927 964.935C517.892 962.727 516.063 960.966 513.841 961 513.841 961 513.84 961 513.84 961L492.085 961C489.876 961.018 488.095 962.803 488.095 964.999L487.741 993.98 481.658 993.98C479.73 989.039 474.136 986.587 469.165 988.504 464.194 990.421 461.728 995.98 463.656 1000.92 465.585 1005.86 471.178 1008.31 476.149 1006.4 478.678 1005.42 480.677 1003.43 481.658 1000.92L491.313 1000.92C493.035 1000.77 494.396 999.404 494.531 997.691L494.853 968.901 499.39 968.901 499.39 1003.45C494.416 1005.36 491.939 1010.91 493.859 1015.86 495.778 1020.8 501.367 1023.26 506.342 1021.35 511.316 1019.45 513.793 1013.89 511.873 1008.95 510.893 1006.42 508.884 1004.42 506.342 1003.45L506.342 968.997 510.718 968.997 510.622 997.531C510.613 998.46 510.971 999.356 511.619 1000.03 512.279 1000.7 513.184 1001.08 514.13 1001.08L523.495 1001.08C525.628 1005.94 531.318 1008.16 536.205 1006.04 541.092 1003.92 543.324 998.261 541.192 993.404 539.657 989.908 536.183 987.647 532.345 987.646ZM472.808 1000.28C471.315 1000.28 470.105 999.078 470.105 997.594 470.105 996.111 471.315 994.908 472.808 994.908 474.301 994.908 475.511 996.111 475.511 997.594 475.511 999.078 474.301 1000.28 472.808 1000.28ZM502.995 1015.16C501.502 1015.16 500.291 1013.95 500.291 1012.47 500.291 1010.99 501.502 1009.78 502.995 1009.78 504.488 1009.78 505.698 1010.99 505.698 1012.47 505.681 1013.95 504.481 1015.14 502.995 1015.16ZM532.345 999.93C530.852 999.93 529.641 998.727 529.641 997.243 529.641 995.759 530.852 994.556 532.345 994.556 533.838 994.556 535.048 995.759 535.048 997.243 535.048 998.727 533.838 999.93 532.345 999.93Z" fill="#2AB5E8" fill-rule="evenodd"/></g></svg>