<svg width="84" height="85" xmlns="http://www.w3.org/2000/svg" xmlns:xlink="http://www.w3.org/1999/xlink" xml:space="preserve" overflow="hidden"><g transform="translate(-2462 -928)"><path d="M2509.67 974.981 2509.67 988.851C2509.67 992.354 2508.48 993.837 2506.01 993.837 2504.14 993.837 2502.82 992.596 2502.82 992.596L2501.07 995.429C2501.14 995.462 2502.78 997.329 2506.17 997.329 2511.03 997.329 2513.18 994.166 2513.22 989.576L2513.22 974.981ZM2523.94 974.541C2519.17 974.541 2516.61 977.001 2516.61 980.757 2516.61 984.162 2518.65 985.809 2523.15 987.258 2526.69 988.456 2527.41 989.301 2527.41 990.97 2527.41 992.738 2526.37 993.979 2523.89 993.979 2520.7 993.979 2518.37 991.86 2518.37 991.86L2516.43 994.605C2516.43 994.605 2518.88 997.329 2524.02 997.329 2529 997.329 2531.43 994.419 2531.43 990.707 2531.43 987.313 2529.6 985.403 2524.71 983.942 2521.46 982.866 2520.56 982.13 2520.56 980.647 2520.56 978.879 2521.78 977.902 2523.94 977.902 2527.05 977.902 2528.93 979.714 2528.93 979.714L2530.86 976.76C2530.86 976.76 2528.88 974.541 2523.94 974.541ZM2532.22 935.753C2535.57 935.753 2538.31 938.521 2538.31 941.947L2538.31 999.02C2538.31 1002.42 2535.57 1005.2 2532.22 1005.2L2475.82 1005.2C2472.46 1005.2 2469.7 1002.42 2469.7 999.02L2469.7 941.947C2469.7 938.532 2472.45 935.753 2475.82 935.753ZM2475.8 928C2468.2 928 2462 934.26 2462 941.958L2462 999.042C2462 1006.75 2468.2 1013 2475.8 1013L2532.19 1013C2539.8 1013 2545.99 1006.75 2545.99 999.042L2545.99 941.958C2545.99 934.26 2539.8 928 2532.19 928Z" fill="#2AB5E8" fill-rule="evenodd"/></g></svg>