<svg width="85" height="93" xmlns="http://www.w3.org/2000/svg" xmlns:xlink="http://www.w3.org/1999/xlink" xml:space="preserve" overflow="hidden"><defs><clipPath id="clip0"><rect x="746" y="367" width="85" height="93"/></clipPath></defs><g clip-path="url(#clip0)" transform="translate(-746 -367)"><path d="M822.576 406.284 815.914 406.284 815.914 370.722C815.914 368.668 814.272 367.002 812.245 367.002 812.225 367.002 812.206 367.002 812.186 367.002L767.133 367.002C766.002 366.962 764.917 367.457 764.198 368.341L746.88 389.173C746.309 389.842 745.996 390.698 746 391.583L746 456.279C745.984 458.317 747.6 459.983 749.61 459.999 749.63 459.999 749.649 459.999 749.669 459.999L812.186 459.999C814.196 460.049 815.864 458.437 815.913 456.399 815.914 456.359 815.914 456.32 815.914 456.279L815.914 445.566 822.635 445.566C827.248 445.55 830.984 441.762 831 437.085L831 414.766C830.984 410.065 827.213 406.268 822.576 406.284 822.576 406.284 822.576 406.284 822.576 406.284ZM764.491 379.68 764.491 389.322 756.419 389.322ZM808.517 452.56 753.484 452.56 753.484 396.761 768.16 396.761C770.169 396.811 771.838 395.199 771.886 393.162 771.887 393.122 771.888 393.082 771.887 393.041L771.887 374.442 808.576 374.442 808.576 406.284 767.485 406.284C762.872 406.301 759.136 410.088 759.12 414.766L759.12 437.085C759.136 441.762 762.872 445.55 767.485 445.566L808.576 445.566ZM826.128 437.085C826.128 439.139 824.485 440.805 822.459 440.805L767.309 440.805C765.282 440.805 763.64 439.139 763.64 437.085L763.64 414.766C763.64 412.711 765.282 411.046 767.309 411.046L822.576 411.046C824.603 411.046 826.245 412.711 826.245 414.766Z" fill="#2AB5E8" fill-rule="evenodd"/><path d="M772.104 429.16C772.104 431.973 771.128 433.183 769.055 433.183 768.082 433.157 767.147 432.806 766.402 432.185L765 434.483C766.149 435.515 767.659 436.057 769.207 435.995 773.171 435.995 774.97 433.455 775 429.735L775 418 771.951 418Z" fill="#2AB5E8" fill-rule="evenodd"/><path d="M783.985 424.795C781.34 423.957 780.537 423.304 780.537 422.062 780.537 420.82 781.518 419.795 783.242 419.795 784.714 419.766 786.144 420.308 787.255 421.317L788.801 418.895C787.266 417.514 785.26 416.842 783.242 417.032 779.407 417.032 777.297 419.081 777.297 422.186 777.297 425.292 778.932 426.379 782.529 427.559 785.501 428.584 785.947 429.267 785.947 430.664 785.947 432.062 785.115 433.18 782.975 433.18 781.355 433.127 779.798 432.515 778.546 431.441L777 433.677C778.62 435.217 780.755 436.032 782.945 435.943 785.788 436.373 788.426 434.312 788.837 431.342 788.877 431.056 788.894 430.767 788.89 430.478 789.455 427.621 787.85 426.037 783.985 424.795Z" fill="#2AB5E8" fill-rule="evenodd"/><path d="M797.971 418C793.425 418.158 789.867 421.97 790.026 426.514 790.032 426.687 790.043 426.86 790.06 427.032 789.523 431.415 792.643 435.404 797.029 435.94 801.414 436.477 805.404 433.358 805.941 428.975 806.02 428.33 806.02 427.678 805.941 427.032 806.369 422.489 803.03 418.459 798.486 418.032 798.314 418.016 798.143 418.005 797.971 418ZM797.971 433.251C795.008 433.251 792.993 430.556 792.993 427.032 792.993 423.508 795.008 420.724 797.971 420.724 800.934 420.724 803.008 423.478 803.008 427.032 803.395 430.066 801.247 432.839 798.212 433.226 798.132 433.236 798.052 433.244 797.971 433.251Z" fill="#2AB5E8" fill-rule="evenodd"/><path d="M819.104 429.85 810.142 418 808 418 808 435 810.867 435 810.867 423.208 819.828 435 822 435 822 418 819.104 418 819.104 429.85Z" fill="#2AB5E8" fill-rule="evenodd"/></g></svg>