<svg width="99" height="65" xmlns="http://www.w3.org/2000/svg" xmlns:xlink="http://www.w3.org/1999/xlink" xml:space="preserve" overflow="hidden"><g transform="translate(-1311 -1221)"><path d="M1332.54 1232.36C1331.69 1232.36 1331 1233.04 1331 1233.88L1331 1268.82C1331 1269.65 1331.7 1270.33 1332.54 1270.33 1333.41 1270.33 1334.08 1269.65 1334.08 1268.82L1334.08 1235.4 1386.97 1235.4C1387.82 1235.4 1388.51 1234.72 1388.51 1233.88 1388.51 1233.04 1387.82 1232.36 1386.99 1232.36ZM1393.06 1228.68 1393.06 1274.61 1371.98 1274.61C1370.63 1274.61 1369.5 1275.69 1369.5 1277.05L1369.5 1278.64 1351.5 1278.64 1351.5 1277.05C1351.5 1275.72 1350.39 1274.61 1349.02 1274.61L1327.97 1274.61 1327.97 1228.68ZM1346.55 1279.5 1346.55 1281.09 1318.9 1281.09C1317.65 1281.09 1316.81 1280.4 1316.37 1279.5ZM1404.39 1279.5C1403.65 1280.42 1402.44 1281.09 1401.15 1281.09L1374.46 1281.09 1374.46 1279.5ZM1327.07 1221.01C1323.28 1221.01 1320.21 1224.04 1320.21 1227.78L1320.21 1274.61 1313.5 1274.61C1312.13 1274.61 1311.01 1275.72 1311.01 1277.05L1311.01 1277.74C1311.01 1282.45 1314.4 1285.99 1318.9 1285.99L1401.15 1285.99C1405.86 1285.99 1409.99 1282.13 1409.99 1277.74L1409.99 1277.05C1409.99 1275.69 1408.91 1274.61 1407.54 1274.6L1400.81 1274.6 1400.81 1227.78C1400.81 1224.04 1397.73 1221.01 1393.97 1221.01Z" fill="#2AB5E8" fill-rule="evenodd"/></g></svg>