<svg width="89" height="89" xmlns="http://www.w3.org/2000/svg" xmlns:xlink="http://www.w3.org/1999/xlink" xml:space="preserve" overflow="hidden"><defs><clipPath id="clip0"><rect x="3029" y="369" width="89" height="89"/></clipPath></defs><g clip-path="url(#clip0)" transform="translate(-3029 -369)"><path d="M3108.26 375.979C3109.08 375.979 3109.69 376.099 3110.07 376.318 3110.93 377.716 3110.14 382.828 3107.34 389.548 3103 387.071 3099.36 383.407 3096.92 379.024 3101.86 376.927 3105.91 375.979 3108.26 375.979ZM3086.72 395.638C3089.04 395.638 3090.94 397.555 3090.94 399.881 3090.94 402.218 3089.06 404.125 3086.72 404.125 3084.41 404.125 3082.51 402.218 3082.51 399.881 3082.51 397.555 3084.41 395.638 3086.72 395.638ZM3086.72 391.105C3081.93 391.105 3078.03 395.029 3078.03 399.861 3078.03 404.694 3081.93 408.628 3086.72 408.628 3086.73 408.628 3086.74 408.628 3086.74 408.628 3091.54 408.628 3095.42 404.694 3095.42 399.861 3095.42 395.029 3091.52 391.105 3086.72 391.105ZM3058.22 402.268 3058.22 402.268C3055.15 406.76 3052.52 411.373 3050.35 415.756L3041.13 414.339 3051.1 404.294 3058.22 402.268ZM3092.85 380.921C3095.74 386.303 3100.14 390.746 3105.46 393.671 3102.28 400.101 3097.43 407.459 3090.66 414.309 3081.76 423.275 3069.63 429.944 3060.5 433.538L3058.52 431.531 3079.27 410.594C3080.15 409.706 3080.15 408.268 3079.27 407.379 3078.84 406.94 3078.26 406.711 3077.69 406.711 3077.11 406.711 3076.54 406.94 3076.1 407.379L3055.32 428.327 3053.34 426.33C3056.89 417.124 3063.53 404.863 3072.42 395.888 3079.26 388.998 3086.52 384.136 3092.85 380.921ZM3084.32 428.646 3082.3 435.805 3072.35 445.839 3070.94 436.564C3075.29 434.397 3079.87 431.741 3084.32 428.646ZM3043.52 436.044C3043.75 436.044 3044 436.054 3044.28 436.114 3045.21 436.274 3046.18 436.733 3047.09 437.402 3047.01 438.061 3047.21 438.72 3047.71 439.229 3048.15 439.669 3048.71 439.898 3049.28 439.898 3049.35 439.898 3049.43 439.848 3049.5 439.848 3050.88 441.805 3051.55 444.222 3049.73 446.059 3046.82 448.994 3039.42 451.39 3034.42 452.678 3035.81 447.486 3038.33 439.808 3040.91 437.163 3041.67 436.414 3042.52 436.044 3043.52 436.044ZM3108.23 369C3103.51 369 3098.01 370.927 3094.34 372.464 3084.94 376.438 3075.14 383.168 3067.45 390.905 3066.86 391.514 3066.31 392.173 3065.74 392.812L3048.33 397.745C3047.75 397.924 3047.22 398.234 3046.79 398.663L3031.31 414.279C3030.37 415.227 3030.03 416.615 3030.46 417.883 3030.85 419.141 3031.94 420.06 3033.25 420.269L3047.36 422.446C3046.85 423.694 3046.37 424.892 3045.97 426.03 3045.52 427.308 3045.84 428.746 3046.79 429.714L3050.38 433.329 3049.85 433.858C3048.33 432.73 3046.68 431.981 3045.04 431.681 3044.53 431.591 3044.01 431.542 3043.51 431.542 3041.35 431.542 3039.35 432.38 3037.75 433.998 3032.94 438.86 3029.53 453.567 3029.17 455.244 3029 455.983 3029.23 456.752 3029.75 457.321 3030.18 457.76 3030.77 458 3031.36 458 3031.51 458 3031.65 457.98 3031.79 457.95 3033.4 457.64 3047.58 454.675 3052.91 449.284 3056.13 446.049 3056.12 441.226 3053.04 437.053L3053.56 436.534 3057.15 440.148C3057.81 440.817 3058.71 441.186 3059.63 441.186 3060.01 441.186 3060.41 441.106 3060.81 440.977 3061.92 440.577 3063.11 440.118 3064.34 439.609L3066.5 453.836C3066.71 455.134 3067.62 456.233 3068.87 456.652 3069.22 456.752 3069.59 456.812 3069.96 456.812 3070.88 456.812 3071.78 456.442 3072.44 455.773L3087.94 440.148C3088.35 439.719 3088.67 439.179 3088.84 438.61L3093.72 421.098C3094.36 420.499 3095.03 419.92 3095.63 419.321 3112.2 402.567 3121.99 378.355 3115.02 371.326 3113.35 369.629 3110.92 369 3108.23 369Z" fill="#2AB5E8" fill-rule="evenodd"/></g></svg>