<svg width="58" height="82" xmlns="http://www.w3.org/2000/svg" xmlns:xlink="http://www.w3.org/1999/xlink" xml:space="preserve" overflow="hidden"><defs><clipPath id="clip0"><rect x="1903" y="651" width="58" height="82"/></clipPath></defs><g clip-path="url(#clip0)" transform="translate(-1903 -651)"><path d="M1932 672.78C1935.32 672.78 1938.04 675.527 1938.04 678.889 1938.04 682.261 1935.32 685.007 1932 685.007 1928.67 685.007 1925.96 682.261 1925.96 678.889 1925.96 675.527 1928.67 672.78 1932 672.78ZM1932 668.674C1926.43 668.674 1921.9 673.252 1921.9 678.889 1921.9 684.536 1926.43 689.104 1932 689.104 1937.57 689.104 1942.1 684.536 1942.1 678.889 1942.1 673.279 1937.57 668.674 1932 668.674ZM1931.99 657.408C1944.45 657.408 1954.62 667.677 1954.62 680.303 1954.66 686.938 1951.29 693.228 1944.4 699.509 1938.61 704.802 1934.25 713.096 1931.65 719.74 1928.21 712.416 1922.85 703.307 1918.26 698.53 1912.16 692.204 1909.35 686.394 1909.35 680.303 1909.35 667.668 1919.5 657.408 1931.99 657.408ZM1932 651.009C1916.01 651.009 1903.01 664.152 1903.01 680.321 1903.01 690.672 1909.1 698.249 1913.72 703.026 1920.52 710.105 1928.48 727.154 1928.81 729.818 1928.84 731.586 1930.25 733 1932 733 1933.75 733 1935.16 731.586 1935.18 729.818 1935.31 727.525 1940.37 711.818 1948.66 704.268 1956.95 696.672 1961 688.841 1961 680.294 1961 664.152 1947.99 651.009 1932 651.009Z" fill="#2AB5E8" fill-rule="evenodd"/></g></svg>