<svg width="81" height="93" xmlns="http://www.w3.org/2000/svg" xmlns:xlink="http://www.w3.org/1999/xlink" xml:space="preserve" overflow="hidden"><defs><clipPath id="clip0"><rect x="1034" y="367" width="81" height="93"/></clipPath></defs><g clip-path="url(#clip0)" transform="translate(-1034 -367)"><path d="M1106.57 406.284 1104.23 406.284 1104.23 370.721C1104.23 368.667 1102.57 367.001 1100.53 367.001L1055.13 367.001C1053.99 366.974 1052.91 367.467 1052.17 368.34L1034.71 389.172C1034.23 389.848 1033.98 390.662 1034 391.493L1034 456.28C1033.98 458.318 1035.61 459.983 1037.64 460 1037.66 460 1037.68 460 1037.7 460L1100.53 460C1102.56 460.016 1104.21 458.378 1104.23 456.34 1104.23 456.32 1104.23 456.3 1104.23 456.28L1104.23 445.566 1106.57 445.566C1111.22 445.55 1114.98 441.762 1115 437.085L1115 414.765C1114.98 410.088 1111.22 406.3 1106.57 406.284ZM1052.44 379.679 1052.44 389.321 1044.33 389.321ZM1096.83 452.56 1041.34 452.56 1041.34 396.761 1056.14 396.761C1058.16 396.777 1059.82 395.138 1059.84 393.101 1059.84 393.081 1059.84 393.061 1059.84 393.041L1059.84 374.441 1096.83 374.441 1096.83 406.284 1062.17 406.284C1057.52 406.284 1053.74 410.081 1053.74 414.765L1053.74 437.085C1053.74 441.769 1057.52 445.566 1062.17 445.566L1096.83 445.566ZM1110.27 437.085C1110.27 439.139 1108.61 440.805 1106.57 440.805L1062.17 440.805C1060.13 440.805 1058.48 439.139 1058.48 437.085L1058.48 414.765C1058.48 412.711 1060.13 411.045 1062.17 411.045L1106.57 411.045C1108.61 411.045 1110.27 412.711 1110.27 414.765Z" fill="#2AB5E8" fill-rule="evenodd"/><path d="M1067 418 1064 418 1064 436 1075 436 1075 433.366 1067 433.366 1067 418Z" fill="#2AB5E8" fill-rule="evenodd"/><path d="M1081.98 418C1077.41 418.168 1073.84 422.035 1074.01 426.638 1074.01 426.759 1074.02 426.879 1074.03 427 1073.68 431.609 1077.11 435.631 1081.69 435.983 1081.79 435.99 1081.89 435.996 1081.98 436 1086.57 435.831 1090.16 431.949 1089.99 427.33 1089.99 427.22 1089.98 427.11 1089.97 427 1090.34 422.409 1086.94 418.389 1082.37 418.022 1082.24 418.012 1082.11 418.004 1081.98 418ZM1081.98 433.45C1079 433.45 1076.95 430.69 1076.95 427.12 1076.95 423.55 1079 420.76 1081.98 420.76 1084.97 420.76 1087.05 423.52 1087.05 427.12 1087.44 430.21 1085.27 433.033 1082.2 433.426 1082.13 433.436 1082.06 433.444 1081.98 433.45Z" fill="#2AB5E8" fill-rule="evenodd"/><path d="M1098.41 428.296 1102.89 428.296 1102.89 428.533C1103.15 430.891 1101.48 433.016 1099.17 433.28 1099.06 433.292 1098.95 433.3 1098.85 433.304 1095.94 433.304 1094.02 430.548 1094.02 427.022 1094.02 423.496 1095.94 420.711 1098.85 420.711 1100.32 420.693 1101.73 421.306 1102.74 422.4L1104.4 420.237C1102.98 418.695 1100.95 417.88 1098.88 418.014 1094.43 418.13 1090.92 421.896 1091.03 426.428 1091.03 426.587 1091.04 426.745 1091.06 426.904 1090.54 431.373 1093.68 435.421 1098.06 435.946 1098.32 435.977 1098.59 435.995 1098.85 436 1103.33 436 1106 432.652 1106 427.555L1106 425.866 1098.41 425.866Z" fill="#2AB5E8" fill-rule="evenodd"/></g></svg>