<svg width="103" height="102" xmlns="http://www.w3.org/2000/svg" xmlns:xlink="http://www.w3.org/1999/xlink" xml:space="preserve" overflow="hidden"><defs><clipPath id="clip0"><rect x="1309" y="1472" width="103" height="102"/></clipPath></defs><g clip-path="url(#clip0)" transform="translate(-1309 -1472)"><path d="M1345.91 1485.21 1350.43 1498.93 1329.17 1505.92 1330.46 1499.45C1330.66 1498.49 1330.31 1497.45 1329.58 1496.78L1324.64 1492.24 1345.91 1485.21ZM1341.95 1527.55C1344.79 1527.55 1347.07 1529.86 1347.07 1532.7 1347.07 1535.53 1344.79 1537.82 1341.95 1537.82 1339.12 1537.82 1336.83 1535.53 1336.83 1532.7 1336.87 1529.86 1339.15 1527.55 1341.95 1527.55ZM1390.23 1534.73C1393.06 1534.73 1395.35 1537.01 1395.35 1539.85 1395.35 1542.68 1393.06 1544.99 1390.23 1544.99 1387.42 1544.99 1385.11 1542.68 1385.11 1539.85 1385.11 1537.04 1387.42 1534.73 1390.23 1534.73ZM1318.85 1536.93C1321.68 1536.93 1323.98 1539.22 1323.98 1542.06 1323.98 1544.89 1321.68 1547.19 1318.85 1547.19 1316.04 1547.19 1313.75 1544.89 1313.75 1542.06 1313.76 1539.26 1316.06 1536.93 1318.85 1536.93ZM1346.59 1472C1346.22 1472 1345.83 1472.06 1345.45 1472.18 1343.56 1472.81 1342.53 1474.86 1343.15 1476.75L1344.13 1479.69 1318.22 1488.26C1317.23 1488.58 1316.52 1489.4 1316.31 1490.4 1316.07 1491.41 1316.42 1492.45 1317.16 1493.15L1324.53 1499.93 1322.6 1509.67C1322.41 1510.67 1322.77 1511.73 1323.54 1512.4 1324.07 1512.87 1324.76 1513.12 1325.43 1513.12 1325.76 1513.12 1326.04 1513.06 1326.37 1512.98L1352.3 1504.41 1360.41 1529.03C1360.47 1529.18 1360.55 1529.28 1360.63 1529.42L1353.15 1536.17 1350.94 1536.56C1351.46 1535.38 1351.74 1534.09 1351.74 1532.7 1351.74 1527.33 1347.38 1522.95 1342.02 1522.95 1336.65 1522.95 1332.29 1527.33 1332.29 1532.7 1332.29 1535.71 1333.69 1538.37 1335.84 1540.15 1334.08 1541.27 1332.83 1542.78 1332.06 1544.67L1328 1545.47C1328.41 1544.4 1328.65 1543.27 1328.65 1542.06 1328.65 1536.69 1324.28 1532.33 1318.92 1532.33 1313.57 1532.33 1309.2 1536.69 1309.2 1542.06 1309.2 1545.81 1311.34 1549.02 1314.45 1550.69 1313.46 1551.88 1312.76 1553.35 1312.4 1555.07L1309.28 1569.75C1309.01 1570.98 1309.82 1572.22 1311.06 1572.49 1311.19 1572.55 1311.37 1572.55 1311.54 1572.55 1312.61 1572.55 1313.57 1571.79 1313.78 1570.71L1316.94 1556.03C1317.32 1554.12 1318.35 1552.07 1322.89 1551.24L1330.83 1549.64 1326.55 1569.75C1326.27 1570.98 1327.08 1572.22 1328.32 1572.49 1328.47 1572.55 1328.65 1572.55 1328.8 1572.55 1329.87 1572.55 1330.83 1571.79 1331.04 1570.71L1336.01 1547.53C1336.43 1545.63 1337.43 1543.58 1341.9 1542.76L1354.63 1540.64C1355.08 1540.57 1355.48 1540.36 1355.78 1540.09L1365.94 1530.9 1365.94 1530.9C1366.43 1532.77 1366.54 1535.17 1364.77 1536.86L1356.08 1545.46 1352.01 1546.7C1351.56 1546.72 1351.14 1546.84 1350.8 1547.08L1342.74 1549.56C1341.51 1549.93 1340.81 1551.24 1341.2 1552.43 1341.51 1553.44 1342.42 1554.09 1343.41 1554.09 1343.63 1554.09 1343.86 1554.05 1344.07 1553.98L1349.07 1552.43 1349.07 1552.43 1345.62 1569.77C1345.38 1571.02 1346.17 1572.23 1347.42 1572.49 1347.58 1572.51 1347.74 1572.55 1347.86 1572.55 1348.94 1572.55 1349.91 1571.78 1350.15 1570.68L1354.08 1550.92 1357.98 1549.74C1358.34 1549.63 1358.67 1549.44 1358.94 1549.18L1364.95 1543.2 1365.88 1546.1C1365.55 1546.25 1365.29 1546.49 1365.07 1546.77 1364.63 1547.35 1364.49 1548.12 1364.73 1548.81 1364.77 1549.04 1365.98 1552.95 1369.14 1555.67L1374.17 1571.48C1374.61 1572.89 1375.88 1573.84 1377.31 1573.99 1377.41 1574 1377.51 1574 1377.62 1574 1377.98 1574 1378.35 1573.95 1378.71 1573.83 1380.6 1573.22 1381.66 1571.2 1381.06 1569.29L1377.65 1558.39 1385.5 1558.65 1390.44 1572.29C1390.76 1573.22 1391.65 1573.81 1392.59 1573.81 1392.86 1573.81 1393.13 1573.76 1393.37 1573.66 1394.57 1573.25 1395.2 1571.92 1394.75 1570.71L1390.46 1558.82 1393.48 1558.93C1394.75 1558.91 1395.82 1557.96 1395.87 1556.7 1395.9 1555.43 1394.91 1554.35 1393.65 1554.3L1376.34 1553.72C1373.62 1553.72 1371.79 1552.06 1370.65 1550.45L1393.55 1550.45C1398.93 1550.45 1399.75 1551.84 1401.3 1555.73L1407.35 1572.31C1407.67 1573.25 1408.56 1573.83 1409.51 1573.83 1409.77 1573.83 1410.03 1573.8 1410.31 1573.7 1411.38 1573.22 1412 1571.92 1411.56 1570.71L1405.48 1554.09C1403.93 1550.19 1402.32 1547.25 1397.52 1546.24 1399.02 1544.51 1399.97 1542.31 1399.97 1539.85 1399.97 1534.48 1395.6 1530.1 1390.23 1530.1 1384.87 1530.1 1380.51 1534.48 1380.51 1539.85 1380.51 1542.12 1381.31 1544.15 1382.61 1545.81L1373.26 1545.81 1370.29 1536.41C1371.97 1531.41 1368.92 1526.02 1368.76 1525.75 1368.41 1525.15 1367.81 1524.75 1367.12 1524.65 1367.07 1524.63 1367.03 1524.63 1366.98 1524.63 1366.82 1524.63 1366.69 1524.67 1366.56 1524.68L1350.01 1474.46C1349.5 1472.95 1348.11 1472 1346.59 1472Z" fill="#2AB5E8" fill-rule="evenodd"/></g></svg>