<svg width="69" height="81" xmlns="http://www.w3.org/2000/svg" xmlns:xlink="http://www.w3.org/1999/xlink" xml:space="preserve" overflow="hidden"><defs><clipPath id="clip0"><rect x="754" y="1213" width="69" height="81"/></clipPath></defs><g clip-path="url(#clip0)" transform="translate(-754 -1213)"><path d="M788.487 1213C771.368 1213 754 1218.29 754 1228.42L754 1278.58C754 1288.71 771.368 1294 788.487 1294 805.607 1294 823 1288.71 823 1278.58L823 1228.42C823 1218.29 805.632 1213 788.487 1213ZM816.946 1278.58C816.946 1282.36 805.855 1287.82 788.487 1287.82 771.12 1287.82 760.054 1282.36 760.054 1278.58L760.054 1237.5C766.604 1241.68 777.595 1243.83 788.487 1243.83 799.38 1243.83 810.371 1241.68 816.946 1237.5ZM788.487 1237.65C771.12 1237.65 760.054 1232.19 760.054 1228.42 760.054 1224.64 771.144 1219.18 788.487 1219.18 805.831 1219.18 816.946 1224.64 816.946 1228.42 816.946 1232.19 805.855 1237.65 788.487 1237.65Z" fill="#2AB5E8" fill-rule="evenodd"/><path d="M776.74 1264.97 776.74 1266.72 774.596 1267.87C774.331 1268.01 774.133 1268.27 774.046 1268.56 773.959 1268.88 773.997 1269.22 774.153 1269.5L777.52 1275.51C777.716 1275.88 778.089 1276.1 778.494 1276.1 778.669 1276.08 778.836 1276.02 778.981 1275.91L781.032 1274.76C781.874 1275.52 782.826 1276.13 783.853 1276.58L783.853 1278.84C783.853 1279.48 784.355 1280 784.974 1280L791.751 1280C792.369 1280 792.871 1279.48 792.876 1278.84L792.876 1276.59C793.97 1276.13 794.997 1275.51 795.926 1274.76L797.982 1275.91C798.148 1276.01 798.334 1276.06 798.523 1276.07 798.928 1276.07 799.302 1275.84 799.497 1275.47L802.854 1269.47C803.136 1268.89 802.921 1268.17 802.367 1267.86L800.418 1266.73C800.471 1266.13 800.492 1265.53 800.482 1264.93 800.482 1264.33 800.482 1263.74 800.428 1263.18L802.43 1262.01C802.97 1261.68 803.159 1260.97 802.854 1260.41L799.478 1254.52C799.165 1253.99 798.515 1253.8 797.982 1254.08L795.936 1255.23C795.009 1254.46 793.978 1253.82 792.876 1253.35L792.876 1251.16C792.871 1250.52 792.369 1250 791.751 1250L784.998 1250C784.38 1249.99 783.867 1250.49 783.854 1251.13 783.853 1251.14 783.853 1251.15 783.853 1251.16L783.853 1253.39C782.826 1253.83 781.875 1254.45 781.037 1255.21L779.225 1254.11C779.052 1254 778.855 1253.94 778.655 1253.95 778.256 1253.94 777.885 1254.16 777.68 1254.52L774.338 1260.41C774.167 1260.69 774.124 1261.03 774.221 1261.35 774.302 1261.65 774.495 1261.9 774.757 1262.06L776.838 1263.27C776.777 1263.84 776.745 1264.4 776.74 1264.97ZM785.315 1274.62C784.194 1274.25 783.166 1273.63 782.304 1272.8L781.88 1272.46C781.684 1272.3 781.437 1272.21 781.183 1272.21 780.996 1272.21 780.812 1272.26 780.648 1272.35L778.918 1273.29 776.667 1269.34 778.338 1268.4C778.733 1268.21 778.981 1267.79 778.972 1267.34L778.972 1264.93C778.972 1264.6 778.972 1264.26 778.972 1263.92 779.04 1263.48 779.074 1263.04 779.074 1262.59 779.071 1262.17 778.854 1261.79 778.504 1261.58L776.847 1260.57 779.045 1256.7 780.594 1257.64C781.011 1257.9 781.541 1257.85 781.905 1257.52L781.997 1257.44C782.936 1256.48 784.07 1255.76 785.315 1255.31 785.78 1255.16 786.1 1254.72 786.109 1254.22L786.109 1252.34 790.635 1252.34 790.635 1254.22C790.637 1254.73 790.956 1255.18 791.424 1255.33 792.787 1255.79 794.04 1256.54 795.103 1257.54 795.305 1257.71 795.56 1257.81 795.824 1257.81 796.011 1257.81 796.195 1257.76 796.36 1257.67L798.099 1256.73 800.326 1260.63 798.625 1261.64C798.173 1261.9 797.955 1262.45 798.099 1262.96 798.208 1263.64 798.254 1264.33 798.236 1265.02 798.25 1265.75 798.201 1266.48 798.089 1267.2 797.973 1267.71 798.204 1268.23 798.65 1268.48L800.326 1269.42 798.099 1273.4 796.37 1272.46C795.975 1272.24 795.491 1272.28 795.137 1272.57 794.071 1273.55 792.82 1274.28 791.463 1274.73 790.983 1274.88 790.651 1275.33 790.645 1275.85L790.645 1277.67 786.119 1277.67 786.119 1275.77C786.13 1275.24 785.802 1274.77 785.315 1274.62Z" fill="#2AB5E8" fill-rule="evenodd"/><path d="M788.5 1259C784.91 1259 782 1261.91 782 1265.5 782 1269.09 784.91 1272 788.5 1272L788.5 1272C792.09 1272 795 1269.09 795 1265.5 795 1261.91 792.09 1259 788.5 1259ZM788.5 1270.02C786.004 1270.02 783.978 1268 783.975 1265.51 783.972 1263.01 785.993 1260.98 788.49 1260.98 790.986 1260.98 793.012 1263 793.015 1265.49 793.015 1265.5 793.015 1265.5 793.015 1265.5 793.018 1268 790.997 1270.02 788.5 1270.03Z" fill="#2AB5E8" fill-rule="evenodd"/></g></svg>