<svg width="44" height="71" xmlns="http://www.w3.org/2000/svg" xmlns:xlink="http://www.w3.org/1999/xlink" xml:space="preserve" overflow="hidden"><defs><clipPath id="clip0"><rect x="1624" y="1218" width="44" height="71"/></clipPath></defs><g clip-path="url(#clip0)" transform="translate(-1624 -1218)"><path d="M1633.56 1289 1658.51 1289C1663.69 1289.01 1667.92 1284.93 1668 1279.84L1668 1227.16C1667.92 1222.04 1663.64 1217.94 1658.42 1218L1633.56 1218C1628.34 1217.94 1624.06 1222.04 1624 1227.16 1624 1227.16 1624 1227.16 1624 1227.16L1624 1279.84C1624.06 1284.96 1628.34 1289.06 1633.56 1289 1633.56 1289 1633.56 1289 1633.56 1289ZM1629.83 1227.16C1629.85 1225.16 1631.52 1223.55 1633.56 1223.57L1658.51 1223.57C1660.56 1223.54 1662.24 1225.15 1662.26 1227.16 1662.26 1227.16 1662.26 1227.16 1662.26 1227.16L1662.26 1231.33 1629.83 1231.33ZM1629.83 1234.9 1662.26 1234.9 1662.26 1272.1 1629.83 1272.1ZM1629.83 1275.67 1662.26 1275.67 1662.26 1279.84C1662.24 1281.85 1660.56 1283.46 1658.51 1283.43 1658.51 1283.43 1658.51 1283.43 1658.51 1283.43L1633.56 1283.43C1631.52 1283.45 1629.85 1281.84 1629.83 1279.84Z" fill="#2AB5E8" fill-rule="evenodd"/><path d="M1645.23 1225.15C1644.98 1225.25 1644.76 1225.4 1644.57 1225.6 1644.2 1225.97 1644 1226.48 1644 1227.01 1644 1227.26 1644.05 1227.52 1644.16 1227.76 1644.45 1228.53 1645.18 1229.02 1645.99 1229 1646.52 1229 1647.02 1228.79 1647.4 1228.41 1648.16 1227.69 1648.2 1226.47 1647.5 1225.69 1647.47 1225.66 1647.44 1225.63 1647.4 1225.6 1646.83 1225.02 1645.98 1224.84 1645.23 1225.15Z" fill="#2AB5E8" fill-rule="evenodd"/><path d="M1643.53 1281 1648.47 1281C1649.32 1281 1650 1280.33 1650 1279.5 1650 1278.67 1649.32 1278 1648.47 1278L1643.53 1278C1642.68 1278 1642 1278.67 1642 1279.5 1642 1280.33 1642.68 1281 1643.53 1281Z" fill="#2AB5E8" fill-rule="evenodd"/></g></svg>