<svg width="87" height="87" xmlns="http://www.w3.org/2000/svg" xmlns:xlink="http://www.w3.org/1999/xlink" xml:space="preserve" overflow="hidden"><defs><clipPath id="clip0"><rect x="3032" y="1484" width="87" height="87"/></clipPath></defs><g clip-path="url(#clip0)" transform="translate(-3032 -1484)"><path d="M3085.84 1492.57C3095.38 1495.38 3103.3 1502.05 3107.82 1510.71L3084.87 1512.17C3082.12 1510.49 3078.93 1509.51 3075.47 1509.51 3075.17 1509.51 3074.86 1509.54 3074.53 1509.56L3085.84 1492.57ZM3075.49 1491.02C3077.41 1491.02 3079.3 1491.23 3081.13 1491.52L3068.11 1511.08C3065.42 1512.31 3063.1 1514.14 3061.3 1516.45L3055.75 1496.88C3061.43 1493.2 3068.22 1491.02 3075.49 1491.02ZM3051.89 1499.76 3058.28 1522.24C3057.75 1523.9 3057.48 1525.68 3057.48 1527.5 3057.48 1529.16 3057.72 1530.74 3058.15 1532.28L3039.16 1524.84C3039.89 1514.83 3044.66 1505.91 3051.89 1499.76ZM3075.47 1516.52C3081.53 1516.52 3086.45 1521.44 3086.45 1527.5 3086.45 1533.56 3081.53 1538.48 3075.47 1538.48 3069.42 1538.48 3064.5 1533.56 3064.5 1527.5 3064.5 1521.44 3069.42 1516.52 3075.47 1516.52ZM3109.72 1515.11C3111.12 1518.97 3111.93 1523.14 3111.93 1527.5 3111.94 1533.16 3110.6 1538.52 3108.28 1543.29L3093.4 1525.85C3093.07 1522.28 3091.7 1519.03 3089.61 1516.38L3109.72 1515.11ZM3039.13 1529.68 3061.07 1538.24C3062.8 1540.55 3065.06 1542.43 3067.67 1543.7L3049.13 1552.63C3043.35 1546.57 3039.67 1538.54 3039.13 1529.68ZM3092.85 1532.13 3105.92 1547.48C3100.82 1555.27 3092.79 1560.97 3083.41 1563.07L3088.23 1540.19C3090.42 1537.98 3092.04 1535.23 3092.85 1532.13ZM3082.85 1543.92 3078.66 1563.82C3077.61 1563.9 3076.54 1563.98 3075.47 1563.98 3066.85 1563.96 3058.91 1560.95 3052.68 1555.92L3074.37 1545.47C3074.74 1545.48 3075.11 1545.53 3075.47 1545.53 3078.11 1545.53 3080.59 1544.95 3082.85 1543.92ZM3075.47 1484.01C3051.47 1484.01 3032 1503.47 3032 1527.5 3032 1551.53 3051.47 1571 3075.49 1571 3099.51 1571 3118.99 1551.53 3118.99 1527.5 3118.96 1503.47 3099.5 1484.01 3075.47 1484.01Z" fill="#2AB5E8" fill-rule="evenodd"/></g></svg>