<svg width="85" height="84" xmlns="http://www.w3.org/2000/svg" xmlns:xlink="http://www.w3.org/1999/xlink" xml:space="preserve" overflow="hidden"><defs><clipPath id="clip0"><rect x="460" y="665" width="85" height="84"/></clipPath></defs><g clip-path="url(#clip0)" transform="translate(-460 -665)"><path d="M502.5 665C479.028 665 460 683.804 460 707 460 730.196 479.028 749 502.5 749 525.972 749 545 730.196 545 707 544.971 683.816 525.96 665.029 502.5 665ZM466.538 707C466.527 687.387 482.607 671.479 502.453 671.467 510.872 671.463 519.024 674.378 525.489 679.707L474.882 729.719C469.484 723.351 466.531 715.307 466.538 707ZM502.5 742.539C494.094 742.547 485.955 739.627 479.511 734.294L530.119 684.281C542.83 699.344 540.778 721.738 525.536 734.299 519.071 739.627 510.918 742.544 502.5 742.539Z" fill="#2AB5E8" fill-rule="evenodd"/></g></svg>