<svg width="90" height="99" xmlns="http://www.w3.org/2000/svg" xmlns:xlink="http://www.w3.org/1999/xlink" xml:space="preserve" overflow="hidden"><defs><clipPath id="clip0"><rect x="1030" y="922" width="90" height="99"/></clipPath></defs><g clip-path="url(#clip0)" transform="translate(-1030 -922)"><path d="M1100.08 923.898C1098.77 923.898 1097.71 924.967 1097.71 926.275 1097.71 927.595 1098.77 928.675 1100.08 928.675L1116.89 928.675C1118.19 928.675 1119.26 927.595 1119.26 926.275 1119.26 924.967 1118.19 923.898 1116.89 923.898ZM1100.08 934.684C1098.77 934.684 1097.71 935.753 1097.71 937.062 1097.71 938.393 1098.77 939.462 1100.08 939.462L1116.89 939.462C1118.19 939.462 1119.26 938.393 1119.26 937.062 1119.26 935.753 1118.19 934.684 1116.89 934.684ZM1100.08 945.471C1098.77 945.471 1097.71 946.54 1097.71 947.871 1097.71 949.179 1098.77 950.248 1100.08 950.248L1116.89 950.248C1118.19 950.248 1119.26 949.179 1119.26 947.871 1119.26 946.54 1118.19 945.471 1116.89 945.471ZM1032.76 922C1031.43 922 1030.31 923.123 1030.31 924.487L1030.31 949.67C1030.31 951.023 1031.43 952.124 1032.76 952.124L1042.41 952.124C1043.77 952.124 1044.87 951.023 1044.87 949.67 1044.87 948.307 1043.77 947.183 1042.41 947.183L1035.22 947.183 1035.22 926.941 1085.21 926.941 1085.21 947.183 1079.05 947.183C1077.69 947.183 1076.59 948.307 1076.59 949.67 1076.59 951.023 1077.69 952.124 1079.05 952.124L1087.67 952.124C1089 952.124 1090.12 951.023 1090.12 949.67L1090.12 924.487C1090.12 923.123 1089 922 1087.67 922ZM1060.64 944.98C1062.89 944.98 1064.74 946.845 1064.74 949.114L1064.74 980.045C1064.74 982.172 1066.44 983.917 1068.59 983.917 1070.69 983.917 1072.41 982.205 1072.41 980.045L1072.41 974.919C1072.41 972.651 1074.27 970.786 1076.52 970.786 1078.77 970.786 1080.63 972.651 1080.63 974.919L1080.63 980.034C1080.63 982.15 1082.34 983.906 1084.46 983.906 1086.58 983.906 1088.31 982.172 1088.31 980.034L1088.31 974.919C1088.31 972.651 1090.16 970.786 1092.42 970.786 1094.67 970.786 1096.52 972.651 1096.52 974.919L1096.52 980.034C1096.52 982.15 1098.22 983.906 1100.37 983.906 1102.47 983.906 1104.19 982.172 1104.19 980.034L1104.19 974.919C1104.19 972.651 1106.04 970.786 1108.3 970.786 1110.57 970.786 1112.39 972.651 1112.39 974.919L1112.39 1007.96 1112.32 1007.96C1112.32 1012.34 1110.36 1013.23 1107.41 1013.23L1054.6 1013.23 1039.17 997.703C1036.67 995.173 1038.53 992.893 1039.17 992.25 1040.72 990.679 1045.07 986.382 1048.85 982.652L1048.85 990.679C1048.85 992.817 1050.57 994.54 1052.7 994.54 1054.8 994.54 1056.54 992.828 1056.54 990.679L1056.54 949.114C1056.54 946.845 1058.38 944.98 1060.64 944.98ZM1060.56 937.28C1054.06 937.28 1048.79 942.603 1048.79 949.114L1048.79 971.876C1045.6 975.028 1036.18 984.321 1033.7 986.807 1029.01 991.563 1029.01 998.445 1033.7 1003.19L1050.26 1019.84C1050.98 1020.59 1051.95 1020.99 1052.98 1020.99L1107.39 1020.99C1115.17 1020.99 1119.99 1016 1119.99 1007.97L1119.99 974.919C1119.99 968.375 1114.7 963.064 1108.2 963.064 1105.15 963.064 1102.37 964.274 1100.25 966.216 1098.16 964.274 1095.39 963.064 1092.32 963.064 1089.26 963.064 1086.48 964.274 1084.36 966.216 1082.27 964.274 1079.5 963.064 1076.42 963.064 1074.97 963.064 1073.61 963.369 1072.32 963.849L1072.32 949.114C1072.32 942.57 1067.03 937.28 1060.56 937.28Z" fill="#2AB5E8" fill-rule="evenodd"/></g></svg>