<svg width="81" height="81" xmlns="http://www.w3.org/2000/svg" xmlns:xlink="http://www.w3.org/1999/xlink" xml:space="preserve" overflow="hidden"><defs><clipPath id="clip0"><rect x="176" y="1213" width="81" height="81"/></clipPath></defs><g clip-path="url(#clip0)" transform="translate(-176 -1213)"><path d="M233.817 1250.98 229.439 1253.5 233.817 1256.01C234.927 1256.63 235.327 1258.03 234.71 1259.14 234.094 1260.25 232.694 1260.65 231.583 1260.03 231.559 1260.02 231.535 1260.01 231.511 1259.99L223.671 1255.49C222.573 1254.86 222.193 1253.45 222.824 1252.36 223.026 1252 223.319 1251.71 223.671 1251.51L231.511 1247C232.613 1246.37 234.02 1246.75 234.661 1247.84 235.296 1248.93 234.927 1250.33 233.837 1250.97 233.83 1250.97 233.823 1250.97 233.817 1250.98ZM229.673 1263.19 221.835 1258.69C220.725 1258.06 219.309 1258.44 218.672 1259.55 218.476 1259.89 218.371 1260.28 218.366 1260.68L218.366 1269.68C218.403 1270.95 219.466 1271.96 220.74 1271.92 221.962 1271.88 222.944 1270.9 222.979 1269.68L222.979 1264.64 227.369 1267.16C228.45 1267.83 229.867 1267.49 230.534 1266.41 231.2 1265.33 230.864 1263.92 229.783 1263.25 229.747 1263.23 229.71 1263.21 229.673 1263.19ZM220.63 1254.39 217.37 1257.63C217.259 1257.73 217.114 1257.79 216.962 1257.8L216.012 1257.8C215.86 1257.79 215.715 1257.73 215.602 1257.63L212.339 1254.39C212.239 1254.28 212.18 1254.14 212.17 1253.99L212.17 1253.03C212.177 1252.88 212.237 1252.74 212.339 1252.63L215.594 1249.39C215.707 1249.29 215.852 1249.23 216.004 1249.22L216.962 1249.22C217.114 1249.23 217.258 1249.29 217.37 1249.39L220.63 1252.63C220.73 1252.74 220.789 1252.88 220.797 1253.03L220.797 1253.99C220.787 1254.14 220.728 1254.28 220.63 1254.39ZM218.025 1253.49C218.014 1253.34 217.954 1253.19 217.852 1253.08L216.909 1252.14C216.797 1252.04 216.653 1251.98 216.502 1251.97L216.464 1251.97C216.317 1251.98 216.177 1252.04 216.068 1252.14L215.122 1253.08C215.023 1253.19 214.965 1253.34 214.958 1253.49L214.958 1253.52C214.966 1253.67 215.024 1253.81 215.122 1253.92L216.068 1254.86C216.178 1254.96 216.317 1255.02 216.464 1255.03L216.502 1255.03C216.653 1255.02 216.796 1254.96 216.909 1254.86L217.852 1253.92C217.953 1253.81 218.013 1253.67 218.025 1253.52ZM203.294 1243.81 211.133 1248.31C212.244 1248.95 213.662 1248.56 214.299 1247.45 214.496 1247.11 214.602 1246.72 214.607 1246.33L214.607 1237.31C214.607 1236.03 213.574 1235 212.299 1235 211.024 1235 209.991 1236.03 209.991 1237.31L209.991 1242.35 205.6 1239.82C204.544 1239.12 203.116 1239.4 202.409 1240.46 201.702 1241.51 201.985 1242.94 203.04 1243.65 203.119 1243.7 203.201 1243.75 203.286 1243.79L203.286 1243.79ZM220.499 1248.61C220.965 1248.65 221.43 1248.54 221.835 1248.31L229.673 1243.81C230.772 1243.18 231.152 1241.78 230.522 1240.68 230.522 1240.68 230.522 1240.68 230.521 1240.68L230.521 1240.68C229.881 1239.58 228.475 1239.2 227.373 1239.84L222.983 1242.36 222.983 1237.31C222.946 1236.03 221.883 1235.03 220.609 1235.07 219.387 1235.1 218.406 1236.09 218.37 1237.31L218.37 1246.31C218.372 1247.52 219.302 1248.52 220.503 1248.6ZM212.471 1258.4C212.005 1258.36 211.538 1258.46 211.133 1258.7L203.294 1263.2C202.183 1263.81 201.783 1265.21 202.4 1266.32 203.017 1267.43 204.417 1267.83 205.527 1267.22 205.552 1267.2 205.576 1267.19 205.6 1267.18L209.991 1264.66 209.991 1269.69C209.991 1270.97 211.024 1272 212.299 1272 213.574 1272 214.607 1270.97 214.607 1269.69L214.607 1260.68C214.604 1259.48 213.673 1258.48 212.471 1258.39ZM210.346 1254.18C210.421 1253.94 210.457 1253.69 210.451 1253.43 210.443 1253.25 210.415 1253.07 210.366 1252.89 210.208 1252.3 209.821 1251.8 209.291 1251.5L201.46 1247C200.357 1246.37 198.949 1246.74 198.309 1247.84 197.675 1248.94 198.047 1250.34 199.14 1250.97 199.147 1250.97 199.153 1250.98 199.16 1250.98L203.522 1253.5 199.16 1256.01C198.061 1256.65 197.687 1258.06 198.324 1259.16 198.961 1260.25 200.369 1260.63 201.468 1259.99L209.299 1255.49C209.804 1255.2 210.181 1254.73 210.354 1254.18Z" fill="#2AB4E7" fill-rule="evenodd"/><path d="M256.869 1263.08C256.626 1262.26 256.072 1261.57 255.326 1261.16L249.761 1258.13C249.93 1256.51 249.996 1254.89 249.959 1253.27 249.991 1251.7 249.932 1250.12 249.783 1248.54L255.373 1245.38C256.113 1244.95 256.651 1244.25 256.865 1243.43 257.073 1242.63 256.965 1241.78 256.562 1241.05L247.181 1225.19C246.62 1224.22 245.586 1223.64 244.472 1223.64 243.954 1223.64 243.443 1223.77 242.98 1224L237.289 1227.11C234.696 1225.02 231.816 1223.32 228.738 1222.05L228.738 1216.13C228.719 1214.41 227.324 1213.02 225.599 1213L206.725 1213C205.001 1213.02 203.607 1214.41 203.588 1216.13L203.588 1222.13C200.725 1223.35 198.071 1225.02 195.721 1227.06L190.664 1224.07C190.182 1223.8 189.636 1223.65 189.079 1223.64 187.965 1223.64 186.932 1224.22 186.372 1225.19L176.949 1241.06C176.473 1241.82 176.362 1242.74 176.646 1243.59 176.852 1244.4 177.382 1245.1 178.112 1245.51L183.926 1248.8C183.915 1248.95 183.915 1249.1 183.926 1249.25L183.926 1249.86C183.77 1251.03 183.677 1252.2 183.649 1253.37L183.649 1258.1 177.656 1261.19C176.914 1261.57 176.365 1262.25 176.139 1263.06 175.883 1263.9 175.984 1264.81 176.418 1265.58L185.803 1281.79C186.354 1282.77 187.388 1283.37 188.51 1283.37 189.041 1283.37 189.562 1283.23 190.028 1282.98L195.721 1279.89C198.075 1281.92 200.729 1283.56 203.588 1284.77L203.588 1290.87C203.607 1292.59 205.001 1293.98 206.725 1294L225.599 1294C227.324 1293.98 228.719 1292.59 228.738 1290.87L228.738 1284.8C231.794 1283.56 234.662 1281.9 237.259 1279.87L243.053 1282.88C243.519 1283.13 244.04 1283.27 244.571 1283.27 245.695 1283.27 246.73 1282.66 247.278 1281.68L256.637 1265.5C257.021 1264.75 257.104 1263.89 256.869 1263.08ZM207.637 1279.39C204.512 1278.39 201.645 1276.71 199.237 1274.48L198.048 1273.57C197.497 1273.13 196.808 1272.89 196.1 1272.89 195.578 1272.89 195.065 1273.02 194.608 1273.27L189.776 1275.8 183.477 1265.15 188.157 1262.63C189.256 1262.1 189.947 1260.99 189.927 1259.77L189.927 1253.27C189.878 1252.35 189.878 1251.42 189.927 1250.5 190.109 1249.31 190.202 1248.11 190.206 1246.91 190.208 1245.78 189.602 1244.74 188.621 1244.18L183.982 1241.49 190.125 1231.05 194.451 1233.58C195.591 1234.25 197.033 1234.13 198.044 1233.28L198.297 1233.08C200.944 1230.49 204.133 1228.53 207.633 1227.33 208.934 1226.93 209.83 1225.74 209.858 1224.38L209.858 1219.32 222.509 1219.32 222.509 1224.38C222.509 1225.75 223.4 1226.97 224.711 1227.38 228.517 1228.62 232.018 1230.64 234.982 1233.32 235.55 1233.8 236.266 1234.06 237.005 1234.06 237.528 1234.06 238.042 1233.93 238.499 1233.68L243.356 1231.15 249.555 1241.67 244.799 1244.35C243.536 1245.05 242.927 1246.53 243.333 1247.91 243.671 1249.74 243.798 1251.6 243.711 1253.46 243.787 1255.43 243.655 1257.4 243.315 1259.35 242.992 1260.72 243.638 1262.13 244.884 1262.78L249.565 1265.31 243.335 1276.05 238.503 1273.52C238.045 1273.27 237.531 1273.14 237.009 1273.14 236.303 1273.14 235.615 1273.37 235.053 1273.79 232.085 1276.43 228.595 1278.42 224.808 1279.63 223.482 1279.98 222.532 1281.15 222.454 1282.51L222.454 1287.57 209.813 1287.57 209.813 1282.52C209.869 1281.11 208.981 1279.83 207.637 1279.39Z" fill="#2AB5E8" fill-rule="evenodd"/></g></svg>