<svg width="68" height="67" xmlns="http://www.w3.org/2000/svg" xmlns:xlink="http://www.w3.org/1999/xlink" xml:space="preserve" overflow="hidden"><defs><clipPath id="clip0"><rect x="1898" y="1501" width="68" height="67"/></clipPath></defs><g clip-path="url(#clip0)" transform="translate(-1898 -1501)"><path d="M1955.68 1501 1908.32 1501C1902.63 1501.03 1898.03 1505.56 1898 1511.17L1898 1557.83C1898.03 1563.44 1902.63 1567.97 1908.32 1568L1955.68 1568C1961.37 1567.97 1965.97 1563.44 1966 1557.83L1966 1511.17C1965.97 1505.56 1961.37 1501.03 1955.68 1501ZM1960.16 1557.83C1960.15 1560.27 1958.15 1562.23 1955.68 1562.25L1908.32 1562.25C1905.85 1562.23 1903.85 1560.27 1903.84 1557.83L1903.84 1511.17C1903.85 1508.73 1905.85 1506.77 1908.32 1506.75L1955.68 1506.75C1958.15 1506.77 1960.15 1508.73 1960.16 1511.17Z" fill="#2AB5E8" fill-rule="evenodd"/><path d="M1952.16 1517.7 1948.05 1517.7C1947.05 1514.26 1943.37 1512.27 1939.84 1513.25 1937.63 1513.86 1935.9 1515.55 1935.27 1517.7L1911.84 1517.7C1910.83 1517.7 1910 1518.51 1910 1519.5 1910 1520.49 1910.83 1521.3 1911.84 1521.3L1935.27 1521.3C1936.28 1524.74 1939.95 1526.73 1943.48 1525.75 1945.69 1525.14 1947.42 1523.45 1948.05 1521.3L1952.16 1521.3C1953.17 1521.3 1954 1520.49 1954 1519.5 1954 1518.51 1953.17 1517.7 1952.16 1517.7ZM1941.66 1522.42C1940.02 1522.42 1938.69 1521.12 1938.69 1519.52L1938.69 1519.52C1938.83 1517.92 1940.29 1516.73 1941.94 1516.87 1943.38 1516.99 1944.53 1518.11 1944.66 1519.52L1944.66 1519.52C1944.65 1521.13 1943.31 1522.42 1941.66 1522.42Z" fill="#2AB5E8" fill-rule="evenodd"/><path d="M1952.16 1532.55 1929.95 1532.55C1929.2 1528.79 1925.67 1526.37 1922.07 1527.15 1919.47 1527.71 1917.43 1529.83 1916.9 1532.55L1911.84 1532.55C1910.83 1532.55 1910 1533.42 1910 1534.48 1910 1535.54 1910.83 1536.41 1911.84 1536.41L1917.17 1536.41C1918.41 1540.01 1922.22 1541.89 1925.67 1540.59 1927.53 1539.89 1929 1538.36 1929.67 1536.41L1952.16 1536.41C1953.17 1536.41 1954 1535.54 1954 1534.48 1954 1533.42 1953.17 1532.55 1952.16 1532.55ZM1923.42 1537.13C1921.77 1537.14 1920.41 1535.75 1920.4 1534.02 1920.39 1532.29 1921.72 1530.88 1923.38 1530.87 1925.03 1530.85 1926.38 1532.24 1926.4 1533.97 1926.4 1533.99 1926.4 1534.01 1926.4 1534.02 1926.38 1535.73 1925.06 1537.12 1923.42 1537.13Z" fill="#2AB5E8" fill-rule="evenodd"/><path d="M1952.16 1547.06 1938.37 1547.06C1937.37 1543.36 1933.7 1541.21 1930.19 1542.27 1927.98 1542.93 1926.26 1544.74 1925.63 1547.06L1911.84 1547.06C1910.82 1547.06 1910 1547.93 1910 1549 1910 1550.07 1910.82 1550.94 1911.84 1550.94L1925.63 1550.94C1926.63 1554.64 1930.3 1556.79 1933.81 1555.73 1936.02 1555.07 1937.74 1553.26 1938.37 1550.94L1952.16 1550.94C1953.18 1550.94 1954 1550.07 1954 1549 1954 1547.93 1953.18 1547.06 1952.16 1547.06ZM1932.07 1552.12C1930.42 1552.12 1929.08 1550.71 1929.08 1548.98 1929.08 1547.24 1930.42 1545.83 1932.07 1545.83 1933.72 1545.83 1935.06 1547.24 1935.06 1548.98 1935.06 1548.98 1935.06 1548.99 1935.06 1549 1935.04 1550.73 1933.71 1552.12 1932.07 1552.12Z" fill="#2AB5E8" fill-rule="evenodd"/></g></svg>