<svg width="64" height="70" xmlns="http://www.w3.org/2000/svg" xmlns:xlink="http://www.w3.org/1999/xlink" xml:space="preserve" overflow="hidden"><defs><clipPath id="clip0"><rect x="1614" y="1499" width="64" height="70"/></clipPath></defs><g clip-path="url(#clip0)" transform="translate(-1614 -1499)"><path d="M1661.18 1499 1630.82 1499C1621.53 1499 1614 1506.61 1614 1516 1614 1525.39 1621.53 1533 1630.82 1533L1661.18 1533C1670.47 1533 1678 1525.39 1678 1516 1678 1506.61 1670.47 1499 1661.18 1499ZM1661.18 1526.93 1630.82 1526.93C1624.85 1526.93 1620.01 1522.04 1620.01 1516 1620.01 1509.96 1624.85 1505.07 1630.82 1505.07L1661.18 1505.07C1667.15 1505.07 1671.99 1509.96 1671.99 1516 1671.99 1522.04 1667.15 1526.93 1661.18 1526.93Z" fill="#2AB5E8" fill-rule="evenodd"/><path d="M1661.18 1536 1630.82 1536C1621.53 1536 1614 1543.39 1614 1552.5 1614 1561.61 1621.53 1569 1630.82 1569L1661.18 1569C1670.47 1569 1678 1561.61 1678 1552.5 1678 1543.39 1670.47 1536 1661.18 1536ZM1661.18 1563.11 1630.82 1563.11C1624.85 1563.11 1620.01 1558.36 1620.01 1552.5 1620.01 1546.64 1624.85 1541.89 1630.82 1541.89L1661.18 1541.89C1667.15 1541.89 1671.99 1546.64 1671.99 1552.5 1671.99 1558.36 1667.15 1563.11 1661.18 1563.11Z" fill="#2AB5E8" fill-rule="evenodd"/><path d="M1631 1508C1626.58 1508 1623 1511.58 1623 1516 1623 1520.42 1626.58 1524 1631 1524 1635.37 1524 1638.93 1520.49 1639 1516.12 1639.07 1511.7 1635.54 1508.07 1631.12 1508 1631.08 1508 1631.04 1508 1631 1508ZM1631 1520.16C1628.73 1520.18 1626.87 1518.37 1626.84 1516.1 1626.82 1513.83 1628.63 1511.97 1630.9 1511.94 1633.17 1511.91 1635.03 1513.73 1635.06 1516 1635.06 1516.04 1635.06 1516.08 1635.06 1516.12 1634.98 1518.32 1633.19 1520.06 1631 1520.08Z" fill="#2AB5E8" fill-rule="evenodd"/><path d="M1660.95 1544C1656.53 1544.03 1652.97 1547.63 1653 1552.05 1653.03 1556.47 1656.63 1560.03 1661.05 1560 1665.46 1559.97 1669.01 1556.38 1669 1551.98 1669 1547.57 1665.43 1544 1661.02 1544 1661 1544 1660.98 1544 1660.95 1544ZM1660.95 1556.16C1658.68 1556.16 1656.84 1554.32 1656.84 1552.05 1656.84 1549.78 1658.68 1547.94 1660.95 1547.94 1663.22 1547.94 1665.06 1549.78 1665.06 1552.05 1665.02 1554.29 1663.19 1556.09 1660.95 1556.09Z" fill="#2AB5E8" fill-rule="evenodd"/></g></svg>