<svg width="105" height="99" xmlns="http://www.w3.org/2000/svg" xmlns:xlink="http://www.w3.org/1999/xlink" xml:space="preserve" overflow="hidden"><defs><clipPath id="clip0"><rect x="164" y="1483" width="105" height="99"/></clipPath></defs><g clip-path="url(#clip0)" transform="translate(-164 -1483)"><path d="M229.985 1490.19C234.406 1490.19 238.019 1493.77 238.019 1498.14 238.019 1499.86 237.429 1501.52 236.333 1502.93 236.261 1503.07 236.176 1503.15 236.104 1503.26L222.396 1519.47 208.809 1504.06C208.701 1503.89 208.592 1503.77 208.448 1503.63 207.014 1502.12 206.219 1500.19 206.219 1498.14 206.231 1493.77 209.845 1490.19 214.266 1490.19 216.253 1490.19 218.168 1490.94 219.686 1492.32 220.373 1492.95 221.252 1493.27 222.119 1493.27 222.999 1493.27 223.878 1492.95 224.564 1492.32 226.07 1490.94 227.997 1490.19 229.985 1490.19ZM214.266 1483.01C205.834 1483.01 198.992 1489.8 198.992 1498.14 198.992 1501.87 200.389 1505.42 202.883 1508.23 202.955 1508.31 202.991 1508.41 203.087 1508.48L219.734 1527.37C220.433 1528.14 221.421 1528.58 222.469 1528.58L222.505 1528.58C223.565 1528.57 224.564 1528.1 225.251 1527.3L242.018 1507.43C242.199 1507.24 242.344 1507 242.476 1506.76 244.295 1504.18 245.222 1501.24 245.222 1498.14 245.222 1489.79 238.357 1483.01 229.949 1483.01 227.178 1483.01 224.48 1483.75 222.119 1485.19 219.734 1483.78 217.036 1483.01 214.266 1483.01ZM259.617 1525.95C260.496 1525.95 261.375 1526.25 262.098 1526.86 263.652 1528.26 263.833 1530.6 262.435 1532.2L245.138 1552.95C242.332 1556.4 238.911 1557.95 234.104 1557.95L209.363 1557.95C205.195 1557.95 202.57 1558.44 199.932 1561.04L199.377 1561.59 184.236 1546.58C184.032 1546.37 183.791 1546.22 183.574 1546.04 185.899 1542.07 189.994 1539.04 195.764 1536.97 197.884 1536.22 200.016 1535.95 202.003 1535.95 207.123 1535.95 211.23 1537.77 211.29 1537.79 211.579 1537.94 211.917 1537.99 212.266 1537.99L234.9 1537.99C236.983 1537.99 238.658 1539.67 238.658 1541.71 238.658 1543.77 236.959 1545.44 234.9 1545.44L218.337 1545.44C217.048 1545.44 216.012 1546.47 216.012 1547.75 216.012 1549.04 217.036 1550.06 218.337 1550.06L234.9 1550.06C239.537 1550.06 243.307 1546.33 243.307 1541.71 243.307 1541.46 243.259 1541.27 243.235 1541.02L256.798 1527.23C257.533 1526.38 258.581 1525.95 259.617 1525.95ZM177.949 1551.17C178.202 1551.17 178.683 1551.23 179.117 1551.65L194.571 1566.98C195.198 1567.62 195.198 1568.65 194.571 1569.3L189.488 1574.33C189.067 1574.76 188.597 1574.81 188.332 1574.81 188.079 1574.81 187.597 1574.76 187.163 1574.33L171.709 1558.99C171.3 1558.58 171.251 1558.1 171.251 1557.85 171.251 1557.6 171.324 1557.12 171.709 1556.69L176.792 1551.65C177.226 1551.23 177.684 1551.17 177.949 1551.17ZM259.593 1521.36C257.268 1521.36 254.967 1522.32 253.365 1524.15L241.332 1536.44C239.766 1534.62 237.501 1533.42 234.9 1533.42L212.724 1533.42C211.327 1532.85 207.147 1531.36 202.027 1531.36 199.57 1531.36 196.896 1531.71 194.21 1532.67 187.151 1535.16 182.14 1539.07 179.298 1544.21 178.84 1544.15 178.382 1544.12 177.925 1544.12 175.636 1544.12 173.335 1544.94 171.673 1546.59L166.59 1551.63C164.915 1553.31 164 1555.52 164 1557.86 164 1560.23 164.915 1562.44 166.59 1564.11L182.044 1579.42C183.73 1581.09 185.971 1582 188.332 1582 190.705 1582 192.945 1581.09 194.607 1579.42L199.691 1574.4C202.088 1572.02 202.786 1568.65 201.883 1565.65L203.232 1564.32C204.533 1563.01 205.605 1562.6 209.363 1562.6L234.104 1562.6C240.284 1562.6 245.078 1560.4 248.752 1555.89L265.953 1535.21C269 1531.72 268.639 1526.43 265.134 1523.42 263.532 1522.04 261.556 1521.36 259.593 1521.36Z" fill="#29B5E8" fill-rule="evenodd"/></g></svg>