<svg width="81" height="79" xmlns="http://www.w3.org/2000/svg" xmlns:xlink="http://www.w3.org/1999/xlink" xml:space="preserve" overflow="hidden"><defs><clipPath id="clip0"><rect x="748" y="1488" width="81" height="79"/></clipPath></defs><g clip-path="url(#clip0)" transform="translate(-748 -1488)"><path d="M772.833 1500.41 772.833 1510.12 754.242 1510.12 762.026 1500.41ZM761.045 1518.16C759.467 1518.16 758.201 1519.46 758.201 1521.04 758.201 1522.63 759.467 1523.92 761.045 1523.92 762.624 1523.92 763.89 1522.63 763.89 1521.04 763.89 1519.46 762.624 1518.16 761.045 1518.16ZM772.833 1514.18 772.833 1527.73 752.03 1527.73 752.03 1514.18ZM800.903 1499.46C799.789 1499.46 798.87 1500.38 798.87 1501.5L798.87 1503.24C794.465 1503.96 791.603 1507.01 791.603 1511.31 791.603 1516.27 794.635 1517.8 798.852 1519.89L801.18 1521.07C805.469 1523.21 806.155 1523.72 806.155 1525.99 806.155 1529.78 802.143 1530.07 800.912 1530.07 799.682 1530.07 795.669 1529.78 795.669 1525.99 795.669 1524.88 794.76 1523.95 793.645 1523.95 792.53 1523.95 791.63 1524.88 791.63 1525.99 791.63 1530.26 794.474 1533.31 798.888 1534L798.888 1535.8C798.888 1536.92 799.798 1537.83 800.912 1537.83 802.027 1537.83 802.927 1536.92 802.927 1535.8L802.927 1534C807.35 1533.31 810.195 1530.26 810.195 1525.99 810.195 1521.02 807.154 1519.5 802.963 1517.41L800.636 1516.25C796.347 1514.1 795.642 1513.58 795.642 1511.31 795.642 1507.48 799.673 1507.17 800.903 1507.17 802.437 1507.17 806.039 1507.58 806.039 1511.31 806.039 1512.43 806.949 1513.35 808.063 1513.35 809.178 1513.35 810.088 1512.43 810.088 1511.31 810.088 1507.03 807.279 1503.97 802.91 1503.27L802.91 1501.5C802.91 1500.38 802.009 1499.46 800.903 1499.46ZM761.045 1535.38C759.467 1535.38 758.201 1536.67 758.201 1538.27 758.201 1539.84 759.467 1541.14 761.045 1541.14 762.624 1541.14 763.89 1539.84 763.89 1538.27 763.89 1536.68 762.624 1535.4 761.045 1535.38ZM772.833 1531.84 772.833 1545.33 752.03 1545.33 752.03 1531.84ZM779.146 1494.39 822.696 1494.58 822.696 1542.25 789.133 1542.25C788.179 1542.25 787.261 1542.71 786.663 1543.46L779.146 1553.03 779.146 1494.39ZM805.665 1553.73C806.779 1553.73 807.68 1554.66 807.68 1555.77 807.68 1556.9 806.779 1557.82 805.665 1557.82L789.766 1557.82C788.652 1557.82 787.742 1556.9 787.742 1555.77 787.742 1554.66 788.652 1553.73 789.766 1553.73ZM761.063 1552.88C762.632 1552.88 763.908 1554.17 763.908 1555.76 763.89 1557.37 762.624 1558.64 761.063 1558.64 759.485 1558.64 758.21 1557.35 758.21 1555.76 758.21 1554.17 759.485 1552.88 761.063 1552.88ZM775.999 1488.01C775.161 1488.12 774.349 1488.34 773.761 1488.95 773.163 1489.54 772.833 1490.35 772.833 1491.19L772.833 1496.33 761.063 1496.33C760.448 1496.33 759.868 1496.62 759.485 1497.09L748.455 1510.87C748.33 1511.03 748.232 1511.17 748.161 1511.34 748.161 1511.36 748.152 1511.36 748.152 1511.36 748.054 1511.58 748.018 1511.83 748.018 1512.06 748.018 1512.1 748 1512.11 748 1512.14L748 1558.07C748 1562.58 748.562 1567 755.374 1567L809.339 1567C815.028 1567 817.917 1563.99 817.917 1558.07L817.917 1548.64 825.835 1548.64C827.582 1548.64 829 1547.21 829 1545.44L829 1491.39C828.982 1489.64 827.582 1488.22 825.844 1488.22L775.999 1488.01Z" fill="#2AB5E8" fill-rule="evenodd"/></g></svg>