<svg width="119" height="65" xmlns="http://www.w3.org/2000/svg" xmlns:xlink="http://www.w3.org/1999/xlink" xml:space="preserve" overflow="hidden"><g transform="translate(-157 -381)"><path d="M216.493 391.904C215.084 391.904 213.951 393.051 213.951 394.477L213.951 398.943C213.951 400.369 215.084 401.516 216.493 401.516 217.916 401.516 219.036 400.356 219.036 398.943L219.036 394.477C219.036 393.051 217.916 391.904 216.493 391.904ZM196.891 396.21C196.535 396.21 196.166 396.29 195.81 396.45 194.546 397.05 193.992 398.57 194.585 399.849L196.482 403.915C196.904 404.862 197.813 405.395 198.761 405.395 199.143 405.395 199.512 405.315 199.842 405.155 201.12 404.568 201.66 403.022 201.08 401.742L199.183 397.676C198.748 396.743 197.839 396.21 196.891 396.21ZM236.03 396.53C235.082 396.53 234.173 397.063 233.738 397.996L231.841 402.049C231.261 403.342 231.802 404.888 233.079 405.475 233.409 405.635 233.778 405.715 234.16 405.715 235.108 405.715 236.017 405.182 236.439 404.235L238.336 400.169C238.942 398.89 238.375 397.357 237.111 396.77 236.755 396.61 236.386 396.53 236.03 396.53ZM180.963 408.541C180.226 408.541 179.501 408.847 179.014 409.461 178.131 410.54 178.289 412.153 179.356 413.073L182.742 415.953C183.216 416.339 183.796 416.539 184.362 416.539 185.087 416.539 185.838 416.206 186.325 415.593 187.208 414.5 187.05 412.9 185.97 411.993L182.584 409.114C182.11 408.728 181.53 408.541 180.963 408.541ZM251.773 409.087C251.207 409.087 250.64 409.274 250.179 409.674L246.767 412.527C245.7 413.42 245.516 415.06 246.425 416.153 246.952 416.766 247.65 417.072 248.374 417.072 248.941 417.072 249.534 416.886 249.995 416.486L253.407 413.633C254.474 412.74 254.632 411.114 253.736 410.034 253.236 409.407 252.511 409.087 251.773 409.087ZM171.702 426.591C170.582 426.591 169.568 427.377 169.291 428.523 168.909 429.87 169.739 431.296 171.083 431.629L175.365 432.736C175.588 432.789 175.786 432.816 175.997 432.816 177.13 432.816 178.144 432.043 178.434 430.896 178.816 429.51 177.986 428.124 176.642 427.79L172.361 426.684C172.137 426.617 171.926 426.591 171.702 426.591ZM260.745 427.27C260.534 427.27 260.323 427.297 260.112 427.35L255.844 428.457C254.5 428.817 253.657 430.203 254.026 431.549 254.329 432.723 255.357 433.482 256.476 433.482 256.687 433.482 256.885 433.469 257.122 433.402L261.39 432.296C262.734 431.949 263.538 430.536 263.208 429.177 262.905 428.044 261.878 427.27 260.745 427.27ZM216.493 427.55C222.158 427.55 226.954 431.256 228.772 436.375L204.242 436.375C206.02 431.256 210.816 427.55 216.493 427.55ZM216.533 390.651C242.486 390.651 263.867 410.74 266.251 436.375L234.976 436.375C234.542 434.456 233.778 432.643 232.803 430.99L243.381 422.418C244.672 421.392 244.896 419.472 243.856 418.192 243.263 417.446 242.393 417.059 241.511 417.059 240.865 417.059 240.207 417.272 239.666 417.712L228.996 426.364C225.649 423.391 221.302 421.538 216.507 421.538 207.509 421.538 200.013 427.884 198.063 436.402L166.762 436.402C169.146 410.767 190.554 390.651 216.533 390.651ZM216.493 381.013C183.704 381.013 157 407.994 157 441.214 157 443.867 159.134 446 161.73 446L271.205 446C273.813 446 275.934 443.867 275.934 441.214 276 407.994 249.31 381.013 216.493 381.013Z" fill="#2AB5E8" fill-rule="evenodd"/></g></svg>