<svg width="99" height="99" xmlns="http://www.w3.org/2000/svg" xmlns:xlink="http://www.w3.org/1999/xlink" xml:space="preserve" overflow="hidden"><defs><clipPath id="clip0"><rect x="1025" y="921" width="99" height="99"/></clipPath></defs><g clip-path="url(#clip0)" transform="translate(-1025 -921)"><path d="M1065.82 957.133 1088 969.869 1065.69 982.879 1065.82 957.133ZM1061.97 946.549C1061.3 946.549 1060.64 946.713 1060.04 947.054 1058.83 947.756 1058.1 949.008 1058.08 950.402L1057.9 989.609C1057.9 990.993 1058.62 992.299 1059.83 993.002 1060.43 993.342 1061.1 993.518 1061.76 993.518 1062.43 993.518 1063.1 993.342 1063.73 993.002L1097.69 973.206C1098.89 972.504 1099.61 971.23 1099.61 969.847 1099.63 968.463 1098.9 967.179 1097.69 966.487L1063.9 947.054C1063.3 946.713 1062.63 946.549 1061.97 946.549ZM1074.49 928.751C1097.51 928.751 1116.23 947.46 1116.23 970.483 1116.23 993.485 1097.51 1012.23 1074.49 1012.23 1051.5 1012.23 1032.77 993.485 1032.77 970.483 1032.77 947.46 1051.5 928.751 1074.49 928.751ZM1074.49 921C1047.23 921 1025.01 943.211 1025.01 970.505 1025.01 997.778 1047.23 1020 1074.49 1020 1101.78 1020 1124 997.778 1124 970.505 1124 943.189 1101.79 921 1074.49 921Z" fill="#2AB5E8" fill-rule="evenodd"/></g></svg>