<svg width="95" height="99" xmlns="http://www.w3.org/2000/svg" xmlns:xlink="http://www.w3.org/1999/xlink" xml:space="preserve" overflow="hidden"><defs><clipPath id="clip0"><rect x="1599" y="642" width="95" height="99"/></clipPath></defs><g clip-path="url(#clip0)" transform="translate(-1599 -642)"><path d="M1654.46 642.011C1653.09 642.011 1651.99 643.123 1651.99 644.475L1651.99 646.863C1648.73 647.681 1646.58 650.167 1646.58 653.492 1646.58 657.701 1649.26 659.031 1652.4 660.568L1654.09 661.408C1657.18 662.956 1657.18 663.076 1657.18 664.112 1657.18 665.823 1655.42 666.074 1654.37 666.085 1653.29 666.085 1651.5 665.823 1651.5 664.122 1651.5 662.749 1650.43 661.647 1649.06 661.647 1647.68 661.647 1646.58 662.771 1646.58 664.122 1646.58 667.546 1648.87 670.065 1652.35 670.784L1652.35 671.766C1652.35 673.139 1653.43 674.241 1654.8 674.241 1656.18 674.241 1657.28 673.128 1657.28 671.766L1657.28 670.534C1660.22 669.618 1662.12 667.219 1662.12 664.112 1662.12 659.87 1659.42 658.54 1656.3 657.003L1654.62 656.141C1651.5 654.637 1651.5 654.506 1651.5 653.492 1651.5 651.737 1653.29 651.486 1654.36 651.486 1655.62 651.486 1657.13 651.824 1657.13 653.492 1657.13 654.844 1658.22 655.945 1659.59 655.945 1660.96 655.945 1662.06 654.833 1662.06 653.492 1662.06 650.254 1660 647.79 1656.92 646.928L1656.92 644.475C1656.92 643.09 1655.83 642.011 1654.46 642.011ZM1631.94 688.251C1631.11 688.251 1630.41 688.949 1630.41 689.788 1630.41 690.65 1631.11 691.326 1631.94 691.326L1675.45 691.326C1676.29 691.326 1676.97 690.65 1676.97 689.788 1676.97 688.949 1676.29 688.251 1675.45 688.251ZM1634.94 695.959C1634.1 695.959 1633.4 696.657 1633.4 697.497 1633.4 698.358 1634.1 699.034 1634.94 699.034L1672.35 699.034C1673.21 699.034 1673.88 698.358 1673.88 697.497 1673.88 696.657 1673.21 695.959 1672.35 695.959ZM1637.94 703.679C1637.1 703.679 1636.4 704.355 1636.4 705.216 1636.4 706.056 1637.1 706.743 1637.94 706.743L1669.61 706.743C1670.46 706.743 1671.14 706.056 1671.14 705.216 1671.14 704.355 1670.46 703.679 1669.61 703.679ZM1602.85 666.456C1600.72 666.456 1599 668.178 1599 670.294L1599 676.432C1599 678.547 1600.72 680.281 1602.85 680.281 1604.96 680.281 1606.68 678.547 1606.68 676.432L1606.68 674.153 1611.58 674.153 1628.08 716.73C1628.65 718.202 1630.08 719.172 1631.65 719.172L1676.6 719.172C1678.18 719.172 1679.61 718.202 1680.17 716.708L1693.53 681.785C1694 680.608 1693.84 679.278 1693.13 678.231 1692.43 677.173 1691.24 676.574 1689.96 676.574L1627.91 676.574C1625.79 676.574 1624.06 678.297 1624.06 680.412 1624.06 682.549 1625.79 684.271 1627.91 684.271L1684.38 684.271 1673.96 711.485 1634.28 711.485 1617.76 668.898C1617.19 667.426 1615.78 666.456 1614.19 666.456ZM1642.33 726.052C1645.07 726.052 1647.31 728.309 1647.31 731.057 1647.31 733.826 1645.06 736.061 1642.33 736.061 1639.59 736.061 1637.34 733.826 1637.34 731.057 1637.34 728.309 1639.56 726.052 1642.33 726.052ZM1665.93 726.052C1668.68 726.052 1670.91 728.309 1670.91 731.057 1670.91 733.826 1668.68 736.061 1665.93 736.061 1663.19 736.061 1660.95 733.826 1660.95 731.057 1660.95 728.309 1663.18 726.052 1665.93 726.052ZM1642.37 721.135C1642.35 721.135 1642.34 721.135 1642.33 721.135 1636.86 721.135 1632.41 725.583 1632.41 731.057 1632.41 736.552 1636.86 741 1642.33 741 1647.77 741 1652.22 736.519 1652.22 731.057 1652.22 725.583 1647.79 721.135 1642.37 721.135ZM1665.92 721.135C1660.45 721.135 1656 725.583 1656 731.057 1656 736.552 1660.45 741 1665.92 741 1671.38 741 1675.82 736.519 1675.82 731.057 1675.82 725.572 1671.38 721.135 1665.92 721.135Z" fill="#2AB5E8" fill-rule="evenodd"/></g></svg>