<svg width="121" height="117" xmlns="http://www.w3.org/2000/svg" xmlns:xlink="http://www.w3.org/1999/xlink" xml:space="preserve" overflow="hidden"><g transform="translate(-2158 -355)"><path d="M2209.23 360.773C2211.01 360.773 2212.48 362.239 2212.48 364.062 2212.48 365.872 2211.01 367.338 2209.23 367.338 2207.42 367.338 2205.95 365.872 2205.95 364.062 2205.95 362.239 2207.42 360.773 2209.23 360.773ZM2196.72 368.514C2196.25 368.514 2195.77 368.633 2195.32 368.897L2178.09 378.91C2176.74 379.703 2176.28 381.446 2177.05 382.807 2177.6 383.679 2178.51 384.194 2179.49 384.194 2179.97 384.194 2180.43 384.075 2180.9 383.824L2198.15 373.798C2199.49 373.018 2199.93 371.261 2199.16 369.927 2198.64 369.029 2197.69 368.514 2196.72 368.514ZM2221.69 368.474C2220.73 368.474 2219.79 368.976 2219.26 369.874 2218.49 371.248 2218.95 372.992 2220.27 373.771L2237.57 383.824C2238.02 384.101 2238.52 384.194 2239 384.194 2239.97 384.194 2240.9 383.679 2241.43 382.78 2242.21 381.433 2241.74 379.676 2240.4 378.897L2223.09 368.857C2222.66 368.593 2222.17 368.474 2221.69 368.474ZM2167.18 385.237C2167.73 385.237 2168.3 385.37 2168.79 385.66 2170.35 386.572 2170.91 388.593 2170.01 390.152 2169.4 391.208 2168.3 391.79 2167.18 391.79 2166.62 391.79 2166.07 391.644 2165.56 391.354 2164 390.455 2163.45 388.434 2164.37 386.862 2164.97 385.819 2166.06 385.237 2167.18 385.237ZM2251.26 385.224C2252.37 385.224 2253.47 385.806 2254.07 386.862 2254.98 388.434 2254.43 390.455 2252.87 391.354 2252.36 391.644 2251.79 391.79 2251.24 391.79 2250.13 391.79 2249.04 391.208 2248.44 390.152 2247.52 388.593 2248.07 386.572 2249.62 385.66 2250.14 385.37 2250.69 385.224 2251.26 385.224ZM2226.7 396.439 2226.7 396.902 2227.7 396.902 2227.7 399.649 2228.23 399.649 2228.23 396.902 2229.22 396.902 2229.22 396.439ZM2229.71 396.439 2229.71 399.649 2230.26 399.649 2230.26 397.417 2231.18 398.606 2231.37 398.606 2232.3 397.417 2232.3 399.649 2232.8 399.649 2232.8 396.439 2232.42 396.439 2231.27 397.919 2230.14 396.439ZM2204.77 392.899C2203.38 392.899 2202.28 394.022 2202.28 395.396L2202.28 400.891 2197.55 398.144C2197.14 397.919 2196.72 397.813 2196.3 397.813 2195.44 397.813 2194.61 398.249 2194.14 399.042 2193.46 400.284 2193.85 401.803 2195.03 402.49L2203.5 407.404C2203.91 407.615 2204.31 407.721 2204.73 407.721 2204.81 407.721 2204.87 407.721 2204.94 407.707 2206.22 407.615 2207.23 406.532 2207.23 405.198L2207.23 395.396C2207.23 394.022 2206.13 392.899 2204.77 392.899ZM2213.8 392.926C2212.44 392.926 2211.31 394.062 2211.31 395.436L2211.31 405.237C2211.31 406.532 2212.33 407.615 2213.62 407.707 2213.69 407.721 2213.76 407.721 2213.83 407.721 2214.25 407.721 2214.66 407.615 2215.06 407.404L2223.52 402.49C2224.72 401.803 2225.1 400.284 2224.42 399.081 2223.94 398.289 2223.1 397.853 2222.25 397.853 2221.83 397.853 2221.4 397.959 2221.02 398.183L2216.26 400.931 2216.26 395.436C2216.26 394.062 2215.18 392.926 2213.8 392.926ZM2209.28 411.38C2209.44 411.38 2209.63 411.459 2209.72 411.552L2210.75 412.556C2210.84 412.661 2210.93 412.846 2210.93 413.005L2210.93 413.044C2210.93 413.203 2210.84 413.401 2210.75 413.493L2209.72 414.524C2209.63 414.616 2209.44 414.696 2209.28 414.696L2209.24 414.696C2209.08 414.696 2208.89 414.616 2208.79 414.524L2207.78 413.493C2207.68 413.401 2207.6 413.203 2207.6 413.044L2207.6 413.005C2207.6 412.846 2207.68 412.661 2207.78 412.556L2208.79 411.552C2208.89 411.459 2209.08 411.38 2209.24 411.38ZM2208.75 408.342C2208.6 408.342 2208.4 408.434 2208.31 408.54L2204.81 412.067C2204.69 412.159 2204.61 412.357 2204.65 412.516L2204.65 412.754 2204.65 413.282 2204.65 413.533C2204.65 413.692 2204.7 413.89 2204.81 413.995L2208.31 417.522C2208.4 417.641 2208.6 417.721 2208.75 417.721L2209.76 417.721C2209.92 417.721 2210.12 417.615 2210.21 417.522L2213.73 413.995C2213.84 413.89 2213.92 413.692 2213.92 413.533L2213.92 413.282 2213.92 412.754 2213.92 412.516C2213.92 412.357 2213.84 412.159 2213.73 412.067L2210.21 408.54C2210.12 408.421 2209.92 408.342 2209.76 408.342ZM2191.78 405.634C2190.93 405.634 2190.08 406.083 2189.62 406.875 2188.94 408.091 2189.33 409.596 2190.52 410.283L2195.26 413.031 2190.52 415.752C2189.33 416.439 2188.93 417.958 2189.62 419.174 2190.08 419.966 2190.92 420.402 2191.77 420.402 2192.2 420.402 2192.63 420.297 2193.03 420.072L2201.49 415.171C2202.08 414.867 2202.46 414.365 2202.65 413.771 2202.73 413.493 2202.76 413.229 2202.76 412.952 2202.76 412.754 2202.74 412.556 2202.66 412.357 2202.5 411.75 2202.12 411.221 2201.49 410.865L2193.03 405.964C2192.63 405.739 2192.21 405.634 2191.78 405.634ZM2226.75 405.647C2226.32 405.647 2225.88 405.752 2225.49 405.99L2217.02 410.891C2216.45 411.221 2216.05 411.75 2215.88 412.357 2215.84 412.556 2215.8 412.754 2215.78 412.952 2215.78 413.229 2215.8 413.493 2215.9 413.758 2216.07 414.339 2216.46 414.867 2217.02 415.184L2225.49 420.085C2225.88 420.31 2226.3 420.429 2226.73 420.429 2227.59 420.429 2228.43 419.979 2228.9 419.187 2229.58 417.972 2229.19 416.466 2228.01 415.779L2223.27 413.044 2228.01 410.297C2229.19 409.61 2229.59 408.104 2228.9 406.888 2228.44 406.096 2227.6 405.647 2226.75 405.647ZM2251.26 400.138C2249.7 400.138 2248.44 401.42 2248.44 402.992L2248.44 418.341C2248.44 419.913 2249.7 421.195 2251.26 421.195 2252.81 421.195 2254.07 419.913 2254.07 418.341L2254.07 402.992C2254.07 401.42 2252.81 400.138 2251.26 400.138ZM2167.18 399.966C2165.62 399.966 2164.37 401.235 2164.37 402.807L2164.37 423.137C2164.37 424.695 2165.62 425.977 2167.18 425.977 2168.74 425.95 2170.01 424.695 2170.01 423.137L2170.01 402.807C2170.01 401.235 2168.74 399.966 2167.18 399.966ZM2213.83 418.341C2213.76 418.341 2213.68 418.341 2213.62 418.341 2212.32 418.447 2211.31 419.517 2211.31 420.838L2211.31 430.64C2211.31 432.014 2212.41 433.137 2213.77 433.137 2215.18 433.137 2216.26 432.014 2216.26 430.64L2216.26 425.158 2221.02 427.892C2221.41 428.13 2221.83 428.236 2222.25 428.236 2223.1 428.236 2223.94 427.786 2224.42 426.981 2225.1 425.805 2224.72 424.286 2223.52 423.586L2215.06 418.672C2214.66 418.447 2214.25 418.341 2213.83 418.341ZM2204.67 418.368C2204.26 418.368 2203.85 418.474 2203.5 418.698L2195.03 423.599C2193.83 424.286 2193.42 425.831 2194.14 426.994 2194.6 427.813 2195.43 428.249 2196.29 428.249 2196.71 428.249 2197.14 428.143 2197.55 427.919L2202.28 425.171 2202.28 430.666C2202.28 432.04 2203.41 433.15 2204.77 433.15 2206.13 433.15 2207.23 432.04 2207.23 430.666L2207.23 420.851C2207.23 419.517 2206.22 418.447 2204.94 418.381 2204.85 418.368 2204.76 418.368 2204.67 418.368ZM2167.18 434.14C2168.3 434.14 2169.4 434.735 2170.01 435.778 2170.91 437.35 2170.35 439.372 2168.79 440.27 2168.3 440.547 2167.73 440.693 2167.17 440.693 2166.88 440.693 2166.61 440.666 2166.33 440.587 2165.49 440.376 2164.8 439.821 2164.34 439.081 2163.45 437.509 2164 435.488 2165.56 434.59 2166.07 434.286 2166.62 434.14 2167.18 434.14ZM2209.92 383.216C2220.31 383.467 2229.37 389.121 2234.44 397.509 2234.48 397.734 2234.56 397.919 2234.68 398.117 2234.81 398.342 2234.95 398.527 2235.12 398.712 2237.44 402.952 2238.74 407.813 2238.74 412.991 2238.74 429.174 2225.88 442.357 2209.92 442.753 2209.71 442.674 2209.46 442.648 2209.23 442.648 2208.96 442.648 2208.74 442.714 2208.51 442.753 2198.13 442.516 2189.08 436.848 2184 428.447 2183.96 428.236 2183.88 428.037 2183.76 427.839 2183.76 427.813 2183.75 427.813 2183.75 427.8 2183.62 427.602 2183.47 427.43 2183.32 427.245 2181.02 423.018 2179.7 418.143 2179.7 412.991 2179.7 407.813 2181.02 402.926 2183.32 398.685 2183.47 398.527 2183.59 398.381 2183.71 398.183 2183.71 398.183 2183.75 398.144 2183.75 398.117 2183.84 397.919 2183.95 397.734 2183.98 397.509 2189.06 389.121 2198.15 383.467 2208.51 383.216 2208.74 383.296 2208.96 383.309 2209.23 383.309 2209.46 383.309 2209.71 383.269 2209.92 383.216ZM2261.81 430.957C2266.93 430.957 2270.47 434.273 2270.47 439.002L2270.47 444.048 2250.86 444.048 2250.86 439.002C2250.86 433.982 2255.58 430.957 2260.15 430.957ZM2179.5 441.763C2178.52 441.763 2177.58 442.265 2177.05 443.163 2176.28 444.51 2176.74 446.254 2178.09 447.047L2195.39 457.126C2195.83 457.377 2196.32 457.482 2196.8 457.482 2197.78 457.482 2198.73 456.967 2199.24 456.069 2200.04 454.735 2199.59 453.004 2198.23 452.225L2180.9 442.132C2180.46 441.881 2179.97 441.763 2179.5 441.763ZM2236.83 443.004C2236.35 443.004 2235.86 443.136 2235.41 443.401L2220.22 452.238C2218.87 453.031 2218.41 454.774 2219.19 456.108 2219.7 457.033 2220.64 457.535 2221.62 457.535 2222.11 457.535 2222.57 457.403 2223.04 457.139L2238.24 448.275C2239.58 447.496 2240.02 445.765 2239.25 444.418 2238.73 443.506 2237.8 443.004 2236.83 443.004ZM2260.68 453.493C2261.73 453.493 2262.6 454.338 2262.6 455.422 2262.6 456.042 2262.32 456.597 2261.82 456.967 2261.4 457.297 2261.12 457.826 2261.12 458.381L2261.12 461.855 2260.23 461.855 2260.23 458.381C2260.23 457.826 2259.96 457.297 2259.53 456.967 2259.04 456.597 2258.75 456.042 2258.75 455.422 2258.75 454.338 2259.64 453.493 2260.68 453.493ZM2209.23 458.618C2211.01 458.618 2212.48 460.085 2212.48 461.894 2212.48 463.717 2211.01 465.184 2209.23 465.184 2207.42 465.184 2205.95 463.717 2205.95 461.894 2205.95 460.085 2207.42 458.618 2209.23 458.618ZM2260.65 449.926C2257.64 449.926 2255.21 452.423 2255.21 455.422 2255.21 456.848 2255.75 458.169 2256.71 459.186L2256.67 459.186 2256.67 462.132C2256.67 463.916 2258.12 465.382 2259.92 465.382L2261.4 465.382C2263.17 465.382 2264.62 463.916 2264.62 462.132L2264.62 459.186C2265.58 458.143 2266.1 456.835 2266.1 455.422 2266.1 452.383 2263.68 449.926 2260.65 449.926ZM2273.31 449.715 2273.31 460.455C2273.31 463.361 2271.46 466.359 2268.38 466.359L2253.63 466.359C2250.69 466.359 2247.99 463.546 2247.99 460.455L2247.99 449.715ZM2209.23 355C2204.31 355 2200.33 359.029 2200.33 363.97 2200.33 367.893 2202.82 371.182 2206.3 372.424L2206.3 377.563C2195.54 378.487 2186.16 384.234 2180.33 392.701L2175.89 390.112C2176.57 386.466 2174.97 382.648 2171.6 380.68 2170.21 379.874 2168.69 379.491 2167.18 379.491 2164.12 379.491 2161.12 381.103 2159.46 383.983 2157.03 388.249 2158.48 393.731 2162.73 396.202 2164.12 397.021 2165.65 397.417 2167.14 397.417 2169.27 397.417 2171.34 396.651 2172.96 395.211L2177.41 397.8C2175.26 402.41 2174.04 407.523 2174.04 412.925 2174.04 418.341 2175.23 423.467 2177.41 428.051L2172.96 430.64C2171.35 429.226 2169.28 428.46 2167.16 428.46 2165.65 428.46 2164.12 428.843 2162.73 429.662 2158.47 432.133 2157.01 437.628 2159.46 441.881 2160.67 443.942 2162.57 445.448 2164.88 446.056 2165.62 446.28 2166.41 446.373 2167.18 446.373 2168.7 446.373 2170.24 445.963 2171.6 445.184 2174.97 443.216 2176.57 439.358 2175.89 435.726L2180.33 433.15C2186.16 441.604 2195.54 447.416 2206.3 448.301L2206.3 453.44C2202.84 454.669 2200.33 458.011 2200.33 461.894 2200.33 466.835 2204.31 470.851 2209.23 470.851 2214.1 470.851 2218.1 466.835 2218.1 461.894 2218.1 457.971 2215.58 454.669 2212.14 453.414L2212.14 448.262C2230.16 446.769 2244.39 431.485 2244.39 412.925 2244.39 407.523 2243.2 402.371 2241.05 397.8L2245.46 395.211C2247.07 396.651 2249.16 397.417 2251.28 397.417 2252.78 397.417 2254.31 397.021 2255.7 396.202 2259.96 393.731 2261.41 388.236 2258.96 383.983 2257.32 381.09 2254.32 379.478 2251.24 379.478 2249.74 379.478 2248.22 379.874 2246.83 380.68 2243.47 382.648 2241.86 386.506 2242.54 390.112L2238.12 392.701C2232.28 384.234 2222.88 378.448 2212.14 377.563L2212.14 372.424C2215.58 371.182 2218.1 367.853 2218.1 363.97 2218.1 359.029 2214.1 355 2209.23 355ZM2260.17 425.263C2251.81 425.263 2245.27 431.287 2245.27 438.975L2245.27 444.021 2245.19 444.021C2243.63 444.021 2242.37 445.303 2242.37 446.862L2242.37 460.415C2242.37 466.703 2247.56 472 2253.65 472L2268.4 472C2274.33 472 2278.99 466.927 2278.99 460.415L2278.99 446.862C2278.99 445.316 2277.73 444.048 2276.18 444.021L2276.1 444.021 2276.1 438.975C2276.1 431.155 2269.98 425.263 2261.82 425.263Z" fill="#29B5E8" fill-rule="evenodd"/></g></svg>