<svg width="66" height="67" xmlns="http://www.w3.org/2000/svg" xmlns:xlink="http://www.w3.org/1999/xlink" xml:space="preserve" overflow="hidden"><defs><clipPath id="clip0"><rect x="2185" y="1501" width="66" height="67"/></clipPath></defs><g clip-path="url(#clip0)" transform="translate(-2185 -1501)"><path d="M2191.22 1534.44 2191.22 1538.35 2186.34 1540.91C2185.74 1541.24 2185.29 1541.79 2185.1 1542.46 2184.91 1543.16 2185 1543.91 2185.35 1544.55L2193 1557.97C2193.44 1558.78 2194.29 1559.29 2195.2 1559.29 2195.62 1559.25 2196.01 1559.1 2196.36 1558.87L2201.02 1556.32C2202.94 1557.99 2205.1 1559.36 2207.43 1560.36L2207.43 1565.4C2207.43 1566.84 2208.58 1568 2209.99 1568L2225.4 1568C2226.81 1567.99 2227.94 1566.83 2227.96 1565.4L2227.96 1560.38C2230.45 1559.35 2232.79 1557.98 2234.91 1556.3L2239.63 1558.87C2240.01 1559.08 2240.43 1559.2 2240.87 1559.21 2241.78 1559.2 2242.62 1558.7 2243.07 1557.89L2250.7 1544.49C2251.36 1543.19 2250.89 1541.59 2249.63 1540.89L2245.09 1538.37C2245.21 1537.04 2245.26 1535.7 2245.24 1534.35 2245.24 1532.99 2245.24 1531.69 2245.11 1530.44L2249.65 1527.82C2250.26 1527.48 2250.71 1526.89 2250.89 1526.21 2251.06 1525.54 2250.97 1524.84 2250.64 1524.24L2243.01 1511.09C2242.54 1510.3 2241.69 1509.81 2240.78 1509.81 2240.36 1509.82 2239.95 1509.92 2239.58 1510.11L2234.94 1512.68C2232.83 1510.95 2230.48 1509.54 2227.97 1508.5L2227.97 1503.6C2227.96 1502.16 2226.81 1501 2225.4 1501L2210.03 1501C2208.62 1501 2207.47 1502.16 2207.47 1503.6L2207.47 1508.56C2205.14 1509.57 2202.97 1510.94 2201.06 1512.64L2196.94 1510.17C2196.54 1509.94 2196.1 1509.82 2195.64 1509.81 2194.73 1509.81 2193.89 1510.3 2193.43 1511.09L2185.76 1524.24C2185.37 1524.87 2185.28 1525.63 2185.49 1526.33 2185.68 1527.01 2186.13 1527.58 2186.73 1527.93L2191.47 1530.65C2191.32 1531.91 2191.24 1533.17 2191.22 1534.44ZM2210.77 1555.98C2208.23 1555.15 2205.89 1553.77 2203.93 1551.92L2202.96 1551.17C2202.51 1550.8 2201.95 1550.6 2201.37 1550.6 2200.94 1550.6 2200.51 1550.71 2200.13 1550.91L2196.19 1553.01 2191.06 1544.21 2194.87 1542.12C2195.77 1541.69 2196.33 1540.76 2196.32 1539.76L2196.32 1534.35C2196.28 1533.59 2196.28 1532.82 2196.32 1532.05 2196.46 1531.07 2196.54 1530.07 2196.54 1529.08 2196.54 1528.14 2196.05 1527.28 2195.24 1526.82L2191.47 1524.6 2196.5 1515.95 2200.03 1518.04C2200.96 1518.6 2202.13 1518.5 2202.96 1517.79L2203.16 1517.62C2205.32 1515.49 2207.92 1513.86 2210.77 1512.87 2211.83 1512.54 2212.57 1511.55 2212.59 1510.42L2212.59 1506.23 2222.9 1506.23 2222.9 1510.42C2222.9 1511.56 2223.63 1512.57 2224.69 1512.91 2227.8 1513.93 2230.65 1515.61 2233.07 1517.83 2233.88 1518.53 2235.02 1518.64 2235.95 1518.13L2239.91 1516.03 2244.97 1524.74 2241.07 1526.96C2240.05 1527.54 2239.56 1528.75 2239.88 1529.89 2240.12 1531.42 2240.23 1532.96 2240.19 1534.5 2240.22 1536.13 2240.11 1537.77 2239.85 1539.38 2239.59 1540.51 2240.12 1541.68 2241.13 1542.23L2244.95 1544.32 2239.88 1553.22 2235.94 1551.12C2235.56 1550.92 2235.13 1550.81 2234.7 1550.81 2234.13 1550.81 2233.57 1551 2233.11 1551.35 2230.68 1553.54 2227.83 1555.19 2224.74 1556.19 2223.65 1556.51 2222.89 1557.53 2222.88 1558.68L2222.88 1562.77 2212.57 1562.77 2212.57 1558.58C2212.62 1557.4 2211.88 1556.34 2210.77 1555.98Z" fill="#2AB5E8" fill-rule="evenodd"/><path d="M2218 1549C2209.71 1549 2203 1542.28 2203 1534 2203 1525.71 2209.72 1519 2218 1519 2226.29 1519 2233 1525.72 2233 1534 2232.99 1542.28 2226.28 1548.99 2218 1549ZM2218 1523.71C2212.31 1523.71 2207.71 1528.32 2207.71 1534 2207.71 1539.68 2212.31 1544.29 2218 1544.29 2223.68 1544.29 2228.29 1539.68 2228.29 1534 2228.28 1528.32 2223.68 1523.72 2218 1523.71Z" fill="#2AB5E8" fill-rule="evenodd"/></g></svg>