<svg width="94" height="86" xmlns="http://www.w3.org/2000/svg" xmlns:xlink="http://www.w3.org/1999/xlink" xml:space="preserve" overflow="hidden"><defs><clipPath id="clip0"><rect x="2457" y="1491" width="94" height="86"/></clipPath></defs><g clip-path="url(#clip0)" transform="translate(-2457 -1491)"><path d="M2534.72 1533 2525.28 1533C2524.02 1533 2523 1531.99 2523 1530.74L2523 1528.4C2521.64 1527.84 2520.35 1527.11 2519.17 1526.23L2517.14 1527.4C2516.05 1528.02 2514.66 1527.65 2514.03 1526.57L2509.31 1518.45C2508.68 1517.38 2509.05 1516 2510.14 1515.37 2510.14 1515.37 2510.14 1515.37 2510.15 1515.37L2512.13 1514.2C2511.93 1512.73 2511.93 1511.24 2512.13 1509.77L2510.14 1508.6C2509.05 1507.98 2508.68 1506.6 2509.3 1505.52 2509.3 1505.52 2509.31 1505.51 2509.31 1505.51L2514.03 1497.4C2514.66 1496.32 2516.05 1495.94 2517.14 1496.57L2519.17 1497.74C2520.35 1496.85 2521.64 1496.12 2523 1495.56L2523 1493.22C2523.03 1491.99 2524.03 1491 2525.27 1491L2534.72 1491C2535.97 1491 2536.99 1492.01 2536.99 1493.26L2536.99 1495.6C2538.36 1496.17 2539.64 1496.9 2540.82 1497.78L2542.85 1496.61C2543.95 1495.98 2545.34 1496.35 2545.97 1497.44 2545.97 1497.44 2545.97 1497.44 2545.97 1497.44L2550.69 1505.55C2551.32 1506.63 2550.95 1508.01 2549.86 1508.64L2547.87 1509.81C2548.07 1511.28 2548.07 1512.77 2547.87 1514.24L2549.86 1515.38C2550.94 1516.01 2551.32 1517.39 2550.69 1518.47L2545.97 1526.58C2545.34 1527.66 2543.94 1528.03 2542.85 1527.41L2540.83 1526.24C2539.65 1527.12 2538.36 1527.85 2537 1528.41L2537 1530.75C2536.99 1532 2535.98 1533 2534.72 1533ZM2527.55 1528.46 2532.44 1528.46 2532.44 1526.82C2532.44 1525.84 2533.08 1524.97 2534.03 1524.67 2535.9 1524.09 2537.61 1523.12 2539.06 1521.81 2539.79 1521.15 2540.87 1521.04 2541.73 1521.53L2543.16 1522.34 2545.6 1518.14 2544.2 1517.34C2543.34 1516.85 2542.9 1515.86 2543.12 1514.89 2543.57 1512.99 2543.57 1511.01 2543.12 1509.11 2542.9 1508.15 2543.34 1507.16 2544.2 1506.66L2545.61 1505.86 2543.17 1501.66 2541.73 1502.48C2540.87 1502.97 2539.79 1502.85 2539.06 1502.19 2537.61 1500.88 2535.9 1499.91 2534.03 1499.33 2533.08 1499.03 2532.44 1498.16 2532.44 1497.18L2532.44 1495.52 2527.55 1495.52 2527.55 1497.18C2527.55 1498.16 2526.91 1499.03 2525.97 1499.33 2524.1 1499.91 2522.39 1500.88 2520.94 1502.19 2520.2 1502.85 2519.12 1502.97 2518.26 1502.48L2516.83 1501.66 2514.41 1505.86 2515.8 1506.66C2516.67 1507.16 2517.11 1508.15 2516.89 1509.11 2516.44 1511.01 2516.44 1512.99 2516.89 1514.89 2517.1 1515.86 2516.66 1516.85 2515.79 1517.34L2514.41 1518.14 2516.85 1522.34 2518.27 1521.53C2519.13 1521.04 2520.21 1521.15 2520.95 1521.81 2522.4 1523.12 2524.11 1524.09 2525.98 1524.67 2526.92 1524.97 2527.56 1525.84 2527.56 1526.82Z" fill="#2AB5E8" fill-rule="evenodd"/><path d="M2530 1521C2525.03 1521 2521 1516.97 2521 1512 2521 1507.03 2525.03 1503 2530 1503 2534.97 1503 2539 1507.03 2539 1512 2539 1512 2539 1512 2539 1512.01 2538.99 1516.97 2534.97 1521 2530 1521ZM2530 1506.83C2527.14 1506.83 2524.83 1509.15 2524.83 1512.01 2524.83 1514.86 2527.14 1517.18 2530 1517.18 2532.86 1517.18 2535.17 1514.86 2535.17 1512.01 2535.16 1509.16 2532.85 1506.85 2530 1506.85Z" fill="#2AB5E8" fill-rule="evenodd"/><path d="M2491.96 1577 2479.04 1577C2477.44 1577 2476.15 1575.72 2476.15 1574.13L2476.15 1570.78C2474.21 1569.99 2472.38 1568.95 2470.71 1567.69L2467.82 1569.35C2466.43 1570.14 2464.66 1569.67 2463.87 1568.3L2457.4 1557.2C2456.6 1555.83 2457.07 1554.08 2458.45 1553.28L2461.3 1551.65C2461 1549.56 2461 1547.43 2461.3 1545.34L2458.45 1543.72C2457.06 1542.93 2456.59 1541.17 2457.39 1539.8L2463.85 1528.7C2464.65 1527.34 2466.41 1526.87 2467.79 1527.65L2470.68 1529.31C2472.36 1528.05 2474.18 1527.01 2476.13 1526.22L2476.13 1522.87C2476.13 1521.28 2477.42 1520 2479.02 1520L2491.96 1520C2493.56 1520 2494.85 1521.28 2494.85 1522.87L2494.85 1526.22C2496.79 1527.01 2498.62 1528.05 2500.3 1529.31L2503.19 1527.65C2504.57 1526.87 2506.34 1527.34 2507.14 1528.7L2513.61 1539.8C2514.41 1541.17 2513.94 1542.93 2512.55 1543.72L2509.7 1545.35C2510 1547.45 2510 1549.57 2509.7 1551.66L2512.55 1553.29C2513.93 1554.09 2514.4 1555.84 2513.61 1557.21L2507.15 1568.3C2506.35 1569.67 2504.58 1570.14 2503.2 1569.35L2500.3 1567.69C2498.63 1568.95 2496.8 1569.99 2494.86 1570.78L2494.86 1574.13C2494.86 1575.72 2493.57 1577 2491.97 1577 2491.97 1577 2491.96 1577 2491.96 1577ZM2481.93 1571.26 2489.07 1571.26 2489.07 1568.77C2489.07 1567.52 2489.88 1566.41 2491.09 1566.04 2493.66 1565.24 2496.03 1563.89 2498.03 1562.09 2498.96 1561.25 2500.33 1561.1 2501.42 1561.72L2503.57 1562.94 2507.14 1556.82 2505.05 1555.64C2503.95 1555.01 2503.4 1553.75 2503.67 1552.53 2504.3 1549.89 2504.3 1547.14 2503.67 1544.5 2503.4 1543.28 2503.96 1542.02 2505.05 1541.39L2507.16 1540.18 2503.59 1534.05 2501.44 1535.28C2500.35 1535.9 2498.99 1535.75 2498.06 1534.91 2496.07 1533.11 2493.7 1531.76 2491.12 1530.96 2489.92 1530.58 2489.11 1529.48 2489.11 1528.23L2489.11 1525.74 2481.93 1525.74 2481.93 1528.23C2481.94 1529.48 2481.12 1530.59 2479.92 1530.97 2477.34 1531.77 2474.98 1533.12 2472.98 1534.92 2472.05 1535.77 2470.68 1535.92 2469.58 1535.3L2467.41 1534.05 2463.84 1540.18 2465.95 1541.39C2467.05 1542.02 2467.61 1543.28 2467.34 1544.5 2466.7 1547.14 2466.7 1549.89 2467.34 1552.53 2467.61 1553.75 2467.05 1555.01 2465.96 1555.64L2463.85 1556.85 2467.41 1562.94 2469.55 1561.72C2470.64 1561.1 2472.01 1561.25 2472.94 1562.09 2474.94 1563.89 2477.31 1565.24 2479.88 1566.04 2481.09 1566.41 2481.9 1567.52 2481.9 1568.77Z" fill="#2AB5E8" fill-rule="evenodd"/><path d="M2485.52 1562C2478.07 1562.01 2472.01 1555.98 2472 1548.52 2471.99 1541.07 2478.02 1535.01 2485.48 1535 2492.93 1534.99 2498.99 1541.02 2499 1548.48 2499 1548.48 2499 1548.49 2499 1548.5 2498.99 1555.94 2492.97 1561.98 2485.52 1562ZM2485.52 1540.94C2481.34 1540.92 2477.94 1544.3 2477.93 1548.48 2477.92 1552.66 2481.3 1556.06 2485.48 1556.07 2489.66 1556.09 2493.06 1552.71 2493.07 1548.53 2493.07 1548.52 2493.07 1548.51 2493.07 1548.5 2493.07 1544.33 2489.69 1540.95 2485.52 1540.94Z" fill="#2AB5E8" fill-rule="evenodd"/></g></svg>