<svg width="99" height="99" xmlns="http://www.w3.org/2000/svg" xmlns:xlink="http://www.w3.org/1999/xlink" xml:space="preserve" overflow="hidden"><defs><clipPath id="clip0"><rect x="2454" y="1478" width="99" height="99"/></clipPath></defs><g clip-path="url(#clip0)" transform="translate(-2454 -1478)"><path d="M2503.83 1478C2502.97 1478 2502.29 1478.7 2502.29 1479.55L2502.29 1492C2502.29 1492.85 2502.97 1493.53 2503.83 1493.53 2504.67 1493.53 2505.37 1492.85 2505.37 1492L2505.37 1479.55C2505.37 1478.7 2504.67 1478.02 2503.83 1478ZM2525.81 1483.52C2525.26 1483.52 2524.72 1483.82 2524.44 1484.34L2518.62 1495.36C2518.21 1496.11 2518.52 1497.04 2519.26 1497.45 2519.49 1497.55 2519.74 1497.62 2519.98 1497.62 2520.52 1497.62 2521.06 1497.32 2521.36 1496.78L2527.17 1485.77C2527.58 1485.01 2527.28 1484.09 2526.53 1483.69 2526.3 1483.58 2526.05 1483.52 2525.81 1483.52ZM2481.81 1482.35C2481.42 1482.35 2481.01 1482.45 2480.64 1482.65 2479.43 1483.28 2478.96 1484.75 2479.6 1485.97L2485.42 1496.99C2485.87 1497.84 2486.72 1498.3 2487.62 1498.3 2487.99 1498.3 2488.38 1498.21 2488.77 1498.02 2489.97 1497.38 2490.42 1495.89 2489.8 1494.69L2483.98 1483.68C2483.55 1482.83 2482.69 1482.35 2481.81 1482.35ZM2542.68 1498.54C2542.38 1498.54 2542.07 1498.63 2541.81 1498.8L2531.51 1505.88C2530.79 1506.36 2530.63 1507.32 2531.1 1508.02 2531.41 1508.44 2531.89 1508.68 2532.39 1508.68 2532.69 1508.68 2532.99 1508.61 2533.26 1508.42L2543.56 1501.34C2544.25 1500.87 2544.42 1499.91 2543.96 1499.21 2543.65 1498.77 2543.17 1498.54 2542.68 1498.54ZM2464.77 1497.21C2463.98 1497.21 2463.22 1497.58 2462.73 1498.27 2461.94 1499.37 2462.24 1500.91 2463.35 1501.68L2473.64 1508.76C2474.08 1509.07 2474.57 1509.19 2475.05 1509.19 2475.83 1509.19 2476.61 1508.85 2477.09 1508.13 2477.86 1507.02 2477.58 1505.49 2476.46 1504.72L2466.16 1497.64C2465.74 1497.35 2465.25 1497.21 2464.77 1497.21ZM2456.6 1518.24C2455.36 1518.24 2454.32 1519.16 2454.16 1520.39 2454.01 1521.75 2454.98 1522.97 2456.3 1523.12L2468.74 1524.64C2468.84 1524.67 2468.94 1524.67 2469.06 1524.67 2470.28 1524.67 2471.34 1523.75 2471.5 1522.52 2471.67 1521.16 2470.69 1519.93 2469.34 1519.78L2456.93 1518.26C2456.82 1518.25 2456.71 1518.24 2456.6 1518.24ZM2470.93 1534.82C2470.49 1534.82 2470.02 1534.89 2469.57 1535.06L2457.87 1539.48C2455.87 1540.21 2454.86 1542.44 2455.62 1544.45 2456.19 1545.98 2457.66 1546.91 2459.21 1546.91 2459.67 1546.91 2460.14 1546.83 2460.59 1546.66L2472.3 1542.27C2474.29 1541.5 2475.31 1539.28 2474.57 1537.3 2473.97 1535.75 2472.5 1534.82 2470.93 1534.82ZM2536.05 1534.5C2534.19 1534.5 2532.42 1535.64 2531.72 1537.48 2530.79 1539.87 2532.01 1542.53 2534.41 1543.43L2546.1 1547.85C2546.66 1548.04 2547.2 1548.15 2547.74 1548.15 2549.6 1548.15 2551.37 1547.02 2552.08 1545.17 2552.99 1542.79 2551.78 1540.13 2549.4 1539.22L2537.68 1534.81C2537.15 1534.6 2536.6 1534.5 2536.05 1534.5ZM2480.3 1548.53C2479.23 1548.53 2478.19 1548.97 2477.42 1549.81L2469.1 1559.13C2467.69 1560.71 2467.83 1563.13 2469.43 1564.55 2470.16 1565.2 2471.08 1565.51 2471.98 1565.51 2473.05 1565.51 2474.11 1565.07 2474.89 1564.23L2483.2 1554.93C2484.62 1553.33 2484.47 1550.91 2482.87 1549.49 2482.13 1548.85 2481.21 1548.53 2480.3 1548.53ZM2526.48 1548.08C2525.39 1548.08 2524.28 1548.46 2523.4 1549.24 2521.47 1550.92 2521.31 1553.83 2523 1555.74L2531.28 1565.05C2532.2 1566.08 2533.47 1566.61 2534.75 1566.61 2535.86 1566.61 2536.94 1566.23 2537.83 1565.45 2539.76 1563.76 2539.92 1560.85 2538.24 1558.95L2529.95 1549.64C2529.03 1548.6 2527.76 1548.08 2526.48 1548.08ZM2495 1556.34C2493.27 1556.34 2491.69 1557.51 2491.27 1559.25L2488.26 1571.33C2487.75 1573.41 2489.02 1575.5 2491.07 1576 2491.37 1576.08 2491.7 1576.12 2492.01 1576.12 2493.74 1576.12 2495.34 1574.95 2495.75 1573.19L2498.76 1561.09C2499.26 1559.03 2498.01 1556.96 2495.94 1556.46 2495.62 1556.38 2495.31 1556.34 2495 1556.34ZM2511.69 1555.69C2511.32 1555.69 2510.94 1555.73 2510.56 1555.83 2508.06 1556.42 2506.54 1558.92 2507.17 1561.41L2510.17 1573.49C2510.69 1575.59 2512.59 1577 2514.66 1577 2515.04 1577 2515.43 1576.97 2515.78 1576.87 2518.28 1576.25 2519.8 1573.75 2519.17 1571.29L2516.17 1559.18C2515.65 1557.09 2513.77 1555.69 2511.69 1555.69Z" fill="#2AB5E8" fill-rule="evenodd"/></g></svg>