<svg width="118" height="118" xmlns="http://www.w3.org/2000/svg" xmlns:xlink="http://www.w3.org/1999/xlink" xml:space="preserve" overflow="hidden"><defs><clipPath id="clip0"><rect x="1873" y="912" width="118" height="118"/></clipPath></defs><g clip-path="url(#clip0)" transform="translate(-1873 -912)"><path d="M1990.95 971.988C1990.94 971.947 1990.94 971.907 1990.93 971.867 1990.89 971.609 1990.82 971.356 1990.74 971.11 1990.72 971.073 1990.71 971.036 1990.7 971 1990.61 970.751 1990.49 970.51 1990.36 970.28L1990.3 970.183C1990.15 969.948 1989.99 969.726 1989.8 969.52 1989.8 969.52 1989.78 969.49 1989.77 969.474 1989.76 969.466 1989.75 969.456 1989.74 969.444 1989.55 969.243 1989.34 969.059 1989.12 968.894L1989.04 968.833C1988.82 968.675 1988.58 968.539 1988.34 968.426L1988.26 968.386C1988.01 968.276 1987.76 968.19 1987.5 968.128L1987.41 968.103C1987.16 968.049 1986.9 968.014 1986.64 968L1986.52 968 1986.4 968 1967.77 968C1965.23 968 1963.17 970.085 1963.17 972.657 1963.17 975.229 1965.23 977.314 1967.77 977.314L1974.71 977.314 1950.68 999.955 1930.11 983.272C1928.36 981.856 1925.86 981.922 1924.19 983.43L1881.6 1021.81C1879.68 1023.48 1879.46 1026.42 1881.11 1028.38 1882.76 1030.33 1885.66 1030.55 1887.59 1028.88 1887.63 1028.84 1887.67 1028.81 1887.71 1028.77L1927.4 992.991 1948.04 1009.73C1949.81 1011.17 1952.37 1011.08 1954.03 1009.5L1981.81 983.342 1981.81 991.747C1981.81 994.32 1983.87 996.405 1986.41 996.405 1988.94 996.405 1991 994.32 1991 991.747L1991 972.657C1991 972.433 1990.98 972.21 1990.95 971.988Z" fill="#2AB5E8" fill-rule="evenodd"/><path d="M1896.88 996.344C1899.06 997.649 1901.89 996.946 1903.21 994.773 1904.52 992.6 1903.81 989.78 1901.63 988.475 1901.49 988.394 1901.36 988.32 1901.21 988.254 1883.76 979.037 1877.11 957.481 1886.37 940.108 1895.63 922.734 1917.29 916.122 1934.75 925.339 1952.21 934.556 1958.85 956.112 1949.59 973.485 1948.88 974.811 1948.09 976.091 1947.22 977.318 1945.72 979.367 1946.18 982.238 1948.24 983.73 1950.3 985.223 1953.18 984.772 1954.68 982.723 1954.7 982.69 1954.73 982.657 1954.75 982.624 1960.14 975.072 1963.02 966.034 1963 956.772 1963 932.09 1942.81 912 1918 912 1893.19 912 1873 932.09 1873 956.784 1872.99 973.354 1882.17 988.574 1896.88 996.344Z" fill="#2AB5E8" fill-rule="evenodd"/><path d="M1917.98 943.585C1920.69 943.587 1922.89 945.812 1922.89 948.56 1922.84 950.251 1924.15 951.664 1925.82 951.717 1927.49 951.77 1928.89 950.442 1928.94 948.751 1928.94 948.688 1928.94 948.624 1928.94 948.56 1928.93 943.614 1925.69 939.27 1921 937.903L1921 935.158C1921.05 933.468 1919.74 932.054 1918.07 932.001 1916.4 931.948 1915.01 933.276 1914.96 934.967 1914.95 935.031 1914.95 935.095 1914.96 935.158L1914.96 937.903C1909.14 939.578 1905.77 945.71 1907.42 951.601 1908.76 956.378 1913.07 959.67 1917.98 959.657 1920.69 959.654 1922.9 961.881 1922.9 964.632 1922.9 967.382 1920.7 969.615 1917.99 969.618 1915.27 969.622 1913.07 967.394 1913.07 964.644 1913.01 962.953 1911.62 961.625 1909.95 961.678 1908.35 961.729 1907.07 963.027 1907.02 964.644 1907.03 969.589 1910.27 973.934 1914.96 975.303L1914.96 978.033C1915.01 979.724 1916.4 981.052 1918.07 980.999 1919.67 980.948 1920.95 979.65 1921 978.033L1921 975.297C1926.82 973.647 1930.22 967.528 1928.59 961.631 1927.26 956.815 1922.91 953.498 1917.98 953.532 1915.26 953.464 1913.12 951.182 1913.19 948.433 1913.25 945.78 1915.36 943.644 1917.98 943.579Z" fill="#2AB5E8" fill-rule="evenodd"/></g></svg>