<svg width="95" height="93" xmlns="http://www.w3.org/2000/svg" xmlns:xlink="http://www.w3.org/1999/xlink" xml:space="preserve" overflow="hidden"><defs><clipPath id="clip0"><rect x="169" y="924" width="95" height="93"/></clipPath></defs><g clip-path="url(#clip0)" transform="translate(-169 -924)"><path d="M252.145 986.505 252.145 969.421C252.145 967.402 250.51 965.765 248.494 965.765L220.121 965.765 220.121 954.495C228.409 952.476 233.492 944.111 231.475 935.812 229.459 927.513 221.106 922.423 212.819 924.442 204.532 926.462 199.448 934.826 201.465 943.125 202.83 948.743 207.21 953.128 212.819 954.495L212.819 965.765 184.447 965.765C182.43 965.765 180.795 967.402 180.795 969.421L180.795 986.505C172.508 988.524 167.425 996.889 169.441 1005.19 171.458 1013.49 179.811 1018.58 188.098 1016.56 196.385 1014.54 201.469 1006.17 199.452 997.875 198.087 992.258 193.707 987.872 188.098 986.505L188.098 973.078 244.902 973.078 244.902 986.505C236.615 988.524 231.532 996.889 233.548 1005.19 235.565 1013.49 243.917 1018.58 252.205 1016.56 260.492 1014.54 265.575 1006.17 263.559 997.875 262.194 992.258 257.814 987.872 252.205 986.505ZM192.587 1001.49C192.587 1005.99 188.943 1009.64 184.447 1009.64 179.951 1009.64 176.306 1005.99 176.306 1001.49 176.306 996.988 179.951 993.338 184.447 993.338 188.943 993.338 192.587 996.988 192.587 1001.49ZM208.33 939.51C208.33 935.007 211.974 931.358 216.47 931.358 220.966 931.358 224.611 935.007 224.611 939.51 224.611 944.012 220.966 947.662 216.47 947.662 211.974 947.662 208.33 944.012 208.33 939.51ZM248.494 1009.64C243.998 1009.64 240.353 1005.99 240.353 1001.49 240.353 996.988 243.998 993.338 248.494 993.338 252.99 993.338 256.634 996.988 256.634 1001.49 256.634 1005.99 252.99 1009.64 248.494 1009.64Z" fill="#2AB5E8" fill-rule="evenodd"/></g></svg>