<svg width="103" height="115" xmlns="http://www.w3.org/2000/svg" xmlns:xlink="http://www.w3.org/1999/xlink" xml:space="preserve" overflow="hidden"><g transform="translate(-1881 -356)"><path d="M1951.41 410.877 1946.66 413.605 1951.41 416.307C1952.6 416.989 1953.03 418.51 1952.31 419.704 1951.62 420.884 1950.09 421.278 1948.88 420.596L1940.36 415.73C1939.8 415.415 1939.4 414.903 1939.24 414.326 1939.16 414.051 1939.12 413.775 1939.12 413.5 1939.12 413.316 1939.15 413.12 1939.23 412.923 1939.39 412.32 1939.77 411.795 1940.36 411.441L1948.88 406.575C1950.09 405.893 1951.6 406.299 1952.31 407.467 1953.03 408.673 1952.6 410.195 1951.41 410.877ZM1946.9 424.058 1938.39 419.192C1937.91 418.917 1937.42 418.825 1936.94 418.864 1935.64 418.956 1934.6 420.032 1934.6 421.33L1934.6 431.075C1934.6 432.439 1935.75 433.541 1937.11 433.541 1938.5 433.541 1939.6 432.439 1939.6 431.075L1939.6 425.619 1944.37 428.347C1945.57 429.029 1947.1 428.636 1947.8 427.429 1948.52 426.262 1948.1 424.767 1946.9 424.058ZM1937.09 412.634 1933.55 409.119C1933.46 409.028 1933.26 408.923 1933.1 408.923L1932.86 408.923 1932.34 408.923 1932.08 408.923C1931.93 408.923 1931.73 409.001 1931.64 409.119L1928.1 412.634C1928.01 412.726 1927.93 412.923 1927.93 413.08L1927.93 413.316 1927.93 413.841 1927.93 414.09C1927.93 414.248 1928.01 414.444 1928.1 414.536L1931.64 418.038C1931.73 418.143 1931.93 418.235 1932.08 418.235L1932.34 418.235 1932.86 418.235 1933.1 418.235C1933.26 418.235 1933.46 418.156 1933.55 418.038L1937.09 414.536C1937.19 414.444 1937.27 414.248 1937.27 414.09L1937.27 413.841 1937.27 413.316 1937.27 413.08C1937.27 412.923 1937.19 412.726 1937.09 412.634ZM1934.26 413.605C1934.26 413.762 1934.15 413.959 1934.06 414.051L1933.02 415.061C1932.93 415.166 1932.73 415.258 1932.59 415.258L1932.53 415.258C1932.4 415.258 1932.2 415.205 1932.1 415.061L1931.07 414.051C1930.96 413.959 1930.91 413.762 1930.91 413.605L1930.91 413.566C1930.91 413.408 1930.96 413.211 1931.07 413.12L1932.1 412.123C1932.2 412.031 1932.4 411.926 1932.53 411.926L1932.59 411.926C1932.73 411.926 1932.93 412.005 1933.02 412.123L1934.06 413.12C1934.15 413.211 1934.26 413.408 1934.26 413.566ZM1918.28 403.125 1926.8 407.991C1927.25 408.241 1927.73 408.345 1928.22 408.306 1929.54 408.214 1930.56 407.139 1930.56 405.814L1930.56 396.069C1930.56 394.705 1929.44 393.603 1928.06 393.603 1926.67 393.603 1925.56 394.705 1925.56 396.069L1925.56 401.525 1920.79 398.797C1919.59 398.115 1918.08 398.522 1917.36 399.702 1916.66 400.922 1917.07 402.443 1918.28 403.125ZM1936.94 408.306C1937.42 408.345 1937.94 408.227 1938.39 407.991L1946.9 403.125C1948.1 402.443 1948.52 400.922 1947.8 399.741 1947.11 398.548 1945.58 398.154 1944.37 398.836L1939.63 401.565 1939.63 396.108C1939.63 394.744 1938.48 393.616 1937.11 393.616 1935.72 393.616 1934.63 394.744 1934.63 396.108L1934.63 405.853C1934.6 407.139 1935.64 408.214 1936.94 408.306ZM1928.22 418.904C1927.73 418.838 1927.23 418.943 1926.77 419.219L1918.27 424.085C1917.07 424.767 1916.66 426.301 1917.36 427.468 1918.05 428.662 1919.59 429.042 1920.79 428.36L1925.56 425.645 1925.56 431.088C1925.56 432.452 1926.68 433.567 1928.05 433.567 1929.42 433.567 1930.56 432.452 1930.56 431.088L1930.56 421.356C1930.56 420.032 1929.54 418.956 1928.22 418.904ZM1925.94 414.326C1926.02 414.051 1926.06 413.775 1926.06 413.5 1926.06 413.316 1926.03 413.12 1925.95 412.923 1925.78 412.32 1925.39 411.795 1924.78 411.441L1916.27 406.575C1915.07 405.893 1913.52 406.299 1912.84 407.467 1912.15 408.673 1912.55 410.169 1913.73 410.851L1918.49 413.579 1913.73 416.294C1912.55 416.976 1912.14 418.471 1912.84 419.678 1913.52 420.871 1915.07 421.251 1916.27 420.569L1924.78 415.703C1925.35 415.415 1925.74 414.903 1925.94 414.326ZM1893.06 423.612 1893.06 403.44C1893.06 401.879 1891.8 400.607 1890.23 400.607 1888.66 400.607 1887.4 401.879 1887.4 403.44L1887.4 423.612C1887.4 425.173 1888.66 426.432 1890.23 426.432 1891.8 426.432 1893.06 425.173 1893.06 423.612ZM1977.63 423.599 1977.63 403.611C1977.63 402.05 1976.37 400.791 1974.8 400.791 1973.23 400.791 1971.96 402.05 1971.96 403.611L1971.96 423.599C1971.96 425.147 1973.23 426.419 1974.8 426.419 1976.37 426.419 1977.63 425.147 1977.63 423.599ZM1922.51 456.336C1923.29 454.985 1922.82 453.28 1921.47 452.493L1904.05 442.486C1902.71 441.712 1900.97 442.171 1900.2 443.496 1899.42 444.847 1899.87 446.578 1901.21 447.352L1918.64 457.373C1919.09 457.622 1919.57 457.714 1920.06 457.714 1921.04 457.753 1922 457.228 1922.51 456.336ZM1964.91 383.57C1965.7 382.232 1965.23 380.487 1963.89 379.714L1946.49 369.746C1945.14 368.959 1943.4 369.431 1942.62 370.755 1941.83 372.093 1942.3 373.838 1943.65 374.612L1961.03 384.58C1961.48 384.855 1961.97 384.973 1962.46 384.973 1963.45 384.973 1964.41 384.462 1964.91 383.57ZM1946.41 457.386 1963.79 447.391C1965.12 446.618 1965.6 444.899 1964.82 443.562 1964.03 442.211 1962.29 441.752 1960.94 442.525L1943.58 452.52C1942.22 453.294 1941.75 455.012 1942.55 456.35 1943.07 457.268 1944.03 457.779 1945 457.779 1945.45 457.753 1945.94 457.622 1946.41 457.386ZM1904.05 384.566 1921.42 374.612C1922.75 373.838 1923.21 372.093 1922.44 370.755 1921.64 369.431 1919.9 368.959 1918.57 369.746L1901.21 379.7C1899.87 380.474 1899.42 382.206 1900.2 383.557 1900.71 384.448 1901.66 384.947 1902.65 384.947 1903.11 384.947 1903.6 384.842 1904.05 384.566ZM1979.28 430.118 1979.28 430.118C1975.89 428.177 1971.76 428.675 1968.98 431.088L1964.51 428.544C1966.69 423.98 1967.9 418.904 1967.9 413.5 1967.9 408.136 1966.68 403.06 1964.51 398.495L1968.98 395.938C1970.6 397.341 1972.69 398.102 1974.81 398.102 1976.34 398.102 1977.89 397.709 1979.28 396.908 1983.52 394.443 1985 389.026 1982.55 384.763 1980.08 380.514 1974.63 379.058 1970.33 381.484L1970.33 381.484C1966.97 383.438 1965.34 387.255 1966.04 390.875L1961.59 393.42C1955.71 385.026 1946.27 379.307 1935.45 378.415L1935.45 373.287C1938.95 372.08 1941.44 368.788 1941.44 364.893 1941.44 360 1937.42 356.013 1932.52 356.013 1927.6 356.013 1923.58 360 1923.58 364.893 1923.58 368.762 1926.11 372.08 1929.58 373.287L1929.58 378.415C1918.77 379.281 1909.32 385.026 1903.44 393.42L1899 390.875C1899.68 387.268 1898.06 383.438 1894.7 381.484L1894.7 381.484C1890.43 379.032 1884.94 380.487 1882.48 384.763 1880.01 388.986 1881.48 394.443 1885.75 396.908 1887.13 397.709 1888.69 398.102 1890.22 398.102 1892.33 398.102 1894.44 397.341 1896.07 395.938L1900.51 398.495C1898.34 403.047 1897.12 408.136 1897.12 413.5 1897.12 418.904 1898.35 423.94 1900.51 428.544L1896.07 431.088C1893.26 428.675 1889.14 428.177 1885.75 430.118L1885.75 430.118C1881.5 432.57 1880.03 438 1882.48 442.276 1884.14 445.109 1887.12 446.696 1890.23 446.696 1891.73 446.696 1893.29 446.303 1894.67 445.503 1898.06 443.562 1899.67 439.758 1898.98 436.138L1903.44 433.567C1909.32 441.975 1918.76 447.693 1929.58 448.598L1929.58 453.7C1926.07 454.933 1923.58 458.199 1923.58 462.094 1923.58 467.013 1927.6 471 1932.52 471 1937.42 471 1941.44 467.013 1941.44 462.094 1941.44 458.238 1938.91 454.933 1935.45 453.7L1935.45 448.598C1946.26 447.719 1955.71 441.975 1961.59 433.567L1966.03 436.138C1965.34 439.745 1966.97 443.562 1970.33 445.503 1971.74 446.303 1973.27 446.696 1974.8 446.696 1977.87 446.696 1980.89 445.109 1982.55 442.276 1985 438 1983.52 432.57 1979.28 430.118ZM1973.15 386.416C1974.72 385.524 1976.73 386.049 1977.63 387.596 1978.54 389.157 1978.01 391.164 1976.44 392.056 1974.88 392.961 1972.86 392.436 1971.96 390.875 1971.08 389.314 1971.62 387.308 1973.15 386.416ZM1893.09 390.875C1892.19 392.436 1890.19 392.961 1888.61 392.056 1887.04 391.164 1886.51 389.157 1887.41 387.596 1888.02 386.573 1889.14 385.983 1890.26 385.983 1890.82 385.983 1891.39 386.127 1891.89 386.416 1893.46 387.308 1893.99 389.314 1893.09 390.875ZM1891.89 440.637C1890.32 441.529 1888.33 441.004 1887.41 439.443 1886.51 437.896 1887.04 435.889 1888.61 434.984 1890.19 434.092 1892.19 434.617 1893.09 436.177 1893.99 437.738 1893.46 439.745 1891.89 440.637ZM1929.26 364.971C1929.26 363.161 1930.73 361.692 1932.53 361.692 1934.35 361.692 1935.82 363.161 1935.82 364.971 1935.82 366.768 1934.35 368.224 1932.53 368.224 1930.73 368.198 1929.26 366.742 1929.26 364.971ZM1935.8 462.094C1935.8 463.904 1934.34 465.373 1932.52 465.373 1930.69 465.373 1929.22 463.904 1929.22 462.094 1929.22 460.311 1930.69 458.842 1932.52 458.842 1934.34 458.842 1935.8 460.311 1935.8 462.094ZM1958.58 427.704C1958.44 427.901 1958.25 428.098 1958.13 428.347 1958.04 428.544 1957.96 428.701 1957.88 428.898 1952.77 437.227 1943.67 442.84 1933.22 443.089 1933.01 443.037 1932.74 442.998 1932.52 442.998 1932.26 442.998 1932.02 443.011 1931.81 443.089 1921.38 442.84 1912.26 437.227 1907.14 428.898 1907.09 428.675 1906.98 428.478 1906.89 428.282 1906.89 428.268 1906.87 428.268 1906.87 428.229 1906.75 428.059 1906.59 427.875 1906.46 427.704 1904.12 423.494 1902.79 418.668 1902.79 413.526 1902.79 408.398 1904.12 403.571 1906.46 399.348 1906.59 399.191 1906.75 399.02 1906.85 398.823 1906.85 398.797 1906.87 398.784 1906.87 398.784 1906.98 398.587 1907.06 398.377 1907.1 398.181 1912.23 389.839 1921.34 384.212 1931.77 383.976 1932.01 384.016 1932.24 384.081 1932.49 384.081 1932.73 384.081 1932.98 384.055 1933.21 383.976 1943.61 384.212 1952.76 389.839 1957.87 398.181 1957.91 398.391 1958 398.587 1958.09 398.784 1958.24 398.994 1958.37 399.191 1958.56 399.361 1960.88 403.571 1962.19 408.398 1962.19 413.526 1962.25 418.668 1960.92 423.494 1958.58 427.704ZM1977.63 439.443C1976.73 441.004 1974.72 441.529 1973.15 440.637 1971.58 439.745 1971.05 437.738 1971.96 436.177 1972.57 435.128 1973.66 434.538 1974.8 434.538 1975.36 434.538 1975.92 434.695 1976.44 434.984 1978.01 435.889 1978.54 437.896 1977.63 439.443Z" fill="#2AB5E8" fill-rule="evenodd"/></g></svg>