<svg width="94" height="85" xmlns="http://www.w3.org/2000/svg" xmlns:xlink="http://www.w3.org/1999/xlink" xml:space="preserve" overflow="hidden"><g transform="translate(-1027 -1490)"><path d="M1074 1494.57C1075.71 1494.57 1077.08 1495.93 1077.08 1497.64 1077.08 1499.36 1075.71 1500.72 1074 1500.72 1072.3 1500.72 1070.91 1499.35 1070.91 1497.64 1070.91 1495.93 1072.3 1494.57 1074 1494.57ZM1048.4 1500.93C1050.13 1500.93 1051.5 1502.31 1051.5 1504.01 1051.5 1505.71 1050.13 1507.1 1048.4 1507.1 1046.69 1507.1 1045.32 1505.69 1045.32 1504.01 1045.32 1502.31 1046.69 1500.93 1048.4 1500.93ZM1099.55 1500.93C1101.26 1500.93 1102.66 1502.31 1102.66 1504.01 1102.66 1505.71 1101.26 1507.1 1099.55 1507.1 1097.85 1507.1 1096.46 1505.71 1096.46 1504.01 1096.46 1502.31 1097.86 1500.93 1099.55 1500.93ZM1034.67 1523.05C1036.39 1523.05 1037.78 1524.41 1037.78 1526.13 1037.78 1527.84 1036.39 1529.2 1034.67 1529.2 1032.98 1529.2 1031.58 1527.84 1031.58 1526.13 1031.58 1524.41 1032.97 1523.05 1034.67 1523.05ZM1113.28 1523.05C1114.99 1523.05 1116.38 1524.41 1116.38 1526.13 1116.38 1527.84 1114.99 1529.2 1113.28 1529.2 1111.58 1529.2 1110.19 1527.84 1110.19 1526.13 1110.19 1524.41 1111.58 1523.05 1113.28 1523.05ZM1074 1517.08 1077.85 1529.88C1078.22 1531.13 1079.29 1532.11 1080.59 1532.36 1080.83 1532.41 1081.06 1532.43 1081.3 1532.43 1082.37 1532.43 1083.4 1531.94 1084.08 1531.12L1091.03 1522.72 1088.5 1539.61C1088.28 1540.94 1088.87 1542.27 1089.96 1543.06 1090.58 1543.51 1091.31 1543.72 1092.06 1543.72 1092.63 1543.72 1093.18 1543.6 1093.71 1543.34L1103.29 1538.38 1097.9 1559.84 1050.09 1559.84 1044.72 1538.38 1054.28 1543.34C1054.82 1543.6 1055.38 1543.72 1055.96 1543.72 1056.69 1543.72 1057.43 1543.51 1058.05 1543.06 1059.16 1542.28 1059.71 1540.94 1059.52 1539.61L1056.99 1522.72 1056.99 1522.72 1063.93 1531.12C1064.61 1531.94 1065.63 1532.43 1066.71 1532.43 1066.94 1532.43 1067.18 1532.41 1067.42 1532.36 1068.74 1532.09 1069.77 1531.13 1070.16 1529.88L1074 1517.08ZM1074 1490C1069.74 1490 1066.29 1493.44 1066.29 1497.67 1066.29 1500.57 1067.92 1503.05 1070.3 1504.36L1065.19 1521.37 1054.6 1508.53C1055.52 1507.27 1056.11 1505.69 1056.11 1504.01 1056.11 1499.77 1052.66 1496.35 1048.4 1496.35 1044.15 1496.35 1040.72 1499.77 1040.72 1504.01 1040.72 1508.1 1043.95 1511.43 1048.03 1511.64L1051.34 1533.7 1041.89 1528.82C1042.19 1527.96 1042.41 1527.07 1042.41 1526.13 1042.41 1521.89 1038.95 1518.45 1034.7 1518.45 1030.44 1518.45 1027 1521.89 1027 1526.13 1027 1530.36 1030.44 1533.8 1034.7 1533.8 1035.19 1533.8 1035.66 1533.72 1036.11 1533.66L1042.68 1559.84 1040.64 1559.84C1038.67 1559.84 1037.02 1561.45 1037.02 1563.42 1037.02 1565.41 1038.67 1567.02 1040.64 1567.02L1106.18 1567.02C1108.15 1567.02 1109.79 1565.41 1109.79 1563.42 1109.79 1561.44 1108.15 1559.84 1106.18 1559.84L1105.34 1559.84 1111.89 1533.66C1112.33 1533.76 1112.82 1533.8 1113.28 1533.8 1117.53 1533.8 1120.98 1530.36 1120.98 1526.13 1120.99 1521.89 1117.53 1518.45 1113.28 1518.45 1109.02 1518.45 1105.57 1521.89 1105.57 1526.13 1105.57 1527.07 1105.78 1527.99 1106.08 1528.83L1096.65 1533.7 1099.98 1511.64C1104.02 1511.42 1107.25 1508.09 1107.25 1504.01 1107.25 1499.77 1103.79 1496.35 1099.55 1496.35 1095.29 1496.35 1091.84 1499.77 1091.84 1504.01 1091.84 1505.71 1092.43 1507.29 1093.38 1508.54L1082.81 1521.37 1077.69 1504.36C1080.08 1503.05 1081.7 1500.57 1081.7 1497.67 1081.7 1493.44 1078.24 1490 1074 1490ZM1040.62 1570.39C1039.33 1570.39 1038.31 1571.39 1038.31 1572.7 1038.31 1573.97 1039.36 1575 1040.62 1575L1106.16 1575C1107.44 1575 1108.47 1573.95 1108.47 1572.7 1108.47 1571.43 1107.46 1570.39 1106.16 1570.39Z" fill="#2AB4E7" fill-rule="evenodd"/></g></svg>