<svg width="84" height="84" xmlns="http://www.w3.org/2000/svg" xmlns:xlink="http://www.w3.org/1999/xlink" xml:space="preserve" overflow="hidden"><defs><clipPath id="clip0"><rect x="175" y="665" width="84" height="84"/></clipPath></defs><g clip-path="url(#clip0)" transform="translate(-175 -665)"><path d="M252.703 691.161C250.997 691.73 250.072 693.585 250.637 695.303 250.64 695.311 250.643 695.321 250.646 695.33 252.322 700.345 252.856 705.676 252.208 710.927 249.919 730.526 232.283 744.544 212.819 742.239 204.924 741.304 197.57 737.727 191.935 732.083L197.142 732.083C198.94 732.083 200.397 730.616 200.397 728.806 200.397 726.996 198.94 725.529 197.142 725.529L184.255 725.529C182.457 725.529 181 726.996 181 728.806L181 741.599C181 743.408 182.457 744.875 184.255 744.875 186.052 744.875 187.509 743.408 187.509 741.599L187.509 736.854C204.055 753.24 230.661 753.019 246.935 736.36 258.03 725.003 261.849 708.335 256.817 693.232 256.236 691.528 254.406 690.606 252.703 691.161Z" fill="#2AB5E8" fill-rule="evenodd"/><path d="M180.201 722C180.54 721.999 180.877 721.947 181.2 721.845 182.88 721.286 183.79 719.462 183.234 717.772 183.231 717.763 183.227 717.755 183.224 717.746 177.147 699.311 187.072 679.409 205.393 673.293 210.258 671.669 215.417 671.142 220.507 671.748 227.457 672.586 233.995 675.516 239.264 680.154L234.139 680.154C232.37 680.154 230.936 681.596 230.936 683.377 230.936 685.156 232.37 686.599 234.139 686.599L246.797 686.599C248.566 686.599 250 685.156 250 683.377L250 670.743C250 668.963 248.566 667.52 246.797 667.52 245.028 667.52 243.594 668.963 243.594 670.743L243.594 675.435C228.662 662.129 206.407 661.478 190.732 673.888 177.031 684.779 171.598 703.152 177.152 719.808 177.593 721.123 178.822 722.006 180.201 722Z" fill="#2AB5E8" fill-rule="evenodd"/></g></svg>