<svg width="76" height="77" xmlns="http://www.w3.org/2000/svg" xmlns:xlink="http://www.w3.org/1999/xlink" xml:space="preserve" overflow="hidden"><defs><clipPath id="clip0"><rect x="1322" y="375" width="76" height="77"/></clipPath></defs><g clip-path="url(#clip0)" transform="translate(-1322 -375)"><path d="M1370.13 383.371C1359.18 372.258 1341.37 372.203 1330.36 383.248 1330.32 383.289 1330.28 383.33 1330.24 383.371 1319.26 394.538 1319.26 412.548 1330.24 423.715 1338.57 432.199 1351.3 434.486 1362.03 429.428L1363.14 430.546 1381.53 449.178C1385.24 452.93 1391.25 452.942 1394.97 449.205 1394.98 449.196 1394.99 449.187 1395 449.178L1395.22 448.929C1398.93 445.17 1398.93 439.1 1395.22 435.341L1376.83 416.709 1375.69 415.567C1380.69 404.716 1378.47 391.874 1370.13 383.371ZM1350.18 425.951C1344.31 425.961 1338.68 423.599 1334.55 419.392 1325.93 410.612 1325.93 396.473 1334.55 387.694 1343.19 379.009 1357.17 379.009 1365.82 387.694L1365.82 387.694C1374.43 396.473 1374.43 410.612 1365.82 419.392 1361.69 423.599 1356.05 425.961 1350.18 425.951ZM1390.94 439.713C1392.3 441.057 1392.32 443.259 1390.99 444.631 1390.97 444.648 1390.95 444.665 1390.94 444.681L1390.69 444.93C1389.38 446.302 1387.21 446.34 1385.85 445.015 1385.82 444.987 1385.79 444.959 1385.77 444.93L1367.37 426.298 1370.08 423.814C1370.84 423.118 1372.54 421.106 1372.54 421.106Z" fill="#2AB5E8" fill-rule="evenodd"/><path d="M1361.99 412.061 1360.12 412.061 1360.12 405.805C1360.12 405.405 1359.8 405.082 1359.4 405.082L1356.53 405.082C1356.14 405.082 1355.82 405.405 1355.82 405.805L1355.82 412.061 1353.11 412.061 1353.11 390.748C1353.11 390.345 1352.8 390.014 1352.4 390L1349.53 390C1349.13 390.014 1348.81 390.345 1348.81 390.748L1348.81 412.061 1346.13 412.061 1346.13 400.894C1346.15 400.495 1345.84 400.16 1345.45 400.146 1345.43 400.145 1345.41 400.145 1345.4 400.146L1342.55 400.146C1342.14 400.146 1341.81 400.48 1341.81 400.894L1341.81 412.061 1339.94 412.061C1338.87 412.061 1338 412.943 1338 414.031 1338 415.118 1338.87 416 1339.94 416L1362.06 416C1363.13 416 1364 415.118 1364 414.031 1364 412.943 1363.13 412.061 1362.06 412.061Z" fill="#2AB5E8" fill-rule="evenodd"/></g></svg>