<svg width="91" height="91" xmlns="http://www.w3.org/2000/svg" xmlns:xlink="http://www.w3.org/1999/xlink" xml:space="preserve" overflow="hidden"><defs><clipPath id="clip0"><rect x="1601" y="1482" width="91" height="91"/></clipPath></defs><g clip-path="url(#clip0)" transform="translate(-1601 -1482)"><path d="M1662.41 1483.4C1661.04 1483.4 1659.96 1484.51 1659.96 1485.85 1659.96 1487.21 1661.06 1488.32 1662.41 1488.32L1663.93 1488.32C1665.26 1488.32 1666.38 1487.21 1666.38 1485.85 1666.38 1484.51 1665.26 1483.4 1663.93 1483.4ZM1673.07 1483.4C1671.69 1483.4 1670.61 1484.51 1670.61 1485.85 1670.61 1487.21 1671.71 1488.32 1673.07 1488.32L1674.58 1488.32C1675.94 1488.32 1677.03 1487.21 1677.03 1485.85 1677.03 1484.51 1675.94 1483.4 1674.58 1483.4ZM1683.53 1484.62C1682.64 1484.62 1681.77 1485.11 1681.34 1485.95 1681.13 1486.32 1681.06 1486.71 1681.06 1487.08 1681.06 1487.98 1681.53 1488.82 1682.39 1489.26 1682.73 1489.45 1683.07 1489.64 1683.39 1489.87 1683.83 1490.17 1684.33 1490.33 1684.82 1490.33 1685.59 1490.33 1686.35 1489.97 1686.83 1489.29 1687.6 1488.17 1687.35 1486.64 1686.23 1485.85 1685.73 1485.5 1685.19 1485.17 1684.65 1484.88 1684.29 1484.7 1683.91 1484.62 1683.53 1484.62ZM1689.42 1493C1689.33 1493 1689.22 1493 1689.11 1493.02 1687.88 1493.17 1686.96 1494.23 1686.96 1495.43 1686.96 1495.53 1686.96 1495.66 1686.99 1495.76 1687.02 1496.13 1687.07 1496.5 1687.07 1496.96 1687.07 1498.29 1688.16 1499.39 1689.52 1499.39 1690.88 1499.39 1691.99 1498.26 1691.99 1496.9 1691.99 1496.3 1691.95 1495.73 1691.86 1495.13 1691.7 1493.9 1690.65 1493 1689.42 1493ZM1689.52 1503.64C1688.16 1503.64 1687.07 1504.74 1687.07 1506.09L1687.07 1507.61C1687.07 1508.97 1688.16 1510.07 1689.52 1510.07 1690.88 1510.07 1691.99 1508.97 1691.99 1507.61L1691.99 1506.09C1691.99 1504.74 1690.88 1503.64 1689.52 1503.64ZM1689.52 1514.29C1688.16 1514.29 1687.07 1515.39 1687.07 1516.74L1687.07 1518.26C1687.07 1519.62 1688.16 1520.72 1689.52 1520.72 1690.88 1520.72 1691.99 1519.62 1691.99 1518.26L1691.99 1516.74C1691.99 1515.39 1690.88 1514.29 1689.52 1514.29ZM1689.49 1524.95C1688.15 1524.95 1687.07 1526.05 1687.07 1527.39L1687.07 1528.91C1687.07 1530.27 1688.16 1531.37 1689.52 1531.37 1690.88 1531.37 1691.99 1530.27 1691.99 1528.91L1691.99 1527.39C1691.99 1526.04 1690.88 1524.95 1689.52 1524.95 1689.51 1524.95 1689.5 1524.95 1689.49 1524.95ZM1646.84 1489.71C1650.79 1489.71 1654.02 1492.93 1654.04 1496.9L1654.04 1527.85C1654.04 1531.82 1650.81 1535.04 1646.84 1535.04L1615.91 1535.04C1611.94 1535.04 1608.72 1531.82 1608.72 1527.85L1608.72 1496.9C1608.72 1492.93 1611.94 1489.71 1615.91 1489.71ZM1689.52 1535.6C1688.16 1535.6 1687.07 1536.7 1687.07 1538.05L1687.07 1539.57C1687.07 1540.9 1688.16 1542.02 1689.52 1542.02 1690.88 1542.02 1691.99 1540.9 1691.99 1539.57L1691.99 1538.05C1691.99 1536.7 1690.88 1535.6 1689.52 1535.6ZM1615.9 1482.01C1607.68 1482.01 1601 1488.67 1601 1496.89L1601 1527.82C1601 1530.87 1601.92 1533.7 1603.5 1536.04 1602.86 1536.5 1602.39 1537.21 1602.39 1538.05L1602.39 1539.57C1602.39 1540.92 1603.5 1542.02 1604.86 1542.02 1606.11 1542.02 1607.09 1541.1 1607.26 1539.89 1609.72 1541.65 1612.68 1542.72 1615.91 1542.72L1646.84 1542.72C1655.04 1542.72 1661.73 1536.03 1661.73 1527.82L1661.73 1496.89C1661.73 1491.96 1659.26 1487.58 1655.54 1484.87 1655.15 1483.99 1654.28 1483.4 1653.28 1483.4L1653.02 1483.4C1651.14 1482.52 1649.06 1482.01 1646.84 1482.01ZM1604.88 1546.26C1603.52 1546.26 1602.42 1547.38 1602.42 1548.72L1602.42 1550.24C1602.42 1551.59 1603.52 1552.71 1604.88 1552.71 1606.23 1552.71 1607.35 1551.59 1607.35 1550.24L1607.35 1548.72C1607.35 1547.38 1606.23 1546.26 1604.88 1546.26ZM1689.52 1546.25C1688.16 1546.25 1687.07 1547.35 1687.07 1548.71L1687.07 1550.24C1687.07 1551.59 1688.16 1552.71 1689.52 1552.71 1690.88 1552.71 1691.99 1551.59 1691.99 1550.24L1691.99 1548.71C1691.99 1547.35 1690.88 1546.25 1689.52 1546.25ZM1662.21 1538.35C1661.22 1538.35 1660.24 1538.72 1659.49 1539.46 1658.71 1540.22 1658.34 1541.2 1658.34 1542.22 1658.34 1543.18 1658.7 1544.16 1659.44 1544.91L1667.35 1552.9 1665.6 1552.9C1663.92 1552.9 1662.54 1554.27 1662.54 1555.97 1662.54 1557.66 1663.93 1559.03 1665.62 1559.03L1675.94 1559.03C1677.63 1559.03 1678.99 1557.66 1678.99 1555.97L1678.99 1545.65C1678.99 1543.96 1677.61 1542.59 1675.94 1542.59 1674.24 1542.59 1672.87 1543.96 1672.87 1545.65L1672.87 1547.49 1664.93 1539.49C1664.18 1538.73 1663.2 1538.35 1662.21 1538.35ZM1604.88 1556.95C1603.52 1556.95 1602.42 1558.13 1602.42 1559.49 1602.42 1560.07 1602.46 1560.63 1602.52 1561.2 1602.68 1562.45 1603.75 1563.35 1604.97 1563.35 1605.06 1563.35 1605.16 1563.34 1605.26 1563.33 1606.62 1563.15 1607.59 1561.92 1607.39 1560.57 1607.36 1560.21 1607.35 1559.86 1607.35 1559.36 1607.35 1558 1606.23 1556.95 1604.88 1556.95ZM1689.52 1556.95C1688.16 1556.95 1687.07 1558.13 1687.07 1559.49 1687.07 1559.89 1687.03 1560.29 1686.99 1560.66 1686.96 1560.79 1686.96 1560.89 1686.96 1561.02 1686.96 1562.23 1687.85 1563.26 1689.11 1563.46 1689.21 1563.47 1689.3 1563.48 1689.4 1563.48 1690.61 1563.48 1691.7 1562.58 1691.86 1561.34 1691.95 1560.73 1691.99 1560.1 1691.99 1559.49L1691.99 1559.36C1691.99 1558 1690.88 1556.95 1689.52 1556.95ZM1609.51 1565.99C1608.75 1565.99 1608 1566.35 1607.52 1567.02 1607.22 1567.48 1607.05 1567.96 1607.05 1568.46 1607.05 1569.22 1607.42 1569.99 1608.09 1570.46 1608.59 1570.82 1609.12 1571.14 1609.65 1571.42 1610.04 1571.63 1610.44 1571.73 1610.85 1571.73 1611.74 1571.73 1612.57 1571.25 1613.01 1570.41 1613.64 1569.2 1613.17 1567.73 1611.97 1567.09 1611.62 1566.91 1611.27 1566.7 1610.94 1566.46 1610.51 1566.14 1610.01 1565.99 1609.51 1565.99ZM1684.73 1566.09C1684.24 1566.09 1683.75 1566.24 1683.33 1566.53 1683.03 1566.76 1682.69 1566.96 1682.34 1567.15 1681.5 1567.59 1680.99 1568.45 1680.99 1569.35 1680.99 1569.72 1681.07 1570.11 1681.26 1570.46 1681.69 1571.3 1682.56 1571.8 1683.45 1571.8 1683.83 1571.8 1684.21 1571.72 1684.57 1571.52 1685.1 1571.24 1685.65 1570.91 1686.15 1570.58 1687.26 1569.82 1687.55 1568.25 1686.76 1567.15 1686.28 1566.47 1685.51 1566.09 1684.73 1566.09ZM1619.77 1568.08C1618.42 1568.08 1617.3 1569.18 1617.3 1570.52 1617.3 1571.88 1618.42 1572.99 1619.77 1572.99L1621.27 1572.99C1622.63 1572.99 1623.75 1571.88 1623.75 1570.52 1623.75 1569.18 1622.63 1568.08 1621.27 1568.08ZM1630.42 1568.08C1629.07 1568.08 1627.95 1569.18 1627.95 1570.52 1627.95 1571.88 1629.07 1572.99 1630.42 1572.99L1631.92 1572.99C1633.28 1572.99 1634.4 1571.88 1634.4 1570.52 1634.4 1569.18 1633.28 1568.08 1631.92 1568.08ZM1641.07 1568.08C1639.72 1568.08 1638.6 1569.18 1638.6 1570.52 1638.6 1571.88 1639.72 1572.99 1641.07 1572.99L1642.57 1572.99C1643.93 1572.99 1645.05 1571.88 1645.05 1570.52 1645.05 1569.18 1643.93 1568.08 1642.57 1568.08ZM1651.69 1568.08C1650.35 1568.08 1649.24 1569.18 1649.24 1570.52 1649.24 1571.88 1650.35 1572.99 1651.69 1572.99L1653.21 1572.99C1654.58 1572.99 1655.68 1571.88 1655.68 1570.52 1655.68 1569.18 1654.57 1568.08 1653.21 1568.08ZM1662.35 1568.08C1661 1568.08 1659.9 1569.18 1659.9 1570.52 1659.9 1571.88 1661 1572.99 1662.35 1572.99L1663.86 1572.99C1665.23 1572.99 1666.33 1571.88 1666.33 1570.52 1666.33 1569.18 1665.22 1568.08 1663.86 1568.08ZM1673 1568.08C1671.65 1568.08 1670.55 1569.18 1670.55 1570.52 1670.55 1571.88 1671.65 1572.99 1673 1572.99L1674.51 1572.99C1675.88 1572.99 1676.98 1571.88 1676.98 1570.52 1676.98 1569.18 1675.87 1568.08 1674.51 1568.08Z" fill="#2AB5E8" fill-rule="evenodd"/></g></svg>