<svg width="96" height="83" xmlns="http://www.w3.org/2000/svg" xmlns:xlink="http://www.w3.org/1999/xlink" xml:space="preserve" overflow="hidden"><defs><clipPath id="clip0"><rect x="2742" y="1212" width="96" height="83"/></clipPath></defs><g clip-path="url(#clip0)" transform="translate(-2742 -1212)"><path d="M2754.54 1280 2792.51 1280C2794.55 1280 2796.2 1278.36 2796.2 1276.34 2796.2 1274.32 2794.55 1272.68 2792.51 1272.68L2754.54 1272.68C2751.69 1272.68 2749.38 1270.38 2749.38 1267.55L2749.38 1235.9 2829.62 1235.9 2829.62 1253.73C2829.62 1255.75 2831.28 1257.39 2833.31 1257.39 2835.35 1257.39 2837 1255.75 2837 1253.73L2837 1224.45C2836.98 1217.58 2831.38 1212.02 2824.46 1212L2754.54 1212C2747.61 1212 2742 1217.57 2742 1224.45 2742 1224.47 2742 1224.49 2742 1224.5L2742 1267.55C2742 1274.43 2747.61 1280 2754.54 1280ZM2749.38 1224.5C2749.31 1221.68 2751.57 1219.33 2754.42 1219.26 2754.46 1219.26 2754.5 1219.26 2754.54 1219.26L2824.46 1219.26C2827.31 1219.26 2829.62 1221.56 2829.62 1224.39L2829.62 1231.09 2749.38 1231.09Z" fill="#2AB5E8" fill-rule="evenodd"/><path d="M2759 1225.5C2759 1226.88 2757.88 1228 2756.5 1228 2755.12 1228 2754 1226.88 2754 1225.5 2754 1224.12 2755.12 1223 2756.5 1223 2757.88 1223 2759 1224.12 2759 1225.5Z" fill="#2AB5E8" fill-rule="evenodd"/><path d="M2764.53 1223C2763.15 1222.98 2762.02 1224.09 2762 1225.47 2761.98 1226.85 2763.09 1227.98 2764.47 1228 2765.85 1228.02 2766.98 1226.91 2767 1225.53 2767 1225.51 2767 1225.49 2767 1225.47 2766.98 1224.11 2765.89 1223.02 2764.53 1223Z" fill="#2AB5E8" fill-rule="evenodd"/><path d="M2828.69 1278.77C2833.92 1271.39 2832.15 1261.19 2824.75 1255.99 2822.33 1254.28 2819.49 1253.27 2816.53 1253.04 2812.23 1252.73 2807.98 1254.15 2804.73 1256.98 2797.84 1262.87 2797.05 1273.21 2802.96 1280.08 2805.8 1283.37 2809.83 1285.4 2814.17 1285.74L2815.41 1285.74C2817.93 1285.72 2820.4 1285.12 2822.64 1283.97L2830.93 1293.62C2831.61 1294.41 2832.58 1294.91 2833.62 1295L2833.94 1295C2834.94 1294.99 2835.89 1294.61 2836.63 1293.94 2838.28 1292.52 2838.47 1290.03 2837.04 1288.38 2837.04 1288.38 2837.04 1288.38 2837.04 1288.38ZM2822.79 1278.24C2817.95 1282.43 2810.63 1281.91 2806.43 1277.09 2806.4 1277.06 2806.38 1277.04 2806.35 1277.01 2802.18 1272.1 2802.73 1264.77 2807.59 1260.54 2809.68 1258.67 2812.37 1257.62 2815.18 1257.6L2816.06 1257.6C2819.16 1257.81 2822.05 1259.27 2824.06 1261.63 2828.34 1266.52 2827.84 1273.95 2822.93 1278.22 2822.92 1278.23 2822.91 1278.23 2822.91 1278.24Z" fill="#2AB5E8" fill-rule="evenodd"/><path d="M2821 1246C2821 1245.45 2820.35 1245 2819.54 1245L2758.46 1245C2757.65 1245 2757 1245.45 2757 1246 2757 1246.55 2757.65 1247 2758.46 1247L2819.54 1247C2820.35 1247 2821 1246.55 2821 1246Z" fill="#2AB5E8" fill-rule="evenodd"/><path d="M2796.54 1254 2758.46 1254C2757.66 1254 2757 1254.67 2757 1255.5 2757 1256.33 2757.66 1257 2758.46 1257L2796.54 1257C2797.34 1257 2798 1256.33 2798 1255.5 2798 1254.67 2797.34 1254 2796.54 1254Z" fill="#2AB5E8" fill-rule="evenodd"/><path d="M2758.49 1263C2757.67 1263 2757 1263.67 2757 1264.5 2757 1265.33 2757.67 1266 2758.49 1266L2791.51 1266C2792.33 1266 2793 1265.33 2793 1264.5 2793 1263.67 2792.33 1263 2791.51 1263Z" fill="#2AB5E8" fill-rule="evenodd"/></g></svg>