<svg width="97" height="96" xmlns="http://www.w3.org/2000/svg" xmlns:xlink="http://www.w3.org/1999/xlink" xml:space="preserve" overflow="hidden"><defs><clipPath id="clip0"><rect x="3028" y="680" width="97" height="96"/></clipPath></defs><g clip-path="url(#clip0)" transform="translate(-3028 -680)"><path d="M3064.2 687.649C3071.69 687.649 3078.69 690.56 3084 695.829 3094.93 706.702 3094.93 724.446 3084 735.319 3078.69 740.61 3071.65 743.499 3064.2 743.499 3056.72 743.499 3049.69 740.588 3044.38 735.319 3033.46 724.446 3033.46 706.702 3044.38 695.829 3049.69 690.549 3056.72 687.649 3064.2 687.649ZM3092.53 737.44 3115.83 760.669C3117.53 762.357 3117.53 765.094 3115.83 766.782L3115.53 767.085C3114.67 767.918 3113.56 768.34 3112.44 768.34 3111.35 768.34 3110.23 767.918 3109.37 767.085L3086.06 743.834C3086.06 743.834 3088.49 741.67 3089.5 740.815 3090.48 739.95 3092.53 737.44 3092.53 737.44ZM3064.2 680C3054.65 680 3045.68 683.711 3038.93 690.419 3025.01 704.279 3025.01 726.858 3038.93 740.74 3045.68 747.448 3054.65 751.148 3064.2 751.148 3069.47 751.148 3074.55 749.99 3079.22 747.837L3080.61 749.254 3103.92 772.484C3106.19 774.745 3109.21 776 3112.44 776 3115.67 776 3118.71 774.745 3120.98 772.484L3121.27 772.181C3125.99 767.517 3125.99 759.933 3121.3 755.238L3097.99 732.03 3096.55 730.58C3102.71 717.402 3100.35 701.26 3089.46 690.419 3082.72 683.7 3073.75 680 3064.2 680Z" fill="#2AB5E8" fill-rule="evenodd"/></g></svg>