<svg width="91" height="93" xmlns="http://www.w3.org/2000/svg" xmlns:xlink="http://www.w3.org/1999/xlink" xml:space="preserve" overflow="hidden"><defs><clipPath id="clip0"><rect x="3030" y="644" width="91" height="93"/></clipPath></defs><g clip-path="url(#clip0)" transform="translate(-3030 -644)"><path d="M3066.56 644C3048.4 644 3030 649.538 3030 660.159L3030 712.811C3030 723.433 3048.4 729 3066.56 729 3071.1 728.984 3075.63 728.61 3080.1 727.881L3080.1 727.881C3080.28 727.897 3080.46 727.897 3080.64 727.881 3080.9 727.863 3081.15 727.812 3081.39 727.729 3082.58 727.201 3083.34 726.013 3083.34 724.703L3083.34 724.34C3083.14 722.69 3081.75 721.453 3080.1 721.466L3079.63 721.466 3079.03 721.466C3077.38 721.647 3073.84 722.071 3070.46 722.283 3069.71 722.283 3069.02 722.283 3068.24 722.283L3066.47 722.283C3048.07 722.283 3036.32 716.563 3036.32 712.599L3036.32 704.792C3043.28 709.18 3054.9 711.419 3066.47 711.419 3072.78 711.507 3079.09 710.805 3085.23 709.331L3084.69 709.331 3084.42 709.331C3085.95 709.257 3087.22 708.085 3087.42 706.547 3087.43 706.396 3087.43 706.244 3087.42 706.093 3087.45 704.322 3086.06 702.859 3084.3 702.826 3084.29 702.826 3084.28 702.825 3084.27 702.825L3083.31 703.007 3083.31 703.007C3077.79 704.353 3072.12 704.974 3066.44 704.853 3048.04 704.853 3036.29 699.103 3036.29 695.17L3036.29 687.272C3043.25 691.659 3054.87 693.899 3066.44 693.899 3078.01 693.899 3089.63 691.659 3096.59 687.272L3096.59 688.573C3096.58 690.361 3098 691.82 3099.77 691.831 3100.62 691.837 3101.44 691.503 3102.04 690.903 3102.41 690.513 3102.68 690.034 3102.82 689.511 3102.91 689.257 3102.97 688.993 3103 688.724L3103 660.159C3103.15 649.538 3084.75 644 3066.56 644ZM3096.71 677.74C3096.71 681.674 3084.96 687.423 3066.56 687.423 3048.16 687.423 3036.41 681.674 3036.41 677.74L3036.41 669.721C3043.37 674.078 3054.99 676.348 3066.56 676.348 3078.13 676.348 3089.75 674.078 3096.71 669.721ZM3066.56 669.872C3048.16 669.872 3036.41 664.123 3036.41 660.159 3036.41 656.195 3048.16 650.476 3066.56 650.476 3084.96 650.476 3096.71 656.225 3096.71 660.159 3096.71 664.092 3084.96 669.872 3066.56 669.872Z" fill="#2AB5E8" fill-rule="evenodd"/><path d="M3103.51 717.003C3101.2 716.91 3099.22 718.751 3099 721.199L3099 725.802C3099.23 728.242 3101.2 730.076 3103.51 729.998 3105.8 730.029 3107.74 728.216 3108 725.802L3108 721.199C3107.77 718.771 3105.81 716.942 3103.51 717.003ZM3104.31 724.863C3104.31 724.863 3104.31 725.646 3103.49 725.646 3102.66 725.646 3102.66 724.988 3102.66 724.863L3102.66 722.139C3102.66 721.888 3102.66 721.356 3103.49 721.356 3104.31 721.356 3104.31 721.982 3104.31 722.139Z" fill="#2AB5E8" fill-rule="evenodd"/><path d="M3116.39 710.853 3116.39 706.571C3116.31 700.098 3111.16 694.918 3104.9 695.001 3104.9 695.001 3104.9 695.001 3104.9 695.001L3103.19 695.001C3096.91 694.9 3091.73 700.076 3091.61 706.571L3091.61 710.853C3088.85 711.999 3087.02 714.758 3087 717.838L3087 729.407C3087.05 733.651 3090.42 737.05 3094.52 736.999 3094.52 736.999 3094.52 736.999 3094.52 736.999L3113.45 736.999C3117.56 737.05 3120.94 733.656 3121 729.407L3121 717.838C3120.97 714.761 3119.15 712.005 3116.39 710.853ZM3097.11 706.571C3097.2 703.219 3099.91 700.581 3103.16 700.679 3103.17 700.679 3103.18 700.68 3103.19 700.68L3104.9 700.68C3108.07 700.679 3110.68 703.289 3110.77 706.571L3110.77 710.246 3097.05 710.246ZM3115.42 729.407C3115.34 730.466 3114.48 731.279 3113.45 731.26L3094.55 731.26C3093.48 731.311 3092.57 730.457 3092.52 729.351 3092.52 729.35 3092.52 729.348 3092.52 729.347L3092.52 717.838C3092.55 716.748 3093.43 715.89 3094.49 715.922 3094.51 715.922 3094.53 715.923 3094.55 715.925L3113.45 715.925C3114.5 715.857 3115.41 716.684 3115.47 717.772 3115.47 717.794 3115.47 717.816 3115.48 717.838Z" fill="#2AB5E8" fill-rule="evenodd"/></g></svg>