<svg width="72" height="77" xmlns="http://www.w3.org/2000/svg" xmlns:xlink="http://www.w3.org/1999/xlink" xml:space="preserve" overflow="hidden"><defs><clipPath id="clip0"><rect x="2468" y="375" width="72" height="77"/></clipPath></defs><g clip-path="url(#clip0)" transform="translate(-2468 -375)"><path d="M2532.41 393.787 2535.96 399.756 2535.96 401.293 2535.85 401.293C2534.26 401.293 2532.41 400.457 2532.41 399.396L2532.41 393.787ZM2511.67 388.744 2511.67 402.488 2488.96 402.488 2488.96 388.744ZM2486.94 384.681C2485.82 384.681 2484.91 385.607 2484.91 386.722L2484.91 404.547C2484.91 405.671 2485.82 406.578 2486.94 406.578L2513.69 406.578C2514.81 406.578 2515.71 405.671 2515.71 404.547L2515.71 386.722C2515.72 385.607 2514.82 384.681 2513.69 384.681ZM2518.59 381.373 2518.59 441.177 2481.93 441.177 2481.93 381.373ZM2478.74 375.009C2477 375.009 2475.57 376.438 2475.57 378.2L2475.57 441.177 2471.18 441.177C2469.44 441.177 2468.01 442.589 2468.01 444.35L2468.01 448.809C2468.01 450.553 2469.41 452 2471.18 452L2529.34 452C2531.08 452 2532.51 450.58 2532.51 448.809L2532.51 444.35C2532.51 442.598 2531.11 441.177 2529.34 441.177L2524.9 441.177 2524.9 410.444 2526.4 410.444C2526.64 410.444 2526.82 410.471 2526.94 410.489L2526.94 423.846C2526.94 427.469 2529.88 430.417 2533.47 430.417 2537.07 430.417 2540 427.469 2540 423.846L2540 399.19C2540 398.821 2539.89 398.461 2539.71 398.138L2534.62 389.544C2534.26 388.924 2533.59 388.555 2532.87 388.555L2527.02 388.555C2525.91 388.555 2525.01 389.472 2525.01 390.596 2525.01 391.702 2525.91 392.628 2527.02 392.628L2528.35 392.628 2528.35 399.378C2528.35 403.118 2532.15 405.356 2535.83 405.356L2535.93 405.356 2535.93 423.846C2535.93 425.24 2534.83 426.354 2533.46 426.354 2532.08 426.354 2530.98 425.24 2530.98 423.846L2530.98 410.444C2530.98 409.23 2530.52 406.372 2526.38 406.372L2524.89 406.372 2524.89 378.2C2524.89 376.447 2523.48 375.009 2521.71 375.009Z" fill="#2AB5E8" fill-rule="evenodd"/></g></svg>