<svg width="69" height="71" xmlns="http://www.w3.org/2000/svg" xmlns:xlink="http://www.w3.org/1999/xlink" xml:space="preserve" overflow="hidden"><defs><clipPath id="clip0"><rect x="1898" y="652" width="69" height="71"/></clipPath></defs><g clip-path="url(#clip0)" transform="translate(-1898 -652)"><path d="M1898 709.488C1898 718.363 1915.37 723 1932.5 723 1949.63 723 1967 718.363 1967 709.488L1967 665.512C1967 656.637 1949.63 652 1932.5 652 1915.37 652 1898 656.637 1898 665.512ZM1920.34 707.114C1917.39 706.686 1914.49 706.025 1911.68 705.139L1911.68 697.196C1914.5 698.04 1917.4 698.678 1920.34 699.104ZM1920.34 696.863C1917.39 696.433 1914.5 695.779 1911.68 694.911L1911.68 687.123C1914.5 687.938 1917.4 688.547 1920.34 688.942ZM1920.34 686.746C1917.39 686.323 1914.5 685.677 1911.68 684.815L1911.68 676.65C1914.49 677.558 1917.39 678.241 1920.34 678.692ZM1931.38 697.839C1928.49 697.799 1925.59 697.614 1922.72 697.285L1922.72 689.253C1925.6 689.567 1928.49 689.737 1931.38 689.763ZM1942.43 707.535C1939.56 707.868 1936.66 708.046 1933.77 708.068L1933.77 699.925C1936.66 699.902 1939.56 699.724 1942.43 699.393ZM1953.47 714.813C1950.66 715.707 1947.76 716.368 1944.81 716.788L1944.81 709.333C1947.75 708.911 1950.64 708.288 1953.47 707.469ZM1953.47 695C1950.65 695.868 1947.75 696.521 1944.81 696.952L1944.81 688.942C1947.75 688.544 1950.64 687.936 1953.47 687.123ZM1953.47 684.904C1950.65 685.766 1947.75 686.411 1944.81 686.834L1944.81 678.692C1947.76 678.241 1950.66 677.558 1953.47 676.65ZM1960.92 709.577C1960.92 710.908 1959.08 712.505 1955.73 713.903L1955.73 706.648C1957.61 706.014 1959.4 705.171 1961.04 704.141ZM1960.92 681.199C1959.38 682.414 1957.63 683.389 1955.73 684.083L1955.73 675.807 1956.97 675.253C1958.34 674.764 1959.66 674.17 1960.92 673.478ZM1932.5 657.414C1949.87 657.414 1961.04 662.206 1961.04 665.512 1961.04 668.818 1949.87 673.611 1932.5 673.611 1915.13 673.611 1903.96 668.818 1903.96 665.512 1903.96 662.206 1915.13 657.414 1932.5 657.414ZM1903.96 673.478C1905.21 674.166 1906.52 674.76 1907.88 675.253L1909.14 675.807 1909.14 683.994C1907.25 683.298 1905.5 682.332 1903.96 681.132ZM1903.96 693.912C1905.57 694.922 1907.31 695.763 1909.14 696.419L1909.14 704.296C1907.25 703.586 1905.5 702.604 1903.96 701.389ZM1903.96 704.141C1905.57 705.159 1907.31 706 1909.14 706.648L1909.14 713.814C1905.89 712.417 1903.96 710.797 1903.96 709.488Z" fill="#2AB5E8" fill-rule="evenodd"/></g></svg>