<svg width="98" height="98" xmlns="http://www.w3.org/2000/svg" xmlns:xlink="http://www.w3.org/1999/xlink" xml:space="preserve" overflow="hidden"><defs><clipPath id="clip0"><rect x="2169" y="659" width="98" height="98"/></clipPath></defs><g clip-path="url(#clip0)" transform="translate(-2169 -659)"><path d="M2175.27 717.315C2177 715.363 2180.53 713.92 2185.03 713.284L2185.03 707.288C2184.97 706.177 2184.97 705.064 2185.03 703.953 2185.25 702.529 2185.36 701.09 2185.36 699.649 2185.37 698.297 2184.65 697.046 2183.48 696.375L2177.96 693.162 2185.29 680.643 2190.45 683.674C2191.8 684.481 2193.52 684.335 2194.73 683.311L2195.03 683.068C2198.18 679.974 2201.98 677.624 2206.14 676.187 2207.7 675.71 2208.78 674.279 2208.81 672.641L2208.81 666.578 2223.9 666.578 2223.9 672.641C2223.9 672.641 2227.27 668.021 2231.32 665.905L2231.32 664.778C2231.32 660.691 2229.63 659.018 2227.58 659L2205.06 659C2202.99 659.003 2201.32 660.684 2201.32 662.759L2201.32 669.943C2197.89 671.402 2194.72 673.397 2191.92 675.854L2185.89 672.277C2185.31 671.941 2184.66 671.763 2183.99 671.761 2182.66 671.754 2181.43 672.459 2180.76 673.611L2169.55 692.647C2168.99 693.552 2168.85 694.658 2169.16 695.678 2169.44 696.655 2170.09 697.482 2170.97 697.982L2177.91 701.922C2177.71 703.734 2177.59 705.555 2177.58 707.379L2177.58 713.077ZM2249.16 707.943C2249.2 710.16 2249.04 712.377 2248.67 714.563 2248.29 716.205 2249.06 717.901 2250.54 718.685L2256.12 721.716 2248.7 734.599 2242.94 731.568C2242.4 731.27 2241.78 731.114 2241.16 731.113 2240.32 731.112 2239.51 731.389 2238.84 731.901 2235.29 735.071 2231.12 737.457 2226.59 738.904 2224.99 739.37 2223.89 740.838 2223.88 742.511L2223.88 748.422 2212.24 748.422C2211.11 752.666 2207.42 756 2206.7 756L2227.56 756C2229.62 755.98 2231.28 754.309 2231.3 752.241L2231.3 744.966C2234.94 743.481 2238.37 741.492 2241.46 739.055L2248.37 742.784C2248.93 743.092 2249.55 743.258 2250.18 743.269 2251.52 743.264 2252.75 742.534 2253.41 741.359L2264.57 721.959C2265.03 721.06 2265.12 720.018 2264.84 719.049 2264.55 718.068 2263.89 717.24 2263 716.745L2256.36 713.108C2256.54 711.173 2256.61 709.23 2256.58 707.288 2256.58 706.378 2256.58 706.027 2256.58 705.154 2257.25 704.784 2253.9 707.033 2249.16 707.943Z" fill="#2AB5E8" fill-rule="evenodd"/><path d="M2209.41 729 2237.42 703.382C2247.96 708.193 2260.37 703.477 2265.14 692.85 2267.38 687.845 2267.61 682.155 2265.76 676.986 2265.44 676.054 2264.67 675.35 2263.72 675.113 2262.77 674.894 2261.78 675.148 2261.05 675.794L2251.8 684.309C2250.22 685.803 2247.74 685.724 2246.26 684.132 2244.78 682.539 2244.86 680.038 2246.43 678.543 2246.47 678.512 2246.5 678.482 2246.53 678.452L2255.81 669.937C2257 668.845 2257.08 666.991 2256 665.795 2256 665.793 2256 665.791 2255.99 665.789 2255.74 665.51 2255.44 665.283 2255.1 665.12 2244.73 660.042 2232.25 664.4 2227.21 674.854 2224.79 679.894 2224.45 685.703 2226.29 690.993L2198 716.879M2232.37 690.574C2228.9 682.901 2232.26 673.848 2239.87 670.352 2242.44 669.171 2245.28 668.738 2248.08 669.104L2242.66 674.073C2238.66 677.706 2238.34 683.918 2241.94 687.949 2245.54 691.98 2251.7 692.303 2255.7 688.67L2255.75 688.621 2261.18 683.652C2261.42 692.093 2254.84 699.135 2246.47 699.38 2243.65 699.463 2240.87 698.753 2238.44 697.331 2237.11 696.549 2235.92 695.562 2234.9 694.405 2233.87 693.262 2233.01 691.97 2232.35 690.574ZM2203.17 720.066 2229.04 696.412C2229.52 697.08 2230.04 697.722 2230.6 698.334 2231.16 698.943 2231.75 699.551 2232.36 700.092L2206.48 723.77C2205.54 722.399 2204.43 721.155 2203.17 720.066Z" fill="#2AB5E8" fill-rule="evenodd"/><path d="M2198.65 716.873C2188.09 712.092 2175.65 716.779 2170.87 727.34 2168.62 732.313 2168.39 737.967 2170.24 743.103 2170.57 744.028 2171.34 744.727 2172.29 744.965 2173.24 745.182 2174.23 744.93 2174.96 744.288L2184.24 735.827C2185.82 734.342 2188.31 734.421 2189.79 736.003 2191.28 737.585 2191.2 740.071 2189.62 741.556 2189.58 741.587 2189.55 741.617 2189.52 741.647L2180.21 750.108C2179.03 751.204 2178.95 753.055 2180.05 754.242 2180.3 754.514 2180.6 754.735 2180.93 754.895 2191.32 759.938 2203.83 755.609 2208.88 745.225 2211.32 740.088 2211.67 734.204 2209.85 728.816M2203.73 729.601C2207.21 737.225 2203.84 746.222 2196.22 749.698 2193.64 750.876 2190.77 751.306 2187.96 750.936L2193.4 745.998C2197.4 742.388 2197.72 736.215 2194.11 732.209 2190.5 728.204 2184.33 727.883 2180.32 731.493L2180.27 731.542 2174.83 736.479C2174.66 732.058 2176.47 727.791 2179.77 724.839 2184.63 720.311 2191.9 719.517 2197.63 722.887 2198.95 723.674 2200.14 724.665 2201.16 725.824 2202.19 726.95 2203.06 728.223 2203.73 729.601Z" fill="#2AB5E8" fill-rule="evenodd"/></g></svg>