<svg width="89" height="37" xmlns="http://www.w3.org/2000/svg" xmlns:xlink="http://www.w3.org/1999/xlink" xml:space="preserve" overflow="hidden"><defs><clipPath id="clip0"><rect x="3031" y="953" width="89" height="37"/></clipPath></defs><g clip-path="url(#clip0)" transform="translate(-3031 -953)"><path d="M3112.74 953 3038.26 953C3034.25 953 3031 956.31 3031 960.394L3031 982.606C3031 986.69 3034.25 990 3038.26 990L3112.74 990C3116.75 990 3120 986.69 3120 982.606L3120 960.394C3120 956.31 3116.75 953 3112.74 953ZM3113.22 982.606C3113.22 982.88 3113.01 983.103 3112.74 983.103L3038.26 983.103C3037.99 983.103 3037.78 982.88 3037.78 982.606L3037.78 960.394C3037.78 960.12 3037.99 959.897 3038.26 959.897L3112.74 959.897C3113.01 959.897 3113.22 960.12 3113.22 960.394Z" fill="#2AB5E8" fill-rule="evenodd"/><path d="M3051 965C3047.13 965 3044 968.134 3044 972 3044 975.866 3047.13 979 3051 979 3054.87 979 3058 975.866 3058 972 3058 971.991 3058 971.981 3058 971.972 3058 968.121 3054.88 965 3051.03 965 3051.02 965 3051.01 965 3051 965ZM3051 974.727C3049.45 974.727 3048.19 973.468 3048.19 971.915 3048.19 970.363 3049.45 969.104 3051 969.104 3052.55 969.104 3053.81 970.363 3053.81 971.915 3053.81 973.468 3052.55 974.727 3051 974.727Z" fill="#2AB5E8" fill-rule="evenodd"/><path d="M3105.87 965 3066.13 965C3064.95 965 3064 965.896 3064 967 3064 968.105 3064.95 969 3066.13 969L3105.87 969C3107.05 969 3108 968.105 3108 967 3108 965.896 3107.05 965 3105.87 965Z" fill="#2AB5E8" fill-rule="evenodd"/><path d="M3105.87 974 3066.13 974C3064.95 974 3064 974.895 3064 976 3064 977.105 3064.95 978 3066.13 978L3105.87 978C3107.05 978 3108 977.105 3108 976 3108 974.895 3107.05 974 3105.87 974Z" fill="#2AB5E8" fill-rule="evenodd"/></g></svg>