<svg width="88" height="89" xmlns="http://www.w3.org/2000/svg" xmlns:xlink="http://www.w3.org/1999/xlink" xml:space="preserve" overflow="hidden"><defs><clipPath id="clip0"><rect x="2746" y="927" width="88" height="89"/></clipPath></defs><g clip-path="url(#clip0)" transform="translate(-2746 -927)"><path d="M2813.87 934.046 2822.64 943.946 2756.79 943.946 2764.74 934.046ZM2798.37 955.612C2796.83 955.612 2795.57 956.87 2795.57 958.427 2795.57 959.983 2796.83 961.241 2798.37 961.241L2817.93 961.241C2819.46 961.241 2820.71 959.983 2820.71 958.427 2820.71 956.87 2819.46 955.612 2817.93 955.612ZM2763.08 954.884C2761.15 954.884 2759.58 956.481 2759.58 958.427 2759.58 960.363 2761.15 961.949 2763.08 961.969 2765.02 961.969 2766.58 960.363 2766.58 958.427 2766.58 956.471 2765 954.884 2763.08 954.884ZM2827.01 951.002 2827.01 966.919 2752.99 966.919 2752.99 951.002ZM2798.38 976.789C2796.84 976.789 2795.59 978.047 2795.59 979.604 2795.59 981.161 2796.84 982.418 2798.38 982.418L2817.95 982.418C2819.47 982.418 2820.73 981.161 2820.73 979.604 2820.73 978.047 2819.46 976.789 2817.95 976.789ZM2763.06 976.061C2761.12 976.061 2759.57 977.658 2759.57 979.604 2759.57 981.56 2761.13 983.147 2763.06 983.147 2765 983.147 2766.56 981.54 2766.56 979.604 2766.56 977.658 2765 976.071 2763.06 976.061ZM2826.98 971.44 2826.98 988.556 2752.97 988.556 2752.97 971.44ZM2798.38 998.336C2796.84 998.336 2795.59 999.593 2795.59 1001.15 2795.59 1002.69 2796.84 1003.96 2798.38 1003.96L2817.95 1003.96C2819.47 1003.96 2820.73 1002.71 2820.73 1001.15 2820.73 999.593 2819.46 998.336 2817.95 998.336ZM2763.06 997.607C2761.12 997.607 2759.57 999.194 2759.57 1001.15 2759.57 1003.11 2761.13 1004.67 2763.06 1004.67 2765 1004.67 2766.56 1003.09 2766.56 1001.15 2766.56 999.194 2765 997.627 2763.06 997.607ZM2826.98 993.077 2826.98 1003.98C2827.01 1008.24 2825.91 1008.93 2822.43 1008.93L2756.09 1008.93C2753.2 1008.93 2752.97 1008.93 2752.97 1003.98L2752.97 993.077ZM2763.08 927.01C2762.03 927.01 2761.03 927.479 2760.37 928.327L2746.79 945.263C2746.58 945.533 2746.43 945.782 2746.31 946.082 2746.31 946.111 2746.29 946.111 2746.29 946.121 2746.13 946.511 2746.07 946.93 2746.04 947.339 2746.04 947.399 2746.01 947.439 2746.01 947.489L2746.01 1003.99C2746.01 1008.21 2746.01 1016 2756.1 1016L2822.43 1016C2827.71 1016 2834 1013.92 2834 1003.99L2834 947.489C2833.99 947.399 2833.94 947.339 2833.94 947.299 2833.93 946.94 2833.85 946.61 2833.75 946.291 2833.7 946.211 2833.7 946.121 2833.67 946.052 2833.53 945.712 2833.34 945.403 2833.09 945.114L2818.04 928.178C2817.38 927.439 2816.44 927.01 2815.45 927.01Z" fill="#2AB5E8" fill-rule="evenodd"/></g></svg>