<svg width="92" height="82" xmlns="http://www.w3.org/2000/svg" xmlns:xlink="http://www.w3.org/1999/xlink" xml:space="preserve" overflow="hidden"><defs><clipPath id="clip0"><rect x="171" y="1487" width="92" height="82"/></clipPath></defs><g clip-path="url(#clip0)" transform="translate(-171 -1487)"><path d="M233.907 1487.01C233.841 1487.01 233.819 1487.02 233.787 1487.02 233.58 1487.02 233.405 1487.09 233.187 1487.12 232.98 1487.17 232.751 1487.19 232.544 1487.26 232.49 1487.28 232.413 1487.32 232.337 1487.35 232.141 1487.43 231.977 1487.58 231.814 1487.69 231.65 1487.8 231.487 1487.83 231.356 1487.96L219.965 1497.96C218.362 1499.36 218.199 1501.8 219.594 1503.41 220.357 1504.28 221.426 1504.72 222.494 1504.72 223.398 1504.72 224.314 1504.44 225.044 1503.78L230.015 1499.39 230.015 1552.72C230.015 1554.89 231.737 1556.6 233.885 1556.6 236.043 1556.6 237.754 1554.85 237.754 1552.72L237.754 1499.5 244.24 1505.28C244.992 1505.92 245.908 1506.25 246.824 1506.25 247.87 1506.25 248.927 1505.81 249.68 1504.95 251.108 1503.34 250.966 1500.91 249.363 1499.5L236.479 1487.98C236.359 1487.85 236.163 1487.82 236.043 1487.72 235.847 1487.61 235.683 1487.45 235.509 1487.36 235.422 1487.35 235.356 1487.32 235.28 1487.28 235.084 1487.21 234.855 1487.19 234.648 1487.15 234.441 1487.11 234.223 1487.02 234.026 1487.02 233.983 1487.02 233.95 1487.01 233.907 1487.01ZM200.061 1487.02C200.028 1487.02 199.973 1487.04 199.93 1487.04 199.712 1487.04 199.526 1487.12 199.308 1487.17 199.101 1487.21 198.905 1487.24 198.676 1487.32 198.6 1487.33 198.534 1487.35 198.458 1487.39 198.273 1487.48 198.109 1487.64 197.935 1487.74 197.793 1487.83 197.608 1487.89 197.466 1487.99L184.582 1499.52C182.979 1500.94 182.838 1503.38 184.255 1504.97 185.018 1505.82 186.075 1506.26 187.122 1506.26 188.026 1506.26 188.953 1505.94 189.694 1505.29L196.169 1499.52 196.169 1552.74C196.169 1554.89 197.891 1556.62 200.039 1556.62 202.164 1556.62 203.898 1554.9 203.898 1552.74L203.898 1499.45 209.239 1504.18C209.958 1504.84 210.885 1505.16 211.789 1505.16 212.858 1505.16 213.926 1504.71 214.689 1503.83 216.095 1502.24 215.932 1499.8 214.329 1498.38L202.611 1487.98C202.47 1487.85 202.306 1487.82 202.143 1487.72 201.979 1487.59 201.816 1487.45 201.641 1487.36 201.565 1487.33 201.499 1487.32 201.412 1487.28 201.205 1487.21 200.976 1487.19 200.769 1487.15 200.562 1487.11 200.377 1487.04 200.18 1487.04 200.137 1487.04 200.104 1487.02 200.061 1487.02ZM247.009 1522.57C244.894 1522.57 243.139 1524.31 243.139 1526.45L243.139 1565.1C243.139 1567.23 244.872 1568.97 247.009 1568.97 249.167 1568.97 250.879 1567.24 250.879 1565.1L250.879 1530.31 259.119 1530.31C261.245 1530.31 262.989 1528.57 262.989 1526.43 262.945 1524.31 261.223 1522.57 259.108 1522.57ZM174.87 1522.57C172.744 1522.57 171 1524.31 171 1526.45 171 1528.57 172.722 1530.33 174.87 1530.33L183.11 1530.33 183.11 1565.12C183.11 1567.24 184.822 1569 186.958 1569 189.095 1569 190.828 1567.26 190.828 1565.12L190.828 1526.46C190.795 1524.31 189.062 1522.57 186.947 1522.57Z" fill="#2AB5E8" fill-rule="evenodd"/></g></svg>