<svg width="132" height="89" xmlns="http://www.w3.org/2000/svg" xmlns:xlink="http://www.w3.org/1999/xlink" xml:space="preserve" overflow="hidden"><g transform="translate(-2152 -1207)"><path d="M2250.11 1222.91C2247.3 1222.91 2244.86 1224.51 2243.58 1226.87 2244.29 1227.12 2244.94 1227.41 2245.58 1227.68 2246.52 1226.16 2248.18 1225.09 2250.11 1225.09 2253.03 1225.09 2255.44 1227.51 2255.44 1230.45 2255.44 1232.9 2253.77 1234.97 2251.51 1235.57L2251.51 1237.82C2254.97 1237.14 2257.59 1234.1 2257.59 1230.43 2257.59 1226.29 2254.21 1222.91 2250.11 1222.91ZM2230.79 1230.32C2240.1 1230.32 2246.24 1233.24 2246.24 1235.13 2246.24 1237.06 2240.08 1239.97 2230.79 1239.97 2221.52 1239.97 2215.37 1237.06 2215.37 1235.13 2215.37 1233.24 2221.54 1230.32 2230.79 1230.32ZM2250.12 1216.29C2249.64 1216.29 2249.18 1216.31 2248.72 1216.34L2247.98 1216.42 2247.3 1218.81C2246.69 1218.94 2246.14 1219.13 2245.61 1219.35L2243.67 1217.84 2243.05 1218.2C2242.22 1218.69 2241.47 1219.26 2240.76 1219.89L2240.23 1220.37 2241.07 1222.69C2240.67 1223.14 2240.34 1223.64 2240.01 1224.15L2237.56 1224.1 2237.29 1224.77C2237.2 1224.96 2237.17 1225.18 2237.1 1225.37 2238.55 1225.59 2239.99 1225.85 2241.35 1226.21L2241.56 1225.81C2241.98 1225.05 2242.48 1224.38 2243.06 1223.71L2243.54 1223.23 2242.77 1221.08C2243 1220.88 2243.26 1220.66 2243.54 1220.51L2245.35 1221.92 2245.93 1221.62C2246.68 1221.25 2247.52 1220.99 2248.36 1220.83L2248.99 1220.73 2249.64 1218.5C2249.8 1218.49 2249.96 1218.49 2250.12 1218.49 2250.28 1218.49 2250.44 1218.49 2250.61 1218.5L2251.25 1220.73 2251.9 1220.83C2252.71 1220.99 2253.55 1221.27 2254.32 1221.62L2254.92 1221.92 2256.73 1220.51C2256.99 1220.7 2257.27 1220.88 2257.5 1221.08L2256.73 1223.23 2257.18 1223.71C2257.76 1224.35 2258.28 1225.05 2258.68 1225.81L2259 1226.39 2261.29 1226.34C2261.39 1226.65 2261.49 1226.96 2261.58 1227.25L2259.7 1228.54 2259.78 1229.2C2259.84 1229.63 2259.87 1230.05 2259.87 1230.49 2259.87 1230.93 2259.84 1231.36 2259.78 1231.78L2259.7 1232.44 2261.58 1233.73C2261.49 1234.05 2261.39 1234.36 2261.29 1234.66L2259 1234.59 2258.68 1235.2C2258.28 1235.96 2257.76 1236.63 2257.18 1237.27L2256.73 1237.75 2257.5 1239.91C2257.27 1240.1 2256.99 1240.32 2256.73 1240.5L2254.92 1239.09 2254.32 1239.36C2253.55 1239.75 2252.75 1239.99 2251.9 1240.16L2251.51 1240.23 2251.51 1244.61 2252.23 1244.53 2252.93 1242.15C2253.52 1242.02 2254.08 1241.83 2254.62 1241.62L2256.56 1243.13 2257.18 1242.77C2258.02 1242.26 2258.77 1241.7 2259.45 1241.08L2259.99 1240.6 2259.16 1238.27C2259.54 1237.82 2259.89 1237.31 2260.2 1236.82L2262.66 1236.89 2262.95 1236.22C2263.33 1235.33 2263.62 1234.45 2263.83 1233.52L2263.99 1232.82 2262 1231.42C2262.04 1231.03 2262.04 1230.75 2262.04 1230.45 2262.04 1230.14 2262.04 1229.85 2262.01 1229.56L2264.04 1228.16 2263.86 1227.45C2263.66 1226.53 2263.39 1225.62 2262.98 1224.74L2262.68 1224.08 2260.23 1224.15C2259.91 1223.64 2259.57 1223.14 2259.21 1222.69L2260.02 1220.37 2259.48 1219.89C2258.79 1219.26 2258.02 1218.69 2257.19 1218.2L2256.57 1217.84 2254.65 1219.35C2254.11 1219.13 2253.52 1218.94 2252.97 1218.81L2252.26 1216.42 2251.52 1216.34C2251.06 1216.31 2250.6 1216.29 2250.12 1216.29ZM2246.24 1240.29 2246.24 1242.21C2246.24 1244.15 2240.08 1247.06 2230.79 1247.06 2221.52 1247.06 2215.37 1244.15 2215.37 1242.21L2215.37 1240.29C2219.03 1242.46 2224.94 1243.59 2230.79 1243.59 2236.68 1243.59 2242.6 1242.47 2246.24 1240.29ZM2246.24 1247.36 2246.24 1249.81C2246.24 1251.73 2240.08 1254.63 2230.79 1254.63 2221.52 1254.63 2215.37 1251.73 2215.37 1249.81L2215.37 1247.36C2219.03 1249.51 2224.94 1250.66 2230.79 1250.66 2236.68 1250.66 2242.6 1249.56 2246.24 1247.36ZM2246.24 1254.97 2246.24 1257.06C2246.24 1259 2240.13 1261.89 2230.91 1261.89 2230.87 1261.89 2230.84 1261.89 2230.79 1261.89 2221.52 1261.89 2215.37 1258.98 2215.37 1257.06L2215.37 1254.97C2219.03 1257.12 2224.94 1258.24 2230.79 1258.24 2236.68 1258.24 2242.6 1257.15 2246.24 1254.97ZM2230.79 1226.82C2221.29 1226.82 2211.77 1229.59 2211.77 1235.13L2211.77 1257.06C2211.77 1262.6 2221.35 1265.53 2230.79 1265.53 2240.27 1265.53 2249.83 1262.63 2249.83 1257.06L2249.83 1235.13C2249.83 1229.59 2240.31 1226.82 2230.79 1226.82ZM2168.01 1224.74C2167.42 1224.74 2166.84 1225.04 2166.52 1225.57 2165.99 1226.39 2166.23 1227.54 2167.07 1228.05L2186.31 1240.42C2189.49 1242.56 2191.27 1244.83 2191.75 1247.42 2192.19 1249.72 2192.3 1259.74 2192.11 1274.27L2192.11 1274.72C2192.1 1277.73 2191.22 1279.24 2189.51 1279.24 2188.74 1279.24 2186.34 1279.24 2186.34 1275.3 2186.34 1274.31 2186.34 1265.66 2186.23 1263.58L2186.23 1254.85C2186.23 1253.86 2185.43 1253.03 2184.45 1253.03 2183.43 1253.03 2182.64 1253.86 2182.64 1254.85L2182.64 1263.48C2182.58 1263.75 2182.55 1264.03 2182.51 1264.23 2182.28 1265.32 2181.26 1265.46 2180.7 1265.46 2180.64 1265.46 2180.58 1265.46 2180.54 1265.46 2180.08 1265.44 2179.61 1265.31 2179.14 1265.09 2179.12 1265.09 2179.12 1265.05 2179.09 1265.05 2178.39 1264.77 2177.95 1264.28 2177.72 1263.9 2177.85 1262.42 2178.15 1258.36 2178.04 1255.38 2178.01 1254.42 2177.24 1253.63 2176.35 1253.63 2176.29 1253.63 2176.23 1253.65 2176.17 1253.65 2175.16 1253.69 2174.39 1254.53 2174.45 1255.52 2174.54 1257.92 2174.35 1261.16 2174.2 1262.94 2173.94 1262.97 2173.66 1263 2173.31 1263 2172.58 1263 2171.64 1262.87 2170.53 1262.39 2170.23 1262.2 2170 1261.89 2169.73 1261.63 2169.84 1260.34 2169.97 1257.75 2169.86 1255.09 2169.79 1254.15 2169.07 1253.35 2168.14 1253.35 2168.09 1253.35 2168.03 1253.35 2167.97 1253.37 2166.99 1253.43 2166.21 1254.26 2166.25 1255.26 2166.34 1257.47 2166.23 1259.7 2166.15 1260.99 2165.96 1261.02 2165.79 1261.03 2165.58 1261.03 2165.28 1261.03 2164.95 1260.99 2164.61 1260.87 2163.2 1260.36 2162.11 1259.07 2161.68 1257.34 2161.37 1256.13 2161.49 1253.7 2161.6 1251.2 2161.68 1250.23 2161.72 1249.22 2161.74 1248.16 2161.78 1247.16 2160.98 1246.33 2160 1246.3 2159.96 1246.3 2159.91 1246.3 2159.87 1246.3 2159.25 1246.3 2158.67 1246.71 2158.36 1247.29L2155.12 1245.02C2154.81 1244.79 2154.44 1244.67 2154.07 1244.67 2153.52 1244.67 2152.95 1244.95 2152.59 1245.44 2152.01 1246.24 2152.19 1247.38 2153 1247.96L2157.97 1251.51C2157.86 1254.31 2157.74 1256.58 2158.15 1258.23 2158.89 1261.12 2160.84 1263.39 2163.41 1264.29 2164.17 1264.57 2164.92 1264.7 2165.67 1264.7 2166.22 1264.7 2166.77 1264.63 2167.3 1264.48 2167.75 1264.92 2168.24 1265.27 2168.78 1265.59 2168.81 1265.63 2168.82 1265.63 2168.9 1265.66 2168.91 1265.67 2168.98 1265.67 2169 1265.7 2170.69 1266.44 2172.15 1266.65 2173.31 1266.65 2174.05 1266.65 2174.67 1266.56 2175.12 1266.5 2175.68 1267.17 2176.52 1267.93 2177.68 1268.44 2178.54 1268.83 2179.46 1269.09 2180.37 1269.14 2180.53 1269.15 2180.69 1269.15 2180.84 1269.15 2181.52 1269.15 2182.18 1269.03 2182.77 1268.8 2182.8 1271.07 2182.8 1273.59 2182.8 1275.38 2182.8 1280.02 2185.37 1282.87 2189.55 1282.87 2191.01 1282.87 2195.73 1282.28 2195.76 1274.76L2195.76 1274.34C2195.83 1265.53 2195.93 1250.26 2195.3 1246.78 2194.64 1243.23 2192.29 1240.07 2188.31 1237.44L2188.27 1237.44 2169 1225.02C2168.69 1224.83 2168.36 1224.74 2168.01 1224.74ZM2189.81 1207.01C2188.22 1207.01 2186.93 1208.31 2186.93 1209.91L2186.93 1231.36C2186.93 1232.95 2188.22 1234.24 2189.81 1234.24 2191.39 1234.24 2192.68 1232.95 2192.68 1231.36L2192.68 1212.77 2277.78 1212.77 2277.78 1269.31 2202.08 1269.31C2200.49 1269.31 2199.2 1270.58 2199.2 1272.18 2199.2 1273.78 2200.49 1275.07 2202.08 1275.07L2271.81 1275.07 2254.13 1288.01 2173.11 1288.01 2178.7 1283.88C2180.01 1282.94 2180.28 1281.12 2179.35 1279.83 2178.79 1279.04 2177.92 1278.65 2177.04 1278.65 2176.45 1278.65 2175.85 1278.82 2175.33 1279.2L2162.57 1288.55C2161.29 1289.73 2161.03 1290.71 2161.03 1292.7 2161.03 1294.79 2162.82 1296 2164.4 1296L2255.49 1296C2256.11 1296 2256.69 1295.81 2257.18 1295.43L2282.55 1276.77C2283.72 1275.91 2283.99 1274.31 2283.32 1273.08 2283.32 1273.03 2283.32 1273.02 2283.35 1272.99 2283.41 1272.8 2283.45 1272.61 2283.45 1272.39 2283.45 1272.32 2283.51 1272.26 2283.51 1272.18L2283.51 1209.91C2283.51 1208.31 2282.22 1207.01 2280.63 1207.01Z" fill="#2AB5E8" fill-rule="evenodd"/></g></svg>