<svg width="75" height="119" xmlns="http://www.w3.org/2000/svg" xmlns:xlink="http://www.w3.org/1999/xlink" xml:space="preserve" overflow="hidden"><g transform="translate(-2466 -1192)"><path d="M2508.17 1197.92C2510.85 1197.92 2513.06 1200.13 2513.06 1202.82L2513.06 1206.94 2513.06 1226.26 2513.06 1241.81 2503.26 1241.81 2503.26 1226.26 2503.26 1206.94 2503.26 1202.82C2503.26 1200.13 2505.48 1197.92 2508.17 1197.92ZM2523.87 1202.1C2524.28 1202.1 2524.68 1202.14 2525.1 1202.24 2527.23 1202.75 2528.77 1204.9 2528.77 1207.37L2528.77 1242.24C2527.68 1242.01 2526.59 1241.85 2525.43 1241.85L2518.97 1241.85 2518.97 1226.33 2518.97 1207C2518.96 1205.44 2519.64 1204.03 2520.84 1203.12 2521.72 1202.44 2522.77 1202.1 2523.87 1202.1ZM2476.8 1234.97C2479.48 1234.97 2481.7 1237.18 2481.7 1239.86L2481.7 1240.64 2481.7 1253.13C2481.7 1255.82 2479.48 1258.04 2476.8 1258.04 2474.1 1258.04 2471.91 1255.82 2471.91 1253.13L2471.91 1247.91 2471.91 1239.86C2471.91 1237.18 2474.1 1234.97 2476.8 1234.97ZM2492.48 1202.08C2495.17 1202.08 2497.39 1204.28 2497.39 1206.95L2497.39 1226.29 2497.39 1241.84 2497.19 1241.84C2495.55 1241.84 2494.22 1243.16 2494.22 1244.8L2494.22 1248.13C2494.22 1254.81 2499.7 1260.26 2506.38 1260.26L2516.17 1260.26 2516.17 1263.81 2506.58 1263.81C2497.75 1263.81 2490.09 1270.06 2488.3 1278.65 2487.99 1280.24 2489.01 1281.79 2490.62 1282.13 2490.83 1282.18 2491.01 1282.19 2491.22 1282.19 2492.57 1282.19 2493.81 1281.24 2494.12 1279.83 2495.35 1273.95 2500.57 1269.67 2506.59 1269.67L2519.16 1269.67C2520.8 1269.67 2522.13 1268.36 2522.13 1266.73L2522.13 1257.3C2522.13 1255.67 2520.8 1254.36 2519.16 1254.36L2506.42 1254.36C2502.99 1254.36 2500.15 1251.57 2500.15 1248.09L2500.15 1247.73 2525.43 1247.73C2530.74 1247.73 2535.04 1252.02 2535.04 1257.3L2535.04 1276.04C2535.04 1280.56 2534.04 1285.01 2532.2 1289.1L2474.46 1289.1C2472.78 1285.24 2471.88 1281.13 2471.88 1276.87L2471.88 1262.69C2473.35 1263.45 2475 1263.94 2476.77 1263.94 2482.71 1263.94 2487.55 1259.11 2487.55 1253.18L2487.55 1240.65 2487.55 1239.89 2487.55 1206.95 2487.59 1206.95C2487.59 1204.28 2489.8 1202.08 2492.48 1202.08ZM2531.61 1294.99 2531.61 1305.13 2475.38 1305.13 2475.38 1294.99ZM2508.17 1192.01C2503.93 1192.01 2500.32 1194.49 2498.52 1198.03 2496.81 1196.85 2494.72 1196.18 2492.48 1196.18 2486.54 1196.18 2481.7 1201.01 2481.7 1206.94L2481.7 1230.27C2480.22 1229.52 2478.58 1229.04 2476.8 1229.04 2470.85 1229.04 2466.01 1233.87 2466.01 1239.8L2466.01 1247.86 2466.01 1253.09 2466.01 1276.78C2466.01 1282.23 2467.19 1287.45 2469.49 1292.36L2469.49 1308.04C2469.49 1309.68 2470.83 1311 2472.46 1311L2534.59 1311C2536.25 1311 2537.57 1309.68 2537.57 1308.04L2537.57 1292.05C2537.57 1291.94 2537.51 1291.85 2537.51 1291.75 2539.74 1286.8 2540.99 1281.44 2540.99 1276.01L2540.99 1257.3 2540.93 1257.3C2540.93 1252.24 2538.42 1247.77 2534.67 1244.93L2534.67 1207.33C2534.67 1202.15 2531.22 1197.6 2526.48 1196.48 2525.64 1196.28 2524.8 1196.18 2523.96 1196.18 2521.78 1196.18 2519.65 1196.85 2517.83 1198.09 2516.07 1194.5 2512.41 1192.01 2508.17 1192.01Z" fill="#2AB5E8" fill-rule="evenodd"/></g></svg>