<svg width="122" height="78" xmlns="http://www.w3.org/2000/svg" xmlns:xlink="http://www.w3.org/1999/xlink" xml:space="preserve" overflow="hidden"><defs><clipPath id="clip0"><rect x="156" y="369" width="122" height="78"/></clipPath></defs><g clip-path="url(#clip0)" transform="translate(-156 -369)"><path d="M273.316 431.229 273.316 400.332C276.079 398.981 278 396.161 278 392.887 278 389.613 276.079 386.793 273.316 385.441L273.316 373.688 217.698 373.688C216.348 370.922 213.53 369 210.26 369 206.989 369 204.171 370.922 202.821 373.688L171.746 373.688C170.396 370.922 167.579 369 164.308 369 159.733 369 156 372.727 156 377.316 156 380.499 157.812 383.229 160.439 384.634L160.439 431.121C157.812 432.517 156 435.256 156 438.439 156 443.028 159.724 446.755 164.308 446.755 167.479 446.755 170.215 444.941 171.61 442.311L262.254 442.311C263.604 445.077 266.422 447 269.692 447 274.267 447 278 443.273 278 438.684 278 435.401 276.079 432.59 273.316 431.238ZM164.308 443.118C161.726 443.118 159.624 441.015 159.624 438.43 159.624 435.845 161.726 433.741 164.308 433.741 166.89 433.741 168.992 435.845 168.992 438.43 168.992 441.015 166.89 443.118 164.308 443.118ZM164.308 372.627C166.89 372.627 168.992 374.731 168.992 377.316 168.992 379.9 166.89 382.004 164.308 382.004 161.726 382.004 159.624 379.9 159.624 377.316 159.624 374.731 161.726 372.627 164.308 372.627ZM210.26 372.627C212.842 372.627 214.944 374.731 214.944 377.316 214.944 379.9 212.842 382.004 210.26 382.004 207.677 382.004 205.576 379.9 205.576 377.316 205.576 374.731 207.677 372.627 210.26 372.627ZM204.316 383.111 192.267 401.593C191.669 401.411 191.044 401.285 190.373 401.285 189.467 401.285 188.606 401.475 187.818 401.81L171.347 381.687C171.492 381.451 171.619 381.206 171.746 380.952L202.812 380.952C203.202 381.75 203.7 382.485 204.316 383.12ZM168.802 384.29 185.019 404.105C184.303 405.148 183.877 406.417 183.877 407.778 183.877 409.138 184.276 410.326 184.955 411.351L168.14 431.102C167.986 431.021 167.85 430.93 167.687 430.858L167.687 384.897C168.077 384.725 168.448 384.525 168.793 384.29ZM187.701 413.691C188.516 414.062 189.413 414.28 190.373 414.28 192.683 414.28 194.695 413.065 195.845 411.251L219.356 418.053C209.027 420.909 187.855 426.813 172.598 431.447L187.71 413.691ZM196.86 407.769C196.86 406.154 196.253 404.703 195.275 403.57L207.342 385.079C208.248 385.423 209.218 385.632 210.241 385.632 212.552 385.632 214.635 384.68 216.148 383.147L228.905 391.128C228.751 391.69 228.633 392.27 228.633 392.887 228.633 395.045 229.693 396.941 231.306 398.12L226.44 411.559C226.295 411.55 226.151 411.514 226.006 411.514 223.668 411.514 221.639 412.756 220.497 414.606L196.86 407.76ZM234.721 399.344C234.857 399.344 234.993 399.389 235.138 399.389 238.091 399.389 240.556 397.403 241.344 394.701L261.593 394.701C261.647 394.927 261.729 395.136 261.792 395.344L230.554 413.382C230.336 413.174 230.101 412.983 229.856 412.802L234.73 399.344ZM274.367 392.887C274.367 395.471 272.265 397.575 269.683 397.575 267.101 397.575 264.999 395.471 264.999 392.887 264.999 390.302 267.101 388.198 269.683 388.198 272.265 388.198 274.367 390.302 274.367 392.887ZM266.059 380.943 266.059 385.441C263.821 386.539 262.145 388.588 261.593 391.073L241.344 391.073C240.556 388.371 238.091 386.385 235.138 386.385 233.48 386.385 231.976 387.028 230.834 388.053L219.473 380.943 266.068 380.943ZM262.245 435.047 173.232 435.047C188.561 430.377 210.196 424.346 220.542 421.49 221.693 423.312 223.713 424.528 226.024 424.528 228.071 424.528 229.874 423.557 231.07 422.07L262.49 434.621C262.408 434.766 262.327 434.902 262.263 435.047ZM265.081 431.764 232.429 418.724C232.456 418.488 232.501 418.261 232.501 418.025 232.501 417.499 232.42 416.992 232.302 416.502L263.577 398.491C264.274 399.253 265.117 399.879 266.05 400.341L266.05 431.238C265.715 431.402 265.38 431.565 265.072 431.774Z" fill="#29B5E8" fill-rule="evenodd"/></g></svg>