<svg width="70" height="85" xmlns="http://www.w3.org/2000/svg" xmlns:xlink="http://www.w3.org/1999/xlink" xml:space="preserve" overflow="hidden"><defs><clipPath id="clip0"><rect x="753" y="648" width="70" height="85"/></clipPath></defs><g clip-path="url(#clip0)" transform="translate(-753 -648)"><path d="M766.571 662.955C767.327 662.404 769.008 662.216 770.325 662.532L779.66 664.796C780.317 664.953 780.754 665.205 780.939 665.486 780.993 665.564 781.028 665.659 781.039 665.76 781.044 665.901 780.999 666.038 780.913 666.135 780.714 666.404 780.291 666.642 779.66 666.794L770.325 669.056C769.008 669.375 767.327 669.187 766.571 668.635 765.815 668.083 766.258 667.379 767.576 667.058L772.792 665.798 767.576 664.53C766.258 664.211 765.807 663.507 766.571 662.955ZM772.512 660.924 781.862 663.186C782.387 663.307 782.92 663.357 783.454 663.336 784.875 663.293 785.999 662.794 785.999 662.187L785.999 657.668C785.999 657.033 784.765 656.517 783.249 656.517 781.733 656.517 780.496 657.038 780.496 657.661L780.496 660.194 775.259 658.926C773.946 658.608 772.275 658.796 771.507 659.347 770.739 659.899 771.196 660.606 772.512 660.924ZM793.02 663.336C793.553 663.358 794.087 663.307 794.611 663.186L803.962 660.924C805.277 660.606 805.725 659.902 804.969 659.347 804.213 658.793 802.53 658.608 801.215 658.926L795.974 660.194 795.974 657.661C795.974 657.026 794.745 656.51 793.223 656.51 791.701 656.51 790.473 657.038 790.473 657.661L790.473 662.18C790.473 662.794 791.597 663.293 793.02 663.336ZM783.45 668.255C782.916 668.233 782.383 668.284 781.858 668.404L772.508 670.666C771.193 670.985 770.745 671.691 771.513 672.246 772.281 672.8 773.952 672.985 775.265 672.664L780.502 671.399 780.502 673.925C780.502 674.562 781.731 675.078 783.251 675.078 784.771 675.078 786.001 674.562 786.001 673.925L786.001 669.406C785.995 668.797 784.871 668.297 783.45 668.255ZM783.291 665.362 787.172 663.736C787.331 663.68 787.495 663.651 787.66 663.65L788.812 663.65C788.977 663.651 789.141 663.679 789.299 663.736L793.173 665.362C793.284 665.41 793.372 665.503 793.372 665.569L793.372 666.045C793.372 666.109 793.282 666.202 793.173 666.25L789.289 667.867C789.131 667.923 788.967 667.952 788.802 667.953L787.66 667.953C787.495 667.951 787.331 667.922 787.172 667.867L783.291 666.24C783.181 666.192 783.092 666.1 783.092 666.036L783.092 665.56C783.09 665.491 783.181 665.398 783.291 665.362ZM786.402 665.817C786.402 665.883 786.488 665.974 786.601 666.021L787.726 666.497C787.883 666.551 788.047 666.579 788.211 666.58L788.253 666.58C788.417 666.579 788.58 666.551 788.738 666.497L789.864 666.021C789.974 665.974 790.063 665.883 790.063 665.817L790.063 665.8C790.063 665.733 789.968 665.641 789.864 665.593L788.738 665.117C788.581 665.062 788.417 665.033 788.253 665.032L788.215 665.032C788.051 665.033 787.887 665.062 787.729 665.117L786.605 665.593C786.492 665.641 786.406 665.733 786.406 665.8ZM803.952 670.666 794.601 668.404C794.077 668.283 793.543 668.233 793.01 668.255 791.583 668.297 790.463 668.797 790.463 669.403L790.463 673.922C790.463 674.56 791.691 675.076 793.213 675.076 794.735 675.076 795.974 674.567 795.974 673.925L795.974 671.399 801.205 672.664C802.52 672.985 804.201 672.795 804.959 672.246 805.717 671.696 805.267 670.985 803.952 670.666ZM795.526 665.486C795.386 665.675 795.397 665.964 795.552 666.135 795.751 666.404 796.177 666.642 796.8 666.794L806.151 669.056C807.464 669.375 809.145 669.187 809.905 668.635 810.665 668.083 810.217 667.379 808.9 667.058L803.682 665.798 808.9 664.53C810.217 664.211 810.669 663.507 809.905 662.955 809.141 662.404 807.464 662.216 806.151 662.532L796.8 664.796C796.151 664.953 795.711 665.205 795.526 665.486ZM823 665.855 823 715.15C823 726.745 804.965 733 788 733 771.035 733 753 726.745 753 715.15L753 665.855C753 654.258 771.033 648 788 648 804.967 648 823 654.258 823 665.855ZM818.146 691.125C811.642 696.66 799.577 699.581 788 699.581 776.423 699.581 764.356 696.66 757.853 691.125L757.853 698.796C757.853 703.829 769.322 710.85 788 710.85 806.678 710.85 818.146 703.829 818.146 698.796ZM818.146 675.252C811.642 680.789 799.577 683.707 788 683.707 776.423 683.707 764.356 680.789 757.853 675.252L757.853 681.726C757.853 686.756 769.322 693.777 788 693.777 806.678 693.777 818.146 686.768 818.146 681.726ZM757.863 665.855C757.863 670.885 769.332 677.906 788.01 677.906 806.688 677.906 818.146 670.885 818.146 665.855 818.146 660.824 806.676 653.801 788 653.801 769.324 653.801 757.853 660.822 757.853 665.855ZM818.146 715.15 818.146 708.195C811.642 713.732 799.577 716.651 788 716.651 776.423 716.651 764.356 713.732 757.853 708.195L757.853 715.15C757.853 720.18 769.314 727.201 788 727.201 806.686 727.201 818.146 720.18 818.146 715.15Z" fill="#29B5E8" fill-rule="evenodd"/></g></svg>