<svg width="117" height="86" xmlns="http://www.w3.org/2000/svg" xmlns:xlink="http://www.w3.org/1999/xlink" xml:space="preserve" overflow="hidden"><defs><clipPath id="clip0"><rect x="1016" y="648" width="117" height="86"/></clipPath></defs><g clip-path="url(#clip0)" transform="translate(-1016 -648)"><path d="M1063 659.972 1063 693.029C1063 700.805 1051.15 705 1040 705 1028.85 705 1017 700.8 1017 693.025L1017 659.967C1017 652.196 1028.85 648 1040 648 1051.15 648 1063 652.196 1063 659.972Z" fill="#FFFFFF" fill-rule="evenodd"/><path d="M1025.31 658.205C1025.82 657.828 1026.98 657.7 1027.88 657.916L1034.28 659.461C1034.73 659.568 1035.03 659.74 1035.16 659.932 1035.2 659.985 1035.22 660.05 1035.23 660.118 1035.23 660.215 1035.2 660.308 1035.14 660.375 1035 660.558 1034.71 660.72 1034.28 660.824L1027.88 662.368C1026.98 662.585 1025.82 662.457 1025.31 662.08 1024.79 661.704 1025.09 661.224 1025.99 661.004L1029.57 660.144 1025.99 659.279C1025.09 659.062 1024.78 658.581 1025.31 658.205ZM1029.38 656.819 1035.79 658.362C1036.15 658.445 1036.52 658.479 1036.88 658.465 1037.86 658.435 1038.63 658.095 1038.63 657.681L1038.63 654.597C1038.63 654.164 1037.78 653.812 1036.74 653.812 1035.7 653.812 1034.85 654.167 1034.85 654.592L1034.85 656.321 1031.26 655.456C1030.36 655.238 1029.22 655.366 1028.69 655.743 1028.16 656.119 1028.48 656.601 1029.38 656.819ZM1043.44 658.465C1043.81 658.479 1044.17 658.445 1044.53 658.362L1050.95 656.819C1051.85 656.601 1052.15 656.121 1051.64 655.743 1051.12 655.365 1049.96 655.238 1049.06 655.456L1045.47 656.321 1045.47 654.592C1045.47 654.159 1044.62 653.807 1043.58 653.807 1042.54 653.807 1041.7 654.167 1041.7 654.592L1041.7 657.676C1041.7 658.095 1042.47 658.435 1043.44 658.465ZM1036.88 661.821C1036.51 661.806 1036.15 661.841 1035.79 661.923L1029.38 663.466C1028.47 663.684 1028.17 664.166 1028.69 664.544 1029.22 664.922 1030.37 665.049 1031.27 664.83L1034.86 663.966 1034.86 665.69C1034.86 666.125 1035.7 666.477 1036.74 666.477 1037.79 666.477 1038.63 666.125 1038.63 665.69L1038.63 662.606C1038.62 662.191 1037.85 661.85 1036.88 661.821ZM1036.77 659.847 1039.43 658.737C1039.54 658.699 1039.65 658.68 1039.77 658.679L1040.56 658.679C1040.67 658.679 1040.78 658.699 1040.89 658.737L1043.55 659.847C1043.62 659.88 1043.68 659.943 1043.68 659.988L1043.68 660.313C1043.68 660.357 1043.62 660.42 1043.55 660.453L1040.88 661.556C1040.78 661.595 1040.66 661.614 1040.55 661.615L1039.77 661.615C1039.65 661.614 1039.54 661.594 1039.43 661.556L1036.77 660.446C1036.7 660.414 1036.63 660.35 1036.63 660.307L1036.63 659.982C1036.63 659.935 1036.7 659.872 1036.77 659.847ZM1038.9 660.157C1038.9 660.203 1038.96 660.264 1039.04 660.297L1039.81 660.621C1039.92 660.658 1040.03 660.677 1040.14 660.678L1040.17 660.678C1040.29 660.677 1040.4 660.658 1040.51 660.621L1041.28 660.297C1041.35 660.264 1041.41 660.203 1041.41 660.157L1041.41 660.146C1041.41 660.1 1041.35 660.037 1041.28 660.005L1040.51 659.68C1040.4 659.642 1040.29 659.622 1040.17 659.622L1040.15 659.622C1040.03 659.622 1039.92 659.642 1039.81 659.68L1039.04 660.005C1038.97 660.037 1038.91 660.1 1038.91 660.146ZM1050.94 663.466 1044.53 661.923C1044.17 661.84 1043.8 661.806 1043.44 661.821 1042.46 661.85 1041.69 662.191 1041.69 662.605L1041.69 665.688C1041.69 666.123 1042.53 666.475 1043.57 666.475 1044.62 666.475 1045.47 666.128 1045.47 665.69L1045.47 663.966 1049.05 664.83C1049.96 665.049 1051.11 664.919 1051.63 664.544 1052.15 664.169 1051.84 663.684 1050.94 663.466ZM1045.16 659.932C1045.06 660.06 1045.07 660.258 1045.18 660.375 1045.32 660.558 1045.61 660.72 1046.03 660.824L1052.45 662.368C1053.35 662.585 1054.5 662.457 1055.02 662.08 1055.54 661.704 1055.23 661.224 1054.33 661.004L1050.75 660.144 1054.33 659.279C1055.23 659.062 1055.54 658.581 1055.02 658.205 1054.5 657.828 1053.35 657.7 1052.45 657.916L1046.03 659.461C1045.59 659.568 1045.29 659.74 1045.16 659.932ZM1064 660.183 1064 693.82C1064 701.732 1051.63 706 1040 706 1028.37 706 1016 701.732 1016 693.82L1016 660.183C1016 652.27 1028.37 648 1040 648 1051.63 648 1064 652.27 1064 660.183ZM1060.67 677.427C1056.21 681.203 1047.94 683.196 1040 683.196 1032.06 683.196 1023.79 681.203 1019.33 677.427L1019.33 682.661C1019.33 686.095 1027.19 690.886 1040 690.886 1052.81 690.886 1060.67 686.095 1060.67 682.661ZM1060.67 666.595C1056.21 670.374 1047.94 672.365 1040 672.365 1032.06 672.365 1023.79 670.374 1019.33 666.595L1019.33 671.013C1019.33 674.445 1027.19 679.236 1040 679.236 1052.81 679.236 1060.67 674.454 1060.67 671.013ZM1019.33 660.183C1019.33 663.616 1027.2 668.407 1040.01 668.407 1052.81 668.407 1060.67 663.616 1060.67 660.183 1060.67 656.751 1052.81 651.958 1040 651.958 1027.19 651.958 1019.33 656.749 1019.33 660.183ZM1060.67 693.82 1060.67 689.075C1056.21 692.853 1047.94 694.844 1040 694.844 1032.06 694.844 1023.79 692.853 1019.33 689.075L1019.33 693.82C1019.33 697.253 1027.19 702.043 1040 702.043 1052.81 702.043 1060.67 697.253 1060.67 693.82Z" fill="#29B5E8" fill-rule="evenodd" fill-opacity="0.494118"/><path d="M1132 659.972 1132 693.029C1132 700.805 1120.15 705 1109 705 1097.85 705 1086 700.8 1086 693.025L1086 659.967C1086 652.196 1097.85 648 1109 648 1120.15 648 1132 652.196 1132 659.972Z" fill="#FFFFFF" fill-rule="evenodd"/><path d="M1094.31 658.205C1094.82 657.828 1095.98 657.7 1096.88 657.916L1103.28 659.461C1103.73 659.568 1104.03 659.74 1104.16 659.932 1104.2 659.985 1104.22 660.05 1104.23 660.118 1104.23 660.215 1104.2 660.308 1104.14 660.375 1104 660.558 1103.71 660.72 1103.28 660.824L1096.88 662.368C1095.98 662.585 1094.82 662.457 1094.31 662.08 1093.79 661.704 1094.09 661.224 1094.99 661.004L1098.57 660.144 1094.99 659.279C1094.09 659.062 1093.78 658.581 1094.31 658.205ZM1098.38 656.819 1104.79 658.362C1105.15 658.445 1105.52 658.479 1105.88 658.465 1106.86 658.435 1107.63 658.095 1107.63 657.681L1107.63 654.597C1107.63 654.164 1106.78 653.812 1105.74 653.812 1104.7 653.812 1103.85 654.167 1103.85 654.592L1103.85 656.321 1100.26 655.456C1099.36 655.238 1098.22 655.366 1097.69 655.743 1097.16 656.119 1097.48 656.601 1098.38 656.819ZM1112.44 658.465C1112.81 658.479 1113.17 658.445 1113.53 658.362L1119.95 656.819C1120.85 656.601 1121.15 656.121 1120.64 655.743 1120.12 655.365 1118.96 655.238 1118.06 655.456L1114.47 656.321 1114.47 654.592C1114.47 654.159 1113.62 653.807 1112.58 653.807 1111.54 653.807 1110.7 654.167 1110.7 654.592L1110.7 657.676C1110.7 658.095 1111.47 658.435 1112.44 658.465ZM1105.88 661.821C1105.51 661.806 1105.15 661.841 1104.79 661.923L1098.38 663.466C1097.47 663.684 1097.17 664.166 1097.69 664.544 1098.22 664.922 1099.37 665.049 1100.27 664.83L1103.86 663.966 1103.86 665.69C1103.86 666.125 1104.7 666.477 1105.74 666.477 1106.79 666.477 1107.63 666.125 1107.63 665.69L1107.63 662.606C1107.62 662.191 1106.85 661.85 1105.88 661.821ZM1105.77 659.847 1108.43 658.737C1108.54 658.699 1108.65 658.68 1108.77 658.679L1109.56 658.679C1109.67 658.679 1109.78 658.699 1109.89 658.737L1112.55 659.847C1112.62 659.88 1112.68 659.943 1112.68 659.988L1112.68 660.313C1112.68 660.357 1112.62 660.42 1112.55 660.453L1109.88 661.556C1109.78 661.595 1109.66 661.614 1109.55 661.615L1108.77 661.615C1108.65 661.614 1108.54 661.594 1108.43 661.556L1105.77 660.446C1105.7 660.414 1105.63 660.35 1105.63 660.307L1105.63 659.982C1105.63 659.935 1105.7 659.872 1105.77 659.847ZM1107.9 660.157C1107.9 660.203 1107.96 660.264 1108.04 660.297L1108.81 660.621C1108.92 660.658 1109.03 660.677 1109.14 660.678L1109.17 660.678C1109.29 660.677 1109.4 660.658 1109.51 660.621L1110.28 660.297C1110.35 660.264 1110.41 660.203 1110.41 660.157L1110.41 660.146C1110.41 660.1 1110.35 660.037 1110.28 660.005L1109.51 659.68C1109.4 659.642 1109.29 659.622 1109.17 659.622L1109.15 659.622C1109.03 659.622 1108.92 659.642 1108.81 659.68L1108.04 660.005C1107.97 660.037 1107.91 660.1 1107.91 660.146ZM1119.94 663.466 1113.53 661.923C1113.17 661.84 1112.8 661.806 1112.44 661.821 1111.46 661.85 1110.69 662.191 1110.69 662.605L1110.69 665.688C1110.69 666.123 1111.53 666.475 1112.57 666.475 1113.62 666.475 1114.47 666.128 1114.47 665.69L1114.47 663.966 1118.05 664.83C1118.96 665.049 1120.11 664.919 1120.63 664.544 1121.15 664.169 1120.84 663.684 1119.94 663.466ZM1114.16 659.932C1114.06 660.06 1114.07 660.258 1114.18 660.375 1114.32 660.558 1114.61 660.72 1115.03 660.824L1121.45 662.368C1122.35 662.585 1123.5 662.457 1124.02 662.08 1124.54 661.704 1124.23 661.224 1123.33 661.004L1119.75 660.144 1123.33 659.279C1124.23 659.062 1124.54 658.581 1124.02 658.205 1123.5 657.828 1122.35 657.7 1121.45 657.916L1115.03 659.461C1114.59 659.568 1114.29 659.74 1114.16 659.932ZM1133 660.183 1133 693.82C1133 701.732 1120.63 706 1109 706 1097.37 706 1085 701.732 1085 693.82L1085 660.183C1085 652.27 1097.37 648 1109 648 1120.63 648 1133 652.27 1133 660.183ZM1129.67 677.427C1125.21 681.203 1116.94 683.196 1109 683.196 1101.06 683.196 1092.79 681.203 1088.33 677.427L1088.33 682.661C1088.33 686.095 1096.19 690.886 1109 690.886 1121.81 690.886 1129.67 686.095 1129.67 682.661ZM1129.67 666.595C1125.21 670.374 1116.94 672.365 1109 672.365 1101.06 672.365 1092.79 670.374 1088.33 666.595L1088.33 671.013C1088.33 674.445 1096.19 679.236 1109 679.236 1121.81 679.236 1129.67 674.454 1129.67 671.013ZM1088.33 660.183C1088.33 663.616 1096.2 668.407 1109.01 668.407 1121.81 668.407 1129.67 663.616 1129.67 660.183 1129.67 656.751 1121.81 651.958 1109 651.958 1096.19 651.958 1088.33 656.749 1088.33 660.183ZM1129.67 693.82 1129.67 689.075C1125.21 692.853 1116.94 694.844 1109 694.844 1101.06 694.844 1092.79 692.853 1088.33 689.075L1088.33 693.82C1088.33 697.253 1096.19 702.043 1109 702.043 1121.81 702.043 1129.67 697.253 1129.67 693.82Z" fill="#29B5E8" fill-rule="evenodd" fill-opacity="0.494118"/><path d="M1109 666.643 1109 715.359C1109 726.818 1091.22 733 1074.5 733 1057.78 733 1040 726.811 1040 715.352L1040 666.636C1040 655.184 1057.77 649 1074.5 649 1091.23 649 1109 655.184 1109 666.643Z" fill="#FFFFFF" fill-rule="evenodd"/><path d="M1052.57 663.131C1053.33 662.573 1055.01 662.383 1056.32 662.703L1065.66 664.994C1066.32 665.153 1066.75 665.408 1066.94 665.692 1066.99 665.771 1067.03 665.867 1067.04 665.969 1067.04 666.111 1067 666.25 1066.91 666.349 1066.71 666.621 1066.29 666.861 1065.66 667.015L1056.32 669.304C1055.01 669.626 1053.33 669.436 1052.57 668.878 1051.81 668.32 1052.26 667.607 1053.58 667.282L1058.79 666.007 1053.58 664.724C1052.26 664.402 1051.81 663.69 1052.57 663.131ZM1058.51 661.076 1067.86 663.365C1068.39 663.487 1068.92 663.538 1069.45 663.516 1070.87 663.473 1072 662.968 1072 662.354L1072 657.782C1072 657.139 1070.77 656.617 1069.25 656.617 1067.73 656.617 1066.5 657.144 1066.5 657.775L1066.5 660.338 1061.26 659.055C1059.95 658.732 1058.27 658.923 1057.51 659.481 1056.74 660.039 1057.2 660.754 1058.51 661.076ZM1079.02 663.516C1079.55 663.538 1080.09 663.488 1080.61 663.365L1089.96 661.076C1091.28 660.754 1091.72 660.042 1090.97 659.481 1090.21 658.92 1088.53 658.732 1087.21 659.055L1081.97 660.338 1081.97 657.775C1081.97 657.132 1080.74 656.61 1079.22 656.61 1077.7 656.61 1076.47 657.144 1076.47 657.775L1076.47 662.347C1076.47 662.968 1077.6 663.473 1079.02 663.516ZM1069.45 668.493C1068.92 668.471 1068.38 668.522 1067.86 668.644L1058.51 670.933C1057.19 671.255 1056.74 671.97 1057.51 672.531 1058.28 673.091 1059.95 673.279 1061.27 672.954L1066.5 671.674 1066.5 674.23C1066.5 674.875 1067.73 675.397 1069.25 675.397 1070.77 675.397 1072 674.875 1072 674.23L1072 669.658C1071.99 669.042 1070.87 668.536 1069.45 668.493ZM1069.29 665.567 1073.17 663.921C1073.33 663.865 1073.49 663.835 1073.66 663.834L1074.81 663.834C1074.98 663.835 1075.14 663.864 1075.3 663.921L1079.17 665.567C1079.28 665.615 1079.37 665.709 1079.37 665.776L1079.37 666.257C1079.37 666.322 1079.28 666.416 1079.17 666.464L1075.29 668.101C1075.13 668.158 1074.97 668.187 1074.8 668.187L1073.66 668.187C1073.49 668.186 1073.33 668.157 1073.17 668.101L1069.29 666.455C1069.18 666.406 1069.09 666.313 1069.09 666.248L1069.09 665.766C1069.09 665.697 1069.18 665.603 1069.29 665.567ZM1072.4 666.026C1072.4 666.094 1072.49 666.185 1072.6 666.233L1073.73 666.714C1073.88 666.769 1074.05 666.797 1074.21 666.799L1074.25 666.799C1074.42 666.797 1074.58 666.769 1074.74 666.714L1075.86 666.233C1075.97 666.185 1076.06 666.094 1076.06 666.026L1076.06 666.009C1076.06 665.942 1075.97 665.848 1075.86 665.8L1074.74 665.319C1074.58 665.262 1074.42 665.233 1074.25 665.232L1074.21 665.232C1074.05 665.233 1073.89 665.262 1073.73 665.319L1072.61 665.8C1072.49 665.848 1072.41 665.942 1072.41 666.009ZM1089.95 670.933 1080.6 668.644C1080.08 668.522 1079.54 668.471 1079.01 668.493 1077.58 668.536 1076.46 669.042 1076.46 669.655L1076.46 674.227C1076.46 674.872 1077.69 675.394 1079.21 675.394 1080.73 675.394 1081.97 674.879 1081.97 674.23L1081.97 671.674 1087.2 672.954C1088.52 673.279 1090.2 673.087 1090.96 672.531 1091.72 671.975 1091.27 671.255 1089.95 670.933ZM1081.53 665.692C1081.39 665.883 1081.4 666.175 1081.55 666.349 1081.75 666.621 1082.18 666.861 1082.8 667.015L1092.15 669.304C1093.46 669.626 1095.14 669.436 1095.9 668.878 1096.66 668.32 1096.22 667.607 1094.9 667.282L1089.68 666.007 1094.9 664.724C1096.22 664.402 1096.67 663.69 1095.9 663.131 1095.14 662.573 1093.46 662.383 1092.15 662.703L1082.8 664.994C1082.15 665.153 1081.71 665.408 1081.53 665.692ZM1109 666.065 1109 715.94C1109 727.671 1090.96 734 1074 734 1057.04 734 1039 727.671 1039 715.94L1039 666.065C1039 654.331 1057.03 648 1074 648 1090.97 648 1109 654.331 1109 666.065ZM1104.15 691.633C1097.64 697.232 1085.58 700.188 1074 700.188 1062.42 700.188 1050.36 697.232 1043.85 691.633L1043.85 699.393C1043.85 704.485 1055.32 711.589 1074 711.589 1092.68 711.589 1104.15 704.485 1104.15 699.393ZM1104.15 675.573C1097.64 681.175 1085.58 684.127 1074 684.127 1062.42 684.127 1050.36 681.175 1043.85 675.573L1043.85 682.123C1043.85 687.212 1055.32 694.316 1074 694.316 1092.68 694.316 1104.15 687.224 1104.15 682.123ZM1043.86 666.065C1043.86 671.154 1055.33 678.258 1074.01 678.258 1092.69 678.258 1104.15 671.154 1104.15 666.065 1104.15 660.975 1092.68 653.869 1074 653.869 1055.32 653.869 1043.85 660.973 1043.85 666.065ZM1104.15 715.94 1104.15 708.904C1097.64 714.506 1085.58 717.458 1074 717.458 1062.42 717.458 1050.36 714.506 1043.85 708.904L1043.85 715.94C1043.85 721.029 1055.31 728.133 1074 728.133 1092.69 728.133 1104.15 721.029 1104.15 715.94Z" fill="#29B5E8" fill-rule="evenodd"/></g></svg>