<svg width="90" height="79" xmlns="http://www.w3.org/2000/svg" xmlns:xlink="http://www.w3.org/1999/xlink" xml:space="preserve" overflow="hidden"><defs><clipPath id="clip0"><rect x="1601" y="934" width="90" height="79"/></clipPath></defs><g clip-path="url(#clip0)" transform="translate(-1601 -934)"><path d="M1657.35 938.926 1656.7 937.695 1654.93 935.895 1652.78 934.663 1650.44 934 1648.1 934 1645.77 934.568 1643.62 935.8 1641.84 937.505 1641.09 938.736 1636.14 947.356 1626.42 951.145 1625.95 951.429 1625.67 952.282 1625.77 952.756 1626.42 954.366 1626.61 954.839 1627.45 955.218 1627.92 955.029 1632.87 953.134 1624.46 967.817 1621.09 967.817 1621.09 965.449 1622.03 965.07 1623.71 963.838 1624.92 962.133 1625.58 960.049 1625.67 959.007 1625.58 957.587 1624.55 955.123 1622.78 953.324 1620.35 952.282 1619.04 952.187 1618.01 952.282 1616.05 952.85 1614.46 953.892 1613.24 955.408 1612.87 956.261 1606.51 958.723 1606.14 958.912 1605.77 959.765 1605.86 960.239 1606.42 961.849 1606.7 962.323 1607.45 962.701 1607.92 962.607 1612.59 960.807 1613.15 962.417 1615.39 964.785 1616.98 965.449 1616.98 967.817 1606.14 967.817 1605.11 967.911 1603.24 968.669 1601.84 970.09 1601.09 971.984 1601 973.027 1601 993.866 1601.09 994.908 1601.84 996.802 1603.24 998.223 1605.11 998.981 1606.14 999.076 1606.7 999.076 1606.14 1000.31 1605.58 1002.67 1605.67 1005.14 1606.33 1007.41 1607.54 1009.4 1609.13 1011.11 1611.19 1012.34 1613.62 1013 1614.93 1013 1681.65 1013 1682.96 1013 1685.3 1012.34 1687.36 1011.11 1689.04 1009.4 1690.25 1007.32 1690.91 1005.04 1691 1002.67 1690.44 1000.21 1689.79 999.076ZM1614.83 999.076 1612.87 1002.39 1612.59 1002.96 1612.68 1004.19 1613.24 1005.23 1614.27 1005.9 1614.93 1005.9 1681.65 1005.9 1682.31 1005.9 1683.34 1005.23 1683.9 1004.29 1683.9 1003.05 1683.71 1002.49 1663.52 965.07 1663.15 965.354 1661.75 966.396 1658.57 967.248 1655.39 966.869 1652.5 965.164 1651.37 963.838 1649.13 960.902 1648.94 960.617 1648.2 960.333 1647.82 960.523 1633.43 966.301 1632.59 967.817 1636.98 967.817 1638.01 967.911 1639.88 968.669 1641.28 970.09 1642.03 971.984 1642.12 973.027 1642.12 993.866 1642.03 994.908 1641.28 996.802 1639.88 998.223 1638.01 998.981 1636.98 999.076ZM1647.17 942.241 1647.54 941.673 1648.57 941.105 1649.78 941.105 1650.81 941.768 1651.19 942.336 1660.07 958.723 1658.66 959.86 1658.29 960.144 1657.35 959.955 1656.98 959.671 1654.83 956.639 1653.9 955.597 1651.75 954.082 1649.13 953.324 1646.51 953.418 1645.21 953.892 1639.13 956.355ZM1619.04 961.565 1620.07 961.375 1621.37 960.049 1621.56 959.007 1621.37 957.871 1620.07 956.545 1619.04 956.355 1617.92 956.545 1616.61 957.871 1616.42 959.007 1616.61 960.049 1617.92 961.375ZM1625.21 976.342 1625.11 976.815 1624.55 977.478 1624.08 977.573 1608.85 977.573 1608.38 977.478 1607.73 976.815 1607.73 976.342 1607.73 975.205 1607.73 974.637 1608.38 974.068 1608.85 973.973 1624.08 973.973 1624.55 974.068 1625.11 974.637 1625.21 975.205ZM1635.77 983.446 1635.67 983.92 1635.02 984.583 1634.55 984.677 1612.4 984.677 1611.84 984.583 1611.28 983.92 1611.19 983.446 1611.19 982.31 1611.28 981.741 1611.84 981.172 1612.4 981.078 1634.55 981.078 1635.02 981.172 1635.67 981.741 1635.77 982.31ZM1634.55 991.782 1635.02 991.687 1635.67 991.024 1635.77 990.55 1635.77 989.414 1635.67 988.845 1635.02 988.277 1634.55 988.182 1612.4 988.182 1611.84 988.277 1611.28 988.845 1611.19 989.414 1611.19 990.55 1611.28 991.024 1611.84 991.687 1612.4 991.782Z" fill="#28B5E8" fill-rule="evenodd"/></g></svg>