<svg width="100" height="83" xmlns="http://www.w3.org/2000/svg" xmlns:xlink="http://www.w3.org/1999/xlink" xml:space="preserve" overflow="hidden"><g transform="translate(-1310 -1210)"><path d="M1335.47 1250.44 1335.47 1285.28 1317.73 1285.28 1317.73 1250.44ZM1369.89 1214.99C1370.31 1214.99 1370.73 1215.08 1371.14 1215.26 1373.85 1216.41 1377.29 1222.4 1373.15 1237.4 1372.96 1238.14 1373.08 1238.94 1373.56 1239.55 1374.04 1240.16 1374.76 1240.53 1375.52 1240.53L1398.49 1240.53C1404.05 1240.53 1405.05 1241.84 1405.05 1245.5 1405.05 1247.81 1404.64 1248.25 1404.62 1248.25 1404.62 1248.25 1404.42 1248.36 1403.85 1248.36L1388.08 1248.36C1386.71 1248.36 1385.59 1249.45 1385.59 1250.84 1385.59 1252.22 1386.7 1253.3 1388.08 1253.3L1403.2 1253.3C1404.01 1253.83 1404.59 1254.92 1404.74 1256.29 1404.88 1257.76 1404.42 1259.79 1402.94 1261.12L1388.1 1261.12C1386.73 1261.12 1385.63 1262.22 1385.63 1263.61 1385.63 1264.99 1386.71 1266.09 1388.1 1266.09L1402.21 1266.09C1402.56 1267.44 1402.6 1269.22 1401.96 1270.89 1401.39 1272.37 1400.43 1273.39 1399.13 1273.9L1388.13 1273.9C1386.76 1273.9 1385.64 1275.01 1385.64 1276.4 1385.64 1277.78 1386.73 1278.87 1388.13 1278.87L1397.42 1278.87C1397.36 1280.27 1396.92 1281.91 1395.84 1283.37 1394.67 1284.85 1392.45 1286.66 1388.32 1286.66L1353.59 1286.66C1353.07 1286.66 1351.77 1286.21 1350.71 1285.28 1348.62 1283.43 1345.95 1282.42 1343.18 1282.41L1343.18 1253.1C1346.05 1252.62 1348.69 1251.21 1350.65 1248.82 1350.8 1248.69 1350.97 1248.55 1351.14 1248.4L1351.41 1248.19C1358.78 1242.38 1363.47 1236.35 1365.75 1229.78 1365.84 1229.51 1366 1229.27 1366.15 1228.98 1366.64 1228.12 1367.22 1227.05 1367.22 1225.71L1367.22 1216.36C1367.94 1215.46 1368.91 1214.99 1369.89 1214.99ZM1369.88 1210.01C1367.04 1210.01 1364.32 1211.54 1362.66 1214.27 1362.42 1214.66 1362.29 1215.12 1362.29 1215.56L1362.29 1225.63C1362.26 1225.81 1362.02 1226.25 1361.85 1226.56 1361.56 1227.09 1361.28 1227.6 1361.11 1228.12 1359.12 1233.79 1354.96 1239.07 1348.15 1244.45 1347.74 1244.74 1347.23 1245.13 1346.85 1245.62 1345.86 1246.84 1344.58 1247.64 1343.18 1248.05L1343.18 1246.57C1343.18 1244.42 1341.46 1242.68 1339.32 1242.68L1313.87 1242.68C1311.74 1242.68 1310 1244.42 1310 1246.57L1310 1289.12C1310 1291.26 1311.74 1293 1313.87 1293L1339.32 1293C1341.46 1293 1343.18 1291.26 1343.18 1289.12L1343.18 1287.34C1344.74 1287.37 1346.26 1287.94 1347.43 1288.97 1349.22 1290.58 1351.64 1291.62 1353.59 1291.62L1388.32 1291.62C1393.11 1291.62 1397.17 1289.74 1399.72 1286.33 1401.49 1283.99 1402.4 1281.04 1402.35 1278.27 1402.67 1278.01 1402.95 1277.68 1403.1 1277.28 1404.62 1276.14 1405.81 1274.59 1406.53 1272.65 1407.46 1270.23 1407.56 1267.47 1406.99 1265.08 1407.3 1264.66 1407.52 1264.18 1407.52 1263.61 1407.52 1263.54 1407.5 1263.51 1407.5 1263.46 1409.1 1261.36 1409.93 1258.67 1409.67 1255.82 1409.51 1254.23 1409.04 1252.77 1408.31 1251.57 1410 1249.67 1410 1246.74 1410 1245.47 1410 1235.56 1401.65 1235.56 1398.5 1235.56L1378.73 1235.56C1382.1 1220.58 1378.19 1212.89 1373.12 1210.69 1372.06 1210.23 1370.96 1210.01 1369.88 1210.01Z" fill="#2AB5E8" fill-rule="evenodd"/></g></svg>