<svg width="66" height="107" xmlns="http://www.w3.org/2000/svg" xmlns:xlink="http://www.w3.org/1999/xlink" xml:space="preserve" overflow="hidden"><defs><clipPath id="clip0"><rect x="1041" y="360" width="66" height="107"/></clipPath></defs><g clip-path="url(#clip0)" transform="translate(-1041 -360)"><path d="M1077.32 368.427 1068.42 389.148C1067.84 390.434 1067.99 391.933 1068.76 393.124 1069.53 394.302 1070.87 395.016 1072.28 395.016L1095.78 395.016 1073.83 439.673 1076.52 414.012C1076.67 412.834 1076.26 411.667 1075.46 410.774 1074.66 409.894 1073.51 409.382 1072.31 409.382L1050.37 409.382 1057.18 368.427ZM1053.61 360C1051.55 360 1049.78 361.488 1049.44 363.523L1041.2 412.869C1041.01 414.083 1041.35 415.333 1042.16 416.297 1042.96 417.249 1044.13 417.773 1045.37 417.773L1067.62 417.773 1062.91 462.346C1062.68 464.382 1063.97 466.298 1065.94 466.845 1066.34 466.941 1066.73 467 1067.12 467 1068.69 467 1070.21 466.119 1070.92 464.632L1106.37 392.612C1107 391.35 1106.95 389.803 1106.16 388.565 1105.39 387.327 1104.04 386.577 1102.58 386.577L1078.72 386.577 1087.64 365.891C1088.2 364.582 1088.07 363.071 1087.28 361.904 1086.51 360.726 1085.19 360 1083.76 360Z" fill="#2AB5E8" fill-rule="evenodd"/></g></svg>