<svg width="99" height="77" xmlns="http://www.w3.org/2000/svg" xmlns:xlink="http://www.w3.org/1999/xlink" xml:space="preserve" overflow="hidden"><g transform="translate(-739 -375)"><path d="M800.227 393.836 759.293 417.902 750.596 409.92 800.227 393.836ZM814.939 390.975 768.633 426.257C767.968 426.432 767.357 426.706 766.856 427.243 765.265 428.954 763.565 430.73 761.995 432.375 762.115 429.381 762.279 425.972 762.453 422.77 762.475 422.463 762.453 422.145 762.41 421.871L814.939 390.975ZM819.985 393.332 788.587 442.154 773.842 428.493 819.985 393.332ZM833.859 375C833.466 375 833.074 375.055 832.693 375.175L741.888 404.57C740.569 405.008 739.599 406.094 739.294 407.442 739 408.78 739.458 410.216 740.46 411.126L754.65 424.141C753.604 443.152 753.876 443.36 755.718 444.775 756.405 445.312 757.244 445.597 758.094 445.597 758.497 445.597 758.911 445.531 759.293 445.4 760.284 445.071 760.72 444.928 769.82 435.324L786.691 450.969C787.388 451.649 788.347 451.989 789.307 451.989 789.459 451.989 789.623 451.978 789.786 451.945 790.919 451.792 791.944 451.178 792.543 450.202L837.128 381.008C838 379.627 837.935 377.829 836.943 376.535 836.191 375.548 835.047 375 833.859 375Z" fill="#2AB5E8" fill-rule="evenodd"/></g></svg>