<svg width="66" height="88" xmlns="http://www.w3.org/2000/svg" xmlns:xlink="http://www.w3.org/1999/xlink" xml:space="preserve" overflow="hidden"><defs><clipPath id="clip0"><rect x="1899" y="1209" width="66" height="88"/></clipPath></defs><g clip-path="url(#clip0)" transform="translate(-1899 -1209)"><path d="M1915.85 1222.62 1915.85 1228.55 1910.41 1228.55 1915.85 1222.62ZM1930.6 1253.1 1930.6 1259.82 1917.26 1259.82 1917.26 1253.1ZM1946.75 1253.09 1946.75 1259.82 1933.41 1259.82 1933.41 1253.09ZM1930.6 1262.61 1930.6 1269.35 1917.26 1269.35 1917.26 1262.61ZM1946.73 1262.61 1946.73 1269.35 1933.39 1269.35 1933.39 1262.61ZM1930.6 1272.13 1930.6 1278.4 1917.26 1278.4 1917.26 1272.13ZM1946.73 1272.13 1946.73 1278.4 1933.39 1278.4 1933.39 1272.13ZM1915.01 1243.43C1913.79 1243.43 1912.78 1244.43 1912.78 1245.66L1912.78 1280.63C1912.78 1281.87 1913.79 1282.87 1915.01 1282.87L1949 1282.87C1950.22 1282.87 1951.24 1281.87 1951.24 1280.63L1951.24 1245.66C1951.24 1244.43 1950.22 1243.43 1949 1243.43ZM1957.99 1215.98 1957.99 1290.01 1906.02 1290.01 1906.02 1235.53 1919.36 1235.53C1921.3 1235.53 1922.88 1233.98 1922.88 1232.03L1922.88 1215.98ZM1920.38 1209C1919.39 1209 1918.44 1209.42 1917.78 1210.14L1899.91 1229.62C1899.33 1230.27 1899 1231.12 1899 1231.97L1899 1293.51C1899 1295.42 1900.57 1296.99 1902.52 1296.99L1961.48 1296.99C1963.4 1296.99 1965 1295.44 1965 1293.51L1965 1212.47C1965 1210.56 1963.43 1209 1961.48 1209Z" fill="#2AB5E8" fill-rule="evenodd"/></g></svg>