<svg width="90" height="75" xmlns="http://www.w3.org/2000/svg" xmlns:xlink="http://www.w3.org/1999/xlink" xml:space="preserve" overflow="hidden"><g transform="translate(-2173 -1215)"><path d="M2185.98 1224.62C2184.83 1224.62 2183.92 1225.53 2183.92 1226.68 2183.92 1227.81 2184.83 1228.74 2185.98 1228.74 2187.12 1228.74 2188.05 1227.81 2188.05 1226.68 2188.05 1225.53 2187.12 1224.62 2185.98 1224.62ZM2194.23 1224.62C2193.09 1224.62 2192.16 1225.53 2192.16 1226.68 2192.16 1227.81 2193.09 1228.74 2194.23 1228.74 2195.38 1228.74 2196.3 1227.81 2196.3 1226.68 2196.3 1225.53 2195.38 1224.62 2194.23 1224.62ZM2202.48 1224.62C2201.33 1224.62 2200.41 1225.53 2200.41 1226.68 2200.41 1227.81 2201.33 1228.74 2202.48 1228.74 2203.61 1228.74 2204.55 1227.81 2204.55 1226.68 2204.55 1225.53 2203.61 1224.62 2202.48 1224.62ZM2255.94 1222.03 2255.94 1231.53 2180.06 1231.53 2180.06 1222.03ZM2206.53 1249.45 2206.53 1255.96 2190.33 1255.96 2190.33 1249.45ZM2226.5 1249.45 2226.5 1255.96 2209.35 1255.96 2209.35 1249.45ZM2245.52 1249.45 2245.52 1255.96 2229.31 1255.96 2229.31 1249.45ZM2206.53 1258.75 2206.53 1265.15 2190.32 1265.15 2190.32 1258.75ZM2245.52 1258.75 2245.52 1265.15 2229.31 1265.15 2229.31 1258.75ZM2226.49 1258.78 2226.49 1265.17 2209.34 1265.17 2209.34 1258.78ZM2206.53 1267.95 2206.53 1274.11 2190.32 1274.11 2190.32 1267.95ZM2226.5 1267.95 2226.5 1274.11 2209.35 1274.11 2209.35 1267.95ZM2245.52 1267.95 2245.52 1274.11 2229.31 1274.11 2229.31 1267.95ZM2188.07 1240.92C2186.82 1240.92 2185.82 1241.92 2185.82 1243.15L2185.82 1276.36C2185.82 1277.59 2186.82 1278.59 2188.07 1278.59L2247.77 1278.59C2249.02 1278.59 2250.02 1277.59 2250.02 1276.36L2250.02 1243.15C2250.03 1241.9 2249.02 1240.92 2247.77 1240.92ZM2255.94 1235.99 2255.94 1282.98 2180.06 1282.98 2180.06 1235.99ZM2176.54 1215.01C2174.6 1215.01 2173.01 1216.56 2173.01 1218.51L2173.01 1286.5C2173.01 1288.43 2174.59 1290 2176.54 1290L2259.47 1290C2261.42 1290 2263 1288.44 2263 1286.5L2263 1218.51C2262.98 1216.59 2261.42 1215.01 2259.47 1215.01Z" fill="#2AB5E8" fill-rule="evenodd"/></g></svg>