<svg width="80" height="93" xmlns="http://www.w3.org/2000/svg" xmlns:xlink="http://www.w3.org/1999/xlink" xml:space="preserve" overflow="hidden"><defs><clipPath id="clip0"><rect x="1320" y="367" width="80" height="93"/></clipPath></defs><g clip-path="url(#clip0)" transform="translate(-1320 -367)"><path d="M1391.67 406.284 1389.36 406.284 1389.36 370.721C1389.36 368.667 1387.73 367.001 1385.71 367.001L1340.87 367.001C1339.75 366.974 1338.67 367.467 1337.95 368.34L1320.7 389.172C1320.23 389.848 1319.98 390.662 1320 391.493L1320 456.28C1319.98 458.318 1321.59 459.983 1323.6 460 1323.62 460 1323.64 460 1323.65 460L1385.71 460C1387.71 460.016 1389.34 458.378 1389.36 456.34 1389.36 456.32 1389.36 456.3 1389.36 456.28L1389.36 445.566 1391.67 445.566C1396.26 445.55 1399.98 441.762 1400 437.085L1400 414.765C1399.98 410.088 1396.26 406.3 1391.67 406.284ZM1338.21 379.679 1338.21 389.321 1330.2 389.321ZM1382.05 452.56 1327.25 452.56 1327.25 396.761 1341.86 396.761C1343.87 396.777 1345.5 395.138 1345.52 393.101 1345.52 393.081 1345.52 393.061 1345.52 393.041L1345.52 374.441 1382.05 374.441 1382.05 406.284 1347.83 406.284C1343.23 406.284 1339.5 410.081 1339.5 414.765L1339.5 437.085C1339.5 441.769 1343.23 445.566 1347.83 445.566L1382.05 445.566ZM1395.32 437.085C1395.32 439.139 1393.69 440.805 1391.67 440.805L1347.83 440.805C1345.81 440.805 1344.17 439.139 1344.17 437.085L1344.17 414.765C1344.17 412.711 1345.81 411.045 1347.83 411.045L1391.67 411.045C1393.69 411.045 1395.32 412.711 1395.32 414.765Z" fill="#2AB5E8" fill-rule="evenodd"/><path d="M1354.77 425.386C1352.13 424.533 1351.39 423.974 1351.39 422.797 1351.39 421.619 1352.37 420.648 1354.14 420.648 1355.62 420.628 1357.05 421.141 1358.16 422.09L1359.72 419.766C1358.17 418.478 1356.16 417.853 1354.14 418.029 1350.28 418.029 1348.15 419.972 1348.15 422.914 1348.15 425.857 1349.8 426.858 1353.42 428.005 1356.42 428.947 1356.9 429.595 1356.9 430.948 1356.9 432.302 1356.03 433.303 1354.05 433.303 1352.41 433.259 1350.83 432.679 1349.56 431.654L1348 433.803C1349.63 435.263 1351.79 436.035 1353.99 435.951 1356.88 436.341 1359.54 434.361 1359.94 431.527 1359.97 431.267 1359.99 431.005 1359.99 430.742 1360.17 428.064 1358.7 426.564 1354.77 425.386Z" fill="#2AB5E8" fill-rule="evenodd"/><path d="M1376.94 427.048C1377.45 422.626 1374.52 418.602 1370.41 418.06 1366.3 417.519 1362.56 420.666 1362.06 425.088 1361.98 425.739 1361.98 426.397 1362.06 427.048 1361.73 431.639 1364.93 435.644 1369.19 435.994 1369.3 436.002 1369.4 436.008 1369.5 436.012 1369.91 436.058 1370.32 436.058 1370.72 436.012L1372.17 439 1375.11 439 1373.17 435.116C1375.65 433.326 1377.09 430.264 1376.94 427.048ZM1369.5 433.323C1366.72 433.323 1364.81 430.604 1364.81 427.048 1364.81 423.493 1366.72 420.714 1369.5 420.714 1372.28 420.714 1374.19 423.463 1374.19 427.048 1374.19 430.634 1372.28 433.234 1369.5 433.234Z" fill="#2AB5E8" fill-rule="evenodd"/><path d="M1382.73 418 1380 418 1380 436 1390 436 1390 433.366 1382.73 433.366 1382.73 418Z" fill="#2AB5E8" fill-rule="evenodd"/></g></svg>