<svg width="80" height="88" xmlns="http://www.w3.org/2000/svg" xmlns:xlink="http://www.w3.org/1999/xlink" xml:space="preserve" overflow="hidden"><g transform="translate(-2178 -370)"><path d="M2213.69 377.034C2232.25 377.034 2242.37 382.905 2242.37 385.925 2242.37 388.955 2232.25 394.806 2213.69 394.806 2195.15 394.806 2185.02 388.955 2185.02 385.925 2185.02 382.905 2195.14 377.034 2213.69 377.034ZM2232.26 416.096C2234.74 416.096 2236.49 418.401 2236.49 421.391 2236.49 424.362 2234.74 426.647 2232.26 426.647 2229.79 426.647 2228.07 424.372 2228.07 421.391 2228.07 418.381 2229.79 416.096 2232.26 416.096ZM2240.56 414.099 2240.56 428.604 2249.3 428.604 2249.3 426.497 2242.95 426.497 2242.95 414.099ZM2219.29 413.811C2216.07 413.811 2214.37 415.45 2214.37 417.944 2214.37 420.199 2215.73 421.302 2218.74 422.265 2221.14 423.06 2221.61 423.636 2221.61 424.739 2221.61 425.921 2220.92 426.746 2219.25 426.746 2217.1 426.746 2215.54 425.345 2215.54 425.345L2214.23 427.163C2214.23 427.163 2215.86 428.961 2219.32 428.961 2222.64 428.961 2224.28 427.024 2224.28 424.55 2224.28 422.305 2223.05 421.024 2219.82 420.02 2217.62 419.295 2217.02 418.828 2217.02 417.825 2217.02 416.652 2217.83 416.027 2219.29 416.027 2221.37 416.027 2222.62 417.229 2222.62 417.229L2223.93 415.281C2223.93 415.281 2222.61 413.811 2219.29 413.811ZM2232.26 413.791C2228.26 413.791 2225.62 417.139 2225.62 421.391 2225.62 425.564 2228.26 428.961 2232.26 428.961 2232.65 428.961 2233.02 428.941 2233.36 428.872L2234.65 431.365 2237.3 431.365 2235.53 428.107C2237.67 426.805 2238.94 424.282 2238.94 421.391 2238.94 417.139 2236.3 413.791 2232.26 413.791ZM2250.4 409.102C2252.12 409.102 2253.52 410.503 2253.52 412.212L2253.52 430.948C2253.52 432.677 2252.1 434.078 2250.4 434.078L2213.11 434.078C2211.4 434.078 2210.01 432.677 2210.01 430.948L2210.01 412.212C2210.01 410.503 2211.4 409.102 2213.11 409.102ZM2242.37 395.77 2242.37 404.602 2213.11 404.602C2208.92 404.602 2205.52 408.009 2205.52 412.212L2205.52 430.948C2205.52 435.16 2208.92 438.578 2213.11 438.578L2242.37 438.578 2242.37 442.075C2242.37 445.095 2232.25 450.956 2213.69 450.956 2195.15 450.956 2185.02 445.095 2185.02 442.075L2185.02 395.77C2191.87 399.784 2202.81 401.86 2213.69 401.86 2224.58 401.86 2235.53 399.794 2242.37 395.77ZM2213.68 370.01C2195.94 370.01 2178 375.484 2178 385.925L2178 442.075C2178 452.536 2195.94 457.99 2213.68 457.99 2231.43 457.99 2249.36 452.516 2249.36 442.075L2249.36 438.568 2250.4 438.568C2254.59 438.568 2258 435.16 2258 430.948L2258 412.212C2258 408.039 2254.59 404.602 2250.4 404.602L2249.36 404.602 2249.36 385.925C2249.36 375.464 2231.43 370.01 2213.68 370.01Z" fill="#2AB5E8" fill-rule="evenodd"/></g></svg>