<svg width="88" height="98" xmlns="http://www.w3.org/2000/svg" xmlns:xlink="http://www.w3.org/1999/xlink" xml:space="preserve" overflow="hidden"><defs><clipPath id="clip0"><rect x="2174" y="1479" width="88" height="98"/></clipPath></defs><g clip-path="url(#clip0)" transform="translate(-2174 -1479)"><path d="M2209.82 1492.26 2209.82 1501.52 2184.13 1501.52 2191.58 1492.26ZM2209.82 1508.16 2209.82 1523.09 2180.56 1523.09 2180.56 1508.16ZM2209.82 1527.34 2209.82 1543.41 2180.56 1543.41 2180.56 1527.34ZM2248.57 1500.71 2248.57 1546.61 2212.73 1546.61 2212.73 1500.71ZM2251.8 1492.61C2254.87 1492.61 2257.33 1495.14 2257.33 1498.22L2257.33 1548.85C2257.33 1551.95 2254.85 1554.47 2251.8 1554.47L2212.73 1554.47 2212.73 1549.52 2251.47 1549.52 2251.47 1497.76 2212.73 1497.76 2212.73 1492.61ZM2209.82 1547.64 2209.82 1562.51 2183.48 1562.51C2183.33 1562.51 2183.18 1562.52 2183.04 1562.52 2180.74 1562.52 2180.56 1562.28 2180.56 1557.89L2180.56 1547.64ZM2211.28 1479.01C2210.47 1479.01 2209.82 1479.65 2209.82 1480.47L2209.82 1485.61 2190.03 1485.61C2189.05 1485.61 2188.11 1486.07 2187.48 1486.84L2174.73 1502.76C2174.54 1503 2174.39 1503.26 2174.29 1503.52 2174.29 1503.56 2174.25 1503.56 2174.25 1503.57 2174.09 1503.92 2174.05 1504.32 2174.02 1504.71 2174.02 1504.77 2174 1504.83 2174 1504.86L2174 1557.91C2174 1561.84 2174 1569.19 2183.48 1569.19L2209.82 1569.19 2209.82 1575.53C2209.82 1576.34 2210.46 1576.99 2211.28 1576.99 2212.08 1576.99 2212.73 1576.34 2212.73 1575.53L2212.73 1568.19 2240.23 1568.19C2241.52 1568.19 2242.56 1567.15 2242.56 1565.85 2242.56 1564.57 2241.52 1563.5 2240.23 1563.5L2212.73 1563.5 2212.73 1559.2 2251.8 1559.2C2257.41 1559.2 2262 1554.57 2262 1548.9L2262 1498.28C2262 1492.58 2257.41 1487.93 2251.8 1487.93L2212.73 1487.93 2212.73 1480.47C2212.73 1479.65 2212.08 1479.01 2211.28 1479.01Z" fill="#2AB5E8" fill-rule="evenodd"/><path d="M2189.5 1512.01C2187.58 1512.01 2186.01 1513.34 2186.01 1515 2186.01 1516.66 2187.58 1517.99 2189.5 1517.99 2191.44 1517.99 2192.99 1516.66 2192.99 1515 2192.99 1513.34 2191.44 1512.01 2189.5 1512.01Z" fill="#2AB5E8" fill-rule="evenodd"/><path d="M2189.99 1552C2188.34 1552 2187 1553.35 2187 1555.01 2187 1556.65 2188.34 1558 2189.99 1558 2191.65 1558 2192.99 1556.65 2192.99 1555.01 2192.98 1553.33 2191.65 1552 2189.99 1552Z" fill="#2AB5E8" fill-rule="evenodd"/><path d="M2189.5 1531.01C2187.58 1531.01 2186.01 1532.56 2186.01 1534.5 2186.01 1536.42 2187.58 1537.99 2189.5 1537.99 2191.44 1537.99 2192.99 1536.42 2192.99 1534.5 2192.99 1532.56 2191.44 1531.01 2189.5 1531.01Z" fill="#2AB5E8" fill-rule="evenodd"/></g></svg>