<svg width="69" height="71" xmlns="http://www.w3.org/2000/svg" xmlns:xlink="http://www.w3.org/1999/xlink" xml:space="preserve" overflow="hidden"><defs><clipPath id="clip0"><rect x="1612" y="652" width="69" height="71"/></clipPath></defs><g clip-path="url(#clip0)" transform="translate(-1612 -652)"><path d="M1646.5 652C1629.35 652 1612 656.637 1612 665.512L1612 709.488C1612 718.363 1629.37 723 1646.5 723 1663.63 723 1681 718.363 1681 709.488L1681 665.512C1681 656.637 1663.65 652 1646.5 652ZM1623.24 713.814C1619.89 712.417 1617.96 710.797 1617.96 709.488L1617.96 704.141C1619.57 705.159 1621.31 706 1623.14 706.648ZM1623.24 704.296C1621.31 703.595 1619.53 702.613 1617.96 701.389L1617.96 693.912C1619.57 694.922 1621.31 695.763 1623.14 696.419ZM1623.24 694.045C1621.32 693.351 1619.53 692.376 1617.96 691.161L1617.96 683.861C1619.6 684.885 1621.38 685.734 1623.24 686.391ZM1623.24 683.994C1621.32 683.307 1619.53 682.34 1617.96 681.132L1617.96 673.478C1619.21 674.166 1620.52 674.76 1621.88 675.253L1623.14 675.807ZM1634.29 716.699C1631.33 716.282 1628.42 715.621 1625.6 714.724L1625.6 707.469C1628.44 708.29 1631.34 708.914 1634.29 709.333ZM1634.29 707.114C1631.33 706.689 1628.43 706.028 1625.6 705.139L1625.6 697.196C1628.43 698.043 1631.34 698.681 1634.29 699.104ZM1634.29 696.863C1631.34 696.436 1628.43 695.782 1625.6 694.911L1625.6 687.123C1628.44 687.94 1631.34 688.549 1634.29 688.942ZM1634.29 686.746C1631.34 686.326 1628.43 685.68 1625.6 684.815L1625.6 676.65C1628.42 677.561 1631.33 678.244 1634.29 678.692ZM1645.26 717.564C1642.36 717.533 1639.47 717.355 1636.6 717.032L1636.6 709.643C1639.47 709.976 1642.36 710.154 1645.26 710.176ZM1645.26 707.979C1642.36 707.957 1639.47 707.779 1636.6 707.447L1636.6 699.393C1639.47 699.724 1642.36 699.902 1645.26 699.925ZM1645.26 697.751C1642.36 697.71 1639.47 697.525 1636.6 697.196L1636.6 689.253C1639.47 689.567 1642.36 689.737 1645.26 689.763ZM1645.26 687.567C1642.36 687.54 1639.47 687.37 1636.6 687.056L1636.6 679.024C1639.47 679.383 1642.36 679.576 1645.26 679.601ZM1656.3 717.032C1653.43 717.355 1650.54 717.533 1647.64 717.564L1647.64 710.176C1650.54 710.154 1653.43 709.976 1656.3 709.643ZM1656.3 707.447C1653.43 707.779 1650.54 707.957 1647.64 707.979L1647.64 699.925C1650.54 699.902 1653.43 699.724 1656.3 699.393ZM1656.3 697.196C1653.43 697.525 1650.54 697.71 1647.64 697.751L1647.64 689.763C1650.54 689.737 1653.43 689.567 1656.3 689.253ZM1656.3 687.056C1653.43 687.37 1650.54 687.54 1647.64 687.567L1647.64 679.601C1650.54 679.576 1653.43 679.383 1656.3 679.024ZM1667.35 714.724C1664.53 715.621 1661.62 716.282 1658.66 716.699L1658.66 709.333C1661.61 708.914 1664.51 708.29 1667.35 707.469ZM1667.35 705.139C1664.53 706.028 1661.62 706.689 1658.66 707.114L1658.66 699.104C1661.61 698.681 1664.52 698.043 1667.35 697.196ZM1667.35 694.911C1664.52 695.782 1661.61 696.436 1658.66 696.863L1658.66 688.942C1661.61 688.547 1664.51 687.938 1667.35 687.123ZM1667.35 684.815C1664.52 685.68 1661.61 686.326 1658.66 686.746L1658.66 678.692C1661.62 678.244 1664.53 677.561 1667.35 676.65ZM1674.8 709.488C1674.8 710.819 1672.96 712.417 1669.61 713.814L1669.61 706.648C1671.53 706.022 1673.36 705.18 1675.04 704.141ZM1674.8 701.389C1673.25 702.604 1671.5 703.586 1669.61 704.296L1669.61 696.419C1671.53 695.787 1673.36 694.937 1675.04 693.89ZM1674.8 691.139C1673.26 692.361 1671.51 693.344 1669.61 694.045L1669.61 686.391C1671.52 685.739 1673.35 684.89 1675.04 683.861ZM1674.8 681.11C1673.26 682.325 1671.51 683.3 1669.61 683.994L1669.61 675.807 1670.85 675.253C1672.22 674.764 1673.54 674.17 1674.8 673.478ZM1646.5 673.611C1629.13 673.611 1617.96 668.818 1617.96 665.512 1617.96 662.206 1629.13 657.414 1646.5 657.414 1663.87 657.414 1675.04 662.206 1675.04 665.512 1675.04 668.818 1663.87 673.611 1646.5 673.611Z" fill="#2AB5E8" fill-rule="evenodd"/></g></svg>