<svg width="96" height="96" xmlns="http://www.w3.org/2000/svg" xmlns:xlink="http://www.w3.org/1999/xlink" xml:space="preserve" overflow="hidden"><defs><clipPath id="clip0"><rect x="1598" y="659" width="96" height="96"/></clipPath></defs><g clip-path="url(#clip0)" transform="translate(-1598 -659)"><path d="M1645.52 661.514C1643.76 659.753 1641.31 658.845 1638.83 659.022L1608.2 661.244C1603.95 661.572 1600.57 664.949 1600.25 669.2L1598.02 699.826C1597.84 702.315 1598.75 704.76 1600.52 706.522L1646.54 752.551C1649.88 755.816 1655.22 755.816 1658.55 752.551L1691.55 719.703C1694.82 716.366 1694.82 711.031 1691.55 707.693ZM1686.36 714.539 1653.54 747.357C1652.94 747.987 1652.46 747.987 1651.83 747.357L1605.71 701.298C1605.51 701.021 1605.43 700.672 1605.5 700.337L1607.6 669.741C1607.62 669.117 1608.12 668.616 1608.74 668.6L1639.34 666.498 1639.34 666.498C1639.67 666.487 1639.98 666.618 1640.21 666.858L1686.36 712.767C1686.59 712.998 1686.72 713.311 1686.72 713.638 1686.72 713.973 1686.59 714.295 1686.36 714.539Z" fill="#2AB5E8" fill-rule="evenodd"/><path d="M1623.65 677.001C1619.51 676.922 1616.09 679.991 1616 683.856 1615.92 687.722 1619.2 690.919 1623.35 690.999 1627.49 691.078 1630.91 688.009 1631 684.144 1631 684.135 1631 684.126 1631 684.117 1631.08 680.268 1627.81 677.082 1623.69 677.002 1623.68 677.002 1623.67 677.001 1623.65 677.001ZM1623.65 686.431C1622.2 686.509 1620.96 685.473 1620.87 684.117 1620.79 682.761 1621.9 681.599 1623.35 681.522 1624.81 681.444 1626.05 682.48 1626.13 683.836 1626.14 683.929 1626.14 684.023 1626.13 684.117 1626.06 685.364 1624.99 686.36 1623.65 686.431Z" fill="#2AB5E8" fill-rule="evenodd"/></g></svg>