<svg width="81" height="81" xmlns="http://www.w3.org/2000/svg" xmlns:xlink="http://www.w3.org/1999/xlink" xml:space="preserve" overflow="hidden"><g transform="translate(-3035 -651)"><path d="M3063.17 661.903C3053.65 661.903 3045.91 669.636 3045.91 679.147 3045.91 687.203 3051.37 694.1 3059.22 695.941 3059.37 695.968 3059.54 695.977 3059.69 695.977 3060.62 695.977 3061.45 695.348 3061.69 694.414 3061.92 693.328 3061.25 692.214 3060.16 691.962 3054.18 690.561 3050 685.299 3050 679.147 3050 671.881 3055.91 665.98 3063.17 665.971 3069.37 665.971 3074.79 670.354 3076.06 676.416 3076.26 677.359 3077.11 678.024 3078.05 678.024 3078.19 678.024 3078.34 678.006 3078.48 677.97 3079.59 677.763 3080.28 676.677 3080.05 675.572 3078.38 667.669 3071.27 661.903 3063.17 661.903ZM3063.18 651.009C3047.64 651.009 3035.01 663.627 3035.01 679.147 3035.01 694.675 3047.64 707.284 3063.18 707.284 3064.3 707.284 3065.22 706.368 3065.22 705.245 3065.22 704.123 3064.3 703.216 3063.18 703.216 3049.9 703.216 3039.08 692.421 3039.08 679.147 3039.08 665.882 3049.9 655.077 3063.18 655.077 3076.47 655.077 3087.27 665.882 3087.27 679.147 3087.27 680.269 3088.2 681.176 3089.32 681.176 3090.43 681.176 3091.35 680.269 3091.35 679.147 3091.35 663.627 3078.71 651.009 3063.18 651.009ZM3068.44 683.96 3097.78 696.48 3092.42 701.141C3091.75 701.725 3091.35 702.542 3091.32 703.422 3091.28 704.302 3091.62 705.156 3092.25 705.766L3108.01 721.528 3105.21 724.33 3089.63 708.739C3089.03 708.137 3088.23 707.805 3087.38 707.805L3087.27 707.805C3086.39 707.832 3085.58 708.218 3084.99 708.883L3081 713.409 3068.44 683.96ZM3062.4 674.746C3061.58 674.746 3060.77 675.069 3060.16 675.68 3059.24 676.596 3058.97 677.988 3059.48 679.182L3077.13 720.54C3077.57 721.546 3078.46 722.264 3079.55 722.426 3079.72 722.453 3079.89 722.462 3080.06 722.462 3080.97 722.462 3081.83 722.085 3082.45 721.393L3087.52 715.618 3102.95 731.066C3103.55 731.668 3104.36 732 3105.21 732 3106.05 732 3106.85 731.668 3107.45 731.066L3114.75 723.773C3115.99 722.534 3115.99 720.531 3114.75 719.274L3099.16 703.683 3105.78 697.935C3106.62 697.216 3107.01 696.121 3106.84 695.061 3106.68 693.965 3105.96 693.058 3104.95 692.618L3063.65 675.015C3063.25 674.836 3062.82 674.746 3062.4 674.746Z" fill="#2AB5E8" fill-rule="evenodd"/></g></svg>