<svg width="96" height="103" xmlns="http://www.w3.org/2000/svg" xmlns:xlink="http://www.w3.org/1999/xlink" xml:space="preserve" overflow="hidden"><defs><clipPath id="clip0"><rect x="1598" y="1481" width="96" height="103"/></clipPath></defs><g clip-path="url(#clip0)" transform="translate(-1598 -1481)"><path d="M1632.18 1504.11 1632.18 1504.11C1631.08 1505.78 1630.12 1507.76 1629.36 1509.94 1627.93 1509.84 1626.56 1509.71 1625.21 1509.55 1627.11 1507.28 1629.5 1505.42 1632.18 1504.11ZM1650.5 1504.11 1650.5 1504.11C1653.19 1505.42 1655.58 1507.28 1657.46 1509.55 1656.11 1509.71 1654.71 1509.84 1653.3 1509.94 1652.54 1507.76 1651.61 1505.78 1650.5 1504.11ZM1639.78 1502.07 1639.78 1510.42C1637.29 1510.39 1634.8 1510.32 1632.38 1510.17 1633.76 1506.58 1635.64 1503.77 1637.81 1502.32 1638.47 1502.19 1639.12 1502.11 1639.78 1502.07ZM1642.68 1502.07C1643.42 1502.11 1644.13 1502.19 1644.85 1502.32 1647.04 1503.77 1648.93 1506.58 1650.29 1510.18 1647.79 1510.33 1645.24 1510.42 1642.68 1510.44L1642.68 1502.07ZM1623.35 1512.22C1625.03 1512.45 1626.75 1512.6 1628.54 1512.77 1627.88 1515.43 1627.46 1518.34 1627.38 1521.43L1620.44 1521.43C1620.68 1518.08 1621.69 1514.97 1623.35 1512.22ZM1631.48 1513.01C1634.17 1513.19 1636.96 1513.28 1639.78 1513.3L1639.78 1521.43 1630.24 1521.43C1630.38 1518.43 1630.78 1515.59 1631.48 1513.01ZM1651.21 1513.01C1651.88 1515.59 1652.32 1518.43 1652.42 1521.43L1642.68 1521.43 1642.68 1513.3C1645.6 1513.28 1648.45 1513.19 1651.21 1513.01ZM1659.33 1512.23C1660.95 1514.97 1661.98 1518.08 1662.22 1521.46L1655.33 1521.46C1655.24 1518.36 1654.82 1515.46 1654.16 1512.8 1655.95 1512.64 1657.65 1512.46 1659.33 1512.23ZM1639.78 1524.32 1639.78 1532.46C1636.97 1532.49 1634.2 1532.57 1631.48 1532.75 1630.78 1530.18 1630.38 1527.32 1630.24 1524.32ZM1652.42 1524.32C1652.32 1527.32 1651.88 1530.18 1651.21 1532.75 1648.42 1532.57 1645.55 1532.49 1642.68 1532.46L1642.68 1524.32ZM1627.38 1524.32C1627.46 1527.4 1627.88 1530.32 1628.54 1532.99 1626.75 1533.15 1625.03 1533.33 1623.35 1533.54 1621.69 1530.8 1620.68 1527.68 1620.44 1524.32ZM1662.22 1524.32C1661.98 1527.68 1660.95 1530.8 1659.33 1533.54 1657.65 1533.33 1655.93 1533.15 1654.15 1532.99 1654.81 1530.32 1655.22 1527.4 1655.33 1524.32ZM1629.39 1535.81C1630.14 1537.99 1631.08 1539.99 1632.19 1541.64 1629.5 1540.34 1627.11 1538.47 1625.22 1536.2 1626.57 1536.04 1627.96 1535.92 1629.39 1535.81ZM1653.3 1535.81C1654.71 1535.92 1656.11 1536.04 1657.46 1536.2 1655.58 1538.47 1653.19 1540.34 1650.5 1541.64 1651.58 1539.99 1652.54 1537.99 1653.3 1535.81ZM1639.78 1535.37 1639.78 1543.71C1639.12 1543.66 1638.47 1543.58 1637.81 1543.47 1635.64 1541.98 1633.76 1539.19 1632.38 1535.6 1634.83 1535.47 1637.29 1535.38 1639.78 1535.37ZM1642.68 1535.34C1645.26 1535.37 1647.79 1535.46 1650.29 1535.58 1648.93 1539.19 1647.04 1541.98 1644.85 1543.47 1644.13 1543.58 1643.42 1543.66 1642.68 1543.71L1642.68 1535.34ZM1641.34 1497.38C1627.26 1497.38 1615.78 1508.82 1615.78 1522.88 1615.78 1536.93 1627.26 1548.37 1641.34 1548.37 1655.43 1548.37 1666.9 1536.93 1666.9 1522.88 1666.9 1508.82 1655.43 1497.38 1641.34 1497.38ZM1641.22 1481C1640.56 1481 1639.88 1481.01 1639.2 1481.05 1617.72 1482.08 1599.93 1499.65 1598.72 1521.08 1598 1533.91 1603.05 1546.22 1612.53 1554.88 1614.07 1556.28 1614.73 1558.29 1614.36 1560.24 1613.94 1562.16 1615.21 1564.08 1617.19 1564.45 1617.43 1564.51 1617.68 1564.53 1617.92 1564.53 1619.6 1564.53 1621.1 1563.34 1621.43 1561.62 1622.31 1557.19 1620.8 1552.69 1617.41 1549.57 1609.53 1542.38 1605.34 1532.13 1605.93 1521.47 1606.95 1503.69 1621.69 1489.1 1639.56 1488.24 1640.18 1488.22 1640.79 1488.2 1641.4 1488.2 1650.52 1488.2 1659.08 1491.65 1665.69 1497.97 1672.78 1504.68 1676.67 1513.77 1676.67 1523.51 1676.67 1524.76 1676.67 1525.3 1686.16 1539.42L1682.11 1539.42C1680.12 1539.42 1678.5 1541.06 1678.5 1543.03L1678.5 1558.66C1678.5 1559.93 1677.59 1560.56 1676.68 1560.62L1661.29 1561.52C1659.37 1561.62 1657.89 1563.2 1657.89 1565.13L1657.89 1580.41C1657.89 1582.38 1659.51 1584 1661.49 1584 1663.47 1584 1665.09 1582.38 1665.09 1580.41L1665.09 1568.52 1677.07 1567.81C1681.97 1567.52 1685.7 1563.59 1685.7 1558.66L1685.7 1546.61 1686.54 1546.61C1689.2 1546.61 1691.59 1545.14 1692.8 1542.75 1694 1540.36 1693.75 1537.55 1692.24 1535.6 1688.79 1530.43 1684.97 1524.57 1683.86 1522.68 1683.65 1511.25 1678.96 1500.65 1670.66 1492.74 1662.66 1485.12 1652.27 1481 1641.22 1481Z" fill="#28B5E8" fill-rule="evenodd"/></g></svg>