<svg width="87" height="84" xmlns="http://www.w3.org/2000/svg" xmlns:xlink="http://www.w3.org/1999/xlink" xml:space="preserve" overflow="hidden"><defs><clipPath id="clip0"><rect x="1317" y="1492" width="87" height="84"/></clipPath></defs><g clip-path="url(#clip0)" transform="translate(-1317 -1492)"><path d="M1339.04 1536.35C1339.83 1537.02 1340.58 1537.72 1341.29 1538.47 1343.98 1541.15 1346.86 1544 1350.49 1544 1354.12 1544 1357.04 1541.05 1359.65 1538.47 1360.37 1537.72 1361.13 1537.01 1361.94 1536.35 1365.07 1533.83 1367.01 1530.12 1367.31 1526.12 1369.01 1524.43 1369.98 1522.15 1370 1519.75L1370 1518.36C1370 1516.34 1369.33 1514.39 1368.09 1512.8 1367.93 1505.25 1366.1 1499.67 1362.58 1496.18 1359.36 1493.22 1355.06 1491.72 1350.7 1492.04L1350.24 1492.04C1345.9 1491.73 1341.61 1493.24 1338.42 1496.2 1334.9 1499.7 1333.04 1505.28 1332.91 1512.83 1331.67 1514.41 1331 1516.37 1331 1518.38L1331 1519.78C1331.01 1522.17 1331.98 1524.46 1333.69 1526.14 1333.97 1530.14 1335.91 1533.84 1339.04 1536.35ZM1336.35 1518.36C1336.34 1517.35 1336.74 1516.39 1337.45 1515.67 1337.96 1515.17 1338.25 1514.48 1338.26 1513.77 1338.26 1507.19 1339.57 1502.54 1342.18 1499.94 1344.29 1498 1347.1 1497.03 1349.95 1497.25L1350.67 1497.25C1353.62 1496.98 1356.55 1497.95 1358.74 1499.94 1361.43 1502.62 1362.66 1507.19 1362.66 1513.77 1362.67 1514.48 1362.96 1515.17 1363.47 1515.67 1364.18 1516.39 1364.57 1517.35 1364.57 1518.36L1364.57 1519.75C1364.57 1520.76 1364.18 1521.73 1363.47 1522.44L1362.8 1523.08C1362.29 1523.59 1362.01 1524.28 1362.02 1524.99 1362.03 1527.77 1360.78 1530.41 1358.6 1532.16 1357.66 1532.95 1356.76 1533.79 1355.92 1534.68 1354.33 1536.27 1351.94 1538.66 1350.54 1538.66 1349.14 1538.66 1346.72 1536.27 1345.16 1534.68 1344.32 1533.79 1343.42 1532.95 1342.48 1532.16 1340.3 1530.41 1339.05 1527.77 1339.06 1524.99 1339.07 1524.28 1338.79 1523.59 1338.28 1523.08L1337.61 1522.44C1336.9 1521.73 1336.51 1520.76 1336.51 1519.75Z" fill="#2AB5E8" fill-rule="evenodd"/><path d="M1342.15 1513C1342.41 1512.99 1342.67 1512.93 1342.9 1512.81 1344.89 1512.05 1346.46 1510.49 1347.23 1508.52 1350.27 1510.89 1353.98 1512.23 1357.84 1512.35 1359.03 1512.35 1360 1511.38 1360 1510.19 1360 1509 1359.03 1508.03 1357.84 1508.03 1353.77 1507.65 1349.99 1505.77 1347.23 1502.76 1346.6 1502.01 1345.54 1501.78 1344.66 1502.22 1343.8 1502.67 1343.32 1503.61 1343.47 1504.57 1343.83 1506.34 1342.92 1508.12 1341.28 1508.87 1340.19 1509.36 1339.7 1510.63 1340.19 1511.72 1340.54 1512.49 1341.3 1512.99 1342.15 1513Z" fill="#2AB5E8" fill-rule="evenodd"/><path d="M1382.34 1551.93C1381.94 1550.91 1380.95 1548.55 1365.27 1544.11 1364.39 1543.85 1363.44 1544.06 1362.75 1544.66L1357 1549.69C1355.85 1550.61 1355.66 1552.29 1356.59 1553.43 1357.52 1554.57 1359.2 1554.76 1360.36 1553.83 1360.42 1553.79 1360.47 1553.73 1360.53 1553.68L1365.19 1549.61C1369.45 1550.74 1373.59 1552.31 1377.52 1554.29 1377.98 1556.04 1378.27 1557.82 1378.41 1559.61 1378.41 1560.41 1378.57 1561.13 1378.65 1561.71 1378.84 1563.03 1379.98 1564.01 1381.32 1564L1381.7 1564C1383.16 1563.79 1384.18 1562.45 1383.97 1560.99 1383.97 1560.46 1383.81 1559.8 1383.73 1559.08 1383.58 1556.64 1383.12 1554.24 1382.34 1551.93Z" fill="#2AB5E8" fill-rule="evenodd"/><path d="M1338.3 1544.66C1337.61 1544.07 1336.67 1543.86 1335.8 1544.1 1320.02 1548.54 1318.94 1550.9 1318.62 1551.91 1317.88 1554.14 1317.44 1556.45 1317.3 1558.79 1317.3 1559.59 1317.11 1560.36 1317.03 1560.97 1316.81 1562.42 1317.8 1563.77 1319.26 1564L1319.69 1564C1321.03 1564.02 1322.17 1563.07 1322.38 1561.77 1322.38 1561.08 1322.57 1560.23 1322.68 1559.32 1322.8 1557.61 1323.08 1555.91 1323.51 1554.25 1327.45 1552.26 1331.6 1550.69 1335.88 1549.57L1340.45 1553.48C1341.52 1554.5 1343.22 1554.46 1344.25 1553.4 1345.28 1552.34 1345.25 1550.66 1344.17 1549.65 1344.12 1549.59 1344.06 1549.54 1344 1549.49Z" fill="#2AB5E8" fill-rule="evenodd"/><path d="M1401.8 1496 1368.2 1496C1366.98 1496 1366 1496.95 1366 1498.12 1366 1499.3 1366.98 1500.25 1368.2 1500.25L1399.6 1500.25 1399.6 1542.75 1383.74 1542.75C1382.52 1542.75 1381.54 1543.7 1381.54 1544.87 1381.54 1546.05 1382.52 1547 1383.74 1547L1401.8 1547C1403.02 1547 1404 1546.05 1404 1544.87L1404 1498.12C1404 1496.95 1403.02 1496 1401.8 1496Z" fill="#2AB5E8" fill-rule="evenodd"/><path d="M1369.95 1536.62C1370.29 1536.86 1370.69 1536.99 1371.11 1537 1371.82 1537 1372.49 1536.63 1372.88 1536.02L1379.36 1526.02 1383.53 1528.3C1384.53 1528.86 1385.77 1528.5 1386.34 1527.49L1395.8 1511.13C1396.3 1510.03 1395.83 1508.71 1394.76 1508.2 1393.84 1507.77 1392.76 1508.05 1392.15 1508.87L1383.75 1523.34 1379.65 1521.11C1378.72 1520.65 1377.6 1520.95 1377 1521.82L1369.47 1533.46C1368.74 1534.38 1368.88 1535.74 1369.77 1536.49 1369.83 1536.53 1369.88 1536.58 1369.95 1536.62Z" fill="#2AB5E8" fill-rule="evenodd"/><path d="M1352.2 1548 1347.88 1548C1346.84 1548 1346 1548.84 1346 1549.87 1346 1549.97 1346.01 1550.06 1346.02 1550.15L1346.75 1554.44C1346.9 1555.34 1347.69 1556 1348.61 1556L1351.42 1556C1352.33 1556 1353.1 1555.33 1353.24 1554.44L1353.97 1550.15C1354.07 1549.62 1353.91 1549.07 1353.55 1548.67 1353.22 1548.26 1352.73 1548.02 1352.2 1548Z" fill="#2AB5E8" fill-rule="evenodd"/><path d="M1350.5 1558C1348.58 1557.99 1347.02 1559.41 1347 1561.19 1347 1561.2 1347 1561.22 1347 1561.24L1347 1572.76C1347 1574.55 1348.57 1576 1350.5 1576 1352.43 1576 1354 1574.55 1354 1572.76L1354 1561.24C1354 1559.45 1352.43 1558 1350.5 1558Z" fill="#2AB5E8" fill-rule="evenodd"/></g></svg>