<svg width="93" height="67" xmlns="http://www.w3.org/2000/svg" xmlns:xlink="http://www.w3.org/1999/xlink" xml:space="preserve" overflow="hidden"><defs><clipPath id="clip0"><rect x="2457" y="1220" width="93" height="67"/></clipPath></defs><g clip-path="url(#clip0)" transform="translate(-2457 -1220)"><path d="M2530.71 1248C2531.98 1248 2533 1248 2533 1248L2533 1259C2533 1259 2531.98 1259 2530.71 1259L2524.29 1259 2524.29 1248C2523.02 1248 2522 1248 2522 1248 2522 1248 2523.02 1248 2524.29 1248Z" fill="#2AB5E8" fill-rule="evenodd"/><path d="M2469.16 1287 2537.84 1287C2544.5 1287 2549.92 1281.64 2550 1274.97L2550 1232.17C2550 1225.45 2544.56 1220 2537.84 1220L2469.16 1220C2462.45 1220 2457 1225.45 2457 1232.17L2457 1274.97C2457.08 1281.64 2462.5 1287 2469.16 1287ZM2464.15 1232.17C2464.15 1229.4 2466.4 1227.16 2469.16 1227.16L2537.84 1227.16C2540.6 1227.16 2542.85 1229.4 2542.85 1232.17L2542.85 1238.87 2464.15 1238.87ZM2464.15 1243.45 2542.85 1243.45 2542.85 1274.97C2542.77 1277.69 2540.55 1279.84 2537.84 1279.84L2469.16 1279.84C2466.45 1279.84 2464.23 1277.69 2464.15 1274.97Z" fill="#2AB5E8" fill-rule="evenodd"/><path d="M2471.59 1231C2470.21 1230.96 2469.05 1231.83 2469 1232.93 2468.95 1234.04 2470.03 1234.96 2471.41 1235 2472.79 1235.04 2473.95 1234.17 2474 1233.07 2474 1233.05 2474 1233.02 2474 1233 2474 1231.92 2472.93 1231.04 2471.59 1231Z" fill="#2AB5E8" fill-rule="evenodd"/><path d="M2479.5 1231C2478.12 1231 2477 1232.12 2477 1233.5 2477 1234.88 2478.12 1236 2479.5 1236 2480.88 1236 2482 1234.88 2482 1233.5 2482 1232.12 2480.88 1231 2479.5 1231Z" fill="#2AB5E8" fill-rule="evenodd"/><path d="M2483.51 1248C2484.88 1248 2486 1248 2486 1248L2486 1259C2486 1259 2484.88 1259 2483.51 1259L2476.5 1259 2476.5 1248C2475.12 1248 2474 1248 2474 1248 2474 1248 2475.12 1248 2476.5 1248Z" fill="#2AB5E8" fill-rule="evenodd"/><path d="M2515.51 1248C2516.88 1248 2518 1248 2518 1248L2518 1259C2518 1259 2516.88 1259 2515.51 1259L2508.5 1259 2508.5 1248C2507.12 1248 2506 1248 2506 1248 2506 1248 2507.12 1248 2508.5 1248Z" fill="#2AB5E8" fill-rule="evenodd"/><path d="M2499.51 1248C2500.88 1248 2502 1248 2502 1248L2502 1259C2502 1259 2500.88 1259 2499.51 1259L2492.5 1259 2492.5 1248C2491.12 1248 2490 1248 2490 1248 2490 1248 2491.12 1248 2492.5 1248Z" fill="#2AB5E8" fill-rule="evenodd"/><path d="M2483.51 1263C2484.88 1263 2486 1263 2486 1263L2486 1275C2486 1275 2484.88 1275 2483.51 1275L2476.5 1275 2476.5 1263C2475.12 1263 2474 1263 2474 1263 2474 1263 2475.12 1263 2476.5 1263Z" fill="#2AB5E8" fill-rule="evenodd"/><path d="M2515.51 1263C2516.88 1263 2518 1263 2518 1263L2518 1275C2518 1275 2516.88 1275 2515.51 1275L2508.5 1275 2508.5 1263C2507.12 1263 2506 1263 2506 1263 2506 1263 2507.12 1263 2508.5 1263Z" fill="#2AB5E8" fill-rule="evenodd"/><path d="M2499.51 1263C2500.88 1263 2502 1263 2502 1263L2502 1275C2502 1275 2500.88 1275 2499.51 1275L2492.5 1275 2492.5 1263C2491.12 1263 2490 1263 2490 1263 2490 1263 2491.12 1263 2492.5 1263Z" fill="#2AB5E8" fill-rule="evenodd"/><path d="M2530.71 1263C2531.98 1263 2533 1263 2533 1263L2533 1275C2533 1275 2531.98 1275 2530.71 1275L2524.29 1275 2524.29 1263C2523.02 1263 2522 1263 2522 1263 2522 1263 2523.02 1263 2524.29 1263Z" fill="#2AB5E8" fill-rule="evenodd"/></g></svg>