<svg width="88" height="110" xmlns="http://www.w3.org/2000/svg" xmlns:xlink="http://www.w3.org/1999/xlink" xml:space="preserve" overflow="hidden"><g transform="translate(-459 -917)"><path d="M512.313 922.465 512.313 930.62 493.723 930.62 493.723 922.465ZM509.818 936.06 509.818 939.531C507.6 939.171 505.333 938.943 503.006 938.943 500.703 938.943 498.46 939.171 496.253 939.531L496.253 936.06ZM514.904 968.391C514.208 968.391 513.501 968.643 512.973 969.172L501.075 981.038C500.559 981.554 500.271 982.263 500.271 982.971L500.271 1004.45C500.271 1005.93 501.483 1007.16 502.982 1007.16 504.481 1007.16 505.705 1005.93 505.705 1004.45L505.705 984.112 516.799 973.063C517.866 971.994 517.902 970.265 516.835 969.196 516.307 968.655 515.612 968.391 514.904 968.391ZM503.006 955.925C517.902 955.925 530.016 968.055 530.016 982.971 530.016 997.888 517.902 1010.02 503.006 1010.02 488.109 1010.02 475.995 997.888 475.995 982.971 475.995 968.067 488.109 955.925 503.006 955.925ZM503.006 952.514C486.238 952.514 472.601 966.193 472.601 982.971 472.601 999.761 486.238 1013.42 503.006 1013.42 519.773 1013.42 533.423 999.761 533.423 982.971 533.423 966.193 519.773 952.514 503.006 952.514ZM503.006 947.41C522.58 947.41 538.52 963.359 538.52 982.971 538.52 1002.57 522.58 1018.53 503.006 1018.53 483.444 1018.53 467.492 1002.6 467.492 982.971 467.492 963.371 483.408 947.41 503.006 947.41ZM491.012 917.012C489.513 917.012 488.289 918.237 488.289 919.714L488.289 933.31C488.289 934.751 489.429 935.892 490.832 935.988L490.832 940.66C472.493 945.968 459.012 962.915 459.012 982.935 459.012 1007.24 478.742 1026.99 503.006 1026.99 527.282 1026.99 546.988 1007.24 546.988 982.935 546.988 962.927 533.543 946.004 515.252 940.672L515.252 935.988C516.631 935.856 517.747 934.739 517.747 933.31L517.747 919.714C517.747 918.237 516.523 917.012 515.024 917.012Z" fill="#2AB5E8" fill-rule="evenodd"/></g></svg>