<svg width="83" height="93" xmlns="http://www.w3.org/2000/svg" xmlns:xlink="http://www.w3.org/1999/xlink" xml:space="preserve" overflow="hidden"><defs><clipPath id="clip0"><rect x="1605" y="367" width="83" height="93"/></clipPath></defs><g clip-path="url(#clip0)" transform="translate(-1605 -367)"><path d="M1678.91 406.284 1674.56 406.284 1674.56 370.722C1674.56 368.668 1672.92 367.002 1670.9 367.002L1626.04 367.002C1624.92 366.962 1623.84 367.457 1623.12 368.341L1605.85 389.173C1605.3 389.853 1605 390.704 1605 391.583L1605 456.28C1604.98 458.318 1606.59 459.983 1608.59 460 1608.61 460 1608.63 460 1608.65 460L1670.9 460C1672.9 460.016 1674.54 458.378 1674.56 456.34 1674.56 456.32 1674.56 456.3 1674.56 456.28L1674.56 445.567 1678.91 445.567C1683.71 445.752 1687.76 441.97 1688 437.085L1688 414.766C1687.76 409.881 1683.71 406.099 1678.91 406.284ZM1623.38 379.68 1623.38 389.322 1615.38 389.322ZM1667.22 452.56 1612.45 452.56 1612.45 396.762 1627.07 396.762C1629.07 396.778 1630.7 395.139 1630.72 393.102 1630.72 393.082 1630.72 393.062 1630.72 393.042L1630.72 374.442 1667.25 374.442 1667.25 406.284 1625.95 406.284C1621.15 406.099 1617.1 409.881 1616.87 414.766L1616.87 437.085C1617.1 441.97 1621.15 445.752 1625.95 445.567L1667.25 445.567ZM1683.3 437.085C1683.08 439.35 1681.11 441.012 1678.88 440.805L1625.95 440.805C1623.73 441.012 1621.76 439.35 1621.54 437.085L1621.54 414.766C1621.76 412.501 1623.73 410.839 1625.95 411.046L1678.91 411.046C1681.14 410.839 1683.11 412.501 1683.32 414.766Z" fill="#2AB5E8" fill-rule="evenodd"/><path d="M1624 420.633 1628.63 420.633 1628.63 436 1631.36 436 1631.36 420.633 1636 420.633 1636 418 1624 418 1624 420.633Z" fill="#2AB5E8" fill-rule="evenodd"/><path d="M1641.01 418 1638 418 1638 436 1649 436 1649 433.366 1641.01 433.366 1641.01 418Z" fill="#2AB5E8" fill-rule="evenodd"/><path d="M1655.97 418C1651.42 418.167 1647.87 422.016 1648.04 426.597 1648.04 426.718 1648.05 426.838 1648.06 426.958 1647.52 431.377 1650.64 435.399 1655.03 435.939 1659.41 436.481 1663.4 433.336 1663.94 428.917 1664.02 428.266 1664.02 427.609 1663.94 426.958 1664.29 422.37 1660.88 418.368 1656.32 418.019 1656.21 418.01 1656.09 418.004 1655.97 418ZM1655.97 433.377C1653.01 433.377 1650.99 430.631 1650.99 427.077 1650.99 423.524 1653.01 420.747 1655.97 420.747 1658.93 420.747 1661.01 423.494 1661.01 427.077 1661.4 430.153 1659.24 432.963 1656.18 433.354 1656.11 433.364 1656.04 433.371 1655.97 433.377Z" fill="#2AB5E8" fill-rule="evenodd"/><path d="M1672.49 428.415 1676.99 428.415 1676.99 428.655C1676.99 431.653 1675.38 433.482 1672.84 433.482 1670.29 433.482 1667.95 430.694 1667.95 427.126 1667.95 423.559 1669.91 420.741 1672.9 420.741 1674.37 420.728 1675.78 421.347 1676.78 422.45L1678.48 420.261C1677.04 418.708 1675.01 417.885 1672.92 418.013 1668.45 418.113 1664.91 421.911 1665.01 426.496 1665.01 426.667 1665.02 426.836 1665.03 427.006 1664.64 431.558 1667.93 435.572 1672.36 435.972 1672.52 435.986 1672.68 435.995 1672.84 436 1677.31 436 1680 432.612 1680 427.456L1680 425.747 1672.49 425.747Z" fill="#2AB5E8" fill-rule="evenodd"/></g></svg>