<svg width="86" height="87" xmlns="http://www.w3.org/2000/svg" xmlns:xlink="http://www.w3.org/1999/xlink" xml:space="preserve" overflow="hidden"><defs><clipPath id="clip0"><rect x="1889" y="660" width="86" height="87"/></clipPath></defs><g clip-path="url(#clip0)" transform="translate(-1889 -660)"><path d="M45.8505 32.8844C50.672 20.5342 44.6923 6.56515 32.495 1.68362 26.7468-0.616965 20.3395-0.557771 14.6341 1.84854 13.6074 2.27467 12.8608 3.19437 12.6461 4.29637 12.4518 5.39307 12.7918 6.51744 13.5594 7.31582L23.6067 17.4614C24.4371 18.3069 24.901 19.4519 24.8964 20.644 24.906 23.1228 22.9293 25.1401 20.4812 25.1498 19.2954 25.1548 18.1567 24.678 17.3205 23.8263L7.27314 13.6533C5.97592 12.3537 3.8838 12.3649 2.60025 13.6784 2.30154 13.984 2.06391 14.3448 1.90016 14.7415-3.22355 26.917 2.37106 40.993 14.3962 46.1811 20.1857 48.6784 26.7192 48.7387 32.5526 46.3486L69.9479 84.2117C73.6202 87.9297 79.5738 87.9297 83.2458 84.2117 86.9182 80.4937 86.9182 74.4654 83.2458 70.7474ZM31.7466 39.4124C23.3217 43.8148 12.9672 40.4682 8.61922 31.9379 7.14923 29.0539 6.50615 25.8103 6.76269 22.5753L12.6461 28.532C16.9694 32.8638 23.931 32.8638 28.2543 28.532 32.5718 24.1933 32.5979 17.1322 28.3128 12.7607 28.2933 12.7407 28.2738 12.721 28.2543 12.7015L22.3709 6.77159C27.3605 6.33515 32.2835 8.16926 35.8032 11.7765 41.1625 17.0804 42.4609 25.3109 39 32.0409 38.1946 33.6015 37.1522 35.0242 35.9108 36.2572 34.684 37.5112 33.2806 38.5743 31.7466 39.4124ZM78.5715 79.4786C77.4633 80.5394 75.7307 80.5394 74.6225 79.4786L38.4898 42.8939C39.2103 42.3043 39.9008 41.678 40.5584 41.0171 41.2204 40.343 41.848 39.6345 42.4388 38.8956L78.5715 75.4802C79.6468 76.5908 79.6468 78.3681 78.5715 79.4786Z" fill="#2AB5E8" fill-rule="evenodd" transform="matrix(-1 0 0 1 1975 660)"/></g></svg>