<svg width="90" height="93" xmlns="http://www.w3.org/2000/svg" xmlns:xlink="http://www.w3.org/1999/xlink" xml:space="preserve" overflow="hidden"><defs><clipPath id="clip0"><rect x="2745" y="644" width="90" height="93"/></clipPath></defs><g clip-path="url(#clip0)" transform="translate(-2745 -644)"><path d="M2781.61 728C2784.91 728 2788.28 728 2788.48 728 2790.11 727.951 2791.4 726.571 2791.35 724.919 2791.3 723.267 2789.94 721.967 2788.31 722.017 2788.31 722.017 2781.72 722.227 2778.06 722.017 2761.24 721.419 2750.9 716.034 2750.9 712.205L2750.9 703.739C2757.04 707.748 2767.11 709.991 2776.7 710.44L2786.65 710.979 2786.8 710.979C2788.38 710.981 2789.67 709.73 2789.75 708.137 2789.84 706.495 2788.6 705.092 2786.98 704.996L2777 704.427C2760.17 703.679 2750.9 698.295 2750.9 694.735L2750.9 686.329C2757.75 690.846 2769.59 693.239 2780.99 693.239 2792.38 693.239 2804.25 690.846 2811.1 686.329L2811.1 687.825C2811.1 689.477 2812.42 690.816 2814.05 690.816 2815.68 690.816 2817 689.477 2817 687.825L2817 677.354 2817 677.354 2817 659.855 2817 659.855C2817 649.564 2798.46 644 2780.99 644 2763.51 644 2745.03 649.534 2745 659.825L2745 659.825 2745 712.175C2745 722.256 2762.03 727.402 2777.89 727.94 2778.98 728 2780.28 728 2781.61 728ZM2780.99 649.953C2799.35 649.953 2811.07 655.936 2811.1 659.825L2811.1 659.825C2811.1 663.833 2799.29 669.667 2780.99 669.667 2762.68 669.667 2750.9 663.863 2750.9 659.825 2750.9 655.786 2762.62 649.953 2780.99 649.953ZM2750.9 668.799C2757.75 673.286 2769.59 675.679 2780.99 675.679 2792.38 675.679 2804.25 673.316 2811.1 668.799L2811.1 677.354C2811.1 681.363 2799.29 687.197 2780.99 687.197 2762.68 687.197 2750.9 681.333 2750.9 677.354L2750.9 677.354Z" fill="#2AB5E8" fill-rule="evenodd"/><path d="M2830.08 706.149C2828.51 706.653 2827.65 708.342 2828.15 709.922 2828.17 709.976 2828.18 710.029 2828.2 710.082 2828.77 711.703 2829.05 713.409 2829.04 715.126 2829.04 719.001 2827.63 722.742 2825.08 725.635 2820.13 731.275 2811.93 732.619 2805.47 728.847L2806.96 728.847C2808.28 728.847 2809.34 727.772 2809.34 726.445 2809.34 725.119 2808.28 724.043 2806.96 724.043L2799.39 724.043C2798.08 724.043 2797.01 725.119 2797.01 726.445 2797 726.515 2797 726.586 2797.01 726.655 2797 726.735 2797 726.816 2797.01 726.896L2797.01 734.492C2797.01 735.818 2798.08 736.894 2799.39 736.894 2800.71 736.894 2801.78 735.818 2801.78 734.492L2801.78 733.651C2811.92 740.07 2825.31 736.986 2831.68 726.762 2835.14 721.206 2835.94 714.377 2833.86 708.16 2833.4 706.569 2831.75 705.656 2830.17 706.122 2830.14 706.13 2830.11 706.139 2830.08 706.149Z" fill="#2AB5E8" fill-rule="evenodd"/><path d="M2829 695.501C2829 694.176 2827.93 693.101 2826.6 693.101 2825.27 693.101 2824.2 694.176 2824.2 695.501L2824.2 696.161C2813.86 689.909 2800.41 693.218 2794.16 703.552 2790.81 709.092 2790.08 715.833 2792.18 721.959 2792.59 723.181 2793.74 724.003 2795.03 723.999 2795.36 724.008 2795.68 723.957 2795.99 723.849 2797.55 723.322 2798.4 721.635 2797.88 720.069 2797.34 718.444 2797.07 716.742 2797.07 715.03 2797.01 706.332 2804.01 699.23 2812.71 699.167 2815.55 699.147 2818.33 699.891 2820.78 701.321L2818.98 701.321C2817.65 701.321 2816.58 702.395 2816.58 703.72 2816.58 705.046 2817.65 706.12 2818.98 706.12L2826.6 706.12C2827.93 706.12 2829 705.046 2829 703.72 2829 703.72 2829 703.57 2829 703.48 2829 703.391 2829 703.33 2829 703.27Z" fill="#2AB5E8" fill-rule="evenodd"/></g></svg>