<svg width="109" height="103" xmlns="http://www.w3.org/2000/svg" xmlns:xlink="http://www.w3.org/1999/xlink" xml:space="preserve" overflow="hidden"><defs><clipPath id="clip0"><rect x="734" y="356" width="109" height="103"/></clipPath></defs><g clip-path="url(#clip0)" transform="translate(-734 -356)"><path d="M775 397.5C775 396.603 774.291 396 773.214 396L749.786 396C748.718 396 748 396.595 748 397.5 748 398.405 748.709 399 749.786 399L773.573 399C774.282 399 775 398.405 775 397.5Z" fill="#28B5E8" fill-rule="evenodd"/><path d="M749.753 417C748.705 417 748 417.794 748 419 748 420.206 748.696 421 749.753 421L768.247 421C769.295 421 770 420.206 770 419 770 417.794 769.304 417 768.247 417L749.753 417Z" fill="#28B5E8" fill-rule="evenodd"/><path d="M749.753 407C748.705 407 748 407.595 748 408.5 748 409.405 748.696 410 749.753 410L768.247 410C769.295 410 770 409.405 770 408.5 770 407.595 769.304 407 768.247 407L749.753 407Z" fill="#28B5E8" fill-rule="evenodd"/><path d="M734 359.885 734 438.124C734 440.235 735.754 442 737.853 442L769.813 442C769.813 442 774.019 442 774.019 438.124 774.019 434.249 769.813 434.249 769.813 434.249L741.877 434.249 741.877 379.618 829.114 379.618 829.114 388.861C829.114 388.861 829.286 392.382 833.147 392.382 836.647 392.382 837 388.861 837 388.861L837 359.876C837 357.765 835.246 356 833.147 356L737.853 356C735.754 356 734 357.765 734 359.876ZM741.886 363.76 829.123 363.76 829.123 375.041 741.877 375.041 741.877 363.76Z" fill="#28B5E8" fill-rule="evenodd"/><path d="M841.406 448.725 828.548 433.989C832.436 428.951 834.751 422.658 834.751 415.823 834.751 399.381 821.351 386 804.876 386 788.401 386 775 399.381 775 415.823 775 432.265 788.401 445.655 804.876 445.655 809.867 445.655 814.569 444.418 818.701 442.251L831.604 457.041C832.581 458.512 834.055 459 836.008 459L836.496 459C837.961 459 839.435 458.512 840.9 457.537 843.35 455.09 843.839 451.181 841.388 448.734ZM778.988 415.823C778.988 401.566 790.607 389.973 804.876 389.973 819.144 389.973 830.763 401.566 830.763 415.823 830.763 430.08 819.144 441.673 804.876 441.673 790.607 441.673 778.988 430.071 778.988 415.823Z" fill="#28B5E8" fill-rule="evenodd"/><path d="M751 369.5C751 370.881 749.881 372 748.5 372 747.119 372 746 370.881 746 369.5 746 368.119 747.119 367 748.5 367 749.881 367 751 368.119 751 369.5Z" fill="#28B5E8" fill-rule="evenodd"/><path d="M759 369.5C759 370.881 758.105 372 757 372 755.895 372 755 370.881 755 369.5 755 368.119 755.895 367 757 367 758.105 367 759 368.119 759 369.5Z" fill="#28B5E8" fill-rule="evenodd"/><path d="M768 369.5C768 370.881 767.105 372 766 372 764.896 372 764 370.881 764 369.5 764 368.119 764.896 367 766 367 767.105 367 768 368.119 768 369.5Z" fill="#28B5E8" fill-rule="evenodd"/><path d="M823.427 422.746 823.427 412.445C824.355 411.994 825 411.055 825 409.962 825 408.87 824.355 407.931 823.427 407.48L823.427 403.562 804.736 403.562C804.282 402.641 803.336 402 802.236 402 801.136 402 800.191 402.641 799.736 403.562L789.291 403.562C788.836 402.641 787.891 402 786.791 402 785.255 402 784 403.246 784 404.771 784 405.828 784.609 406.739 785.491 407.209L785.491 422.71C784.609 423.179 784 424.091 784 425.147 784 426.673 785.255 427.919 786.791 427.919 787.855 427.919 788.773 427.314 789.246 426.438L819.709 426.438C820.164 427.359 821.109 428 822.209 428 823.745 428 825 426.754 825 425.228 825 424.136 824.355 423.197 823.427 422.746ZM786.8 426.709C785.937 426.709 785.227 426.005 785.227 425.147 785.227 424.29 785.937 423.585 786.8 423.585 787.664 423.585 788.373 424.29 788.373 425.147 788.373 426.005 787.664 426.709 786.8 426.709ZM786.8 403.21C787.664 403.21 788.373 403.914 788.373 404.771 788.373 405.629 787.664 406.333 786.8 406.333 785.937 406.333 785.227 405.629 785.227 404.771 785.227 403.914 785.937 403.21 786.8 403.21ZM802.246 403.21C803.109 403.21 803.818 403.914 803.818 404.771 803.818 405.629 803.109 406.333 802.246 406.333 801.382 406.333 800.673 405.629 800.673 404.771 800.673 403.914 801.382 403.21 802.246 403.21ZM800.246 406.703 796.191 412.86C795.991 412.797 795.782 412.752 795.555 412.752 795.246 412.752 794.964 412.815 794.7 412.924L789.164 406.216C789.209 406.135 789.255 406.053 789.3 405.972L799.746 405.972C799.873 406.234 800.046 406.487 800.246 406.694ZM788.309 407.101 793.764 413.709C793.518 414.061 793.382 414.476 793.382 414.937 793.382 415.397 793.518 415.785 793.746 416.128L788.1 422.71C788.046 422.683 788 422.656 787.946 422.628L787.946 407.308C788.073 407.254 788.2 407.182 788.318 407.11ZM794.664 416.905C794.936 417.031 795.237 417.103 795.564 417.103 796.336 417.103 797.018 416.697 797.4 416.092L805.3 418.358C801.827 419.306 794.718 421.283 789.591 422.827L794.664 416.905ZM797.746 414.928C797.746 414.386 797.536 413.908 797.218 413.528L801.273 407.362C801.582 407.48 801.9 407.543 802.246 407.543 803.018 407.543 803.727 407.227 804.227 406.712L808.509 409.376C808.455 409.565 808.418 409.755 808.418 409.962 808.418 410.685 808.773 411.317 809.318 411.705L807.682 416.183C807.636 416.183 807.582 416.165 807.536 416.165 806.755 416.165 806.073 416.58 805.682 417.194L797.736 414.91ZM810.473 412.12C810.518 412.12 810.564 412.138 810.609 412.138 811.6 412.138 812.427 411.479 812.691 410.576L819.5 410.576C819.518 410.648 819.546 410.721 819.564 410.793L809.064 416.805C808.991 416.733 808.909 416.67 808.827 416.616L810.464 412.129ZM823.791 409.962C823.791 410.82 823.082 411.524 822.218 411.524 821.355 411.524 820.646 410.82 820.646 409.962 820.646 409.105 821.355 408.401 822.218 408.401 823.082 408.401 823.791 409.105 823.791 409.962ZM821 405.981 821 407.48C820.245 407.841 819.682 408.527 819.5 409.358L812.691 409.358C812.427 408.455 811.6 407.796 810.609 407.796 810.055 407.796 809.546 408.012 809.164 408.355L805.346 405.981 821 405.981ZM819.718 424.019 789.8 424.019C794.955 422.466 802.227 420.453 805.7 419.496 806.091 420.101 806.764 420.507 807.536 420.507 808.227 420.507 808.827 420.182 809.236 419.685L819.791 423.874C819.764 423.919 819.736 423.965 819.709 424.019ZM820.673 422.926 809.7 418.584C809.7 418.503 809.727 418.43 809.727 418.349 809.727 418.178 809.7 418.006 809.664 417.844L820.173 411.84C820.409 412.093 820.691 412.301 821.009 412.454L821.009 422.755C820.9 422.809 820.782 422.863 820.682 422.935Z" fill="#28B5E8" fill-rule="evenodd"/></g></svg>