<svg width="69" height="72" xmlns="http://www.w3.org/2000/svg" xmlns:xlink="http://www.w3.org/1999/xlink" xml:space="preserve" overflow="hidden"><defs><clipPath id="clip0"><rect x="182" y="1498" width="69" height="72"/></clipPath></defs><g clip-path="url(#clip0)" transform="translate(-182 -1498)"><path d="M204.234 1543.23C205.045 1543.94 205.811 1544.7 206.528 1545.5 209.257 1548 212.284 1551 216 1551 219.716 1551 222.766 1548 225.427 1545.39 226.144 1544.58 226.91 1543.82 227.72 1543.11 230.94 1540.59 232.978 1536.87 233.363 1532.82 235.062 1531.07 236.008 1528.74 236 1526.32L236 1524.91C236.007 1522.85 235.321 1520.85 234.051 1519.22 233.89 1511.54 232.009 1505.86 228.408 1502.29 225.115 1499.27 220.707 1497.73 216.23 1498.04L215.771 1498.04C211.324 1497.73 206.946 1499.26 203.684 1502.27 200.014 1505.84 198.11 1511.52 197.95 1519.18 196.679 1520.8 195.993 1522.8 196 1524.86L196 1526.27C195.994 1528.71 196.948 1531.06 198.66 1532.82 198.984 1536.9 201.002 1540.67 204.234 1543.23ZM201.574 1524.88C201.582 1523.88 201.985 1522.92 202.697 1522.2 203.223 1521.68 203.52 1520.98 203.523 1520.25 203.523 1513.56 204.876 1508.88 207.537 1506.2 209.713 1504.28 212.59 1503.33 215.495 1503.56L216.252 1503.56C219.24 1503.27 222.217 1504.23 224.463 1506.2 227.124 1508.84 228.477 1513.56 228.477 1520.25 228.48 1520.98 228.777 1521.68 229.303 1522.2 230.02 1522.91 230.423 1523.88 230.427 1524.88L230.427 1526.29C230.428 1527.3 230.024 1528.27 229.303 1528.98L228.638 1529.63C228.112 1530.15 227.815 1530.86 227.812 1531.59 227.825 1534.41 226.542 1537.09 224.326 1538.86 223.328 1539.66 222.386 1540.53 221.505 1541.45 219.876 1543.05 217.422 1545.45 216 1545.45 214.578 1545.45 212.124 1543.05 210.564 1541.45 209.683 1540.53 208.741 1539.66 207.743 1538.86 205.527 1537.09 204.244 1534.41 204.257 1531.59 204.254 1530.86 203.957 1530.15 203.431 1529.63L202.766 1528.98C202.05 1528.26 201.646 1527.3 201.642 1526.29Z" fill="#2AB5E8" fill-rule="evenodd"/><path d="M206.548 1520C206.791 1520 207.031 1519.95 207.249 1519.84 209.87 1518.76 211.809 1516.46 212.454 1513.68 216.303 1517.02 221.16 1518.95 226.235 1519.16 227.21 1519.16 228 1518.36 228 1517.38 228 1516.39 227.21 1515.59 226.235 1515.59 218.383 1515.59 212.273 1508.75 212.228 1508.61 211.575 1507.86 210.445 1507.79 209.704 1508.45 209.206 1508.89 208.992 1509.58 209.15 1510.23 209.684 1512.9 208.312 1515.59 205.846 1516.71 205.014 1517.23 204.751 1518.32 205.258 1519.16 205.538 1519.62 206.013 1519.93 206.548 1520Z" fill="#2AB5E8" fill-rule="evenodd"/><path d="M184.372 1569.96 184.809 1569.96C186.166 1569.97 187.333 1569.04 187.568 1567.76 187.683 1567.05 187.775 1566.22 187.867 1565.32 188.013 1563.62 188.297 1561.94 188.718 1560.29 192.817 1558.32 197.117 1556.77 201.55 1555.65L214.635 1566.64C215.132 1567.05 215.77 1567.28 216.429 1567.27L216.751 1567.27C217.426 1567.29 218.083 1567.06 218.591 1566.64L231.675 1555.65C236.069 1556.76 240.331 1558.31 244.393 1560.26 244.821 1562.02 245.105 1563.81 245.244 1565.6 245.244 1566.4 245.405 1567.12 245.497 1567.8 245.732 1569.08 246.899 1570.01 248.256 1570L248.67 1570C250.171 1569.75 251.192 1568.41 250.97 1566.97 250.97 1566.44 250.809 1565.8 250.74 1565.08 250.589 1562.65 250.11 1560.25 249.314 1557.93 248.877 1556.92 247.865 1554.57 231.653 1550.15 230.738 1549.89 229.748 1550.1 229.031 1550.7L216.498 1561.19 203.965 1550.66C203.247 1550.06 202.258 1549.85 201.343 1550.11 185.246 1554.5 184.119 1556.88 183.682 1557.89 182.917 1560.1 182.453 1562.4 182.302 1564.73 182.302 1565.54 182.141 1566.29 182.026 1566.92 181.819 1568.37 182.859 1569.72 184.372 1569.96Z" fill="#2AB5E8" fill-rule="evenodd"/></g></svg>