<svg width="117" height="70" xmlns="http://www.w3.org/2000/svg" xmlns:xlink="http://www.w3.org/1999/xlink" xml:space="preserve" overflow="hidden"><defs><clipPath id="clip0"><rect x="730" y="1499" width="117" height="70"/></clipPath></defs><g clip-path="url(#clip0)" transform="translate(-730 -1499)"><path d="M752.031 1543.32C752.805 1544.01 753.543 1544.75 754.243 1545.52 756.853 1548.09 759.817 1551 763.423 1551 767.029 1551 770.059 1548.09 772.603 1545.5 773.302 1544.72 774.04 1543.99 774.815 1543.29 778.003 1540.83 780.022 1537.17 780.39 1533.17 782.067 1531.47 783.005 1529.18 783 1526.8L783 1525.42C782.995 1523.41 782.327 1521.46 781.098 1519.87 780.943 1512.32 779.085 1506.66 775.567 1503.27 772.375 1500.28 768.081 1498.75 763.71 1499.04L763.268 1499.04C758.9 1498.73 754.598 1500.24 751.389 1503.2 747.894 1506.75 746.058 1512.25 745.903 1519.8 744.665 1521.39 743.995 1523.34 744.001 1525.35L744.001 1526.74C743.97 1529.14 744.902 1531.45 746.589 1533.17 746.912 1537.15 748.883 1540.83 752.031 1543.32ZM749.332 1525.35C749.328 1524.35 749.727 1523.39 750.438 1522.69 750.939 1522.18 751.217 1521.5 751.212 1520.79 751.212 1514.19 752.561 1509.56 755.172 1506.94 757.309 1505.05 760.13 1504.11 762.98 1504.35L763.733 1504.35C766.671 1504.05 769.599 1504.99 771.807 1506.94 774.439 1509.56 775.722 1514.21 775.722 1520.79 775.727 1521.5 776.004 1522.18 776.496 1522.69 777.222 1523.38 777.63 1524.35 777.625 1525.35L777.625 1526.74C777.631 1527.75 777.223 1528.72 776.496 1529.42L775.855 1530.08C775.345 1530.57 775.058 1531.25 775.059 1531.96 775.073 1534.74 773.81 1537.38 771.63 1539.13 770.723 1539.84 769.838 1540.74 768.865 1541.66 767.272 1543.25 764.861 1545.63 763.445 1545.63 762.029 1545.63 759.618 1543.25 758.025 1541.66 757.149 1540.77 756.226 1539.93 755.26 1539.13 753.08 1537.38 751.818 1534.74 751.831 1531.96 751.831 1531.25 751.552 1530.58 751.057 1530.08L750.394 1529.42C749.681 1528.71 749.283 1527.74 749.288 1526.74Z" fill="#2AB5E8" fill-rule="evenodd"/><path d="M753.5 1520C753.737 1520 753.972 1519.96 754.193 1519.87 756.82 1518.86 758.752 1516.7 759.372 1514.1 763.249 1517.25 768.157 1519.05 773.281 1519.23 774.231 1519.23 775 1518.51 775 1517.62 775 1516.73 774.231 1516.01 773.281 1516.01 765.4 1516.01 759.283 1509.57 759.238 1509.5 758.707 1508.98 757.866 1508.85 757.184 1509.19 756.477 1509.5 756.089 1510.23 756.247 1510.95 756.747 1513.44 755.365 1515.94 752.898 1516.99 752.064 1517.41 751.756 1518.39 752.21 1519.17 752.473 1519.63 752.954 1519.93 753.5 1520Z" fill="#2AB5E8" fill-rule="evenodd"/><path d="M782.46 1506.66C783.968 1505.56 785.856 1505.07 787.73 1505.28L788.726 1505.28C791.625 1504.99 794.517 1505.9 796.689 1507.77 799.336 1510.25 800.557 1514.68 800.557 1520.97 800.555 1521.68 800.849 1522.35 801.372 1522.84 802.066 1523.51 802.457 1524.41 802.457 1525.35L802.457 1526.67C802.461 1527.62 802.07 1528.53 801.372 1529.2L800.716 1529.83C800.209 1530.32 799.925 1530.99 799.924 1531.68 799.936 1534.33 798.686 1536.85 796.531 1538.51 795.572 1539.27 794.658 1540.07 793.793 1540.93 792.232 1542.43 789.857 1544.71 788.477 1544.71 787.097 1544.71 786.215 1543.76 784.79 1542.17 783.969 1541.29 783.084 1540.48 782.143 1539.73 780.846 1538.98 779.165 1539.39 778.388 1540.64 777.728 1541.7 777.925 1543.06 778.863 1543.91 779.592 1544.49 780.273 1545.12 780.899 1545.8 782.693 1548.21 785.496 1549.75 788.567 1550 792.187 1550 795.128 1547.19 797.73 1544.71 798.446 1543.99 799.201 1543.31 799.992 1542.67 803.139 1540.26 805.106 1536.71 805.421 1532.85 807.075 1531.21 807.999 1529.01 808 1526.72L808 1525.39C808.019 1523.43 807.349 1521.52 806.1 1519.97 805.941 1512.73 804.109 1507.37 800.625 1504.02 797.411 1501.2 793.137 1499.76 788.794 1500.04L787.934 1500.04C784.875 1499.8 781.829 1500.64 779.36 1502.39 778.111 1503.23 777.807 1504.89 778.682 1506.09 779.556 1507.29 781.278 1507.58 782.528 1506.74Z" fill="#2AB5E8" fill-rule="evenodd"/><path d="M800 1518.22C800.012 1517.28 799.299 1516.49 798.392 1516.46 790.882 1516.46 785.045 1509.6 784.979 1509.6 784.363 1508.87 783.291 1508.8 782.586 1509.43 782.583 1509.44 782.581 1509.44 782.578 1509.44 781.879 1510.07 781.803 1511.17 782.409 1511.89 782.414 1511.9 782.419 1511.9 782.424 1511.91 782.688 1512.25 789.296 1520 798.392 1520 799.303 1519.95 800.013 1519.16 800 1518.22Z" fill="#2AB5E8" fill-rule="evenodd"/><path d="M816.427 1563.53C816.427 1564.31 816.584 1565.04 816.673 1565.61 816.901 1566.89 818.022 1567.82 819.333 1567.83L819.735 1567.83C821.191 1567.59 822.185 1566.24 821.971 1564.79 821.971 1564.28 821.814 1563.64 821.747 1562.93 821.599 1560.52 821.141 1558.14 820.384 1555.85 819.981 1554.85 818.998 1552.5 803.485 1548.1 802.668 1547.88 801.794 1548.04 801.115 1548.54L796.131 1552.22C795.019 1553.06 794.756 1554.62 795.527 1555.78 794.342 1554.47 790.833 1552.28 778.785 1548.87 777.902 1548.62 776.953 1548.83 776.259 1549.43L763.942 1560.21 751.558 1549.43C750.864 1548.83 749.915 1548.62 749.032 1548.87 733.072 1553.3 732.089 1555.78 731.664 1556.8 730.913 1559.05 730.455 1561.39 730.301 1563.75 730.301 1564.59 730.144 1565.35 730.032 1565.97 729.805 1567.42 730.805 1568.77 732.268 1569L732.693 1569C734.001 1568.99 735.117 1568.06 735.352 1566.79 735.352 1566.08 735.554 1565.24 735.643 1564.31 735.785 1562.55 736.077 1560.81 736.515 1559.1 740.561 1557.1 744.809 1555.53 749.189 1554.41L762.042 1565.74C762.533 1566.15 763.149 1566.36 763.785 1566.36L764.099 1566.36C764.736 1566.37 765.355 1566.15 765.842 1565.74L778.785 1554.47C783.133 1555.57 787.351 1557.12 791.369 1559.1 791.839 1560.89 792.138 1562.72 792.264 1564.57 792.264 1565.39 792.442 1566.14 792.532 1566.79 792.751 1568.07 793.877 1569.01 795.192 1569L795.572 1569C797.027 1568.76 798.022 1567.41 797.807 1565.97 797.807 1565.43 797.673 1564.75 797.584 1564.02 797.442 1561.59 796.991 1559.2 796.242 1556.89 796.141 1556.65 796.021 1556.42 795.885 1556.2 796.792 1557.24 798.354 1557.4 799.461 1556.58L803.328 1553.7C807.558 1554.78 811.663 1556.3 815.578 1558.22 816.015 1559.96 816.299 1561.74 816.427 1563.53Z" fill="#2AB5E8" fill-rule="evenodd"/><path d="M808.597 1507.65C810.019 1506.6 811.792 1506.12 813.557 1506.31L814.51 1506.31C817.239 1506.04 819.962 1506.9 822.016 1508.71 824.452 1511.12 825.692 1515.45 825.692 1521.6 825.693 1522.3 825.972 1522.97 826.468 1523.47 827.127 1524.1 827.495 1524.97 827.486 1525.88L827.486 1527.18C827.492 1528.08 827.123 1528.95 826.468 1529.57L825.847 1530.19C825.356 1530.69 825.078 1531.36 825.072 1532.06 825.08 1534.61 823.914 1537.04 821.906 1538.64 820.985 1539.39 820.112 1540.19 819.293 1541.04 817.809 1542.49 815.55 1544.71 814.288 1544.71 813.026 1544.71 812.273 1543.76 810.834 1542.25 810.071 1541.38 809.234 1540.58 808.331 1539.85 807.166 1538.95 805.49 1539.15 804.567 1540.29 803.661 1541.44 803.863 1543.09 805.017 1543.99 805.022 1544 805.027 1544 805.032 1544 805.705 1544.59 806.341 1545.21 806.936 1545.87 808.667 1548.24 811.35 1549.75 814.288 1550 817.765 1550 820.577 1547.23 823.146 1544.79 823.846 1544.1 824.586 1543.44 825.36 1542.82 828.364 1540.45 830.24 1536.95 830.542 1533.15 832.126 1531.55 833.009 1529.38 833 1527.14L833 1525.84C832.999 1523.93 832.369 1522.07 831.206 1520.55 830.874 1513.54 829.103 1508.27 825.781 1504.97 822.658 1502.15 818.501 1500.73 814.288 1501.04L813.69 1501.04C810.767 1500.83 807.862 1501.65 805.497 1503.37 804.274 1504.22 803.976 1505.89 804.833 1507.1 805.689 1508.32 807.374 1508.61 808.597 1507.76Z" fill="#2AB5E8" fill-rule="evenodd"/><path d="M825 1518.36C824.988 1517.46 824.208 1516.73 823.25 1516.73 815.846 1516.73 810.102 1510.62 810.035 1510.56 809.418 1509.88 808.341 1509.81 807.629 1510.39 807.623 1510.4 807.617 1510.4 807.612 1510.41 806.895 1510.97 806.794 1511.97 807.385 1512.65 807.401 1512.67 807.416 1512.68 807.432 1512.7 807.701 1513 814.163 1519.99 823.138 1519.99 824.089 1520.07 824.92 1519.39 824.995 1518.49 824.998 1518.45 825 1518.41 825 1518.36Z" fill="#2AB5E8" fill-rule="evenodd"/><path d="M826.569 1548.6 822.11 1552.18C820.905 1553.04 820.64 1554.68 821.517 1555.85 822.394 1557.02 824.081 1557.28 825.286 1556.43 825.368 1556.37 825.447 1556.31 825.521 1556.24L828.933 1553.53C832.976 1554.58 836.898 1556.04 840.639 1557.87 841.052 1559.5 841.328 1561.16 841.464 1562.83 841.464 1563.59 841.62 1564.27 841.687 1564.83 841.914 1566.08 843.032 1567 844.34 1567L844.741 1567C846.193 1566.77 847.185 1565.44 846.971 1564.03 846.971 1563.53 846.837 1562.92 846.748 1562.23 846.609 1559.93 846.167 1557.67 845.433 1555.48 845.031 1554.53 844.073 1552.29 829.022 1548.1 828.17 1547.86 827.25 1548.05 826.569 1548.6Z" fill="#2AB5E8" fill-rule="evenodd"/></g></svg>