<svg width="105" height="71" xmlns="http://www.w3.org/2000/svg" xmlns:xlink="http://www.w3.org/1999/xlink" xml:space="preserve" overflow="hidden"><g transform="translate(-1022 -1499)"><path d="M1088.52 1510.93C1088.37 1510.93 1088.2 1510.96 1088.05 1511.04 1087.58 1511.28 1087.33 1511.74 1087.43 1512.26 1087.48 1512.46 1088.31 1517.18 1083.92 1519.09 1083.35 1519.34 1083.09 1520 1083.33 1520.58 1083.51 1521 1083.92 1521.25 1084.36 1521.25 1084.5 1521.25 1084.64 1521.24 1084.79 1521.17 1088.05 1519.74 1089.33 1517.03 1089.67 1514.7 1092.27 1516.99 1097.23 1520.44 1103.33 1520.44 1103.95 1520.44 1104.44 1519.93 1104.44 1519.33 1104.44 1518.73 1103.95 1518.21 1103.33 1518.21 1095.49 1518.21 1089.43 1511.38 1089.36 1511.31 1089.16 1511.06 1088.84 1510.93 1088.52 1510.93ZM1050.9 1517.02C1050.84 1517.02 1050.79 1517.02 1050.74 1517.03 1050.31 1517.05 1049.9 1517.37 1049.75 1517.79 1049.7 1517.96 1048.35 1521.8 1043.06 1524.16 1042.48 1524.41 1042.23 1525.07 1042.48 1525.64 1042.64 1526.05 1043.06 1526.3 1043.5 1526.3 1043.65 1526.3 1043.8 1526.27 1043.93 1526.22 1047.73 1524.52 1049.82 1522.1 1050.9 1520.43 1052.84 1523.19 1057.53 1528.38 1066.12 1530.19 1066.19 1530.2 1066.24 1530.2 1066.34 1530.2 1066.86 1530.2 1067.32 1529.84 1067.42 1529.31 1067.55 1528.7 1067.19 1528.1 1066.57 1527.99 1056.03 1525.76 1051.85 1517.72 1051.81 1517.63 1051.62 1517.28 1051.27 1517.02 1050.9 1517.02ZM1040.51 1528.7C1040.49 1528.7 1040.47 1528.7 1040.46 1528.7 1039.83 1528.75 1039.37 1529.29 1039.4 1529.9 1040.42 1543.56 1048.27 1548.33 1051.59 1549.76 1052.47 1550.14 1053.41 1550.32 1054.36 1550.32 1055.11 1550.32 1055.86 1550.21 1056.58 1549.97 1059.75 1548.92 1067.45 1545.12 1070.08 1532.85 1070.19 1532.24 1069.83 1531.65 1069.22 1531.54 1069.13 1531.52 1069.05 1531.5 1068.96 1531.5 1068.45 1531.5 1068.01 1531.88 1067.89 1532.39 1065.53 1543.52 1058.71 1546.9 1055.89 1547.84 1055.4 1548 1054.89 1548.09 1054.38 1548.09 1053.75 1548.09 1053.1 1547.96 1052.49 1547.69 1049.55 1546.42 1042.59 1542.17 1041.66 1529.76 1041.6 1529.14 1041.11 1528.7 1040.51 1528.7ZM1094.17 1500.92C1094.16 1500.92 1094.14 1500.92 1094.12 1500.92L1093.66 1500.94C1093.51 1500.94 1093.32 1500.94 1093.12 1500.94 1089.78 1500.94 1082.38 1501.44 1078.75 1510.28 1078.23 1511.57 1078.85 1513.09 1080.17 1513.62 1080.48 1513.76 1080.81 1513.81 1081.13 1513.81 1082.14 1513.81 1083.09 1513.21 1083.51 1512.22 1085.87 1506.38 1090.51 1506.09 1093.26 1506.09 1093.39 1506.09 1093.54 1506.09 1093.66 1506.09L1094.12 1506.09C1094.15 1506.09 1094.17 1506.09 1094.2 1506.09 1096.21 1506.09 1099.47 1506.11 1102.01 1508.64 1104.55 1511.22 1105.86 1515.8 1105.86 1522.26 1105.86 1522.94 1106.13 1523.58 1106.6 1524.07 1107.32 1524.8 1107.69 1525.74 1107.69 1526.74L1107.69 1528.09C1107.69 1529.08 1107.31 1530.05 1106.6 1530.74L1105.97 1531.38C1105.49 1531.86 1105.21 1532.52 1105.21 1533.19 1105.21 1535.96 1103.96 1538.61 1101.85 1540.26 1101.04 1540.92 1100.14 1541.79 1099.18 1542.76 1097.64 1544.32 1095.28 1546.66 1093.89 1546.66 1092.51 1546.66 1090.15 1544.29 1088.59 1542.76 1087.65 1541.79 1086.75 1540.92 1085.93 1540.26 1085.46 1539.89 1084.9 1539.72 1084.35 1539.72 1083.59 1539.72 1082.84 1540.05 1082.33 1540.7 1081.48 1541.83 1081.66 1543.43 1082.77 1544.32 1083.46 1544.87 1084.2 1545.6 1085.01 1546.41 1087.55 1548.92 1090.4 1551.8 1093.93 1551.8 1097.41 1551.8 1100.28 1548.94 1102.84 1546.41 1103.62 1545.6 1104.36 1544.87 1105.06 1544.32 1108.09 1541.92 1110.02 1538.22 1110.33 1534.29 1111.93 1532.63 1112.86 1530.37 1112.86 1528.07L1112.86 1526.72C1112.86 1524.73 1112.2 1522.84 1111 1521.27 1110.85 1513.89 1109.05 1508.43 1105.64 1504.99 1101.6 1500.94 1096.44 1500.92 1094.17 1500.92ZM1050.46 1504.15C1052.64 1504.15 1053.87 1505.18 1054.07 1505.37 1054.55 1505.84 1055.21 1506.11 1055.87 1506.11 1056.2 1506.11 1056.52 1506.04 1056.84 1505.9 1056.99 1505.84 1058.51 1505.24 1060.52 1505.24 1063.32 1505.24 1067.08 1506.4 1069.42 1511.78 1070.81 1514.94 1071.99 1526.99 1072.41 1533.93 1072.83 1537.95 1072.61 1542.42 1071.99 1543.27 1070.55 1544.61 1067.44 1545.68 1066.36 1545.99 1065.01 1546.35 1064.19 1547.77 1064.58 1549.14 1064.85 1550.14 1065.67 1550.8 1066.6 1550.97L1054.78 1561.38 1042.83 1550.87C1042.49 1550.57 1042.1 1550.37 1041.67 1550.27L1041.67 1550.27C1042.65 1550.04 1043.45 1549.22 1043.59 1548.16 1043.81 1546.76 1042.86 1545.43 1041.46 1545.23 1040.67 1545.09 1038.36 1544.5 1037.25 1543.28 1036.66 1542.3 1036.79 1537.83 1037.55 1533.87 1037.61 1533.56 1037.61 1533.22 1037.55 1532.9 1037.51 1532.72 1033.91 1513.72 1044.42 1506.38 1046.89 1504.66 1048.9 1504.15 1050.46 1504.15ZM1050.41 1499.01C1047.84 1499.01 1044.8 1499.82 1041.5 1502.13 1029.22 1510.72 1031.84 1529.94 1032.43 1533.39 1031.7 1537.4 1030.98 1544.02 1033.44 1546.69 1035.85 1549.33 1039.66 1550.12 1040.56 1550.29L1040.56 1550.29C1040.52 1550.29 1040.49 1550.3 1040.46 1550.31 1025.1 1554.71 1024.16 1557.04 1023.73 1558.01 1022.89 1560.06 1022.6 1562.91 1022.34 1565.42L1022.17 1567.03C1022.01 1568.45 1023.02 1569.74 1024.41 1569.91 1024.51 1569.94 1024.62 1569.94 1024.73 1569.94 1026.01 1569.94 1027.1 1568.98 1027.27 1567.68 1027.33 1567.16 1027.39 1566.57 1027.46 1565.94 1027.64 1564.05 1027.89 1561.7 1028.36 1560.28 1029.72 1559.26 1035.36 1557.2 1040.5 1555.64L1052.98 1566.65C1053.44 1567.07 1054.03 1567.26 1054.66 1567.26 1054.69 1567.26 1054.75 1567.27 1054.78 1567.27 1054.83 1567.27 1054.86 1567.26 1054.92 1567.26 1055.51 1567.26 1056.11 1567.07 1056.59 1566.65L1069.05 1555.64C1074.2 1557.2 1079.83 1559.26 1081.2 1560.28 1081.76 1561.95 1082.04 1564.8 1082.24 1566.92L1082.28 1567.61C1082.42 1568.94 1083.53 1569.95 1084.84 1569.95L1085.09 1569.95C1086.49 1569.82 1087.53 1568.56 1087.39 1567.16L1087.33 1566.48C1087.11 1563.75 1086.79 1560.37 1085.82 1558.05 1085.43 1557.06 1084.46 1554.78 1069.41 1550.41 1071.11 1549.8 1073.71 1548.68 1075.46 1547.07 1078.23 1544.49 1077.91 1537.39 1077.53 1533.51 1077.39 1531.62 1076.32 1514.77 1074.11 1509.71 1070.84 1502.21 1065.21 1500.09 1060.52 1500.09 1058.99 1500.09 1057.55 1500.32 1056.34 1500.66 1054.92 1499.76 1052.88 1499.01 1050.41 1499.01ZM1107.78 1550.26C1107.17 1550.26 1106.57 1550.48 1106.11 1550.9L1092.59 1562.81C1091.51 1563.75 1091.41 1565.4 1092.36 1566.44 1092.86 1567.02 1093.57 1567.33 1094.3 1567.33 1094.9 1567.33 1095.5 1567.11 1095.97 1566.68L1108.43 1555.7C1113.59 1557.23 1119.22 1559.3 1120.59 1560.34 1121.02 1561.67 1121.28 1563.96 1121.44 1565.69 1121.53 1566.46 1121.61 1567.2 1121.7 1567.78 1121.88 1569.07 1122.98 1569.99 1124.24 1569.99 1124.37 1569.99 1124.49 1569.99 1124.62 1569.98 1126.04 1569.76 1126.99 1568.45 1126.77 1567.06 1126.71 1566.51 1126.64 1565.86 1126.56 1565.15 1126.31 1562.85 1126 1560 1125.21 1558.05 1124.8 1557.06 1123.85 1554.74 1108.5 1550.35 1108.26 1550.29 1108.02 1550.26 1107.78 1550.26Z" fill="#2AB5E8" fill-rule="evenodd"/></g></svg>