<svg width="66" height="70" xmlns="http://www.w3.org/2000/svg" xmlns:xlink="http://www.w3.org/1999/xlink" xml:space="preserve" overflow="hidden"><g transform="translate(-470 -1499)"><path d="M499.025 1515.56C498.986 1515.56 498.948 1515.56 498.909 1515.57 498.223 1515.6 497.637 1516.06 497.405 1516.71 497.351 1516.86 496.041 1520.47 490.997 1522.71 490.134 1523.1 489.748 1524.09 490.111 1524.95 490.381 1525.58 490.997 1525.97 491.645 1525.97 491.877 1525.97 492.108 1525.91 492.331 1525.81 495.778 1524.3 497.876 1522.2 499.102 1520.51 501.369 1523.46 506.111 1528.12 514.239 1529.81 514.355 1529.84 514.47 1529.85 514.594 1529.85 515.388 1529.85 516.097 1529.29 516.267 1528.5 516.452 1527.58 515.866 1526.67 514.948 1526.49 504.646 1524.33 500.69 1516.82 500.536 1516.49 500.251 1515.91 499.665 1515.56 499.025 1515.56ZM488.684 1527.19C488.638 1527.19 488.599 1527.19 488.553 1527.2 487.62 1527.27 486.911 1528.09 486.988 1529.03 488.029 1542.94 496.125 1547.83 499.557 1549.29 500.513 1549.71 501.539 1549.91 502.557 1549.91 503.374 1549.91 504.184 1549.78 504.978 1549.49 508.263 1548.4 516.205 1544.53 518.896 1532.02 519.082 1531.11 518.496 1530.21 517.586 1530.02 517.47 1529.99 517.354 1529.98 517.239 1529.98 516.452 1529.98 515.735 1530.53 515.565 1531.32 513.244 1542.11 506.636 1545.38 503.898 1546.28 503.466 1546.42 503.011 1546.49 502.557 1546.49 501.994 1546.49 501.431 1546.38 500.899 1546.16 498.045 1544.94 491.29 1540.82 490.388 1528.77 490.319 1527.87 489.555 1527.19 488.684 1527.19ZM497.583 1504.25C500.606 1504.25 502.557 1505.85 502.85 1506.1 503.358 1506.56 504.006 1506.8 504.654 1506.8 505.109 1506.8 505.556 1506.68 505.957 1506.45 505.988 1506.44 508.031 1505.33 510.453 1505.33 511.154 1505.33 511.887 1505.42 512.612 1505.67 514.671 1506.34 516.344 1508.14 517.609 1510.97 518.981 1514.12 520.169 1526.09 520.608 1533.03 521.033 1536.97 520.801 1541.39 520.215 1542.25 518.943 1543.43 516.097 1544.53 514.609 1544.94 513.182 1545.32 512.365 1546.8 512.766 1548.21 513.028 1549.17 513.792 1549.82 514.671 1550.05L503.004 1560.26 491.075 1549.82C490.774 1549.57 490.411 1549.38 490.034 1549.26 490.951 1548.96 491.684 1548.19 491.83 1547.19 492.062 1545.74 491.067 1544.39 489.617 1544.16 488.838 1544.05 486.548 1543.44 485.461 1542.28 484.89 1541.31 485.037 1536.87 485.785 1532.98 485.854 1532.63 485.854 1532.25 485.762 1531.9 485.715 1531.69 481.459 1512.01 492.447 1505.74 494.375 1504.63 496.11 1504.25 497.583 1504.25ZM497.537 1499.01C495.185 1499.01 492.555 1499.59 489.802 1501.16 476.462 1508.78 479.724 1528.83 480.449 1532.52 479.724 1536.54 479.014 1543.13 481.505 1545.81 483.749 1548.23 487.111 1549.08 488.376 1549.33 473.154 1553.7 472.182 1556 471.766 1557.01 470.91 1559.06 470.625 1561.9 470.362 1564.41 470.301 1564.98 470.247 1565.54 470.193 1566.03 470.008 1567.49 471.049 1568.82 472.514 1568.98 472.629 1569 472.745 1569 472.838 1569 474.172 1569 475.328 1568.01 475.49 1566.66 475.544 1566.13 475.614 1565.55 475.675 1564.94 475.86 1563.05 476.099 1560.75 476.578 1559.34 477.973 1558.32 483.564 1556.28 488.669 1554.77L501.138 1565.69C501.631 1566.13 502.248 1566.3 502.873 1566.32 502.911 1566.32 502.95 1566.33 503.004 1566.33 503.065 1566.33 503.112 1566.32 503.166 1566.32 503.775 1566.3 504.384 1566.13 504.885 1565.69L517.354 1554.77C522.459 1556.28 528.05 1558.32 529.445 1559.34 530.016 1561 530.278 1563.8 530.463 1565.88L530.533 1566.59C530.656 1567.97 531.828 1569 533.193 1569 533.27 1569 533.347 1569 533.44 1568.98 534.905 1568.85 535.992 1567.55 535.846 1566.09L535.792 1565.43C535.553 1562.72 535.229 1559.34 534.265 1557.02 533.864 1556.04 532.892 1553.74 517.994 1549.45 519.714 1548.8 522.174 1547.71 523.832 1546.18 526.654 1543.6 526.346 1536.49 525.929 1532.61 525.79 1530.71 524.703 1513.91 522.498 1508.87 520.616 1504.59 517.855 1501.81 514.308 1500.64 513.005 1500.21 511.717 1500.05 510.507 1500.05 508.271 1500.05 506.296 1500.62 504.986 1501.11 503.212 1500.01 500.613 1499.01 497.537 1499.01Z" fill="#2AB5E8" fill-rule="evenodd"/></g></svg>