<svg width="89" height="86" xmlns="http://www.w3.org/2000/svg" xmlns:xlink="http://www.w3.org/1999/xlink" xml:space="preserve" overflow="hidden"><defs><clipPath id="clip0"><rect x="2745" y="1210" width="89" height="86"/></clipPath></defs><g clip-path="url(#clip0)" transform="translate(-2745 -1210)"><path d="M2779.83 1234.55 2800.9 1246.27 2779.83 1258.5 2779.83 1234.55ZM2777.56 1228.47C2777.17 1228.47 2776.78 1228.57 2776.44 1228.76 2775.76 1229.18 2775.33 1229.92 2775.33 1230.72L2775.33 1262.42C2775.32 1263.23 2775.76 1263.97 2776.45 1264.39 2776.81 1264.6 2777.2 1264.68 2777.58 1264.68 2777.97 1264.68 2778.36 1264.57 2778.72 1264.39L2806.61 1248.2C2807.32 1247.8 2807.72 1247.03 2807.72 1246.21 2807.72 1245.41 2807.29 1244.66 2806.58 1244.28L2778.67 1228.75C2778.32 1228.57 2777.94 1228.47 2777.56 1228.47ZM2826.92 1217.05 2826.92 1273.33 2752.04 1273.33 2752.04 1217.05ZM2826.92 1277.84 2826.92 1288.93 2752.04 1288.93 2752.04 1277.84ZM2748.52 1210.01C2746.58 1210.01 2745 1211.57 2745 1213.54L2745 1292.46C2745 1294.42 2746.57 1296 2748.52 1296L2830.46 1296C2832.4 1296 2833.99 1294.43 2833.99 1292.46L2833.99 1213.54C2833.98 1211.57 2832.4 1210.01 2830.46 1210.01Z" fill="#2AB5E8" fill-rule="evenodd"/></g></svg>