<svg width="92" height="93" xmlns="http://www.w3.org/2000/svg" xmlns:xlink="http://www.w3.org/1999/xlink" xml:space="preserve" overflow="hidden"><defs><clipPath id="clip0"><rect x="2744" y="667" width="92" height="93"/></clipPath></defs><g clip-path="url(#clip0)" transform="translate(-2744 -667)"><path d="M2789.89 667C2764.52 667.175 2744.03 687.966 2744 713.573 2743.91 739.118 2764.35 759.904 2789.66 760 2789.7 760 2789.75 760 2789.8 760 2804.94 760.022 2819.12 752.524 2827.72 739.949 2833.13 732.205 2836.02 722.959 2836 713.486 2836 687.844 2815.41 667.058 2790 667.058ZM2771.46 678.607C2771.71 681.895 2772.31 685.145 2773.27 688.299 2773.03 688.602 2772.82 688.922 2772.64 689.256 2772.08 690.152 2771.67 691.132 2771.43 692.158 2767.74 690.889 2764.25 689.133 2761.02 686.935 2764 683.54 2767.53 680.684 2771.46 678.491ZM2771.95 699.325C2772.13 699.771 2772.34 700.208 2772.58 700.631 2773.57 702.335 2775 703.738 2776.72 704.693 2778.34 705.664 2780.18 706.175 2782.07 706.173L2782.27 706.173C2783.3 706.177 2784.32 706.03 2785.31 705.738 2789.55 709.443 2794.61 712.052 2800.06 713.341 2800.3 714.033 2800.6 714.703 2800.95 715.343 2801.34 716.075 2801.81 716.757 2802.36 717.374 2799.33 720.25 2795.71 722.419 2791.75 723.729L2791.41 723.061C2790.04 720.646 2788.05 718.643 2785.66 717.258L2785.34 717.084 2785.34 717.084C2783.01 715.799 2780.41 715.121 2777.75 715.111 2774.96 715.113 2772.22 715.864 2769.82 717.287L2768.96 717.78C2763.61 710.604 2760.06 702.233 2758.61 693.377 2762.75 695.954 2767.25 697.919 2771.95 699.209ZM2777.7 695.002C2777.64 694.243 2777.81 693.486 2778.18 692.825L2778.41 692.477 2778.41 692.477C2778.79 691.841 2779.31 691.304 2779.94 690.91 2780.55 690.543 2781.24 690.352 2781.95 690.359L2782.15 690.359C2782.9 690.337 2783.64 690.528 2784.28 690.91 2785 691.309 2785.6 691.902 2786 692.622 2786.39 693.298 2786.57 694.076 2786.52 694.856 2786.59 695.638 2786.41 696.421 2786 697.091 2785.65 697.685 2785.17 698.19 2784.6 698.571L2784.28 698.571C2782.94 699.342 2781.3 699.342 2779.97 698.571L2779.65 698.396C2779.08 698.008 2778.6 697.504 2778.24 696.917 2777.92 696.291 2777.76 695.592 2777.78 694.885ZM2777.44 721.117 2777.44 721.117 2777.44 721.842C2779.04 721.843 2780.62 722.274 2782.01 723.09 2783.45 723.868 2784.65 725.046 2785.46 726.485 2786.28 727.88 2786.7 729.478 2786.67 731.099 2786.71 732.699 2786.3 734.279 2785.49 735.655 2784.71 737.064 2783.57 738.229 2782.18 739.021 2780.79 739.833 2779.21 740.263 2777.61 740.268L2777.44 740.268C2775.86 740.274 2774.31 739.853 2772.95 739.05 2770.14 737.388 2768.41 734.334 2768.44 731.041 2768.42 729.443 2768.82 727.868 2769.62 726.485 2770.39 725.076 2771.53 723.911 2772.92 723.119 2774.31 722.306 2775.89 721.876 2777.49 721.872L2777.49 721.872ZM2752.68 726.137C2749.89 717.545 2750.04 708.254 2753.11 699.76 2755.21 708.011 2758.99 715.73 2764.21 722.423 2764.08 722.629 2763.95 722.842 2763.84 723.061 2762.43 725.457 2761.7 728.198 2761.74 730.983 2758.38 730.133 2755.27 728.47 2752.68 726.137ZM2789.89 753.123C2777.41 753.057 2765.7 747.069 2758.26 736.961 2759.97 737.501 2761.71 737.938 2763.46 738.266L2763.81 738.934C2765.17 741.357 2767.16 743.363 2769.56 744.737 2771.96 746.106 2774.68 746.826 2777.44 746.826 2780.21 746.83 2782.94 746.1 2785.34 744.708 2786.6 743.996 2787.75 743.107 2788.76 742.068 2795.65 745.215 2803.15 746.733 2810.7 746.507L2811.56 746.507C2805.14 750.823 2797.6 753.124 2789.89 753.123ZM2824.07 693.464C2825.95 696.75 2827.35 700.299 2828.21 703.997 2827.11 705.247 2825.79 706.289 2824.33 707.073 2824.1 705.505 2823.57 703.996 2822.77 702.633 2822.43 701.994 2822.03 701.391 2821.57 700.834 2822.82 698.543 2823.67 696.048 2824.07 693.464ZM2822.8 715.343 2823.06 714.878C2825.27 714.19 2827.37 713.215 2829.33 711.977 2829.33 712.47 2829.33 712.934 2829.33 713.398 2829.35 721.491 2826.88 729.389 2822.26 736.003 2821.46 737.19 2820.59 738.325 2819.64 739.398 2816.48 739.717 2813.49 739.891 2810.73 739.891 2804.46 740.081 2798.22 738.903 2792.44 736.438 2793.06 734.716 2793.36 732.899 2793.34 731.07 2793.35 730.828 2793.35 730.586 2793.34 730.345 2798.89 728.598 2803.91 725.464 2807.94 721.233 2809.18 721.638 2810.47 721.843 2811.76 721.842L2811.97 721.842C2816.46 721.787 2820.59 719.338 2822.83 715.401ZM2817.05 712.093C2816.57 712.995 2815.83 713.731 2814.93 714.211 2814.07 714.762 2813.07 715.054 2812.05 715.052L2811.85 715.052 2811.85 715.749 2811.85 715.749 2811.85 715.052C2810.84 715.053 2809.84 714.772 2808.98 714.24 2807.99 713.744 2807.19 712.953 2806.68 711.977 2805.5 710.088 2805.5 707.685 2806.68 705.796 2807.15 704.863 2807.89 704.095 2808.8 703.591 2809.67 703.061 2810.67 702.79 2811.68 702.807L2812.05 702.807C2813.06 702.809 2814.05 703.079 2814.93 703.591 2815.83 704.103 2816.57 704.869 2817.05 705.796 2817.61 706.735 2817.91 707.807 2817.92 708.901 2817.89 709.999 2817.55 711.065 2816.94 711.977ZM2816.91 684.323 2817.89 685.281C2818.26 689.231 2817.68 693.214 2816.19 696.888 2814.87 696.403 2813.48 696.158 2812.08 696.162L2811.56 696.162C2809.39 696.159 2807.26 696.74 2805.38 697.845 2803.43 698.973 2801.82 700.632 2800.75 702.633 2800.14 703.721 2799.68 704.894 2799.4 706.115 2796.37 705.146 2793.52 703.643 2791.01 701.676 2791.31 701.292 2791.58 700.885 2791.81 700.457 2792.02 700.121 2792.2 699.772 2792.36 699.412 2797.5 698.417 2802.39 696.384 2806.73 693.435 2810.54 690.954 2813.94 687.878 2816.8 684.323ZM2793.08 692.39C2792.85 691.258 2792.44 690.171 2791.87 689.169 2790.86 687.477 2789.43 686.077 2787.73 685.107 2786.09 684.143 2784.22 683.632 2782.32 683.627L2782.12 683.627C2781.08 683.627 2780.05 683.773 2779.05 684.062 2778.41 681.3 2778.06 678.481 2777.98 675.647 2781.84 674.386 2785.86 673.74 2789.91 673.732L2790.09 673.732C2797.7 673.686 2805.17 675.884 2811.56 680.058 2806.83 686.022 2800.37 690.336 2793.08 692.39Z" fill="#2AB5E8" fill-rule="evenodd"/></g></svg>