<svg width="90" height="75" xmlns="http://www.w3.org/2000/svg" xmlns:xlink="http://www.w3.org/1999/xlink" xml:space="preserve" overflow="hidden"><defs><clipPath id="clip0"><rect x="2459" y="1215" width="90" height="75"/></clipPath></defs><g clip-path="url(#clip0)" transform="translate(-2459 -1215)"><path d="M2471.98 1224.6C2470.84 1224.6 2469.91 1225.51 2469.91 1226.66 2469.91 1227.79 2470.84 1228.72 2471.98 1228.72 2473.11 1228.72 2474.05 1227.79 2474.05 1226.66 2474.05 1225.51 2473.11 1224.6 2471.98 1224.6ZM2480.24 1224.6C2479.09 1224.6 2478.17 1225.51 2478.17 1226.66 2478.17 1227.79 2479.09 1228.72 2480.24 1228.72 2481.38 1228.72 2482.31 1227.79 2482.31 1226.66 2482.31 1225.51 2481.38 1224.6 2480.24 1224.6ZM2488.47 1224.6C2487.34 1224.6 2486.4 1225.51 2486.4 1226.66 2486.4 1227.79 2487.34 1228.72 2488.47 1228.72 2489.63 1228.72 2490.54 1227.79 2490.54 1226.66 2490.54 1225.51 2489.63 1224.6 2488.47 1224.6ZM2541.95 1222.02 2541.95 1231.51 2466.05 1231.51 2466.05 1222.02ZM2500.96 1257.7 2506.83 1260.93 2500.96 1264.31 2500.96 1257.7ZM2498.68 1251.65C2498.3 1251.65 2497.91 1251.75 2497.56 1251.95 2496.88 1252.36 2496.46 1253.09 2496.46 1253.88L2496.46 1268.19C2496.46 1269 2496.88 1269.73 2497.58 1270.15 2497.93 1270.33 2498.32 1270.43 2498.71 1270.43 2499.1 1270.43 2499.48 1270.32 2499.84 1270.15L2512.52 1262.82C2513.22 1262.43 2513.64 1261.66 2513.64 1260.85 2513.64 1260.08 2513.2 1259.34 2512.48 1258.93L2499.8 1251.94C2499.45 1251.75 2499.06 1251.65 2498.68 1251.65ZM2531.53 1248.32 2531.53 1274.09 2476.32 1274.09 2476.32 1248.32ZM2474.06 1240.9C2472.84 1240.9 2471.82 1241.9 2471.82 1243.13L2471.82 1276.33C2471.82 1277.57 2472.84 1278.57 2474.06 1278.57L2533.77 1278.57C2535.02 1278.57 2536.04 1277.57 2536.04 1276.33L2536.04 1243.13C2536.04 1241.9 2535.02 1240.9 2533.77 1240.9ZM2541.95 1235.97 2541.95 1282.96 2466.05 1282.96 2466.05 1235.97ZM2462.53 1215C2460.59 1215 2459 1216.57 2459 1218.51L2459 1286.49C2459 1288.42 2460.58 1290 2462.53 1290L2545.48 1290C2547.42 1290 2549 1288.45 2549 1286.49L2549 1218.51C2548.98 1216.57 2547.42 1215 2545.48 1215Z" fill="#2AB5E8" fill-rule="evenodd"/></g></svg>