<svg width="99" height="94" xmlns="http://www.w3.org/2000/svg" xmlns:xlink="http://www.w3.org/1999/xlink" xml:space="preserve" overflow="hidden"><defs><clipPath id="clip0"><rect x="453" y="645" width="99" height="94"/></clipPath></defs><g clip-path="url(#clip0)" transform="translate(-453 -645)"><path d="M479.097 646.787C474.122 646.787 468.887 647.5 465.275 649.901 464.842 650.175 464.54 650.647 464.464 651.151L463.988 653.728 455.498 651.831C455.358 651.809 455.228 651.787 455.087 651.787 454.222 651.787 453.433 652.401 453.238 653.289 453.011 654.331 453.649 655.372 454.676 655.603L463.318 657.533 462.712 660.811C462.615 661.326 462.755 661.896 463.08 662.335 467.287 667.894 477.301 671.304 480.827 672.159 480.957 672.203 481.108 672.225 481.26 672.225 482.125 672.225 482.914 671.633 483.109 670.745 483.347 669.692 482.698 668.651 481.703 668.398 477.561 667.401 470.066 664.451 466.616 660.592L468.044 652.697C470.531 651.348 474.424 650.647 479.194 650.647 480.978 650.647 482.871 650.745 484.872 650.943 484.926 650.943 484.991 650.954 485.045 650.954 486.018 650.954 486.851 650.197 486.959 649.199 487.067 648.136 486.299 647.215 485.261 647.116 483.358 646.919 481.249 646.787 479.097 646.787ZM524.162 662.73C523.989 662.73 523.827 662.752 523.654 662.796 522.659 663.092 522.075 664.166 522.356 665.186L525.201 675.295C525.449 676.151 526.206 676.699 527.028 676.699 527.223 676.699 527.385 676.666 527.558 676.622 528.553 676.337 529.126 675.251 528.856 674.243L526.001 664.133C525.774 663.278 524.995 662.73 524.162 662.73ZM533.301 663.728C533.128 663.728 532.955 663.749 532.771 663.804 531.765 664.078 531.181 665.153 531.473 666.184L534.318 676.293C534.556 677.137 535.334 677.697 536.145 677.697 536.329 677.697 536.481 677.675 536.664 677.609 537.67 677.335 538.254 676.26 537.984 675.229L535.118 665.12C534.891 664.276 534.123 663.728 533.301 663.728ZM500.64 683.541 500.64 683.541C502.597 684.966 505.182 687.74 505.182 692.312L505.182 693.65 502.662 694.1C502.035 694.22 501.527 694.264 501.116 694.264 500.37 694.264 499.948 694.111 499.786 693.924 499.515 693.551 499.753 692.587 499.915 692.247 501.602 689.253 501.397 686.161 500.64 683.541ZM504.717 651.074C508.924 651.59 529.689 655.274 540.352 657.215 542.039 657.489 543.521 658.432 544.495 659.835 545.5 661.228 545.879 662.938 545.641 664.638L543.5 677.368C543.229 679.078 542.299 680.558 540.904 681.567 539.79 682.357 538.525 682.773 537.227 682.773 536.87 682.773 536.502 682.74 536.145 682.674L531.938 681.973C531.809 681.94 531.668 681.929 531.527 681.929 531.473 681.929 531.419 681.929 531.376 681.929 528.456 681.929 526.26 683.782 525.677 686.863 525.644 687.049 525.633 687.236 525.633 687.433L525.633 710.887C525.633 712.498 526.855 713.825 528.445 713.902L530.403 714.001 530.716 714.001C530.781 714.001 530.846 714.001 530.911 714.001 531.971 714.001 533.236 714.231 533.452 714.33L533.452 720.941 498.92 720.941C500.662 718.891 503.646 716.621 508.859 715.305 510.179 714.966 511.109 713.759 511.109 712.378L511.109 692.334C511.109 680.898 501.008 676.841 500.77 676.765 497.525 675.229 493.113 673.168 490.669 671.973L493.956 652.127 504.717 651.074ZM533.485 723.343 533.496 730.557C533.452 731.873 532.393 732.969 531.127 732.969L500.629 732.969C499.31 732.969 498.25 731.862 498.25 730.481L498.25 723.343ZM504.76 645C504.663 645 504.566 645.011 504.468 645.011L491.134 646.316C489.803 646.458 488.711 647.478 488.484 648.827L484.439 673.135C484.223 674.352 484.785 675.558 485.823 676.205 486.635 676.71 492.983 679.725 497.449 681.808 498.607 684.429 499.602 687.916 497.785 691.161 497.666 691.413 496.628 693.727 497.882 695.405 498.553 696.282 499.602 696.709 501.062 696.709 501.635 696.709 502.327 696.633 503.062 696.479L505.15 696.128 505.15 710.13C498.088 712.433 494.486 716.391 492.691 719.439 492.399 719.911 492.258 720.437 492.258 720.985L492.258 730.481C492.258 735.162 495.979 738.989 500.575 738.989L531.073 738.989C535.518 738.989 539.228 735.294 539.379 730.645L539.379 714.362C539.379 712.729 538.763 711.281 537.627 710.174 535.832 708.452 533.128 708.058 531.538 708.014L531.538 688.036 535.118 688.65C535.799 688.771 536.481 688.826 537.162 688.826 539.714 688.826 542.191 688.014 544.321 686.479 547.004 684.528 548.788 681.666 549.329 678.387L551.47 665.646C552 662.368 551.265 659.046 549.329 656.315 547.425 653.574 544.592 651.776 541.38 651.217 540.082 650.987 509.605 645.449 505.052 645.011 504.955 645.011 504.858 645 504.76 645Z" fill="#2AB5E8" fill-rule="evenodd"/></g></svg>