<svg width="93" height="93" xmlns="http://www.w3.org/2000/svg" xmlns:xlink="http://www.w3.org/1999/xlink" xml:space="preserve" overflow="hidden"><defs><clipPath id="clip0"><rect x="2457" y="672" width="93" height="93"/></clipPath></defs><g clip-path="url(#clip0)" transform="translate(-2457 -672)"><path d="M2503.5 672C2477.82 672 2457 692.819 2457 718.5 2457 744.181 2477.82 765 2503.5 765 2529.18 765 2550 744.181 2550 718.5 2550 692.819 2529.18 672 2503.5 672ZM2488.97 681.998C2483.62 689.757 2480.08 701.76 2479.67 715.652L2464.27 715.652C2465.38 700.656 2474.93 687.601 2488.88 681.998ZM2464.27 721.348 2479.58 721.348C2479.99 735.24 2483.53 747.243 2488.88 755.003 2474.93 749.399 2465.38 736.344 2464.27 721.348ZM2500.65 757.734 2499.9 757.734C2492.63 754.247 2485.92 740.617 2485.37 721.406L2500.74 721.406ZM2500.65 715.681 2485.28 715.681C2485.92 696.471 2492.63 682.841 2499.81 679.353L2500.56 679.353ZM2506.35 679.266 2507.1 679.266C2514.37 682.753 2521.08 696.383 2521.64 715.594L2506.35 715.594ZM2507.1 757.734 2506.35 757.734 2506.35 721.348 2521.72 721.348C2521.08 740.559 2514.37 754.189 2507.1 757.734ZM2518.12 755.061C2523.47 747.301 2527.01 735.298 2527.42 721.406L2542.73 721.406C2541.6 736.381 2532.05 749.409 2518.12 755.003ZM2527.42 715.71C2527.01 701.818 2523.47 689.815 2518.12 682.056 2532.05 687.65 2541.6 700.678 2542.73 715.652Z" fill="#2AB5E8" fill-rule="evenodd"/></g></svg>