<svg width="81" height="93" xmlns="http://www.w3.org/2000/svg" xmlns:xlink="http://www.w3.org/1999/xlink" xml:space="preserve" overflow="hidden"><defs><clipPath id="clip0"><rect x="1892" y="367" width="81" height="93"/></clipPath></defs><g clip-path="url(#clip0)" transform="translate(-1892 -367)"><path d="M1964.57 406.284 1962.23 406.284 1962.23 370.721C1962.23 368.667 1960.57 367.001 1958.53 367.001L1913.13 367.001C1911.99 366.974 1910.91 367.467 1910.17 368.34L1892.71 389.172C1892.23 389.848 1891.98 390.662 1892 391.493L1892 456.28C1891.98 458.318 1893.61 459.983 1895.64 460 1895.66 460 1895.68 460 1895.7 460L1958.53 460C1960.56 460.016 1962.21 458.378 1962.23 456.34 1962.23 456.32 1962.23 456.3 1962.23 456.28L1962.23 445.566 1964.57 445.566C1969.22 445.55 1972.98 441.762 1973 437.085L1973 414.765C1972.98 410.088 1969.22 406.3 1964.57 406.284ZM1910.44 379.679 1910.44 389.321 1902.33 389.321ZM1954.83 452.56 1899.34 452.56 1899.34 396.761 1914.14 396.761C1916.16 396.777 1917.82 395.138 1917.84 393.101 1917.84 393.081 1917.84 393.061 1917.84 393.041L1917.84 374.441 1954.83 374.441 1954.83 406.284 1920.17 406.284C1915.52 406.284 1911.74 410.081 1911.74 414.765L1911.74 437.085C1911.74 441.769 1915.52 445.566 1920.17 445.566L1954.83 445.566ZM1968.27 437.085C1968.27 439.139 1966.61 440.805 1964.57 440.805L1920.17 440.805C1918.13 440.805 1916.48 439.139 1916.48 437.085L1916.48 414.765C1916.48 412.711 1918.13 411.045 1920.17 411.045L1964.57 411.045C1966.61 411.045 1968.27 412.711 1968.27 414.765Z" fill="#2AB5E8" fill-rule="evenodd"/><path d="M1936.85 418 1933.46 418 1930.56 423.855 1929.97 425.219 1929.44 423.855 1926.54 418 1923.12 418 1927.81 426.768 1923 436 1926.4 436 1929.35 429.804 1929.97 428.472 1930.56 429.804 1933.57 436 1937 436 1932.1 426.768 1936.85 418Z" fill="#2AB5E8" fill-rule="evenodd"/><path d="M1941 418 1938 418 1938 436 1949 436 1949 433.366 1941 433.366 1941 418Z" fill="#2AB5E8" fill-rule="evenodd"/><path d="M1956.69 425.385C1954.09 424.532 1953.37 423.973 1953.37 422.796 1953.37 421.62 1954.35 420.649 1956.07 420.649 1957.53 420.64 1958.95 421.151 1960.07 422.091L1961.61 419.766C1960.07 418.475 1958.07 417.85 1956.07 418.031 1952.25 418.031 1950.15 419.972 1950.15 422.914 1950.15 425.856 1951.81 426.856 1955.39 428.004 1958.35 428.945 1958.79 429.592 1958.79 430.945 1958.79 432.299 1957.96 433.299 1955.98 433.299 1954.37 433.248 1952.82 432.669 1951.57 431.651L1950 433.799C1951.65 435.29 1953.84 436.063 1956.07 435.946 1958.9 436.353 1961.53 434.402 1961.94 431.588 1961.98 431.307 1962 431.023 1961.99 430.739 1962.14 428.062 1960.69 426.562 1956.69 425.385Z" fill="#2AB5E8" fill-rule="evenodd"/></g></svg>