<svg width="80" height="93" xmlns="http://www.w3.org/2000/svg" xmlns:xlink="http://www.w3.org/1999/xlink" xml:space="preserve" overflow="hidden"><defs><clipPath id="clip0"><rect x="463" y="367" width="80" height="93"/></clipPath></defs><g clip-path="url(#clip0)" transform="translate(-463 -367)"><path d="M534.67 406.284 532.361 406.284 532.361 370.721C532.361 368.667 530.726 367.001 528.708 367.001L483.87 367.001C482.747 366.974 481.673 367.467 480.948 368.34L463.703 389.172C463.228 389.848 462.982 390.662 463.001 391.493L463.001 456.28C462.985 458.318 464.594 459.983 466.596 460 466.616 460 466.635 460 466.655 460L528.708 460C530.709 460.016 532.345 458.378 532.361 456.34 532.361 456.32 532.361 456.3 532.361 456.28L532.361 445.566 534.67 445.566C539.264 445.55 542.984 441.762 543 437.085L543 414.765C542.984 410.088 539.264 406.3 534.67 406.284ZM481.211 379.679 481.211 389.321 473.202 389.321ZM525.054 452.56 470.25 452.56 470.25 396.761 484.864 396.761C486.866 396.777 488.502 395.138 488.518 393.101 488.518 393.081 488.518 393.061 488.518 393.041L488.518 374.441 525.054 374.441 525.054 406.284 490.827 406.284C486.226 406.284 482.497 410.081 482.497 414.765L482.497 437.085C482.497 441.769 486.226 445.566 490.827 445.566L525.054 445.566ZM538.324 437.085C538.324 439.139 536.688 440.805 534.67 440.805L490.827 440.805C488.809 440.805 487.173 439.139 487.173 437.085L487.173 414.765C487.173 412.711 488.809 411.045 490.827 411.045L534.67 411.045C536.688 411.045 538.324 412.711 538.324 414.765Z" fill="#2AB5E8" fill-rule="evenodd"/><path d="M503.853 418 500.456 418 497.561 423.855 496.97 425.219 496.439 423.855 493.544 418 490.118 418 494.814 426.768 490 436 493.397 436 496.35 429.804 496.97 428.472 497.561 429.804 500.574 436 504 436 499.097 426.768 503.853 418Z" fill="#2AB5E8" fill-rule="evenodd"/><path d="M518.886 418 513.5 426.396 508.114 418 506.029 418 506 436 508.78 436 508.78 423.886 513.037 430.238 513.992 430.238 518.249 423.855 518.249 436 521 436 520.971 418 518.886 418Z" fill="#2AB5E8" fill-rule="evenodd"/><path d="M527.735 418 525 418 525 436 535 436 535 433.366 527.735 433.366 527.735 418Z" fill="#2AB5E8" fill-rule="evenodd"/></g></svg>