<svg width="92" height="125" xmlns="http://www.w3.org/2000/svg" xmlns:xlink="http://www.w3.org/1999/xlink" xml:space="preserve" overflow="hidden"><defs><clipPath id="clip0"><rect x="2247" y="1207" width="92" height="125"/></clipPath></defs><g clip-path="url(#clip0)" transform="translate(-2247 -1207)"><path d="M2290.96 1244.93C2310.12 1244.93 2325.76 1255.24 2331.76 1271.8 2332.94 1275.01 2332.57 1278.27 2330.74 1280.93 2329 1283.51 2326.34 1284.81 2322.83 1284.81 2318.95 1284.81 2312.44 1286.59 2312.42 1298.44L2312.36 1300.05 2306.51 1300.05 2306.51 1300.07C2306.42 1293.98 2303.54 1289.98 2297.73 1287.85 2292.58 1285.94 2285.32 1285.56 2276.01 1285.56L2268.45 1285.56C2262.52 1285.56 2257.25 1282.25 2254.7 1276.95 2252.15 1271.6 2252.79 1265.35 2256.4 1260.62 2264.1 1250.51 2276.36 1244.93 2290.96 1244.93ZM2290.96 1240C2274.84 1240 2261.21 1246.25 2252.58 1257.59 2247.83 1263.82 2247 1272.06 2250.36 1279.11 2253.74 1286.13 2260.67 1290.49 2268.45 1290.49L2276.01 1290.49C2295.92 1290.49 2301.67 1292.7 2301.67 1300.37L2301.67 1302.54C2301.67 1303.9 2302.77 1305 2304.1 1305L2314.68 1305C2315.97 1305 2317.05 1303.93 2317.09 1302.61L2317.25 1298.57 2317.25 1298.49C2317.25 1289.74 2321.3 1289.74 2322.83 1289.74 2327.94 1289.74 2332.03 1287.67 2334.72 1283.75 2337.42 1279.77 2338 1274.8 2336.3 1270.08 2329.58 1251.53 2312.19 1240 2290.96 1240Z" fill="#2AB5E8" fill-rule="evenodd"/><path d="M2325.67 1261C2325.27 1261 2324.88 1261.21 2324.66 1261.6 2321.74 1266.74 2316.24 1268.21 2312.12 1268.55 2311.49 1268.59 2311 1269.19 2311.06 1269.86 2311.09 1270.51 2311.62 1271 2312.22 1271L2312.31 1271C2320.75 1270.31 2324.77 1266.19 2326.66 1262.86 2327 1262.27 2326.81 1261.52 2326.27 1261.17 2326.08 1261.05 2325.87 1261 2325.67 1261Z" fill="#2AB5E8" fill-rule="evenodd"/><path d="M2314.51 1248C2314.41 1248 2314.32 1248.01 2314.22 1248.03 2313.53 1248.18 2313.08 1248.84 2313.24 1249.53 2313.8 1252.11 2313.65 1256.43 2311.39 1260.08 2311 1260.69 2311.2 1261.45 2311.8 1261.82 2312 1261.94 2312.25 1262 2312.47 1262 2312.9 1262 2313.31 1261.8 2313.55 1261.41 2317 1255.88 2315.98 1250.09 2315.73 1249 2315.61 1248.41 2315.08 1248 2314.51 1248Z" fill="#2AB5E8" fill-rule="evenodd"/><path d="M2314.89 1268C2314.12 1268 2313.44 1268.44 2313.37 1269.01 2313 1271.75 2313.77 1275.87 2313.8 1276.03 2313.89 1276.61 2314.56 1277 2315.33 1277L2315.53 1277C2316.4 1276.91 2317 1276.36 2316.88 1275.73 2316.88 1275.69 2316.13 1271.72 2316.45 1269.23 2316.55 1268.62 2315.93 1268.06 2315.06 1268.01 2315 1268 2314.95 1268 2314.89 1268Z" fill="#2AB5E8" fill-rule="evenodd"/><path d="M2271.3 1247C2270.92 1247 2270.55 1247.19 2270.33 1247.52 2270 1248.05 2270.16 1248.75 2270.69 1249.08 2271.38 1249.53 2272.69 1251.26 2272.65 1252.9 2272.62 1253.75 2272.2 1254.4 2271.35 1254.89 2270.8 1255.2 2270.6 1255.88 2270.91 1256.42 2271.11 1256.8 2271.49 1257 2271.89 1257 2272.09 1257 2272.27 1256.95 2272.45 1256.86 2274.44 1255.75 2274.89 1254.13 2274.93 1252.96 2275 1250.48 2273.22 1248.01 2271.91 1247.18 2271.72 1247.06 2271.51 1247 2271.3 1247Z" fill="#2AB5E8" fill-rule="evenodd"/><path d="M2261.36 1255C2261.07 1255 2260.78 1255.1 2260.55 1255.3 2260.04 1255.74 2260 1256.51 2260.45 1257 2261.62 1258.28 2262.89 1259.41 2264.12 1260.51 2266.9 1262.99 2269.3 1265.13 2269.52 1267.89 2269.58 1268.52 2270.1 1269 2270.73 1269L2270.83 1269C2271.51 1268.94 2272 1268.37 2271.96 1267.7 2271.67 1264.02 2268.79 1261.45 2265.78 1258.74 2264.59 1257.69 2263.36 1256.58 2262.27 1255.4 2262.03 1255.13 2261.7 1255 2261.36 1255Z" fill="#2AB5E8" fill-rule="evenodd"/><path d="M2266.79 1275C2262.53 1275 2259.03 1278.16 2256.47 1280.91 2256 1281.4 2256.02 1282.17 2256.51 1282.64 2256.74 1282.88 2257.05 1283 2257.34 1283 2257.67 1283 2258 1282.86 2258.24 1282.6 2260.47 1280.21 2263.47 1277.49 2266.79 1277.49 2267.46 1277.49 2268 1276.94 2268 1276.24 2268 1275.55 2267.46 1275 2266.79 1275Z" fill="#2AB5E8" fill-rule="evenodd"/><path d="M2307.38 1282C2307.1 1282 2306.81 1282.1 2306.57 1282.31 2306.06 1282.78 2306 1283.56 2306.46 1284.09 2308.34 1286.3 2311.17 1288.86 2313.88 1290.78 2314.1 1290.94 2314.33 1291 2314.58 1291L2314.58 1291C2314.98 1291 2315.37 1290.82 2315.6 1290.46 2316 1289.89 2315.86 1289.11 2315.29 1288.7 2312.79 1286.93 2310.04 1284.47 2308.32 1282.43 2308.07 1282.15 2307.73 1282 2307.38 1282ZM2314.58 1291C2314.58 1291 2314.58 1291 2314.57 1291L2314.59 1291C2314.59 1291 2314.59 1291 2314.58 1291Z" fill="#2AB5E8" fill-rule="evenodd"/><path d="M2305.84 1263.88 2302.43 1266 2305.84 1268.12C2306.71 1268.66 2307 1269.82 2306.5 1270.76 2306 1271.67 2304.91 1272 2304.04 1271.46L2297.91 1267.66C2297.5 1267.41 2297.21 1267.01 2297.09 1266.57 2297.02 1266.36 2297 1266.15 2297 1265.94 2297.02 1265.79 2297.04 1265.64 2297.07 1265.48 2297.2 1265.01 2297.48 1264.59 2297.91 1264.32L2304.04 1260.54C2304.91 1260 2306 1260.32 2306.5 1261.24 2307 1262.16 2306.71 1263.34 2305.84 1263.88Z" fill="#2AB5E8" fill-rule="evenodd"/><path d="M2302.73 1274.26 2295.98 1270.3C2295.63 1270.08 2295.22 1270 2294.84 1270.04 2293.8 1270.1 2293 1270.98 2293 1272.04L2293 1279.98C2293 1281.1 2293.88 1282 2294.98 1282 2296.08 1282 2296.98 1281.1 2296.98 1279.98L2296.98 1275.54 2300.75 1277.76C2301.69 1278.32 2302.9 1278 2303.45 1277.02 2304 1276.06 2303.67 1274.82 2302.73 1274.26Z" fill="#2AB5E8" fill-rule="evenodd"/><path d="M2294.85 1265.78 2292.22 1263.13C2292.15 1263.06 2292 1263 2291.89 1263L2291.11 1263C2291 1263 2290.85 1263.06 2290.78 1263.13L2288.13 1265.78C2288.06 1265.85 2288 1266 2288 1266.11L2288 1266.89C2288 1267 2288.06 1267.15 2288.13 1267.22L2290.78 1269.85C2290.85 1269.94 2291 1270 2291.11 1270L2291.89 1270C2292 1270 2292.15 1269.94 2292.22 1269.85L2294.85 1267.22C2294.94 1267.15 2295 1267 2295 1266.89L2295 1266.11C2295 1266 2294.94 1265.85 2294.85 1265.78ZM2292.74 1266.52C2292.74 1266.63 2292.68 1266.78 2292.61 1266.85L2291.83 1267.61C2291.76 1267.69 2291.61 1267.74 2291.52 1267.74L2291.48 1267.74C2291.37 1267.74 2291.22 1267.69 2291.15 1267.61L2290.39 1266.85C2290.31 1266.76 2290.24 1266.61 2290.24 1266.52L2290.24 1266.48C2290.24 1266.39 2290.31 1266.24 2290.39 1266.15L2291.15 1265.39C2291.22 1265.31 2291.37 1265.26 2291.48 1265.26L2291.52 1265.26C2291.61 1265.26 2291.76 1265.31 2291.83 1265.39L2292.61 1266.15C2292.68 1266.24 2292.74 1266.39 2292.74 1266.48Z" fill="#2AB5E8" fill-rule="evenodd"/><path d="M2280.28 1257.74 2287.01 1261.7C2287.39 1261.92 2287.78 1262 2288.17 1261.98 2289.19 1261.9 2290 1261.02 2290 1259.96L2290 1252.02C2290 1250.9 2289.12 1250 2288.02 1250 2286.94 1250 2286.03 1250.9 2286.03 1252.02L2286.03 1256.46 2282.26 1254.24C2281.3 1253.68 2280.1 1254 2279.55 1254.98 2279 1255.94 2279.31 1257.18 2280.28 1257.74Z" fill="#2AB5E8" fill-rule="evenodd"/><path d="M2294.84 1261.98C2295.22 1262 2295.63 1261.92 2295.98 1261.7L2302.73 1257.74C2303.67 1257.18 2304 1255.94 2303.45 1254.98 2302.9 1254 2301.69 1253.68 2300.75 1254.24L2296.96 1256.46 2296.96 1252.02C2296.96 1250.9 2296.08 1250 2294.98 1250 2293.88 1250 2293 1250.9 2293 1252.02L2293 1259.96C2293 1261.02 2293.8 1261.9 2294.84 1261.96Z" fill="#2AB5E8" fill-rule="evenodd"/><path d="M2288.17 1270.04C2287.78 1270 2287.39 1270.08 2287.01 1270.3L2280.28 1274.26C2279.31 1274.82 2279 1276.06 2279.55 1277.02 2280.1 1278 2281.3 1278.32 2282.24 1277.76L2286.03 1275.54 2286.03 1279.98C2286.03 1281.1 2286.92 1282 2288.02 1282 2289.12 1282 2290 1281.1 2290 1279.98L2290 1272.04C2290 1270.98 2289.19 1270.1 2288.17 1270.04Z" fill="#2AB5E8" fill-rule="evenodd"/><path d="M2285.92 1266.57C2285.98 1266.36 2286 1266.15 2286 1265.94 2286 1265.79 2285.98 1265.64 2285.94 1265.48 2285.8 1265.01 2285.49 1264.59 2285.02 1264.32L2278.26 1260.54C2277.32 1260 2276.1 1260.32 2275.55 1261.24 2275 1262.18 2275.33 1263.34 2276.28 1263.88L2280.05 1266 2276.28 1268.12C2275.33 1268.66 2275 1269.82 2275.55 1270.76 2276.1 1271.67 2277.32 1272 2278.26 1271.46L2285.02 1267.66C2285.47 1267.41 2285.78 1267.01 2285.92 1266.57Z" fill="#2AB5E8" fill-rule="evenodd"/><path d="M2260.12 1266C2259.68 1266 2259.24 1266.24 2259.03 1266.66 2258.95 1266.84 2257 1270.85 2260.61 1276.46 2260.84 1276.81 2261.22 1277 2261.63 1277 2261.86 1277 2262.07 1276.94 2262.29 1276.81 2262.84 1276.46 2263 1275.71 2262.65 1275.15 2259.84 1270.79 2261.13 1267.9 2261.19 1267.74 2261.49 1267.15 2261.24 1266.43 2260.65 1266.12 2260.48 1266.04 2260.3 1266 2260.12 1266Z" fill="#2AB5E8" fill-rule="evenodd"/><path d="M2277.27 1223C2276.56 1223 2276 1223.54 2276 1224.21L2276 1230.93C2276 1231.6 2276.56 1232.14 2277.27 1232.14L2283.46 1232.14 2283.46 1241.81C2283.46 1242.46 2284.02 1243 2284.73 1243 2285.44 1243 2286 1242.46 2286 1241.79L2286 1230.93C2286 1230.26 2285.44 1229.72 2284.73 1229.72L2278.52 1229.72 2278.52 1224.21C2278.52 1223.54 2277.96 1223 2277.27 1223Z" fill="#2AB5E8" fill-rule="evenodd"/><path d="M2284.5 1289C2283.67 1289 2283 1289.54 2283 1290.22L2283 1315.8C2283 1316.46 2283.67 1317 2284.5 1317 2285.33 1317 2286 1316.46 2286 1315.8L2286 1290.22C2286 1289.54 2285.33 1289 2284.5 1289Z" fill="#2AB5E8" fill-rule="evenodd"/><path d="M2276.82 1287C2276.15 1287 2275.62 1287.54 2275.62 1288.21L2275.62 1296.01 2263.28 1296.01C2262.61 1296.01 2262.08 1296.54 2262.08 1297.2L2262 1302.79C2262 1303.44 2262.51 1304 2263.18 1304L2263.2 1304C2263.85 1304 2264.38 1303.48 2264.4 1302.83L2264.46 1298.4 2276.82 1298.4C2277.47 1298.4 2278 1297.87 2278 1297.22L2278 1288.21C2278 1287.54 2277.47 1287 2276.82 1287Z" fill="#2AB5E8" fill-rule="evenodd"/><path d="M2277.51 1210.7C2280.16 1210.7 2282.32 1212.84 2282.32 1215.51 2282.32 1218.16 2280.16 1220.3 2277.51 1220.3 2274.86 1220.3 2272.7 1218.16 2272.7 1215.51 2272.7 1212.86 2274.86 1210.7 2277.51 1210.7ZM2277.51 1207C2272.82 1207 2269 1210.82 2269 1215.51 2269 1220.18 2272.82 1224 2277.51 1224 2282.2 1224 2286 1220.18 2286 1215.51 2286 1210.82 2282.2 1207 2277.51 1207Z" fill="#2AB5E8" fill-rule="evenodd"/><path d="M2256.19 1228C2255.53 1228 2255 1228.53 2255 1229.18L2255 1236.72C2255 1237.39 2255.53 1237.93 2256.19 1237.93L2275.65 1237.93 2275.65 1244.8C2275.65 1245.47 2276.17 1246 2276.83 1246 2277.47 1246 2278 1245.47 2278 1244.8L2278 1236.72C2278 1236.07 2277.47 1235.54 2276.83 1235.54L2257.35 1235.54 2257.35 1229.18C2257.35 1228.53 2256.83 1228 2256.19 1228Z" fill="#2AB5E8" fill-rule="evenodd"/><path d="M2255.51 1217.7C2258.16 1217.7 2260.3 1219.86 2260.3 1222.51 2260.3 1225.16 2258.16 1227.32 2255.51 1227.32 2252.84 1227.32 2250.7 1225.16 2250.7 1222.51 2250.7 1219.86 2252.84 1217.7 2255.51 1217.7ZM2255.51 1214C2250.82 1214 2247 1217.82 2247 1222.51 2247 1227.18 2250.82 1231 2255.51 1231 2260.18 1231 2264 1227.18 2264 1222.51 2264 1217.82 2260.18 1214 2255.51 1214Z" fill="#2AB5E8" fill-rule="evenodd"/><path d="M2315.8 1222C2315.12 1222 2314.58 1222.54 2314.58 1223.21L2314.58 1229.7 2291.22 1229.7C2290.54 1229.7 2290 1230.24 2290 1230.91L2290 1241.79C2290 1242.46 2290.54 1243 2291.22 1243 2291.9 1243 2292.44 1242.46 2292.44 1241.79L2292.44 1232.12 2315.8 1232.12C2316.46 1232.12 2317 1231.59 2317 1230.91L2317 1223.21C2317 1222.54 2316.46 1222 2315.8 1222Z" fill="#2AB5E8" fill-rule="evenodd"/><path d="M2298.22 1236C2297.55 1236 2297 1236.51 2297 1237.13L2297 1241.85C2297 1242.49 2297.55 1243 2298.22 1243 2298.91 1243 2299.47 1242.49 2299.47 1241.85L2299.47 1238.28 2323.78 1238.28C2324.45 1238.28 2325 1237.77 2325 1237.13 2325 1236.51 2324.45 1236 2323.78 1236Z" fill="#2AB5E8" fill-rule="evenodd"/><path d="M2330.51 1232.68C2333.16 1232.68 2335.32 1234.84 2335.32 1237.49 2335.32 1240.14 2333.16 1242.3 2330.51 1242.3 2327.86 1242.3 2325.7 1240.14 2325.7 1237.49 2325.7 1234.84 2327.86 1232.68 2330.51 1232.68ZM2330.51 1229C2325.82 1229 2322 1232.8 2322 1237.49 2322 1242.18 2325.82 1246 2330.51 1246 2335.2 1246 2339 1242.18 2339 1237.49 2339 1232.8 2335.2 1229 2330.51 1229Z" fill="#2AB5E8" fill-rule="evenodd"/><path d="M2316.5 1211.68C2319.15 1211.68 2321.3 1213.84 2321.3 1216.49 2321.3 1219.14 2319.15 1221.3 2316.5 1221.3 2313.85 1221.3 2311.7 1219.14 2311.7 1216.49 2311.7 1213.84 2313.85 1211.68 2316.5 1211.68ZM2316.5 1208C2311.81 1208 2308 1211.8 2308 1216.49 2308 1221.18 2311.81 1225 2316.5 1225 2321.19 1225 2325 1221.18 2325 1216.49 2325 1211.8 2321.19 1208 2316.5 1208Z" fill="#2AB5E8" fill-rule="evenodd"/><path d="M2284.49 1318.68C2287.14 1318.68 2289.3 1320.84 2289.3 1323.49 2289.3 1326.14 2287.14 1328.3 2284.49 1328.3 2281.84 1328.3 2279.68 1326.14 2279.68 1323.49 2279.68 1320.84 2281.84 1318.68 2284.49 1318.68ZM2284.49 1315C2279.8 1315 2276 1318.8 2276 1323.49 2276 1328.18 2279.8 1332 2284.49 1332 2289.18 1332 2293 1328.18 2293 1323.49 2293 1318.8 2289.18 1315 2284.49 1315Z" fill="#2AB5E8" fill-rule="evenodd"/><path d="M2291.26 1289C2290.56 1289 2290 1289.54 2290 1290.21L2290 1310.2C2290 1310.51 2290.14 1310.82 2290.38 1311.05 2290.6 1311.29 2290.92 1311.4 2291.26 1311.4L2309.5 1311.36 2309.5 1315.8C2309.5 1316.46 2310.06 1317 2310.76 1317 2311.44 1317 2312 1316.46 2312 1315.8L2312 1310.14C2312 1309.83 2311.88 1309.52 2311.64 1309.29 2311.4 1309.05 2311.08 1308.94 2310.76 1308.94L2292.52 1308.98 2292.52 1290.21C2292.52 1289.54 2291.96 1289 2291.26 1289Z" fill="#2AB5E8" fill-rule="evenodd"/><path d="M2310.51 1318.7C2313.16 1318.7 2315.32 1320.84 2315.32 1323.51 2315.32 1326.16 2313.16 1328.3 2310.51 1328.3 2307.86 1328.3 2305.7 1326.16 2305.7 1323.51 2305.7 1320.86 2307.86 1318.7 2310.51 1318.7ZM2310.51 1315C2305.82 1315 2302 1318.82 2302 1323.51 2302 1328.18 2305.82 1332 2310.51 1332 2315.18 1332 2319 1328.18 2319 1323.51 2319 1318.82 2315.18 1315 2310.51 1315Z" fill="#2AB5E8" fill-rule="evenodd"/><path d="M2263.5 1305.69C2265.73 1305.69 2267.71 1307.37 2268.09 1309.7 2268.3 1310.97 2268.01 1312.25 2267.3 1313.28 2266.58 1314.33 2265.5 1315.03 2264.27 1315.25 2264.02 1315.29 2263.76 1315.31 2263.51 1315.31 2262.54 1315.31 2261.59 1314.99 2260.8 1314.41 2259.78 1313.67 2259.12 1312.56 2258.91 1311.3 2258.7 1310.03 2258.99 1308.77 2259.7 1307.72 2260.42 1306.67 2261.5 1305.99 2262.73 1305.77 2262.99 1305.71 2263.25 1305.69 2263.5 1305.69ZM2263.49 1302C2263.04 1302 2262.59 1302.04 2262.14 1302.11 2259.97 1302.5 2258.06 1303.73 2256.78 1305.58 2255.51 1307.43 2255 1309.66 2255.38 1311.9 2255.74 1314.14 2256.93 1316.1 2258.72 1317.42 2260.14 1318.46 2261.78 1319 2263.48 1319 2263.93 1319 2264.41 1318.96 2264.86 1318.86 2267.03 1318.49 2268.94 1317.27 2270.22 1315.42 2271.49 1313.57 2272 1311.34 2271.62 1309.1 2270.96 1304.94 2267.44 1302 2263.49 1302Z" fill="#2AB5E8" fill-rule="evenodd"/></g></svg>