<svg width="91" height="124" xmlns="http://www.w3.org/2000/svg" xmlns:xlink="http://www.w3.org/1999/xlink" xml:space="preserve" overflow="hidden"><defs><clipPath id="clip0"><rect x="2248" y="603" width="91" height="124"/></clipPath></defs><g clip-path="url(#clip0)" transform="translate(-2248 -603)"><path d="M2291.46 641.749C2310.45 641.749 2325.95 651.781 2331.89 667.952 2333.02 670.983 2332.67 674.054 2330.92 676.576 2329.25 678.981 2326.71 680.193 2323.37 680.193 2320.3 680.193 2317.69 681.25 2315.85 683.244 2313.64 685.61 2312.51 689.247 2312.51 694.078L2312.45 695.251 2307.44 695.251C2307.21 689.365 2304.18 685.317 2298.39 683.225 2293.18 681.328 2285.86 680.937 2276.5 680.937L2268.95 680.937C2263.18 680.937 2258.05 677.769 2255.58 672.685 2253.1 667.561 2253.72 661.578 2257.22 657.041 2264.85 647.185 2277.01 641.749 2291.46 641.749ZM2291.46 636.001C2275.2 636.001 2261.43 642.219 2252.71 653.521 2247.87 659.798 2247 668.109 2250.46 675.207 2253.9 682.286 2260.96 686.686 2268.93 686.686L2276.5 686.686C2298.1 686.686 2301.75 689.56 2301.75 695.994L2301.75 698.125C2301.75 699.709 2303.03 701 2304.6 701L2315.21 701C2316.74 701 2318.01 699.768 2318.06 698.223L2318.2 694.253 2318.2 694.136C2318.2 685.943 2321.81 685.943 2323.35 685.943 2328.61 685.943 2332.84 683.831 2335.6 679.842 2338.4 675.794 2339 670.749 2337.25 665.958 2330.45 647.479 2312.9 636.001 2291.46 636.001Z" fill="#2AB5E8" fill-rule="evenodd"/><path d="M2325.4 656C2324.92 656 2324.44 656.27 2324.18 656.75 2320.65 663.088 2313.19 663.963 2309.36 663.963 2309.04 663.963 2308.75 663.957 2308.48 663.948 2308.47 663.947 2308.46 663.947 2308.44 663.947 2307.69 663.947 2307.06 664.599 2307.02 665.412 2307 666.257 2307.61 666.958 2308.38 666.979 2308.75 667 2309.11 667 2309.48 667 2317.3 667 2323.5 663.865 2326.6 658.297 2327 657.575 2326.79 656.647 2326.12 656.214 2325.89 656.069 2325.64 656 2325.4 656Z" fill="#2AB5E8" fill-rule="evenodd"/><path d="M2308.72 644C2307.95 644 2307.32 644.595 2307.26 645.356 2307.16 647.201 2307.4 648.849 2307.59 650.163 2307.79 651.557 2307.95 652.695 2307.63 653.284 2307.29 653.422 2306.57 653.47 2305.7 653.47 2304.37 653.47 2302.68 653.355 2301.47 653.284 2299.89 653.177 2298.59 653.098 2297.52 653.098 2295.44 653.098 2294.27 653.402 2293.73 654.402 2292 657.659 2293.32 664.998 2293.48 665.823 2293.59 666.529 2294.21 667 2294.89 667 2294.97 667 2295.07 667 2295.15 666.98 2295.94 666.843 2296.45 666.078 2296.31 665.293 2295.82 662.702 2295.39 658.052 2296.13 656.05 2296.43 655.993 2296.89 655.971 2297.44 655.971 2298.58 655.971 2300.11 656.069 2301.27 656.148 2302.96 656.26 2304.4 656.346 2305.59 656.346 2307.77 656.346 2309.17 656.059 2309.88 655.108 2311 653.617 2310.72 651.733 2310.45 649.751 2310.27 648.495 2310.07 647.083 2310.15 645.513 2310.19 644.728 2309.58 644.041 2308.79 644.002 2308.77 644 2308.75 644 2308.72 644Z" fill="#2AB5E8" fill-rule="evenodd"/><path d="M2314.95 663C2314.13 663 2313.41 663.591 2313.33 664.392 2313 667.629 2313.66 672.444 2313.7 672.654 2313.81 673.432 2314.49 673.999 2315.27 673.999 2315.36 673.999 2315.43 673.999 2315.49 673.979 2316.39 673.873 2317 673.095 2316.87 672.234 2316.87 672.192 2316.21 667.566 2316.52 664.707 2316.61 663.846 2315.95 663.088 2315.08 663.005 2315.03 663.001 2314.99 663 2314.95 663Z" fill="#2AB5E8" fill-rule="evenodd"/><path d="M2277.45 642C2276.65 642 2276 642.651 2276 643.458 2276 652.05 2276.96 657.648 2279.19 662.121 2280.83 665.451 2290.44 676.999 2294.57 676.999 2295.35 676.999 2295.98 676.369 2296 675.581 2296 674.772 2295.35 674.122 2294.57 674.102 2292.63 674.063 2283.77 664.88 2281.75 660.84 2280.34 657.962 2278.88 653.667 2278.88 643.458 2278.88 642.651 2278.23 642 2277.45 642Z" fill="#2AB5E8" fill-rule="evenodd"/><path d="M2261.67 651.001C2261.32 651.001 2260.96 651.114 2260.68 651.345 2260.06 651.847 2260 652.721 2260.55 653.28 2261.78 654.526 2263.11 655.624 2264.4 656.703 2267.25 659.084 2269.72 661.131 2269.95 663.735 2270.01 664.442 2270.67 664.981 2271.44 664.981L2271.44 665C2271.48 665 2271.53 664.981 2271.57 664.981 2272.39 664.925 2273 664.274 2272.94 663.512 2272.63 659.847 2269.62 657.335 2266.43 654.675 2265.2 653.651 2263.93 652.591 2262.8 651.456 2262.51 651.155 2262.09 651.001 2261.67 651.001Z" fill="#2AB5E8" fill-rule="evenodd"/><path d="M2288.27 670.001C2287.91 670.001 2287.54 670.116 2287.24 670.35 2285.12 671.983 2282 677.014 2282 682.614 2282 683.373 2282.7 684 2283.57 684 2284.42 684 2285.12 683.373 2285.12 682.614 2285.12 677.773 2287.88 673.539 2289.28 672.457 2289.94 671.944 2290 671.071 2289.45 670.483 2289.14 670.163 2288.71 670.001 2288.27 670.001Z" fill="#2AB5E8" fill-rule="evenodd"/><path d="M2290.68 641.001C2289.92 641.001 2289.27 641.563 2289.24 642.323 2289.18 643.146 2289 647.301 2290.08 649.254 2290.34 649.732 2290.83 650 2291.34 650 2291.58 650 2291.82 649.943 2292.03 649.828 2292.74 649.464 2293 648.621 2292.63 647.932 2292.11 646.995 2292.02 644.18 2292.11 642.476 2292.17 641.711 2291.56 641.041 2290.75 641.002 2290.73 641.001 2290.7 641.001 2290.68 641.001Z" fill="#2AB5E8" fill-rule="evenodd"/><path d="M2266.62 671C2262.44 671 2259.03 674.019 2256.53 676.66 2256 677.227 2256.02 678.094 2256.57 678.622 2256.83 678.868 2257.17 679 2257.53 679 2257.88 679 2258.24 678.868 2258.52 678.566 2260.65 676.339 2263.5 673.773 2266.62 673.773 2267.38 673.773 2268 673.151 2268 672.377 2268 671.604 2267.38 671 2266.62 671Z" fill="#2AB5E8" fill-rule="evenodd"/><path d="M2305.43 674.001C2305.41 674.001 2305.38 674.001 2305.36 674.003 2304.59 674.061 2304 674.726 2304.06 675.527 2304.25 679.201 2311.03 684.869 2313.62 686.746 2313.86 686.922 2314.15 687 2314.41 687 2314.85 687 2315.28 686.784 2315.55 686.374 2316 685.729 2315.83 684.83 2315.21 684.381 2310.99 681.331 2306.91 676.953 2306.82 675.351 2306.78 674.593 2306.16 674.001 2305.43 674.001Z" fill="#2AB5E8" fill-rule="evenodd"/><path d="M2277.42 619.001C2276.64 619.001 2276 619.605 2276 620.379L2276 626.97C2276 627.726 2276.64 628.348 2277.42 628.348L2283.15 628.348 2283.15 637.602C2283.15 638.377 2283.79 639 2284.58 639 2285.38 639 2286 638.377 2286 637.602L2286 626.97C2286 626.196 2285.38 625.572 2284.58 625.572L2278.85 625.572 2278.85 620.379C2278.85 619.605 2278.21 619.001 2277.42 619.001Z" fill="#2AB5E8" fill-rule="evenodd"/><path d="M2284.51 684C2283.67 684 2283 684.657 2283 685.473L2283 711.526C2283 712.343 2283.67 712.999 2284.51 712.999 2285.35 712.999 2286 712.343 2286 711.526L2286 685.473C2286 684.657 2285.35 684 2284.51 684Z" fill="#2AB5E8" fill-rule="evenodd"/><path d="M2277.53 682C2276.74 682 2276.08 682.657 2276.08 683.472L2276.08 691.308 2263.53 691.308C2262.73 691.308 2262.08 691.944 2262.08 692.74L2262 698.527C2262 699.323 2262.64 699.999 2263.45 699.999L2263.47 699.999C2264.26 699.999 2264.9 699.363 2264.92 698.568L2264.98 694.232 2277.53 694.232C2278.34 694.232 2279 693.575 2279 692.76L2279 683.472C2279 682.657 2278.34 682 2277.53 682Z" fill="#2AB5E8" fill-rule="evenodd"/><path d="M2277.5 607.45C2279.87 607.45 2281.8 609.485 2281.8 612 2281.8 614.514 2279.87 616.57 2277.5 616.57 2275.13 616.57 2273.18 614.514 2273.18 612 2273.18 609.485 2275.13 607.45 2277.5 607.45ZM2277.5 603C2272.81 603 2269 607.031 2269 612 2269 616.969 2272.81 621 2277.5 621 2282.19 621 2286 616.969 2286 612 2286 607.031 2282.17 603 2277.5 603Z" fill="#2AB5E8" fill-rule="evenodd"/><path d="M2256.42 624C2255.64 624 2255 624.619 2255 625.369L2255 632.737C2255 633.506 2255.64 634.125 2256.42 634.125L2276.15 634.125 2276.15 640.631C2276.15 641.381 2276.79 642 2277.56 642 2278.36 642 2279 641.381 2279 640.631L2279 632.737C2279 631.987 2278.36 631.369 2277.56 631.369L2257.85 631.369 2257.85 625.369C2257.85 624.619 2257.21 624 2256.42 624Z" fill="#2AB5E8" fill-rule="evenodd"/><path d="M2256.5 614.199C2258.87 614.199 2260.82 616.119 2260.82 618.491 2260.82 620.862 2258.87 622.802 2256.5 622.802 2254.12 622.802 2252.2 620.862 2252.2 618.491 2252.2 616.119 2254.12 614.199 2256.5 614.199ZM2256.5 610C2251.81 610 2248 613.822 2248 618.509 2248 623.178 2251.81 626.999 2256.5 626.999 2261.19 626.999 2265 623.178 2265 618.509 2265 613.822 2261.19 610 2256.5 610Z" fill="#2AB5E8" fill-rule="evenodd"/><path d="M2316.53 618.001C2315.72 618.001 2315.08 618.626 2315.08 619.404L2315.08 625.55 2291.47 625.55C2290.65 625.55 2290 626.177 2290 626.954L2290 637.615C2290 638.374 2290.65 639 2291.47 639 2292.28 639 2292.92 638.374 2292.92 637.615L2292.92 628.339 2316.53 628.339C2317.35 628.339 2318 627.713 2318 626.954L2318 619.404C2318 618.626 2317.35 618.001 2316.53 618.001Z" fill="#2AB5E8" fill-rule="evenodd"/><path d="M2298.42 631.001C2297.64 631.001 2297 631.655 2297 632.45L2297 637.551C2297 638.345 2297.64 639 2298.42 639 2299.22 639 2299.87 638.345 2299.87 637.551L2299.87 633.918 2323.56 633.918C2324.36 633.918 2325 633.264 2325 632.45 2325 631.655 2324.36 631.001 2323.56 631.001Z" fill="#2AB5E8" fill-rule="evenodd"/><path d="M2330.5 628.45C2332.88 628.45 2334.82 630.486 2334.82 633 2334.82 635.514 2332.88 637.57 2330.5 637.57 2328.13 637.57 2326.2 635.514 2326.2 633 2326.2 630.486 2328.13 628.45 2330.5 628.45ZM2330.5 624C2325.81 624 2322 628.031 2322 633 2322 637.969 2325.81 642 2330.5 642 2335.19 642 2339 637.969 2339 633 2339 628.031 2335.19 624 2330.5 624Z" fill="#2AB5E8" fill-rule="evenodd"/><path d="M2316 608.198C2318.52 608.198 2320.57 610.119 2320.57 612.51 2320.57 614.882 2318.52 616.802 2316 616.802 2313.49 616.802 2311.45 614.882 2311.45 612.51 2311.45 610.119 2313.49 608.198 2316 608.198ZM2316 604C2311.05 604 2307 607.822 2307 612.51 2307 617.178 2311.05 621 2316 621 2320.97 621 2325 617.178 2325 612.51 2325 607.822 2320.97 604 2316 604Z" fill="#2AB5E8" fill-rule="evenodd"/><path d="M2284.5 714.198C2286.87 714.198 2288.8 716.137 2288.8 718.509 2288.8 720.881 2286.87 722.801 2284.5 722.801 2282.13 722.801 2280.18 720.881 2280.18 718.509 2280.18 716.137 2282.13 714.198 2284.5 714.198ZM2284.5 710C2279.81 710 2276 713.821 2276 718.509 2276 723.178 2279.81 726.999 2284.5 726.999 2289.19 726.999 2293 723.178 2293 718.509 2293 713.821 2289.19 710 2284.5 710Z" fill="#2AB5E8" fill-rule="evenodd"/><path d="M2291.46 684C2290.65 684 2290 684.657 2290 685.473L2290 705.834C2290 706.212 2290.16 706.591 2290.43 706.869 2290.71 707.148 2291.06 707.287 2291.46 707.287L2309.1 707.247 2309.1 711.526C2309.1 712.343 2309.75 712.999 2310.56 712.999 2311.35 712.999 2312 712.343 2312 711.526L2312 705.774C2312 705.397 2311.84 705.018 2311.57 704.74 2311.31 704.481 2310.94 704.322 2310.56 704.322L2310.54 704.322 2292.9 704.361 2292.9 685.473C2292.9 684.657 2292.25 684 2291.46 684Z" fill="#2AB5E8" fill-rule="evenodd"/><path d="M2310.01 714.184C2312.52 714.184 2314.55 716.125 2314.55 718.5 2314.55 720.875 2312.52 722.797 2310.01 722.797 2307.5 722.797 2305.45 720.875 2305.45 718.5 2305.45 716.125 2307.5 714.184 2310.01 714.184ZM2310.01 710C2305.05 710 2301 713.807 2301 718.5 2301 723.193 2305.05 726.999 2310.01 726.999 2314.95 726.999 2319 723.193 2319 718.5 2319 713.807 2314.95 710 2310.01 710Z" fill="#2AB5E8" fill-rule="evenodd"/><path d="M2263.73 701.19C2264.67 701.19 2265.59 701.473 2266.37 702 2267.37 702.66 2268.02 703.658 2268.22 704.789 2268.42 705.919 2268.15 707.068 2267.45 708.01 2266.73 708.933 2265.69 709.554 2264.47 709.743 2264.22 709.783 2263.96 709.802 2263.71 709.802 2262.77 709.802 2261.86 709.528 2261.07 709.008 2260.07 708.349 2259.41 707.35 2259.22 706.22 2259.02 705.09 2259.29 703.941 2259.99 702.999 2260.71 702.076 2261.75 701.454 2262.97 701.266 2263.23 701.209 2263.47 701.19 2263.73 701.19ZM2263.76 697.001C2263.25 697.001 2262.74 697.041 2262.23 697.121 2257.34 697.894 2254 702.283 2254.84 706.917 2255.24 709.158 2256.54 711.118 2258.5 712.418 2260.03 713.452 2261.85 713.998 2263.7 714L2263.7 714C2264.22 713.999 2264.71 713.962 2265.21 713.887 2267.59 713.51 2269.66 712.285 2271.06 710.44 2272.46 708.594 2273 706.333 2272.6 704.092 2272.22 701.85 2270.9 699.89 2268.94 698.572 2267.41 697.537 2265.61 697.001 2263.76 697.001ZM2263.7 714C2263.7 714 2263.69 714 2263.69 714L2263.71 714C2263.71 714 2263.7 714 2263.7 714Z" fill="#2AB5E8" fill-rule="evenodd"/></g></svg>