<svg width="92" height="71" xmlns="http://www.w3.org/2000/svg" xmlns:xlink="http://www.w3.org/1999/xlink" xml:space="preserve" overflow="hidden"><defs><clipPath id="clip0"><rect x="2817" y="1234" width="92" height="71"/></clipPath></defs><g clip-path="url(#clip0)" transform="translate(-2817 -1234)"><path d="M2899.06 1305 2826.94 1305C2821.46 1305 2817.02 1300.56 2817 1295.08L2817 1243.95C2817 1238.46 2821.45 1234 2826.94 1234L2899.06 1234C2904.55 1234 2909 1238.46 2909 1243.95L2909 1295.08C2908.98 1300.56 2904.54 1305 2899.06 1305ZM2826.94 1238.55C2823.98 1238.53 2821.56 1240.92 2821.54 1243.89 2821.54 1243.91 2821.54 1243.93 2821.54 1243.95L2821.54 1295.08C2821.61 1298.01 2824.01 1300.36 2826.94 1300.36L2899.06 1300.36C2902.03 1300.34 2904.44 1297.93 2904.46 1294.95L2904.46 1243.95C2904.46 1240.97 2902.04 1238.55 2899.06 1238.55Z" fill="#29B5E8" fill-rule="evenodd"/><path d="M2844.72 1282C2844.28 1282 2843.86 1281.87 2843.5 1281.63L2829.06 1272.51C2828.4 1272.1 2828 1271.38 2828 1270.61 2828.03 1269.85 2828.42 1269.15 2829.06 1268.74L2843.47 1259.37C2843.84 1259.13 2844.27 1259 2844.72 1259 2845.5 1259.01 2846.22 1259.41 2846.65 1260.06 2847.31 1261.11 2847.01 1262.5 2845.96 1263.18L2834.58 1270.58 2845.93 1277.76C2847 1278.45 2847.3 1279.88 2846.61 1280.95 2846.19 1281.59 2845.48 1281.99 2844.72 1282Z" fill="#29B5E8" fill-rule="evenodd"/><path d="M2881.32 1282C2880.05 1281.97 2879.04 1280.92 2879.06 1279.64 2879.07 1278.88 2879.47 1278.17 2880.1 1277.75L2891.43 1270.58 2880.07 1263.21C2879.01 1262.55 2878.68 1261.14 2879.34 1260.08 2879.77 1259.39 2880.52 1258.98 2881.32 1259 2881.76 1259 2882.19 1259.13 2882.56 1259.38L2896.94 1268.74C2897.6 1269.17 2898 1269.91 2898 1270.7 2897.99 1271.48 2897.58 1272.2 2896.91 1272.6L2882.53 1281.71C2882.16 1281.93 2881.74 1282.02 2881.32 1282Z" fill="#29B5E8" fill-rule="evenodd"/><path d="M2872.7 1280.87C2872.27 1281.65 2871.29 1281.94 2870.5 1281.52 2870.49 1281.51 2870.48 1281.51 2870.47 1281.5L2867.3 1279.66 2867.3 1283.35C2867.26 1284.27 2866.5 1285 2865.58 1285 2864.67 1285.02 2863.92 1284.29 2863.9 1283.38 2863.9 1283.37 2863.9 1283.36 2863.9 1283.35L2863.9 1276.76C2863.88 1275.85 2864.58 1275.08 2865.49 1275.01 2865.81 1275.03 2866.14 1275.1 2866.44 1275.24L2872.09 1278.42C2872.91 1278.82 2873.24 1279.82 2872.84 1280.63 2872.8 1280.71 2872.75 1280.79 2872.7 1280.87ZM2863.64 1271.33C2863.62 1271.46 2863.54 1271.57 2863.42 1271.64L2862.79 1272.34C2862.79 1272.34 2862.56 1272.34 2862.47 1272.34 2862.37 1272.34 2862.25 1272.34 2862.15 1272.34L2861.52 1271.64C2861.52 1271.64 2861.52 1271.42 2861.52 1271.33 2861.48 1271.22 2861.48 1271.11 2861.52 1271.01L2862.15 1270.4C2862.34 1270.27 2862.59 1270.27 2862.79 1270.4L2863.42 1271.01C2863.42 1271.01 2863.64 1271.33 2863.64 1271.42ZM2865.68 1271.74 2865.68 1271.01C2865.68 1271.01 2865.68 1270.82 2865.68 1270.72L2863.23 1268.34 2863.04 1268.34 2862.28 1268.34C2862.18 1268.29 2862.06 1268.29 2861.96 1268.34L2859.61 1270.72C2859.57 1270.81 2859.57 1270.92 2859.61 1271.01L2859.61 1271.74C2859.57 1271.84 2859.57 1271.95 2859.61 1272.06L2861.96 1274.41 2862.28 1274.41 2863.04 1274.41 2863.23 1274.41 2865.68 1272.06C2865.68 1272.06 2865.68 1271.93 2865.68 1271.83ZM2857.26 1272.88 2851.51 1276.06C2850.72 1276.5 2849.72 1276.23 2849.25 1275.46 2848.79 1274.7 2849.02 1273.7 2849.79 1273.23 2849.82 1273.21 2849.85 1273.19 2849.89 1273.17L2853.07 1271.33 2849.89 1269.48C2849.06 1269.03 2848.76 1268 2849.21 1267.18 2849.65 1266.35 2850.68 1266.04 2851.51 1266.49L2857.26 1269.67C2857.65 1269.88 2857.91 1270.26 2857.99 1270.69 2857.99 1270.69 2857.99 1271.01 2857.99 1271.1 2858.05 1271.27 2858.05 1271.45 2857.99 1271.61 2857.97 1272.16 2857.7 1272.66 2857.26 1272.98ZM2861.2 1276.57 2861.2 1283.16C2861.15 1284.07 2860.39 1284.78 2859.48 1284.78 2858.59 1284.81 2857.83 1284.12 2857.8 1283.22 2857.8 1283.2 2857.8 1283.18 2857.8 1283.16L2857.8 1279.53 2854.62 1281.41C2853.85 1281.93 2852.8 1281.73 2852.28 1280.95 2851.76 1280.18 2851.97 1279.14 2852.74 1278.61 2852.79 1278.58 2852.85 1278.54 2852.91 1278.51L2858.66 1275.33C2858.96 1275.19 2859.3 1275.11 2859.64 1275.11 2860.44 1275.24 2861.07 1275.87 2861.2 1276.67ZM2863.87 1266.08 2863.87 1259.62C2863.86 1258.73 2864.59 1258 2865.48 1258 2865.51 1258 2865.53 1258 2865.55 1258 2866.49 1257.97 2867.28 1258.69 2867.33 1259.62L2867.33 1263.31 2870.5 1261.47C2871.29 1261.07 2872.25 1261.33 2872.73 1262.07 2873.22 1262.84 2872.99 1263.86 2872.22 1264.35 2872.18 1264.38 2872.14 1264.4 2872.09 1264.42L2866.44 1267.61C2866.13 1267.71 2865.81 1267.78 2865.49 1267.8 2864.61 1267.75 2863.91 1267.05 2863.87 1266.17ZM2852.24 1262.07C2852.73 1261.25 2853.8 1260.98 2854.62 1261.47L2857.8 1263.31 2857.8 1259.62C2858.05 1258.75 2858.96 1258.24 2859.84 1258.49 2860.39 1258.64 2860.82 1259.07 2860.97 1259.62L2860.97 1266.21C2861.03 1267.06 2860.38 1267.8 2859.52 1267.86 2859.51 1267.86 2859.49 1267.86 2859.48 1267.86 2859.14 1267.94 2858.78 1267.87 2858.5 1267.67L2852.75 1264.49C2851.96 1264.03 2851.68 1263.02 2852.14 1262.23 2852.17 1262.18 2852.2 1262.12 2852.24 1262.07ZM2875.14 1269.58 2871.97 1271.42 2875.14 1273.27C2875.96 1273.76 2876.24 1274.81 2875.78 1275.65 2875.24 1276.39 2874.25 1276.64 2873.43 1276.25L2867.68 1273.07C2867.34 1272.8 2867.09 1272.44 2866.95 1272.03 2866.94 1271.86 2866.94 1271.69 2866.95 1271.52 2866.95 1271.52 2866.95 1271.2 2866.95 1271.1 2867.09 1270.7 2867.34 1270.35 2867.68 1270.09L2873.43 1266.91C2874.28 1266.51 2875.3 1266.83 2875.78 1267.64 2876.09 1268.35 2875.82 1269.19 2875.14 1269.58Z" fill="#29B5E8" fill-rule="evenodd"/></g></svg>