<svg width="92" height="71" xmlns="http://www.w3.org/2000/svg" xmlns:xlink="http://www.w3.org/1999/xlink" xml:space="preserve" overflow="hidden"><defs><clipPath id="clip0"><rect x="2817" y="630" width="92" height="71"/></clipPath></defs><g clip-path="url(#clip0)" transform="translate(-2817 -630)"><path d="M2899.06 701 2826.94 701C2821.46 700.974 2817.03 696.533 2817 691.048L2817 639.952C2817.03 634.467 2821.46 630.026 2826.94 630L2899.06 630C2904.54 630.026 2908.97 634.467 2909 639.952L2909 691.048C2908.97 696.533 2904.54 700.974 2899.06 701ZM2826.94 634.762C2824.13 634.883 2821.88 637.138 2821.75 639.952L2821.75 691.048C2821.65 694.029 2823.96 696.538 2826.94 696.667L2899.06 696.667C2902.02 696.641 2904.41 694.247 2904.44 691.286L2904.44 639.952C2904.31 637.066 2901.95 634.785 2899.06 634.762Z" fill="#29B5E8" fill-rule="evenodd"/><path d="M2847.65 676C2847.21 675.99 2846.78 675.864 2846.41 675.635L2832.06 666.917C2830.99 666.268 2830.68 664.914 2831.36 663.893 2831.54 663.622 2831.78 663.392 2832.06 663.22L2846.41 654.32C2846.79 654.107 2847.22 653.996 2847.65 654 2848.43 653.988 2849.16 654.37 2849.57 655.005 2850.25 656.029 2849.95 657.386 2848.9 658.063L2837.47 665.046 2848.9 671.938C2849.98 672.566 2850.32 673.914 2849.67 674.948 2849.24 675.616 2848.47 676.017 2847.65 676Z" fill="#29B5E8" fill-rule="evenodd"/><path d="M2860.18 683 2859.68 683C2858.54 682.747 2857.8 681.566 2858.05 680.363 2858.05 680.342 2858.05 680.321 2858.06 680.301L2864.7 649.8C2864.91 648.749 2865.79 647.999 2866.82 648L2867.31 648C2868.48 648.279 2869.21 649.498 2868.95 650.722 2868.94 650.73 2868.94 650.739 2868.94 650.747L2862.17 681.201C2861.97 682.201 2861.15 682.937 2860.18 683Z" fill="#29B5E8" fill-rule="evenodd"/><path d="M2880.21 676C2879.45 675.992 2878.75 675.597 2878.35 674.953 2877.7 673.964 2877.98 672.637 2878.96 671.988 2878.98 671.974 2879.01 671.96 2879.03 671.946L2889.87 665.069 2878.98 658.054C2877.98 657.379 2877.7 656.024 2878.35 655.002 2878.74 654.376 2879.43 653.997 2880.16 654 2880.6 654.001 2881.02 654.128 2881.39 654.365L2894.99 663.246C2896.01 663.895 2896.31 665.246 2895.66 666.265 2895.49 666.535 2895.26 666.764 2894.99 666.936L2881.39 675.636C2881.04 675.874 2880.63 676.001 2880.21 676Z" fill="#29B5E8" fill-rule="evenodd"/></g></svg>