<svg width="102" height="111" xmlns="http://www.w3.org/2000/svg" xmlns:xlink="http://www.w3.org/1999/xlink" xml:space="preserve" overflow="hidden"><defs><clipPath id="clip0"><rect x="1976" y="610" width="102" height="111"/></clipPath></defs><g clip-path="url(#clip0)" transform="translate(-1976 -610)"><path d="M2059.74 679.861 2055.06 677.071C2056.94 673.274 2057.93 669.134 2057.94 664.94 2057.95 660.436 2056.85 655.994 2054.74 651.959L2059.48 649.351C2060.72 648.695 2061.16 647.216 2060.47 646.048 2060.46 646.037 2060.45 646.026 2060.45 646.015 2059.73 644.861 2058.15 644.477 2056.93 645.157 2056.93 645.16 2056.92 645.163 2056.92 645.166L2052.04 647.835C2046.79 640.849 2038.55 636.41 2029.52 635.703L2029.52 630.426C2029.52 629.086 2028.37 628 2026.96 628 2025.54 628 2024.39 629.086 2024.39 630.426L2024.39 635.946C2015.24 636.672 2006.9 641.234 2001.68 648.38L1996.87 645.772C1995.63 645.102 1994.05 645.51 1993.34 646.682 1992.63 647.854 1993.06 649.348 1994.3 650.018L1999.05 652.808C1997.16 656.604 1996.15 660.742 1996.1 664.94 1996.09 669.45 1997.21 673.899 1999.37 677.92L1994.75 680.649C1993.53 681.33 1993.13 682.818 1993.85 683.971 1993.85 683.976 1993.85 683.98 1993.85 683.985 1994.31 684.753 1995.17 685.22 1996.1 685.198 1996.55 685.184 1997 685.058 1997.38 684.835L2002.19 682.226C2007.43 689.162 2015.61 693.592 2024.58 694.357L2024.58 699.574C2024.58 700.914 2025.73 702 2027.15 702 2028.57 702 2029.72 700.914 2029.72 699.574L2029.72 694.357C2038.95 693.521 2047.3 688.827 2052.49 681.559L2057.11 684.107C2057.51 684.286 2057.95 684.389 2058.39 684.41 2059.81 684.432 2060.98 683.363 2061 682.023 2061.02 681.127 2060.51 680.295 2059.68 679.861ZM2026.83 689.202C2012.66 689.188 2001.18 678.314 2001.19 664.914 2001.2 660.664 2002.38 656.489 2004.63 652.808L2004.63 652.808 2004.63 652.808C2011.62 641.15 2027.28 637.055 2039.61 643.661 2047.71 647.999 2052.68 656.141 2052.62 664.94 2052.73 669.168 2051.67 673.35 2049.54 677.071L2049.54 677.071 2049.54 677.071C2044.87 684.722 2036.17 689.368 2026.83 689.202Z" fill="#29B5E8" fill-rule="evenodd"/><path d="M2027.31 625.998C2032 626.098 2035.89 622.599 2036 618.182 2036.1 613.765 2032.39 610.103 2027.69 610.002 2023 609.902 2019.11 613.401 2019 617.819 2019 617.898 2019 617.979 2019 618.059 2019.03 622.383 2022.71 625.9 2027.31 625.998ZM2027.31 614.907C2029.16 614.874 2030.68 616.257 2030.72 617.997 2030.76 619.738 2029.28 621.176 2027.44 621.209 2025.59 621.242 2024.06 619.859 2024.02 618.119 2024.02 618.099 2024.02 618.079 2024.02 618.059 2023.99 616.352 2025.43 614.941 2027.24 614.908 2027.26 614.907 2027.29 614.907 2027.31 614.907Z" fill="#29B5E8" fill-rule="evenodd"/><path d="M1984.56 634C1979.87 633.967 1976.04 637.521 1976 641.939 1975.96 646.358 1979.74 649.966 1984.44 650 1989.13 650.034 1992.96 646.479 1993 642.061 1993 642.041 1993 642.02 1993 642 1993 637.605 1989.23 634.033 1984.56 634ZM1984.56 645.091C1982.72 645.124 1981.19 643.74 1981.15 642 1981.12 640.26 1982.59 638.822 1984.44 638.789 1986.29 638.756 1987.81 640.14 1987.85 641.88 1987.85 641.92 1987.85 641.96 1987.85 642 1987.85 643.707 1986.38 645.091 1984.56 645.091Z" fill="#29B5E8" fill-rule="evenodd"/><path d="M1984.56 681C1979.87 680.967 1976.04 684.521 1976 688.94 1975.96 693.358 1979.74 696.967 1984.44 697 1989.13 697.033 1992.96 693.479 1993 689.06 1993 689.02 1993 688.98 1993 688.94 1992.96 684.569 1989.21 681.033 1984.56 681ZM1984.56 692.091C1982.72 692.125 1981.19 690.741 1981.15 689.001 1981.12 687.261 1982.59 685.823 1984.44 685.789 1986.28 685.756 1987.81 687.14 1987.85 688.88 1987.85 688.9 1987.85 688.92 1987.85 688.94 1987.85 690.657 1986.39 692.059 1984.56 692.091Z" fill="#29B5E8" fill-rule="evenodd"/><path d="M2069.5 650C2074.19 650 2078 646.418 2078 642 2078 637.582 2074.19 634 2069.5 634 2064.81 634 2061 637.582 2061 642 2061 646.418 2064.81 650 2069.5 650ZM2069.5 638.909C2071.35 638.909 2072.85 640.321 2072.85 642.061 2072.85 643.802 2071.35 645.213 2069.5 645.212 2067.65 645.212 2066.15 643.801 2066.15 642.06 2066.15 642.04 2066.15 642.02 2066.15 642 2066.15 640.293 2067.62 638.909 2069.44 638.908 2069.46 638.908 2069.48 638.909 2069.5 638.909Z" fill="#29B5E8" fill-rule="evenodd"/><path d="M2069.5 681C2064.81 681 2061 684.582 2061 689 2061 693.419 2064.81 697 2069.5 697 2074.2 697 2078 693.418 2078 689 2078 688.98 2078 688.959 2078 688.939 2077.96 684.545 2074.17 681 2069.5 681ZM2069.5 692.091C2067.65 692.124 2066.12 690.741 2066.09 689.001 2066.05 687.261 2067.52 685.822 2069.37 685.789 2071.22 685.756 2072.75 687.139 2072.78 688.879 2072.78 688.9 2072.78 688.92 2072.78 688.939 2072.78 690.656 2071.32 692.058 2069.5 692.091Z" fill="#29B5E8" fill-rule="evenodd"/><path d="M2027 705C2022.58 705 2019 708.582 2019 713 2019 717.418 2022.58 721 2027 721 2031.42 721 2035 717.418 2035 713 2035 708.582 2031.42 705 2027 705ZM2027 716.091C2025.29 716.091 2023.91 714.707 2023.91 713 2023.91 711.293 2025.29 709.909 2027 709.909 2028.71 709.909 2030.09 711.293 2030.09 713 2030.09 714.707 2028.71 716.091 2027 716.091Z" fill="#29B5E8" fill-rule="evenodd"/><path d="M2040.04 625.674 2055.26 635.559C2055.66 635.854 2056.14 636.009 2056.63 636 2057.46 635.909 2058.19 635.417 2058.61 634.677 2059.34 633.542 2059.02 632.021 2057.91 631.279 2057.87 631.257 2057.84 631.235 2057.8 631.215L2042.82 621.393C2041.66 620.645 2040.12 620.997 2039.39 622.18 2038.65 623.362 2039 624.927 2040.16 625.674Z" fill="#29B5E8" fill-rule="evenodd"/><path d="M1997.64 636C1998.15 636.009 1998.64 635.854 1999.05 635.561L2014.76 625.721C2015.99 624.975 2016.37 623.392 2015.61 622.184 2015.6 622.172 2015.59 622.16 2015.59 622.148 2014.8 620.986 2013.21 620.653 2012.01 621.396L1996.3 631.362C1995.11 632.021 1994.66 633.486 1995.28 634.683 1995.76 635.51 1996.67 636.014 1997.64 636Z" fill="#29B5E8" fill-rule="evenodd"/><path d="M1986 673.828 1986 655.51C1986.03 654.16 1984.98 653.036 1983.66 653.001 1983.61 653 1983.57 653 1983.53 653.001 1982.17 652.966 1981.03 654.061 1981 655.447 1981 655.468 1981 655.489 1981 655.51L1981 673.828C1981.22 675.232 1982.51 676.19 1983.89 675.969 1984.98 675.795 1985.83 674.931 1986 673.828Z" fill="#29B5E8" fill-rule="evenodd"/><path d="M2067 655.473 2067 673.527C2067 674.893 2068.12 676 2069.5 676 2070.88 676 2072 674.893 2072 673.527L2072 655.473C2072 654.107 2070.88 653 2069.5 653 2068.12 653 2067 654.107 2067 655.473Z" fill="#29B5E8" fill-rule="evenodd"/><path d="M2055.1 695.366 2039.17 704.651C2037.99 705.353 2037.65 706.795 2038.4 707.883 2038.88 708.56 2039.7 708.977 2040.58 709 2041.07 709.009 2041.55 708.864 2041.93 708.589L2057.8 699.362C2059 698.665 2059.36 697.204 2058.6 696.101 2057.84 694.997 2056.24 694.669 2055.04 695.366Z" fill="#29B5E8" fill-rule="evenodd"/><path d="M2014.87 704.721 1999.1 695.467C1997.98 694.692 1996.38 694.903 1995.53 695.939 1995.49 695.995 1995.44 696.052 1995.4 696.112 1994.65 697.214 1994.99 698.67 1996.17 699.391L2011.93 708.586C2012.32 708.86 2012.79 709.005 2013.27 708.996 2014.24 709.048 2015.15 708.595 2015.64 707.825 2016.34 706.771 2016 705.395 2014.87 704.721Z" fill="#29B5E8" fill-rule="evenodd"/></g></svg>