<svg width="102" height="114" xmlns="http://www.w3.org/2000/svg" xmlns:xlink="http://www.w3.org/1999/xlink" xml:space="preserve" overflow="hidden"><defs><clipPath id="clip0"><rect x="1976" y="1213" width="102" height="114"/></clipPath></defs><g clip-path="url(#clip0)" transform="translate(-1976 -1213)"><path d="M2059.65 1285.16 2054.96 1282.46C2056.86 1278.43 2057.84 1274.03 2057.8 1269.58 2057.8 1264.9 2056.71 1260.28 2054.61 1256.08L2059.42 1253.35C2060.63 1252.61 2061.02 1251.05 2060.27 1249.85 2059.56 1248.69 2058.05 1248.29 2056.84 1248.94L2051.96 1251.71C2046.64 1244.48 2038.38 1239.9 2029.36 1239.17L2029.36 1233.55C2029.36 1232.14 2028.2 1231 2026.78 1231 2025.36 1231 2024.2 1232.14 2024.2 1233.55L2024.2 1239.17C2015.06 1239.94 2006.74 1244.71 2001.52 1252.17L1996.87 1249.55C1995.65 1248.83 1994.07 1249.23 1993.34 1250.44 1993.34 1250.45 1993.34 1250.45 1993.34 1250.46 1992.64 1251.69 1993.06 1253.24 1994.3 1253.96L1999.06 1256.65C1995.02 1265.09 1995.11 1274.9 1999.33 1283.26L1994.76 1285.96C1993.53 1286.66 1993.11 1288.22 1993.82 1289.44 1994.28 1290.23 1995.14 1290.71 1996.06 1290.71 1996.51 1290.71 1996.95 1290.59 1997.33 1290.37L2002.22 1287.59C2007.43 1294.68 2015.49 1299.19 2024.32 1299.98L2024.32 1305.45C2024.32 1306.86 2025.47 1308 2026.9 1308 2028.32 1308 2029.47 1306.86 2029.47 1305.45L2029.47 1299.98C2038.79 1299.28 2047.27 1294.42 2052.54 1286.79L2057.19 1289.45C2057.58 1289.69 2058.04 1289.81 2058.5 1289.8 2059.41 1289.79 2060.26 1289.32 2060.73 1288.54 2061.35 1287.31 2060.87 1285.81 2059.65 1285.16ZM2026.97 1295.08C2012.77 1295.09 2001.24 1283.72 2001.23 1269.68 2001.23 1265.26 2002.39 1260.91 2004.6 1257.07L2004.6 1257.07 2004.6 1257.07C2012 1245.08 2027.82 1241.29 2039.95 1248.61 2051.59 1255.63 2055.67 1270.42 2049.23 1282.31 2049.22 1282.37 2049.22 1282.44 2049.23 1282.5L2049.23 1282.73C2044.55 1290.45 2036.08 1295.15 2026.97 1295.08Z" fill="#29B5E8" fill-rule="evenodd"/><path d="M2027 1229C2031.42 1229 2035 1225.42 2035 1221 2035 1216.58 2031.42 1213 2027 1213 2022.58 1213 2019 1216.58 2019 1221 2019 1225.42 2022.58 1229 2027 1229ZM2027 1218.04C2028.71 1218.04 2030.11 1219.43 2030.11 1221.15 2030.13 1222.88 2028.73 1224.3 2027 1224.32 2025.27 1224.34 2023.84 1222.95 2023.82 1221.22 2023.8 1219.48 2025.19 1218.06 2026.93 1218.04 2026.95 1218.04 2026.98 1218.04 2027 1218.04Z" fill="#29B5E8" fill-rule="evenodd"/><path d="M1984.5 1237C1979.81 1237 1976 1240.81 1976 1245.5 1976 1250.19 1979.81 1254 1984.5 1254 1989.19 1254 1993 1250.19 1993 1245.5 1993 1240.81 1989.19 1237 1984.5 1237ZM1984.5 1248.84C1982.67 1248.82 1981.2 1247.33 1981.2 1245.5 1981.2 1243.68 1982.68 1242.2 1984.5 1242.2 1986.33 1242 1987.98 1243.33 1988.18 1245.16 1988.38 1246.99 1987.05 1248.64 1985.22 1248.84 1984.98 1248.86 1984.74 1248.86 1984.5 1248.84Z" fill="#29B5E8" fill-rule="evenodd"/><path d="M1984.5 1286C1979.81 1286 1976 1289.58 1976 1294 1976 1298.42 1979.81 1302 1984.5 1302 1989.19 1302 1993 1298.42 1993 1294 1993 1289.58 1989.19 1286 1984.5 1286ZM1984.5 1297.14C1982.67 1297.12 1981.2 1295.72 1981.2 1294 1981.2 1292.29 1982.68 1290.9 1984.5 1290.9 1986.33 1290.71 1987.98 1291.96 1988.18 1293.68 1988.38 1295.41 1987.05 1296.96 1985.22 1297.14 1984.98 1297.17 1984.74 1297.17 1984.5 1297.14Z" fill="#29B5E8" fill-rule="evenodd"/><path d="M2069.5 1254C2074.19 1254 2078 1250.19 2078 1245.5 2078 1240.81 2074.19 1237 2069.5 1237 2064.81 1237 2061 1240.81 2061 1245.5 2061 1250.19 2064.81 1254 2069.5 1254ZM2069.5 1242.16C2071.33 1241.96 2072.98 1243.29 2073.18 1245.12 2073.38 1246.95 2072.05 1248.6 2070.22 1248.8 2069.98 1248.83 2069.74 1248.83 2069.5 1248.8 2067.68 1248.8 2066.2 1247.32 2066.2 1245.5 2066.2 1243.67 2067.67 1242.18 2069.5 1242.16Z" fill="#29B5E8" fill-rule="evenodd"/><path d="M2069.5 1286C2064.81 1286 2061 1289.58 2061 1294 2061 1298.42 2064.81 1302 2069.5 1302 2074.19 1302 2078 1298.42 2078 1294 2078 1289.58 2074.19 1286 2069.5 1286ZM2069.5 1297.14C2067.67 1297.12 2066.2 1295.72 2066.2 1294 2066.2 1292.29 2067.68 1290.9 2069.5 1290.9 2071.33 1290.71 2072.98 1291.96 2073.18 1293.68 2073.38 1295.41 2072.05 1296.96 2070.22 1297.14 2069.98 1297.17 2069.74 1297.17 2069.5 1297.14Z" fill="#29B5E8" fill-rule="evenodd"/><path d="M2027.03 1310C2022.62 1309.98 2019.02 1313.77 2019 1318.46 2018.98 1323.16 2022.55 1326.98 2026.96 1327 2031.34 1327.02 2034.92 1323.3 2035 1318.65 2035.1 1313.98 2031.62 1310.11 2027.22 1310 2027.16 1310 2027.1 1310 2027.03 1310ZM2027.03 1321.59C2025.32 1321.57 2023.94 1320.09 2023.94 1318.27 2023.94 1316.45 2025.33 1314.98 2027.03 1314.98 2028.75 1314.79 2030.29 1316.11 2030.48 1317.93 2030.67 1319.75 2029.43 1321.39 2027.71 1321.59 2027.48 1321.62 2027.26 1321.62 2027.03 1321.59Z" fill="#29B5E8" fill-rule="evenodd"/><path d="M2040.13 1228.67 2055.2 1238.58C2055.59 1238.84 2056.05 1238.98 2056.52 1239 2057.37 1239 2058.15 1238.56 2058.61 1237.83 2059.34 1236.67 2059.01 1235.12 2057.89 1234.38 2057.87 1234.37 2057.86 1234.36 2057.84 1234.35L2042.78 1224.4C2041.63 1223.65 2040.11 1223.99 2039.36 1225.15 2038.66 1226.35 2039 1227.9 2040.13 1228.67Z" fill="#29B5E8" fill-rule="evenodd"/><path d="M1997.57 1239C1998.08 1239.01 1998.59 1238.88 1999.03 1238.62L2014.81 1228.69C2016.01 1227.94 2016.36 1226.36 2015.59 1225.18 2015.59 1225.18 2015.59 1225.17 2015.58 1225.17 2014.84 1224 2013.27 1223.65 2012.09 1224.39 2012.07 1224.39 2012.06 1224.4 2012.05 1224.41L1996.18 1234.38C1995 1235.11 1994.64 1236.66 1995.39 1237.83 1995.4 1237.84 1995.41 1237.85 1995.42 1237.86 1995.88 1238.58 1996.7 1239.01 1997.57 1239Z" fill="#29B5E8" fill-rule="evenodd"/><path d="M1986 1278.41 1986 1259.59C1986 1258.16 1984.88 1257 1983.5 1257 1982.12 1257 1981 1258.16 1981 1259.59L1981 1278.41C1981 1279.84 1982.12 1281 1983.5 1281 1984.88 1281 1986 1279.84 1986 1278.41Z" fill="#29B5E8" fill-rule="evenodd"/><path d="M2067 1259.59 2067 1278.41C2067 1279.84 2068.12 1281 2069.5 1281 2070.88 1281 2072 1279.84 2072 1278.41L2072 1259.59C2072 1258.16 2070.88 1257 2069.5 1257 2068.12 1257 2067 1258.16 2067 1259.59Z" fill="#29B5E8" fill-rule="evenodd"/><path d="M2055.36 1300.38 2040.14 1310.34C2039 1311.08 2038.66 1312.62 2039.38 1313.79 2039.38 1313.8 2039.39 1313.81 2039.4 1313.83 2039.81 1314.52 2040.53 1314.96 2041.33 1315 2041.8 1314.99 2042.26 1314.85 2042.66 1314.58L2057.88 1304.66C2059.03 1303.89 2059.35 1302.32 2058.59 1301.15 2057.86 1300 2056.36 1299.66 2055.21 1300.38Z" fill="#29B5E8" fill-rule="evenodd"/><path d="M2014.46 1310.24 1998.9 1300.38C1997.7 1299.65 1996.13 1300.01 1995.38 1301.19 1994.65 1302.35 1995 1303.87 1996.15 1304.61L2011.83 1314.43C2012.92 1315.31 2014.53 1315.15 2015.42 1314.08 2016.32 1313 2016.15 1311.42 2015.06 1310.54 2014.91 1310.42 2014.75 1310.32 2014.58 1310.24Z" fill="#29B5E8" fill-rule="evenodd"/><path d="M2039.98 1281.02C2039.42 1281.98 2038.19 1282.31 2037.22 1281.75L2033.34 1279.52 2033.34 1283.99C2033.28 1285.11 2032.36 1285.98 2031.24 1286 2030.11 1286.02 2029.17 1285.12 2029.15 1283.99 2029.15 1283.99 2029.15 1283.99 2029.15 1283.99L2029.15 1275.85C2029.1 1274.72 2029.99 1273.77 2031.12 1273.73 2031.13 1273.73 2031.13 1273.73 2031.13 1273.73 2031.52 1273.75 2031.92 1273.83 2032.29 1273.96L2039.16 1277.82C2040.23 1278.27 2040.72 1279.5 2040.26 1280.56 2040.18 1280.72 2040.09 1280.88 2039.98 1281.02ZM2028.91 1269.44C2028.91 1269.44 2028.91 1269.71 2028.64 1269.83L2027.87 1270.72C2027.87 1270.72 2027.59 1270.72 2027.48 1270.72 2027.36 1270.72 2027.21 1270.72 2027.09 1270.72L2026.27 1269.83C2026.27 1269.83 2026.27 1269.6 2026.27 1269.44 2026.22 1269.33 2026.22 1269.21 2026.27 1269.09L2027.09 1268.32C2027.21 1268.27 2027.35 1268.27 2027.48 1268.32 2027.6 1268.28 2027.74 1268.28 2027.87 1268.32L2028.64 1269.09C2028.64 1269.09 2028.91 1269.21 2028.91 1269.44ZM2031.36 1269.94 2031.36 1269.09C2031.36 1269.09 2031.36 1268.82 2031.36 1268.71L2028.25 1265.58 2027.98 1265.58 2027.09 1265.58C2026.97 1265.53 2026.82 1265.53 2026.7 1265.58L2023.83 1268.44C2023.77 1268.56 2023.77 1268.7 2023.83 1268.82L2023.83 1269.67C2023.76 1269.79 2023.76 1269.94 2023.83 1270.06L2026.7 1272.92C2026.7 1272.92 2026.93 1272.92 2027.09 1272.92L2027.98 1272.92 2028.25 1272.92 2031.24 1270.06C2031.24 1270.06 2031.36 1269.98 2031.36 1269.83ZM2021.07 1271.33 2014.05 1275.19C2013.1 1275.74 2011.89 1275.42 2011.34 1274.48 2011.33 1274.47 2011.33 1274.47 2011.33 1274.46 2010.74 1273.62 2010.96 1272.46 2011.81 1271.88 2011.9 1271.82 2012 1271.77 2012.1 1271.72L2015.99 1269.48 2012.1 1267.24C2011.1 1266.71 2010.72 1265.47 2011.25 1264.48 2011.28 1264.43 2011.3 1264.39 2011.33 1264.35 2011.87 1263.4 2013.07 1263.07 2014.03 1263.6 2014.03 1263.61 2014.04 1263.61 2014.05 1263.61L2021.07 1267.47C2021.55 1267.75 2021.89 1268.21 2022 1268.75 2022.06 1268.9 2022.06 1269.06 2022 1269.21 2022.06 1269.43 2022.06 1269.65 2022 1269.87 2021.88 1270.42 2021.55 1270.91 2021.07 1271.22ZM2025.81 1275.69 2025.81 1283.68C2025.77 1284.79 2024.86 1285.67 2023.75 1285.69 2022.61 1285.71 2021.68 1284.81 2021.65 1283.69 2021.65 1283.68 2021.65 1283.68 2021.65 1283.68L2021.65 1279.21 2017.77 1281.45C2016.83 1282.08 2015.55 1281.83 2014.92 1280.9 2014.28 1279.96 2014.53 1278.69 2015.47 1278.06 2015.53 1278.01 2015.6 1277.97 2015.68 1277.93L2022.7 1274.07C2023.07 1273.93 2023.47 1273.85 2023.87 1273.84 2024.86 1273.95 2025.66 1274.71 2025.81 1275.69ZM2029.07 1263 2029.07 1255.01C2029.09 1253.88 2030.03 1252.98 2031.16 1253 2031.17 1253 2031.17 1253 2031.17 1253 2032.29 1253.02 2033.2 1253.9 2033.26 1255.01L2033.26 1259.48 2037.14 1257.25C2038.12 1256.77 2039.29 1257.09 2039.9 1257.98 2040.49 1258.97 2040.16 1260.25 2039.16 1260.83 2039.13 1260.85 2039.11 1260.86 2039.09 1260.87L2032.21 1264.73C2031.84 1264.88 2031.45 1264.97 2031.05 1265 2030.01 1264.89 2029.2 1264.04 2029.15 1263ZM2014.98 1257.86C2015.59 1256.91 2016.85 1256.59 2017.85 1257.13L2021.73 1259.37 2021.73 1255.01C2021.75 1253.88 2022.69 1252.98 2023.83 1253 2023.83 1253 2023.83 1253 2023.83 1253 2024.92 1253.02 2025.79 1253.92 2025.77 1255.01 2025.77 1255.01 2025.77 1255.01 2025.77 1255.01L2025.77 1263C2025.83 1264.02 2025.05 1264.9 2024.03 1264.96 2024 1264.96 2023.97 1264.96 2023.94 1264.97 2023.54 1265.08 2023.11 1264.99 2022.78 1264.73L2015.75 1260.87C2014.75 1260.44 2014.29 1259.28 2014.73 1258.28 2014.79 1258.13 2014.88 1257.99 2014.98 1257.86ZM2042.97 1266.97 2039.09 1269.21 2042.97 1271.49C2043.94 1272.09 2044.28 1273.34 2043.74 1274.34 2043.1 1275.26 2041.88 1275.57 2040.87 1275.08L2033.84 1271.22C2033.44 1270.89 2033.12 1270.46 2032.91 1269.98 2032.91 1269.98 2032.91 1269.6 2032.91 1269.33 2032.91 1269.06 2032.91 1268.98 2032.91 1268.86 2033.11 1268.37 2033.43 1267.93 2033.84 1267.59L2040.87 1263.73C2041.91 1263.25 2043.14 1263.61 2043.74 1264.58 2044.21 1265.49 2043.86 1266.6 2042.97 1267.09Z" fill="#29B5E8" fill-rule="evenodd"/></g></svg>