<svg width="102" height="111" xmlns="http://www.w3.org/2000/svg" xmlns:xlink="http://www.w3.org/1999/xlink" xml:space="preserve" overflow="hidden"><defs><clipPath id="clip0"><rect x="1148" y="1214" width="102" height="111"/></clipPath></defs><g clip-path="url(#clip0)" transform="translate(-1148 -1214)"><path d="M1250 1236.76C1250 1230.23 1244.27 1224.34 1234.11 1220.08 1222.9 1215.86 1210.97 1213.8 1198.98 1214.01 1187 1213.81 1175.08 1215.86 1163.89 1220.08 1153.69 1224.34 1148 1230.23 1148 1236.76L1148 1301.72 1148 1301.72C1148 1308.54 1153.65 1314.52 1163.85 1319 1175.05 1323.23 1186.98 1325.26 1198.98 1324.97 1211 1325.21 1222.95 1323.12 1234.15 1318.83 1244.36 1314.56 1250 1308.33 1250 1301.54L1250 1236.76ZM1244.05 1281.91C1244.05 1285.46 1239.49 1289.34 1231.89 1292.24 1221.33 1295.91 1210.18 1297.67 1198.98 1297.45 1187.79 1297.67 1176.66 1295.9 1166.11 1292.24 1158.51 1289.34 1153.95 1285.46 1153.95 1281.91L1153.95 1270.39C1157 1272.65 1160.38 1274.45 1163.98 1275.73 1175.23 1279.55 1187.08 1281.39 1198.98 1281.19 1210.89 1281.39 1222.75 1279.55 1234.02 1275.73 1237.62 1274.45 1241 1272.65 1244.05 1270.39ZM1244.05 1260.11C1244.05 1263.61 1239.49 1267.4 1231.89 1270.26 1221.3 1273.81 1210.16 1275.51 1198.98 1275.3 1172.45 1275.3 1153.95 1267.28 1153.95 1260.11L1153.95 1248.16C1156.96 1250.49 1160.31 1252.36 1163.89 1253.7 1175.08 1257.95 1186.99 1260.02 1198.98 1259.81 1210.98 1260.03 1222.91 1257.95 1234.11 1253.7 1237.69 1252.36 1241.04 1250.49 1244.05 1248.16ZM1166.19 1225.49C1176.65 1221.56 1187.78 1219.64 1198.98 1219.86 1225.55 1219.86 1244.05 1228.87 1244.05 1236.93 1244.05 1240.99 1239.71 1245.13 1231.81 1248.37 1221.34 1252.31 1210.19 1254.23 1198.98 1254 1172.45 1254 1153.95 1245 1153.95 1236.93 1153.95 1232.88 1158.42 1228.74 1166.19 1225.49ZM1198.98 1319.38C1172.06 1319.38 1153.95 1310.29 1153.95 1301.8L1153.95 1292.28C1156.99 1294.56 1160.36 1296.39 1163.94 1297.7 1175.18 1301.62 1187.05 1303.52 1198.98 1303.29 1210.92 1303.52 1222.81 1301.62 1234.06 1297.7 1237.65 1296.39 1241.01 1294.56 1244.05 1292.28L1244.05 1301.72C1244.05 1310.21 1226.16 1319.3 1198.98 1319.3Z" fill="#29B5E8" fill-rule="evenodd"/><path d="M1220.79 1244.49C1219.27 1245.23 1217.55 1245.42 1215.91 1245.02L1208.94 1243.46 1208.94 1246.58C1208.94 1247.29 1207.29 1248 1205.2 1248 1203.1 1248 1201.45 1247.38 1201.45 1246.58L1201.45 1240.97C1201.45 1240.21 1202.89 1239.59 1204.98 1239.5 1205.67 1239.46 1206.37 1239.46 1207.07 1239.5L1219.39 1242.31C1221.4 1242.93 1221.96 1243.77 1220.79 1244.49ZM1201.01 1236.43C1201.01 1236.43 1200.75 1236.43 1200.54 1236.7L1199.14 1237.32 1198.44 1237.32 1197.75 1237.32 1196.35 1236.7C1196.14 1236.7 1196.14 1236.7 1196.14 1236.43 1196.14 1236.17 1196.14 1236.43 1196.35 1236.17L1197.75 1235.63C1198.2 1235.51 1198.68 1235.51 1199.14 1235.63L1200.54 1236.17C1200.54 1236.17 1201.01 1236.34 1201.01 1236.43ZM1205.37 1236.79 1205.37 1236.17C1205.37 1236.17 1205.15 1236.17 1205.15 1235.9L1199.79 1233.9 1199.32 1233.9 1197.7 1233.9C1197.47 1233.85 1197.24 1233.85 1197.01 1233.9L1191.87 1235.9C1191.65 1235.9 1191.65 1235.9 1191.65 1236.17L1191.65 1236.79C1191.65 1236.79 1191.65 1236.79 1191.87 1237.06L1197.01 1239.06 1197.7 1239.06 1199.32 1239.06 1199.79 1239.06 1205.15 1237.06C1205.15 1237.06 1205.41 1236.88 1205.41 1236.79ZM1186.99 1237.77 1174.4 1240.57C1172.78 1240.91 1171.09 1240.72 1169.57 1240.04 1168.39 1239.33 1169.13 1238.44 1170.96 1238.08L1177.84 1236.52 1170.96 1234.97C1169.13 1234.52 1168.39 1233.63 1169.57 1232.92 1171.1 1232.22 1172.81 1232.03 1174.45 1232.39L1187.03 1235.32C1187.67 1235.38 1188.25 1235.7 1188.64 1236.21 1188.81 1236.23 1188.93 1236.39 1188.91 1236.56 1188.91 1236.56 1188.91 1236.57 1188.91 1236.57 1188.91 1236.57 1188.91 1236.83 1188.64 1237.01 1188.38 1237.19 1187.95 1237.5 1187.03 1237.77ZM1195.7 1240.88 1195.7 1246.49C1195.7 1247.29 1193.83 1247.91 1191.95 1247.91 1190.08 1247.91 1188.25 1247.29 1188.25 1246.49L1188.25 1243.37 1181.24 1244.93C1179.5 1245.34 1177.67 1245.09 1176.1 1244.22 1175.14 1243.6 1175.62 1242.75 1177.49 1242.31L1190.08 1239.77C1190.78 1239.71 1191.48 1239.71 1192.17 1239.77 1194 1239.77 1195.27 1240.21 1195.66 1240.88ZM1201.49 1231.98 1201.49 1226.42C1201.49 1225.62 1203.15 1225 1205.24 1225 1207.33 1225 1208.98 1225.62 1208.98 1226.42L1208.98 1229.54 1215.95 1227.94C1217.59 1227.58 1219.3 1227.77 1220.83 1228.47 1222.01 1229.18 1221.31 1230.03 1219.44 1230.47L1207.11 1233.27C1206.42 1233.32 1205.72 1233.32 1205.02 1233.27 1202.89 1233.36 1201.45 1232.74 1201.45 1231.98ZM1176.1 1228.47C1177.69 1227.71 1179.49 1227.53 1181.2 1227.94L1188.21 1229.54 1188.21 1226.42C1188.21 1225.62 1189.82 1225 1191.91 1225 1194 1225 1195.4 1225.62 1195.4 1226.42L1195.4 1231.98C1195.4 1232.74 1194 1233.36 1192.17 1233.36 1191.48 1233.5 1190.77 1233.5 1190.08 1233.36L1177.49 1230.38C1175.62 1230.03 1175.14 1229.18 1176.1 1228.47ZM1226.14 1234.88 1219.18 1236.43 1226.14 1237.99C1228.02 1238.44 1228.45 1239.33 1227.54 1240.04 1225.92 1240.71 1224.16 1240.9 1222.44 1240.57L1209.86 1237.77C1209.25 1237.6 1208.68 1237.29 1208.2 1236.88 1208.2 1236.88 1207.98 1236.61 1207.98 1236.43 1207.98 1236.26 1208.2 1236.17 1208.2 1236.08 1208.68 1235.66 1209.25 1235.36 1209.86 1235.19L1222.44 1232.39C1224.16 1232.07 1225.94 1232.28 1227.54 1233.01 1228.45 1233.63 1228.02 1234.52 1226.14 1234.88Z" fill="#29B5E8" fill-rule="evenodd"/></g></svg>