<svg width="99" height="113" xmlns="http://www.w3.org/2000/svg" xmlns:xlink="http://www.w3.org/1999/xlink" xml:space="preserve" overflow="hidden"><defs><clipPath id="clip0"><rect x="1149" y="609" width="99" height="113"/></clipPath></defs><g clip-path="url(#clip0)" transform="translate(-1149 -609)"><path d="M1248 632.143C1248 625.157 1242.5 619.498 1232.6 615.237 1221.75 610.887 1210.17 608.775 1198.53 609.019 1186.94 608.802 1175.42 610.914 1164.61 615.237 1154.56 619.498 1149 625.506 1149 632.143L1149 632.143 1149 698.162 1149 698.162C1149 705.148 1154.5 711.296 1164.4 715.697 1175.2 720.058 1186.73 722.193 1198.33 721.984 1209.93 722.207 1221.46 720.07 1232.26 715.697 1242.23 711.296 1247.66 705.078 1247.66 698.162L1247.66 632.213ZM1242.23 678.112C1242.23 681.675 1237.82 685.657 1230.43 688.591 1220.19 692.315 1209.39 694.114 1198.53 693.9 1187.66 694.119 1176.83 692.321 1166.57 688.591 1159.18 685.866 1154.77 681.675 1154.77 678.112L1154.77 666.375C1157.73 668.72 1161.03 670.581 1164.54 671.894 1175.44 675.791 1186.93 677.683 1198.47 677.483 1210.01 677.671 1221.49 675.78 1232.39 671.894 1235.87 670.609 1239.14 668.796 1242.1 666.515ZM1242.23 655.896C1242.23 659.459 1237.82 663.301 1230.43 666.235 1220.16 669.827 1209.37 671.552 1198.53 671.335 1172.75 671.335 1154.77 663.231 1154.77 655.896L1154.77 643.531C1157.67 645.98 1160.92 647.958 1164.4 649.399 1175.22 653.689 1186.74 655.8 1198.33 655.616 1209.92 655.809 1221.44 653.698 1232.26 649.399 1235.75 647.976 1239 645.995 1241.89 643.531ZM1166.64 620.686C1176.81 616.674 1187.64 614.729 1198.53 614.957 1224.32 614.957 1242.23 624.109 1242.23 632.283 1242.23 636.405 1237.89 640.596 1230.36 643.95 1220.2 647.902 1209.39 649.823 1198.53 649.608 1172.75 649.608 1154.77 640.526 1154.77 632.283 1154.77 628.231 1159.11 623.969 1166.64 620.686ZM1198.53 716.116C1172.34 716.116 1154.77 706.825 1154.77 698.232L1154.77 688.591C1157.7 690.947 1160.97 692.809 1164.47 694.11 1175.35 698.1 1186.85 700.04 1198.4 699.838 1209.95 700.055 1221.45 698.114 1232.33 694.11 1235.84 692.84 1239.12 690.974 1242.03 688.591L1242.03 698.232C1242.23 706.825 1224.66 716.116 1198.53 716.116Z" fill="#29B5E8" fill-rule="evenodd"/></g></svg>