<svg width="160" height="74" xmlns="http://www.w3.org/2000/svg" xmlns:xlink="http://www.w3.org/1999/xlink" xml:space="preserve" overflow="hidden"><defs><clipPath id="clip0"><rect x="2471" y="1233" width="160" height="74"/></clipPath></defs><g clip-path="url(#clip0)" transform="translate(-2471 -1233)"><path d="M2613.76 1233 2593.31 1233C2589.32 1233 2585.59 1235.57 2582.5 1240.32L2529.5 1239.94C2525.9 1234.28 2521.78 1233 2518.95 1233 2518.82 1233 2518.82 1233 2518.69 1233.13 2518.56 1233.13 2518.44 1233 2518.31 1233 2518.18 1233 2517.92 1233 2517.79 1233 2517.66 1233 2517.54 1233 2517.54 1233L2497.21 1233C2491.94 1233 2487.3 1237.24 2483.96 1244.69 2482.8 1247.65 2481.77 1250.99 2481 1254.45L2482.16 1254.45C2483.7 1254.45 2485.25 1254.45 2486.79 1254.45 2489.1 1244.69 2493.22 1238.65 2497.21 1238.65L2508.53 1238.65C2507.37 1240.32 2506.09 1242.38 2505.06 1244.69 2503.9 1247.65 2502.87 1250.86 2502.1 1254.45 2502.48 1254.45 2502.74 1254.45 2503.13 1254.45L2508.02 1254.45C2510.2 1244.82 2514.45 1238.65 2518.31 1238.65 2518.44 1238.65 2518.56 1238.65 2518.69 1238.65 2518.69 1238.65 2518.82 1238.65 2518.95 1238.65 2520.49 1238.65 2521.78 1239.55 2522.94 1240.58 2520.88 1241.48 2519.08 1243.41 2517.54 1245.72L2579.8 1245.72C2577.1 1252.4 2575.68 1261.01 2575.68 1270 2575.68 1278.99 2577.23 1288.11 2580.06 1294.92L2515.73 1294.54C2515.61 1294.8 2515.35 1295.05 2515.22 1295.31 2513.55 1296.85 2512.13 1298.65 2510.59 1300.32L2583.02 1300.58 2583.14 1300.58C2585.97 1304.82 2589.58 1307 2593.44 1307L2613.76 1307C2623.54 1307 2631 1291.2 2631 1270 2631 1248.8 2623.54 1233 2613.76 1233ZM2593.31 1301.35C2587.78 1301.35 2581.34 1288.5 2581.34 1270 2581.34 1251.63 2587.65 1238.65 2593.31 1238.65L2604.24 1238.65C2599.48 1245.2 2596.39 1256.51 2596.39 1270 2596.39 1283.62 2599.48 1294.92 2604.24 1301.35ZM2613.76 1301.35C2611.19 1301.35 2608.36 1298.26 2606.17 1293.12 2603.6 1286.96 2602.18 1278.86 2602.18 1270 2602.18 1252.14 2608.23 1238.65 2613.76 1238.65 2616.21 1238.65 2619.04 1241.86 2621.22 1247 2623.8 1253.04 2625.21 1261.26 2625.21 1270 2625.21 1287.99 2619.16 1301.35 2613.76 1301.35Z" fill="#2AB5E8" fill-rule="evenodd"/><path d="M2514.61 1288.03C2514.61 1288.03 2514.74 1288.03 2514.74 1287.9L2514.74 1287.9C2514.87 1287.39 2515 1287 2514.87 1286.48 2514.87 1286.35 2514.87 1286.23 2514.87 1286.23 2514.74 1285.84 2514.48 1285.45 2514.22 1285.06 2514.22 1285.06 2514.22 1285.06 2514.22 1284.94L2505.54 1276.16C2504.5 1275 2502.69 1275 2501.65 1276.03 2500.61 1277.06 2500.61 1278.87 2501.65 1279.9L2505.8 1284.16 2482.72 1284.16C2481.3 1284.16 2480 1285.32 2480 1286.87 2480 1288.42 2481.17 1289.58 2482.72 1289.58L2506.06 1289.58 2501.52 1294.35C2500.61 1295.52 2500.61 1297.19 2501.78 1298.23 2502.3 1298.74 2502.94 1299 2503.59 1299 2504.24 1299 2505.02 1298.61 2505.54 1298.1L2514.22 1288.68C2514.35 1288.55 2514.48 1288.29 2514.61 1288.03Z" fill="#2AB5E8" fill-rule="evenodd"/><path d="M2479.7 1264.66 2519.24 1264.66 2514.73 1269.46C2513.7 1270.5 2513.83 1272.31 2514.86 1273.35 2515.38 1273.74 2516.15 1274 2516.8 1274 2517.44 1274 2518.21 1273.74 2518.73 1273.09L2527.36 1263.75C2527.48 1263.49 2527.61 1263.36 2527.74 1263.1 2527.74 1262.97 2527.74 1262.97 2527.87 1262.97L2527.87 1262.84C2528 1262.45 2528 1261.94 2528 1261.55 2528 1261.42 2527.87 1261.29 2527.87 1261.16 2527.74 1260.77 2527.61 1260.51 2527.36 1260.12 2527.36 1260.12 2527.36 1259.99 2527.23 1259.99L2518.73 1251.04C2517.57 1250 2515.89 1250 2514.86 1251.04 2513.83 1252.08 2513.7 1253.76 2514.73 1254.93L2518.86 1259.21 2479.7 1259.21C2478.29 1259.21 2477 1260.38 2477 1261.94 2477 1263.36 2478.16 1264.66 2479.7 1264.66Z" fill="#2AB5E8" fill-rule="evenodd"/><path d="M2474.39 1277 2493.61 1277C2494.99 1277 2496 1275.95 2496 1274.5 2496 1273.05 2494.99 1272 2493.61 1272L2474.39 1272C2473.01 1272 2472 1273.05 2472 1274.5 2472 1275.95 2473.01 1277 2474.39 1277Z" fill="#2AB5E8" fill-rule="evenodd"/><path d="M2494.44 1298 2473.43 1298C2472.15 1298 2471 1299.15 2471 1300.44 2471 1301.85 2472.15 1303 2473.43 1303L2494.44 1303C2495.85 1303 2497 1301.85 2497 1300.44 2497 1299.15 2495.85 1298 2494.44 1298Z" fill="#2AB5E8" fill-rule="evenodd"/><path d="M2569.36 1263.45C2568.71 1262.39 2567.3 1262 2566.14 1262.66L2558.16 1267.39C2557.52 1267.66 2557.13 1268.18 2557 1268.84 2557 1268.97 2557 1269.1 2557 1269.37 2557 1269.63 2557 1269.89 2557 1270.16 2557.26 1270.68 2557.64 1271.21 2558.16 1271.47L2566.14 1276.21C2567.3 1277 2568.71 1276.6 2569.36 1275.42 2570 1274.24 2569.61 1272.79 2568.46 1272.13L2564.08 1269.37 2568.46 1266.74C2569.61 1266.08 2570 1264.63 2569.36 1263.45Z" fill="#2AB5E8" fill-rule="evenodd"/><path d="M2555.84 1274.39C2555.43 1274.13 2554.88 1274 2554.33 1274.13 2553.1 1274.13 2552 1275.16 2552 1276.44L2552 1285.69C2552 1286.97 2553.1 1288 2554.61 1288 2555.98 1288 2557.08 1286.97 2557.08 1285.69L2557.08 1280.55 2561.88 1283.12C2563.12 1283.76 2564.63 1283.38 2565.31 1282.22 2566 1281.06 2565.59 1279.65 2564.35 1279.01L2555.84 1274.39Z" fill="#2AB5E8" fill-rule="evenodd"/><path d="M2550.96 1265 2550.04 1265C2549.91 1265 2549.65 1265.13 2549.52 1265.26L2546.26 1268.52C2546.13 1268.65 2546 1268.91 2546 1269.04L2546 1269.96C2546 1270.09 2546.13 1270.35 2546.26 1270.48L2549.52 1273.74C2549.65 1273.87 2549.91 1274 2550.04 1274L2550.96 1274C2551.09 1274 2551.35 1273.87 2551.48 1273.74L2554.74 1270.48C2554.87 1270.35 2555 1270.09 2555 1269.96L2555 1269.04C2555 1268.91 2554.87 1268.65 2554.74 1268.52L2551.48 1265.26C2551.35 1265.13 2551.09 1265 2550.96 1265ZM2552.13 1269.44 2552.13 1269.57C2552.13 1269.7 2552 1269.83 2551.87 1269.96L2550.96 1270.87C2550.83 1271 2550.7 1271.13 2550.57 1271.13L2550.43 1271.13C2550.3 1271.13 2550.17 1271 2550.04 1270.87L2549.13 1269.96C2549 1269.83 2548.87 1269.7 2548.87 1269.57L2548.87 1269.44C2548.87 1269.3 2549 1269.17 2549.13 1269.04L2550.04 1268.13C2550.17 1268 2550.3 1267.87 2550.43 1267.87L2550.57 1267.87C2550.7 1267.87 2550.83 1268 2550.96 1268.13L2551.87 1269.04C2552 1269.17 2552.13 1269.3 2552.13 1269.44Z" fill="#2AB5E8" fill-rule="evenodd"/><path d="M2546.58 1250C2545.3 1250 2544.28 1251.03 2544.28 1252.31L2544.28 1257.45 2539.82 1254.88C2538.68 1254.24 2537.27 1254.62 2536.64 1255.78 2536 1256.94 2536.38 1258.35 2537.53 1258.99L2545.43 1263.61C2545.81 1263.87 2546.32 1264 2546.83 1263.87 2547.98 1263.87 2549 1262.84 2549 1261.56L2549 1252.31C2549 1251.03 2547.85 1250 2546.58 1250Z" fill="#2AB5E8" fill-rule="evenodd"/><path d="M2554.61 1250.13C2553.24 1250.13 2552 1251.15 2552 1252.42L2552 1261.58C2552 1262.85 2553.1 1263.87 2554.33 1263.87 2554.88 1264 2555.43 1263.87 2555.84 1263.62L2564.35 1259.04C2565.59 1258.4 2566 1257 2565.31 1255.85 2564.63 1254.71 2563.12 1254.33 2561.88 1254.96L2557.08 1257.51 2557.08 1252.42C2557.08 1251.15 2555.98 1250 2554.61 1250Z" fill="#2AB5E8" fill-rule="evenodd"/><path d="M2546.58 1288C2547.85 1288 2549 1286.97 2549 1285.69L2549 1276.44C2549 1275.16 2547.98 1274.13 2546.83 1274.13 2546.32 1274 2545.81 1274.13 2545.43 1274.39L2537.4 1279.01C2536.38 1279.65 2536 1281.06 2536.64 1282.22 2537.27 1283.38 2538.68 1283.76 2539.82 1283.12L2544.28 1280.55 2544.28 1285.69C2544.28 1286.97 2545.3 1288 2546.58 1288Z" fill="#2AB5E8" fill-rule="evenodd"/><path d="M2531.64 1263.58C2531 1264.76 2531.38 1266.21 2532.53 1266.87L2536.99 1269.5 2532.53 1272.26C2531.38 1272.92 2531 1274.37 2531.64 1275.55 2532.27 1276.6 2533.68 1277 2534.82 1276.34L2542.73 1271.6C2543.36 1271.34 2543.62 1270.82 2543.87 1270.29 2543.87 1270.03 2544 1269.76 2544 1269.5 2544 1269.24 2543.87 1269.11 2543.87 1268.97 2543.74 1268.32 2543.36 1267.79 2542.73 1267.53L2534.82 1262.79C2533.68 1262 2532.27 1262.53 2531.64 1263.58Z" fill="#2AB5E8" fill-rule="evenodd"/></g></svg>