<svg width="161" height="61" xmlns="http://www.w3.org/2000/svg" xmlns:xlink="http://www.w3.org/1999/xlink" xml:space="preserve" overflow="hidden"><defs><clipPath id="clip0"><rect x="1380" y="635" width="161" height="61"/></clipPath></defs><g clip-path="url(#clip0)" transform="translate(-1380 -635)"><path d="M1537.62 648C1530.66 648 1523.89 645.847 1518.32 641.865 1512.75 645.847 1505.98 648 1499.02 648 1492.06 648 1485.29 645.847 1479.72 641.865 1474.15 645.847 1467.38 648 1460.42 648 1453.46 648 1446.69 645.847 1441.12 641.865 1435.55 645.847 1428.78 648 1421.82 648 1414.86 648 1408.09 645.847 1402.52 641.865 1396.95 645.847 1390.18 648 1383.22 648 1381.44 648 1380 646.627 1380 644.932 1380 643.238 1381.44 641.865 1383.22 641.865 1389.52 641.886 1395.61 639.703 1400.33 635.73 1401.51 634.757 1403.26 634.757 1404.45 635.73 1409.17 639.703 1415.26 641.886 1421.56 641.865 1427.88 641.901 1434 639.717 1438.74 635.73 1439.92 634.757 1441.67 634.757 1442.85 635.73 1447.58 639.703 1453.67 641.886 1459.97 641.865 1466.29 641.901 1472.4 639.717 1477.15 635.73 1478.33 634.757 1480.08 634.757 1481.26 635.73 1485.99 639.703 1492.08 641.886 1498.38 641.865 1504.7 641.901 1510.81 639.717 1515.55 635.73 1516.74 634.757 1518.49 634.757 1519.67 635.73 1524.4 639.703 1530.48 641.886 1536.78 641.865 1538.56 641.865 1540 643.238 1540 644.932 1540 646.627 1538.56 648 1536.78 648Z" fill="#29B5E8" fill-rule="evenodd"/><path d="M1537.85 671.999C1530.88 671.999 1524.1 669.773 1518.53 665.655 1512.96 669.773 1506.18 671.999 1499.21 671.999 1492.25 671.999 1485.47 669.773 1479.9 665.655 1468.45 674.114 1452.71 674.114 1441.27 665.655 1429.82 674.114 1414.08 674.114 1402.64 665.655 1397.06 669.773 1390.28 671.999 1383.32 671.999 1381.92 671.644 1380.96 670.379 1381 668.954 1381.14 667.337 1382.51 666.094 1384.16 666.099 1390.46 666.121 1396.55 663.864 1401.28 659.755 1402.47 658.748 1404.22 658.748 1405.4 659.755 1410.13 663.864 1416.23 666.121 1422.53 666.099 1428.86 666.137 1434.98 663.878 1439.72 659.755 1440.91 658.748 1442.66 658.748 1443.84 659.755 1448.57 663.864 1454.66 666.121 1460.97 666.099 1467.3 666.137 1473.41 663.878 1478.16 659.755 1479.34 658.748 1481.1 658.748 1482.28 659.755 1487.01 663.864 1493.1 666.121 1499.41 666.099 1505.73 666.137 1511.85 663.878 1516.6 659.755 1517.78 658.748 1519.53 658.748 1520.72 659.755 1525.45 663.864 1531.54 666.121 1537.85 666.099 1539.59 666.099 1541 667.491 1541 669.208 1540.86 670.815 1539.48 672.038 1537.85 671.999Z" fill="#29B5E8" fill-rule="evenodd"/><path d="M1537.85 696C1530.88 696 1524.1 693.816 1518.53 689.776 1507.08 698.074 1491.34 698.074 1479.9 689.776 1468.45 698.074 1452.71 698.074 1441.27 689.776 1429.82 698.074 1414.08 698.074 1402.64 689.776 1397.06 693.816 1390.28 696 1383.32 696 1381.92 695.651 1380.96 694.41 1381 693.013 1381 691.328 1382.41 689.963 1384.16 689.963 1390.46 689.985 1396.55 687.771 1401.28 683.74 1402.47 682.753 1404.22 682.753 1405.4 683.74 1415.23 692.041 1429.89 692.041 1439.72 683.74 1440.91 682.753 1442.66 682.753 1443.84 683.74 1453.67 692.041 1468.33 692.041 1478.16 683.74 1479.34 682.753 1481.1 682.753 1482.28 683.74 1492.11 692.041 1506.77 692.041 1516.6 683.74 1517.78 682.753 1519.53 682.753 1520.72 683.74 1525.45 687.771 1531.54 689.985 1537.85 689.963 1539.59 689.963 1541 691.328 1541 693.013 1541 694.662 1539.62 696 1537.91 696 1537.89 696 1537.87 696 1537.85 696Z" fill="#29B5E8" fill-rule="evenodd"/></g></svg>