<svg width="162" height="99" xmlns="http://www.w3.org/2000/svg" xmlns:xlink="http://www.w3.org/1999/xlink" xml:space="preserve" overflow="hidden"><defs><clipPath id="clip0"><rect x="1380" y="1220" width="162" height="99"/></clipPath></defs><g clip-path="url(#clip0)" transform="translate(-1380 -1220)"><path d="M1539.22 1295.98C1532.21 1295.99 1525.39 1293.86 1519.75 1289.9 1508.16 1298 1492.4 1298 1480.82 1289.9 1469.25 1298 1453.51 1298 1441.93 1289.9 1430.35 1298 1414.59 1298 1403 1289.9 1397.38 1293.86 1390.57 1295.99 1383.59 1295.98 1381.84 1296.19 1380.25 1295.01 1380.03 1293.34 1379.8 1291.68 1381.04 1290.16 1382.79 1289.95 1383.05 1289.91 1383.32 1289.91 1383.59 1289.95 1389.97 1289.94 1396.13 1287.73 1400.93 1283.72 1402.15 1282.76 1403.91 1282.76 1405.13 1283.72 1415.07 1292.02 1429.91 1292.02 1439.86 1283.72 1441.06 1282.77 1442.81 1282.77 1444.01 1283.72 1453.95 1292.02 1468.8 1292.02 1478.74 1283.72 1479.96 1282.76 1481.72 1282.76 1482.94 1283.72 1492.89 1292.02 1507.73 1292.02 1517.68 1283.72 1518.88 1282.77 1520.62 1282.77 1521.82 1283.72 1526.64 1287.74 1532.82 1289.95 1539.22 1289.95 1540.96 1290.16 1542.2 1291.68 1541.97 1293.34 1541.79 1294.72 1540.66 1295.8 1539.22 1295.98Z" fill="#29B5E8" fill-rule="evenodd"/><path d="M1539.22 1318.98C1532.21 1318.97 1525.39 1316.83 1519.75 1312.87 1508.18 1321.01 1492.38 1321.01 1480.82 1312.87 1469.27 1321 1453.48 1321 1441.93 1312.87 1430.37 1321.01 1414.57 1321.01 1403 1312.87 1397.38 1316.83 1390.58 1318.97 1383.59 1318.98 1381.84 1319.19 1380.25 1318.01 1380.03 1316.35 1379.8 1314.69 1381.04 1313.17 1382.79 1312.96 1383.05 1312.93 1383.32 1312.93 1383.59 1312.96 1389.97 1312.96 1396.13 1310.75 1400.93 1306.76 1402.13 1305.76 1403.92 1305.76 1405.13 1306.76 1415.07 1315.03 1429.91 1315.03 1439.86 1306.76 1441.04 1305.75 1442.83 1305.75 1444.01 1306.76 1453.95 1315.03 1468.8 1315.03 1478.74 1306.76 1479.94 1305.76 1481.74 1305.76 1482.94 1306.76 1492.89 1315.03 1507.73 1315.03 1517.68 1306.76 1518.85 1305.75 1520.65 1305.75 1521.82 1306.76 1526.64 1310.77 1532.82 1312.97 1539.22 1312.96 1540.96 1313.17 1542.2 1314.69 1541.97 1316.35 1541.79 1317.72 1540.66 1318.8 1539.22 1318.98Z" fill="#29B5E8" fill-rule="evenodd"/><path d="M1484.71 1268.31C1483.74 1269.99 1481.52 1270.6 1479.76 1269.67 1479.72 1269.65 1479.69 1269.63 1479.65 1269.61L1472.56 1265.7 1472.56 1273.52C1472.46 1275.45 1470.79 1276.98 1468.77 1277 1466.73 1277.05 1465.03 1275.52 1464.97 1273.57 1464.97 1273.55 1464.97 1273.54 1464.97 1273.52L1464.97 1259.81C1464.94 1257.87 1466.49 1256.24 1468.51 1256.09 1469.24 1256.14 1469.95 1256.28 1470.64 1256.52L1483.29 1263.48C1485.05 1264.46 1485.67 1266.59 1484.71 1268.31ZM1464.46 1248.31C1464.46 1248.31 1464.36 1248.99 1464.16 1248.99L1462.74 1250.53C1462.49 1250.53 1462.23 1250.53 1462.03 1250.53 1461.83 1250.53 1461.53 1250.53 1461.32 1250.53L1459.91 1248.99C1459.91 1248.99 1459.91 1248.55 1459.91 1248.36 1459.8 1248.15 1459.8 1247.9 1459.91 1247.68L1461.12 1246.52C1461.35 1246.43 1461.6 1246.43 1461.83 1246.52 1462.06 1246.44 1462.31 1246.44 1462.54 1246.52L1463.96 1247.83C1463.96 1247.83 1464.61 1248.26 1464.61 1248.5ZM1468.97 1249.18 1468.97 1247.83C1468.97 1247.83 1468.97 1247.39 1468.97 1247.2L1463.55 1242.37 1463.04 1242.37 1461.12 1242.37C1460.89 1242.28 1460.64 1242.28 1460.41 1242.37L1455.35 1247.2C1455.25 1247.4 1455.25 1247.63 1455.35 1247.83L1455.35 1249.37C1455.25 1249.57 1455.25 1249.8 1455.35 1250L1460.41 1254.83C1460.41 1254.83 1460.87 1254.83 1461.12 1254.83L1462.74 1254.83 1463.25 1254.83 1468.66 1250C1468.66 1250 1469.12 1249.57 1469.12 1249.37ZM1450.29 1251.55 1437.68 1258.65C1435.95 1259.63 1433.72 1259.09 1432.68 1257.45 1432.66 1257.41 1432.64 1257.38 1432.62 1257.34 1431.54 1255.88 1431.91 1253.86 1433.44 1252.83 1433.63 1252.71 1433.83 1252.6 1434.04 1252.51L1441.12 1248.6 1434.04 1244.69C1432.29 1243.63 1431.76 1241.43 1432.87 1239.76 1433.87 1238.25 1435.88 1237.67 1437.58 1238.41L1450.34 1245.36C1451.19 1245.82 1451.79 1246.62 1451.96 1247.54 1451.96 1247.54 1451.96 1248.17 1451.96 1248.41 1452.07 1248.75 1452.07 1249.12 1451.96 1249.47 1451.78 1250.39 1451.24 1251.2 1450.44 1251.74ZM1459.05 1259.37 1459.05 1273.28C1458.94 1275.21 1457.28 1276.73 1455.25 1276.76 1453.24 1276.84 1451.54 1275.35 1451.45 1273.43 1451.45 1273.38 1451.45 1273.33 1451.45 1273.28L1451.45 1265.65 1444.36 1269.56C1442.6 1270.54 1440.34 1269.96 1439.31 1268.28 1439.31 1268.27 1439.31 1268.26 1439.3 1268.26 1438.37 1266.52 1439.07 1264.39 1440.87 1263.48L1453.63 1256.52C1454.31 1256.26 1455.03 1256.12 1455.76 1256.09 1457.57 1256.41 1458.96 1257.81 1459.2 1259.56ZM1465.07 1237.4 1465.07 1223.49C1465.1 1221.54 1466.77 1219.98 1468.81 1220.01 1468.83 1220.01 1468.85 1220.01 1468.87 1220.01 1470.9 1220.03 1472.56 1221.55 1472.66 1223.49L1472.66 1231.31 1479.75 1227.4C1481.54 1226.52 1483.73 1227.09 1484.81 1228.7 1485.77 1230.41 1485.15 1232.54 1483.4 1233.53L1470.74 1240.68C1470.05 1240.92 1469.34 1241.06 1468.61 1241.11 1466.59 1240.96 1465.04 1239.33 1465.07 1237.4ZM1439.3 1228.7C1440.38 1227.09 1442.58 1226.52 1444.36 1227.4L1451.45 1231.31 1451.45 1223.49C1451.48 1221.54 1453.15 1219.98 1455.19 1220 1455.26 1220 1455.33 1220 1455.4 1220.01 1457.37 1220.06 1458.95 1221.6 1458.94 1223.49L1458.94 1237.4C1459.08 1239.18 1457.68 1240.73 1455.82 1240.86 1455.74 1240.87 1455.67 1240.87 1455.6 1240.87 1454.86 1241.06 1454.07 1240.9 1453.48 1240.44L1440.87 1233.48C1439.07 1232.63 1438.34 1230.54 1439.24 1228.82 1439.26 1228.78 1439.28 1228.74 1439.3 1228.7ZM1489.93 1244.59 1482.84 1248.5 1489.93 1252.42C1491.66 1253.42 1492.28 1255.53 1491.34 1257.25 1490.25 1258.75 1488.21 1259.33 1486.43 1258.65L1473.57 1251.74C1472.82 1251.19 1472.25 1250.43 1471.95 1249.57 1471.84 1249.22 1471.76 1248.86 1471.7 1248.5 1471.7 1248.26 1471.95 1247.83 1471.95 1247.63 1472.25 1246.77 1472.82 1246.01 1473.57 1245.46L1486.43 1238.51C1488.27 1237.69 1490.46 1238.34 1491.5 1240 1492.48 1241.53 1491.98 1243.52 1490.39 1244.46 1490.3 1244.5 1490.22 1244.55 1490.13 1244.59Z" fill="#29B5E8" fill-rule="evenodd"/><path d="M1426.83 1263.57C1425.31 1263.82 1423.76 1263.95 1422.21 1263.96 1415.87 1263.95 1409.75 1261.75 1404.97 1257.75 1403.78 1256.75 1402 1256.75 1400.8 1257.75 1396.03 1261.75 1389.91 1263.95 1383.56 1263.96 1381.83 1263.75 1380.25 1264.93 1380.03 1266.59 1379.81 1268.25 1381.03 1269.77 1382.77 1269.98 1383.03 1270.01 1383.3 1270.01 1383.56 1269.98 1390.51 1269.97 1397.28 1267.83 1402.86 1263.86 1408.46 1267.83 1415.25 1269.97 1422.21 1269.98 1424.84 1269.96 1427.46 1269.62 1430 1268.97 1428.79 1267.26 1427.73 1265.45 1426.83 1263.57Z" fill="#29B5E8" fill-rule="evenodd"/><path d="M1539.21 1263.98C1532.84 1263.95 1526.7 1261.74 1521.9 1257.76 1520.72 1256.75 1518.92 1256.75 1517.74 1257.76 1512.91 1261.77 1506.71 1263.98 1500.29 1263.98 1499.32 1263.95 1498.36 1263.87 1497.4 1263.74 1496.45 1265.71 1495.31 1267.6 1494 1269.37 1496.07 1269.78 1498.18 1269.99 1500.29 1270 1507.27 1269.96 1514.06 1267.82 1519.67 1263.88 1525.33 1267.85 1532.17 1269.99 1539.21 1270 1540.96 1269.79 1542.2 1268.27 1541.97 1266.61 1541.79 1265.23 1540.65 1264.15 1539.21 1263.98Z" fill="#29B5E8" fill-rule="evenodd"/></g></svg>