<svg width="162" height="75" xmlns="http://www.w3.org/2000/svg" xmlns:xlink="http://www.w3.org/1999/xlink" xml:space="preserve" overflow="hidden"><g transform="translate(-2470 -628)"><path d="M2512 665.001 2512 665.138C2512 668.562 2512.14 671.85 2512.7 675L2519 675C2518.58 671.986 2518.3 668.699 2518.3 665.001Z" fill="#2AB5E8" fill-rule="evenodd"/><path d="M2605.06 633.839C2600.27 640.327 2597.16 651.745 2597.16 665.5 2597.16 679.124 2600.27 690.543 2605.06 697.161L2594.06 697.161C2588.36 697.161 2582.01 684.185 2582.01 665.5 2582.01 646.815 2588.36 633.839 2594.06 633.839ZM2614.52 633.839C2617.11 633.839 2619.96 636.953 2622.16 642.144 2624.75 648.372 2626.17 656.677 2626.17 665.5 2626.17 683.536 2620.09 697.161 2614.52 697.161 2612.06 697.161 2609.21 694.047 2607.01 688.727 2604.42 682.628 2602.99 674.324 2602.99 665.5 2602.99 647.334 2609.08 633.839 2614.52 633.839ZM2497.32 628C2492.01 628 2487.35 632.282 2483.98 639.938 2482.81 642.792 2481.78 646.166 2481 649.799L2486.96 649.799C2489.16 639.938 2493.43 633.839 2497.32 633.839L2508.71 633.839C2507.55 635.526 2506.38 637.473 2505.35 639.938 2504.05 642.792 2503.02 646.166 2502.24 649.799L2507.94 649.799C2510.27 639.808 2514.54 633.58 2518.56 633.58 2518.69 633.58 2518.81 633.45 2518.94 633.45 2519.07 633.45 2519.2 633.58 2519.33 633.58 2520.76 633.58 2522.18 634.488 2523.35 635.526 2520.24 636.953 2517.52 640.068 2515.58 644.739 2514.8 646.296 2514.28 647.983 2513.76 649.799L2519.85 649.799C2521.79 643.96 2524.64 640.586 2526.84 640.586L2528.14 640.586C2528.14 640.586 2528.27 640.846 2528.27 640.846 2528.4 640.846 2528.4 640.976 2528.4 640.976L2580.33 641.365C2577.74 647.983 2576.31 656.547 2576.31 665.63 2576.31 674.713 2577.87 683.926 2580.72 690.673L2540.57 690.414C2540.44 690.673 2540.18 690.932 2540.05 691.062 2538.37 692.749 2536.82 694.566 2535.26 696.253L2583.7 696.512 2583.82 696.512C2586.67 700.664 2590.3 703 2594.06 703L2614.52 703C2624.49 703 2632 686.91 2632 665.5 2632 644.09 2624.49 628 2614.52 628L2594.19 628C2590.04 628 2586.29 630.595 2583.31 635.396L2529.82 635.007C2526.07 629.298 2522.05 628 2519.2 628 2519.07 628 2518.94 628 2518.81 628.13 2518.69 628.13 2518.56 628 2518.43 628Z" fill="#2AB5E8" fill-rule="evenodd"/><path d="M2527.55 671C2526.88 671 2526.2 671.26 2525.64 671.826 2524.61 672.862 2524.61 674.545 2525.64 675.71L2529.75 679.982 2482.08 679.982C2480.8 679.982 2479.64 680.888 2479.39 682.053 2479 683.866 2480.28 685.549 2482.08 685.549L2530.01 685.549 2525.51 690.339C2524.48 691.504 2524.61 693.187 2525.77 694.223 2526.28 694.741 2526.92 695 2527.57 695 2528.34 695 2529.11 694.741 2529.62 694.093L2538.23 684.643C2538.49 684.384 2538.49 684.125 2538.61 683.995 2538.61 683.995 2538.74 683.866 2538.74 683.866L2538.74 683.737C2539 683.348 2539 682.83 2538.87 682.313 2538.87 682.183 2538.87 682.183 2538.87 682.053 2538.74 681.665 2538.61 681.277 2538.23 681.018 2538.23 680.888 2538.23 680.888 2538.23 680.759L2529.49 671.826C2528.96 671.293 2528.26 671 2527.55 671Z" fill="#2AB5E8" fill-rule="evenodd"/><path d="M2544.66 646C2543.96 646 2543.25 646.26 2542.67 646.778 2541.63 647.816 2541.63 649.503 2542.67 650.67L2546.81 654.951 2479.24 654.951C2477.94 654.951 2476.65 655.859 2476.39 657.156 2476 658.973 2477.42 660.529 2479.11 660.529L2547.07 660.529 2542.67 665.459C2541.63 666.497 2541.76 668.313 2542.8 669.35 2543.31 669.74 2543.96 669.999 2544.61 669.999 2545.39 669.999 2546.16 669.74 2546.68 669.091L2555.22 659.622C2555.48 659.362 2555.61 659.232 2555.61 658.973 2555.74 658.843 2555.74 658.843 2555.74 658.843L2555.74 658.713C2556 658.324 2556 657.805 2555.87 657.416 2555.87 657.286 2555.87 657.156 2555.87 657.027 2555.74 656.638 2555.61 656.249 2555.35 655.989 2555.22 655.859 2555.22 655.859 2555.22 655.859L2546.55 646.778C2546.03 646.26 2545.35 646 2544.66 646Z" fill="#2AB5E8" fill-rule="evenodd"/><path d="M2474.68 668C2473.27 668 2472.13 669.052 2472.13 670.369 2472 671.816 2473.15 673 2474.55 673L2502.58 673C2503.98 673 2505 671.947 2505 670.5 2505 669.184 2503.98 668 2502.58 668Z" fill="#2AB5E8" fill-rule="evenodd"/><path d="M2472.85 694C2471.55 694 2470.39 694.921 2470.26 696.237 2470 697.684 2471.29 698.999 2472.72 698.999L2518.54 698.999C2519.96 698.999 2521 697.947 2521 696.5 2521 695.184 2519.96 694 2518.54 694Z" fill="#2AB5E8" fill-rule="evenodd"/></g></svg>