<svg width="156" height="101" xmlns="http://www.w3.org/2000/svg" xmlns:xlink="http://www.w3.org/1999/xlink" xml:space="preserve" overflow="hidden"><defs><clipPath id="clip0"><rect x="1641" y="1219" width="156" height="101"/></clipPath></defs><g clip-path="url(#clip0)" transform="translate(-1641 -1219)"><path d="M1771 1310C1771 1304.48 1766.52 1300 1761 1300 1755.48 1300 1751 1304.48 1751 1310 1751 1315.52 1755.48 1320 1761 1320 1766.52 1320 1771 1315.52 1771 1310ZM1766.43 1310C1766.43 1312.99 1764 1315.42 1761.01 1315.42 1758.02 1315.42 1755.6 1312.99 1755.6 1310 1755.6 1307.01 1758.02 1304.58 1761.01 1304.58 1764 1304.58 1766.43 1307.01 1766.43 1310Z" fill="#28B5E8" fill-rule="evenodd"/><path d="M1761 1240C1755.48 1240 1751 1235.3 1751 1229.5 1751 1223.7 1755.48 1219 1761 1219 1766.52 1219 1771 1223.7 1771 1229.5 1771 1235.3 1766.52 1240 1761 1240Z" fill="#28B5E8" fill-rule="evenodd"/><path d="M1787 1219C1792.52 1219 1797 1223.7 1797 1229.5 1797 1235.3 1792.52 1240 1787 1240 1781.48 1240 1777 1235.3 1777 1229.5 1777 1223.7 1781.48 1219 1787 1219Z" fill="#28B5E8" fill-rule="evenodd"/><path d="M1777 1256C1777 1261.52 1781.48 1266 1787 1266 1792.52 1266 1797 1261.52 1797 1256 1797 1250.48 1792.52 1246 1787 1246 1781.48 1246 1777 1250.48 1777 1256ZM1781.57 1256C1781.57 1253.01 1784 1250.58 1786.99 1250.58 1789.98 1250.58 1792.4 1253.01 1792.4 1256 1792.4 1258.99 1789.98 1261.42 1786.99 1261.42 1784 1261.42 1781.57 1258.99 1781.57 1256Z" fill="#28B5E8" fill-rule="evenodd"/><path d="M1787 1300C1792.52 1300 1797 1304.48 1797 1310 1797 1315.52 1792.52 1320 1787 1320 1781.48 1320 1777 1315.52 1777 1310 1777 1304.48 1781.48 1300 1787 1300Z" fill="#28B5E8" fill-rule="evenodd"/><path d="M1736 1300C1741.52 1300 1746 1304.48 1746 1310 1746 1315.52 1741.52 1320 1736 1320 1730.48 1320 1726 1315.52 1726 1310 1726 1304.48 1730.48 1300 1736 1300Z" fill="#28B5E8" fill-rule="evenodd"/><path d="M1787 1273C1792.52 1273 1797 1277.48 1797 1283 1797 1288.52 1792.52 1293 1787 1293 1781.48 1293 1777 1288.52 1777 1283 1777 1277.48 1781.48 1273 1787 1273Z" fill="#28B5E8" fill-rule="evenodd"/><path d="M1736 1219C1741.52 1219 1746 1223.7 1746 1229.5 1746 1235.3 1741.52 1240 1736 1240 1730.48 1240 1726 1235.3 1726 1229.5 1726 1223.7 1730.48 1219 1736 1219Z" fill="#28B5E8" fill-rule="evenodd"/><path d="M1767.87 1283.62C1767.21 1284.89 1765.55 1285.21 1764.39 1284.58L1759.42 1281.7 1759.42 1287.44C1759.42 1288.72 1758.26 1290 1756.77 1290 1755.28 1290 1754.12 1288.88 1754.12 1287.44L1754.12 1277.22C1754.12 1275.78 1755.12 1274.66 1756.6 1274.51 1757.09 1274.51 1757.6 1274.66 1758.09 1274.83L1766.87 1279.94C1768.19 1280.75 1768.7 1282.34 1767.87 1283.62ZM1753.78 1268.93C1753.78 1269.08 1753.62 1269.25 1753.45 1269.41L1752.45 1270.52C1752.28 1270.52 1752.12 1270.68 1751.96 1270.68 1751.8 1270.68 1751.62 1270.52 1751.47 1270.52L1750.47 1269.41C1750.3 1269.41 1750.3 1269.08 1750.3 1268.93 1750.3 1268.77 1750.3 1268.6 1750.47 1268.45L1751.47 1267.49C1751.64 1267.33 1751.8 1267.33 1751.96 1267.33 1752.12 1267.33 1752.3 1267.33 1752.45 1267.49L1753.45 1268.45C1753.62 1268.6 1753.78 1268.77 1753.78 1268.93ZM1756.93 1269.56 1756.93 1268.45C1756.93 1268.29 1756.76 1268.12 1756.76 1267.97L1752.94 1264.3 1752.61 1264.14 1751.44 1264.14C1751.28 1264.14 1751.11 1264.14 1750.95 1264.3L1747.3 1267.97C1747.14 1268.12 1747.14 1268.29 1747.14 1268.45L1747.14 1269.56C1747.14 1269.72 1747.14 1269.89 1747.3 1270.04L1750.95 1273.72C1751.12 1273.72 1751.29 1273.87 1751.44 1273.87L1752.61 1273.87 1752.94 1273.72 1756.76 1270.04C1756.76 1269.89 1756.93 1269.72 1756.93 1269.56ZM1743.84 1271.32 1734.89 1276.43C1733.72 1277.06 1732.07 1276.75 1731.41 1275.47 1730.58 1274.2 1731.07 1272.59 1732.4 1271.95L1737.37 1269.07 1732.4 1266.19C1731.08 1265.39 1730.58 1263.79 1731.41 1262.52 1732.07 1261.25 1733.72 1260.92 1734.89 1261.56L1743.84 1266.67C1744.5 1267 1744.83 1267.63 1745 1268.27 1745.17 1268.42 1745.17 1268.75 1745.17 1268.9 1745.17 1269.23 1745.17 1269.38 1745 1269.71 1744.83 1270.34 1744.51 1270.82 1743.84 1271.3ZM1749.97 1277.06 1749.97 1287.29C1749.97 1288.73 1748.65 1289.84 1747.32 1289.84 1745.83 1289.84 1744.66 1288.73 1744.66 1287.29L1744.66 1281.54 1739.7 1284.42C1738.38 1285.22 1736.71 1284.74 1736.05 1283.46 1735.39 1282.34 1735.71 1280.75 1737.05 1279.94L1746 1274.83C1746.33 1274.68 1746.99 1274.51 1747.48 1274.51 1748.8 1274.66 1749.8 1275.78 1749.97 1277.06ZM1754.11 1260.78 1754.11 1250.56C1754.11 1249.12 1755.27 1248 1756.76 1248 1758.08 1248 1759.41 1249.12 1759.41 1250.56L1759.41 1256.3 1764.38 1253.42C1765.54 1252.79 1767.2 1253.27 1767.86 1254.38 1768.69 1255.66 1768.19 1257.26 1766.86 1258.06L1758.08 1263.17C1757.59 1263.32 1757.08 1263.49 1756.59 1263.49 1755.1 1263.34 1754.11 1262.22 1754.11 1260.78ZM1736.05 1254.4C1736.71 1253.12 1738.37 1252.8 1739.7 1253.44L1744.66 1256.32 1744.66 1250.57C1744.66 1249.13 1745.83 1248.01 1747.32 1248.01 1748.64 1248.01 1749.8 1249.13 1749.8 1250.57L1749.8 1260.79C1749.8 1262.23 1748.8 1263.35 1747.48 1263.35 1746.99 1263.5 1746.49 1263.35 1746 1263.02L1737.05 1257.91C1735.73 1257.28 1735.39 1255.68 1736.05 1254.4ZM1771.67 1266.05 1766.71 1268.93 1771.67 1271.81C1772.99 1272.61 1773.33 1274.21 1772.67 1275.48 1771.84 1276.6 1770.35 1277.08 1769.02 1276.44L1760.07 1271.33C1759.58 1270.85 1759.07 1270.37 1758.91 1269.73 1758.91 1269.58 1758.74 1269.25 1758.74 1268.93 1758.74 1268.77 1758.91 1268.45 1758.91 1268.29 1759.07 1267.66 1759.57 1267.18 1760.07 1266.7L1769.02 1261.58C1770.34 1260.95 1771.84 1261.43 1772.67 1262.7 1773.33 1263.82 1773.01 1265.41 1771.67 1266.05Z" fill="#28B5E8" fill-rule="evenodd"/><path d="M1674 1254C1676.21 1254 1678 1255.79 1678 1258L1678 1258C1678 1260.21 1676.21 1262 1674 1262L1666 1262C1663.79 1262 1662 1260.21 1662 1258L1662 1258C1662 1255.79 1663.79 1254 1666 1254Z" fill="#28B5E8" fill-rule="evenodd"/><path d="M1705.26 1254C1707.33 1254 1709 1255.79 1709 1258L1709 1258C1709 1260.21 1707.33 1262 1705.26 1262L1688.74 1262C1686.67 1262 1685 1260.21 1685 1258L1685 1258C1685 1255.79 1686.67 1254 1688.74 1254Z" fill="#28B5E8" fill-rule="evenodd"/><path d="M1651.2 1267C1653.3 1267 1655 1268.79 1655 1271L1655 1271C1655 1273.21 1653.3 1275 1651.2 1275L1644.8 1275C1642.7 1275 1641 1273.21 1641 1271L1641 1271C1641 1268.79 1642.7 1267 1644.8 1267Z" fill="#28B5E8" fill-rule="evenodd"/><path d="M1709.18 1267C1711.29 1267 1713 1268.79 1713 1271L1713 1271C1713 1273.21 1711.29 1275 1709.18 1275L1665.82 1275C1663.71 1275 1662 1273.21 1662 1271L1662 1271C1662 1268.79 1663.71 1267 1665.82 1267Z" fill="#28B5E8" fill-rule="evenodd"/><path d="M1720.16 1281C1722.28 1281 1724 1282.79 1724 1285L1724 1285C1724 1287.21 1722.28 1289 1720.16 1289L1702.84 1289C1700.72 1289 1699 1287.21 1699 1285L1699 1285C1699 1282.79 1700.72 1281 1702.84 1281Z" fill="#28B5E8" fill-rule="evenodd"/><path d="M1691.18 1281C1693.29 1281 1695 1282.79 1695 1285L1695 1285C1695 1287.21 1693.29 1289 1691.18 1289L1663.82 1289C1661.71 1289 1660 1287.21 1660 1285L1660 1285C1660 1282.79 1661.71 1281 1663.82 1281Z" fill="#28B5E8" fill-rule="evenodd"/><path d="M1720 1254C1722.21 1254 1724 1255.79 1724 1258L1724 1258C1724 1260.21 1722.21 1262 1720 1262L1720 1262C1717.79 1262 1716 1260.21 1716 1258L1716 1258C1716 1255.79 1717.79 1254 1720 1254Z" fill="#28B5E8" fill-rule="evenodd"/></g></svg>