<svg width="156" height="101" xmlns="http://www.w3.org/2000/svg" xmlns:xlink="http://www.w3.org/1999/xlink" xml:space="preserve" overflow="hidden"><defs><clipPath id="clip0"><rect x="1641" y="615" width="156" height="101"/></clipPath></defs><g clip-path="url(#clip0)" transform="translate(-1641 -615)"><path d="M1761 642C1766.52 642 1771 646.476 1771 652 1771 657.524 1766.52 662 1761 662 1755.48 662 1751 657.524 1751 652 1751 646.476 1755.48 642 1761 642Z" fill="#28B5E8" fill-rule="evenodd"/><path d="M1771 679C1771 673.476 1766.52 669 1761 669 1755.48 669 1751 673.476 1751 679 1751 684.524 1755.48 689 1761 689 1766.52 689 1771 684.524 1771 679ZM1766.43 679C1766.43 681.988 1764 684.417 1761.01 684.417 1758.02 684.417 1755.6 681.988 1755.6 679 1755.6 676.012 1758.02 673.583 1761.01 673.583 1764 673.583 1766.43 676.012 1766.43 679Z" fill="#28B5E8" fill-rule="evenodd"/><path d="M1771 705.5C1771 699.7 1766.52 695 1761 695 1755.48 695 1751 699.7 1751 705.5 1751 711.3 1755.48 716 1761 716 1766.52 716 1771 711.3 1771 705.5ZM1766.43 705.5C1766.43 708.638 1764 711.188 1761.01 711.188 1758.02 711.188 1755.6 708.638 1755.6 705.5 1755.6 702.362 1758.02 699.812 1761.01 699.812 1764 699.812 1766.43 702.362 1766.43 705.5Z" fill="#28B5E8" fill-rule="evenodd"/><path d="M1761 635C1755.48 635 1751 630.524 1751 625 1751 619.476 1755.48 615 1761 615 1766.52 615 1771 619.476 1771 625 1771 630.524 1766.52 635 1761 635Z" fill="#28B5E8" fill-rule="evenodd"/><path d="M1787 615C1792.52 615 1797 619.476 1797 625 1797 630.524 1792.52 635 1787 635 1781.48 635 1777 630.524 1777 625 1777 619.476 1781.48 615 1787 615Z" fill="#28B5E8" fill-rule="evenodd"/><path d="M1777 652C1777 657.524 1781.48 662 1787 662 1792.52 662 1797 657.524 1797 652 1797 646.476 1792.52 642 1787 642 1781.48 642 1777 646.476 1777 652ZM1781.57 652C1781.57 649.012 1784 646.583 1786.99 646.583 1789.98 646.583 1792.4 649.012 1792.4 652 1792.4 654.988 1789.98 657.417 1786.99 657.417 1784 657.417 1781.57 654.988 1781.57 652Z" fill="#28B5E8" fill-rule="evenodd"/><path d="M1787 695C1792.52 695 1797 699.7 1797 705.5 1797 711.3 1792.52 716 1787 716 1781.48 716 1777 711.3 1777 705.5 1777 699.7 1781.48 695 1787 695Z" fill="#28B5E8" fill-rule="evenodd"/><path d="M1736 695C1741.52 695 1746 699.7 1746 705.5 1746 711.3 1741.52 716 1736 716 1730.48 716 1726 711.3 1726 705.5 1726 699.7 1730.48 695 1736 695Z" fill="#28B5E8" fill-rule="evenodd"/><path d="M1787 669C1792.52 669 1797 673.476 1797 679 1797 684.524 1792.52 689 1787 689 1781.48 689 1777 684.524 1777 679 1777 673.476 1781.48 669 1787 669Z" fill="#28B5E8" fill-rule="evenodd"/><path d="M1736 615C1741.52 615 1746 619.476 1746 625 1746 630.524 1741.52 635 1736 635 1730.48 635 1726 630.524 1726 625 1726 619.476 1730.48 615 1736 615Z" fill="#28B5E8" fill-rule="evenodd"/><path d="M1673.25 650C1675.32 650 1677 651.794 1677 654.006L1677 653.994C1677 656.206 1675.32 658 1673.25 658L1665.75 658C1663.68 658 1662 656.206 1662 653.994L1662 654.006C1662 651.794 1663.68 650 1665.75 650Z" fill="#28B5E8" fill-rule="evenodd"/><path d="M1705.26 650C1707.32 650 1709 651.794 1709 654.006L1709 653.994C1709 656.206 1707.32 658 1705.26 658L1688.74 658C1686.68 658 1685 656.206 1685 653.994L1685 654.006C1685 651.794 1686.68 650 1688.74 650Z" fill="#28B5E8" fill-rule="evenodd"/><path d="M1733.26 650C1735.33 650 1737 651.794 1737 654.006L1737 653.994C1737 656.206 1735.33 658 1733.26 658L1719.74 658C1717.67 658 1716 656.206 1716 653.994L1716 654.006C1716 651.794 1717.67 650 1719.74 650Z" fill="#28B5E8" fill-rule="evenodd"/><path d="M1651.2 663C1653.3 663 1655 664.794 1655 667.007L1655 666.994C1655 669.206 1653.3 671 1651.2 671L1644.8 671C1642.7 671 1641 669.206 1641 666.994L1641 667.007C1641 664.794 1642.7 663 1644.8 663Z" fill="#28B5E8" fill-rule="evenodd"/><path d="M1708.25 663C1710.32 663 1712 664.794 1712 667.007L1712 666.994C1712 669.206 1710.32 671 1708.25 671L1665.75 671C1663.68 671 1662 669.206 1662 666.994L1662 667.007C1662 664.794 1663.68 663 1665.75 663Z" fill="#28B5E8" fill-rule="evenodd"/><path d="M1723.49 663C1725.43 663 1727 664.794 1727 667.007L1727 666.994C1727 669.206 1725.43 671 1723.49 671L1723.51 671C1721.57 671 1720 669.206 1720 666.994L1720 667.007C1720 664.794 1721.57 663 1723.51 663Z" fill="#28B5E8" fill-rule="evenodd"/><path d="M1739.19 677C1741.3 677 1743 678.569 1743 680.506L1743 680.494C1743 682.431 1741.3 684 1739.19 684L1702.81 684C1700.7 684 1699 682.431 1699 680.494L1699 680.506C1699 678.569 1700.7 677 1702.81 677Z" fill="#28B5E8" fill-rule="evenodd"/><path d="M1690.28 677C1692.34 677 1694 678.569 1694 680.506L1694 680.494C1694 682.431 1692.34 684 1690.28 684L1663.72 684C1661.66 684 1660 682.431 1660 680.494L1660 680.506C1660 678.569 1661.66 677 1663.72 677Z" fill="#28B5E8" fill-rule="evenodd"/></g></svg>